<?xml version="1.0" encoding="UTF-8" standalone="no"?>
<!DOCTYPE svg PUBLIC "-//W3C//DTD SVG 1.1//EN"
 "http://www.w3.org/Graphics/SVG/1.1/DTD/svg11.dtd">
<!-- Generated by graphviz version 2.38.0 (20140413.2041)
 -->
<!-- Title: Nuspell Pages: 1 -->
<svg width="1653pt" height="1275pt"
 viewBox="0.00 0.00 1653.00 1275.36" xmlns="http://www.w3.org/2000/svg" xmlns:xlink="http://www.w3.org/1999/xlink">
<g id="graph0" class="graph" transform="scale(1 1) rotate(0) translate(4 1271.36)">
<title>Nuspell</title>
<polygon fill="white" stroke="none" points="-4,4 -4,-1271.36 1649,-1271.36 1649,4 -4,4"/>
<text text-anchor="middle" x="822.5" y="-1247.36" font-family="Arial" font-size="20.00">Nuspell</text>
<g id="clust1" class="cluster"><title>cluster_dic_data</title>
<polygon fill="none" stroke="#595959" stroke-dasharray="5,2" points="8,-40.0456 8,-1054.36 944,-1054.36 944,-40.0456 8,-40.0456"/>
<text text-anchor="start" x="457.5" y="-1043.36" font-family="Arial" font-style="italic" font-size="10.00" fill="#595959">dic_data</text>
</g>
<g id="clust2" class="cluster"><title>cluster_add_hidden_homonym</title>
<polygon fill="none" stroke="#595959" stroke-dasharray="5,2" points="1231,-8 1231,-404.14 1637,-404.14 1637,-8 1231,-8"/>
<text text-anchor="start" x="1386.5" y="-393.14" font-family="Arial" font-style="italic" font-size="10.00" fill="#595959">Add hidden homonym</text>
</g>
<!-- file_dic -->
<g id="node1" class="node"><title>file_dic</title>
<polygon fill="none" stroke="black" stroke-width="2" points="448.5,-1237.36 329.5,-1237.36 329.5,-1118.36 448.5,-1118.36 448.5,-1237.36"/>
<text text-anchor="start" x="342" y="-1174.66" font-family="Arial" font-weight="bold" font-size="14.00">Dictionary file</text>
</g>
<!-- read_number -->
<g id="node2" class="node"><title>read_number</title>
<ellipse fill="none" stroke="black" cx="306" cy="-977.865" rx="49.4949" ry="49.4949"/>
<text text-anchor="start" x="287.5" y="-981.665" font-family="Arial" font-weight="bold" font-size="14.00">Read</text>
<text text-anchor="start" x="279" y="-967.665" font-family="Arial" font-weight="bold" font-size="14.00">number</text>
</g>
<!-- file_dic&#45;&gt;read_number -->
<g id="edge1" class="edge"><title>file_dic&#45;&gt;read_number</title>
<path fill="none" stroke="black" d="M359.109,-1118.27C356.281,-1112.26 353.529,-1106.22 351,-1100.36 341.834,-1079.15 332.778,-1055.4 325.22,-1034.56"/>
<polygon fill="black" stroke="black" points="328.424,-1033.12 321.747,-1024.9 321.837,-1035.49 328.424,-1033.12"/>
<text text-anchor="start" x="355" y="-1087.76" font-family="Arial" font-weight="bold" font-size="12.00" fill="#3184e4">(1) </text>
<text text-anchor="start" x="373" y="-1087.76" font-family="Arial" font-weight="bold" font-size="12.00">read</text>
<text text-anchor="start" x="359.5" y="-1069.36" font-family="Arial" font-size="10.00">first line</text>
</g>
<!-- read_line -->
<g id="node3" class="node"><title>read_line</title>
<ellipse fill="none" stroke="black" cx="465" cy="-977.865" rx="37.4533" ry="37.4533"/>
<text text-anchor="start" x="446.5" y="-981.665" font-family="Arial" font-weight="bold" font-size="14.00">Read</text>
<text text-anchor="start" x="452.5" y="-967.665" font-family="Arial" font-weight="bold" font-size="14.00">line</text>
</g>
<!-- file_dic&#45;&gt;read_line -->
<g id="edge2" class="edge"><title>file_dic&#45;&gt;read_line</title>
<path fill="none" stroke="black" d="M411.494,-1118.26C423.24,-1087.66 437.372,-1050.84 448.162,-1022.73"/>
<polygon fill="black" stroke="black" points="451.514,-1023.77 451.83,-1013.17 444.979,-1021.26 451.514,-1023.77"/>
<text text-anchor="start" x="436" y="-1087.76" font-family="Arial" font-weight="bold" font-size="12.00" fill="#3184e4">(2) </text>
<text text-anchor="start" x="454" y="-1087.76" font-family="Arial" font-weight="bold" font-size="12.00">read</text>
<text text-anchor="start" x="450" y="-1069.36" font-family="Arial" font-size="10.00">line</text>
</g>
<!-- read_line&#45;&gt;read_line -->
<g id="edge3" class="edge"><title>read_line&#45;&gt;read_line</title>
<path fill="none" stroke="black" d="M500.317,-990.564C535.533,-997.803 574.477,-993.57 574.477,-977.865 574.477,-963.632 542.493,-958.821 510.285,-963.432"/>
<polygon fill="black" stroke="black" points="509.569,-960.004 500.317,-965.166 510.769,-966.901 509.569,-960.004"/>
<text text-anchor="start" x="578.477" y="-984.265" font-family="Arial" font-weight="bold" font-size="12.00" fill="#3184e4">(3) </text>
<text text-anchor="start" x="596.477" y="-984.265" font-family="Arial" font-weight="bold" font-size="12.00">read</text>
<text text-anchor="start" x="592.477" y="-965.865" font-family="Arial" font-size="10.00">line</text>
</g>
<!-- parse_line_slash -->
<g id="node4" class="node"><title>parse_line_slash</title>
<ellipse fill="none" stroke="black" cx="142" cy="-779.414" rx="60.623" ry="60.623"/>
<text text-anchor="start" x="107.5" y="-783.214" font-family="Arial" font-weight="bold" font-size="14.00">Parse line</text>
<text text-anchor="start" x="107" y="-769.214" font-family="Arial" font-weight="bold" font-size="14.00">with slash</text>
</g>
<!-- read_line&#45;&gt;parse_line_slash -->
<g id="edge4" class="edge"><title>read_line&#45;&gt;parse_line_slash</title>
<path fill="none" stroke="black" d="M436.58,-953.29C423.512,-943.809 407.309,-933.842 391,-928.367 362.917,-918.941 145.227,-932.01 125,-910.367 108.755,-892.985 108.616,-868.123 114.137,-844.79"/>
<polygon fill="black" stroke="black" points="117.577,-845.478 116.819,-834.91 110.821,-843.644 117.577,-845.478"/>
<text text-anchor="start" x="129.5" y="-897.767" font-family="Arial" font-weight="bold" font-size="12.00" fill="#3184e4">(4) </text>
<text text-anchor="start" x="147.5" y="-897.767" font-family="Arial" font-weight="bold" font-size="12.00">IF has unescaped slash: parse</text>
<text text-anchor="start" x="218" y="-879.367" font-family="Arial" font-size="10.00">line</text>
</g>
<!-- parse_line_tab -->
<g id="node5" class="node"><title>parse_line_tab</title>
<ellipse fill="none" stroke="black" cx="377" cy="-779.414" rx="60.2083" ry="60.2083"/>
<text text-anchor="start" x="342.5" y="-783.214" font-family="Arial" font-weight="bold" font-size="14.00">Parse line</text>
<text text-anchor="start" x="349.5" y="-769.214" font-family="Arial" font-weight="bold" font-size="14.00">with tab</text>
</g>
<!-- read_line&#45;&gt;parse_line_tab -->
<g id="edge5" class="edge"><title>read_line&#45;&gt;parse_line_tab</title>
<path fill="none" stroke="black" d="M434.626,-955.602C421.471,-946.751 405.736,-936.634 391,-928.367 374.702,-919.224 362.993,-926.159 353,-910.367 340.496,-890.609 341.752,-865.985 347.794,-843.502"/>
<polygon fill="black" stroke="black" points="351.218,-844.269 350.761,-833.684 344.518,-842.244 351.218,-844.269"/>
<text text-anchor="start" x="357.5" y="-897.767" font-family="Arial" font-weight="bold" font-size="12.00" fill="#3184e4">(5) </text>
<text text-anchor="start" x="375.5" y="-897.767" font-family="Arial" font-weight="bold" font-size="12.00">IF has tab: parse</text>
<text text-anchor="start" x="406" y="-879.367" font-family="Arial" font-size="10.00">line</text>
</g>
<!-- parse_line_colon -->
<g id="node6" class="node"><title>parse_line_colon</title>
<ellipse fill="none" stroke="black" cx="581" cy="-779.414" rx="60.2083" ry="60.2083"/>
<text text-anchor="start" x="546.5" y="-783.214" font-family="Arial" font-weight="bold" font-size="14.00">Parse line</text>
<text text-anchor="start" x="554" y="-769.214" font-family="Arial" font-weight="bold" font-size="14.00">with aa:</text>
</g>
<!-- read_line&#45;&gt;parse_line_colon -->
<g id="edge6" class="edge"><title>read_line&#45;&gt;parse_line_colon</title>
<path fill="none" stroke="black" d="M483.637,-945.302C500.346,-917.005 525.306,-874.734 545.771,-840.076"/>
<polygon fill="black" stroke="black" points="548.798,-841.833 550.869,-831.442 542.77,-838.274 548.798,-841.833"/>
<text text-anchor="start" x="531.5" y="-897.767" font-family="Arial" font-weight="bold" font-size="12.00" fill="#3184e4">(6) </text>
<text text-anchor="start" x="549.5" y="-897.767" font-family="Arial" font-weight="bold" font-size="12.00">IF has char, char, colon: parse</text>
<text text-anchor="start" x="618" y="-879.367" font-family="Arial" font-size="10.00">line</text>
</g>
<!-- parse_line_simple -->
<g id="node7" class="node"><title>parse_line_simple</title>
<ellipse fill="none" stroke="black" cx="821" cy="-779.414" rx="74.9067" ry="74.9067"/>
<text text-anchor="start" x="776" y="-783.214" font-family="Arial" font-weight="bold" font-size="14.00">Parse simple</text>
<text text-anchor="start" x="808.5" y="-769.214" font-family="Arial" font-weight="bold" font-size="14.00">line</text>
</g>
<!-- read_line&#45;&gt;parse_line_simple -->
<g id="edge7" class="edge"><title>read_line&#45;&gt;parse_line_simple</title>
<path fill="none" stroke="black" d="M502.825,-976.703C559.95,-974.639 669.274,-963.404 742,-910.367 760.583,-896.816 775.666,-877.44 787.48,-857.773"/>
<polygon fill="black" stroke="black" points="790.552,-859.452 792.511,-849.04 784.486,-855.958 790.552,-859.452"/>
<text text-anchor="start" x="781" y="-897.767" font-family="Arial" font-weight="bold" font-size="12.00" fill="#3184e4">(7) </text>
<text text-anchor="start" x="799" y="-897.767" font-family="Arial" font-weight="bold" font-size="12.00">ELSE: parse</text>
<text text-anchor="start" x="818" y="-879.367" font-family="Arial" font-size="10.00">line</text>
</g>
<!-- collect -->
<g id="node8" class="node"><title>collect</title>
<ellipse fill="none" stroke="black" cx="604" cy="-554.8" rx="75.8212" ry="75.8212"/>
<text text-anchor="start" x="579.5" y="-565.6" font-family="Arial" font-weight="bold" font-size="14.00">Collect</text>
<text text-anchor="start" x="561.5" y="-551.6" font-family="Arial" font-weight="bold" font-size="14.00">(word, flags,</text>
<text text-anchor="start" x="558.5" y="-537.6" font-family="Arial" font-weight="bold" font-size="14.00">morph fields)</text>
</g>
<!-- parse_line_slash&#45;&gt;collect -->
<g id="edge8" class="edge"><title>parse_line_slash&#45;&gt;collect</title>
<path fill="none" stroke="black" d="M185.764,-736.925C217.571,-708.664 262.802,-672.209 308,-648.461 375.506,-612.991 458.906,-588.408 519.957,-573.522"/>
<polygon fill="black" stroke="black" points="521.033,-576.863 529.939,-571.126 519.398,-570.057 521.033,-576.863"/>
<text text-anchor="start" x="341" y="-673.861" font-family="Arial" font-weight="bold" font-size="12.00" fill="#3184e4">(8) </text>
<text text-anchor="start" x="359" y="-673.861" font-family="Arial" font-weight="bold" font-size="12.00">collect</text>
<text text-anchor="start" x="312.5" y="-655.461" font-family="Arial" font-size="10.00">(word, flags, morph fields)</text>
</g>
<!-- parse_line_tab&#45;&gt;collect -->
<g id="edge9" class="edge"><title>parse_line_tab&#45;&gt;collect</title>
<path fill="none" stroke="black" d="M410.955,-729.616C429.838,-704.104 454.608,-673.14 480,-648.461 496.211,-632.705 515.156,-617.299 533.289,-603.714"/>
<polygon fill="black" stroke="black" points="535.59,-606.366 541.55,-597.606 531.429,-600.737 535.59,-606.366"/>
<text text-anchor="start" x="499" y="-673.861" font-family="Arial" font-weight="bold" font-size="12.00" fill="#3184e4">(9) </text>
<text text-anchor="start" x="517" y="-673.861" font-family="Arial" font-weight="bold" font-size="12.00">collect</text>
<text text-anchor="start" x="484" y="-655.461" font-family="Arial" font-size="10.00">(word, morph fields)</text>
</g>
<!-- parse_line_colon&#45;&gt;collect -->
<g id="edge10" class="edge"><title>parse_line_colon&#45;&gt;collect</title>
<path fill="none" stroke="black" d="M587.103,-719.342C589.605,-695.128 592.547,-666.648 595.27,-640.3"/>
<polygon fill="black" stroke="black" points="598.755,-640.626 596.301,-630.319 591.792,-639.907 598.755,-640.626"/>
<text text-anchor="start" x="609.5" y="-673.861" font-family="Arial" font-weight="bold" font-size="12.00" fill="#3184e4">(10) </text>
<text text-anchor="start" x="634.5" y="-673.861" font-family="Arial" font-weight="bold" font-size="12.00">collect</text>
<text text-anchor="start" x="598" y="-655.461" font-family="Arial" font-size="10.00">(word, morph fields)</text>
</g>
<!-- parse_line_simple&#45;&gt;collect -->
<g id="edge11" class="edge"><title>parse_line_simple&#45;&gt;collect</title>
<path fill="none" stroke="black" d="M773.051,-721.551C752.896,-698.364 728.857,-671.617 706,-648.461 694.058,-636.362 680.888,-623.842 668.09,-612.065"/>
<polygon fill="black" stroke="black" points="670.352,-609.391 660.611,-605.226 665.629,-614.557 670.352,-609.391"/>
<text text-anchor="start" x="743.5" y="-673.861" font-family="Arial" font-weight="bold" font-size="12.00" fill="#3184e4">(11) </text>
<text text-anchor="start" x="768.5" y="-673.861" font-family="Arial" font-weight="bold" font-size="12.00">collect</text>
<text text-anchor="start" x="764.5" y="-655.461" font-family="Arial" font-size="10.00">word</text>
</g>
<!-- store_overwrite -->
<g id="node9" class="node"><title>store_overwrite</title>
<ellipse fill="none" stroke="black" cx="238" cy="-295.116" rx="60.623" ry="60.623"/>
<text text-anchor="start" x="203" y="-298.916" font-family="Arial" font-weight="bold" font-size="14.00">Store with</text>
<text text-anchor="start" x="206" y="-284.916" font-family="Arial" font-weight="bold" font-size="14.00">overwrite</text>
</g>
<!-- collect&#45;&gt;store_overwrite -->
<g id="edge16" class="edge"><title>collect&#45;&gt;store_overwrite</title>
<path fill="none" stroke="black" d="M529.667,-540.422C474.449,-527.522 399.708,-503.52 346,-461.14 312.196,-434.465 285.541,-394.173 267.169,-360.08"/>
<polygon fill="black" stroke="black" points="270.198,-358.321 262.443,-351.103 264.004,-361.582 270.198,-358.321"/>
<text text-anchor="start" x="350.5" y="-448.04" font-family="Arial" font-weight="bold" font-size="12.00" fill="#3184e4">(16) </text>
<text text-anchor="start" x="375.5" y="-448.04" font-family="Arial" font-weight="bold" font-size="12.00">IF (word exists AND is hidden homonym):</text>
<text text-anchor="start" x="466" y="-436.04" font-family="Arial" font-weight="bold" font-size="12.00">store</text>
<text text-anchor="start" x="424.5" y="-418.64" font-family="Arial" font-size="10.00">(word, flags, morph fields)</text>
</g>
<!-- store_merge -->
<g id="node10" class="node"><title>store_merge</title>
<ellipse fill="none" stroke="black" cx="679" cy="-295.116" rx="60.623" ry="60.623"/>
<text text-anchor="start" x="644" y="-298.916" font-family="Arial" font-weight="bold" font-size="14.00">Store with</text>
<text text-anchor="start" x="657" y="-284.916" font-family="Arial" font-weight="bold" font-size="14.00">merge</text>
</g>
<!-- collect&#45;&gt;store_merge -->
<g id="edge12" class="edge"><title>collect&#45;&gt;store_merge</title>
<path fill="none" stroke="black" d="M624.892,-482.021C635.668,-444.996 648.737,-400.092 659.332,-363.692"/>
<polygon fill="black" stroke="black" points="662.816,-364.244 662.25,-353.664 656.095,-362.288 662.816,-364.244"/>
<text text-anchor="start" x="648" y="-448.04" font-family="Arial" font-weight="bold" font-size="12.00" fill="#3184e4">(12) </text>
<text text-anchor="start" x="673" y="-448.04" font-family="Arial" font-weight="bold" font-size="12.00">IF (word exists AND is NOT hidden homonym)</text>
<text text-anchor="start" x="721.5" y="-436.04" font-family="Arial" font-weight="bold" font-size="12.00">or word NOT exist: store</text>
<text text-anchor="start" x="734.5" y="-418.64" font-family="Arial" font-size="10.00">(word, flags, morph fields)</text>
</g>
<!-- make_initcap -->
<g id="node14" class="node"><title>make_initcap</title>
<ellipse fill="none" stroke="black" cx="1294" cy="-295.116" rx="55.3091" ry="55.3091"/>
<text text-anchor="start" x="1263" y="-298.916" font-family="Arial" font-weight="bold" font-size="14.00">Make init</text>
<text text-anchor="start" x="1271" y="-284.916" font-family="Arial" font-weight="bold" font-size="14.00">capital</text>
</g>
<!-- collect&#45;&gt;make_initcap -->
<g id="edge20" class="edge"><title>collect&#45;&gt;make_initcap</title>
<path fill="none" stroke="black" d="M678.112,-538.75C750.26,-523.064 862.408,-495.92 956,-461.14 1058.45,-423.067 1171.42,-364.235 1237.36,-328.065"/>
<polygon fill="black" stroke="black" points="1239.28,-331.006 1246.35,-323.116 1235.9,-324.875 1239.28,-331.006"/>
<text text-anchor="start" x="1075" y="-443.04" font-family="Arial" font-weight="bold" font-size="12.00" fill="#3184e4">(20) </text>
<text text-anchor="start" x="1100" y="-443.04" font-family="Arial" font-weight="bold" font-size="12.00">make initcap</text>
<text text-anchor="start" x="1113.5" y="-424.64" font-family="Arial" font-size="10.00">word</text>
</g>
<!-- add_hidden_homonym_flag -->
<g id="node15" class="node"><title>add_hidden_homonym_flag</title>
<ellipse fill="none" stroke="black" cx="1503" cy="-295.116" rx="82.0488" ry="82.0488"/>
<text text-anchor="start" x="1462.5" y="-298.916" font-family="Arial" font-weight="bold" font-size="14.00">Add hidden</text>
<text text-anchor="start" x="1453" y="-284.916" font-family="Arial" font-weight="bold" font-size="14.00">homonym flag</text>
</g>
<!-- collect&#45;&gt;add_hidden_homonym_flag -->
<g id="edge21" class="edge"><title>collect&#45;&gt;add_hidden_homonym_flag</title>
<path fill="none" stroke="black" d="M679.31,-545.604C850.665,-525.969 1264.19,-472.729 1385,-404.14 1404.48,-393.081 1423.4,-378.268 1440.17,-363.166"/>
<polygon fill="black" stroke="black" points="1442.73,-365.565 1447.72,-356.218 1437.99,-360.413 1442.73,-365.565"/>
<text text-anchor="start" x="1368.5" y="-443.04" font-family="Arial" font-weight="bold" font-size="12.00" fill="#3184e4">(21) </text>
<text text-anchor="start" x="1393.5" y="-443.04" font-family="Arial" font-weight="bold" font-size="12.00">add flag</text>
<text text-anchor="start" x="1393" y="-424.64" font-family="Arial" font-size="10.00">flags</text>
</g>
<!-- set -->
<g id="node11" class="node"><title>set</title>
<text text-anchor="start" x="784" y="-62.8456" font-family="Arial" font-weight="bold" font-size="14.00">Word set D</text>
<polyline fill="none" stroke="black" points="779,-53.5456 865,-53.5456 "/>
<polyline fill="none" stroke="black" points="865,-78.5456 779,-78.5456 "/>
</g>
<!-- store_overwrite&#45;&gt;set -->
<g id="edge17" class="edge"><title>store_overwrite&#45;&gt;set</title>
<path fill="none" stroke="black" d="M295.714,-275.725C343.157,-259.016 410.817,-231.433 463,-195.091 493.951,-173.536 488.03,-150.481 522,-134.091 596.403,-98.1935 626.959,-136.534 707,-116.091 732.097,-109.681 758.787,-98.5891 780.13,-88.5733"/>
<polygon fill="black" stroke="black" points="781.723,-91.6911 789.231,-84.2161 778.7,-85.3773 781.723,-91.6911"/>
<text text-anchor="start" x="526.5" y="-170.991" font-family="Arial" font-weight="bold" font-size="12.00" fill="#3184e4">(17) </text>
<text text-anchor="start" x="551.5" y="-170.991" font-family="Arial" font-weight="bold" font-size="12.00">store</text>
<text text-anchor="start" x="543.5" y="-152.591" font-family="Arial" font-size="10.00">word</text>
</g>
<!-- flags -->
<g id="node12" class="node"><title>flags</title>
<text text-anchor="start" x="140" y="-62.8456" font-family="Arial" font-weight="bold" font-size="14.00">Word, Flag relation D,F</text>
<polyline fill="none" stroke="black" points="134.5,-53.5456 301.5,-53.5456 "/>
<polyline fill="none" stroke="black" points="301.5,-78.5456 134.5,-78.5456 "/>
</g>
<!-- store_overwrite&#45;&gt;flags -->
<g id="edge18" class="edge"><title>store_overwrite&#45;&gt;flags</title>
<path fill="none" stroke="black" d="M180.311,-275.777C143.019,-260.58 97.4037,-234.916 75,-195.091 61.7074,-171.462 60.4571,-156.972 75,-134.091 88.5737,-112.736 110.944,-98.0642 134.005,-88.033"/>
<polygon fill="black" stroke="black" points="135.613,-91.1576 143.555,-84.1457 132.974,-84.6741 135.613,-91.1576"/>
<text text-anchor="start" x="79.5" y="-170.991" font-family="Arial" font-weight="bold" font-size="12.00" fill="#3184e4">(18) </text>
<text text-anchor="start" x="104.5" y="-170.991" font-family="Arial" font-weight="bold" font-size="12.00">store</text>
<text text-anchor="start" x="80" y="-152.591" font-family="Arial" font-size="10.00">word × flags</text>
</g>
<!-- morph -->
<g id="node13" class="node"><title>morph</title>
<text text-anchor="start" x="450" y="-62.8456" font-family="Arial" font-weight="bold" font-size="14.00">Word, Morph field relation D,M</text>
<polyline fill="none" stroke="black" points="445,-53.5456 663,-53.5456 "/>
<polyline fill="none" stroke="black" points="663,-78.5456 445,-78.5456 "/>
</g>
<!-- store_overwrite&#45;&gt;morph -->
<g id="edge19" class="edge"><title>store_overwrite&#45;&gt;morph</title>
<path fill="none" stroke="black" d="M211.05,-240.568C197.986,-206.238 189.928,-162.874 215,-134.091 234.156,-112.1 316.328,-121.428 345,-116.091 389.588,-107.791 439.01,-96.3001 478.596,-86.5269"/>
<polygon fill="black" stroke="black" points="479.578,-89.8894 488.44,-84.0822 477.891,-83.0958 479.578,-89.8894"/>
<text text-anchor="start" x="234.5" y="-170.991" font-family="Arial" font-weight="bold" font-size="12.00" fill="#3184e4">(19) </text>
<text text-anchor="start" x="259.5" y="-170.991" font-family="Arial" font-weight="bold" font-size="12.00">store</text>
<text text-anchor="start" x="219" y="-152.591" font-family="Arial" font-size="10.00">word × morph fields</text>
</g>
<!-- store_merge&#45;&gt;set -->
<g id="edge13" class="edge"><title>store_merge&#45;&gt;set</title>
<path fill="none" stroke="black" d="M714.228,-245.308C725.323,-229.479 737.433,-211.713 748,-195.091 769.961,-160.549 793.267,-119.371 807.727,-93.2185"/>
<polygon fill="black" stroke="black" points="810.879,-94.7513 812.635,-84.3031 804.747,-91.3754 810.879,-94.7513"/>
<text text-anchor="start" x="788.5" y="-170.991" font-family="Arial" font-weight="bold" font-size="12.00" fill="#3184e4">(13) </text>
<text text-anchor="start" x="813.5" y="-170.991" font-family="Arial" font-weight="bold" font-size="12.00">store</text>
<text text-anchor="start" x="805.5" y="-152.591" font-family="Arial" font-size="10.00">word</text>
</g>
<!-- store_merge&#45;&gt;flags -->
<g id="edge14" class="edge"><title>store_merge&#45;&gt;flags</title>
<path fill="none" stroke="black" d="M619.538,-282.185C557.872,-268.004 460.266,-240.379 386,-195.091 352.724,-174.8 353.579,-158.256 323,-134.091 302.305,-117.737 277.499,-101.749 257.195,-89.4903"/>
<polygon fill="black" stroke="black" points="258.886,-86.4233 248.505,-84.3038 255.298,-92.4342 258.886,-86.4233"/>
<text text-anchor="start" x="390.5" y="-170.991" font-family="Arial" font-weight="bold" font-size="12.00" fill="#3184e4">(14) </text>
<text text-anchor="start" x="415.5" y="-170.991" font-family="Arial" font-weight="bold" font-size="12.00">store</text>
<text text-anchor="start" x="391" y="-152.591" font-family="Arial" font-size="10.00">word × flags</text>
</g>
<!-- store_merge&#45;&gt;morph -->
<g id="edge15" class="edge"><title>store_merge&#45;&gt;morph</title>
<path fill="none" stroke="black" d="M655.783,-238.728C641.851,-207.294 622.99,-167.648 603,-134.091 594.367,-119.6 583.39,-104.35 574.015,-92.062"/>
<polygon fill="black" stroke="black" points="576.719,-89.8373 567.829,-84.0739 571.185,-94.1233 576.719,-89.8373"/>
<text text-anchor="start" x="655.5" y="-170.991" font-family="Arial" font-weight="bold" font-size="12.00" fill="#3184e4">(15) </text>
<text text-anchor="start" x="680.5" y="-170.991" font-family="Arial" font-weight="bold" font-size="12.00">store</text>
<text text-anchor="start" x="640" y="-152.591" font-family="Arial" font-size="10.00">word × morph fields</text>
</g>
<!-- collect2 -->
<g id="node16" class="node"><title>collect2</title>
<ellipse fill="none" stroke="black" cx="1311" cy="-66.0456" rx="50.0912" ry="50.0912"/>
<text text-anchor="start" x="1280.5" y="-63.3456" font-family="Arial" font-weight="bold" font-size="14.00">Collect 2</text>
</g>
<!-- make_initcap&#45;&gt;collect2 -->
<g id="edge22" class="edge"><title>make_initcap&#45;&gt;collect2</title>
<path fill="none" stroke="black" d="M1293.12,-239.894C1293.17,-208.836 1294.19,-169.179 1298,-134.091 1298.31,-131.218 1298.68,-128.284 1299.1,-125.327"/>
<polygon fill="black" stroke="black" points="1302.59,-125.657 1300.66,-115.239 1295.67,-124.586 1302.59,-125.657"/>
<text text-anchor="start" x="1319.5" y="-170.991" font-family="Arial" font-weight="bold" font-size="12.00" fill="#3184e4">(22) </text>
<text text-anchor="start" x="1344.5" y="-170.991" font-family="Arial" font-weight="bold" font-size="12.00">collect</text>
<text text-anchor="start" x="1302" y="-152.591" font-family="Arial" font-size="10.00">homonym initcap word</text>
</g>
<!-- add_hidden_homonym_flag&#45;&gt;collect2 -->
<g id="edge23" class="edge"><title>add_hidden_homonym_flag&#45;&gt;collect2</title>
<path fill="none" stroke="black" d="M1472.86,-218.41C1459.03,-189.83 1440.61,-158.382 1418,-134.091 1402.98,-117.958 1383.25,-104.156 1364.83,-93.3414"/>
<polygon fill="black" stroke="black" points="1366.35,-90.1749 1355.92,-88.2756 1362.89,-96.2604 1366.35,-90.1749"/>
<text text-anchor="start" x="1496.5" y="-170.991" font-family="Arial" font-weight="bold" font-size="12.00" fill="#3184e4">(23) </text>
<text text-anchor="start" x="1521.5" y="-170.991" font-family="Arial" font-weight="bold" font-size="12.00">collect</text>
<text text-anchor="start" x="1464.5" y="-152.591" font-family="Arial" font-size="10.00">flags + homonym initcap flag</text>
</g>
<!-- collect2&#45;&gt;store_merge -->
<g id="edge24" class="edge"><title>collect2&#45;&gt;store_merge</title>
<path fill="none" stroke="black" d="M1261.81,-75.9259C1205.44,-86.7756 1110.68,-107.076 1032,-134.091 927.088,-170.111 810.916,-226.097 741.487,-261.399"/>
<polygon fill="black" stroke="black" points="739.74,-258.362 732.424,-266.026 742.922,-264.597 739.74,-258.362"/>
<text text-anchor="start" x="1062" y="-181.991" font-family="Arial" font-weight="bold" font-size="12.00" fill="#3184e4">(24) </text>
<text text-anchor="start" x="1087" y="-181.991" font-family="Arial" font-weight="bold" font-size="12.00">IF (NOT exist homonym) OR</text>
<text text-anchor="start" x="1047.5" y="-169.991" font-family="Arial" font-weight="bold" font-size="12.00">found word is also hidden homonym:</text>
<text text-anchor="start" x="1139" y="-157.991" font-family="Arial" font-weight="bold" font-size="12.00">store</text>
<text text-anchor="start" x="1036" y="-140.591" font-family="Arial" font-size="10.00">(homonym initcap word, flags + homonym initcap flag)</text>
</g>
</g>
</svg>
