<?xml version="1.0" encoding="UTF-8" standalone="no"?>
<!DOCTYPE svg PUBLIC "-//W3C//DTD SVG 1.1//EN"
 "http://www.w3.org/Graphics/SVG/1.1/DTD/svg11.dtd">
<!-- Generated by graphviz version 2.38.0 (20140413.2041)
 -->
<!-- Title: Nuspell Pages: 1 -->
<svg width="1147pt" height="1961pt"
 viewBox="0.00 0.00 1147.00 1961.09" xmlns="http://www.w3.org/2000/svg" xmlns:xlink="http://www.w3.org/1999/xlink">
<g id="graph0" class="graph" transform="scale(1 1) rotate(0) translate(4 1957.09)">
<title>Nuspell</title>
<polygon fill="white" stroke="none" points="-4,4 -4,-1957.09 1143,-1957.09 1143,4 -4,4"/>
<text text-anchor="middle" x="569.5" y="-1933.09" font-family="Arial" font-size="20.00">Nuspell</text>
<g id="clust1" class="cluster"><title>cluster_dic_data</title>
<polygon fill="none" stroke="#595959" stroke-dasharray="5,2" points="8,-8 8,-1740.09 1131,-1740.09 1131,-8 8,-8"/>
<text text-anchor="start" x="551" y="-1729.09" font-family="Arial" font-style="italic" font-size="10.00" fill="#595959">dic_data</text>
</g>
<!-- file_dic -->
<g id="node1" class="node"><title>file_dic</title>
<polygon fill="none" stroke="black" stroke-width="2" points="499.5,-1923.09 380.5,-1923.09 380.5,-1804.09 499.5,-1804.09 499.5,-1923.09"/>
<text text-anchor="start" x="393" y="-1860.39" font-family="Arial" font-weight="bold" font-size="14.00">Dictionary file</text>
</g>
<!-- read_number -->
<g id="node2" class="node"><title>read_number</title>
<ellipse fill="none" stroke="black" cx="334" cy="-1641.6" rx="71.4873" ry="71.4873"/>
<text text-anchor="start" x="287" y="-1638.9" font-family="Arial" font-weight="bold" font-size="14.00">Read number</text>
</g>
<!-- file_dic&#45;&gt;read_number -->
<g id="edge1" class="edge"><title>file_dic&#45;&gt;read_number</title>
<path fill="none" stroke="black" d="M410.638,-1803.76C407.705,-1797.8 404.784,-1791.83 402,-1786.09 390.946,-1763.31 379.071,-1738.41 368.387,-1715.83"/>
<polygon fill="black" stroke="black" points="371.483,-1714.19 364.044,-1706.65 365.154,-1717.19 371.483,-1714.19"/>
<text text-anchor="start" x="406" y="-1773.49" font-family="Arial" font-weight="bold" font-size="12.00" fill="#3184e4">(1) </text>
<text text-anchor="start" x="424" y="-1773.49" font-family="Arial" font-weight="bold" font-size="12.00">read</text>
<text text-anchor="start" x="410.5" y="-1755.09" font-family="Arial" font-size="10.00">first line</text>
</g>
<!-- read_line -->
<g id="node3" class="node"><title>read_line</title>
<ellipse fill="none" stroke="black" cx="530" cy="-1641.6" rx="52.7911" ry="52.7911"/>
<text text-anchor="start" x="497.5" y="-1638.9" font-family="Arial" font-weight="bold" font-size="14.00">Read line</text>
</g>
<!-- file_dic&#45;&gt;read_line -->
<g id="edge2" class="edge"><title>file_dic&#45;&gt;read_line</title>
<path fill="none" stroke="black" d="M464,-1803.93C477.119,-1771.86 493.308,-1732.29 506.369,-1700.36"/>
<polygon fill="black" stroke="black" points="509.768,-1701.3 510.315,-1690.72 503.289,-1698.65 509.768,-1701.3"/>
<text text-anchor="start" x="489" y="-1773.49" font-family="Arial" font-weight="bold" font-size="12.00" fill="#3184e4">(2) </text>
<text text-anchor="start" x="507" y="-1773.49" font-family="Arial" font-weight="bold" font-size="12.00">read</text>
<text text-anchor="start" x="503" y="-1755.09" font-family="Arial" font-size="10.00">line</text>
</g>
<!-- read_line&#45;&gt;read_line -->
<g id="edge3" class="edge"><title>read_line&#45;&gt;read_line</title>
<path fill="none" stroke="black" d="M579.591,-1659.4C616.916,-1665.73 654.645,-1659.79 654.645,-1641.6 654.645,-1625.04 623.391,-1618.64 589.634,-1622.39"/>
<polygon fill="black" stroke="black" points="589.008,-1618.94 579.591,-1623.79 589.98,-1625.87 589.008,-1618.94"/>
<text text-anchor="start" x="658.645" y="-1648" font-family="Arial" font-weight="bold" font-size="12.00" fill="#3184e4">(3) </text>
<text text-anchor="start" x="676.645" y="-1648" font-family="Arial" font-weight="bold" font-size="12.00">read</text>
<text text-anchor="start" x="672.645" y="-1629.6" font-family="Arial" font-size="10.00">line</text>
</g>
<!-- parse_line_slash -->
<g id="node4" class="node"><title>parse_line_slash</title>
<ellipse fill="none" stroke="black" cx="138" cy="-1393.41" rx="102.882" ry="102.882"/>
<text text-anchor="start" x="67" y="-1390.71" font-family="Arial" font-weight="bold" font-size="14.00">Parse line with slash</text>
</g>
<!-- read_line&#45;&gt;parse_line_slash -->
<g id="edge4" class="edge"><title>read_line&#45;&gt;parse_line_slash</title>
<path fill="none" stroke="black" d="M493.336,-1603.41C478.375,-1590.56 460.105,-1577.54 441,-1570.1 389.297,-1549.99 235.945,-1585.97 192,-1552.1 176.215,-1539.94 165.014,-1522.91 157.074,-1504.51"/>
<polygon fill="black" stroke="black" points="160.273,-1503.08 153.323,-1495.09 153.769,-1505.67 160.273,-1503.08"/>
<text text-anchor="start" x="196.5" y="-1539.5" font-family="Arial" font-weight="bold" font-size="12.00" fill="#3184e4">(4) </text>
<text text-anchor="start" x="214.5" y="-1539.5" font-family="Arial" font-weight="bold" font-size="12.00">IF has unescaped slash: parse</text>
<text text-anchor="start" x="285" y="-1521.1" font-family="Arial" font-size="10.00">line</text>
</g>
<!-- parse_line_tab -->
<g id="node5" class="node"><title>parse_line_tab</title>
<ellipse fill="none" stroke="black" cx="406" cy="-1393.41" rx="92.8835" ry="92.8835"/>
<text text-anchor="start" x="342.5" y="-1390.71" font-family="Arial" font-weight="bold" font-size="14.00">Parse line with tab</text>
</g>
<!-- read_line&#45;&gt;parse_line_tab -->
<g id="edge5" class="edge"><title>read_line&#45;&gt;parse_line_tab</title>
<path fill="none" stroke="black" d="M488.651,-1608.5C460.665,-1586.38 428.067,-1559.65 424,-1552.1 414.87,-1535.17 409.381,-1515.74 406.227,-1496.43"/>
<polygon fill="black" stroke="black" points="409.667,-1495.77 404.783,-1486.37 402.738,-1496.76 409.667,-1495.77"/>
<text text-anchor="start" x="428.5" y="-1539.5" font-family="Arial" font-weight="bold" font-size="12.00" fill="#3184e4">(5) </text>
<text text-anchor="start" x="446.5" y="-1539.5" font-family="Arial" font-weight="bold" font-size="12.00">IF has tab: parse</text>
<text text-anchor="start" x="477" y="-1521.1" font-family="Arial" font-size="10.00">line</text>
</g>
<!-- parse_line_colon -->
<g id="node6" class="node"><title>parse_line_colon</title>
<ellipse fill="none" stroke="black" cx="663" cy="-1393.41" rx="92.0841" ry="92.0841"/>
<text text-anchor="start" x="600" y="-1390.71" font-family="Arial" font-weight="bold" font-size="14.00">Parse line with aa:</text>
</g>
<!-- read_line&#45;&gt;parse_line_colon -->
<g id="edge6" class="edge"><title>read_line&#45;&gt;parse_line_colon</title>
<path fill="none" stroke="black" d="M554.705,-1594.87C571.465,-1563.84 594.183,-1521.79 614.483,-1484.22"/>
<polygon fill="black" stroke="black" points="617.641,-1485.74 619.315,-1475.27 611.482,-1482.41 617.641,-1485.74"/>
<text text-anchor="start" x="601.5" y="-1539.5" font-family="Arial" font-weight="bold" font-size="12.00" fill="#3184e4">(6) </text>
<text text-anchor="start" x="619.5" y="-1539.5" font-family="Arial" font-weight="bold" font-size="12.00">IF has char, char, colon: parse</text>
<text text-anchor="start" x="688" y="-1521.1" font-family="Arial" font-size="10.00">line</text>
</g>
<!-- parse_line_simple -->
<g id="node7" class="node"><title>parse_line_simple</title>
<ellipse fill="none" stroke="black" cx="914" cy="-1393.41" rx="87.1846" ry="87.1846"/>
<text text-anchor="start" x="855" y="-1390.71" font-family="Arial" font-weight="bold" font-size="14.00">Parse simple line</text>
</g>
<!-- read_line&#45;&gt;parse_line_simple -->
<g id="edge7" class="edge"><title>read_line&#45;&gt;parse_line_simple</title>
<path fill="none" stroke="black" d="M582.467,-1634.96C643.088,-1626.16 743.291,-1604.38 812,-1552.1 836.479,-1533.48 856.768,-1507.17 872.631,-1481.37"/>
<polygon fill="black" stroke="black" points="875.716,-1483.03 877.84,-1472.65 869.707,-1479.44 875.716,-1483.03"/>
<text text-anchor="start" x="852" y="-1539.5" font-family="Arial" font-weight="bold" font-size="12.00" fill="#3184e4">(7) </text>
<text text-anchor="start" x="870" y="-1539.5" font-family="Arial" font-weight="bold" font-size="12.00">ELSE: parse</text>
<text text-anchor="start" x="889" y="-1521.1" font-family="Arial" font-size="10.00">line</text>
</g>
<!-- collect -->
<g id="node8" class="node"><title>collect</title>
<ellipse fill="none" stroke="black" cx="504" cy="-1078.84" rx="137.772" ry="137.772"/>
<text text-anchor="start" x="479.5" y="-1082.64" font-family="Arial" font-weight="bold" font-size="14.00">Collect</text>
<text text-anchor="start" x="414.5" y="-1068.64" font-family="Arial" font-weight="bold" font-size="14.00">(word, flags, morph fields)</text>
</g>
<!-- parse_line_slash&#45;&gt;collect -->
<g id="edge8" class="edge"><title>parse_line_slash&#45;&gt;collect</title>
<path fill="none" stroke="black" d="M211.738,-1321.64C241.204,-1293.99 275.745,-1262.35 308,-1234.72 333.074,-1213.24 360.567,-1190.84 386.824,-1169.97"/>
<polygon fill="black" stroke="black" points="389.267,-1172.5 394.928,-1163.54 384.918,-1167.01 389.267,-1172.5"/>
<text text-anchor="start" x="341" y="-1260.12" font-family="Arial" font-weight="bold" font-size="12.00" fill="#3184e4">(8) </text>
<text text-anchor="start" x="359" y="-1260.12" font-family="Arial" font-weight="bold" font-size="12.00">collect</text>
<text text-anchor="start" x="312.5" y="-1241.72" font-family="Arial" font-size="10.00">(word, flags, morph fields)</text>
</g>
<!-- parse_line_tab&#45;&gt;collect -->
<g id="edge9" class="edge"><title>parse_line_tab&#45;&gt;collect</title>
<path fill="none" stroke="black" d="M433.559,-1304.51C441.774,-1278.31 450.99,-1248.92 459.979,-1220.24"/>
<polygon fill="black" stroke="black" points="463.366,-1221.14 463.018,-1210.55 456.686,-1219.05 463.366,-1221.14"/>
<text text-anchor="start" x="474" y="-1260.12" font-family="Arial" font-weight="bold" font-size="12.00" fill="#3184e4">(9) </text>
<text text-anchor="start" x="492" y="-1260.12" font-family="Arial" font-weight="bold" font-size="12.00">collect</text>
<text text-anchor="start" x="459" y="-1241.72" font-family="Arial" font-size="10.00">(word, morph fields)</text>
</g>
<!-- parse_line_colon&#45;&gt;collect -->
<g id="edge10" class="edge"><title>parse_line_colon&#45;&gt;collect</title>
<path fill="none" stroke="black" d="M621.432,-1310.7C605.933,-1280.23 587.921,-1244.82 570.728,-1211.02"/>
<polygon fill="black" stroke="black" points="573.794,-1209.32 566.141,-1202 567.555,-1212.5 573.794,-1209.32"/>
<text text-anchor="start" x="613.5" y="-1260.12" font-family="Arial" font-weight="bold" font-size="12.00" fill="#3184e4">(10) </text>
<text text-anchor="start" x="638.5" y="-1260.12" font-family="Arial" font-weight="bold" font-size="12.00">collect</text>
<text text-anchor="start" x="602" y="-1241.72" font-family="Arial" font-size="10.00">(word, morph fields)</text>
</g>
<!-- parse_line_simple&#45;&gt;collect -->
<g id="edge11" class="edge"><title>parse_line_simple&#45;&gt;collect</title>
<path fill="none" stroke="black" d="M847.856,-1336.56C829.605,-1321.47 809.682,-1305.29 791,-1290.72 736.963,-1248.59 675.928,-1203.41 624.079,-1165.73"/>
<polygon fill="black" stroke="black" points="625.988,-1162.79 615.839,-1159.74 621.875,-1168.45 625.988,-1162.79"/>
<text text-anchor="start" x="765.5" y="-1260.12" font-family="Arial" font-weight="bold" font-size="12.00" fill="#3184e4">(11) </text>
<text text-anchor="start" x="790.5" y="-1260.12" font-family="Arial" font-weight="bold" font-size="12.00">collect</text>
<text text-anchor="start" x="786.5" y="-1241.72" font-family="Arial" font-size="10.00">word</text>
</g>
<!-- make_initcap -->
<g id="node9" class="node"><title>make_initcap</title>
<ellipse fill="none" stroke="black" cx="993" cy="-736.962" rx="83.3857" ry="83.3857"/>
<text text-anchor="start" x="937" y="-734.262" font-family="Arial" font-weight="bold" font-size="14.00">Make init capital</text>
</g>
<!-- collect&#45;&gt;make_initcap -->
<g id="edge20" class="edge"><title>collect&#45;&gt;make_initcap</title>
<path fill="none" stroke="black" d="M624.868,-1011.61C692.998,-972.463 778.515,-920.246 850,-866.95 876.122,-847.475 903.078,-824.135 926.449,-802.695"/>
<polygon fill="black" stroke="black" points="928.934,-805.164 933.905,-795.808 924.184,-800.022 928.934,-805.164"/>
<text text-anchor="start" x="828" y="-910.35" font-family="Arial" font-weight="bold" font-size="12.00" fill="#3184e4">(20) </text>
<text text-anchor="start" x="853" y="-910.35" font-family="Arial" font-weight="bold" font-size="12.00">make initcap</text>
<text text-anchor="start" x="866.5" y="-891.95" font-family="Arial" font-size="10.00">word</text>
</g>
<!-- add_hidden_homonym_flag -->
<g id="node10" class="node"><title>add_hidden_homonym_flag</title>
<ellipse fill="none" stroke="black" cx="684" cy="-736.962" rx="129.977" ry="129.977"/>
<text text-anchor="start" x="592" y="-734.262" font-family="Arial" font-weight="bold" font-size="14.00">Add hidden homonym flag</text>
</g>
<!-- collect&#45;&gt;add_hidden_homonym_flag -->
<g id="edge21" class="edge"><title>collect&#45;&gt;add_hidden_homonym_flag</title>
<path fill="none" stroke="black" d="M568.222,-956.573C584.625,-925.602 602.275,-892.274 618.73,-861.204"/>
<polygon fill="black" stroke="black" points="621.978,-862.549 623.566,-852.074 615.792,-859.273 621.978,-862.549"/>
<text text-anchor="start" x="609.5" y="-910.35" font-family="Arial" font-weight="bold" font-size="12.00" fill="#3184e4">(21) </text>
<text text-anchor="start" x="634.5" y="-910.35" font-family="Arial" font-weight="bold" font-size="12.00">add flag</text>
<text text-anchor="start" x="634" y="-891.95" font-family="Arial" font-size="10.00">flags</text>
</g>
<!-- store_overwrite -->
<g id="node11" class="node"><title>store_overwrite</title>
<ellipse fill="none" stroke="black" cx="172" cy="-225.441" rx="99.3824" ry="99.3824"/>
<text text-anchor="start" x="103.5" y="-222.741" font-family="Arial" font-weight="bold" font-size="14.00">Store with overwrite</text>
</g>
<!-- collect&#45;&gt;store_overwrite -->
<g id="edge16" class="edge"><title>collect&#45;&gt;store_overwrite</title>
<path fill="none" stroke="black" d="M403.952,-983.124C315.453,-891.884 192.608,-745.043 141,-588.973 113.242,-505.028 125.103,-404.505 141.559,-330.626"/>
<polygon fill="black" stroke="black" points="144.979,-331.368 143.8,-320.839 138.156,-329.806 144.979,-331.368"/>
<text text-anchor="start" x="145.5" y="-575.873" font-family="Arial" font-weight="bold" font-size="12.00" fill="#3184e4">(16) </text>
<text text-anchor="start" x="170.5" y="-575.873" font-family="Arial" font-weight="bold" font-size="12.00">IF (word exists AND is hidden homonym):</text>
<text text-anchor="start" x="261" y="-563.873" font-family="Arial" font-weight="bold" font-size="12.00">store</text>
<text text-anchor="start" x="219.5" y="-546.473" font-family="Arial" font-size="10.00">(word, flags, morph fields)</text>
</g>
<!-- store_merge -->
<g id="node12" class="node"><title>store_merge</title>
<ellipse fill="none" stroke="black" cx="679" cy="-225.441" rx="83.6854" ry="83.6854"/>
<text text-anchor="start" x="622.5" y="-222.741" font-family="Arial" font-weight="bold" font-size="14.00">Store wth merge</text>
</g>
<!-- collect&#45;&gt;store_merge -->
<g id="edge12" class="edge"><title>collect&#45;&gt;store_merge</title>
<path fill="none" stroke="black" d="M457.686,-948.783C425.051,-837.734 394.533,-674.618 440,-539.973 473.441,-440.941 552.038,-348.486 610.014,-290.004"/>
<polygon fill="black" stroke="black" points="612.735,-292.233 617.335,-282.689 607.787,-287.281 612.735,-292.233"/>
<text text-anchor="start" x="444" y="-575.873" font-family="Arial" font-weight="bold" font-size="12.00" fill="#3184e4">(12) </text>
<text text-anchor="start" x="469" y="-575.873" font-family="Arial" font-weight="bold" font-size="12.00">IF (word exists AND is NOT hidden homonym)</text>
<text text-anchor="start" x="517.5" y="-563.873" font-family="Arial" font-weight="bold" font-size="12.00">or word NOT exist: store</text>
<text text-anchor="start" x="530.5" y="-546.473" font-family="Arial" font-size="10.00">(word, flags, morph fields)</text>
</g>
<!-- collect2 -->
<g id="node16" class="node"><title>collect2</title>
<ellipse fill="none" stroke="black" cx="805" cy="-471.928" rx="50.0912" ry="50.0912"/>
<text text-anchor="start" x="774.5" y="-469.228" font-family="Arial" font-weight="bold" font-size="14.00">Collect 2</text>
</g>
<!-- make_initcap&#45;&gt;collect2 -->
<g id="edge22" class="edge"><title>make_initcap&#45;&gt;collect2</title>
<path fill="none" stroke="black" d="M979.33,-654.868C969.605,-616.688 953.241,-572.506 926,-539.973 908.993,-519.663 884.178,-504.408 861.441,-493.623"/>
<polygon fill="black" stroke="black" points="862.739,-490.368 852.187,-489.418 859.843,-496.741 862.739,-490.368"/>
<text text-anchor="start" x="976.5" y="-570.873" font-family="Arial" font-weight="bold" font-size="12.00" fill="#3184e4">(22) </text>
<text text-anchor="start" x="1001.5" y="-570.873" font-family="Arial" font-weight="bold" font-size="12.00">collect</text>
<text text-anchor="start" x="959" y="-552.473" font-family="Arial" font-size="10.00">homonym initcap word</text>
</g>
<!-- add_hidden_homonym_flag&#45;&gt;collect2 -->
<g id="edge23" class="edge"><title>add_hidden_homonym_flag&#45;&gt;collect2</title>
<path fill="none" stroke="black" d="M737.953,-618.676C752.723,-586.569 768.02,-553.316 780.266,-526.695"/>
<polygon fill="black" stroke="black" points="783.465,-528.115 784.465,-517.568 777.106,-525.19 783.465,-528.115"/>
<text text-anchor="start" x="809.5" y="-570.873" font-family="Arial" font-weight="bold" font-size="12.00" fill="#3184e4">(23) </text>
<text text-anchor="start" x="834.5" y="-570.873" font-family="Arial" font-weight="bold" font-size="12.00">collect</text>
<text text-anchor="start" x="777.5" y="-552.473" font-family="Arial" font-size="10.00">flags + homonym initcap flag</text>
</g>
<!-- set -->
<g id="node13" class="node"><title>set</title>
<text text-anchor="start" x="80" y="-30.8" font-family="Arial" font-weight="bold" font-size="14.00">Word set D</text>
<polyline fill="none" stroke="black" points="75,-21.5 161,-21.5 "/>
<polyline fill="none" stroke="black" points="161,-46.5 75,-46.5 "/>
</g>
<!-- store_overwrite&#45;&gt;set -->
<g id="edge17" class="edge"><title>store_overwrite&#45;&gt;set</title>
<path fill="none" stroke="black" d="M101.506,-155.179C90.6451,-140.688 81.0444,-124.7 75,-108 69.252,-92.1194 67.7483,-85.2528 75,-70 76.8599,-66.0881 79.3945,-62.47 82.3093,-59.1633"/>
<polygon fill="black" stroke="black" points="84.9275,-61.4994 89.6615,-52.021 80.05,-56.4785 84.9275,-61.4994"/>
<text text-anchor="start" x="79.5" y="-95.4" font-family="Arial" font-weight="bold" font-size="12.00" fill="#3184e4">(17) </text>
<text text-anchor="start" x="104.5" y="-95.4" font-family="Arial" font-weight="bold" font-size="12.00">store</text>
<text text-anchor="start" x="96.5" y="-77" font-family="Arial" font-size="10.00">word</text>
</g>
<!-- flags -->
<g id="node14" class="node"><title>flags</title>
<text text-anchor="start" x="741" y="-30.8" font-family="Arial" font-weight="bold" font-size="14.00">Word, Flag relation D,F</text>
<polyline fill="none" stroke="black" points="735.5,-21.5 902.5,-21.5 "/>
<polyline fill="none" stroke="black" points="902.5,-46.5 735.5,-46.5 "/>
</g>
<!-- store_overwrite&#45;&gt;flags -->
<g id="edge18" class="edge"><title>store_overwrite&#45;&gt;flags</title>
<path fill="none" stroke="black" d="M265.755,-192.134C323.797,-170.869 399.17,-140.94 463,-108 490.717,-93.6963 492.645,-80.5411 522,-70 540.275,-63.4375 638.617,-52.5924 717.206,-44.7112"/>
<polygon fill="black" stroke="black" points="717.57,-48.1924 727.173,-43.7168 716.875,-41.2269 717.57,-48.1924"/>
<text text-anchor="start" x="526.5" y="-95.4" font-family="Arial" font-weight="bold" font-size="12.00" fill="#3184e4">(18) </text>
<text text-anchor="start" x="551.5" y="-95.4" font-family="Arial" font-weight="bold" font-size="12.00">store</text>
<text text-anchor="start" x="527" y="-77" font-family="Arial" font-size="10.00">word × flags</text>
</g>
<!-- morph -->
<g id="node15" class="node"><title>morph</title>
<text text-anchor="start" x="374" y="-30.8" font-family="Arial" font-weight="bold" font-size="14.00">Word, Morph field relation D,M</text>
<polyline fill="none" stroke="black" points="369,-21.5 587,-21.5 "/>
<polyline fill="none" stroke="black" points="587,-46.5 369,-46.5 "/>
</g>
<!-- store_overwrite&#45;&gt;morph -->
<g id="edge19" class="edge"><title>store_overwrite&#45;&gt;morph</title>
<path fill="none" stroke="black" d="M181.325,-126.138C187.83,-104.916 198.303,-84.5197 215,-70 235.698,-52.0004 294.061,-43.1734 350.563,-38.88"/>
<polygon fill="black" stroke="black" points="350.987,-42.3587 360.712,-38.1547 350.488,-35.3765 350.987,-42.3587"/>
<text text-anchor="start" x="234.5" y="-95.4" font-family="Arial" font-weight="bold" font-size="12.00" fill="#3184e4">(19) </text>
<text text-anchor="start" x="259.5" y="-95.4" font-family="Arial" font-weight="bold" font-size="12.00">store</text>
<text text-anchor="start" x="219" y="-77" font-family="Arial" font-size="10.00">word × morph fields</text>
</g>
<!-- store_merge&#45;&gt;set -->
<g id="edge13" class="edge"><title>store_merge&#45;&gt;set</title>
<path fill="none" stroke="black" d="M600.06,-197.081C540.201,-175.38 456.489,-142.968 386,-108 356.707,-93.4683 353.65,-81.3943 323,-70 276.416,-52.682 220.659,-43.8685 179.062,-39.4208"/>
<polygon fill="black" stroke="black" points="179.377,-35.9349 169.074,-38.4074 178.67,-42.8991 179.377,-35.9349"/>
<text text-anchor="start" x="390.5" y="-95.4" font-family="Arial" font-weight="bold" font-size="12.00" fill="#3184e4">(13) </text>
<text text-anchor="start" x="415.5" y="-95.4" font-family="Arial" font-weight="bold" font-size="12.00">store</text>
<text text-anchor="start" x="407.5" y="-77" font-family="Arial" font-size="10.00">word</text>
</g>
<!-- store_merge&#45;&gt;flags -->
<g id="edge14" class="edge"><title>store_merge&#45;&gt;flags</title>
<path fill="none" stroke="black" d="M733.07,-161.262C746.873,-144.31 761.371,-125.751 774,-108 784.762,-92.874 795.715,-75.1649 804.121,-60.9773"/>
<polygon fill="black" stroke="black" points="807.214,-62.6225 809.249,-52.2251 801.174,-59.0837 807.214,-62.6225"/>
<text text-anchor="start" x="803.5" y="-95.4" font-family="Arial" font-weight="bold" font-size="12.00" fill="#3184e4">(14) </text>
<text text-anchor="start" x="828.5" y="-95.4" font-family="Arial" font-weight="bold" font-size="12.00">store</text>
<text text-anchor="start" x="804" y="-77" font-family="Arial" font-size="10.00">word × flags</text>
</g>
<!-- store_merge&#45;&gt;morph -->
<g id="edge15" class="edge"><title>store_merge&#45;&gt;morph</title>
<path fill="none" stroke="black" d="M654.861,-144.762C643.108,-117.674 626.33,-89.3831 603,-70 596.723,-64.7851 589.721,-60.3452 582.324,-56.5654"/>
<polygon fill="black" stroke="black" points="583.313,-53.1651 572.769,-52.1221 580.361,-59.5124 583.313,-53.1651"/>
<text text-anchor="start" x="653.5" y="-95.4" font-family="Arial" font-weight="bold" font-size="12.00" fill="#3184e4">(15) </text>
<text text-anchor="start" x="678.5" y="-95.4" font-family="Arial" font-weight="bold" font-size="12.00">store</text>
<text text-anchor="start" x="638" y="-77" font-family="Arial" font-size="10.00">word × morph fields</text>
</g>
<!-- collect2&#45;&gt;store_merge -->
<g id="edge24" class="edge"><title>collect2&#45;&gt;store_merge</title>
<path fill="none" stroke="black" d="M782.474,-427.219C765.698,-394.667 742.281,-349.231 721.967,-309.813"/>
<polygon fill="black" stroke="black" points="724.838,-307.744 717.146,-300.459 718.616,-310.951 724.838,-307.744"/>
<text text-anchor="start" x="798" y="-390.782" font-family="Arial" font-weight="bold" font-size="12.00" fill="#3184e4">(24) </text>
<text text-anchor="start" x="823" y="-390.782" font-family="Arial" font-weight="bold" font-size="12.00">IF (NOT exist homonym) OR</text>
<text text-anchor="start" x="783.5" y="-378.782" font-family="Arial" font-weight="bold" font-size="12.00">found word is also hidden homonym:</text>
<text text-anchor="start" x="875" y="-366.782" font-family="Arial" font-weight="bold" font-size="12.00">store</text>
<text text-anchor="start" x="772" y="-349.382" font-family="Arial" font-size="10.00">(homonym initcap word, flags + homonym initcap flag)</text>
</g>
</g>
</svg>
