<?xml version="1.0" encoding="UTF-8" standalone="no"?>
<!DOCTYPE svg PUBLIC "-//W3C//DTD SVG 1.1//EN"
 "http://www.w3.org/Graphics/SVG/1.1/DTD/svg11.dtd">
<!-- Generated by graphviz version 2.38.0 (20140413.2041)
 -->
<!-- Title: function spell Pages: 1 -->
<svg width="970pt" height="1779pt"
 viewBox="0.00 0.00 970.00 1779.05" xmlns="http://www.w3.org/2000/svg" xmlns:xlink="http://www.w3.org/1999/xlink">
<g id="graph0" class="graph" transform="scale(1 1) rotate(0) translate(4 1775.05)">
<title>function spell</title>
<polygon fill="white" stroke="none" points="-4,4 -4,-1775.05 966,-1775.05 966,4 -4,4"/>
<text text-anchor="middle" x="481" y="-1751.05" font-family="Arial" font-size="20.00">function spell</text>
<g id="clust1" class="cluster"><title>cluster_spell</title>
<polygon fill="none" stroke="#595959" stroke-dasharray="5,2" points="8,-8 8,-1620.05 844,-1620.05 844,-8 8,-8"/>
<text text-anchor="start" x="402.5" y="-1609.05" font-family="Arial" font-style="italic" font-size="10.00" fill="#595959">spell(word)</text>
</g>
<!-- user -->
<g id="node1" class="node"><title>user</title>
<polygon fill="none" stroke="black" stroke-width="2" points="739.5,-1741.05 682.5,-1741.05 682.5,-1684.05 739.5,-1684.05 739.5,-1741.05"/>
<text text-anchor="start" x="695" y="-1709.35" font-family="Arial" font-weight="bold" font-size="14.00">User</text>
</g>
<!-- call_spell -->
<g id="node3" class="node"><title>call_spell</title>
<ellipse fill="none" stroke="black" cx="711" cy="-1526.11" rx="66.8882" ry="66.8882"/>
<text text-anchor="start" x="667.5" y="-1523.41" font-family="Arial" font-weight="bold" font-size="14.00">Begin spell()</text>
</g>
<!-- user&#45;&gt;call_spell -->
<g id="edge1" class="edge"><title>user&#45;&gt;call_spell</title>
<path fill="none" stroke="black" d="M711,-1683.94C711,-1662.54 711,-1631.82 711,-1603.23"/>
<polygon fill="black" stroke="black" points="714.5,-1603.23 711,-1593.23 707.5,-1603.23 714.5,-1603.23"/>
<text text-anchor="start" x="715" y="-1653.45" font-family="Arial" font-weight="bold" font-size="12.00" fill="#3184e4">(1) </text>
<text text-anchor="start" x="733" y="-1653.45" font-family="Arial" font-weight="bold" font-size="12.00">call spell</text>
<text text-anchor="start" x="738.5" y="-1635.05" font-family="Arial" font-size="10.00">word</text>
</g>
<!-- iconv_table -->
<g id="node2" class="node"><title>iconv_table</title>
<text text-anchor="start" x="865" y="-1522.91" font-family="Arial" font-weight="bold" font-size="14.00">ICONV table</text>
<polyline fill="none" stroke="black" points="860,-1513.61 954,-1513.61 "/>
<polyline fill="none" stroke="black" points="954,-1538.61 860,-1538.61 "/>
</g>
<!-- substring_substitute -->
<g id="node4" class="node"><title>substring_substitute</title>
<ellipse fill="none" stroke="black" cx="711" cy="-1324.35" rx="60.623" ry="60.623"/>
<text text-anchor="start" x="677" y="-1328.15" font-family="Arial" font-weight="bold" font-size="14.00">Substring</text>
<text text-anchor="start" x="676" y="-1314.15" font-family="Arial" font-weight="bold" font-size="14.00">substitute</text>
</g>
<!-- iconv_table&#45;&gt;substring_substitute -->
<g id="edge3" class="edge"><title>iconv_table&#45;&gt;substring_substitute</title>
<path fill="none" stroke="black" d="M895.809,-1507.8C879.361,-1483.08 846.919,-1436.91 813,-1403.16 799.678,-1389.91 784.058,-1376.94 769.101,-1365.5"/>
<polygon fill="black" stroke="black" points="770.974,-1362.53 760.879,-1359.32 766.766,-1368.13 770.974,-1362.53"/>
<text text-anchor="start" x="862" y="-1428.56" font-family="Arial" font-weight="bold" font-size="12.00" fill="#3184e4">(3) </text>
<text text-anchor="start" x="880" y="-1428.56" font-family="Arial" font-weight="bold" font-size="12.00">substitute</text>
<text text-anchor="start" x="850.5" y="-1410.16" font-family="Arial" font-size="10.00">(from, to) substitutions</text>
</g>
<!-- call_spell&#45;&gt;substring_substitute -->
<g id="edge2" class="edge"><title>call_spell&#45;&gt;substring_substitute</title>
<path fill="none" stroke="black" d="M711,-1459.14C711,-1438.64 711,-1415.96 711,-1395.2"/>
<polygon fill="black" stroke="black" points="714.5,-1395.18 711,-1385.18 707.5,-1395.18 714.5,-1395.18"/>
<text text-anchor="start" x="715" y="-1428.56" font-family="Arial" font-weight="bold" font-size="12.00" fill="#3184e4">(2) </text>
<text text-anchor="start" x="733" y="-1428.56" font-family="Arial" font-weight="bold" font-size="12.00">substitute</text>
<text text-anchor="start" x="742.5" y="-1410.16" font-family="Arial" font-size="10.00">word</text>
</g>
<!-- trim_trailing_periods -->
<g id="node5" class="node"><title>trim_trailing_periods</title>
<ellipse fill="none" stroke="black" cx="456" cy="-1111.76" rx="69.0935" ry="69.0935"/>
<text text-anchor="start" x="415" y="-1115.56" font-family="Arial" font-weight="bold" font-size="14.00">Trim trailing</text>
<text text-anchor="start" x="429.5" y="-1101.56" font-family="Arial" font-weight="bold" font-size="14.00">periods</text>
</g>
<!-- substring_substitute&#45;&gt;trim_trailing_periods -->
<g id="edge4" class="edge"><title>substring_substitute&#45;&gt;trim_trailing_periods</title>
<path fill="none" stroke="black" d="M664.526,-1284.97C623.193,-1250.83 562.462,-1200.68 517.189,-1163.29"/>
<polygon fill="black" stroke="black" points="519.148,-1160.37 509.208,-1156.7 514.69,-1165.77 519.148,-1160.37"/>
<text text-anchor="start" x="618" y="-1232.94" font-family="Arial" font-weight="bold" font-size="12.00" fill="#3184e4">(4) </text>
<text text-anchor="start" x="636" y="-1232.94" font-family="Arial" font-weight="bold" font-size="12.00">trim</text>
<text text-anchor="start" x="627.5" y="-1214.54" font-family="Arial" font-size="10.00">word</text>
</g>
<!-- count_trailing_periods -->
<g id="node6" class="node"><title>count_trailing_periods</title>
<ellipse fill="none" stroke="black" cx="711" cy="-1111.76" rx="77.5641" ry="77.5641"/>
<text text-anchor="start" x="664" y="-1115.56" font-family="Arial" font-weight="bold" font-size="14.00">Count trailing</text>
<text text-anchor="start" x="684.5" y="-1101.56" font-family="Arial" font-weight="bold" font-size="14.00">periods</text>
</g>
<!-- substring_substitute&#45;&gt;count_trailing_periods -->
<g id="edge5" class="edge"><title>substring_substitute&#45;&gt;count_trailing_periods</title>
<path fill="none" stroke="black" d="M711,-1263.28C711,-1243.55 711,-1221.21 711,-1199.88"/>
<polygon fill="black" stroke="black" points="714.5,-1199.85 711,-1189.85 707.5,-1199.85 714.5,-1199.85"/>
<text text-anchor="start" x="715" y="-1232.94" font-family="Arial" font-weight="bold" font-size="12.00" fill="#3184e4">(5) </text>
<text text-anchor="start" x="733" y="-1232.94" font-family="Arial" font-weight="bold" font-size="12.00">trim</text>
<text text-anchor="start" x="724.5" y="-1214.54" font-family="Arial" font-size="10.00">word</text>
</g>
<!-- trim_leading_space -->
<g id="node7" class="node"><title>trim_leading_space</title>
<ellipse fill="none" stroke="black" cx="434" cy="-888.558" rx="71.3357" ry="71.3357"/>
<text text-anchor="start" x="391.5" y="-892.358" font-family="Arial" font-weight="bold" font-size="14.00">Trim leading</text>
<text text-anchor="start" x="412.5" y="-878.358" font-family="Arial" font-weight="bold" font-size="14.00">space</text>
</g>
<!-- trim_trailing_periods&#45;&gt;trim_leading_space -->
<g id="edge7" class="edge"><title>trim_trailing_periods&#45;&gt;trim_leading_space</title>
<path fill="none" stroke="black" d="M449.22,-1042.59C446.933,-1019.59 444.359,-993.717 441.988,-969.876"/>
<polygon fill="black" stroke="black" points="445.458,-969.401 440.986,-959.797 438.493,-970.094 445.458,-969.401"/>
<text text-anchor="start" x="451" y="-1003.38" font-family="Arial" font-weight="bold" font-size="12.00" fill="#3184e4">(7) </text>
<text text-anchor="start" x="469" y="-1003.38" font-family="Arial" font-weight="bold" font-size="12.00">trim</text>
<text text-anchor="start" x="460.5" y="-984.975" font-family="Arial" font-size="10.00">word</text>
</g>
<!-- abbreviation -->
<g id="node9" class="node"><title>abbreviation</title>
<text text-anchor="start" x="705" y="-892.358" font-family="Arial" font-weight="bold" font-size="14.00">Is</text>
<text text-anchor="start" x="668" y="-878.358" font-family="Arial" font-weight="bold" font-size="14.00">abbreviation</text>
<polyline fill="none" stroke="black" points="662.5,-869.558 759.5,-869.558 "/>
<polyline fill="none" stroke="black" points="759.5,-907.558 662.5,-907.558 "/>
</g>
<!-- count_trailing_periods&#45;&gt;abbreviation -->
<g id="edge6" class="edge"><title>count_trailing_periods&#45;&gt;abbreviation</title>
<path fill="none" stroke="black" d="M711,-1033.7C711,-995.281 711,-950.893 711,-921.639"/>
<polygon fill="black" stroke="black" points="714.5,-921.584 711,-911.584 707.5,-921.585 714.5,-921.584"/>
<text text-anchor="start" x="726" y="-1003.38" font-family="Arial" font-weight="bold" font-size="12.00" fill="#3184e4">(6) </text>
<text text-anchor="start" x="744" y="-1003.38" font-family="Arial" font-weight="bold" font-size="12.00">store</text>
<text text-anchor="start" x="715" y="-984.975" font-family="Arial" font-size="10.00">true if count &gt; 0</text>
</g>
<!-- classify_capitalization -->
<g id="node8" class="node"><title>classify_capitalization</title>
<ellipse fill="none" stroke="black" cx="423" cy="-666.772" rx="76.2353" ry="76.2353"/>
<text text-anchor="start" x="395" y="-670.572" font-family="Arial" font-weight="bold" font-size="14.00">Classify</text>
<text text-anchor="start" x="377" y="-656.572" font-family="Arial" font-weight="bold" font-size="14.00">capitalization</text>
</g>
<!-- trim_leading_space&#45;&gt;classify_capitalization -->
<g id="edge8" class="edge"><title>trim_leading_space&#45;&gt;classify_capitalization</title>
<path fill="none" stroke="black" d="M430.474,-817.109C429.459,-796.824 428.34,-774.47 427.284,-753.374"/>
<polygon fill="black" stroke="black" points="430.767,-752.946 426.772,-743.134 423.776,-753.296 430.767,-752.946"/>
<text text-anchor="start" x="434" y="-786.54" font-family="Arial" font-weight="bold" font-size="12.00" fill="#3184e4">(8) </text>
<text text-anchor="start" x="452" y="-786.54" font-family="Arial" font-weight="bold" font-size="12.00">classify</text>
<text text-anchor="start" x="454.5" y="-768.14" font-family="Arial" font-size="10.00">word</text>
</g>
<!-- camel_case -->
<g id="node10" class="node"><title>camel_case</title>
<ellipse fill="none" stroke="black" cx="59" cy="-469.029" rx="41.0244" ry="41.0244"/>
<text text-anchor="start" x="38" y="-472.829" font-family="Arial" font-weight="bold" font-size="14.00">camel</text>
<text text-anchor="start" x="41" y="-458.829" font-family="Arial" font-weight="bold" font-size="14.00">Case</text>
</g>
<!-- classify_capitalization&#45;&gt;camel_case -->
<g id="edge9" class="edge"><title>classify_capitalization&#45;&gt;camel_case</title>
<path fill="none" stroke="black" d="M346.685,-660.287C277.513,-651.661 176.375,-629.471 109,-572.405 92.4725,-558.406 80.9359,-537.652 73.1445,-518.484"/>
<polygon fill="black" stroke="black" points="76.341,-517.043 69.5101,-508.944 69.7996,-519.535 76.341,-517.043"/>
<text text-anchor="start" x="113" y="-559.805" font-family="Arial" font-weight="bold" font-size="12.00" fill="#3184e4">(9) </text>
<text text-anchor="start" x="131" y="-559.805" font-family="Arial" font-weight="bold" font-size="12.00">case camelCase</text>
<text text-anchor="start" x="158.5" y="-541.405" font-family="Arial" font-size="10.00">word</text>
</g>
<!-- pascal_case -->
<g id="node11" class="node"><title>pascal_case</title>
<ellipse fill="none" stroke="black" cx="217" cy="-469.029" rx="44.5955" ry="44.5955"/>
<text text-anchor="start" x="193.5" y="-472.829" font-family="Arial" font-weight="bold" font-size="14.00">Pascal</text>
<text text-anchor="start" x="199" y="-458.829" font-family="Arial" font-weight="bold" font-size="14.00">Case</text>
</g>
<!-- classify_capitalization&#45;&gt;pascal_case -->
<g id="edge10" class="edge"><title>classify_capitalization&#45;&gt;pascal_case</title>
<path fill="none" stroke="black" d="M353.969,-633.186C326.098,-617.619 295.129,-596.984 272,-572.405 257.812,-557.327 246.162,-537.888 237.294,-520.007"/>
<polygon fill="black" stroke="black" points="240.379,-518.345 232.911,-510.829 234.062,-521.361 240.379,-518.345"/>
<text text-anchor="start" x="276.5" y="-559.805" font-family="Arial" font-weight="bold" font-size="12.00" fill="#3184e4">(10) </text>
<text text-anchor="start" x="301.5" y="-559.805" font-family="Arial" font-weight="bold" font-size="12.00">case PascalCase</text>
<text text-anchor="start" x="327.5" y="-541.405" font-family="Arial" font-size="10.00">word</text>
</g>
<!-- lower_case -->
<g id="node12" class="node"><title>lower_case</title>
<ellipse fill="none" stroke="black" cx="185" cy="-309.469" rx="38.3684" ry="38.3684"/>
<text text-anchor="start" x="166" y="-313.269" font-family="Arial" font-weight="bold" font-size="14.00">lower</text>
<text text-anchor="start" x="168" y="-299.269" font-family="Arial" font-weight="bold" font-size="14.00">case</text>
</g>
<!-- classify_capitalization&#45;&gt;lower_case -->
<g id="edge11" class="edge"><title>classify_capitalization&#45;&gt;lower_case</title>
<path fill="none" stroke="black" d="M426.212,-590.167C427.779,-511.656 424.535,-396.099 394,-365.652 372.568,-344.283 287.922,-356.57 259,-347.652 248.165,-344.312 236.983,-339.501 226.697,-334.442"/>
<polygon fill="black" stroke="black" points="228.035,-331.195 217.537,-329.762 224.85,-337.429 228.035,-331.195"/>
<text text-anchor="start" x="430.5" y="-475.429" font-family="Arial" font-weight="bold" font-size="12.00" fill="#3184e4">(11) </text>
<text text-anchor="start" x="455.5" y="-475.429" font-family="Arial" font-weight="bold" font-size="12.00">case lowercase</text>
<text text-anchor="start" x="476.5" y="-457.029" font-family="Arial" font-size="10.00">word</text>
</g>
<!-- title_case -->
<g id="node13" class="node"><title>title_case</title>
<ellipse fill="none" stroke="black" cx="634" cy="-469.029" rx="35.2113" ry="35.2113"/>
<text text-anchor="start" x="619" y="-472.829" font-family="Arial" font-weight="bold" font-size="14.00">Title</text>
<text text-anchor="start" x="617" y="-458.829" font-family="Arial" font-weight="bold" font-size="14.00">case</text>
</g>
<!-- classify_capitalization&#45;&gt;title_case -->
<g id="edge13" class="edge"><title>classify_capitalization&#45;&gt;title_case</title>
<path fill="none" stroke="black" d="M445.553,-593.532C455.324,-572.004 468.806,-550.017 487,-534.405 507.483,-516.828 520.043,-526.682 545,-516.405 561.677,-509.537 579.419,-500.641 594.638,-492.479"/>
<polygon fill="black" stroke="black" points="596.645,-495.371 603.756,-487.517 593.299,-489.223 596.645,-495.371"/>
<text text-anchor="start" x="491" y="-559.805" font-family="Arial" font-weight="bold" font-size="12.00" fill="#3184e4">(13) </text>
<text text-anchor="start" x="516" y="-559.805" font-family="Arial" font-weight="bold" font-size="12.00">case Title case</text>
<text text-anchor="start" x="535.5" y="-541.405" font-family="Arial" font-size="10.00">word</text>
</g>
<!-- upper_case -->
<g id="node14" class="node"><title>upper_case</title>
<ellipse fill="none" stroke="black" cx="789" cy="-469.029" rx="47.2526" ry="47.2526"/>
<text text-anchor="start" x="763.5" y="-472.829" font-family="Arial" font-weight="bold" font-size="14.00">UPPER</text>
<text text-anchor="start" x="768.5" y="-458.829" font-family="Arial" font-weight="bold" font-size="14.00">CASE</text>
</g>
<!-- classify_capitalization&#45;&gt;upper_case -->
<g id="edge12" class="edge"><title>classify_capitalization&#45;&gt;upper_case</title>
<path fill="none" stroke="black" d="M492.759,-634.553C530.563,-617.134 577.835,-594.537 619,-572.405 660.923,-549.865 707.107,-521.838 740.745,-500.81"/>
<polygon fill="black" stroke="black" points="742.838,-503.628 749.45,-495.349 739.119,-497.698 742.838,-503.628"/>
<text text-anchor="start" x="690.5" y="-559.805" font-family="Arial" font-weight="bold" font-size="12.00" fill="#3184e4">(12) </text>
<text text-anchor="start" x="715.5" y="-559.805" font-family="Arial" font-weight="bold" font-size="12.00">case UPPERCASE</text>
<text text-anchor="start" x="746.5" y="-541.405" font-family="Arial" font-size="10.00">word</text>
</g>
<!-- camel_case&#45;&gt;lower_case -->
<g id="edge14" class="edge"><title>camel_case&#45;&gt;lower_case</title>
<path fill="none" stroke="black" d="M81.0297,-433.824C94.6531,-413.432 112.938,-387.371 131,-365.652 137.043,-358.387 143.852,-350.938 150.549,-343.957"/>
<polygon fill="black" stroke="black" points="153.251,-346.2 157.728,-336.598 148.24,-341.312 153.251,-346.2"/>
<text text-anchor="start" x="135.5" y="-391.052" font-family="Arial" font-weight="bold" font-size="12.00" fill="#3184e4">(14) </text>
<text text-anchor="start" x="137.5" y="-372.652" font-family="Arial" font-size="10.00">word</text>
</g>
<!-- pascal_case&#45;&gt;lower_case -->
<g id="edge16" class="edge"><title>pascal_case&#45;&gt;lower_case</title>
<path fill="none" stroke="black" d="M195.286,-429.888C191.469,-421.493 188.062,-412.47 186,-403.652 182.557,-388.933 181.495,-372.544 181.533,-357.666"/>
<polygon fill="black" stroke="black" points="185.033,-357.71 181.72,-347.647 178.034,-357.58 185.033,-357.71"/>
<text text-anchor="start" x="190.5" y="-391.052" font-family="Arial" font-weight="bold" font-size="12.00" fill="#3184e4">(16) </text>
<text text-anchor="start" x="192.5" y="-372.652" font-family="Arial" font-size="10.00">word</text>
</g>
<!-- info -->
<g id="node17" class="node"><title>info</title>
<text text-anchor="start" x="309" y="-306.269" font-family="Arial" font-weight="bold" font-size="14.00">Info</text>
<polyline fill="none" stroke="black" points="303.5,-296.969 340.5,-296.969 "/>
<polyline fill="none" stroke="black" points="340.5,-321.969 303.5,-321.969 "/>
</g>
<!-- pascal_case&#45;&gt;info -->
<g id="edge15" class="edge"><title>pascal_case&#45;&gt;info</title>
<path fill="none" stroke="black" d="M241.353,-431.485C260.862,-402.21 287.734,-361.887 304.989,-335.995"/>
<polygon fill="black" stroke="black" points="308.03,-337.742 310.663,-327.48 302.205,-333.861 308.03,-337.742"/>
<text text-anchor="start" x="301" y="-391.052" font-family="Arial" font-weight="bold" font-size="12.00" fill="#3184e4">(15) </text>
<text text-anchor="start" x="326" y="-391.052" font-family="Arial" font-weight="bold" font-size="12.00">set bit</text>
<text text-anchor="start" x="290" y="-372.652" font-family="Arial" font-size="10.00">SPELL_ORIGCAP</text>
</g>
<!-- checkword_abc -->
<g id="node15" class="node"><title>checkword_abc</title>
<ellipse fill="none" stroke="black" cx="131" cy="-101.142" rx="83.3857" ry="83.3857"/>
<text text-anchor="start" x="75" y="-98.4424" font-family="Arial" font-weight="bold" font-size="14.00">checkword(abc)</text>
</g>
<!-- lower_case&#45;&gt;checkword_abc -->
<g id="edge17" class="edge"><title>lower_case&#45;&gt;checkword_abc</title>
<path fill="none" stroke="black" d="M175.47,-272.057C169.62,-249.704 161.852,-220.023 154.447,-191.729"/>
<polygon fill="black" stroke="black" points="157.764,-190.582 151.846,-181.794 150.992,-192.354 157.764,-190.582"/>
<text text-anchor="start" x="175" y="-235.185" font-family="Arial" font-weight="bold" font-size="12.00" fill="#3184e4">(17) </text>
<text text-anchor="start" x="200" y="-235.185" font-family="Arial" font-weight="bold" font-size="12.00">check 1</text>
<text text-anchor="start" x="199.5" y="-216.785" font-family="Arial" font-size="10.00">word</text>
</g>
<!-- checkword_abc_dot -->
<g id="node16" class="node"><title>checkword_abc_dot</title>
<ellipse fill="none" stroke="black" cx="371" cy="-101.142" rx="85.2851" ry="85.2851"/>
<text text-anchor="start" x="313.5" y="-98.4424" font-family="Arial" font-weight="bold" font-size="14.00">checkword(abc.)</text>
</g>
<!-- lower_case&#45;&gt;checkword_abc_dot -->
<g id="edge18" class="edge"><title>lower_case&#45;&gt;checkword_abc_dot</title>
<path fill="none" stroke="black" d="M218.249,-290.067C234.062,-280.366 252.608,-267.528 267,-253.285 287.757,-232.741 306.987,-207.525 323.12,-183.618"/>
<polygon fill="black" stroke="black" points="326.077,-185.493 328.695,-175.227 320.246,-181.619 326.077,-185.493"/>
<text text-anchor="start" x="322" y="-240.185" font-family="Arial" font-weight="bold" font-size="12.00" fill="#3184e4">(18) </text>
<text text-anchor="start" x="347" y="-240.185" font-family="Arial" font-weight="bold" font-size="12.00">IF(check 1 failed</text>
<text text-anchor="start" x="311.5" y="-228.185" font-family="Arial" font-weight="bold" font-size="12.00">AND IS abbrev): check 2</text>
<text text-anchor="start" x="352" y="-210.785" font-family="Arial" font-size="10.00">word with dot</text>
</g>
</g>
</svg>
