<?xml version="1.0" encoding="UTF-8" standalone="no"?>
<!DOCTYPE svg PUBLIC "-//W3C//DTD SVG 1.1//EN"
 "http://www.w3.org/Graphics/SVG/1.1/DTD/svg11.dtd">
<!-- Generated by graphviz version 2.38.0 (20140413.2041)
 -->
<!-- Title: function spell Pages: 1 -->
<svg width="645pt" height="1460pt"
 viewBox="0.00 0.00 645.00 1459.91" xmlns="http://www.w3.org/2000/svg" xmlns:xlink="http://www.w3.org/1999/xlink">
<g id="graph0" class="graph" transform="scale(1 1) rotate(0) translate(4 1455.91)">
<title>function spell</title>
<polygon fill="white" stroke="none" points="-4,4 -4,-1455.91 641,-1455.91 641,4 -4,4"/>
<text text-anchor="middle" x="318.5" y="-1431.91" font-family="Arial" font-size="20.00">function spell</text>
<g id="clust1" class="cluster"><title>cluster_spell</title>
<polygon fill="none" stroke="#595959" stroke-dasharray="5,2" points="8,-8 8,-1300.91 512,-1300.91 512,-8 8,-8"/>
<text text-anchor="start" x="236.5" y="-1289.91" font-family="Arial" font-style="italic" font-size="10.00" fill="#595959">spell(word)</text>
</g>
<!-- user -->
<g id="node1" class="node"><title>user</title>
<polygon fill="none" stroke="black" stroke-width="2" points="416.5,-1421.91 359.5,-1421.91 359.5,-1364.91 416.5,-1364.91 416.5,-1421.91"/>
<text text-anchor="start" x="372" y="-1390.21" font-family="Arial" font-weight="bold" font-size="14.00">User</text>
</g>
<!-- call_spell -->
<g id="node3" class="node"><title>call_spell</title>
<ellipse fill="none" stroke="black" cx="388" cy="-1206.97" rx="66.8882" ry="66.8882"/>
<text text-anchor="start" x="344.5" y="-1204.27" font-family="Arial" font-weight="bold" font-size="14.00">Begin spell()</text>
</g>
<!-- user&#45;&gt;call_spell -->
<g id="edge1" class="edge"><title>user&#45;&gt;call_spell</title>
<path fill="none" stroke="black" d="M388,-1364.8C388,-1343.41 388,-1312.69 388,-1284.1"/>
<polygon fill="black" stroke="black" points="391.5,-1284.09 388,-1274.09 384.5,-1284.09 391.5,-1284.09"/>
<text text-anchor="start" x="392" y="-1334.31" font-family="Arial" font-weight="bold" font-size="12.00" fill="#3184e4">(1) </text>
<text text-anchor="start" x="410" y="-1334.31" font-family="Arial" font-weight="bold" font-size="12.00">call spell</text>
<text text-anchor="start" x="415.5" y="-1315.91" font-family="Arial" font-size="10.00">word</text>
</g>
<!-- iconv_table -->
<g id="node2" class="node"><title>iconv_table</title>
<text text-anchor="start" x="540" y="-1203.77" font-family="Arial" font-weight="bold" font-size="14.00">ICONV table</text>
<polyline fill="none" stroke="black" points="535,-1194.47 629,-1194.47 "/>
<polyline fill="none" stroke="black" points="629,-1219.47 535,-1219.47 "/>
</g>
<!-- substring_substitute -->
<g id="node4" class="node"><title>substring_substitute</title>
<ellipse fill="none" stroke="black" cx="391" cy="-963.986" rx="102.082" ry="102.082"/>
<text text-anchor="start" x="320.5" y="-961.286" font-family="Arial" font-weight="bold" font-size="14.00">Substring substitute</text>
</g>
<!-- iconv_table&#45;&gt;substring_substitute -->
<g id="edge3" class="edge"><title>iconv_table&#45;&gt;substring_substitute</title>
<path fill="none" stroke="black" d="M569.645,-1188.77C552.419,-1164.94 520.031,-1120.68 491,-1084.03 482.217,-1072.94 472.84,-1061.4 463.479,-1050.06"/>
<polygon fill="black" stroke="black" points="466.084,-1047.72 457.009,-1042.25 460.694,-1052.19 466.084,-1047.72"/>
<text text-anchor="start" x="535" y="-1109.43" font-family="Arial" font-weight="bold" font-size="12.00" fill="#3184e4">(3) </text>
<text text-anchor="start" x="553" y="-1109.43" font-family="Arial" font-weight="bold" font-size="12.00">substitute</text>
<text text-anchor="start" x="523.5" y="-1091.03" font-family="Arial" font-size="10.00">(from, to) substitutions</text>
</g>
<!-- call_spell&#45;&gt;substring_substitute -->
<g id="edge2" class="edge"><title>call_spell&#45;&gt;substring_substitute</title>
<path fill="none" stroke="black" d="M388.824,-1139.8C389.068,-1120.19 389.342,-1098.16 389.612,-1076.51"/>
<polygon fill="black" stroke="black" points="393.114,-1076.31 389.739,-1066.27 386.115,-1076.23 393.114,-1076.31"/>
<text text-anchor="start" x="393" y="-1109.43" font-family="Arial" font-weight="bold" font-size="12.00" fill="#3184e4">(2) </text>
<text text-anchor="start" x="411" y="-1109.43" font-family="Arial" font-weight="bold" font-size="12.00">substitute</text>
<text text-anchor="start" x="420.5" y="-1091.03" font-family="Arial" font-size="10.00">word</text>
</g>
<!-- trim_trailing_periods -->
<g id="node5" class="node"><title>trim_trailing_periods</title>
<ellipse fill="none" stroke="black" cx="116" cy="-680.054" rx="100.182" ry="100.182"/>
<text text-anchor="start" x="47" y="-677.354" font-family="Arial" font-weight="bold" font-size="14.00">Trim trailing periods</text>
</g>
<!-- substring_substitute&#45;&gt;trim_trailing_periods -->
<g id="edge4" class="edge"><title>substring_substitute&#45;&gt;trim_trailing_periods</title>
<path fill="none" stroke="black" d="M320.181,-890.381C281.147,-850.364 232.655,-800.649 192.723,-759.711"/>
<polygon fill="black" stroke="black" points="195.115,-757.151 185.627,-752.437 190.104,-762.039 195.115,-757.151"/>
<text text-anchor="start" x="273" y="-831.345" font-family="Arial" font-weight="bold" font-size="12.00" fill="#3184e4">(4) </text>
<text text-anchor="start" x="291" y="-831.345" font-family="Arial" font-weight="bold" font-size="12.00">trim</text>
<text text-anchor="start" x="282.5" y="-812.945" font-family="Arial" font-size="10.00">word</text>
</g>
<!-- count_trailing_periods -->
<g id="node6" class="node"><title>count_trailing_periods</title>
<ellipse fill="none" stroke="black" cx="396" cy="-680.054" rx="107.781" ry="107.781"/>
<text text-anchor="start" x="321" y="-677.354" font-family="Arial" font-weight="bold" font-size="14.00">Count trailing periods</text>
</g>
<!-- substring_substitute&#45;&gt;count_trailing_periods -->
<g id="edge5" class="edge"><title>substring_substitute&#45;&gt;count_trailing_periods</title>
<path fill="none" stroke="black" d="M392.798,-861.6C393.161,-841.115 393.546,-819.416 393.918,-798.434"/>
<polygon fill="black" stroke="black" points="397.422,-798.261 394.1,-788.2 390.423,-798.137 397.422,-798.261"/>
<text text-anchor="start" x="397" y="-831.345" font-family="Arial" font-weight="bold" font-size="12.00" fill="#3184e4">(5) </text>
<text text-anchor="start" x="415" y="-831.345" font-family="Arial" font-weight="bold" font-size="12.00">trim</text>
<text text-anchor="start" x="406.5" y="-812.945" font-family="Arial" font-size="10.00">word</text>
</g>
<!-- trim_leading_space -->
<g id="node7" class="node"><title>trim_leading_space</title>
<ellipse fill="none" stroke="black" cx="120" cy="-402.622" rx="95.5831" ry="95.5831"/>
<text text-anchor="start" x="54.5" y="-399.922" font-family="Arial" font-weight="bold" font-size="14.00">Trim leading space</text>
</g>
<!-- trim_trailing_periods&#45;&gt;trim_leading_space -->
<g id="edge7" class="edge"><title>trim_trailing_periods&#45;&gt;trim_leading_space</title>
<path fill="none" stroke="black" d="M117.444,-579.617C117.779,-556.53 118.137,-531.884 118.476,-508.568"/>
<polygon fill="black" stroke="black" points="121.979,-508.364 118.625,-498.314 114.98,-508.262 121.979,-508.364"/>
<text text-anchor="start" x="123" y="-541.564" font-family="Arial" font-weight="bold" font-size="12.00" fill="#3184e4">(7) </text>
<text text-anchor="start" x="141" y="-541.564" font-family="Arial" font-weight="bold" font-size="12.00">trim</text>
<text text-anchor="start" x="132.5" y="-523.164" font-family="Arial" font-size="10.00">word</text>
</g>
<!-- abbreviation -->
<g id="node9" class="node"><title>abbreviation</title>
<text text-anchor="start" x="345" y="-399.422" font-family="Arial" font-weight="bold" font-size="14.00">Is abbreviation</text>
<polyline fill="none" stroke="black" points="339.5,-390.122 452.5,-390.122 "/>
<polyline fill="none" stroke="black" points="452.5,-415.122 339.5,-415.122 "/>
</g>
<!-- count_trailing_periods&#45;&gt;abbreviation -->
<g id="edge6" class="edge"><title>count_trailing_periods&#45;&gt;abbreviation</title>
<path fill="none" stroke="black" d="M396,-571.776C396,-520.75 396,-463.856 396,-431.05"/>
<polygon fill="black" stroke="black" points="399.5,-430.891 396,-420.891 392.5,-430.891 399.5,-430.891"/>
<text text-anchor="start" x="411" y="-541.564" font-family="Arial" font-weight="bold" font-size="12.00" fill="#3184e4">(6) </text>
<text text-anchor="start" x="429" y="-541.564" font-family="Arial" font-weight="bold" font-size="12.00">store</text>
<text text-anchor="start" x="400" y="-523.164" font-family="Arial" font-size="10.00">true if count &gt; 0</text>
</g>
<!-- classify_capitalization -->
<g id="node8" class="node"><title>classify_capitalization</title>
<ellipse fill="none" stroke="black" cx="125" cy="-124.54" rx="108.581" ry="108.581"/>
<text text-anchor="start" x="49.5" y="-121.84" font-family="Arial" font-weight="bold" font-size="14.00">Classify capitalization</text>
</g>
<!-- trim_leading_space&#45;&gt;classify_capitalization -->
<g id="edge8" class="edge"><title>trim_leading_space&#45;&gt;classify_capitalization</title>
<path fill="none" stroke="black" d="M121.714,-306.997C122.085,-286.514 122.481,-264.612 122.866,-243.363"/>
<polygon fill="black" stroke="black" points="126.366,-243.387 123.048,-233.325 119.367,-243.26 126.366,-243.387"/>
<text text-anchor="start" x="127" y="-276.481" font-family="Arial" font-weight="bold" font-size="12.00" fill="#3184e4">(8) </text>
<text text-anchor="start" x="145" y="-276.481" font-family="Arial" font-weight="bold" font-size="12.00">classify</text>
<text text-anchor="start" x="147.5" y="-258.081" font-family="Arial" font-size="10.00">word</text>
</g>
</g>
</svg>
