<?xml version="1.0" encoding="UTF-8" standalone="no"?>
<!DOCTYPE svg PUBLIC "-//W3C//DTD SVG 1.1//EN"
 "http://www.w3.org/Graphics/SVG/1.1/DTD/svg11.dtd">
<!-- Generated by graphviz version 2.38.0 (20140413.2041)
 -->
<!-- Title: function spell Pages: 1 -->
<svg width="890pt" height="1942pt"
 viewBox="0.00 0.00 890.00 1942.14" xmlns="http://www.w3.org/2000/svg" xmlns:xlink="http://www.w3.org/1999/xlink">
<g id="graph0" class="graph" transform="scale(1 1) rotate(0) translate(4 1938.14)">
<title>function spell</title>
<polygon fill="white" stroke="none" points="-4,4 -4,-1938.14 886,-1938.14 886,4 -4,4"/>
<text text-anchor="middle" x="441" y="-1914.14" font-family="Arial" font-size="20.00">function spell</text>
<g id="clust1" class="cluster"><title>cluster_spell</title>
<polygon fill="none" stroke="#595959" stroke-dasharray="5,2" points="8,-8 8,-1783.14 764,-1783.14 764,-8 8,-8"/>
<text text-anchor="start" x="362.5" y="-1772.14" font-family="Arial" font-style="italic" font-size="10.00" fill="#595959">spell(word)</text>
</g>
<!-- user -->
<g id="node1" class="node"><title>user</title>
<polygon fill="none" stroke="black" stroke-width="2" points="659.5,-1904.14 602.5,-1904.14 602.5,-1847.14 659.5,-1847.14 659.5,-1904.14"/>
<text text-anchor="start" x="615" y="-1872.44" font-family="Arial" font-weight="bold" font-size="14.00">User</text>
</g>
<!-- call_spell -->
<g id="node3" class="node"><title>call_spell</title>
<ellipse fill="none" stroke="black" cx="631" cy="-1689.2" rx="66.8882" ry="66.8882"/>
<text text-anchor="start" x="587.5" y="-1686.5" font-family="Arial" font-weight="bold" font-size="14.00">Begin spell()</text>
</g>
<!-- user&#45;&gt;call_spell -->
<g id="edge1" class="edge"><title>user&#45;&gt;call_spell</title>
<path fill="none" stroke="black" d="M631,-1847.03C631,-1825.64 631,-1794.92 631,-1766.33"/>
<polygon fill="black" stroke="black" points="634.5,-1766.32 631,-1756.32 627.5,-1766.32 634.5,-1766.32"/>
<text text-anchor="start" x="635" y="-1816.54" font-family="Arial" font-weight="bold" font-size="12.00" fill="#3184e4">(1) </text>
<text text-anchor="start" x="653" y="-1816.54" font-family="Arial" font-weight="bold" font-size="12.00">call spell</text>
<text text-anchor="start" x="658.5" y="-1798.14" font-family="Arial" font-size="10.00">word</text>
</g>
<!-- iconv_table -->
<g id="node2" class="node"><title>iconv_table</title>
<text text-anchor="start" x="785" y="-1686" font-family="Arial" font-weight="bold" font-size="14.00">ICONV table</text>
<polyline fill="none" stroke="black" points="780,-1676.7 874,-1676.7 "/>
<polyline fill="none" stroke="black" points="874,-1701.7 780,-1701.7 "/>
</g>
<!-- substring_substitute -->
<g id="node4" class="node"><title>substring_substitute</title>
<ellipse fill="none" stroke="black" cx="631" cy="-1487.45" rx="60.623" ry="60.623"/>
<text text-anchor="start" x="597" y="-1491.25" font-family="Arial" font-weight="bold" font-size="14.00">Substring</text>
<text text-anchor="start" x="596" y="-1477.25" font-family="Arial" font-weight="bold" font-size="14.00">substitute</text>
</g>
<!-- iconv_table&#45;&gt;substring_substitute -->
<g id="edge3" class="edge"><title>iconv_table&#45;&gt;substring_substitute</title>
<path fill="none" stroke="black" d="M815.809,-1670.9C799.361,-1646.18 766.919,-1600.01 733,-1566.26 719.678,-1553 704.058,-1540.03 689.101,-1528.6"/>
<polygon fill="black" stroke="black" points="690.974,-1525.63 680.879,-1522.41 686.766,-1531.22 690.974,-1525.63"/>
<text text-anchor="start" x="782" y="-1591.66" font-family="Arial" font-weight="bold" font-size="12.00" fill="#3184e4">(3) </text>
<text text-anchor="start" x="800" y="-1591.66" font-family="Arial" font-weight="bold" font-size="12.00">substitute</text>
<text text-anchor="start" x="770.5" y="-1573.26" font-family="Arial" font-size="10.00">(from, to) substitutions</text>
</g>
<!-- call_spell&#45;&gt;substring_substitute -->
<g id="edge2" class="edge"><title>call_spell&#45;&gt;substring_substitute</title>
<path fill="none" stroke="black" d="M631,-1622.24C631,-1601.73 631,-1579.06 631,-1558.29"/>
<polygon fill="black" stroke="black" points="634.5,-1558.27 631,-1548.27 627.5,-1558.27 634.5,-1558.27"/>
<text text-anchor="start" x="635" y="-1591.66" font-family="Arial" font-weight="bold" font-size="12.00" fill="#3184e4">(2) </text>
<text text-anchor="start" x="653" y="-1591.66" font-family="Arial" font-weight="bold" font-size="12.00">substitute</text>
<text text-anchor="start" x="662.5" y="-1573.26" font-family="Arial" font-size="10.00">word</text>
</g>
<!-- trim_trailing_periods -->
<g id="node5" class="node"><title>trim_trailing_periods</title>
<ellipse fill="none" stroke="black" cx="376" cy="-1274.85" rx="69.0935" ry="69.0935"/>
<text text-anchor="start" x="335" y="-1278.65" font-family="Arial" font-weight="bold" font-size="14.00">Trim trailing</text>
<text text-anchor="start" x="349.5" y="-1264.65" font-family="Arial" font-weight="bold" font-size="14.00">periods</text>
</g>
<!-- substring_substitute&#45;&gt;trim_trailing_periods -->
<g id="edge4" class="edge"><title>substring_substitute&#45;&gt;trim_trailing_periods</title>
<path fill="none" stroke="black" d="M584.526,-1448.06C543.193,-1413.93 482.462,-1363.77 437.189,-1326.39"/>
<polygon fill="black" stroke="black" points="439.148,-1323.46 429.208,-1319.79 434.69,-1328.86 439.148,-1323.46"/>
<text text-anchor="start" x="537" y="-1396.03" font-family="Arial" font-weight="bold" font-size="12.00" fill="#3184e4">(4) </text>
<text text-anchor="start" x="555" y="-1396.03" font-family="Arial" font-weight="bold" font-size="12.00">trim</text>
<text text-anchor="start" x="546.5" y="-1377.63" font-family="Arial" font-size="10.00">word</text>
</g>
<!-- count_trailing_periods -->
<g id="node6" class="node"><title>count_trailing_periods</title>
<ellipse fill="none" stroke="black" cx="631" cy="-1274.85" rx="77.5641" ry="77.5641"/>
<text text-anchor="start" x="584" y="-1278.65" font-family="Arial" font-weight="bold" font-size="14.00">Count trailing</text>
<text text-anchor="start" x="604.5" y="-1264.65" font-family="Arial" font-weight="bold" font-size="14.00">periods</text>
</g>
<!-- substring_substitute&#45;&gt;count_trailing_periods -->
<g id="edge5" class="edge"><title>substring_substitute&#45;&gt;count_trailing_periods</title>
<path fill="none" stroke="black" d="M631,-1426.38C631,-1406.65 631,-1384.3 631,-1362.98"/>
<polygon fill="black" stroke="black" points="634.5,-1362.94 631,-1352.94 627.5,-1362.94 634.5,-1362.94"/>
<text text-anchor="start" x="635" y="-1396.03" font-family="Arial" font-weight="bold" font-size="12.00" fill="#3184e4">(5) </text>
<text text-anchor="start" x="653" y="-1396.03" font-family="Arial" font-weight="bold" font-size="12.00">trim</text>
<text text-anchor="start" x="644.5" y="-1377.63" font-family="Arial" font-size="10.00">word</text>
</g>
<!-- trim_leading_space -->
<g id="node7" class="node"><title>trim_leading_space</title>
<ellipse fill="none" stroke="black" cx="354" cy="-1051.65" rx="71.3357" ry="71.3357"/>
<text text-anchor="start" x="311.5" y="-1055.45" font-family="Arial" font-weight="bold" font-size="14.00">Trim leading</text>
<text text-anchor="start" x="332.5" y="-1041.45" font-family="Arial" font-weight="bold" font-size="14.00">space</text>
</g>
<!-- trim_trailing_periods&#45;&gt;trim_leading_space -->
<g id="edge7" class="edge"><title>trim_trailing_periods&#45;&gt;trim_leading_space</title>
<path fill="none" stroke="black" d="M369.22,-1205.68C366.933,-1182.69 364.359,-1156.81 361.988,-1132.97"/>
<polygon fill="black" stroke="black" points="365.458,-1132.5 360.986,-1122.89 358.493,-1133.19 365.458,-1132.5"/>
<text text-anchor="start" x="371" y="-1166.47" font-family="Arial" font-weight="bold" font-size="12.00" fill="#3184e4">(7) </text>
<text text-anchor="start" x="389" y="-1166.47" font-family="Arial" font-weight="bold" font-size="12.00">trim</text>
<text text-anchor="start" x="380.5" y="-1148.07" font-family="Arial" font-size="10.00">word</text>
</g>
<!-- abbreviation -->
<g id="node9" class="node"><title>abbreviation</title>
<text text-anchor="start" x="625" y="-1055.45" font-family="Arial" font-weight="bold" font-size="14.00">Is</text>
<text text-anchor="start" x="588" y="-1041.45" font-family="Arial" font-weight="bold" font-size="14.00">abbreviation</text>
<polyline fill="none" stroke="black" points="582.5,-1032.65 679.5,-1032.65 "/>
<polyline fill="none" stroke="black" points="679.5,-1070.65 582.5,-1070.65 "/>
</g>
<!-- count_trailing_periods&#45;&gt;abbreviation -->
<g id="edge6" class="edge"><title>count_trailing_periods&#45;&gt;abbreviation</title>
<path fill="none" stroke="black" d="M631,-1196.8C631,-1158.38 631,-1113.99 631,-1084.73"/>
<polygon fill="black" stroke="black" points="634.5,-1084.68 631,-1074.68 627.5,-1084.68 634.5,-1084.68"/>
<text text-anchor="start" x="646" y="-1166.47" font-family="Arial" font-weight="bold" font-size="12.00" fill="#3184e4">(6) </text>
<text text-anchor="start" x="664" y="-1166.47" font-family="Arial" font-weight="bold" font-size="12.00">store</text>
<text text-anchor="start" x="635" y="-1148.07" font-family="Arial" font-size="10.00">true if count &gt; 0</text>
</g>
<!-- classify_capitalization -->
<g id="node8" class="node"><title>classify_capitalization</title>
<ellipse fill="none" stroke="black" cx="343" cy="-829.868" rx="76.2353" ry="76.2353"/>
<text text-anchor="start" x="315" y="-833.668" font-family="Arial" font-weight="bold" font-size="14.00">Classify</text>
<text text-anchor="start" x="297" y="-819.668" font-family="Arial" font-weight="bold" font-size="14.00">capitalization</text>
</g>
<!-- trim_leading_space&#45;&gt;classify_capitalization -->
<g id="edge8" class="edge"><title>trim_leading_space&#45;&gt;classify_capitalization</title>
<path fill="none" stroke="black" d="M350.474,-980.205C349.459,-959.919 348.34,-937.566 347.284,-916.47"/>
<polygon fill="black" stroke="black" points="350.767,-916.042 346.772,-906.229 343.776,-916.392 350.767,-916.042"/>
<text text-anchor="start" x="354" y="-949.635" font-family="Arial" font-weight="bold" font-size="12.00" fill="#3184e4">(8) </text>
<text text-anchor="start" x="372" y="-949.635" font-family="Arial" font-weight="bold" font-size="12.00">classify</text>
<text text-anchor="start" x="374.5" y="-931.235" font-family="Arial" font-size="10.00">word</text>
</g>
<!-- camel_case -->
<g id="node10" class="node"><title>camel_case</title>
<ellipse fill="none" stroke="black" cx="57" cy="-632.124" rx="41.0244" ry="41.0244"/>
<text text-anchor="start" x="36" y="-635.924" font-family="Arial" font-weight="bold" font-size="14.00">camel</text>
<text text-anchor="start" x="39" y="-621.924" font-family="Arial" font-weight="bold" font-size="14.00">Case</text>
</g>
<!-- classify_capitalization&#45;&gt;camel_case -->
<g id="edge9" class="edge"><title>classify_capitalization&#45;&gt;camel_case</title>
<path fill="none" stroke="black" d="M267.778,-815.284C215.902,-802.492 148.379,-778.61 103,-735.5 87.7821,-721.043 77.2263,-700.626 70.1036,-681.824"/>
<polygon fill="black" stroke="black" points="73.3249,-680.435 66.6854,-672.179 66.7271,-682.774 73.3249,-680.435"/>
<text text-anchor="start" x="107" y="-722.9" font-family="Arial" font-weight="bold" font-size="12.00" fill="#3184e4">(9) </text>
<text text-anchor="start" x="125" y="-722.9" font-family="Arial" font-weight="bold" font-size="12.00">case camelCase</text>
<text text-anchor="start" x="152.5" y="-704.5" font-family="Arial" font-size="10.00">word</text>
</g>
<!-- pascal_case -->
<g id="node11" class="node"><title>pascal_case</title>
<ellipse fill="none" stroke="black" cx="241" cy="-466.2" rx="44.5955" ry="44.5955"/>
<text text-anchor="start" x="217.5" y="-470" font-family="Arial" font-weight="bold" font-size="14.00">Pascal</text>
<text text-anchor="start" x="223" y="-456" font-family="Arial" font-weight="bold" font-size="14.00">Case</text>
</g>
<!-- classify_capitalization&#45;&gt;pascal_case -->
<g id="edge10" class="edge"><title>classify_capitalization&#45;&gt;pascal_case</title>
<path fill="none" stroke="black" d="M319.539,-756.919C311.774,-732.433 303.266,-704.849 296,-679.5 280.459,-625.286 264.489,-562.733 253.789,-519.642"/>
<polygon fill="black" stroke="black" points="257.121,-518.534 251.32,-509.668 250.326,-520.216 257.121,-518.534"/>
<text text-anchor="start" x="300.5" y="-638.524" font-family="Arial" font-weight="bold" font-size="12.00" fill="#3184e4">(10) </text>
<text text-anchor="start" x="325.5" y="-638.524" font-family="Arial" font-weight="bold" font-size="12.00">case PascalCase</text>
<text text-anchor="start" x="351.5" y="-620.124" font-family="Arial" font-size="10.00">word</text>
</g>
<!-- lower_case -->
<g id="node12" class="node"><title>lower_case</title>
<ellipse fill="none" stroke="black" cx="426" cy="-309.469" rx="38.3684" ry="38.3684"/>
<text text-anchor="start" x="407" y="-313.269" font-family="Arial" font-weight="bold" font-size="14.00">lower</text>
<text text-anchor="start" x="409" y="-299.269" font-family="Arial" font-weight="bold" font-size="14.00">case</text>
</g>
<!-- classify_capitalization&#45;&gt;lower_case -->
<g id="edge11" class="edge"><title>classify_capitalization&#45;&gt;lower_case</title>
<path fill="none" stroke="black" d="M337.638,-753.382C339.931,-733.09 346.193,-712.609 360,-697.5 384.878,-670.277 417.924,-708.267 441,-679.5 516.548,-585.32 472.845,-430.037 444.445,-354.489"/>
<polygon fill="black" stroke="black" points="447.579,-352.886 440.724,-344.808 441.045,-355.398 447.579,-352.886"/>
<text text-anchor="start" x="488.5" y="-554.148" font-family="Arial" font-weight="bold" font-size="12.00" fill="#3184e4">(11) </text>
<text text-anchor="start" x="513.5" y="-554.148" font-family="Arial" font-weight="bold" font-size="12.00">case lowercase</text>
<text text-anchor="start" x="534.5" y="-535.748" font-family="Arial" font-size="10.00">word</text>
</g>
<!-- title_case -->
<g id="node13" class="node"><title>title_case</title>
<ellipse fill="none" stroke="black" cx="554" cy="-632.124" rx="35.2113" ry="35.2113"/>
<text text-anchor="start" x="539" y="-635.924" font-family="Arial" font-weight="bold" font-size="14.00">Title</text>
<text text-anchor="start" x="537" y="-621.924" font-family="Arial" font-weight="bold" font-size="14.00">case</text>
</g>
<!-- classify_capitalization&#45;&gt;title_case -->
<g id="edge13" class="edge"><title>classify_capitalization&#45;&gt;title_case</title>
<path fill="none" stroke="black" d="M365.553,-756.627C375.324,-735.099 388.806,-713.113 407,-697.5 427.483,-679.923 440.043,-689.778 465,-679.5 481.677,-672.632 499.419,-663.736 514.638,-655.574"/>
<polygon fill="black" stroke="black" points="516.645,-658.467 523.756,-650.612 513.299,-652.318 516.645,-658.467"/>
<text text-anchor="start" x="411" y="-722.9" font-family="Arial" font-weight="bold" font-size="12.00" fill="#3184e4">(13) </text>
<text text-anchor="start" x="436" y="-722.9" font-family="Arial" font-weight="bold" font-size="12.00">case Title case</text>
<text text-anchor="start" x="455.5" y="-704.5" font-family="Arial" font-size="10.00">word</text>
</g>
<!-- upper_case -->
<g id="node14" class="node"><title>upper_case</title>
<ellipse fill="none" stroke="black" cx="709" cy="-632.124" rx="47.2526" ry="47.2526"/>
<text text-anchor="start" x="683.5" y="-635.924" font-family="Arial" font-weight="bold" font-size="14.00">UPPER</text>
<text text-anchor="start" x="688.5" y="-621.924" font-family="Arial" font-weight="bold" font-size="14.00">CASE</text>
</g>
<!-- classify_capitalization&#45;&gt;upper_case -->
<g id="edge12" class="edge"><title>classify_capitalization&#45;&gt;upper_case</title>
<path fill="none" stroke="black" d="M412.759,-797.649C450.563,-780.23 497.835,-757.632 539,-735.5 580.923,-712.961 627.107,-684.933 660.745,-663.905"/>
<polygon fill="black" stroke="black" points="662.838,-666.723 669.45,-658.444 659.119,-660.793 662.838,-666.723"/>
<text text-anchor="start" x="609.5" y="-722.9" font-family="Arial" font-weight="bold" font-size="12.00" fill="#3184e4">(12) </text>
<text text-anchor="start" x="634.5" y="-722.9" font-family="Arial" font-weight="bold" font-size="12.00">case UPPERCASE</text>
<text text-anchor="start" x="665.5" y="-704.5" font-family="Arial" font-size="10.00">word</text>
</g>
<!-- camel_case&#45;&gt;pascal_case -->
<g id="edge14" class="edge"><title>camel_case&#45;&gt;pascal_case</title>
<path fill="none" stroke="black" d="M87.3839,-604.055C118.32,-576.495 166.458,-533.609 200.593,-503.198"/>
<polygon fill="black" stroke="black" points="202.946,-505.79 208.085,-496.524 198.29,-500.563 202.946,-505.79"/>
<text text-anchor="start" x="175.5" y="-554.148" font-family="Arial" font-weight="bold" font-size="12.00" fill="#3184e4">(14) </text>
<text text-anchor="start" x="177.5" y="-535.748" font-family="Arial" font-size="10.00">word</text>
</g>
<!-- pascal_case&#45;&gt;lower_case -->
<g id="edge16" class="edge"><title>pascal_case&#45;&gt;lower_case</title>
<path fill="none" stroke="black" d="M278.403,-441.753C295,-430.815 314.473,-417.231 331,-403.652 352.711,-385.815 375.235,-363.893 392.9,-345.794"/>
<polygon fill="black" stroke="black" points="395.718,-347.915 400.156,-338.295 390.687,-343.048 395.718,-347.915"/>
<text text-anchor="start" x="376.5" y="-391.052" font-family="Arial" font-weight="bold" font-size="12.00" fill="#3184e4">(16) </text>
<text text-anchor="start" x="378.5" y="-372.652" font-family="Arial" font-size="10.00">word</text>
</g>
<!-- info -->
<g id="node17" class="node"><title>info</title>
<text text-anchor="start" x="227" y="-306.269" font-family="Arial" font-weight="bold" font-size="14.00">Info</text>
<polyline fill="none" stroke="black" points="221.5,-296.969 258.5,-296.969 "/>
<polyline fill="none" stroke="black" points="258.5,-321.969 221.5,-321.969 "/>
</g>
<!-- pascal_case&#45;&gt;info -->
<g id="edge15" class="edge"><title>pascal_case&#45;&gt;info</title>
<path fill="none" stroke="black" d="M230.037,-422.7C228.778,-416.354 227.697,-409.86 227,-403.652 225.115,-386.869 225.051,-382.428 227,-365.652 228.078,-356.377 230.142,-346.397 232.314,-337.509"/>
<polygon fill="black" stroke="black" points="235.739,-338.242 234.86,-327.684 228.963,-336.486 235.739,-338.242"/>
<text text-anchor="start" x="242" y="-391.052" font-family="Arial" font-weight="bold" font-size="12.00" fill="#3184e4">(15) </text>
<text text-anchor="start" x="267" y="-391.052" font-family="Arial" font-weight="bold" font-size="12.00">set bit</text>
<text text-anchor="start" x="231" y="-372.652" font-family="Arial" font-size="10.00">SPELL_ORIGCAP</text>
</g>
<!-- checkword_abc -->
<g id="node15" class="node"><title>checkword_abc</title>
<ellipse fill="none" stroke="black" cx="327" cy="-101.142" rx="83.3857" ry="83.3857"/>
<text text-anchor="start" x="271" y="-98.4424" font-family="Arial" font-weight="bold" font-size="14.00">checkword(abc)</text>
</g>
<!-- lower_case&#45;&gt;checkword_abc -->
<g id="edge17" class="edge"><title>lower_case&#45;&gt;checkword_abc</title>
<path fill="none" stroke="black" d="M393.178,-289.416C379.989,-280.142 365.842,-267.835 357,-253.285 346.255,-235.603 339.264,-214.809 334.739,-194.398"/>
<polygon fill="black" stroke="black" points="338.134,-193.526 332.711,-184.424 331.274,-194.921 338.134,-193.526"/>
<text text-anchor="start" x="361" y="-235.185" font-family="Arial" font-weight="bold" font-size="12.00" fill="#3184e4">(17) </text>
<text text-anchor="start" x="386" y="-235.185" font-family="Arial" font-weight="bold" font-size="12.00">check 1</text>
<text text-anchor="start" x="385.5" y="-216.785" font-family="Arial" font-size="10.00">word</text>
</g>
<!-- checkword_abc_dot -->
<g id="node16" class="node"><title>checkword_abc_dot</title>
<ellipse fill="none" stroke="black" cx="567" cy="-101.142" rx="85.2851" ry="85.2851"/>
<text text-anchor="start" x="509.5" y="-98.4424" font-family="Arial" font-weight="bold" font-size="14.00">checkword(abc.)</text>
</g>
<!-- lower_case&#45;&gt;checkword_abc_dot -->
<g id="edge18" class="edge"><title>lower_case&#45;&gt;checkword_abc_dot</title>
<path fill="none" stroke="black" d="M447.109,-277.58C464.602,-251.982 490.249,-214.453 513.337,-180.668"/>
<polygon fill="black" stroke="black" points="516.392,-182.4 519.145,-172.169 510.613,-178.451 516.392,-182.4"/>
<text text-anchor="start" x="511" y="-240.185" font-family="Arial" font-weight="bold" font-size="12.00" fill="#3184e4">(18) </text>
<text text-anchor="start" x="536" y="-240.185" font-family="Arial" font-weight="bold" font-size="12.00">IF(check 1 failed</text>
<text text-anchor="start" x="500.5" y="-228.185" font-family="Arial" font-weight="bold" font-size="12.00">AND IS abbrev): check 2</text>
<text text-anchor="start" x="541" y="-210.785" font-family="Arial" font-size="10.00">word with dot</text>
</g>
</g>
</svg>
