<?xml version="1.0" encoding="UTF-8" standalone="no"?>
<!DOCTYPE svg PUBLIC "-//W3C//DTD SVG 1.1//EN"
 "http://www.w3.org/Graphics/SVG/1.1/DTD/svg11.dtd">
<!-- Generated by graphviz version 2.38.0 (20140413.2041)
 -->
<!-- Title: Nuspell Pages: 1 -->
<svg width="1006pt" height="1313pt"
 viewBox="0.00 0.00 1006.00 1312.92" xmlns="http://www.w3.org/2000/svg" xmlns:xlink="http://www.w3.org/1999/xlink">
<g id="graph0" class="graph" transform="scale(1 1) rotate(0) translate(4 1308.92)">
<title>Nuspell</title>
<polygon fill="white" stroke="none" points="-4,4 -4,-1308.92 1002,-1308.92 1002,4 -4,4"/>
<text text-anchor="middle" x="499" y="-1284.92" font-family="Arial" font-size="20.00">Nuspell</text>
<g id="clust1" class="cluster"><title>cluster_dic_data</title>
<polygon fill="none" stroke="#595959" stroke-dasharray="5,2" points="8,-8 8,-1091.92 990,-1091.92 990,-8 8,-8"/>
<text text-anchor="start" x="480.5" y="-1080.92" font-family="Arial" font-style="italic" font-size="10.00" fill="#595959">dic_data</text>
</g>
<!-- file_dic -->
<g id="node1" class="node"><title>file_dic</title>
<polygon fill="none" stroke="black" stroke-width="2" points="473.5,-1274.92 354.5,-1274.92 354.5,-1155.92 473.5,-1155.92 473.5,-1274.92"/>
<text text-anchor="start" x="367" y="-1212.22" font-family="Arial" font-weight="bold" font-size="14.00">Dictionary file</text>
</g>
<!-- read_number -->
<g id="node2" class="node"><title>read_number</title>
<ellipse fill="none" stroke="black" cx="308" cy="-993.429" rx="71.4873" ry="71.4873"/>
<text text-anchor="start" x="261" y="-990.729" font-family="Arial" font-weight="bold" font-size="14.00">Read number</text>
</g>
<!-- file_dic&#45;&gt;read_number -->
<g id="edge1" class="edge"><title>file_dic&#45;&gt;read_number</title>
<path fill="none" stroke="black" d="M384.638,-1155.59C381.705,-1149.63 378.784,-1143.66 376,-1137.92 364.946,-1115.14 353.071,-1090.24 342.387,-1067.67"/>
<polygon fill="black" stroke="black" points="345.483,-1066.03 338.044,-1058.48 339.154,-1069.02 345.483,-1066.03"/>
<text text-anchor="start" x="380" y="-1125.32" font-family="Arial" font-weight="bold" font-size="12.00" fill="#3184e4">(1) </text>
<text text-anchor="start" x="398" y="-1125.32" font-family="Arial" font-weight="bold" font-size="12.00">read</text>
<text text-anchor="start" x="384.5" y="-1106.92" font-family="Arial" font-size="10.00">first line</text>
</g>
<!-- read_line -->
<g id="node3" class="node"><title>read_line</title>
<ellipse fill="none" stroke="black" cx="504" cy="-993.429" rx="52.7911" ry="52.7911"/>
<text text-anchor="start" x="471.5" y="-990.729" font-family="Arial" font-weight="bold" font-size="14.00">Read line</text>
</g>
<!-- file_dic&#45;&gt;read_line -->
<g id="edge2" class="edge"><title>file_dic&#45;&gt;read_line</title>
<path fill="none" stroke="black" d="M438,-1155.76C451.119,-1123.69 467.308,-1084.12 480.369,-1052.19"/>
<polygon fill="black" stroke="black" points="483.768,-1053.13 484.315,-1042.55 477.289,-1050.48 483.768,-1053.13"/>
<text text-anchor="start" x="463" y="-1125.32" font-family="Arial" font-weight="bold" font-size="12.00" fill="#3184e4">(2) </text>
<text text-anchor="start" x="481" y="-1125.32" font-family="Arial" font-weight="bold" font-size="12.00">read</text>
<text text-anchor="start" x="477" y="-1106.92" font-family="Arial" font-size="10.00">line</text>
</g>
<!-- read_line&#45;&gt;read_line -->
<g id="edge3" class="edge"><title>read_line&#45;&gt;read_line</title>
<path fill="none" stroke="black" d="M553.591,-1011.23C590.916,-1017.56 628.645,-1011.62 628.645,-993.429 628.645,-976.87 597.391,-970.467 563.634,-974.219"/>
<polygon fill="black" stroke="black" points="563.008,-970.772 553.591,-975.627 563.98,-977.704 563.008,-970.772"/>
<text text-anchor="start" x="632.645" y="-999.829" font-family="Arial" font-weight="bold" font-size="12.00" fill="#3184e4">(3) </text>
<text text-anchor="start" x="650.645" y="-999.829" font-family="Arial" font-weight="bold" font-size="12.00">read</text>
<text text-anchor="start" x="646.645" y="-981.429" font-family="Arial" font-size="10.00">line</text>
</g>
<!-- parse_line_slash -->
<g id="node4" class="node"><title>parse_line_slash</title>
<ellipse fill="none" stroke="black" cx="119" cy="-745.245" rx="102.882" ry="102.882"/>
<text text-anchor="start" x="48" y="-742.545" font-family="Arial" font-weight="bold" font-size="14.00">Parse line with slash</text>
</g>
<!-- read_line&#45;&gt;parse_line_slash -->
<g id="edge4" class="edge"><title>read_line&#45;&gt;parse_line_slash</title>
<path fill="none" stroke="black" d="M467.338,-955.243C452.377,-942.392 434.106,-929.365 415,-921.935 363.088,-901.748 208.331,-938.934 165,-903.935 149.981,-891.804 139.688,-875.062 132.673,-856.994"/>
<polygon fill="black" stroke="black" points="135.929,-855.704 129.295,-847.443 129.33,-858.038 135.929,-855.704"/>
<text text-anchor="start" x="169.5" y="-891.335" font-family="Arial" font-weight="bold" font-size="12.00" fill="#3184e4">(4) </text>
<text text-anchor="start" x="187.5" y="-891.335" font-family="Arial" font-weight="bold" font-size="12.00">IF has unescaped slash: parse</text>
<text text-anchor="start" x="258" y="-872.935" font-family="Arial" font-size="10.00">line</text>
</g>
<!-- parse_line_tab -->
<g id="node5" class="node"><title>parse_line_tab</title>
<ellipse fill="none" stroke="black" cx="387" cy="-745.245" rx="92.8835" ry="92.8835"/>
<text text-anchor="start" x="323.5" y="-742.545" font-family="Arial" font-weight="bold" font-size="14.00">Parse line with tab</text>
</g>
<!-- read_line&#45;&gt;parse_line_tab -->
<g id="edge5" class="edge"><title>read_line&#45;&gt;parse_line_tab</title>
<path fill="none" stroke="black" d="M463.034,-960.121C433.331,-936.495 398.02,-907.905 396,-903.935 387.317,-886.87 382.701,-867.381 380.579,-848.062"/>
<polygon fill="black" stroke="black" points="384.056,-847.641 379.689,-837.988 377.083,-848.258 384.056,-847.641"/>
<text text-anchor="start" x="400.5" y="-891.335" font-family="Arial" font-weight="bold" font-size="12.00" fill="#3184e4">(5) </text>
<text text-anchor="start" x="418.5" y="-891.335" font-family="Arial" font-weight="bold" font-size="12.00">IF has tab: parse</text>
<text text-anchor="start" x="449" y="-872.935" font-family="Arial" font-size="10.00">line</text>
</g>
<!-- parse_line_colon -->
<g id="node6" class="node"><title>parse_line_colon</title>
<ellipse fill="none" stroke="black" cx="644" cy="-745.245" rx="92.0841" ry="92.0841"/>
<text text-anchor="start" x="581" y="-742.545" font-family="Arial" font-weight="bold" font-size="14.00">Parse line with aa:</text>
</g>
<!-- read_line&#45;&gt;parse_line_colon -->
<g id="edge6" class="edge"><title>read_line&#45;&gt;parse_line_colon</title>
<path fill="none" stroke="black" d="M529.678,-947.275C547.51,-915.919 571.86,-873.1 593.506,-835.037"/>
<polygon fill="black" stroke="black" points="596.754,-836.405 598.655,-825.982 590.669,-832.945 596.754,-836.405"/>
<text text-anchor="start" x="578.5" y="-891.335" font-family="Arial" font-weight="bold" font-size="12.00" fill="#3184e4">(6) </text>
<text text-anchor="start" x="596.5" y="-891.335" font-family="Arial" font-weight="bold" font-size="12.00">IF has char, char, colon: parse</text>
<text text-anchor="start" x="665" y="-872.935" font-family="Arial" font-size="10.00">line</text>
</g>
<!-- parse_line_simple -->
<g id="node7" class="node"><title>parse_line_simple</title>
<ellipse fill="none" stroke="black" cx="895" cy="-745.245" rx="87.1846" ry="87.1846"/>
<text text-anchor="start" x="836" y="-742.545" font-family="Arial" font-weight="bold" font-size="14.00">Parse simple line</text>
</g>
<!-- read_line&#45;&gt;parse_line_simple -->
<g id="edge7" class="edge"><title>read_line&#45;&gt;parse_line_simple</title>
<path fill="none" stroke="black" d="M556.313,-986.793C617.362,-977.978 718.875,-956.149 789,-903.935 814.079,-885.262 835.118,-858.799 851.671,-832.875"/>
<polygon fill="black" stroke="black" points="854.808,-834.457 857.112,-824.116 848.862,-830.763 854.808,-834.457"/>
<text text-anchor="start" x="831" y="-891.335" font-family="Arial" font-weight="bold" font-size="12.00" fill="#3184e4">(7) </text>
<text text-anchor="start" x="849" y="-891.335" font-family="Arial" font-weight="bold" font-size="12.00">ELSE: parse</text>
<text text-anchor="start" x="868" y="-872.935" font-family="Arial" font-size="10.00">line</text>
</g>
<!-- collect -->
<g id="node8" class="node"><title>collect</title>
<ellipse fill="none" stroke="black" cx="444" cy="-430.668" rx="137.772" ry="137.772"/>
<text text-anchor="start" x="419.5" y="-434.468" font-family="Arial" font-weight="bold" font-size="14.00">Collect</text>
<text text-anchor="start" x="354.5" y="-420.468" font-family="Arial" font-weight="bold" font-size="14.00">(word, flags, morph fields)</text>
</g>
<!-- parse_line_slash&#45;&gt;collect -->
<g id="edge8" class="edge"><title>parse_line_slash&#45;&gt;collect</title>
<path fill="none" stroke="black" d="M189.216,-669.822C214.882,-643.17 244.393,-613.152 272,-586.554 291.459,-567.806 312.562,-548.221 333.103,-529.532"/>
<polygon fill="black" stroke="black" points="335.589,-532.003 340.641,-522.69 330.884,-526.819 335.589,-532.003"/>
<text text-anchor="start" x="305" y="-611.954" font-family="Arial" font-weight="bold" font-size="12.00" fill="#3184e4">(8) </text>
<text text-anchor="start" x="323" y="-611.954" font-family="Arial" font-weight="bold" font-size="12.00">collect</text>
<text text-anchor="start" x="276.5" y="-593.554" font-family="Arial" font-size="10.00">(word, flags, morph fields)</text>
</g>
<!-- parse_line_tab&#45;&gt;collect -->
<g id="edge9" class="edge"><title>parse_line_tab&#45;&gt;collect</title>
<path fill="none" stroke="black" d="M403.563,-653.415C407.95,-629.36 412.797,-602.78 417.566,-576.625"/>
<polygon fill="black" stroke="black" points="421.038,-577.094 419.389,-566.628 414.152,-575.838 421.038,-577.094"/>
<text text-anchor="start" x="435" y="-611.954" font-family="Arial" font-weight="bold" font-size="12.00" fill="#3184e4">(9) </text>
<text text-anchor="start" x="453" y="-611.954" font-family="Arial" font-weight="bold" font-size="12.00">collect</text>
<text text-anchor="start" x="420" y="-593.554" font-family="Arial" font-size="10.00">(word, morph fields)</text>
</g>
<!-- parse_line_colon&#45;&gt;collect -->
<g id="edge10" class="edge"><title>parse_line_colon&#45;&gt;collect</title>
<path fill="none" stroke="black" d="M594.562,-666.978C573.107,-633.447 547.439,-593.331 523.425,-555.8"/>
<polygon fill="black" stroke="black" points="526.345,-553.87 518.008,-547.333 520.449,-557.643 526.345,-553.87"/>
<text text-anchor="start" x="577.5" y="-611.954" font-family="Arial" font-weight="bold" font-size="12.00" fill="#3184e4">(10) </text>
<text text-anchor="start" x="602.5" y="-611.954" font-family="Arial" font-weight="bold" font-size="12.00">collect</text>
<text text-anchor="start" x="566" y="-593.554" font-family="Arial" font-size="10.00">(word, morph fields)</text>
</g>
<!-- parse_line_simple&#45;&gt;collect -->
<g id="edge11" class="edge"><title>parse_line_simple&#45;&gt;collect</title>
<path fill="none" stroke="black" d="M829.448,-687.607C811.197,-672.516 791.126,-656.532 772,-642.554 707.4,-595.341 632.535,-546.773 570.654,-508.164"/>
<polygon fill="black" stroke="black" points="572.35,-505.097 562.011,-502.783 568.651,-511.039 572.35,-505.097"/>
<text text-anchor="start" x="751.5" y="-611.954" font-family="Arial" font-weight="bold" font-size="12.00" fill="#3184e4">(11) </text>
<text text-anchor="start" x="776.5" y="-611.954" font-family="Arial" font-weight="bold" font-size="12.00">collect</text>
<text text-anchor="start" x="772.5" y="-593.554" font-family="Arial" font-size="10.00">word</text>
</g>
<!-- check_capitalization -->
<g id="node9" class="node"><title>check_capitalization</title>
<ellipse fill="none" stroke="black" cx="131" cy="-117.391" rx="101.282" ry="101.282"/>
<text text-anchor="start" x="61" y="-114.691" font-family="Arial" font-weight="bold" font-size="14.00">Check capitalization</text>
</g>
<!-- collect&#45;&gt;check_capitalization -->
<g id="edge15" class="edge"><title>collect&#45;&gt;check_capitalization</title>
<path fill="none" stroke="black" d="M346.681,-332.884C302.573,-289.02 251.111,-237.841 209.52,-196.479"/>
<polygon fill="black" stroke="black" points="211.963,-193.972 202.404,-189.402 207.026,-198.935 211.963,-193.972"/>
<text text-anchor="start" x="292.5" y="-262.182" font-family="Arial" font-weight="bold" font-size="12.00" fill="#3184e4">(15) </text>
<text text-anchor="start" x="294.5" y="-243.782" font-family="Arial" font-size="10.00">word</text>
</g>
<!-- set -->
<g id="node10" class="node"><title>set</title>
<text text-anchor="start" x="317" y="-114.191" font-family="Arial" font-weight="bold" font-size="14.00">Word set D</text>
<polyline fill="none" stroke="black" points="312,-104.891 398,-104.891 "/>
<polyline fill="none" stroke="black" points="398,-129.891 312,-129.891 "/>
</g>
<!-- collect&#45;&gt;set -->
<g id="edge12" class="edge"><title>collect&#45;&gt;set</title>
<path fill="none" stroke="black" d="M404.791,-298.324C402.476,-290.363 400.198,-282.468 398,-274.782 385.063,-229.539 370.693,-176.723 362.274,-145.499"/>
<polygon fill="black" stroke="black" points="365.636,-144.526 359.657,-135.78 358.877,-146.346 365.636,-144.526"/>
<text text-anchor="start" x="402.5" y="-262.182" font-family="Arial" font-weight="bold" font-size="12.00" fill="#3184e4">(12) </text>
<text text-anchor="start" x="427.5" y="-262.182" font-family="Arial" font-weight="bold" font-size="12.00">store</text>
<text text-anchor="start" x="419.5" y="-243.782" font-family="Arial" font-size="10.00">word</text>
</g>
<!-- flags -->
<g id="node11" class="node"><title>flags</title>
<text text-anchor="start" x="492" y="-114.191" font-family="Arial" font-weight="bold" font-size="14.00">Word, Flag relation D,F</text>
<polyline fill="none" stroke="black" points="486.5,-104.891 653.5,-104.891 "/>
<polyline fill="none" stroke="black" points="653.5,-129.891 486.5,-129.891 "/>
</g>
<!-- collect&#45;&gt;flags -->
<g id="edge13" class="edge"><title>collect&#45;&gt;flags</title>
<path fill="none" stroke="black" d="M495.431,-302.611C519.09,-244.163 545.002,-180.146 559.199,-145.075"/>
<polygon fill="black" stroke="black" points="562.539,-146.152 563.047,-135.569 556.05,-143.525 562.539,-146.152"/>
<text text-anchor="start" x="526.5" y="-262.182" font-family="Arial" font-weight="bold" font-size="12.00" fill="#3184e4">(13) </text>
<text text-anchor="start" x="551.5" y="-262.182" font-family="Arial" font-weight="bold" font-size="12.00">store</text>
<text text-anchor="start" x="527" y="-243.782" font-family="Arial" font-size="10.00">word × flags</text>
</g>
<!-- morph -->
<g id="node12" class="node"><title>morph</title>
<text text-anchor="start" x="747" y="-114.191" font-family="Arial" font-weight="bold" font-size="14.00">Word, Morph field relation D,M</text>
<polyline fill="none" stroke="black" points="742,-104.891 960,-104.891 "/>
<polyline fill="none" stroke="black" points="960,-129.891 742,-129.891 "/>
</g>
<!-- collect&#45;&gt;morph -->
<g id="edge14" class="edge"><title>collect&#45;&gt;morph</title>
<path fill="none" stroke="black" d="M553.069,-346.251C643.104,-277.392 764.827,-184.297 820.691,-141.571"/>
<polygon fill="black" stroke="black" points="822.944,-144.255 828.761,-135.4 818.691,-138.695 822.944,-144.255"/>
<text text-anchor="start" x="715.5" y="-262.182" font-family="Arial" font-weight="bold" font-size="12.00" fill="#3184e4">(14) </text>
<text text-anchor="start" x="740.5" y="-262.182" font-family="Arial" font-weight="bold" font-size="12.00">store</text>
<text text-anchor="start" x="700" y="-243.782" font-family="Arial" font-size="10.00">word × morph fields</text>
</g>
</g>
</svg>
