<?xml version="1.0" encoding="UTF-8" standalone="yes"?><svg xmlns="http://www.w3.org/2000/svg" xmlns:xlink="http://www.w3.org/1999/xlink" height="337px" style="width:367px;height:337px;" version="1.1" viewBox="0 0 367 337" width="367px"><defs/><g><rect fill="#FAFAFA" height="332.5859" style="stroke: #EEEEEE; stroke-width: 1.0;" width="62" x="4" y="4"/><text fill="#666666" font-family="Arial" font-size="12" font-style="italic" lengthAdjust="spacingAndGlyphs" textLength="45" x="12.5" y="15.2559">Browser</text><rect fill="#FAFAFA" height="332.5859" style="stroke: #EEEEEE; stroke-width: 1.0;" width="165" x="77.5" y="4"/><text fill="#666666" font-family="Arial" font-size="12" font-style="italic" lengthAdjust="spacingAndGlyphs" textLength="75" x="122.5" y="15.2559">Amazon AWS</text><line style="stroke: #BBBBBB; stroke-width: 1.0; stroke-dasharray: 5.0,5.0;" x1="35" x2="35" y1="79.8975" y2="275.4873"/><line style="stroke: #BBBBBB; stroke-width: 1.0; stroke-dasharray: 5.0,5.0;" x1="126.5" x2="126.5" y1="79.8975" y2="275.4873"/><line style="stroke: #BBBBBB; stroke-width: 1.0; stroke-dasharray: 5.0,5.0;" x1="217.5" x2="217.5" y1="79.8975" y2="275.4873"/><line style="stroke: #BBBBBB; stroke-width: 1.0; stroke-dasharray: 5.0,5.0;" x1="310.5" x2="310.5" y1="79.8975" y2="275.4873"/><rect fill="#DDE5FF" height="30.0986" style="stroke: #CCCCCC; stroke-width: 1.5;" width="54" x="8" y="48.7988"/><text fill="#333333" font-family="Arial" font-size="14" font-weight="bold" lengthAdjust="spacingAndGlyphs" textLength="40" x="15" y="68.9307">Client</text><rect fill="#DDE5FF" height="30.0986" style="stroke: #CCCCCC; stroke-width: 1.5;" width="54" x="8" y="274.4873"/><text fill="#333333" font-family="Arial" font-size="14" font-weight="bold" lengthAdjust="spacingAndGlyphs" textLength="40" x="15" y="294.6191">Client</text><rect fill="#DDE5FF" height="30.0986" style="stroke: #CCCCCC; stroke-width: 1.5;" width="91" x="81.5" y="48.7988"/><text fill="#333333" font-family="Arial" font-size="14" font-weight="bold" lengthAdjust="spacingAndGlyphs" textLength="77" x="88.5" y="68.9307">Web Server</text><rect fill="#DDE5FF" height="30.0986" style="stroke: #CCCCCC; stroke-width: 1.5;" width="91" x="81.5" y="274.4873"/><text fill="#333333" font-family="Arial" font-size="14" font-weight="bold" lengthAdjust="spacingAndGlyphs" textLength="77" x="88.5" y="294.6191">Web Server</text><text fill="#333333" font-family="Arial" font-size="14" font-weight="bold" lengthAdjust="spacingAndGlyphs" textLength="35" x="197.5" y="76.9307">Logs</text><path d="M200,31.7988 C200,21.7988 218,21.7988 218,21.7988 C218,21.7988 236,21.7988 236,31.7988 L236,53.7988 C236,63.7988 218,63.7988 218,63.7988 C218,63.7988 200,63.7988 200,53.7988 L200,31.7988 " fill="#DF4646" style="stroke: #A80036; stroke-width: 1.5;"/><path d="M200,31.7988 C200,41.7988 218,41.7988 218,41.7988 C218,41.7988 236,41.7988 236,31.7988 " fill="none" style="stroke: #A80036; stroke-width: 1.5;"/><text fill="#333333" font-family="Arial" font-size="14" font-weight="bold" lengthAdjust="spacingAndGlyphs" textLength="35" x="197.5" y="287.6191">Logs</text><path d="M200,300.5859 C200,290.5859 218,290.5859 218,290.5859 C218,290.5859 236,290.5859 236,300.5859 L236,322.5859 C236,332.5859 218,332.5859 218,332.5859 C218,332.5859 200,332.5859 200,322.5859 L200,300.5859 " fill="#DF4646" style="stroke: #A80036; stroke-width: 1.5;"/><path d="M200,300.5859 C200,310.5859 218,310.5859 218,310.5859 C218,310.5859 236,310.5859 236,300.5859 " fill="none" style="stroke: #A80036; stroke-width: 1.5;"/><text fill="#333333" font-family="Arial" font-size="14" font-weight="bold" lengthAdjust="spacingAndGlyphs" textLength="118" x="248.5" y="76.9307">Google Analytics</text><ellipse cx="310.5" cy="47.7988" fill="#999999" rx="12" ry="12" style="stroke: #A80036; stroke-width: 2.0;"/><line style="stroke: #A80036; stroke-width: 2.0;" x1="298.5" x2="322.5" y1="61.7988" y2="61.7988"/><text fill="#333333" font-family="Arial" font-size="14" font-weight="bold" lengthAdjust="spacingAndGlyphs" textLength="118" x="248.5" y="287.6191">Google Analytics</text><ellipse cx="310.5" cy="306.5859" fill="#999999" rx="12" ry="12" style="stroke: #A80036; stroke-width: 2.0;"/><line style="stroke: #A80036; stroke-width: 2.0;" x1="298.5" x2="322.5" y1="320.5859" y2="320.5859"/><polygon fill="#555555" points="115,105.8975,125,109.8975,115,113.8975,119,109.8975" style="stroke: #555555; stroke-width: 1.0;"/><line style="stroke: #555555; stroke-width: 1.0;" x1="35" x2="121" y1="109.8975" y2="109.8975"/><text fill="#555555" font-family="Arial" font-size="13" font-weight="bold" lengthAdjust="spacingAndGlyphs" textLength="58" x="52" y="106.0913">Request /</text><polygon fill="#555555" points="206,164.8462,216,168.8462,206,172.8462,210,168.8462" style="stroke: #555555; stroke-width: 1.0;"/><line style="stroke: #555555; stroke-width: 1.0;" x1="127" x2="212" y1="168.8462" y2="168.8462"/><text fill="#555555" font-family="Arial" font-size="13" font-weight="bold" lengthAdjust="spacingAndGlyphs" textLength="24" x="160.5" y="135.04">Log</text><text fill="#555555" font-family="Arial" font-size="13" font-style="italic" lengthAdjust="spacingAndGlyphs" textLength="51" x="147" y="149.9888">The user</text><text fill="#555555" font-family="Arial" font-size="13" font-style="italic" lengthAdjust="spacingAndGlyphs" textLength="67" x="139" y="164.9375">IP address.</text><polygon fill="#555555" points="46,208.6924,36,212.6924,46,216.6924,42,212.6924" style="stroke: #555555; stroke-width: 1.0;"/><line style="stroke: #555555; stroke-width: 1.0;" x1="40" x2="126" y1="212.6924" y2="212.6924"/><text fill="#555555" font-family="Arial" font-size="13" font-weight="bold" lengthAdjust="spacingAndGlyphs" textLength="61" x="50.5" y="193.8862">Response</text><text fill="#555555" font-family="Arial" font-size="13" font-style="italic" lengthAdjust="spacingAndGlyphs" textLength="68" x="47" y="208.835">User Profile</text><polygon fill="#555555" points="298.5,252.5898,308.5,256.5898,298.5,260.5898,302.5,256.5898" style="stroke: #555555; stroke-width: 1.0;"/><line style="stroke: #555555; stroke-width: 1.0;" x1="35" x2="304.5" y1="256.5898" y2="256.5898"/><text fill="#555555" font-family="Arial" font-size="13" font-weight="bold" lengthAdjust="spacingAndGlyphs" textLength="24" x="160.75" y="237.7837">Log</text><text fill="#555555" font-family="Arial" font-size="13" font-style="italic" lengthAdjust="spacingAndGlyphs" textLength="95" x="125.25" y="252.7324">Page Navigation</text></g></svg>