<?xml version="1.0" encoding="UTF-8" standalone="no"?>
<!DOCTYPE svg PUBLIC "-//W3C//DTD SVG 1.1//EN"
 "http://www.w3.org/Graphics/SVG/1.1/DTD/svg11.dtd">
<!-- Generated by graphviz version 2.38.0 (20140413.2041)
 -->
<!-- Title: Webapp Pages: 1 -->
<svg width="428pt" height="514pt"
 viewBox="0.00 0.00 427.50 513.69" xmlns="http://www.w3.org/2000/svg" xmlns:xlink="http://www.w3.org/1999/xlink">
<g id="graph0" class="graph" transform="scale(1 1) rotate(0) translate(4 509.688)">
<title>Webapp</title>
<polygon fill="white" stroke="none" points="-4,4 -4,-509.688 423.5,-509.688 423.5,4 -4,4"/>
<text text-anchor="middle" x="209.75" y="-485.688" font-family="Arial" font-size="20.00">Webapp</text>
<g id="clust1" class="cluster"><title>cluster_browser</title>
<polygon fill="none" stroke="#595959" stroke-dasharray="5,2" points="142,-359.894 142,-467.688 230,-467.688 230,-359.894 142,-359.894"/>
<text text-anchor="start" x="168" y="-456.688" font-family="Arial" font-style="italic" font-size="10.00" fill="#595959">Browser</text>
</g>
<g id="clust2" class="cluster"><title>cluster_aws</title>
<polygon fill="none" stroke="#595959" stroke-dasharray="5,2" points="8,-8 8,-303.894 155,-303.894 155,-8 8,-8"/>
<text text-anchor="start" x="50.5" y="-292.894" font-family="Arial" font-style="italic" font-size="10.00" fill="#595959">Amazon AWS</text>
</g>
<!-- client -->
<g id="node1" class="node"><title>client</title>
<ellipse fill="none" stroke="black" cx="186" cy="-404.291" rx="36.2938" ry="36.2938"/>
<text text-anchor="start" x="166" y="-401.591" font-family="Arial" font-weight="bold" font-size="14.00">Client</text>
</g>
<!-- server -->
<g id="node2" class="node"><title>server</title>
<ellipse fill="none" stroke="black" cx="85" cy="-214.5" rx="62.2891" ry="62.2891"/>
<text text-anchor="start" x="45" y="-211.8" font-family="Arial" font-weight="bold" font-size="14.00">Web Server</text>
</g>
<!-- client&#45;&gt;server -->
<g id="edge1" class="edge"><title>client&#45;&gt;server</title>
<path fill="none" stroke="black" d="M149.524,-403.589C109.164,-401.712 45.7699,-391.738 15,-349.894 -4.20882,-323.773 11.3036,-291.652 32.557,-265.364"/>
<polygon fill="black" stroke="black" points="35.5071,-267.296 39.305,-257.406 30.1681,-262.769 35.5071,-267.296"/>
<text text-anchor="start" x="19.5" y="-328.294" font-family="Arial" font-weight="bold" font-size="12.00" fill="#3184e4">(1) </text>
<text text-anchor="start" x="37.5" y="-328.294" font-family="Arial" font-weight="bold" font-size="12.00">Request /</text>
</g>
<!-- client&#45;&gt;server -->
<g id="edge3" class="edge"><title>client&#45;&gt;server</title>
<path fill="none" stroke="black" d="M164.333,-363.006C149.71,-335.816 130.234,-299.605 114.24,-269.866"/>
<polygon fill="black" stroke="black" points="161.276,-364.71 169.095,-371.859 167.441,-361.394 161.276,-364.71"/>
<text text-anchor="start" x="161.5" y="-337.294" font-family="Arial" font-weight="bold" font-size="12.00" fill="#3184e4">(3) </text>
<text text-anchor="start" x="179.5" y="-337.294" font-family="Arial" font-weight="bold" font-size="12.00">Response</text>
<text text-anchor="start" x="174" y="-318.894" font-family="Arial" font-size="10.00">User Profile</text>
</g>
<!-- analytics -->
<g id="node4" class="node"><title>analytics</title>
<polygon fill="none" stroke="black" stroke-width="2" points="419.5,-286 276.5,-286 276.5,-143 419.5,-143 419.5,-286"/>
<text text-anchor="start" x="289" y="-211.3" font-family="Arial" font-weight="bold" font-size="14.00">Google Analytics</text>
</g>
<!-- client&#45;&gt;analytics -->
<g id="edge4" class="edge"><title>client&#45;&gt;analytics</title>
<path fill="none" stroke="black" d="M216.796,-384.77C230.919,-375.39 247.303,-363.18 260,-349.894 275.778,-333.385 290.465,-313.687 303.146,-294.53"/>
<polygon fill="black" stroke="black" points="306.127,-296.365 308.641,-286.072 300.258,-292.551 306.127,-296.365"/>
<text text-anchor="start" x="310.5" y="-337.294" font-family="Arial" font-weight="bold" font-size="12.00" fill="#3184e4">(4) </text>
<text text-anchor="start" x="328.5" y="-337.294" font-family="Arial" font-weight="bold" font-size="12.00">Log</text>
<text text-anchor="start" x="295" y="-318.894" font-family="Arial" font-size="10.00">Page Navigation</text>
</g>
<!-- logs -->
<g id="node3" class="node"><title>logs</title>
<text text-anchor="start" x="70" y="-30.8" font-family="Arial" font-weight="bold" font-size="14.00">Logs</text>
<polyline fill="none" stroke="black" points="65,-21.5 111,-21.5 "/>
<polyline fill="none" stroke="black" points="111,-46.5 65,-46.5 "/>
</g>
<!-- server&#45;&gt;logs -->
<g id="edge2" class="edge"><title>server&#45;&gt;logs</title>
<path fill="none" stroke="black" d="M86.0324,-152.07C86.5469,-121.462 87.1428,-86.0025 87.5429,-62.1999"/>
<polygon fill="black" stroke="black" points="91.0432,-62.2006 87.7119,-52.1432 84.0442,-62.0829 91.0432,-62.2006"/>
<text text-anchor="start" x="97.5" y="-111.9" font-family="Arial" font-weight="bold" font-size="12.00" fill="#3184e4">(2) </text>
<text text-anchor="start" x="115.5" y="-111.9" font-family="Arial" font-weight="bold" font-size="12.00">Log</text>
<text text-anchor="start" x="98.5" y="-93.5" font-family="Arial" font-size="10.00">The user</text>
<text text-anchor="start" x="92.5" y="-76.5" font-family="Arial" font-size="10.00">IP address.</text>
</g>
</g>
</svg>
