<?xml version="1.0" encoding="UTF-8" standalone="no"?><svg xmlns="http://www.w3.org/2000/svg" xmlns:xlink="http://www.w3.org/1999/xlink" contentScriptType="application/ecmascript" contentStyleType="text/css" height="2306px" preserveAspectRatio="none" style="width:749px;height:2306px;" version="1.1" viewBox="0 0 749 2306" width="749px" zoomAndPan="magnify"><defs><linearGradient id="g1t2we1aoii7w40" x1="0%" x2="100%" y1="50%" y2="50%"><stop offset="0%" stop-color="#FFFFFF"/><stop offset="100%" stop-color="#FFFFFF"/></linearGradient><filter height="300%" id="f1t2we1aoii7w4" width="300%" x="-1" y="-1"><feGaussianBlur result="blurOut" stdDeviation="2.0"/><feColorMatrix in="blurOut" result="blurOut2" type="matrix" values="0 0 0 0 0 0 0 0 0 0 0 0 0 0 0 0 0 0 .4 0"/><feOffset dx="4.0" dy="4.0" in="blurOut2" result="blurOut3"/><feBlend in="SourceGraphic" in2="blurOut3" mode="normal"/></filter></defs><g><rect fill="url(#g1t2we1aoii7w40)" height="2306" style="stroke: none; stroke-width: 1.0;" width="749" x="0" y="0"/><text fill="#000000" font-family="sans-serif" font-size="18" lengthAdjust="spacingAndGlyphs" textLength="482" x="132.5" y="26.708">Hunspell - Check Spelling - bool spell(word, info, root)</text><path d="M241,30.9531 L241,56.0859 L416,56.0859 L416,40.9531 L406,30.9531 L241,30.9531 " fill="#FBFB77" filter="url(#f1t2we1aoii7w4)" style="stroke: #A80036; stroke-width: 1.0;"/><path d="M406,30.9531 L406,40.9531 L416,40.9531 L406,30.9531 " fill="#FBFB77" style="stroke: #A80036; stroke-width: 1.0;"/><text fill="#000000" font-family="sans-serif" font-size="13" lengthAdjust="spacingAndGlyphs" textLength="154" x="247" y="48.02">Return FALSE is implied.</text><ellipse cx="446" cy="43.5195" fill="#000000" filter="url(#f1t2we1aoii7w4)" rx="10" ry="10" style="stroke: none; stroke-width: 1.0;"/><rect fill="#FFFFFF" filter="url(#f1t2we1aoii7w4)" height="137.9761" style="stroke: #000000; stroke-width: 2.0;" width="290" x="332" y="66.8877"/><path d="M421,67.8877 L421,76.1846 L411,86.1846 L332,86.1846 " fill="none" style="stroke: #000000; stroke-width: 2.0;"/><text fill="#000000" font-family="sans-serif" font-size="14" lengthAdjust="spacingAndGlyphs" textLength="79" x="335" y="80.8828">initialazition</text><rect fill="#FEFECE" filter="url(#f1t2we1aoii7w4)" height="33.9688" rx="12.5" ry="12.5" style="stroke: #A80036; stroke-width: 1.5;" width="170" x="361" y="103.1846"/><text fill="#000000" font-family="sans-serif" font-size="12" lengthAdjust="spacingAndGlyphs" textLength="150" x="371" y="124.3232">reset I/O parameter info</text><polygon fill="#FEFECE" filter="url(#f1t2we1aoii7w4)" points="354,157.1533,538,157.1533,550,169.1533,538,181.1533,354,181.1533,342,169.1533,354,157.1533" style="stroke: #A80036; stroke-width: 1.5;"/><text fill="#000000" font-family="sans-serif" font-size="11" lengthAdjust="spacingAndGlyphs" textLength="14" x="450" y="191.3638">no</text><text fill="#000000" font-family="sans-serif" font-size="11" lengthAdjust="spacingAndGlyphs" textLength="184" x="354" y="172.9614">word length exceeds maximum?</text><text fill="#000000" font-family="sans-serif" font-size="11" lengthAdjust="spacingAndGlyphs" textLength="20" x="550" y="166.5591">yes</text><ellipse cx="590" cy="169.1533" fill="none" filter="url(#f1t2we1aoii7w4)" rx="10" ry="10" style="stroke: #000000; stroke-width: 1.0;"/><ellipse cx="590.5" cy="169.6533" fill="#000000" filter="url(#f1t2we1aoii7w4)" rx="6" ry="6" style="stroke: none; stroke-width: 1.0;"/><rect fill="#FFFFFF" filter="url(#f1t2we1aoii7w4)" height="720.7383" style="stroke: #000000; stroke-width: 2.0;" width="501" x="193.75" y="215.6655"/><path d="M318.75,216.6655 L318.75,224.9624 L308.75,234.9624 L193.75,234.9624 " fill="none" style="stroke: #000000; stroke-width: 2.0;"/><text fill="#000000" font-family="sans-serif" font-size="14" lengthAdjust="spacingAndGlyphs" textLength="115" x="196.75" y="229.6606">input conversion</text><rect fill="#FEFECE" filter="url(#f1t2we1aoii7w4)" height="33.9688" rx="12.5" ry="12.5" style="stroke: #A80036; stroke-width: 1.5;" width="231" x="330.5" y="300.3647"/><text fill="#000000" font-family="sans-serif" font-size="12" lengthAdjust="spacingAndGlyphs" textLength="211" x="340.5" y="321.5034">perform input conversion on word</text><polygon fill="#FEFECE" filter="url(#f1t2we1aoii7w4)" points="369,251.9624,523,251.9624,535,263.9624,523,275.9624,369,275.9624,357,263.9624,369,251.9624" style="stroke: #A80036; stroke-width: 1.5;"/><text fill="#000000" font-family="sans-serif" font-size="11" lengthAdjust="spacingAndGlyphs" textLength="20" x="450" y="286.1729">yes</text><text fill="#000000" font-family="sans-serif" font-size="11" lengthAdjust="spacingAndGlyphs" textLength="154" x="369" y="267.7705">input conversion available?</text><text fill="#000000" font-family="sans-serif" font-size="11" lengthAdjust="spacingAndGlyphs" textLength="14" x="535" y="261.3682">no</text><polygon fill="#FEFECE" filter="url(#f1t2we1aoii7w4)" points="446,354.3335,458,366.3335,446,378.3335,434,366.3335,446,354.3335" style="stroke: #A80036; stroke-width: 1.5;"/><polygon fill="#FEFECE" filter="url(#f1t2we1aoii7w4)" points="354,398.3335,538,398.3335,550,410.3335,538,422.3335,354,422.3335,342,410.3335,354,398.3335" style="stroke: #A80036; stroke-width: 1.5;"/><text fill="#000000" font-family="sans-serif" font-size="11" lengthAdjust="spacingAndGlyphs" textLength="184" x="354" y="414.1416">input conversion changed word?</text><text fill="#000000" font-family="sans-serif" font-size="11" lengthAdjust="spacingAndGlyphs" textLength="20" x="322" y="407.7393">yes</text><text fill="#000000" font-family="sans-serif" font-size="11" lengthAdjust="spacingAndGlyphs" textLength="14" x="550" y="407.7393">no</text><rect fill="#FEFECE" filter="url(#f1t2we1aoii7w4)" height="89.8438" rx="12.5" ry="12.5" style="stroke: #A80036; stroke-width: 1.5;" width="224" x="213.75" y="432.3335"/><text fill="#000000" font-family="sans-serif" font-size="12" lengthAdjust="spacingAndGlyphs" textLength="204" x="223.75" y="453.4722">clean converted word and store:</text><text fill="#000000" font-family="sans-serif" font-size="12" lengthAdjust="spacingAndGlyphs" textLength="136" x="223.75" y="467.4409">- cleaned word length</text><text fill="#000000" font-family="sans-serif" font-size="12" lengthAdjust="spacingAndGlyphs" textLength="92" x="223.75" y="481.4097">- cleaned word</text><text fill="#000000" font-family="sans-serif" font-size="12" lengthAdjust="spacingAndGlyphs" textLength="185" x="223.75" y="495.3784">- capitalization type "captype"</text><text fill="#000000" font-family="sans-serif" font-size="12" lengthAdjust="spacingAndGlyphs" textLength="170" x="223.75" y="509.3472">- abbreviation count "abbv"</text><rect fill="#FEFECE" filter="url(#f1t2we1aoii7w4)" height="89.8438" rx="12.5" ry="12.5" style="stroke: #A80036; stroke-width: 1.5;" width="217" x="457.75" y="432.3335"/><text fill="#000000" font-family="sans-serif" font-size="12" lengthAdjust="spacingAndGlyphs" textLength="197" x="467.75" y="453.4722">clean (original) word and store:</text><text fill="#000000" font-family="sans-serif" font-size="12" lengthAdjust="spacingAndGlyphs" textLength="136" x="467.75" y="467.4409">- cleaned word length</text><text fill="#000000" font-family="sans-serif" font-size="12" lengthAdjust="spacingAndGlyphs" textLength="92" x="467.75" y="481.4097">- cleaned word</text><text fill="#000000" font-family="sans-serif" font-size="12" lengthAdjust="spacingAndGlyphs" textLength="185" x="467.75" y="495.3784">- capitalization type "captype"</text><text fill="#000000" font-family="sans-serif" font-size="12" lengthAdjust="spacingAndGlyphs" textLength="170" x="467.75" y="509.3472">- abbreviation count "abbv"</text><polygon fill="#FEFECE" filter="url(#f1t2we1aoii7w4)" points="446,528.1772,458,540.1772,446,552.1772,434,540.1772,446,528.1772" style="stroke: #A80036; stroke-width: 1.5;"/><rect fill="#FEFECE" filter="url(#f1t2we1aoii7w4)" height="33.9688" rx="12.5" ry="12.5" style="stroke: #A80036; stroke-width: 1.5;" width="191" x="350.5" y="620.5796"/><text fill="#000000" font-family="sans-serif" font-size="12" lengthAdjust="spacingAndGlyphs" textLength="171" x="360.5" y="641.7183">set abbreviation count to 1</text><polygon fill="#FEFECE" filter="url(#f1t2we1aoii7w4)" points="403.5,572.1772,488.5,572.1772,500.5,584.1772,488.5,596.1772,403.5,596.1772,391.5,584.1772,403.5,572.1772" style="stroke: #A80036; stroke-width: 1.5;"/><text fill="#000000" font-family="sans-serif" font-size="11" lengthAdjust="spacingAndGlyphs" textLength="20" x="450" y="606.3877">yes</text><text fill="#000000" font-family="sans-serif" font-size="11" lengthAdjust="spacingAndGlyphs" textLength="85" x="403.5" y="587.9854">client is Mozilla</text><text fill="#000000" font-family="sans-serif" font-size="11" lengthAdjust="spacingAndGlyphs" textLength="14" x="500.5" y="581.583">no</text><polygon fill="#FEFECE" filter="url(#f1t2we1aoii7w4)" points="446,674.5483,458,686.5483,446,698.5483,434,686.5483,446,674.5483" style="stroke: #A80036; stroke-width: 1.5;"/><rect fill="#FEFECE" filter="url(#f1t2we1aoii7w4)" height="33.9688" rx="12.5" ry="12.5" style="stroke: #A80036; stroke-width: 1.5;" width="95" x="398.5" y="766.9507"/><text fill="#000000" font-family="sans-serif" font-size="12" lengthAdjust="spacingAndGlyphs" textLength="75" x="408.5" y="788.0894">return TRUE</text><ellipse cx="446" cy="838.4351" fill="none" filter="url(#f1t2we1aoii7w4)" rx="10" ry="10" style="stroke: #000000; stroke-width: 1.0;"/><ellipse cx="446.5" cy="838.9351" fill="#000000" filter="url(#f1t2we1aoii7w4)" rx="6" ry="6" style="stroke: none; stroke-width: 1.0;"/><polygon fill="#FEFECE" filter="url(#f1t2we1aoii7w4)" points="293,718.5483,599,718.5483,611,730.5483,599,742.5483,293,742.5483,281,730.5483,293,718.5483" style="stroke: #A80036; stroke-width: 1.5;"/><text fill="#000000" font-family="sans-serif" font-size="11" lengthAdjust="spacingAndGlyphs" textLength="20" x="450" y="752.7588">yes</text><text fill="#000000" font-family="sans-serif" font-size="11" lengthAdjust="spacingAndGlyphs" textLength="306" x="293" y="734.3564">cleaned word length is 0 OR hash manager is empty?</text><text fill="#000000" font-family="sans-serif" font-size="11" lengthAdjust="spacingAndGlyphs" textLength="14" x="611" y="727.9541">no</text><rect fill="#FEFECE" filter="url(#f1t2we1aoii7w4)" height="33.9688" rx="12.5" ry="12.5" style="stroke: #A80036; stroke-width: 1.5;" width="83" x="404.5" y="890.4351"/><text fill="#000000" font-family="sans-serif" font-size="12" lengthAdjust="spacingAndGlyphs" textLength="63" x="414.5" y="911.5737">reset root</text><rect fill="#FFFFFF" filter="url(#f1t2we1aoii7w4)" height="254.1523" style="stroke: #000000; stroke-width: 2.0;" width="302" x="295" y="947.2056"/><path d="M535,948.2056 L535,956.5024 L525,966.5024 L295,966.5024 " fill="none" style="stroke: #000000; stroke-width: 2.0;"/><text fill="#000000" font-family="sans-serif" font-size="14" lengthAdjust="spacingAndGlyphs" textLength="230" x="298" y="961.2007">numbers and numeric separators</text><rect fill="#FEFECE" filter="url(#f1t2we1aoii7w4)" height="33.9688" rx="12.5" ry="12.5" style="stroke: #A80036; stroke-width: 1.5;" width="282" x="305" y="983.5024"/><text fill="#000000" font-family="sans-serif" font-size="12" lengthAdjust="spacingAndGlyphs" textLength="262" x="315" y="1004.6411">determine number state for cleaned word</text><rect fill="#FEFECE" filter="url(#f1t2we1aoii7w4)" height="33.9688" rx="12.5" ry="12.5" style="stroke: #A80036; stroke-width: 1.5;" width="95" x="398.5" y="1085.8735"/><text fill="#000000" font-family="sans-serif" font-size="12" lengthAdjust="spacingAndGlyphs" textLength="75" x="408.5" y="1107.0122">return TRUE</text><ellipse cx="446" cy="1157.3579" fill="none" filter="url(#f1t2we1aoii7w4)" rx="10" ry="10" style="stroke: #000000; stroke-width: 1.0;"/><ellipse cx="446.5" cy="1157.8579" fill="#000000" filter="url(#f1t2we1aoii7w4)" rx="6" ry="6" style="stroke: none; stroke-width: 1.0;"/><polygon fill="#FEFECE" filter="url(#f1t2we1aoii7w4)" points="368.5,1037.4712,523.5,1037.4712,535.5,1049.4712,523.5,1061.4712,368.5,1061.4712,356.5,1049.4712,368.5,1037.4712" style="stroke: #A80036; stroke-width: 1.5;"/><text fill="#000000" font-family="sans-serif" font-size="11" lengthAdjust="spacingAndGlyphs" textLength="20" x="450" y="1071.6816">yes</text><text fill="#000000" font-family="sans-serif" font-size="11" lengthAdjust="spacingAndGlyphs" textLength="155" x="368.5" y="1053.2793">cleaned word is a number?</text><text fill="#000000" font-family="sans-serif" font-size="11" lengthAdjust="spacingAndGlyphs" textLength="14" x="535.5" y="1046.877">no</text><rect fill="#FFFFFF" filter="url(#f1t2we1aoii7w4)" height="439.0078" style="stroke: #000000; stroke-width: 2.0;" width="728" x="10" y="1212.1597"/><path d="M143,1213.1597 L143,1221.4565 L133,1231.4565 L10,1231.4565 " fill="none" style="stroke: #000000; stroke-width: 2.0;"/><text fill="#000000" font-family="sans-serif" font-size="14" lengthAdjust="spacingAndGlyphs" textLength="123" x="13" y="1226.1548">capitalization type</text><polygon fill="#FEFECE" filter="url(#f1t2we1aoii7w4)" points="276.5,1248.4565,615.5,1248.4565,627.5,1260.4565,615.5,1272.4565,276.5,1272.4565,264.5,1260.4565,276.5,1248.4565" style="stroke: #A80036; stroke-width: 1.5;"/><text fill="#000000" font-family="sans-serif" font-size="11" lengthAdjust="spacingAndGlyphs" textLength="339" x="276.5" y="1264.2646">captype is camel case, pascal case OR lower/neutral case?</text><text fill="#000000" font-family="sans-serif" font-size="11" lengthAdjust="spacingAndGlyphs" textLength="20" x="244.5" y="1257.8623">yes</text><text fill="#000000" font-family="sans-serif" font-size="11" lengthAdjust="spacingAndGlyphs" textLength="14" x="627.5" y="1257.8623">no</text><rect fill="#FEFECE" filter="url(#f1t2we1aoii7w4)" height="33.9688" rx="12.5" ry="12.5" style="stroke: #A80036; stroke-width: 1.5;" width="187" x="161" y="1330.8589"/><text fill="#000000" font-family="sans-serif" font-size="12" lengthAdjust="spacingAndGlyphs" textLength="167" x="171" y="1351.9976">add SPELL_ORIGCAP to info</text><polygon fill="#FEFECE" filter="url(#f1t2we1aoii7w4)" points="142,1282.4565,367,1282.4565,379,1294.4565,367,1306.4565,142,1306.4565,130,1294.4565,142,1282.4565" style="stroke: #A80036; stroke-width: 1.5;"/><text fill="#000000" font-family="sans-serif" font-size="11" lengthAdjust="spacingAndGlyphs" textLength="20" x="258.5" y="1316.667">yes</text><text fill="#000000" font-family="sans-serif" font-size="11" lengthAdjust="spacingAndGlyphs" textLength="225" x="142" y="1298.2646">captype is camel case OR pascal case?</text><text fill="#000000" font-family="sans-serif" font-size="11" lengthAdjust="spacingAndGlyphs" textLength="14" x="379" y="1291.8623">no</text><polygon fill="#FEFECE" filter="url(#f1t2we1aoii7w4)" points="254.5,1384.8276,266.5,1396.8276,254.5,1408.8276,242.5,1396.8276,254.5,1384.8276" style="stroke: #A80036; stroke-width: 1.5;"/><rect fill="#87CEEB" filter="url(#f1t2we1aoii7w4)" height="33.9688" rx="12.5" ry="12.5" style="stroke: #A80036; stroke-width: 1.5;" width="296" x="106.5" y="1428.8276"/><text fill="#000000" font-family="sans-serif" font-size="12" lengthAdjust="spacingAndGlyphs" textLength="276" x="116.5" y="1449.9663">root = check_word(cleaned word, info, root)</text><rect fill="#87CEEB" filter="url(#f1t2we1aoii7w4)" height="33.9688" rx="12.5" ry="12.5" style="stroke: #A80036; stroke-width: 1.5;" width="429" x="40" y="1531.1987"/><text fill="#000000" font-family="sans-serif" font-size="12" lengthAdjust="spacingAndGlyphs" textLength="409" x="50" y="1552.3374">root = check_word(cleaned word period added at end, info, root)</text><polygon fill="#FEFECE" filter="url(#f1t2we1aoii7w4)" points="190,1482.7964,319,1482.7964,331,1494.7964,319,1506.7964,190,1506.7964,178,1494.7964,190,1482.7964" style="stroke: #A80036; stroke-width: 1.5;"/><text fill="#000000" font-family="sans-serif" font-size="11" lengthAdjust="spacingAndGlyphs" textLength="20" x="258.5" y="1517.0068">yes</text><text fill="#000000" font-family="sans-serif" font-size="11" lengthAdjust="spacingAndGlyphs" textLength="129" x="190" y="1498.6045">abbv &gt; 0 AND no root?</text><text fill="#000000" font-family="sans-serif" font-size="11" lengthAdjust="spacingAndGlyphs" textLength="14" x="331" y="1492.2021">no</text><polygon fill="#FEFECE" filter="url(#f1t2we1aoii7w4)" points="254.5,1585.1675,266.5,1597.1675,254.5,1609.1675,242.5,1597.1675,254.5,1585.1675" style="stroke: #A80036; stroke-width: 1.5;"/><rect fill="#87CEEB" filter="url(#f1t2we1aoii7w4)" height="47.9375" rx="12.5" ry="12.5" style="stroke: #A80036; stroke-width: 1.5;" width="177" x="549" y="1282.4565"/><text fill="#000000" font-family="sans-serif" font-size="12" lengthAdjust="spacingAndGlyphs" textLength="103" x="559" y="1303.5952">Check Spelling A</text><text fill="#000000" font-family="sans-serif" font-size="12" lengthAdjust="spacingAndGlyphs" textLength="157" x="559" y="1317.564">spell upper or capitalized</text><polygon fill="#FEFECE" filter="url(#f1t2we1aoii7w4)" points="446,1615.1675,458,1627.1675,446,1639.1675,434,1627.1675,446,1615.1675" style="stroke: #A80036; stroke-width: 1.5;"/><rect fill="#FFFFFF" filter="url(#f1t2we1aoii7w4)" height="486.7183" style="stroke: #000000; stroke-width: 2.0;" width="366" x="303.5" y="1661.9692"/><path d="M425.5,1662.9692 L425.5,1671.2661 L415.5,1681.2661 L303.5,1681.2661 " fill="none" style="stroke: #000000; stroke-width: 2.0;"/><text fill="#000000" font-family="sans-serif" font-size="14" lengthAdjust="spacingAndGlyphs" textLength="112" x="306.5" y="1675.9644">forbidden words</text><rect fill="#FEFECE" filter="url(#f1t2we1aoii7w4)" height="33.9688" rx="12.5" ry="12.5" style="stroke: #A80036; stroke-width: 1.5;" width="170" x="361" y="1795.0708"/><text fill="#000000" font-family="sans-serif" font-size="12" lengthAdjust="spacingAndGlyphs" textLength="150" x="371" y="1816.2095">add SPELL_WARN to info</text><polygon fill="#FEFECE" filter="url(#f1t2we1aoii7w4)" points="350.5,1849.0396,541.5,1849.0396,553.5,1861.0396,541.5,1873.0396,350.5,1873.0396,338.5,1861.0396,350.5,1849.0396" style="stroke: #A80036; stroke-width: 1.5;"/><text fill="#000000" font-family="sans-serif" font-size="11" lengthAdjust="spacingAndGlyphs" textLength="14" x="450" y="1883.25">no</text><text fill="#000000" font-family="sans-serif" font-size="11" lengthAdjust="spacingAndGlyphs" textLength="191" x="350.5" y="1864.8477">generic setting forbids warnings?</text><text fill="#000000" font-family="sans-serif" font-size="11" lengthAdjust="spacingAndGlyphs" textLength="20" x="553.5" y="1858.4453">yes</text><ellipse cx="593.5" cy="1861.0396" fill="none" filter="url(#f1t2we1aoii7w4)" rx="10" ry="10" style="stroke: #000000; stroke-width: 1.0;"/><ellipse cx="594" cy="1861.5396" fill="#000000" filter="url(#f1t2we1aoii7w4)" rx="6" ry="6" style="stroke: none; stroke-width: 1.0;"/><rect fill="#FEFECE" filter="url(#f1t2we1aoii7w4)" height="33.9688" rx="12.5" ry="12.5" style="stroke: #A80036; stroke-width: 1.5;" width="95" x="398.5" y="1924.75"/><text fill="#000000" font-family="sans-serif" font-size="12" lengthAdjust="spacingAndGlyphs" textLength="75" x="408.5" y="1945.8887">return TRUE</text><ellipse cx="446" cy="1988.7188" fill="none" filter="url(#f1t2we1aoii7w4)" rx="10" ry="10" style="stroke: #000000; stroke-width: 1.0;"/><ellipse cx="446.5" cy="1989.2188" fill="#000000" filter="url(#f1t2we1aoii7w4)" rx="6" ry="6" style="stroke: none; stroke-width: 1.0;"/><polygon fill="#FEFECE" filter="url(#f1t2we1aoii7w4)" points="335.5,1746.6685,556.5,1746.6685,568.5,1758.6685,556.5,1770.6685,335.5,1770.6685,323.5,1758.6685,335.5,1746.6685" style="stroke: #A80036; stroke-width: 1.5;"/><text fill="#000000" font-family="sans-serif" font-size="11" lengthAdjust="spacingAndGlyphs" textLength="20" x="450" y="1780.8789">yes</text><text fill="#000000" font-family="sans-serif" font-size="11" lengthAdjust="spacingAndGlyphs" textLength="221" x="335.5" y="1762.4766">warning flag is present in root's flags?</text><text fill="#000000" font-family="sans-serif" font-size="11" lengthAdjust="spacingAndGlyphs" textLength="14" x="568.5" y="1756.0742">no</text><rect fill="#FEFECE" filter="url(#f1t2we1aoii7w4)" height="33.9688" rx="12.5" ry="12.5" style="stroke: #A80036; stroke-width: 1.5;" width="95" x="398.5" y="2040.7188"/><text fill="#000000" font-family="sans-serif" font-size="12" lengthAdjust="spacingAndGlyphs" textLength="75" x="408.5" y="2061.8574">return TRUE</text><ellipse cx="446" cy="2104.6875" fill="none" filter="url(#f1t2we1aoii7w4)" rx="10" ry="10" style="stroke: #000000; stroke-width: 1.0;"/><ellipse cx="446.5" cy="2105.1875" fill="#000000" filter="url(#f1t2we1aoii7w4)" rx="6" ry="6" style="stroke: none; stroke-width: 1.0;"/><polygon fill="#FEFECE" filter="url(#f1t2we1aoii7w4)" points="431.5,1698.2661,460.5,1698.2661,472.5,1710.2661,460.5,1722.2661,431.5,1722.2661,419.5,1710.2661,431.5,1698.2661" style="stroke: #A80036; stroke-width: 1.5;"/><text fill="#000000" font-family="sans-serif" font-size="11" lengthAdjust="spacingAndGlyphs" textLength="20" x="450" y="1732.4766">yes</text><text fill="#000000" font-family="sans-serif" font-size="11" lengthAdjust="spacingAndGlyphs" textLength="29" x="431.5" y="1714.0742">root?</text><text fill="#000000" font-family="sans-serif" font-size="11" lengthAdjust="spacingAndGlyphs" textLength="14" x="472.5" y="1707.6719">no</text><rect fill="#FFFFFF" filter="url(#f1t2we1aoii7w4)" height="96.2344" style="stroke: #000000; stroke-width: 2.0;" width="254" x="319" y="2159.4893"/><path d="M563,2160.4893 L563,2168.7861 L553,2178.7861 L319,2178.7861 " fill="none" style="stroke: #000000; stroke-width: 2.0;"/><text fill="#000000" font-family="sans-serif" font-size="14" lengthAdjust="spacingAndGlyphs" textLength="234" x="322" y="2173.4844">recursive breaking at break points</text><rect fill="#87CEEB" filter="url(#f1t2we1aoii7w4)" height="47.9375" rx="12.5" ry="12.5" style="stroke: #A80036; stroke-width: 1.5;" width="147" x="372.5" y="2195.7861"/><text fill="#000000" font-family="sans-serif" font-size="12" lengthAdjust="spacingAndGlyphs" textLength="103" x="382.5" y="2216.9248">Check Spelling B</text><text fill="#000000" font-family="sans-serif" font-size="12" lengthAdjust="spacingAndGlyphs" textLength="127" x="382.5" y="2230.8936">recurse breakpoints</text><ellipse cx="446" cy="2285.7236" fill="none" filter="url(#f1t2we1aoii7w4)" rx="10" ry="10" style="stroke: #000000; stroke-width: 1.0;"/><ellipse cx="446.5" cy="2286.2236" fill="#000000" filter="url(#f1t2we1aoii7w4)" rx="6" ry="6" style="stroke: none; stroke-width: 1.0;"/><line style="stroke: #A80036; stroke-width: 1.5;" x1="446" x2="446" y1="181.1533" y2="251.9624"/><polygon fill="#A80036" points="442,241.9624,446,251.9624,450,241.9624,446,245.9624" style="stroke: #A80036; stroke-width: 1.0;"/><line style="stroke: #A80036; stroke-width: 1.5;" x1="550" x2="580" y1="169.1533" y2="169.1533"/><polygon fill="#A80036" points="570,165.1533,580,169.1533,570,173.1533,574,169.1533" style="stroke: #A80036; stroke-width: 1.0;"/><line style="stroke: #A80036; stroke-width: 1.5;" x1="446" x2="446" y1="137.1533" y2="157.1533"/><polygon fill="#A80036" points="442,147.1533,446,157.1533,450,147.1533,446,151.1533" style="stroke: #A80036; stroke-width: 1.0;"/><line style="stroke: #A80036; stroke-width: 1.5;" x1="446" x2="446" y1="53.5195" y2="103.1846"/><polygon fill="#A80036" points="442,93.1846,446,103.1846,450,93.1846,446,97.1846" style="stroke: #A80036; stroke-width: 1.0;"/><line style="stroke: #A80036; stroke-width: 1.5;" x1="446" x2="446" y1="275.9624" y2="300.3647"/><polygon fill="#A80036" points="442,290.3647,446,300.3647,450,290.3647,446,294.3647" style="stroke: #A80036; stroke-width: 1.0;"/><line style="stroke: #A80036; stroke-width: 1.5;" x1="535" x2="571.5" y1="263.9624" y2="263.9624"/><polygon fill="#A80036" points="567.5,307.3491,571.5,317.3491,575.5,307.3491,571.5,311.3491" style="stroke: #A80036; stroke-width: 1.5;"/><line style="stroke: #A80036; stroke-width: 1.5;" x1="571.5" x2="571.5" y1="263.9624" y2="366.3335"/><line style="stroke: #A80036; stroke-width: 1.5;" x1="571.5" x2="458" y1="366.3335" y2="366.3335"/><polygon fill="#A80036" points="468,362.3335,458,366.3335,468,370.3335,464,366.3335" style="stroke: #A80036; stroke-width: 1.0;"/><line style="stroke: #A80036; stroke-width: 1.5;" x1="446" x2="446" y1="334.3335" y2="354.3335"/><polygon fill="#A80036" points="442,344.3335,446,354.3335,450,344.3335,446,348.3335" style="stroke: #A80036; stroke-width: 1.0;"/><line style="stroke: #A80036; stroke-width: 1.5;" x1="342" x2="325.75" y1="410.3335" y2="410.3335"/><line style="stroke: #A80036; stroke-width: 1.5;" x1="325.75" x2="325.75" y1="410.3335" y2="432.3335"/><polygon fill="#A80036" points="321.75,422.3335,325.75,432.3335,329.75,422.3335,325.75,426.3335" style="stroke: #A80036; stroke-width: 1.0;"/><line style="stroke: #A80036; stroke-width: 1.5;" x1="550" x2="566.25" y1="410.3335" y2="410.3335"/><line style="stroke: #A80036; stroke-width: 1.5;" x1="566.25" x2="566.25" y1="410.3335" y2="432.3335"/><polygon fill="#A80036" points="562.25,422.3335,566.25,432.3335,570.25,422.3335,566.25,426.3335" style="stroke: #A80036; stroke-width: 1.0;"/><line style="stroke: #A80036; stroke-width: 1.5;" x1="325.75" x2="325.75" y1="522.1772" y2="540.1772"/><line style="stroke: #A80036; stroke-width: 1.5;" x1="325.75" x2="434" y1="540.1772" y2="540.1772"/><polygon fill="#A80036" points="424,536.1772,434,540.1772,424,544.1772,428,540.1772" style="stroke: #A80036; stroke-width: 1.0;"/><line style="stroke: #A80036; stroke-width: 1.5;" x1="566.25" x2="566.25" y1="522.1772" y2="540.1772"/><line style="stroke: #A80036; stroke-width: 1.5;" x1="566.25" x2="458" y1="540.1772" y2="540.1772"/><polygon fill="#A80036" points="468,536.1772,458,540.1772,468,544.1772,464,540.1772" style="stroke: #A80036; stroke-width: 1.0;"/><line style="stroke: #A80036; stroke-width: 1.5;" x1="446" x2="446" y1="378.3335" y2="398.3335"/><polygon fill="#A80036" points="442,388.3335,446,398.3335,450,388.3335,446,392.3335" style="stroke: #A80036; stroke-width: 1.0;"/><line style="stroke: #A80036; stroke-width: 1.5;" x1="446" x2="446" y1="596.1772" y2="620.5796"/><polygon fill="#A80036" points="442,610.5796,446,620.5796,450,610.5796,446,614.5796" style="stroke: #A80036; stroke-width: 1.0;"/><line style="stroke: #A80036; stroke-width: 1.5;" x1="500.5" x2="551.5" y1="584.1772" y2="584.1772"/><polygon fill="#A80036" points="547.5,627.564,551.5,637.564,555.5,627.564,551.5,631.564" style="stroke: #A80036; stroke-width: 1.5;"/><line style="stroke: #A80036; stroke-width: 1.5;" x1="551.5" x2="551.5" y1="584.1772" y2="686.5483"/><line style="stroke: #A80036; stroke-width: 1.5;" x1="551.5" x2="458" y1="686.5483" y2="686.5483"/><polygon fill="#A80036" points="468,682.5483,458,686.5483,468,690.5483,464,686.5483" style="stroke: #A80036; stroke-width: 1.0;"/><line style="stroke: #A80036; stroke-width: 1.5;" x1="446" x2="446" y1="654.5483" y2="674.5483"/><polygon fill="#A80036" points="442,664.5483,446,674.5483,450,664.5483,446,668.5483" style="stroke: #A80036; stroke-width: 1.0;"/><line style="stroke: #A80036; stroke-width: 1.5;" x1="446" x2="446" y1="552.1772" y2="572.1772"/><polygon fill="#A80036" points="442,562.1772,446,572.1772,450,562.1772,446,566.1772" style="stroke: #A80036; stroke-width: 1.0;"/><line style="stroke: #A80036; stroke-width: 1.5;" x1="446" x2="446" y1="800.9194" y2="828.4351"/><polygon fill="#A80036" points="442,818.4351,446,828.4351,450,818.4351,446,822.4351" style="stroke: #A80036; stroke-width: 1.0;"/><line style="stroke: #A80036; stroke-width: 1.5;" x1="446" x2="446" y1="742.5483" y2="766.9507"/><polygon fill="#A80036" points="442,756.9507,446,766.9507,450,756.9507,446,760.9507" style="stroke: #A80036; stroke-width: 1.0;"/><line style="stroke: #A80036; stroke-width: 1.5;" x1="611" x2="623" y1="730.5483" y2="730.5483"/><polygon fill="#A80036" points="619,798.4351,623,808.4351,627,798.4351,623,802.4351" style="stroke: #A80036; stroke-width: 1.5;"/><line style="stroke: #A80036; stroke-width: 1.5;" x1="623" x2="623" y1="730.5483" y2="870.4351"/><line style="stroke: #A80036; stroke-width: 1.5;" x1="623" x2="446" y1="870.4351" y2="870.4351"/><line style="stroke: #A80036; stroke-width: 1.5;" x1="446" x2="446" y1="870.4351" y2="890.4351"/><polygon fill="#A80036" points="442,880.4351,446,890.4351,450,880.4351,446,884.4351" style="stroke: #A80036; stroke-width: 1.0;"/><line style="stroke: #A80036; stroke-width: 1.5;" x1="446" x2="446" y1="698.5483" y2="718.5483"/><polygon fill="#A80036" points="442,708.5483,446,718.5483,450,708.5483,446,712.5483" style="stroke: #A80036; stroke-width: 1.0;"/><line style="stroke: #A80036; stroke-width: 1.5;" x1="446" x2="446" y1="1119.8423" y2="1147.3579"/><polygon fill="#A80036" points="442,1137.3579,446,1147.3579,450,1137.3579,446,1141.3579" style="stroke: #A80036; stroke-width: 1.0;"/><line style="stroke: #A80036; stroke-width: 1.5;" x1="446" x2="446" y1="1061.4712" y2="1085.8735"/><polygon fill="#A80036" points="442,1075.8735,446,1085.8735,450,1075.8735,446,1079.8735" style="stroke: #A80036; stroke-width: 1.0;"/><line style="stroke: #A80036; stroke-width: 1.5;" x1="535.5" x2="547.5" y1="1049.4712" y2="1049.4712"/><polygon fill="#A80036" points="543.5,1117.3579,547.5,1127.3579,551.5,1117.3579,547.5,1121.3579" style="stroke: #A80036; stroke-width: 1.5;"/><line style="stroke: #A80036; stroke-width: 1.5;" x1="547.5" x2="547.5" y1="1049.4712" y2="1189.3579"/><line style="stroke: #A80036; stroke-width: 1.5;" x1="547.5" x2="446" y1="1189.3579" y2="1189.3579"/><line style="stroke: #A80036; stroke-width: 1.5;" x1="446" x2="446" y1="1189.3579" y2="1248.4565"/><polygon fill="#A80036" points="442,1238.4565,446,1248.4565,450,1238.4565,446,1242.4565" style="stroke: #A80036; stroke-width: 1.0;"/><line style="stroke: #A80036; stroke-width: 1.5;" x1="446" x2="446" y1="1017.4712" y2="1037.4712"/><polygon fill="#A80036" points="442,1027.4712,446,1037.4712,450,1027.4712,446,1031.4712" style="stroke: #A80036; stroke-width: 1.0;"/><line style="stroke: #A80036; stroke-width: 1.5;" x1="446" x2="446" y1="924.4038" y2="983.5024"/><polygon fill="#A80036" points="442,973.5024,446,983.5024,450,973.5024,446,977.5024" style="stroke: #A80036; stroke-width: 1.0;"/><line style="stroke: #A80036; stroke-width: 1.5;" x1="254.5" x2="254.5" y1="1306.4565" y2="1330.8589"/><polygon fill="#A80036" points="250.5,1320.8589,254.5,1330.8589,258.5,1320.8589,254.5,1324.8589" style="stroke: #A80036; stroke-width: 1.0;"/><line style="stroke: #A80036; stroke-width: 1.5;" x1="379" x2="391" y1="1294.4565" y2="1294.4565"/><polygon fill="#A80036" points="387,1337.8433,391,1347.8433,395,1337.8433,391,1341.8433" style="stroke: #A80036; stroke-width: 1.5;"/><line style="stroke: #A80036; stroke-width: 1.5;" x1="391" x2="391" y1="1294.4565" y2="1396.8276"/><line style="stroke: #A80036; stroke-width: 1.5;" x1="391" x2="266.5" y1="1396.8276" y2="1396.8276"/><polygon fill="#A80036" points="276.5,1392.8276,266.5,1396.8276,276.5,1400.8276,272.5,1396.8276" style="stroke: #A80036; stroke-width: 1.0;"/><line style="stroke: #A80036; stroke-width: 1.5;" x1="254.5" x2="254.5" y1="1364.8276" y2="1384.8276"/><polygon fill="#A80036" points="250.5,1374.8276,254.5,1384.8276,258.5,1374.8276,254.5,1378.8276" style="stroke: #A80036; stroke-width: 1.0;"/><line style="stroke: #A80036; stroke-width: 1.5;" x1="254.5" x2="254.5" y1="1408.8276" y2="1428.8276"/><polygon fill="#A80036" points="250.5,1418.8276,254.5,1428.8276,258.5,1418.8276,254.5,1422.8276" style="stroke: #A80036; stroke-width: 1.0;"/><line style="stroke: #A80036; stroke-width: 1.5;" x1="254.5" x2="254.5" y1="1506.7964" y2="1531.1987"/><polygon fill="#A80036" points="250.5,1521.1987,254.5,1531.1987,258.5,1521.1987,254.5,1525.1987" style="stroke: #A80036; stroke-width: 1.0;"/><line style="stroke: #A80036; stroke-width: 1.5;" x1="331" x2="479" y1="1494.7964" y2="1494.7964"/><polygon fill="#A80036" points="475,1538.1831,479,1548.1831,483,1538.1831,479,1542.1831" style="stroke: #A80036; stroke-width: 1.5;"/><line style="stroke: #A80036; stroke-width: 1.5;" x1="479" x2="479" y1="1494.7964" y2="1597.1675"/><line style="stroke: #A80036; stroke-width: 1.5;" x1="479" x2="266.5" y1="1597.1675" y2="1597.1675"/><polygon fill="#A80036" points="276.5,1593.1675,266.5,1597.1675,276.5,1601.1675,272.5,1597.1675" style="stroke: #A80036; stroke-width: 1.0;"/><line style="stroke: #A80036; stroke-width: 1.5;" x1="254.5" x2="254.5" y1="1565.1675" y2="1585.1675"/><polygon fill="#A80036" points="250.5,1575.1675,254.5,1585.1675,258.5,1575.1675,254.5,1579.1675" style="stroke: #A80036; stroke-width: 1.0;"/><line style="stroke: #A80036; stroke-width: 1.5;" x1="254.5" x2="254.5" y1="1462.7964" y2="1482.7964"/><polygon fill="#A80036" points="250.5,1472.7964,254.5,1482.7964,258.5,1472.7964,254.5,1476.7964" style="stroke: #A80036; stroke-width: 1.0;"/><line style="stroke: #A80036; stroke-width: 1.5;" x1="264.5" x2="254.5" y1="1260.4565" y2="1260.4565"/><line style="stroke: #A80036; stroke-width: 1.5;" x1="254.5" x2="254.5" y1="1260.4565" y2="1282.4565"/><polygon fill="#A80036" points="250.5,1272.4565,254.5,1282.4565,258.5,1272.4565,254.5,1276.4565" style="stroke: #A80036; stroke-width: 1.0;"/><line style="stroke: #A80036; stroke-width: 1.5;" x1="627.5" x2="637.5" y1="1260.4565" y2="1260.4565"/><line style="stroke: #A80036; stroke-width: 1.5;" x1="637.5" x2="637.5" y1="1260.4565" y2="1282.4565"/><polygon fill="#A80036" points="633.5,1272.4565,637.5,1282.4565,641.5,1272.4565,637.5,1276.4565" style="stroke: #A80036; stroke-width: 1.0;"/><line style="stroke: #A80036; stroke-width: 1.5;" x1="254.5" x2="254.5" y1="1609.1675" y2="1627.1675"/><line style="stroke: #A80036; stroke-width: 1.5;" x1="254.5" x2="434" y1="1627.1675" y2="1627.1675"/><polygon fill="#A80036" points="424,1623.1675,434,1627.1675,424,1631.1675,428,1627.1675" style="stroke: #A80036; stroke-width: 1.0;"/><line style="stroke: #A80036; stroke-width: 1.5;" x1="637.5" x2="637.5" y1="1330.394" y2="1627.1675"/><line style="stroke: #A80036; stroke-width: 1.5;" x1="637.5" x2="458" y1="1627.1675" y2="1627.1675"/><polygon fill="#A80036" points="468,1623.1675,458,1627.1675,468,1631.1675,464,1627.1675" style="stroke: #A80036; stroke-width: 1.0;"/><line style="stroke: #A80036; stroke-width: 1.5;" x1="446" x2="446" y1="1873.0396" y2="1924.75"/><polygon fill="#A80036" points="442,1914.75,446,1924.75,450,1914.75,446,1918.75" style="stroke: #A80036; stroke-width: 1.0;"/><line style="stroke: #A80036; stroke-width: 1.5;" x1="553.5" x2="583.5" y1="1861.0396" y2="1861.0396"/><polygon fill="#A80036" points="573.5,1857.0396,583.5,1861.0396,573.5,1865.0396,577.5,1861.0396" style="stroke: #A80036; stroke-width: 1.0;"/><line style="stroke: #A80036; stroke-width: 1.5;" x1="446" x2="446" y1="1829.0396" y2="1849.0396"/><polygon fill="#A80036" points="442,1839.0396,446,1849.0396,450,1839.0396,446,1843.0396" style="stroke: #A80036; stroke-width: 1.0;"/><line style="stroke: #A80036; stroke-width: 1.5;" x1="446" x2="446" y1="1958.7188" y2="1978.7188"/><polygon fill="#A80036" points="442,1968.7188,446,1978.7188,450,1968.7188,446,1972.7188" style="stroke: #A80036; stroke-width: 1.0;"/><line style="stroke: #A80036; stroke-width: 1.5;" x1="446" x2="446" y1="1770.6685" y2="1795.0708"/><polygon fill="#A80036" points="442,1785.0708,446,1795.0708,450,1785.0708,446,1789.0708" style="stroke: #A80036; stroke-width: 1.0;"/><line style="stroke: #A80036; stroke-width: 1.5;" x1="568.5" x2="625.5" y1="1758.6685" y2="1758.6685"/><polygon fill="#A80036" points="621.5,1894.75,625.5,1904.75,629.5,1894.75,625.5,1898.75" style="stroke: #A80036; stroke-width: 1.5;"/><line style="stroke: #A80036; stroke-width: 1.5;" x1="625.5" x2="625.5" y1="1758.6685" y2="2020.7188"/><line style="stroke: #A80036; stroke-width: 1.5;" x1="625.5" x2="446" y1="2020.7188" y2="2020.7188"/><line style="stroke: #A80036; stroke-width: 1.5;" x1="446" x2="446" y1="2020.7188" y2="2040.7188"/><polygon fill="#A80036" points="442,2030.7188,446,2040.7188,450,2030.7188,446,2034.7188" style="stroke: #A80036; stroke-width: 1.0;"/><line style="stroke: #A80036; stroke-width: 1.5;" x1="446" x2="446" y1="2074.6875" y2="2094.6875"/><polygon fill="#A80036" points="442,2084.6875,446,2094.6875,450,2084.6875,446,2088.6875" style="stroke: #A80036; stroke-width: 1.0;"/><line style="stroke: #A80036; stroke-width: 1.5;" x1="446" x2="446" y1="1722.2661" y2="1746.6685"/><polygon fill="#A80036" points="442,1736.6685,446,1746.6685,450,1736.6685,446,1740.6685" style="stroke: #A80036; stroke-width: 1.0;"/><line style="stroke: #A80036; stroke-width: 1.5;" x1="472.5" x2="647.5" y1="1710.2661" y2="1710.2661"/><polygon fill="#A80036" points="643.5,1920.832,647.5,1930.832,651.5,1920.832,647.5,1924.832" style="stroke: #A80036; stroke-width: 1.5;"/><line style="stroke: #A80036; stroke-width: 1.5;" x1="647.5" x2="647.5" y1="1710.2661" y2="2136.6875"/><line style="stroke: #A80036; stroke-width: 1.5;" x1="647.5" x2="446" y1="2136.6875" y2="2136.6875"/><line style="stroke: #A80036; stroke-width: 1.5;" x1="446" x2="446" y1="2136.6875" y2="2195.7861"/><polygon fill="#A80036" points="442,2185.7861,446,2195.7861,450,2185.7861,446,2189.7861" style="stroke: #A80036; stroke-width: 1.0;"/><line style="stroke: #A80036; stroke-width: 1.5;" x1="446" x2="446" y1="1639.1675" y2="1698.2661"/><polygon fill="#A80036" points="442,1688.2661,446,1698.2661,450,1688.2661,446,1692.2661" style="stroke: #A80036; stroke-width: 1.0;"/><line style="stroke: #A80036; stroke-width: 1.5;" x1="446" x2="446" y1="2243.7236" y2="2275.7236"/><polygon fill="#A80036" points="442,2265.7236,446,2275.7236,450,2265.7236,446,2269.7236" style="stroke: #A80036; stroke-width: 1.0;"/><!--
@startuml
skinparam backgroundcolor White|White

title Hunspell - Check Spelling - bool spell(word, info, root)

start
floating note: Return FALSE is implied.

partition "initialazition" {
	:reset I/O parameter info;
	if (word length exceeds maximum?) then (yes)
		stop
	else (no)
	endif
}

partition "input conversion" {
	if (input conversion available?) then (yes)
		:perform input conversion on word;
	else (no)
	endif
	if (input conversion changed word?) then (yes)
		:clean converted word and store:\n- cleaned word length\n- cleaned word\n- capitalization type "captype"\n- abbreviation count "abbv";
	else (no)
		:clean (original) word and store:\n- cleaned word length\n- cleaned word\n- capitalization type "captype"\n- abbreviation count "abbv";
	endif

	if (client is Mozilla) then (yes)
		:set abbreviation count to 1;
	else (no)
	endif

	if (cleaned word length is 0 OR hash manager is empty?) then (yes)
		:return TRUE;
		stop
	else (no)
	endif
	:reset root;
}

partition "numbers and numeric separators" {
	:determine number state for cleaned word;
	if (cleaned word is a number?) then (yes)
		:return TRUE;
		stop
	else (no)
	endif
}

partition "capitalization type" {
	if (captype is camel case, pascal case OR lower/neutral case?) then(yes)
		if (captype is camel case OR pascal case?) then(yes)
			:add SPELL_ORIGCAP to info;
		else (no)
		endif
		#skyblue:root = check_word(cleaned word, info, root);
		if (abbv > 0 AND no root?) then (yes)
			#skyblue:root = check_word(cleaned word period added at end, info, root);
		else (no)
		endif
	else (no)
		#skyblue:Check Spelling A\nspell upper or capitalized;
	endif
}

partition "forbidden words" {
	if (root?) then (yes)
		if (warning flag is present in root's flags?) then (yes)
			:add SPELL_WARN to info;
			if (generic setting forbids warnings?) then (yes)
				stop
			else (no)
			endif
			:return TRUE;
			stop
		else (no)
		endif
		:return TRUE;
		stop
	else (no)
	endif
}

partition "recursive breaking at break points" {
	#skyblue:Check Spelling B\nrecurse breakpoints;
}

stop

@enduml

PlantUML version 1.2018.12beta1(Unknown compile time)
(GPL source distribution)
Java Runtime: OpenJDK Runtime Environment
JVM: OpenJDK 64-Bit Server VM
Java Version: 10.0.2+13-Ubuntu-1ubuntu0.18.04.2
Operating System: Linux
OS Version: 4.15.0-34-generic
Default Encoding: UTF-8
Language: en
Country: US
--></g></svg>