<?xml version="1.0" encoding="UTF-8" standalone="no"?><svg xmlns="http://www.w3.org/2000/svg" xmlns:xlink="http://www.w3.org/1999/xlink" contentScriptType="application/ecmascript" contentStyleType="text/css" height="1328px" preserveAspectRatio="none" style="width:538px;height:1328px;" version="1.1" viewBox="0 0 538 1328" width="538px" zoomAndPan="magnify"><defs><linearGradient id="g12x7l07jxtdvu0" x1="0%" x2="100%" y1="50%" y2="50%"><stop offset="0%" stop-color="#FFFFFF"/><stop offset="100%" stop-color="#FFFFFF"/></linearGradient><filter height="300%" id="f12x7l07jxtdvu" width="300%" x="-1" y="-1"><feGaussianBlur result="blurOut" stdDeviation="2.0"/><feColorMatrix in="blurOut" result="blurOut2" type="matrix" values="0 0 0 0 0 0 0 0 0 0 0 0 0 0 0 0 0 0 .4 0"/><feOffset dx="4.0" dy="4.0" in="blurOut2" result="blurOut3"/><feBlend in="SourceGraphic" in2="blurOut3" mode="normal"/></filter><filter height="1" id="b12x7l07jxtdvu0" width="1" x="0" y="0"><feFlood flood-color="#87CEEB" result="flood"/><feComposite in="SourceGraphic" in2="flood" operator="over"/></filter></defs><g><rect fill="url(#g12x7l07jxtdvu0)" height="1328" style="stroke: none; stroke-width: 1.0;" width="538" x="0" y="0"/><text fill="#000000" font-family="Roboto Condensed" font-size="18" font-weight="bold" lengthAdjust="spacingAndGlyphs" textLength="200" x="56" y="26.6992">Nuspell - Check Spelling -</text><text fill="#000000" font-family="monospace" font-size="18" font-weight="bold" lengthAdjust="spacingAndGlyphs" textLength="220" x="260" y="26.8486">spell_priv(string s)</text><ellipse cx="268.5" cy="41.0938" fill="#000000" filter="url(#f12x7l07jxtdvu)" rx="10" ry="10" style="stroke: none; stroke-width: 1.0;"/><rect fill="#FFFFFF" filter="url(#f12x7l07jxtdvu)" height="34.0625" rx="12.5" ry="12.5" style="stroke: #000000; stroke-width: 1.5;" width="109" x="214" y="119.5391"/><text fill="#000000" font-family="Roboto Condensed" font-size="12" lengthAdjust="spacingAndGlyphs" textLength="30" x="224" y="140.6719">return</text><text fill="#000000" font-family="monospace" font-size="12" lengthAdjust="spacingAndGlyphs" text-decoration="underline" textLength="56" x="257" y="140.7715">BAD_WORD</text><line style="stroke: #000000; stroke-width: 1.0;" x1="257" x2="313" y1="142.7715" y2="142.7715"/><ellipse cx="268.5" cy="191.0703" fill="none" filter="url(#f12x7l07jxtdvu)" rx="10" ry="10" style="stroke: #000000; stroke-width: 1.0;"/><ellipse cx="269" cy="191.5703" fill="#000000" filter="url(#f12x7l07jxtdvu)" rx="6" ry="6" style="stroke: none; stroke-width: 1.0;"/><polygon fill="#FFFFFF" filter="url(#f12x7l07jxtdvu)" points="128,71.0938,409,71.0938,421,83.0938,409,95.0938,128,95.0938,116,83.0938,128,71.0938" style="stroke: #000000; stroke-width: 1.5;"/><text fill="#000000" font-family="Roboto Condensed" font-size="11" lengthAdjust="spacingAndGlyphs" textLength="17" x="272.5" y="105.2988">yes</text><text fill="#000000" font-family="Roboto Condensed" font-size="11" lengthAdjust="spacingAndGlyphs" textLength="30" x="128" y="86.8535">length</text><text fill="#000000" font-family="monospace" font-size="11" font-weight="bold" lengthAdjust="spacingAndGlyphs" textLength="7" x="161" y="86.9448">s</text><text fill="#000000" font-family="Roboto Condensed" font-size="11" lengthAdjust="spacingAndGlyphs" textLength="138" x="171" y="86.8535">is greater or equal to global</text><text fill="#000000" font-family="monospace" font-size="11" lengthAdjust="spacingAndGlyphs" text-decoration="underline" textLength="91" x="312" y="86.9448">WORDMAXLENGTH</text><line style="stroke: #000000; stroke-width: 1.0;" x1="312" x2="403" y1="88.9448" y2="88.9448"/><text fill="#000000" font-family="Roboto Condensed" font-size="11" lengthAdjust="spacingAndGlyphs" textLength="6" x="403" y="86.8535">?</text><text fill="#000000" font-family="Roboto Condensed" font-size="11" lengthAdjust="spacingAndGlyphs" textLength="13" x="421" y="80.4082">no</text><rect fill="#87CEEB" filter="url(#f12x7l07jxtdvu)" height="34.0625" rx="12.5" ry="12.5" style="stroke: #000000; stroke-width: 1.5;" width="185" x="176" y="243.0703"/><text fill="#000000" font-family="Roboto Condensed" font-size="12" lengthAdjust="spacingAndGlyphs" textLength="30" x="186" y="264.2031">do on</text><text fill="#000000" font-family="monospace" font-size="12" font-weight="bold" lengthAdjust="spacingAndGlyphs" textLength="7" x="219" y="264.3027">s</text><text fill="#000000" font-family="Roboto Condensed" font-size="12" lengthAdjust="spacingAndGlyphs" textLength="122" x="229" y="264.2031">global input conversion</text><rect fill="#FFFFFF" filter="url(#f12x7l07jxtdvu)" height="517.918" style="stroke: #000000; stroke-width: 2.0;" width="517" x="10" y="288.0508"/><path d="M222,289.0508 L222,297.457 L212,307.457 L10,307.457 " fill="none" style="stroke: #000000; stroke-width: 2.0;"/><text fill="#000000" font-family="Roboto Condensed" font-size="14" lengthAdjust="spacingAndGlyphs" textLength="196" x="13" y="302.0391">handle abbreviations and numbers</text><polygon fill="#FFFFFF" filter="url(#f12x7l07jxtdvu)" points="49.5,327.457,106.5,327.457,118.5,339.457,106.5,351.457,49.5,351.457,37.5,339.457,49.5,327.457" style="stroke: #000000; stroke-width: 1.5;"/><text fill="#000000" font-family="Roboto Condensed" font-size="11" lengthAdjust="spacingAndGlyphs" textLength="17" x="82" y="361.6621">yes</text><text fill="#000000" font-family="monospace" font-size="11" font-weight="bold" lengthAdjust="spacingAndGlyphs" textLength="7" x="49.5" y="343.3081">s</text><text fill="#000000" font-family="Roboto Condensed" font-size="11" lengthAdjust="spacingAndGlyphs" textLength="47" x="59.5" y="343.2168">is empty?</text><rect fill="#FFFFFF" filter="url(#f12x7l07jxtdvu)" height="34.0625" rx="12.5" ry="12.5" style="stroke: #000000; stroke-width: 1.5;" width="116" x="20" y="383.1621"/><text fill="#000000" font-family="Roboto Condensed" font-size="12" lengthAdjust="spacingAndGlyphs" textLength="30" x="30" y="404.2949">return</text><text fill="#000000" font-family="monospace" font-size="12" lengthAdjust="spacingAndGlyphs" text-decoration="underline" textLength="63" x="63" y="404.3945">GOOD_WORD</text><line style="stroke: #000000; stroke-width: 1.0;" x1="63" x2="126" y1="406.3945" y2="406.3945"/><ellipse cx="78" cy="462.2246" fill="none" filter="url(#f12x7l07jxtdvu)" rx="10" ry="10" style="stroke: #000000; stroke-width: 1.0;"/><ellipse cx="78.5" cy="462.7246" fill="#000000" filter="url(#f12x7l07jxtdvu)" rx="6" ry="6" style="stroke: none; stroke-width: 1.0;"/><polygon fill="#FFFFFF" filter="url(#f12x7l07jxtdvu)" points="186.5,327.457,292.5,327.457,304.5,339.457,292.5,351.457,186.5,351.457,174.5,339.457,186.5,327.457" style="stroke: #000000; stroke-width: 1.5;"/><text fill="#000000" font-family="Roboto Condensed" font-size="11" lengthAdjust="spacingAndGlyphs" textLength="17" x="243.5" y="361.6621">yes</text><text fill="#000000" font-family="Roboto Condensed" font-size="11" lengthAdjust="spacingAndGlyphs" textLength="68" x="186.5" y="343.2168">last character</text><text fill="#000000" font-family="monospace" font-size="11" font-weight="bold" lengthAdjust="spacingAndGlyphs" textLength="7" x="257.5" y="343.3081">s</text><text fill="#000000" font-family="Roboto Condensed" font-size="11" lengthAdjust="spacingAndGlyphs" textLength="9" x="267.5" y="343.2168">is</text><text fill="#000000" font-family="monospace" font-size="11" lengthAdjust="spacingAndGlyphs" text-decoration="underline" textLength="7" x="279.5" y="343.3081">.</text><line style="stroke: #000000; stroke-width: 1.0;" x1="279.5" x2="286.5" y1="345.3081" y2="345.3081"/><text fill="#000000" font-family="Roboto Condensed" font-size="11" lengthAdjust="spacingAndGlyphs" textLength="6" x="286.5" y="343.2168">?</text><text fill="#000000" font-family="Roboto Condensed" font-size="11" lengthAdjust="spacingAndGlyphs" textLength="13" x="304.5" y="336.7715">no</text><rect fill="#FFFFFF" filter="url(#f12x7l07jxtdvu)" height="34.0625" rx="12.5" ry="12.5" style="stroke: #000000; stroke-width: 1.5;" width="167" x="156" y="383.1621"/><text fill="#000000" font-family="Roboto Condensed" font-size="12" lengthAdjust="spacingAndGlyphs" textLength="16" x="166" y="404.2949">set</text><text fill="#000000" font-family="monospace" font-size="12" font-weight="bold" lengthAdjust="spacingAndGlyphs" textLength="84" x="185" y="404.3945">abbreviation</text><text fill="#000000" font-family="Roboto Condensed" font-size="12" lengthAdjust="spacingAndGlyphs" textLength="10" x="272" y="404.2949">to</text><text fill="#000000" font-family="monospace" font-size="12" lengthAdjust="spacingAndGlyphs" text-decoration="underline" textLength="28" x="285" y="404.3945">TRUE</text><line style="stroke: #000000; stroke-width: 1.0;" x1="285" x2="313" y1="406.3945" y2="406.3945"/><rect fill="#FFFFFF" filter="url(#f12x7l07jxtdvu)" height="34.0625" rx="12.5" ry="12.5" style="stroke: #000000; stroke-width: 1.5;" width="174" x="343" y="407.2168"/><text fill="#000000" font-family="Roboto Condensed" font-size="12" lengthAdjust="spacingAndGlyphs" textLength="16" x="353" y="428.3496">set</text><text fill="#000000" font-family="monospace" font-size="12" font-weight="bold" lengthAdjust="spacingAndGlyphs" textLength="84" x="372" y="428.4492">abbreviation</text><text fill="#000000" font-family="Roboto Condensed" font-size="12" lengthAdjust="spacingAndGlyphs" textLength="10" x="459" y="428.3496">to</text><text fill="#000000" font-family="monospace" font-size="12" lengthAdjust="spacingAndGlyphs" text-decoration="underline" textLength="35" x="472" y="428.4492">FALSE</text><line style="stroke: #000000; stroke-width: 1.0;" x1="472" x2="507" y1="430.4492" y2="430.4492"/><polygon fill="#FFFFFF" filter="url(#f12x7l07jxtdvu)" points="88.5,512.2246,221.5,512.2246,233.5,524.2246,221.5,536.2246,88.5,536.2246,76.5,524.2246,88.5,512.2246" style="stroke: #000000; stroke-width: 1.5;"/><text fill="#000000" font-family="Roboto Condensed" font-size="11" lengthAdjust="spacingAndGlyphs" textLength="17" x="159" y="546.4297">yes</text><text fill="#000000" font-family="monospace" font-size="11" font-weight="bold" lengthAdjust="spacingAndGlyphs" textLength="84" x="88.5" y="528.0757">abbreviation</text><text fill="#000000" font-family="Roboto Condensed" font-size="11" lengthAdjust="spacingAndGlyphs" textLength="9" x="175.5" y="527.9844">is</text><text fill="#000000" font-family="monospace" font-size="11" lengthAdjust="spacingAndGlyphs" text-decoration="underline" textLength="28" x="187.5" y="528.0757">TRUE</text><line style="stroke: #000000; stroke-width: 1.0;" x1="187.5" x2="215.5" y1="530.0757" y2="530.0757"/><text fill="#000000" font-family="Roboto Condensed" font-size="11" lengthAdjust="spacingAndGlyphs" textLength="6" x="215.5" y="527.9844">?</text><rect fill="#FFFFFF" filter="url(#f12x7l07jxtdvu)" height="34.0625" rx="12.5" ry="12.5" style="stroke: #000000; stroke-width: 1.5;" width="203" x="53.5" y="567.9297"/><text fill="#000000" font-family="Roboto Condensed" font-size="12" lengthAdjust="spacingAndGlyphs" textLength="66" x="63.5" y="589.0625">remove from</text><text fill="#000000" font-family="monospace" font-size="12" font-weight="bold" lengthAdjust="spacingAndGlyphs" textLength="7" x="132.5" y="589.1621">s</text><text fill="#000000" font-family="Roboto Condensed" font-size="12" lengthAdjust="spacingAndGlyphs" textLength="94" x="142.5" y="589.0625">trailing characters</text><text fill="#000000" font-family="monospace" font-size="12" lengthAdjust="spacingAndGlyphs" text-decoration="underline" textLength="7" x="239.5" y="589.1621">.</text><line style="stroke: #000000; stroke-width: 1.0;" x1="239.5" x2="246.5" y1="591.1621" y2="591.1621"/><rect fill="#FFFFFF" filter="url(#f12x7l07jxtdvu)" height="34.0625" rx="12.5" ry="12.5" style="stroke: #000000; stroke-width: 1.5;" width="116" x="97" y="670.4375"/><text fill="#000000" font-family="Roboto Condensed" font-size="12" lengthAdjust="spacingAndGlyphs" textLength="30" x="107" y="691.5703">return</text><text fill="#000000" font-family="monospace" font-size="12" lengthAdjust="spacingAndGlyphs" text-decoration="underline" textLength="63" x="140" y="691.6699">GOOD_WORD</text><line style="stroke: #000000; stroke-width: 1.0;" x1="140" x2="203" y1="693.6699" y2="693.6699"/><ellipse cx="155" cy="741.9688" fill="none" filter="url(#f12x7l07jxtdvu)" rx="10" ry="10" style="stroke: #000000; stroke-width: 1.0;"/><ellipse cx="155.5" cy="742.4688" fill="#000000" filter="url(#f12x7l07jxtdvu)" rx="6" ry="6" style="stroke: none; stroke-width: 1.0;"/><polygon fill="#FFFFFF" filter="url(#f12x7l07jxtdvu)" points="126.5,621.9922,183.5,621.9922,195.5,633.9922,183.5,645.9922,126.5,645.9922,114.5,633.9922,126.5,621.9922" style="stroke: #000000; stroke-width: 1.5;"/><text fill="#000000" font-family="Roboto Condensed" font-size="11" lengthAdjust="spacingAndGlyphs" textLength="17" x="159" y="656.1973">yes</text><text fill="#000000" font-family="monospace" font-size="11" font-weight="bold" lengthAdjust="spacingAndGlyphs" textLength="7" x="126.5" y="637.8433">s</text><text fill="#000000" font-family="Roboto Condensed" font-size="11" lengthAdjust="spacingAndGlyphs" textLength="47" x="136.5" y="637.752">is empty?</text><text fill="#000000" font-family="Roboto Condensed" font-size="11" lengthAdjust="spacingAndGlyphs" textLength="13" x="195.5" y="631.3066">no</text><polygon fill="#FFFFFF" filter="url(#f12x7l07jxtdvu)" points="288.5,512.2246,421.5,512.2246,433.5,524.2246,421.5,536.2246,288.5,536.2246,276.5,524.2246,288.5,512.2246" style="stroke: #000000; stroke-width: 1.5;"/><text fill="#000000" font-family="Roboto Condensed" font-size="11" lengthAdjust="spacingAndGlyphs" textLength="17" x="359" y="546.4297">yes</text><text fill="#000000" filter="url(#b12x7l07jxtdvu0)" font-family="monospace" font-size="11" font-style="italic" lengthAdjust="spacingAndGlyphs" textLength="84" x="288.5" y="528.0757">is_number(s)</text><text fill="#000000" font-family="Roboto Condensed" font-size="11" lengthAdjust="spacingAndGlyphs" textLength="9" x="375.5" y="527.9844">is</text><text fill="#000000" font-family="monospace" font-size="11" lengthAdjust="spacingAndGlyphs" text-decoration="underline" textLength="28" x="387.5" y="528.0757">TRUE</text><line style="stroke: #000000; stroke-width: 1.0;" x1="387.5" x2="415.5" y1="530.0757" y2="530.0757"/><text fill="#000000" font-family="Roboto Condensed" font-size="11" lengthAdjust="spacingAndGlyphs" textLength="6" x="415.5" y="527.9844">?</text><text fill="#000000" font-family="Roboto Condensed" font-size="11" lengthAdjust="spacingAndGlyphs" textLength="13" x="433.5" y="521.5391">no</text><rect fill="#FFFFFF" filter="url(#f12x7l07jxtdvu)" height="34.0625" rx="12.5" ry="12.5" style="stroke: #000000; stroke-width: 1.5;" width="116" x="297" y="567.9297"/><text fill="#000000" font-family="Roboto Condensed" font-size="12" lengthAdjust="spacingAndGlyphs" textLength="30" x="307" y="589.0625">return</text><text fill="#000000" font-family="monospace" font-size="12" lengthAdjust="spacingAndGlyphs" text-decoration="underline" textLength="63" x="340" y="589.1621">GOOD_WORD</text><line style="stroke: #000000; stroke-width: 1.0;" x1="340" x2="403" y1="591.1621" y2="591.1621"/><ellipse cx="355" cy="631.9922" fill="none" filter="url(#f12x7l07jxtdvu)" rx="10" ry="10" style="stroke: #000000; stroke-width: 1.0;"/><ellipse cx="355.5" cy="632.4922" fill="#000000" filter="url(#f12x7l07jxtdvu)" rx="6" ry="6" style="stroke: none; stroke-width: 1.0;"/><rect fill="#FFFFFF" filter="url(#f12x7l07jxtdvu)" height="460.2266" style="stroke: #000000; stroke-width: 2.0;" width="305" x="126.5" y="816.8867"/><path d="M266.5,817.8867 L266.5,826.293 L256.5,836.293 L126.5,836.293 " fill="none" style="stroke: #000000; stroke-width: 2.0;"/><text fill="#000000" font-family="Roboto Condensed" font-size="14" lengthAdjust="spacingAndGlyphs" textLength="124" x="129.5" y="830.875">handle break patterns</text><rect fill="#87CEEB" filter="url(#f12x7l07jxtdvu)" height="34.0625" rx="12.5" ry="12.5" style="stroke: #000000; stroke-width: 1.5;" width="235" x="151" y="853.293"/><text fill="#000000" font-family="Roboto Condensed" font-size="12" lengthAdjust="spacingAndGlyphs" textLength="66" x="161" y="874.4258">remove from</text><text fill="#000000" font-family="monospace" font-size="12" font-weight="bold" lengthAdjust="spacingAndGlyphs" textLength="7" x="230" y="874.5254">s</text><text fill="#000000" font-family="Roboto Condensed" font-size="12" lengthAdjust="spacingAndGlyphs" textLength="136" x="240" y="874.4258">global ignored characters</text><rect fill="#FFFFFF" filter="url(#f12x7l07jxtdvu)" height="34.0625" rx="12.5" ry="12.5" style="stroke: #000000; stroke-width: 1.5;" width="79" x="229" y="907.3555"/><text fill="#000000" font-family="Roboto Condensed" font-size="12" lengthAdjust="spacingAndGlyphs" textLength="26" x="239" y="928.4883">copy</text><text fill="#000000" font-family="monospace" font-size="12" font-weight="bold" lengthAdjust="spacingAndGlyphs" textLength="7" x="268" y="928.5879">s</text><text fill="#000000" font-family="Roboto Condensed" font-size="12" lengthAdjust="spacingAndGlyphs" textLength="10" x="278" y="928.4883">to</text><text fill="#000000" font-family="monospace" font-size="12" font-weight="bold" lengthAdjust="spacingAndGlyphs" textLength="7" x="291" y="928.5879">c</text><rect fill="#FFFFFF" filter="url(#f12x7l07jxtdvu)" height="34.0625" rx="12.5" ry="12.5" style="stroke: #000000; stroke-width: 1.5;" width="174" x="181.5" y="961.418"/><text fill="#000000" font-family="Roboto Condensed" font-size="12" lengthAdjust="spacingAndGlyphs" textLength="16" x="191.5" y="982.5508">set</text><text fill="#000000" font-family="monospace" font-size="12" font-weight="bold" lengthAdjust="spacingAndGlyphs" textLength="21" x="210.5" y="982.6504">ret</text><text fill="#000000" font-family="Roboto Condensed" font-size="12" lengthAdjust="spacingAndGlyphs" textLength="10" x="234.5" y="982.5508">to</text><text fill="#000000" filter="url(#b12x7l07jxtdvu0)" font-family="monospace" font-size="12" font-style="italic" lengthAdjust="spacingAndGlyphs" textLength="98" x="247.5" y="982.6504">spell_break(s)</text><rect fill="#FFFFFF" filter="url(#f12x7l07jxtdvu)" height="34.0625" rx="12.5" ry="12.5" style="stroke: #000000; stroke-width: 1.5;" width="146" x="195.5" y="1063.9258"/><text fill="#000000" font-family="Roboto Condensed" font-size="12" lengthAdjust="spacingAndGlyphs" textLength="53" x="205.5" y="1085.0586">append to</text><text fill="#000000" font-family="monospace" font-size="12" font-weight="bold" lengthAdjust="spacingAndGlyphs" textLength="7" x="261.5" y="1085.1582">s</text><text fill="#000000" font-family="Roboto Condensed" font-size="12" lengthAdjust="spacingAndGlyphs" textLength="50" x="271.5" y="1085.0586">character</text><text fill="#000000" font-family="monospace" font-size="12" lengthAdjust="spacingAndGlyphs" text-decoration="underline" textLength="7" x="324.5" y="1085.1582">.</text><line style="stroke: #000000; stroke-width: 1.0;" x1="324.5" x2="331.5" y1="1087.1582" y2="1087.1582"/><rect fill="#FFFFFF" filter="url(#f12x7l07jxtdvu)" height="34.0625" rx="12.5" ry="12.5" style="stroke: #000000; stroke-width: 1.5;" width="174" x="181.5" y="1132.9883"/><text fill="#000000" font-family="Roboto Condensed" font-size="12" lengthAdjust="spacingAndGlyphs" textLength="16" x="191.5" y="1154.1211">set</text><text fill="#000000" font-family="monospace" font-size="12" font-weight="bold" lengthAdjust="spacingAndGlyphs" textLength="21" x="210.5" y="1154.2207">ret</text><text fill="#000000" font-family="Roboto Condensed" font-size="12" lengthAdjust="spacingAndGlyphs" textLength="10" x="234.5" y="1154.1211">to</text><text fill="#000000" filter="url(#b12x7l07jxtdvu0)" font-family="monospace" font-size="12" font-style="italic" lengthAdjust="spacingAndGlyphs" textLength="98" x="247.5" y="1154.2207">spell_break(s)</text><polygon fill="#FFFFFF" filter="url(#f12x7l07jxtdvu)" points="148.5,1015.4805,388.5,1015.4805,400.5,1027.4805,388.5,1039.4805,148.5,1039.4805,136.5,1027.4805,148.5,1015.4805" style="stroke: #000000; stroke-width: 1.5;"/><text fill="#000000" font-family="Roboto Condensed" font-size="11" lengthAdjust="spacingAndGlyphs" textLength="17" x="272.5" y="1049.6855">yes</text><text fill="#000000" font-family="monospace" font-size="11" font-weight="bold" lengthAdjust="spacingAndGlyphs" textLength="21" x="148.5" y="1031.3315">ret</text><text fill="#000000" font-family="Roboto Condensed" font-size="11" lengthAdjust="spacingAndGlyphs" textLength="28" x="172.5" y="1031.2402">is not</text><text fill="#000000" font-family="monospace" font-size="11" lengthAdjust="spacingAndGlyphs" text-decoration="underline" textLength="28" x="203.5" y="1031.3315">TRUE</text><line style="stroke: #000000; stroke-width: 1.0;" x1="203.5" x2="231.5" y1="1033.3315" y2="1033.3315"/><text fill="#000000" font-family="Roboto Condensed" font-size="11" lengthAdjust="spacingAndGlyphs" textLength="18" x="234.5" y="1031.2402">and</text><text fill="#000000" font-family="monospace" font-size="11" font-weight="bold" lengthAdjust="spacingAndGlyphs" textLength="84" x="255.5" y="1031.3315">abbreviation</text><text fill="#000000" font-family="Roboto Condensed" font-size="11" lengthAdjust="spacingAndGlyphs" textLength="9" x="342.5" y="1031.2402">is</text><text fill="#000000" font-family="monospace" font-size="11" lengthAdjust="spacingAndGlyphs" text-decoration="underline" textLength="28" x="354.5" y="1031.3315">TRUE</text><line style="stroke: #000000; stroke-width: 1.0;" x1="354.5" x2="382.5" y1="1033.3315" y2="1033.3315"/><text fill="#000000" font-family="Roboto Condensed" font-size="11" lengthAdjust="spacingAndGlyphs" textLength="6" x="382.5" y="1031.2402">?</text><text fill="#000000" font-family="Roboto Condensed" font-size="11" lengthAdjust="spacingAndGlyphs" textLength="13" x="400.5" y="1024.7949">no</text><polygon fill="#FFFFFF" filter="url(#f12x7l07jxtdvu)" points="268.5,1187.0508,280.5,1199.0508,268.5,1211.0508,256.5,1199.0508,268.5,1187.0508" style="stroke: #000000; stroke-width: 1.5;"/><rect fill="#FFFFFF" filter="url(#f12x7l07jxtdvu)" height="34.0625" rx="12.5" ry="12.5" style="stroke: #000000; stroke-width: 1.5;" width="74" x="231.5" y="1231.0508"/><text fill="#000000" font-family="Roboto Condensed" font-size="12" lengthAdjust="spacingAndGlyphs" textLength="30" x="241.5" y="1252.1836">return</text><text fill="#000000" font-family="monospace" font-size="12" font-weight="bold" lengthAdjust="spacingAndGlyphs" textLength="21" x="274.5" y="1252.2832">ret</text><ellipse cx="268.5" cy="1307.1133" fill="none" filter="url(#f12x7l07jxtdvu)" rx="10" ry="10" style="stroke: #000000; stroke-width: 1.0;"/><ellipse cx="269" cy="1307.6133" fill="#000000" filter="url(#f12x7l07jxtdvu)" rx="6" ry="6" style="stroke: none; stroke-width: 1.0;"/><line style="stroke: #000000; stroke-width: 1.5;" x1="268.5" x2="268.5" y1="153.6016" y2="181.0703"/><polygon fill="#000000" points="264.5,171.0703,268.5,181.0703,272.5,171.0703,268.5,175.0703" style="stroke: #000000; stroke-width: 1.0;"/><line style="stroke: #000000; stroke-width: 1.5;" x1="268.5" x2="268.5" y1="95.0938" y2="119.5391"/><polygon fill="#000000" points="264.5,109.5391,268.5,119.5391,272.5,109.5391,268.5,113.5391" style="stroke: #000000; stroke-width: 1.0;"/><line style="stroke: #000000; stroke-width: 1.5;" x1="421" x2="433" y1="83.0938" y2="83.0938"/><polygon fill="#000000" points="429,151.0703,433,161.0703,437,151.0703,433,155.0703" style="stroke: #000000; stroke-width: 1.5;"/><line style="stroke: #000000; stroke-width: 1.5;" x1="433" x2="433" y1="83.0938" y2="223.0703"/><line style="stroke: #000000; stroke-width: 1.5;" x1="433" x2="268.5" y1="223.0703" y2="223.0703"/><line style="stroke: #000000; stroke-width: 1.5;" x1="268.5" x2="268.5" y1="223.0703" y2="243.0703"/><polygon fill="#000000" points="264.5,233.0703,268.5,243.0703,272.5,233.0703,268.5,237.0703" style="stroke: #000000; stroke-width: 1.0;"/><line style="stroke: #000000; stroke-width: 1.5;" x1="268.5" x2="268.5" y1="51.0938" y2="71.0938"/><polygon fill="#000000" points="264.5,61.0938,268.5,71.0938,272.5,61.0938,268.5,65.0938" style="stroke: #000000; stroke-width: 1.0;"/><line style="stroke: #000000; stroke-width: 1.5;" x1="78" x2="78" y1="417.2246" y2="452.2246"/><polygon fill="#000000" points="74,442.2246,78,452.2246,82,442.2246,78,446.2246" style="stroke: #000000; stroke-width: 1.0;"/><line style="stroke: #000000; stroke-width: 1.5;" x1="78" x2="78" y1="351.457" y2="383.1621"/><polygon fill="#000000" points="74,373.1621,78,383.1621,82,373.1621,78,377.1621" style="stroke: #000000; stroke-width: 1.0;"/><line style="stroke: #000000; stroke-width: 1.5;" x1="239.5" x2="239.5" y1="351.457" y2="383.1621"/><polygon fill="#000000" points="235.5,373.1621,239.5,383.1621,243.5,373.1621,239.5,377.1621" style="stroke: #000000; stroke-width: 1.0;"/><line style="stroke: #000000; stroke-width: 1.5;" x1="239.5" x2="239.5" y1="417.2246" y2="492.2246"/><polygon fill="#000000" points="235.5,482.2246,239.5,492.2246,243.5,482.2246,239.5,486.2246" style="stroke: #000000; stroke-width: 1.0;"/><line style="stroke: #000000; stroke-width: 1.5;" x1="118.5" x2="174.5" y1="339.457" y2="339.457"/><polygon fill="#000000" points="164.5,335.457,174.5,339.457,164.5,343.457,168.5,339.457" style="stroke: #000000; stroke-width: 1.0;"/><line style="stroke: #000000; stroke-width: 1.5;" x1="268.5" x2="268.5" y1="277.1328" y2="312.457"/><line style="stroke: #000000; stroke-width: 1.5;" x1="268.5" x2="78" y1="312.457" y2="312.457"/><line style="stroke: #000000; stroke-width: 1.5;" x1="78" x2="78" y1="312.457" y2="327.457"/><polygon fill="#000000" points="74,317.457,78,327.457,82,317.457,78,321.457" style="stroke: #000000; stroke-width: 1.0;"/><line style="stroke: #000000; stroke-width: 1.5;" x1="304.5" x2="430" y1="339.457" y2="339.457"/><line style="stroke: #000000; stroke-width: 1.5;" x1="430" x2="430" y1="339.457" y2="407.2168"/><polygon fill="#000000" points="426,397.2168,430,407.2168,434,397.2168,430,401.2168" style="stroke: #000000; stroke-width: 1.0;"/><line style="stroke: #000000; stroke-width: 1.5;" x1="430" x2="430" y1="441.2793" y2="492.2246"/><polygon fill="#000000" points="426,482.2246,430,492.2246,434,482.2246,430,486.2246" style="stroke: #000000; stroke-width: 1.0;"/><line style="stroke: #000000; stroke-width: 1.5;" x1="239.5" x2="430" y1="492.2246" y2="492.2246"/><line style="stroke: #000000; stroke-width: 1.5;" x1="155" x2="155" y1="704.5" y2="731.9688"/><polygon fill="#000000" points="151,721.9688,155,731.9688,159,721.9688,155,725.9688" style="stroke: #000000; stroke-width: 1.0;"/><line style="stroke: #000000; stroke-width: 1.5;" x1="155" x2="155" y1="645.9922" y2="670.4375"/><polygon fill="#000000" points="151,660.4375,155,670.4375,159,660.4375,155,664.4375" style="stroke: #000000; stroke-width: 1.0;"/><line style="stroke: #000000; stroke-width: 1.5;" x1="195.5" x2="223" y1="633.9922" y2="633.9922"/><polygon fill="#000000" points="219,701.9688,223,711.9688,227,701.9688,223,705.9688" style="stroke: #000000; stroke-width: 1.5;"/><line style="stroke: #000000; stroke-width: 1.5;" x1="223" x2="223" y1="633.9922" y2="773.9688"/><line style="stroke: #000000; stroke-width: 1.5;" x1="223" x2="155" y1="773.9688" y2="773.9688"/><line style="stroke: #000000; stroke-width: 1.5;" x1="155" x2="155" y1="773.9688" y2="793.9688"/><polygon fill="#000000" points="151,783.9688,155,793.9688,159,783.9688,155,787.9688" style="stroke: #000000; stroke-width: 1.0;"/><line style="stroke: #000000; stroke-width: 1.5;" x1="155" x2="155" y1="601.9922" y2="621.9922"/><polygon fill="#000000" points="151,611.9922,155,621.9922,159,611.9922,155,615.9922" style="stroke: #000000; stroke-width: 1.0;"/><line style="stroke: #000000; stroke-width: 1.5;" x1="355" x2="355" y1="601.9922" y2="621.9922"/><polygon fill="#000000" points="351,611.9922,355,621.9922,359,611.9922,355,615.9922" style="stroke: #000000; stroke-width: 1.0;"/><line style="stroke: #000000; stroke-width: 1.5;" x1="155" x2="155" y1="536.2246" y2="567.9297"/><polygon fill="#000000" points="151,557.9297,155,567.9297,159,557.9297,155,561.9297" style="stroke: #000000; stroke-width: 1.0;"/><line style="stroke: #000000; stroke-width: 1.5;" x1="355" x2="355" y1="536.2246" y2="567.9297"/><polygon fill="#000000" points="351,557.9297,355,567.9297,359,557.9297,355,561.9297" style="stroke: #000000; stroke-width: 1.0;"/><line style="stroke: #000000; stroke-width: 1.5;" x1="233.5" x2="276.5" y1="524.2246" y2="524.2246"/><polygon fill="#000000" points="266.5,520.2246,276.5,524.2246,266.5,528.2246,270.5,524.2246" style="stroke: #000000; stroke-width: 1.0;"/><line style="stroke: #000000; stroke-width: 1.5;" x1="268.5" x2="268.5" y1="492.2246" y2="497.2246"/><line style="stroke: #000000; stroke-width: 1.5;" x1="268.5" x2="155" y1="497.2246" y2="497.2246"/><line style="stroke: #000000; stroke-width: 1.5;" x1="155" x2="155" y1="497.2246" y2="512.2246"/><polygon fill="#000000" points="151,502.2246,155,512.2246,159,502.2246,155,506.2246" style="stroke: #000000; stroke-width: 1.0;"/><line style="stroke: #000000; stroke-width: 1.5;" x1="433.5" x2="468.5" y1="524.2246" y2="524.2246"/><line style="stroke: #000000; stroke-width: 1.5;" x1="468.5" x2="468.5" y1="524.2246" y2="793.9688"/><polygon fill="#000000" points="464.5,783.9688,468.5,793.9688,472.5,783.9688,468.5,787.9688" style="stroke: #000000; stroke-width: 1.0;"/><line style="stroke: #000000; stroke-width: 1.5;" x1="155" x2="468.5" y1="793.9688" y2="793.9688"/><line style="stroke: #000000; stroke-width: 1.5;" x1="268.5" x2="268.5" y1="887.3555" y2="907.3555"/><polygon fill="#000000" points="264.5,897.3555,268.5,907.3555,272.5,897.3555,268.5,901.3555" style="stroke: #000000; stroke-width: 1.0;"/><line style="stroke: #000000; stroke-width: 1.5;" x1="268.5" x2="268.5" y1="941.418" y2="961.418"/><polygon fill="#000000" points="264.5,951.418,268.5,961.418,272.5,951.418,268.5,955.418" style="stroke: #000000; stroke-width: 1.0;"/><line style="stroke: #000000; stroke-width: 1.5;" x1="268.5" x2="268.5" y1="1097.9883" y2="1132.9883"/><polygon fill="#000000" points="264.5,1122.9883,268.5,1132.9883,272.5,1122.9883,268.5,1126.9883" style="stroke: #000000; stroke-width: 1.0;"/><line style="stroke: #000000; stroke-width: 1.5;" x1="268.5" x2="268.5" y1="1039.4805" y2="1063.9258"/><polygon fill="#000000" points="264.5,1053.9258,268.5,1063.9258,272.5,1053.9258,268.5,1057.9258" style="stroke: #000000; stroke-width: 1.0;"/><line style="stroke: #000000; stroke-width: 1.5;" x1="400.5" x2="412.5" y1="1027.4805" y2="1027.4805"/><polygon fill="#000000" points="408.5,1105.4883,412.5,1115.4883,416.5,1105.4883,412.5,1109.4883" style="stroke: #000000; stroke-width: 1.5;"/><line style="stroke: #000000; stroke-width: 1.5;" x1="412.5" x2="412.5" y1="1027.4805" y2="1199.0508"/><line style="stroke: #000000; stroke-width: 1.5;" x1="412.5" x2="280.5" y1="1199.0508" y2="1199.0508"/><polygon fill="#000000" points="290.5,1195.0508,280.5,1199.0508,290.5,1203.0508,286.5,1199.0508" style="stroke: #000000; stroke-width: 1.0;"/><line style="stroke: #000000; stroke-width: 1.5;" x1="268.5" x2="268.5" y1="1167.0508" y2="1187.0508"/><polygon fill="#000000" points="264.5,1177.0508,268.5,1187.0508,272.5,1177.0508,268.5,1181.0508" style="stroke: #000000; stroke-width: 1.0;"/><line style="stroke: #000000; stroke-width: 1.5;" x1="268.5" x2="268.5" y1="995.4805" y2="1015.4805"/><polygon fill="#000000" points="264.5,1005.4805,268.5,1015.4805,272.5,1005.4805,268.5,1009.4805" style="stroke: #000000; stroke-width: 1.0;"/><line style="stroke: #000000; stroke-width: 1.5;" x1="268.5" x2="268.5" y1="1211.0508" y2="1231.0508"/><polygon fill="#000000" points="264.5,1221.0508,268.5,1231.0508,272.5,1221.0508,268.5,1225.0508" style="stroke: #000000; stroke-width: 1.0;"/><line style="stroke: #000000; stroke-width: 1.5;" x1="268.5" x2="268.5" y1="793.9688" y2="853.293"/><polygon fill="#000000" points="264.5,843.293,268.5,853.293,272.5,843.293,268.5,847.293" style="stroke: #000000; stroke-width: 1.0;"/><line style="stroke: #000000; stroke-width: 1.5;" x1="268.5" x2="268.5" y1="1265.1133" y2="1297.1133"/><polygon fill="#000000" points="264.5,1287.1133,268.5,1297.1133,272.5,1287.1133,268.5,1291.1133" style="stroke: #000000; stroke-width: 1.0;"/><!--
@startuml
skinparam BackgroundColor White|White
skinparam ArrowColor Black
skinparam DefaultFontName Roboto Condensed
skinparam TitleFontStyle Bold

skinparam NoteBackgroundColor White
skinparam NoteBorderColor Black

skinparam UsecaseBackgroundColor White
skinparam ActorBackgroundColor White
skinparam UsecaseBorderColor Black
skinparam ActorBorderColor Black

skinparam usecase {
	BackgroundColor<<for now out of scope>> Gray
}

skinparam StateBackgroundColor White
skinparam StateBorderColor Black

skinparam ActivityBackgroundColor White
skinparam ActivityDiamondBackgroundColor White
skinparam ActivityBorderColor Black
skinparam ActivityDiamondBorderColor Black

skinparam ClassBackgroundColor White
skinparam ClassBorderColor Black
hide empty members

title Nuspell - Check Spelling - ""spell_priv(string s)""

start

if (length **""s""** is greater or equal to global __""WORDMAXLENGTH""__?) then (yes)
    :return __""BAD_WORD""__;
	stop
else (no)
endif

#skyblue:do on **""s""** global input conversion;

partition "handle abbreviations and numbers  " {
    if (**""s""** is empty?) then (yes)
        :return __""GOOD_WORD""__;
	    stop
    elseif (last character **""s""** is __"".""__?) then (yes)
        :set **""abbreviation""** to __""TRUE""__;
    else (no)
        :set **""abbreviation""** to __""FALSE""__;
    endif

    if (**""abbreviation""** is __""TRUE""__?) then (yes)
        :remove from **""s""** trailing characters __"".""__;
        if (**""s""** is empty?) then (yes)
            :return __""GOOD_WORD""__;
	        stop
        else (no)
        endif
    elseif (<back:skyblue>//""is_number(s)""//</back> is __""TRUE""__?) then (yes)
        :return __""GOOD_WORD""__;
	    stop
    else (no)
    endif
} 
partition "handle break patterns  " {
    #skyblue:remove from **""s""** global ignored characters;
    :copy **""s""** to **""c""**;
    :set **""ret""** to <back:skyblue>//""spell_break(s)""//</back>;
    if (**""ret""** is not __""TRUE""__ and **""abbreviation""** is __""TRUE""__?) then (yes)
        :append to **""s""** character __"".""__;
        :set **""ret""** to <back:skyblue>//""spell_break(s)""//</back>;
    else (no)
    endif
    :return **""ret""**;
}

stop

@enduml

PlantUML version 1.2018.12beta1(Unknown compile time)
(GPL source distribution)
Java Runtime: OpenJDK Runtime Environment
JVM: OpenJDK 64-Bit Server VM
Java Version: 10.0.2+13-Ubuntu-1ubuntu0.18.04.2
Operating System: Linux
OS Version: 4.15.0-34-generic
Default Encoding: UTF-8
Language: en
Country: US
--></g></svg>