<?xml version="1.0" encoding="UTF-8" standalone="no"?><svg xmlns="http://www.w3.org/2000/svg" xmlns:xlink="http://www.w3.org/1999/xlink" contentScriptType="application/ecmascript" contentStyleType="text/css" height="1352px" preserveAspectRatio="none" style="width:536px;height:1352px;" version="1.1" viewBox="0 0 536 1352" width="536px" zoomAndPan="magnify"><defs><linearGradient id="g1h72kftqw6tnz0" x1="0%" x2="100%" y1="50%" y2="50%"><stop offset="0%" stop-color="#FFFFFF"/><stop offset="100%" stop-color="#FFFFFF"/></linearGradient><filter height="300%" id="f1h72kftqw6tnz" width="300%" x="-1" y="-1"><feGaussianBlur result="blurOut" stdDeviation="2.0"/><feColorMatrix in="blurOut" result="blurOut2" type="matrix" values="0 0 0 0 0 0 0 0 0 0 0 0 0 0 0 0 0 0 .4 0"/><feOffset dx="4.0" dy="4.0" in="blurOut2" result="blurOut3"/><feBlend in="SourceGraphic" in2="blurOut3" mode="normal"/></filter><filter height="1" id="b1h72kftqw6tnz0" width="1" x="0" y="0"><feFlood flood-color="#87CEEB" result="flood"/><feComposite in="SourceGraphic" in2="flood" operator="over"/></filter></defs><g><rect fill="url(#g1h72kftqw6tnz0)" height="1352" style="stroke: none; stroke-width: 1.0;" width="536" x="0" y="0"/><text fill="#000000" font-family="Roboto Condensed" font-size="18" font-weight="bold" lengthAdjust="spacingAndGlyphs" textLength="192" x="59" y="28.8613">Nuspell - Check Spelling -</text><text fill="#000000" font-family="monospace" font-size="18" font-weight="bold" lengthAdjust="spacingAndGlyphs" textLength="220" x="255" y="29.4941">spell_priv(string s)</text><ellipse cx="267.5" cy="43.7393" fill="#000000" filter="url(#f1h72kftqw6tnz)" rx="10" ry="10" style="stroke: none; stroke-width: 1.0;"/><rect fill="#FFFFFF" filter="url(#f1h72kftqw6tnz)" height="35.8262" rx="12.5" ry="12.5" style="stroke: #000000; stroke-width: 1.5;" width="109" x="213" y="122.9929"/><text fill="#000000" font-family="Roboto Condensed" font-size="12" lengthAdjust="spacingAndGlyphs" textLength="30" x="223" y="145.5671">return</text><text fill="#000000" font-family="monospace" font-size="12" lengthAdjust="spacingAndGlyphs" text-decoration="underline" textLength="56" x="256" y="145.989">BAD_WORD</text><line style="stroke: #000000; stroke-width: 1.0;" x1="256" x2="312" y1="147.989" y2="147.989"/><ellipse cx="267.5" cy="195.406" fill="none" filter="url(#f1h72kftqw6tnz)" rx="10" ry="10" style="stroke: #000000; stroke-width: 1.0;"/><ellipse cx="268" cy="195.906" fill="#000000" filter="url(#f1h72kftqw6tnz)" rx="6" ry="6" style="stroke: none; stroke-width: 1.0;"/><polygon fill="#FFFFFF" filter="url(#f1h72kftqw6tnz)" points="138,73.7393,397,73.7393,409,85.7393,397,97.7393,138,97.7393,126,85.7393,138,73.7393" style="stroke: #000000; stroke-width: 1.5;"/><text fill="#000000" font-family="Roboto Condensed" font-size="11" lengthAdjust="spacingAndGlyphs" textLength="15" x="271.5" y="109.2656">yes</text><text fill="#000000" font-family="Roboto Condensed" font-size="11" lengthAdjust="spacingAndGlyphs" textLength="26" x="138" y="90.012">length</text><text fill="#000000" font-family="monospace" font-size="11" font-weight="bold" lengthAdjust="spacingAndGlyphs" textLength="7" x="167" y="90.3987">s</text><text fill="#000000" font-family="Roboto Condensed" font-size="11" lengthAdjust="spacingAndGlyphs" textLength="121" x="177" y="90.012">is greater or equal to global</text><text fill="#000000" font-family="monospace" font-size="11" lengthAdjust="spacingAndGlyphs" text-decoration="underline" textLength="91" x="301" y="90.3987">WORDMAXLENGTH</text><line style="stroke: #000000; stroke-width: 1.0;" x1="301" x2="392" y1="92.3987" y2="92.3987"/><text fill="#000000" font-family="Roboto Condensed" font-size="11" lengthAdjust="spacingAndGlyphs" textLength="5" x="392" y="90.012">?</text><text fill="#000000" font-family="Roboto Condensed" font-size="11" lengthAdjust="spacingAndGlyphs" textLength="11" x="409" y="82.7583">no</text><rect fill="#87CEEB" filter="url(#f1h72kftqw6tnz)" height="35.8262" rx="12.5" ry="12.5" style="stroke: #000000; stroke-width: 1.5;" width="174" x="180.5" y="247.406"/><text fill="#000000" font-family="Roboto Condensed" font-size="12" lengthAdjust="spacingAndGlyphs" textLength="27" x="190.5" y="269.9802">do on</text><text fill="#000000" font-family="monospace" font-size="12" font-weight="bold" lengthAdjust="spacingAndGlyphs" textLength="7" x="220.5" y="270.4021">s</text><text fill="#000000" font-family="Roboto Condensed" font-size="12" lengthAdjust="spacingAndGlyphs" textLength="114" x="230.5" y="269.9802">global input conversion</text><rect fill="#FFFFFF" filter="url(#f1h72kftqw6tnz)" height="523.5417" style="stroke: #000000; stroke-width: 2.0;" width="515" x="10" y="294.5261"/><path d="M218,295.5261 L218,305.99 L208,315.99 L10,315.99 " fill="none" style="stroke: #000000; stroke-width: 2.0;"/><text fill="#000000" font-family="Roboto Condensed" font-size="14" lengthAdjust="spacingAndGlyphs" textLength="192" x="13" y="310.196">handle abbreviations and numbers</text><polygon fill="#FFFFFF" filter="url(#f1h72kftqw6tnz)" points="52,331.696,104,331.696,116,343.696,104,355.696,52,355.696,40,343.696,52,331.696" style="stroke: #000000; stroke-width: 1.5;"/><text fill="#000000" font-family="Roboto Condensed" font-size="11" lengthAdjust="spacingAndGlyphs" textLength="15" x="82" y="367.2224">yes</text><text fill="#000000" font-family="monospace" font-size="11" font-weight="bold" lengthAdjust="spacingAndGlyphs" textLength="7" x="52" y="348.3555">s</text><text fill="#000000" font-family="Roboto Condensed" font-size="11" lengthAdjust="spacingAndGlyphs" textLength="42" x="62" y="347.9688">is empty?</text><rect fill="#FFFFFF" filter="url(#f1h72kftqw6tnz)" height="35.8262" rx="12.5" ry="12.5" style="stroke: #000000; stroke-width: 1.5;" width="116" x="20" y="388.7224"/><text fill="#000000" font-family="Roboto Condensed" font-size="12" lengthAdjust="spacingAndGlyphs" textLength="30" x="30" y="411.2966">return</text><text fill="#000000" font-family="monospace" font-size="12" lengthAdjust="spacingAndGlyphs" text-decoration="underline" textLength="63" x="63" y="411.7185">GOOD_WORD</text><line style="stroke: #000000; stroke-width: 1.0;" x1="63" x2="126" y1="413.7185" y2="413.7185"/><ellipse cx="78" cy="469.5486" fill="none" filter="url(#f1h72kftqw6tnz)" rx="10" ry="10" style="stroke: #000000; stroke-width: 1.0;"/><ellipse cx="78.5" cy="470.0486" fill="#000000" filter="url(#f1h72kftqw6tnz)" rx="6" ry="6" style="stroke: none; stroke-width: 1.0;"/><polygon fill="#FFFFFF" filter="url(#f1h72kftqw6tnz)" points="192,331.696,286,331.696,298,343.696,286,355.696,192,355.696,180,343.696,192,331.696" style="stroke: #000000; stroke-width: 1.5;"/><text fill="#000000" font-family="Roboto Condensed" font-size="11" lengthAdjust="spacingAndGlyphs" textLength="15" x="243" y="367.2224">yes</text><text fill="#000000" font-family="Roboto Condensed" font-size="11" lengthAdjust="spacingAndGlyphs" textLength="58" x="192" y="347.9688">last character</text><text fill="#000000" font-family="monospace" font-size="11" font-weight="bold" lengthAdjust="spacingAndGlyphs" textLength="7" x="253" y="348.3555">s</text><text fill="#000000" font-family="Roboto Condensed" font-size="11" lengthAdjust="spacingAndGlyphs" textLength="8" x="263" y="347.9688">is</text><text fill="#000000" font-family="monospace" font-size="11" lengthAdjust="spacingAndGlyphs" text-decoration="underline" textLength="7" x="274" y="348.3555">.</text><line style="stroke: #000000; stroke-width: 1.0;" x1="274" x2="281" y1="350.3555" y2="350.3555"/><text fill="#000000" font-family="Roboto Condensed" font-size="11" lengthAdjust="spacingAndGlyphs" textLength="5" x="281" y="347.9688">?</text><text fill="#000000" font-family="Roboto Condensed" font-size="11" lengthAdjust="spacingAndGlyphs" textLength="11" x="298" y="340.7151">no</text><rect fill="#FFFFFF" filter="url(#f1h72kftqw6tnz)" height="35.8262" rx="12.5" ry="12.5" style="stroke: #000000; stroke-width: 1.5;" width="166" x="156" y="388.7224"/><text fill="#000000" font-family="Roboto Condensed" font-size="12" lengthAdjust="spacingAndGlyphs" textLength="15" x="166" y="411.2966">set</text><text fill="#000000" font-family="monospace" font-size="12" font-weight="bold" lengthAdjust="spacingAndGlyphs" textLength="84" x="184" y="411.7185">abbreviation</text><text fill="#000000" font-family="Roboto Condensed" font-size="12" lengthAdjust="spacingAndGlyphs" textLength="10" x="271" y="411.2966">to</text><text fill="#000000" font-family="monospace" font-size="12" lengthAdjust="spacingAndGlyphs" text-decoration="underline" textLength="28" x="284" y="411.7185">TRUE</text><line style="stroke: #000000; stroke-width: 1.0;" x1="284" x2="312" y1="413.7185" y2="413.7185"/><rect fill="#FFFFFF" filter="url(#f1h72kftqw6tnz)" height="35.8262" rx="12.5" ry="12.5" style="stroke: #000000; stroke-width: 1.5;" width="173" x="342" y="411.9688"/><text fill="#000000" font-family="Roboto Condensed" font-size="12" lengthAdjust="spacingAndGlyphs" textLength="15" x="352" y="434.543">set</text><text fill="#000000" font-family="monospace" font-size="12" font-weight="bold" lengthAdjust="spacingAndGlyphs" textLength="84" x="370" y="434.9648">abbreviation</text><text fill="#000000" font-family="Roboto Condensed" font-size="12" lengthAdjust="spacingAndGlyphs" textLength="10" x="457" y="434.543">to</text><text fill="#000000" font-family="monospace" font-size="12" lengthAdjust="spacingAndGlyphs" text-decoration="underline" textLength="35" x="470" y="434.9648">FALSE</text><line style="stroke: #000000; stroke-width: 1.0;" x1="470" x2="505" y1="436.9648" y2="436.9648"/><polygon fill="#FFFFFF" filter="url(#f1h72kftqw6tnz)" points="89.5,519.5486,220.5,519.5486,232.5,531.5486,220.5,543.5486,89.5,543.5486,77.5,531.5486,89.5,519.5486" style="stroke: #000000; stroke-width: 1.5;"/><text fill="#000000" font-family="Roboto Condensed" font-size="11" lengthAdjust="spacingAndGlyphs" textLength="15" x="159" y="555.075">yes</text><text fill="#000000" font-family="monospace" font-size="11" font-weight="bold" lengthAdjust="spacingAndGlyphs" textLength="84" x="89.5" y="536.208">abbreviation</text><text fill="#000000" font-family="Roboto Condensed" font-size="11" lengthAdjust="spacingAndGlyphs" textLength="8" x="176.5" y="535.8213">is</text><text fill="#000000" font-family="monospace" font-size="11" lengthAdjust="spacingAndGlyphs" text-decoration="underline" textLength="28" x="187.5" y="536.208">TRUE</text><line style="stroke: #000000; stroke-width: 1.0;" x1="187.5" x2="215.5" y1="538.208" y2="538.208"/><text fill="#000000" font-family="Roboto Condensed" font-size="11" lengthAdjust="spacingAndGlyphs" textLength="5" x="215.5" y="535.8213">?</text><rect fill="#FFFFFF" filter="url(#f1h72kftqw6tnz)" height="35.8262" rx="12.5" ry="12.5" style="stroke: #000000; stroke-width: 1.5;" width="196" x="57" y="576.575"/><text fill="#000000" font-family="Roboto Condensed" font-size="12" lengthAdjust="spacingAndGlyphs" textLength="62" x="67" y="599.1492">remove from</text><text fill="#000000" font-family="monospace" font-size="12" font-weight="bold" lengthAdjust="spacingAndGlyphs" textLength="7" x="132" y="599.571">s</text><text fill="#000000" font-family="Roboto Condensed" font-size="12" lengthAdjust="spacingAndGlyphs" textLength="91" x="142" y="599.1492">trailing characters</text><text fill="#000000" font-family="monospace" font-size="12" lengthAdjust="spacingAndGlyphs" text-decoration="underline" textLength="7" x="236" y="599.571">.</text><line style="stroke: #000000; stroke-width: 1.0;" x1="236" x2="243" y1="601.571" y2="601.571"/><rect fill="#FFFFFF" filter="url(#f1h72kftqw6tnz)" height="35.8262" rx="12.5" ry="12.5" style="stroke: #000000; stroke-width: 1.5;" width="116" x="97" y="681.6548"/><text fill="#000000" font-family="Roboto Condensed" font-size="12" lengthAdjust="spacingAndGlyphs" textLength="30" x="107" y="704.229">return</text><text fill="#000000" font-family="monospace" font-size="12" lengthAdjust="spacingAndGlyphs" text-decoration="underline" textLength="63" x="140" y="704.6509">GOOD_WORD</text><line style="stroke: #000000; stroke-width: 1.0;" x1="140" x2="203" y1="706.6509" y2="706.6509"/><ellipse cx="155" cy="754.0679" fill="none" filter="url(#f1h72kftqw6tnz)" rx="10" ry="10" style="stroke: #000000; stroke-width: 1.0;"/><ellipse cx="155.5" cy="754.5679" fill="#000000" filter="url(#f1h72kftqw6tnz)" rx="6" ry="6" style="stroke: none; stroke-width: 1.0;"/><polygon fill="#FFFFFF" filter="url(#f1h72kftqw6tnz)" points="129,632.4011,181,632.4011,193,644.4011,181,656.4011,129,656.4011,117,644.4011,129,632.4011" style="stroke: #000000; stroke-width: 1.5;"/><text fill="#000000" font-family="Roboto Condensed" font-size="11" lengthAdjust="spacingAndGlyphs" textLength="15" x="159" y="667.9275">yes</text><text fill="#000000" font-family="monospace" font-size="11" font-weight="bold" lengthAdjust="spacingAndGlyphs" textLength="7" x="129" y="649.0605">s</text><text fill="#000000" font-family="Roboto Condensed" font-size="11" lengthAdjust="spacingAndGlyphs" textLength="42" x="139" y="648.6738">is empty?</text><text fill="#000000" font-family="Roboto Condensed" font-size="11" lengthAdjust="spacingAndGlyphs" textLength="11" x="193" y="641.4202">no</text><polygon fill="#FFFFFF" filter="url(#f1h72kftqw6tnz)" points="285,519.5486,416,519.5486,428,531.5486,416,543.5486,285,543.5486,273,531.5486,285,519.5486" style="stroke: #000000; stroke-width: 1.5;"/><text fill="#000000" font-family="Roboto Condensed" font-size="11" lengthAdjust="spacingAndGlyphs" textLength="15" x="354.5" y="555.075">yes</text><text fill="#000000" filter="url(#b1h72kftqw6tnz0)" font-family="monospace" font-size="11" font-style="italic" lengthAdjust="spacingAndGlyphs" textLength="84" x="285" y="536.208">is_number(s)</text><text fill="#000000" font-family="Roboto Condensed" font-size="11" lengthAdjust="spacingAndGlyphs" textLength="8" x="372" y="535.8213">is</text><text fill="#000000" font-family="monospace" font-size="11" lengthAdjust="spacingAndGlyphs" text-decoration="underline" textLength="28" x="383" y="536.208">TRUE</text><line style="stroke: #000000; stroke-width: 1.0;" x1="383" x2="411" y1="538.208" y2="538.208"/><text fill="#000000" font-family="Roboto Condensed" font-size="11" lengthAdjust="spacingAndGlyphs" textLength="5" x="411" y="535.8213">?</text><text fill="#000000" font-family="Roboto Condensed" font-size="11" lengthAdjust="spacingAndGlyphs" textLength="11" x="428" y="528.5676">no</text><rect fill="#FFFFFF" filter="url(#f1h72kftqw6tnz)" height="35.8262" rx="12.5" ry="12.5" style="stroke: #000000; stroke-width: 1.5;" width="116" x="292.5" y="576.575"/><text fill="#000000" font-family="Roboto Condensed" font-size="12" lengthAdjust="spacingAndGlyphs" textLength="30" x="302.5" y="599.1492">return</text><text fill="#000000" font-family="monospace" font-size="12" lengthAdjust="spacingAndGlyphs" text-decoration="underline" textLength="63" x="335.5" y="599.571">GOOD_WORD</text><line style="stroke: #000000; stroke-width: 1.0;" x1="335.5" x2="398.5" y1="601.571" y2="601.571"/><ellipse cx="350.5" cy="642.4011" fill="none" filter="url(#f1h72kftqw6tnz)" rx="10" ry="10" style="stroke: #000000; stroke-width: 1.0;"/><ellipse cx="351" cy="642.9011" fill="#000000" filter="url(#f1h72kftqw6tnz)" rx="6" ry="6" style="stroke: none; stroke-width: 1.0;"/><rect fill="#FFFFFF" filter="url(#f1h72kftqw6tnz)" height="472.3806" style="stroke: #000000; stroke-width: 2.0;" width="297" x="129.5" y="829.3618"/><path d="M266.5,830.3618 L266.5,840.8257 L256.5,850.8257 L129.5,850.8257 " fill="none" style="stroke: #000000; stroke-width: 2.0;"/><text fill="#000000" font-family="Roboto Condensed" font-size="14" lengthAdjust="spacingAndGlyphs" textLength="121" x="132.5" y="845.0317">handle break patterns</text><rect fill="#87CEEB" filter="url(#f1h72kftqw6tnz)" height="35.8262" rx="12.5" ry="12.5" style="stroke: #000000; stroke-width: 1.5;" width="221" x="157" y="866.5317"/><text fill="#000000" font-family="Roboto Condensed" font-size="12" lengthAdjust="spacingAndGlyphs" textLength="62" x="167" y="889.106">remove from</text><text fill="#000000" font-family="monospace" font-size="12" font-weight="bold" lengthAdjust="spacingAndGlyphs" textLength="7" x="232" y="889.5278">s</text><text fill="#000000" font-family="Roboto Condensed" font-size="12" lengthAdjust="spacingAndGlyphs" textLength="126" x="242" y="889.106">global ignored characters</text><rect fill="#FFFFFF" filter="url(#f1h72kftqw6tnz)" height="35.8262" rx="12.5" ry="12.5" style="stroke: #000000; stroke-width: 1.5;" width="76" x="229.5" y="922.3579"/><text fill="#000000" font-family="Roboto Condensed" font-size="12" lengthAdjust="spacingAndGlyphs" textLength="23" x="239.5" y="944.9321">copy</text><text fill="#000000" font-family="monospace" font-size="12" font-weight="bold" lengthAdjust="spacingAndGlyphs" textLength="7" x="265.5" y="945.354">s</text><text fill="#000000" font-family="Roboto Condensed" font-size="12" lengthAdjust="spacingAndGlyphs" textLength="10" x="275.5" y="944.9321">to</text><text fill="#000000" font-family="monospace" font-size="12" font-weight="bold" lengthAdjust="spacingAndGlyphs" textLength="7" x="288.5" y="945.354">c</text><rect fill="#FFFFFF" filter="url(#f1h72kftqw6tnz)" height="35.8262" rx="12.5" ry="12.5" style="stroke: #000000; stroke-width: 1.5;" width="173" x="181" y="978.1841"/><text fill="#000000" font-family="Roboto Condensed" font-size="12" lengthAdjust="spacingAndGlyphs" textLength="15" x="191" y="1000.7583">set</text><text fill="#000000" font-family="monospace" font-size="12" font-weight="bold" lengthAdjust="spacingAndGlyphs" textLength="21" x="209" y="1001.1802">ret</text><text fill="#000000" font-family="Roboto Condensed" font-size="12" lengthAdjust="spacingAndGlyphs" textLength="10" x="233" y="1000.7583">to</text><text fill="#000000" filter="url(#b1h72kftqw6tnz0)" font-family="monospace" font-size="12" font-style="italic" lengthAdjust="spacingAndGlyphs" textLength="98" x="246" y="1001.1802">spell_break(s)</text><rect fill="#FFFFFF" filter="url(#f1h72kftqw6tnz)" height="35.8262" rx="12.5" ry="12.5" style="stroke: #000000; stroke-width: 1.5;" width="140" x="197.5" y="1083.2639"/><text fill="#000000" font-family="Roboto Condensed" font-size="12" lengthAdjust="spacingAndGlyphs" textLength="49" x="207.5" y="1105.8381">append to</text><text fill="#000000" font-family="monospace" font-size="12" font-weight="bold" lengthAdjust="spacingAndGlyphs" textLength="7" x="259.5" y="1106.26">s</text><text fill="#000000" font-family="Roboto Condensed" font-size="12" lengthAdjust="spacingAndGlyphs" textLength="48" x="269.5" y="1105.8381">character</text><text fill="#000000" font-family="monospace" font-size="12" lengthAdjust="spacingAndGlyphs" text-decoration="underline" textLength="7" x="320.5" y="1106.26">.</text><line style="stroke: #000000; stroke-width: 1.0;" x1="320.5" x2="327.5" y1="1108.26" y2="1108.26"/><rect fill="#FFFFFF" filter="url(#f1h72kftqw6tnz)" height="35.8262" rx="12.5" ry="12.5" style="stroke: #000000; stroke-width: 1.5;" width="173" x="181" y="1154.0901"/><text fill="#000000" font-family="Roboto Condensed" font-size="12" lengthAdjust="spacingAndGlyphs" textLength="15" x="191" y="1176.6643">set</text><text fill="#000000" font-family="monospace" font-size="12" font-weight="bold" lengthAdjust="spacingAndGlyphs" textLength="21" x="209" y="1177.0862">ret</text><text fill="#000000" font-family="Roboto Condensed" font-size="12" lengthAdjust="spacingAndGlyphs" textLength="10" x="233" y="1176.6643">to</text><text fill="#000000" filter="url(#b1h72kftqw6tnz0)" font-family="monospace" font-size="12" font-style="italic" lengthAdjust="spacingAndGlyphs" textLength="98" x="246" y="1177.0862">spell_break(s)</text><polygon fill="#FFFFFF" filter="url(#f1h72kftqw6tnz)" points="151.5,1034.0103,383.5,1034.0103,395.5,1046.0103,383.5,1058.0103,151.5,1058.0103,139.5,1046.0103,151.5,1034.0103" style="stroke: #000000; stroke-width: 1.5;"/><text fill="#000000" font-family="Roboto Condensed" font-size="11" lengthAdjust="spacingAndGlyphs" textLength="15" x="271.5" y="1069.5366">yes</text><text fill="#000000" font-family="monospace" font-size="11" font-weight="bold" lengthAdjust="spacingAndGlyphs" textLength="21" x="151.5" y="1050.6697">ret</text><text fill="#000000" font-family="Roboto Condensed" font-size="11" lengthAdjust="spacingAndGlyphs" textLength="25" x="175.5" y="1050.283">is not</text><text fill="#000000" font-family="monospace" font-size="11" lengthAdjust="spacingAndGlyphs" text-decoration="underline" textLength="28" x="203.5" y="1050.6697">TRUE</text><line style="stroke: #000000; stroke-width: 1.0;" x1="203.5" x2="231.5" y1="1052.6697" y2="1052.6697"/><text fill="#000000" font-family="Roboto Condensed" font-size="11" lengthAdjust="spacingAndGlyphs" textLength="15" x="234.5" y="1050.283">and</text><text fill="#000000" font-family="monospace" font-size="11" font-weight="bold" lengthAdjust="spacingAndGlyphs" textLength="84" x="252.5" y="1050.6697">abbreviation</text><text fill="#000000" font-family="Roboto Condensed" font-size="11" lengthAdjust="spacingAndGlyphs" textLength="8" x="339.5" y="1050.283">is</text><text fill="#000000" font-family="monospace" font-size="11" lengthAdjust="spacingAndGlyphs" text-decoration="underline" textLength="28" x="350.5" y="1050.6697">TRUE</text><line style="stroke: #000000; stroke-width: 1.0;" x1="350.5" x2="378.5" y1="1052.6697" y2="1052.6697"/><text fill="#000000" font-family="Roboto Condensed" font-size="11" lengthAdjust="spacingAndGlyphs" textLength="5" x="378.5" y="1050.283">?</text><text fill="#000000" font-family="Roboto Condensed" font-size="11" lengthAdjust="spacingAndGlyphs" textLength="11" x="395.5" y="1043.0293">no</text><polygon fill="#FFFFFF" filter="url(#f1h72kftqw6tnz)" points="267.5,1209.9163,279.5,1221.9163,267.5,1233.9163,255.5,1221.9163,267.5,1209.9163" style="stroke: #000000; stroke-width: 1.5;"/><rect fill="#FFFFFF" filter="url(#f1h72kftqw6tnz)" height="35.8262" rx="12.5" ry="12.5" style="stroke: #000000; stroke-width: 1.5;" width="74" x="230.5" y="1253.9163"/><text fill="#000000" font-family="Roboto Condensed" font-size="12" lengthAdjust="spacingAndGlyphs" textLength="30" x="240.5" y="1276.4905">return</text><text fill="#000000" font-family="monospace" font-size="12" font-weight="bold" lengthAdjust="spacingAndGlyphs" textLength="21" x="273.5" y="1276.9124">ret</text><ellipse cx="267.5" cy="1331.7424" fill="none" filter="url(#f1h72kftqw6tnz)" rx="10" ry="10" style="stroke: #000000; stroke-width: 1.0;"/><ellipse cx="268" cy="1332.2424" fill="#000000" filter="url(#f1h72kftqw6tnz)" rx="6" ry="6" style="stroke: none; stroke-width: 1.0;"/><line style="stroke: #000000; stroke-width: 1.5;" x1="267.5" x2="267.5" y1="158.8191" y2="185.406"/><polygon fill="#000000" points="263.5,175.406,267.5,185.406,271.5,175.406,267.5,179.406" style="stroke: #000000; stroke-width: 1.0;"/><line style="stroke: #000000; stroke-width: 1.5;" x1="267.5" x2="267.5" y1="97.7393" y2="122.9929"/><polygon fill="#000000" points="263.5,112.9929,267.5,122.9929,271.5,112.9929,267.5,116.9929" style="stroke: #000000; stroke-width: 1.0;"/><line style="stroke: #000000; stroke-width: 1.5;" x1="409" x2="421" y1="85.7393" y2="85.7393"/><polygon fill="#000000" points="417,155.406,421,165.406,425,155.406,421,159.406" style="stroke: #000000; stroke-width: 1.5;"/><line style="stroke: #000000; stroke-width: 1.5;" x1="421" x2="421" y1="85.7393" y2="227.406"/><line style="stroke: #000000; stroke-width: 1.5;" x1="421" x2="267.5" y1="227.406" y2="227.406"/><line style="stroke: #000000; stroke-width: 1.5;" x1="267.5" x2="267.5" y1="227.406" y2="247.406"/><polygon fill="#000000" points="263.5,237.406,267.5,247.406,271.5,237.406,267.5,241.406" style="stroke: #000000; stroke-width: 1.0;"/><line style="stroke: #000000; stroke-width: 1.5;" x1="267.5" x2="267.5" y1="53.7393" y2="73.7393"/><polygon fill="#000000" points="263.5,63.7393,267.5,73.7393,271.5,63.7393,267.5,67.7393" style="stroke: #000000; stroke-width: 1.0;"/><line style="stroke: #000000; stroke-width: 1.5;" x1="78" x2="78" y1="424.5486" y2="459.5486"/><polygon fill="#000000" points="74,449.5486,78,459.5486,82,449.5486,78,453.5486" style="stroke: #000000; stroke-width: 1.0;"/><line style="stroke: #000000; stroke-width: 1.5;" x1="78" x2="78" y1="355.696" y2="388.7224"/><polygon fill="#000000" points="74,378.7224,78,388.7224,82,378.7224,78,382.7224" style="stroke: #000000; stroke-width: 1.0;"/><line style="stroke: #000000; stroke-width: 1.5;" x1="239" x2="239" y1="355.696" y2="388.7224"/><polygon fill="#000000" points="235,378.7224,239,388.7224,243,378.7224,239,382.7224" style="stroke: #000000; stroke-width: 1.0;"/><line style="stroke: #000000; stroke-width: 1.5;" x1="239" x2="239" y1="424.5486" y2="499.5486"/><polygon fill="#000000" points="235,489.5486,239,499.5486,243,489.5486,239,493.5486" style="stroke: #000000; stroke-width: 1.0;"/><line style="stroke: #000000; stroke-width: 1.5;" x1="116" x2="180" y1="343.696" y2="343.696"/><polygon fill="#000000" points="170,339.696,180,343.696,170,347.696,174,343.696" style="stroke: #000000; stroke-width: 1.0;"/><line style="stroke: #000000; stroke-width: 1.5;" x1="267.5" x2="267.5" y1="283.2322" y2="316.696"/><line style="stroke: #000000; stroke-width: 1.5;" x1="267.5" x2="78" y1="316.696" y2="316.696"/><line style="stroke: #000000; stroke-width: 1.5;" x1="78" x2="78" y1="316.696" y2="331.696"/><polygon fill="#000000" points="74,321.696,78,331.696,82,321.696,78,325.696" style="stroke: #000000; stroke-width: 1.0;"/><line style="stroke: #000000; stroke-width: 1.5;" x1="298" x2="428.5" y1="343.696" y2="343.696"/><line style="stroke: #000000; stroke-width: 1.5;" x1="428.5" x2="428.5" y1="343.696" y2="411.9688"/><polygon fill="#000000" points="424.5,401.9688,428.5,411.9688,432.5,401.9688,428.5,405.9688" style="stroke: #000000; stroke-width: 1.0;"/><line style="stroke: #000000; stroke-width: 1.5;" x1="428.5" x2="428.5" y1="447.7949" y2="499.5486"/><polygon fill="#000000" points="424.5,489.5486,428.5,499.5486,432.5,489.5486,428.5,493.5486" style="stroke: #000000; stroke-width: 1.0;"/><line style="stroke: #000000; stroke-width: 1.5;" x1="239" x2="428.5" y1="499.5486" y2="499.5486"/><line style="stroke: #000000; stroke-width: 1.5;" x1="155" x2="155" y1="717.481" y2="744.0679"/><polygon fill="#000000" points="151,734.0679,155,744.0679,159,734.0679,155,738.0679" style="stroke: #000000; stroke-width: 1.0;"/><line style="stroke: #000000; stroke-width: 1.5;" x1="155" x2="155" y1="656.4011" y2="681.6548"/><polygon fill="#000000" points="151,671.6548,155,681.6548,159,671.6548,155,675.6548" style="stroke: #000000; stroke-width: 1.0;"/><line style="stroke: #000000; stroke-width: 1.5;" x1="193" x2="223" y1="644.4011" y2="644.4011"/><polygon fill="#000000" points="219,714.0679,223,724.0679,227,714.0679,223,718.0679" style="stroke: #000000; stroke-width: 1.5;"/><line style="stroke: #000000; stroke-width: 1.5;" x1="223" x2="223" y1="644.4011" y2="786.0679"/><line style="stroke: #000000; stroke-width: 1.5;" x1="223" x2="155" y1="786.0679" y2="786.0679"/><line style="stroke: #000000; stroke-width: 1.5;" x1="155" x2="155" y1="786.0679" y2="806.0679"/><polygon fill="#000000" points="151,796.0679,155,806.0679,159,796.0679,155,800.0679" style="stroke: #000000; stroke-width: 1.0;"/><line style="stroke: #000000; stroke-width: 1.5;" x1="155" x2="155" y1="612.4011" y2="632.4011"/><polygon fill="#000000" points="151,622.4011,155,632.4011,159,622.4011,155,626.4011" style="stroke: #000000; stroke-width: 1.0;"/><line style="stroke: #000000; stroke-width: 1.5;" x1="350.5" x2="350.5" y1="612.4011" y2="632.4011"/><polygon fill="#000000" points="346.5,622.4011,350.5,632.4011,354.5,622.4011,350.5,626.4011" style="stroke: #000000; stroke-width: 1.0;"/><line style="stroke: #000000; stroke-width: 1.5;" x1="155" x2="155" y1="543.5486" y2="576.575"/><polygon fill="#000000" points="151,566.575,155,576.575,159,566.575,155,570.575" style="stroke: #000000; stroke-width: 1.0;"/><line style="stroke: #000000; stroke-width: 1.5;" x1="350.5" x2="350.5" y1="543.5486" y2="576.575"/><polygon fill="#000000" points="346.5,566.575,350.5,576.575,354.5,566.575,350.5,570.575" style="stroke: #000000; stroke-width: 1.0;"/><line style="stroke: #000000; stroke-width: 1.5;" x1="232.5" x2="273" y1="531.5486" y2="531.5486"/><polygon fill="#000000" points="263,527.5486,273,531.5486,263,535.5486,267,531.5486" style="stroke: #000000; stroke-width: 1.0;"/><line style="stroke: #000000; stroke-width: 1.5;" x1="267.5" x2="267.5" y1="499.5486" y2="504.5486"/><line style="stroke: #000000; stroke-width: 1.5;" x1="267.5" x2="155" y1="504.5486" y2="504.5486"/><line style="stroke: #000000; stroke-width: 1.5;" x1="155" x2="155" y1="504.5486" y2="519.5486"/><polygon fill="#000000" points="151,509.5486,155,519.5486,159,509.5486,155,513.5486" style="stroke: #000000; stroke-width: 1.0;"/><line style="stroke: #000000; stroke-width: 1.5;" x1="428" x2="463" y1="531.5486" y2="531.5486"/><line style="stroke: #000000; stroke-width: 1.5;" x1="463" x2="463" y1="531.5486" y2="806.0679"/><polygon fill="#000000" points="459,796.0679,463,806.0679,467,796.0679,463,800.0679" style="stroke: #000000; stroke-width: 1.0;"/><line style="stroke: #000000; stroke-width: 1.5;" x1="155" x2="463" y1="806.0679" y2="806.0679"/><line style="stroke: #000000; stroke-width: 1.5;" x1="267.5" x2="267.5" y1="902.3579" y2="922.3579"/><polygon fill="#000000" points="263.5,912.3579,267.5,922.3579,271.5,912.3579,267.5,916.3579" style="stroke: #000000; stroke-width: 1.0;"/><line style="stroke: #000000; stroke-width: 1.5;" x1="267.5" x2="267.5" y1="958.1841" y2="978.1841"/><polygon fill="#000000" points="263.5,968.1841,267.5,978.1841,271.5,968.1841,267.5,972.1841" style="stroke: #000000; stroke-width: 1.0;"/><line style="stroke: #000000; stroke-width: 1.5;" x1="267.5" x2="267.5" y1="1119.0901" y2="1154.0901"/><polygon fill="#000000" points="263.5,1144.0901,267.5,1154.0901,271.5,1144.0901,267.5,1148.0901" style="stroke: #000000; stroke-width: 1.0;"/><line style="stroke: #000000; stroke-width: 1.5;" x1="267.5" x2="267.5" y1="1058.0103" y2="1083.2639"/><polygon fill="#000000" points="263.5,1073.2639,267.5,1083.2639,271.5,1073.2639,267.5,1077.2639" style="stroke: #000000; stroke-width: 1.0;"/><line style="stroke: #000000; stroke-width: 1.5;" x1="395.5" x2="407.5" y1="1046.0103" y2="1046.0103"/><polygon fill="#000000" points="403.5,1126.5901,407.5,1136.5901,411.5,1126.5901,407.5,1130.5901" style="stroke: #000000; stroke-width: 1.5;"/><line style="stroke: #000000; stroke-width: 1.5;" x1="407.5" x2="407.5" y1="1046.0103" y2="1221.9163"/><line style="stroke: #000000; stroke-width: 1.5;" x1="407.5" x2="279.5" y1="1221.9163" y2="1221.9163"/><polygon fill="#000000" points="289.5,1217.9163,279.5,1221.9163,289.5,1225.9163,285.5,1221.9163" style="stroke: #000000; stroke-width: 1.0;"/><line style="stroke: #000000; stroke-width: 1.5;" x1="267.5" x2="267.5" y1="1189.9163" y2="1209.9163"/><polygon fill="#000000" points="263.5,1199.9163,267.5,1209.9163,271.5,1199.9163,267.5,1203.9163" style="stroke: #000000; stroke-width: 1.0;"/><line style="stroke: #000000; stroke-width: 1.5;" x1="267.5" x2="267.5" y1="1014.0103" y2="1034.0103"/><polygon fill="#000000" points="263.5,1024.0103,267.5,1034.0103,271.5,1024.0103,267.5,1028.0103" style="stroke: #000000; stroke-width: 1.0;"/><line style="stroke: #000000; stroke-width: 1.5;" x1="267.5" x2="267.5" y1="1233.9163" y2="1253.9163"/><polygon fill="#000000" points="263.5,1243.9163,267.5,1253.9163,271.5,1243.9163,267.5,1247.9163" style="stroke: #000000; stroke-width: 1.0;"/><line style="stroke: #000000; stroke-width: 1.5;" x1="267.5" x2="267.5" y1="806.0679" y2="866.5317"/><polygon fill="#000000" points="263.5,856.5317,267.5,866.5317,271.5,856.5317,267.5,860.5317" style="stroke: #000000; stroke-width: 1.0;"/><line style="stroke: #000000; stroke-width: 1.5;" x1="267.5" x2="267.5" y1="1289.7424" y2="1321.7424"/><polygon fill="#000000" points="263.5,1311.7424,267.5,1321.7424,271.5,1311.7424,267.5,1315.7424" style="stroke: #000000; stroke-width: 1.0;"/><!--
@startuml
skinparam BackgroundColor White|White
skinparam ArrowColor Black
skinparam DefaultFontName Roboto Condensed
skinparam TitleFontStyle Bold

skinparam NoteBackgroundColor White
skinparam NoteBorderColor Black

skinparam UsecaseBackgroundColor White
skinparam ActorBackgroundColor White
skinparam UsecaseBorderColor Black
skinparam ActorBorderColor Black

skinparam usecase {
	BackgroundColor<<for now out of scope>> Gray
}

skinparam StateBackgroundColor White
skinparam StateBorderColor Black

skinparam ActivityBackgroundColor White
skinparam ActivityDiamondBackgroundColor White
skinparam ActivityBorderColor Black
skinparam ActivityDiamondBorderColor Black

skinparam ClassBackgroundColor White
skinparam ClassBorderColor Black

title Nuspell - Check Spelling - ""spell_priv(string s)""

start

if (length **""s""** is greater or equal to global __""WORDMAXLENGTH""__?) then (yes)
    :return __""BAD_WORD""__;
	stop
else (no)
endif

#skyblue:do on **""s""** global input conversion;

partition "handle abbreviations and numbers  " {
    if (**""s""** is empty?) then (yes)
        :return __""GOOD_WORD""__;
	    stop
    elseif (last character **""s""** is __"".""__?) then (yes)
        :set **""abbreviation""** to __""TRUE""__;
    else (no)
        :set **""abbreviation""** to __""FALSE""__;
    endif

    if (**""abbreviation""** is __""TRUE""__?) then (yes)
        :remove from **""s""** trailing characters __"".""__;
        if (**""s""** is empty?) then (yes)
            :return __""GOOD_WORD""__;
	        stop
        else (no)
        endif
    elseif (<back:skyblue>//""is_number(s)""//</back> is __""TRUE""__?) then (yes)
        :return __""GOOD_WORD""__;
	    stop
    else (no)
    endif
} 
partition "handle break patterns  " {
    #skyblue:remove from **""s""** global ignored characters;
    :copy **""s""** to **""c""**;
    :set **""ret""** to <back:skyblue>//""spell_break(s)""//</back>;
    if (**""ret""** is not __""TRUE""__ and **""abbreviation""** is __""TRUE""__?) then (yes)
        :append to **""s""** character __"".""__;
        :set **""ret""** to <back:skyblue>//""spell_break(s)""//</back>;
    else (no)
    endif
    :return **""ret""**;
}

stop

@enduml

PlantUML version 1.2018.06(Mon May 21 12:34:53 CEST 2018)
(GPL source distribution)
Java Runtime: OpenJDK Runtime Environment
JVM: OpenJDK 64-Bit Server VM
Java Version: 10.0.2+13-Ubuntu-1ubuntu0.18.04.2
Operating System: Linux
OS Version: 4.15.0-34-generic
Default Encoding: UTF-8
Language: en
Country: US
--></g></svg>