<?xml version="1.0" encoding="UTF-8" standalone="no"?><svg xmlns="http://www.w3.org/2000/svg" xmlns:xlink="http://www.w3.org/1999/xlink" contentScriptType="application/ecmascript" contentStyleType="text/css" height="1106px" preserveAspectRatio="none" style="width:624px;height:1106px;" version="1.1" viewBox="0 0 624 1106" width="624px" zoomAndPan="magnify"><defs><linearGradient id="ga0qj7disxcgl0" x1="0%" x2="100%" y1="50%" y2="50%"><stop offset="0%" stop-color="#FFFFFF"/><stop offset="100%" stop-color="#FFFFFF"/></linearGradient><filter height="300%" id="fa0qj7disxcgl" width="300%" x="-1" y="-1"><feGaussianBlur result="blurOut" stdDeviation="2.0"/><feColorMatrix in="blurOut" result="blurOut2" type="matrix" values="0 0 0 0 0 0 0 0 0 0 0 0 0 0 0 0 0 0 .4 0"/><feOffset dx="4.0" dy="4.0" in="blurOut2" result="blurOut3"/><feBlend in="SourceGraphic" in2="blurOut3" mode="normal"/></filter><filter height="1" id="ba0qj7disxcgl0" width="1" x="0" y="0"><feFlood flood-color="#87CEEB" result="flood"/><feComposite in="SourceGraphic" in2="flood" operator="over"/></filter></defs><g><rect fill="url(#ga0qj7disxcgl0)" height="1106" style="stroke: none; stroke-width: 1.0;" width="624" x="0" y="0"/><text fill="#000000" font-family="Roboto Condensed" font-size="18" font-weight="bold" lengthAdjust="spacingAndGlyphs" textLength="200" x="12" y="26.6992">Nuspell - Check Spelling -</text><text fill="#000000" font-family="monospace" font-size="18" font-weight="bold" lengthAdjust="spacingAndGlyphs" textLength="396" x="216" y="26.8486">spell_break(string s, integer depth)</text><ellipse cx="275.75" cy="41.0938" fill="#000000" filter="url(#fa0qj7disxcgl)" rx="10" ry="10" style="stroke: none; stroke-width: 1.0;"/><rect fill="#FFFFFF" filter="url(#fa0qj7disxcgl)" height="34.0625" rx="12.5" ry="12.5" style="stroke: #000000; stroke-width: 1.5;" width="181" x="185.25" y="71.0938"/><text fill="#000000" font-family="Roboto Condensed" font-size="12" lengthAdjust="spacingAndGlyphs" textLength="16" x="195.25" y="92.2266">set</text><text fill="#000000" font-family="monospace" font-size="12" font-weight="bold" lengthAdjust="spacingAndGlyphs" textLength="21" x="214.25" y="92.3262">ret</text><text fill="#000000" font-family="Roboto Condensed" font-size="12" lengthAdjust="spacingAndGlyphs" textLength="10" x="238.25" y="92.2266">to</text><text fill="#000000" filter="url(#ba0qj7disxcgl0)" font-family="monospace" font-size="12" font-style="italic" lengthAdjust="spacingAndGlyphs" textLength="105" x="251.25" y="92.3262">spell_casing(s)</text><rect fill="#FFFFFF" filter="url(#fa0qj7disxcgl)" height="34.0625" rx="12.5" ry="12.5" style="stroke: #000000; stroke-width: 1.5;" width="109" x="221.25" y="222.0469"/><text fill="#000000" font-family="Roboto Condensed" font-size="12" lengthAdjust="spacingAndGlyphs" textLength="30" x="231.25" y="243.1797">return</text><text fill="#000000" font-family="monospace" font-size="12" lengthAdjust="spacingAndGlyphs" text-decoration="underline" textLength="56" x="264.25" y="243.2793">BAD_WORD</text><line style="stroke: #000000; stroke-width: 1.0;" x1="264.25" x2="320.25" y1="245.2793" y2="245.2793"/><ellipse cx="275.75" cy="293.5781" fill="none" filter="url(#fa0qj7disxcgl)" rx="10" ry="10" style="stroke: #000000; stroke-width: 1.0;"/><ellipse cx="276.25" cy="294.0781" fill="#000000" filter="url(#fa0qj7disxcgl)" rx="6" ry="6" style="stroke: none; stroke-width: 1.0;"/><polygon fill="#FFFFFF" filter="url(#fa0qj7disxcgl)" points="157.75,173.6016,393.75,173.6016,405.75,185.6016,393.75,197.6016,157.75,197.6016,145.75,185.6016,157.75,173.6016" style="stroke: #000000; stroke-width: 1.5;"/><text fill="#000000" font-family="Roboto Condensed" font-size="11" lengthAdjust="spacingAndGlyphs" textLength="17" x="279.75" y="207.8066">yes</text><text fill="#000000" font-family="monospace" font-size="11" font-weight="bold" lengthAdjust="spacingAndGlyphs" textLength="21" x="157.75" y="189.4526">res</text><text fill="#000000" font-family="Roboto Condensed" font-size="11" lengthAdjust="spacingAndGlyphs" textLength="77" x="181.75" y="189.3613">contains global</text><text fill="#000000" font-family="monospace" font-size="11" font-style="italic" lengthAdjust="spacingAndGlyphs" textLength="126" x="261.75" y="189.4526">forbiddenword_flag</text><text fill="#000000" font-family="Roboto Condensed" font-size="11" lengthAdjust="spacingAndGlyphs" textLength="6" x="387.75" y="189.3613">?</text><text fill="#000000" font-family="Roboto Condensed" font-size="11" lengthAdjust="spacingAndGlyphs" textLength="13" x="405.75" y="182.916">no</text><rect fill="#FFFFFF" filter="url(#fa0qj7disxcgl)" height="34.0625" rx="12.5" ry="12.5" style="stroke: #000000; stroke-width: 1.5;" width="109" x="221.25" y="394.0234"/><text fill="#000000" font-family="Roboto Condensed" font-size="12" lengthAdjust="spacingAndGlyphs" textLength="30" x="231.25" y="415.1563">return</text><text fill="#000000" font-family="monospace" font-size="12" lengthAdjust="spacingAndGlyphs" text-decoration="underline" textLength="56" x="264.25" y="415.2559">BAD_WORD</text><line style="stroke: #000000; stroke-width: 1.0;" x1="264.25" x2="320.25" y1="417.2559" y2="417.2559"/><ellipse cx="275.75" cy="465.5547" fill="none" filter="url(#fa0qj7disxcgl)" rx="10" ry="10" style="stroke: #000000; stroke-width: 1.0;"/><ellipse cx="276.25" cy="466.0547" fill="#000000" filter="url(#fa0qj7disxcgl)" rx="6" ry="6" style="stroke: none; stroke-width: 1.0;"/><polygon fill="#FFFFFF" filter="url(#fa0qj7disxcgl)" points="100.25,345.5781,451.25,345.5781,463.25,357.5781,451.25,369.5781,100.25,369.5781,88.25,357.5781,100.25,345.5781" style="stroke: #000000; stroke-width: 1.5;"/><text fill="#000000" font-family="Roboto Condensed" font-size="11" lengthAdjust="spacingAndGlyphs" textLength="17" x="279.75" y="379.7832">yes</text><text fill="#000000" font-family="Roboto Condensed" font-size="11" lengthAdjust="spacingAndGlyphs" textLength="31" x="100.25" y="361.3379">global</text><text fill="#000000" font-family="monospace" font-size="11" font-style="italic" lengthAdjust="spacingAndGlyphs" textLength="77" x="134.25" y="361.4292">forbid_warn</text><text fill="#000000" font-family="Roboto Condensed" font-size="11" lengthAdjust="spacingAndGlyphs" textLength="9" x="214.25" y="361.3379">is</text><text fill="#000000" font-family="monospace" font-size="11" lengthAdjust="spacingAndGlyphs" text-decoration="underline" textLength="28" x="226.25" y="361.4292">TRUE</text><line style="stroke: #000000; stroke-width: 1.0;" x1="226.25" x2="254.25" y1="363.4292" y2="363.4292"/><text fill="#000000" font-family="Roboto Condensed" font-size="11" lengthAdjust="spacingAndGlyphs" textLength="18" x="257.25" y="361.3379">and</text><text fill="#000000" font-family="monospace" font-size="11" font-weight="bold" lengthAdjust="spacingAndGlyphs" textLength="21" x="278.25" y="361.4292">res</text><text fill="#000000" font-family="Roboto Condensed" font-size="11" lengthAdjust="spacingAndGlyphs" textLength="77" x="302.25" y="361.3379">contains global</text><text fill="#000000" font-family="monospace" font-size="11" font-style="italic" lengthAdjust="spacingAndGlyphs" textLength="63" x="382.25" y="361.4292">warn_flag</text><text fill="#000000" font-family="Roboto Condensed" font-size="11" lengthAdjust="spacingAndGlyphs" textLength="6" x="445.25" y="361.3379">?</text><text fill="#000000" font-family="Roboto Condensed" font-size="11" lengthAdjust="spacingAndGlyphs" textLength="13" x="463.25" y="354.8926">no</text><rect fill="#FFFFFF" filter="url(#fa0qj7disxcgl)" height="34.0625" rx="12.5" ry="12.5" style="stroke: #000000; stroke-width: 1.5;" width="116" x="217.75" y="517.5547"/><text fill="#000000" font-family="Roboto Condensed" font-size="12" lengthAdjust="spacingAndGlyphs" textLength="30" x="227.75" y="538.6875">return</text><text fill="#000000" font-family="monospace" font-size="12" lengthAdjust="spacingAndGlyphs" text-decoration="underline" textLength="63" x="260.75" y="538.7871">GOOD_WORD</text><line style="stroke: #000000; stroke-width: 1.0;" x1="260.75" x2="323.75" y1="540.7871" y2="540.7871"/><ellipse cx="275.75" cy="581.6172" fill="none" filter="url(#fa0qj7disxcgl)" rx="10" ry="10" style="stroke: #000000; stroke-width: 1.0;"/><ellipse cx="276.25" cy="582.1172" fill="#000000" filter="url(#fa0qj7disxcgl)" rx="6" ry="6" style="stroke: none; stroke-width: 1.0;"/><polygon fill="#FFFFFF" filter="url(#fa0qj7disxcgl)" points="230.75,125.1563,320.75,125.1563,332.75,137.1563,320.75,149.1563,230.75,149.1563,218.75,137.1563,230.75,125.1563" style="stroke: #000000; stroke-width: 1.5;"/><text fill="#000000" font-family="Roboto Condensed" font-size="11" lengthAdjust="spacingAndGlyphs" textLength="17" x="279.75" y="159.3613">yes</text><text fill="#000000" font-family="monospace" font-size="11" font-weight="bold" lengthAdjust="spacingAndGlyphs" textLength="21" x="230.75" y="141.0073">res</text><text fill="#000000" font-family="Roboto Condensed" font-size="11" lengthAdjust="spacingAndGlyphs" textLength="66" x="254.75" y="140.916">is not empty?</text><text fill="#000000" font-family="Roboto Condensed" font-size="11" lengthAdjust="spacingAndGlyphs" textLength="13" x="332.75" y="134.4707">no</text><rect fill="#FFFFFF" filter="url(#fa0qj7disxcgl)" height="34.0625" rx="12.5" ry="12.5" style="stroke: #000000; stroke-width: 1.5;" width="109" x="221.25" y="682.0625"/><text fill="#000000" font-family="Roboto Condensed" font-size="12" lengthAdjust="spacingAndGlyphs" textLength="30" x="231.25" y="703.1953">return</text><text fill="#000000" font-family="monospace" font-size="12" lengthAdjust="spacingAndGlyphs" text-decoration="underline" textLength="56" x="264.25" y="703.2949">BAD_WORD</text><line style="stroke: #000000; stroke-width: 1.0;" x1="264.25" x2="320.25" y1="705.2949" y2="705.2949"/><ellipse cx="275.75" cy="753.5938" fill="none" filter="url(#fa0qj7disxcgl)" rx="10" ry="10" style="stroke: #000000; stroke-width: 1.0;"/><ellipse cx="276.25" cy="754.0938" fill="#000000" filter="url(#fa0qj7disxcgl)" rx="6" ry="6" style="stroke: none; stroke-width: 1.0;"/><polygon fill="#FFFFFF" filter="url(#fa0qj7disxcgl)" points="244.25,633.6172,307.25,633.6172,319.25,645.6172,307.25,657.6172,244.25,657.6172,232.25,645.6172,244.25,633.6172" style="stroke: #000000; stroke-width: 1.5;"/><text fill="#000000" font-family="Roboto Condensed" font-size="11" lengthAdjust="spacingAndGlyphs" textLength="17" x="279.75" y="667.8223">yes</text><text fill="#000000" font-family="monospace" font-size="11" font-weight="bold" lengthAdjust="spacingAndGlyphs" textLength="35" x="244.25" y="649.4683">depth</text><text fill="#000000" font-family="Roboto Condensed" font-size="11" lengthAdjust="spacingAndGlyphs" textLength="9" x="282.25" y="649.377">is</text><text fill="#000000" font-family="monospace" font-size="11" lengthAdjust="spacingAndGlyphs" text-decoration="underline" textLength="7" x="294.25" y="649.4683">9</text><line style="stroke: #000000; stroke-width: 1.0;" x1="294.25" x2="301.25" y1="651.4683" y2="651.4683"/><text fill="#000000" font-family="Roboto Condensed" font-size="11" lengthAdjust="spacingAndGlyphs" textLength="6" x="301.25" y="649.377">?</text><text fill="#000000" font-family="Roboto Condensed" font-size="11" lengthAdjust="spacingAndGlyphs" textLength="13" x="319.25" y="642.9316">no</text><rect fill="#FFFFFF" filter="url(#fa0qj7disxcgl)" height="34.0625" rx="12.5" ry="12.5" style="stroke: #000000; stroke-width: 1.5;" width="227" x="162.25" y="805.5938"/><text fill="#000000" font-family="Roboto Condensed" font-size="12" lengthAdjust="spacingAndGlyphs" textLength="16" x="172.25" y="826.7266">set</text><text fill="#000000" font-family="monospace" font-size="12" font-weight="bold" lengthAdjust="spacingAndGlyphs" textLength="77" x="191.25" y="826.8262">break_table</text><text fill="#000000" font-family="Roboto Condensed" font-size="12" lengthAdjust="spacingAndGlyphs" textLength="108" x="271.25" y="826.7266">to global break table</text><path d="M403.75,864.0703 L403.75,889.3047 L538.75,889.3047 L538.75,874.0703 L528.75,864.0703 L403.75,864.0703 " fill="#FFFFFF" filter="url(#fa0qj7disxcgl)" style="stroke: #000000; stroke-width: 1.0;"/><path d="M528.75,864.0703 L528.75,874.0703 L538.75,874.0703 L528.75,864.0703 " fill="#FFFFFF" style="stroke: #000000; stroke-width: 1.0;"/><text fill="#000000" font-family="Roboto Condensed" font-size="13" font-style="italic" lengthAdjust="spacingAndGlyphs" textLength="114" x="409.75" y="881.1309">This will be exapanded</text><rect fill="#FFFFFF" filter="url(#fa0qj7disxcgl)" height="34.0625" rx="12.5" ry="12.5" style="stroke: #000000; stroke-width: 1.5;" width="216" x="167.75" y="859.6563"/><text fill="#000000" font-family="Roboto Condensed" font-size="12" lengthAdjust="spacingAndGlyphs" textLength="196" x="177.75" y="880.7891">handle break pattern in start of a word</text><path d="M402.75,918.1328 L402.75,943.3672 L537.75,943.3672 L537.75,928.1328 L527.75,918.1328 L402.75,918.1328 " fill="#FFFFFF" filter="url(#fa0qj7disxcgl)" style="stroke: #000000; stroke-width: 1.0;"/><path d="M527.75,918.1328 L527.75,928.1328 L537.75,928.1328 L527.75,918.1328 " fill="#FFFFFF" style="stroke: #000000; stroke-width: 1.0;"/><text fill="#000000" font-family="Roboto Condensed" font-size="13" font-style="italic" lengthAdjust="spacingAndGlyphs" textLength="114" x="408.75" y="935.1934">This will be exapanded</text><rect fill="#FFFFFF" filter="url(#fa0qj7disxcgl)" height="34.0625" rx="12.5" ry="12.5" style="stroke: #000000; stroke-width: 1.5;" width="214" x="168.75" y="913.7188"/><text fill="#000000" font-family="Roboto Condensed" font-size="12" lengthAdjust="spacingAndGlyphs" textLength="194" x="178.75" y="934.8516">handle break pattern in end of a word</text><path d="M410.75,972.1953 L410.75,997.4297 L545.75,997.4297 L545.75,982.1953 L535.75,972.1953 L410.75,972.1953 " fill="#FFFFFF" filter="url(#fa0qj7disxcgl)" style="stroke: #000000; stroke-width: 1.0;"/><path d="M535.75,972.1953 L535.75,982.1953 L545.75,982.1953 L535.75,972.1953 " fill="#FFFFFF" style="stroke: #000000; stroke-width: 1.0;"/><text fill="#000000" font-family="Roboto Condensed" font-size="13" font-style="italic" lengthAdjust="spacingAndGlyphs" textLength="114" x="416.75" y="989.2559">This will be exapanded</text><rect fill="#FFFFFF" filter="url(#fa0qj7disxcgl)" height="34.0625" rx="12.5" ry="12.5" style="stroke: #000000; stroke-width: 1.5;" width="230" x="160.75" y="967.7813"/><text fill="#000000" font-family="Roboto Condensed" font-size="12" lengthAdjust="spacingAndGlyphs" textLength="210" x="170.75" y="988.9141">handle break pattern in middle of a word</text><rect fill="#FFFFFF" filter="url(#fa0qj7disxcgl)" height="34.0625" rx="12.5" ry="12.5" style="stroke: #000000; stroke-width: 1.5;" width="109" x="221.25" y="1021.8438"/><text fill="#000000" font-family="Roboto Condensed" font-size="12" lengthAdjust="spacingAndGlyphs" textLength="30" x="231.25" y="1042.9766">return</text><text fill="#000000" font-family="monospace" font-size="12" lengthAdjust="spacingAndGlyphs" text-decoration="underline" textLength="56" x="264.25" y="1043.0762">BAD_WORD</text><line style="stroke: #000000; stroke-width: 1.0;" x1="264.25" x2="320.25" y1="1045.0762" y2="1045.0762"/><ellipse cx="275.75" cy="1085.9063" fill="none" filter="url(#fa0qj7disxcgl)" rx="10" ry="10" style="stroke: #000000; stroke-width: 1.0;"/><ellipse cx="276.25" cy="1086.4063" fill="#000000" filter="url(#fa0qj7disxcgl)" rx="6" ry="6" style="stroke: none; stroke-width: 1.0;"/><line style="stroke: #000000; stroke-width: 1.5;" x1="275.75" x2="275.75" y1="51.0938" y2="71.0938"/><polygon fill="#000000" points="271.75,61.0938,275.75,71.0938,279.75,61.0938,275.75,65.0938" style="stroke: #000000; stroke-width: 1.0;"/><line style="stroke: #000000; stroke-width: 1.5;" x1="275.75" x2="275.75" y1="256.1094" y2="283.5781"/><polygon fill="#000000" points="271.75,273.5781,275.75,283.5781,279.75,273.5781,275.75,277.5781" style="stroke: #000000; stroke-width: 1.0;"/><line style="stroke: #000000; stroke-width: 1.5;" x1="275.75" x2="275.75" y1="197.6016" y2="222.0469"/><polygon fill="#000000" points="271.75,212.0469,275.75,222.0469,279.75,212.0469,275.75,216.0469" style="stroke: #000000; stroke-width: 1.0;"/><line style="stroke: #000000; stroke-width: 1.5;" x1="405.75" x2="417.75" y1="185.6016" y2="185.6016"/><polygon fill="#000000" points="413.75,253.5781,417.75,263.5781,421.75,253.5781,417.75,257.5781" style="stroke: #000000; stroke-width: 1.5;"/><line style="stroke: #000000; stroke-width: 1.5;" x1="417.75" x2="417.75" y1="185.6016" y2="325.5781"/><line style="stroke: #000000; stroke-width: 1.5;" x1="417.75" x2="275.75" y1="325.5781" y2="325.5781"/><line style="stroke: #000000; stroke-width: 1.5;" x1="275.75" x2="275.75" y1="325.5781" y2="345.5781"/><polygon fill="#000000" points="271.75,335.5781,275.75,345.5781,279.75,335.5781,275.75,339.5781" style="stroke: #000000; stroke-width: 1.0;"/><line style="stroke: #000000; stroke-width: 1.5;" x1="275.75" x2="275.75" y1="428.0859" y2="455.5547"/><polygon fill="#000000" points="271.75,445.5547,275.75,455.5547,279.75,445.5547,275.75,449.5547" style="stroke: #000000; stroke-width: 1.0;"/><line style="stroke: #000000; stroke-width: 1.5;" x1="275.75" x2="275.75" y1="369.5781" y2="394.0234"/><polygon fill="#000000" points="271.75,384.0234,275.75,394.0234,279.75,384.0234,275.75,388.0234" style="stroke: #000000; stroke-width: 1.0;"/><line style="stroke: #000000; stroke-width: 1.5;" x1="463.25" x2="475.25" y1="357.5781" y2="357.5781"/><polygon fill="#000000" points="471.25,425.5547,475.25,435.5547,479.25,425.5547,475.25,429.5547" style="stroke: #000000; stroke-width: 1.5;"/><line style="stroke: #000000; stroke-width: 1.5;" x1="475.25" x2="475.25" y1="357.5781" y2="497.5547"/><line style="stroke: #000000; stroke-width: 1.5;" x1="475.25" x2="275.75" y1="497.5547" y2="497.5547"/><line style="stroke: #000000; stroke-width: 1.5;" x1="275.75" x2="275.75" y1="497.5547" y2="517.5547"/><polygon fill="#000000" points="271.75,507.5547,275.75,517.5547,279.75,507.5547,275.75,511.5547" style="stroke: #000000; stroke-width: 1.0;"/><line style="stroke: #000000; stroke-width: 1.5;" x1="275.75" x2="275.75" y1="551.6172" y2="571.6172"/><polygon fill="#000000" points="271.75,561.6172,275.75,571.6172,279.75,561.6172,275.75,565.6172" style="stroke: #000000; stroke-width: 1.0;"/><line style="stroke: #000000; stroke-width: 1.5;" x1="275.75" x2="275.75" y1="149.1563" y2="173.6016"/><polygon fill="#000000" points="271.75,163.6016,275.75,173.6016,279.75,163.6016,275.75,167.6016" style="stroke: #000000; stroke-width: 1.0;"/><line style="stroke: #000000; stroke-width: 1.5;" x1="332.75" x2="485.25" y1="137.1563" y2="137.1563"/><polygon fill="#000000" points="481.25,377.1094,485.25,387.1094,489.25,377.1094,485.25,381.1094" style="stroke: #000000; stroke-width: 1.5;"/><line style="stroke: #000000; stroke-width: 1.5;" x1="485.25" x2="485.25" y1="137.1563" y2="613.6172"/><line style="stroke: #000000; stroke-width: 1.5;" x1="485.25" x2="275.75" y1="613.6172" y2="613.6172"/><line style="stroke: #000000; stroke-width: 1.5;" x1="275.75" x2="275.75" y1="613.6172" y2="633.6172"/><polygon fill="#000000" points="271.75,623.6172,275.75,633.6172,279.75,623.6172,275.75,627.6172" style="stroke: #000000; stroke-width: 1.0;"/><line style="stroke: #000000; stroke-width: 1.5;" x1="275.75" x2="275.75" y1="105.1563" y2="125.1563"/><polygon fill="#000000" points="271.75,115.1563,275.75,125.1563,279.75,115.1563,275.75,119.1563" style="stroke: #000000; stroke-width: 1.0;"/><line style="stroke: #000000; stroke-width: 1.5;" x1="275.75" x2="275.75" y1="716.125" y2="743.5938"/><polygon fill="#000000" points="271.75,733.5938,275.75,743.5938,279.75,733.5938,275.75,737.5938" style="stroke: #000000; stroke-width: 1.0;"/><line style="stroke: #000000; stroke-width: 1.5;" x1="275.75" x2="275.75" y1="657.6172" y2="682.0625"/><polygon fill="#000000" points="271.75,672.0625,275.75,682.0625,279.75,672.0625,275.75,676.0625" style="stroke: #000000; stroke-width: 1.0;"/><line style="stroke: #000000; stroke-width: 1.5;" x1="319.25" x2="340.25" y1="645.6172" y2="645.6172"/><polygon fill="#000000" points="336.25,713.5938,340.25,723.5938,344.25,713.5938,340.25,717.5938" style="stroke: #000000; stroke-width: 1.5;"/><line style="stroke: #000000; stroke-width: 1.5;" x1="340.25" x2="340.25" y1="645.6172" y2="785.5938"/><line style="stroke: #000000; stroke-width: 1.5;" x1="340.25" x2="275.75" y1="785.5938" y2="785.5938"/><line style="stroke: #000000; stroke-width: 1.5;" x1="275.75" x2="275.75" y1="785.5938" y2="805.5938"/><polygon fill="#000000" points="271.75,795.5938,275.75,805.5938,279.75,795.5938,275.75,799.5938" style="stroke: #000000; stroke-width: 1.0;"/><line style="stroke: #000000; stroke-width: 1.5;" x1="275.75" x2="275.75" y1="839.6563" y2="859.6563"/><polygon fill="#000000" points="271.75,849.6563,275.75,859.6563,279.75,849.6563,275.75,853.6563" style="stroke: #000000; stroke-width: 1.0;"/><line style="stroke: #000000; stroke-width: 1.5;" x1="275.75" x2="275.75" y1="893.7188" y2="913.7188"/><polygon fill="#000000" points="271.75,903.7188,275.75,913.7188,279.75,903.7188,275.75,907.7188" style="stroke: #000000; stroke-width: 1.0;"/><line style="stroke: #000000; stroke-width: 1.5;" x1="275.75" x2="275.75" y1="947.7813" y2="967.7813"/><polygon fill="#000000" points="271.75,957.7813,275.75,967.7813,279.75,957.7813,275.75,961.7813" style="stroke: #000000; stroke-width: 1.0;"/><line style="stroke: #000000; stroke-width: 1.5;" x1="275.75" x2="275.75" y1="1001.8438" y2="1021.8438"/><polygon fill="#000000" points="271.75,1011.8438,275.75,1021.8438,279.75,1011.8438,275.75,1015.8438" style="stroke: #000000; stroke-width: 1.0;"/><line style="stroke: #000000; stroke-width: 1.5;" x1="275.75" x2="275.75" y1="1055.9063" y2="1075.9063"/><polygon fill="#000000" points="271.75,1065.9063,275.75,1075.9063,279.75,1065.9063,275.75,1069.9063" style="stroke: #000000; stroke-width: 1.0;"/><!--
@startuml
skinparam BackgroundColor White|White
skinparam ArrowColor Black
skinparam DefaultFontName Roboto Condensed
skinparam TitleFontStyle Bold

skinparam NoteBackgroundColor White
skinparam NoteBorderColor Black

skinparam UsecaseBackgroundColor White
skinparam ActorBackgroundColor White
skinparam UsecaseBorderColor Black
skinparam ActorBorderColor Black

skinparam usecase {
	BackgroundColor<<for now out of scope>> Gray
}

skinparam StateBackgroundColor White
skinparam StateBorderColor Black

skinparam ActivityBackgroundColor White
skinparam ActivityDiamondBackgroundColor White
skinparam ActivityBorderColor Black
skinparam ActivityDiamondBorderColor Black

skinparam ClassBackgroundColor White
skinparam ClassBorderColor Black
hide empty members

title Nuspell - Check Spelling - ""spell_break(string s, integer depth)""

start

:set **""ret""** to <back:skyblue>//""spell_casing(s)""//</back>;
if (**""res""** is not empty?) then (yes)
    if (**""res""** contains global //""forbiddenword_flag""//?) then (yes)
        :return __""BAD_WORD""__;
	    stop
    else (no)
    endif
    if (global //""forbid_warn""// is __""TRUE""__ and **""res""** contains global //""warn_flag""//?) then (yes)
        :return __""BAD_WORD""__;
	    stop
    else (no)
    endif
    :return __""GOOD_WORD""__;
    stop
else (no)
endif

if (**""depth""** is __""9""__?) then (yes)
    :return __""BAD_WORD""__;
	stop
else (no)
endif

:set **""break_table""** to global break table;

:handle break pattern in start of a word;
floating note right: //This will be exapanded//
:handle break pattern in end of a word;
floating note right: //This will be exapanded//
:handle break pattern in middle of a word;
floating note right: //This will be exapanded//

:return __""BAD_WORD""__;

stop

@enduml

PlantUML version 1.2018.12beta1(Unknown compile time)
(GPL source distribution)
Java Runtime: OpenJDK Runtime Environment
JVM: OpenJDK 64-Bit Server VM
Java Version: 10.0.2+13-Ubuntu-1ubuntu0.18.04.2
Operating System: Linux
OS Version: 4.15.0-34-generic
Default Encoding: UTF-8
Language: en
Country: US
--></g></svg>