<?xml version="1.0" encoding="UTF-8" standalone="no"?><svg xmlns="http://www.w3.org/2000/svg" xmlns:xlink="http://www.w3.org/1999/xlink" contentScriptType="application/ecmascript" contentStyleType="text/css" height="1128px" preserveAspectRatio="none" style="width:624px;height:1128px;" version="1.1" viewBox="0 0 624 1128" width="624px" zoomAndPan="magnify"><defs><linearGradient id="g1dwzx75vyzv6m0" x1="0%" x2="100%" y1="50%" y2="50%"><stop offset="0%" stop-color="#FFFFFF"/><stop offset="100%" stop-color="#FFFFFF"/></linearGradient><filter height="300%" id="f1dwzx75vyzv6m" width="300%" x="-1" y="-1"><feGaussianBlur result="blurOut" stdDeviation="2.0"/><feColorMatrix in="blurOut" result="blurOut2" type="matrix" values="0 0 0 0 0 0 0 0 0 0 0 0 0 0 0 0 0 0 .4 0"/><feOffset dx="4.0" dy="4.0" in="blurOut2" result="blurOut3"/><feBlend in="SourceGraphic" in2="blurOut3" mode="normal"/></filter><filter height="1" id="b1dwzx75vyzv6m0" width="1" x="0" y="0"><feFlood flood-color="#87CEEB" result="flood"/><feComposite in="SourceGraphic" in2="flood" operator="over"/></filter></defs><g><rect fill="url(#g1dwzx75vyzv6m0)" height="1128" style="stroke: none; stroke-width: 1.0;" width="624" x="0" y="0"/><text fill="#000000" font-family="Roboto Condensed" font-size="18" font-weight="bold" lengthAdjust="spacingAndGlyphs" textLength="200" x="12" y="26.6992">Nuspell - Check Spelling -</text><text fill="#000000" font-family="monospace" font-size="18" font-weight="bold" lengthAdjust="spacingAndGlyphs" textLength="396" x="216" y="26.8486">spell_break(string s, integer depth)</text><text fill="#000000" font-family="Roboto Condensed" font-size="18" font-weight="bold" lengthAdjust="spacingAndGlyphs" textLength="0" x="314" y="47.793"/><ellipse cx="275.75" cy="62.1875" fill="#000000" filter="url(#f1dwzx75vyzv6m)" rx="10" ry="10" style="stroke: none; stroke-width: 1.0;"/><rect fill="#FFFFFF" filter="url(#f1dwzx75vyzv6m)" height="34.0625" rx="12.5" ry="12.5" style="stroke: #000000; stroke-width: 1.5;" width="181" x="185.25" y="92.1875"/><text fill="#000000" font-family="Roboto Condensed" font-size="12" lengthAdjust="spacingAndGlyphs" textLength="16" x="195.25" y="113.3203">set</text><text fill="#000000" font-family="monospace" font-size="12" font-weight="bold" lengthAdjust="spacingAndGlyphs" textLength="21" x="214.25" y="113.4199">ret</text><text fill="#000000" font-family="Roboto Condensed" font-size="12" lengthAdjust="spacingAndGlyphs" textLength="10" x="238.25" y="113.3203">to</text><text fill="#000000" filter="url(#b1dwzx75vyzv6m0)" font-family="monospace" font-size="12" font-style="italic" lengthAdjust="spacingAndGlyphs" textLength="105" x="251.25" y="113.4199">spell_casing(s)</text><rect fill="#FFFFFF" filter="url(#f1dwzx75vyzv6m)" height="34.0625" rx="12.5" ry="12.5" style="stroke: #000000; stroke-width: 1.5;" width="109" x="221.25" y="243.1406"/><text fill="#000000" font-family="Roboto Condensed" font-size="12" lengthAdjust="spacingAndGlyphs" textLength="30" x="231.25" y="264.2734">return</text><text fill="#000000" font-family="monospace" font-size="12" lengthAdjust="spacingAndGlyphs" text-decoration="underline" textLength="56" x="264.25" y="264.373">BAD_WORD</text><line style="stroke: #000000; stroke-width: 1.0;" x1="264.25" x2="320.25" y1="266.373" y2="266.373"/><ellipse cx="275.75" cy="314.6719" fill="none" filter="url(#f1dwzx75vyzv6m)" rx="10" ry="10" style="stroke: #000000; stroke-width: 1.0;"/><ellipse cx="276.25" cy="315.1719" fill="#000000" filter="url(#f1dwzx75vyzv6m)" rx="6" ry="6" style="stroke: none; stroke-width: 1.0;"/><polygon fill="#FFFFFF" filter="url(#f1dwzx75vyzv6m)" points="157.75,194.6953,393.75,194.6953,405.75,206.6953,393.75,218.6953,157.75,218.6953,145.75,206.6953,157.75,194.6953" style="stroke: #000000; stroke-width: 1.5;"/><text fill="#000000" font-family="Roboto Condensed" font-size="11" lengthAdjust="spacingAndGlyphs" textLength="17" x="279.75" y="228.9004">yes</text><text fill="#000000" font-family="monospace" font-size="11" font-weight="bold" lengthAdjust="spacingAndGlyphs" textLength="21" x="157.75" y="210.5464">res</text><text fill="#000000" font-family="Roboto Condensed" font-size="11" lengthAdjust="spacingAndGlyphs" textLength="77" x="181.75" y="210.4551">contains global</text><text fill="#000000" font-family="monospace" font-size="11" font-style="italic" lengthAdjust="spacingAndGlyphs" textLength="126" x="261.75" y="210.5464">forbiddenword_flag</text><text fill="#000000" font-family="Roboto Condensed" font-size="11" lengthAdjust="spacingAndGlyphs" textLength="6" x="387.75" y="210.4551">?</text><text fill="#000000" font-family="Roboto Condensed" font-size="11" lengthAdjust="spacingAndGlyphs" textLength="13" x="405.75" y="204.0098">no</text><rect fill="#FFFFFF" filter="url(#f1dwzx75vyzv6m)" height="34.0625" rx="12.5" ry="12.5" style="stroke: #000000; stroke-width: 1.5;" width="109" x="221.25" y="415.1172"/><text fill="#000000" font-family="Roboto Condensed" font-size="12" lengthAdjust="spacingAndGlyphs" textLength="30" x="231.25" y="436.25">return</text><text fill="#000000" font-family="monospace" font-size="12" lengthAdjust="spacingAndGlyphs" text-decoration="underline" textLength="56" x="264.25" y="436.3496">BAD_WORD</text><line style="stroke: #000000; stroke-width: 1.0;" x1="264.25" x2="320.25" y1="438.3496" y2="438.3496"/><ellipse cx="275.75" cy="486.6484" fill="none" filter="url(#f1dwzx75vyzv6m)" rx="10" ry="10" style="stroke: #000000; stroke-width: 1.0;"/><ellipse cx="276.25" cy="487.1484" fill="#000000" filter="url(#f1dwzx75vyzv6m)" rx="6" ry="6" style="stroke: none; stroke-width: 1.0;"/><polygon fill="#FFFFFF" filter="url(#f1dwzx75vyzv6m)" points="100.25,366.6719,451.25,366.6719,463.25,378.6719,451.25,390.6719,100.25,390.6719,88.25,378.6719,100.25,366.6719" style="stroke: #000000; stroke-width: 1.5;"/><text fill="#000000" font-family="Roboto Condensed" font-size="11" lengthAdjust="spacingAndGlyphs" textLength="17" x="279.75" y="400.877">yes</text><text fill="#000000" font-family="Roboto Condensed" font-size="11" lengthAdjust="spacingAndGlyphs" textLength="31" x="100.25" y="382.4316">global</text><text fill="#000000" font-family="monospace" font-size="11" font-style="italic" lengthAdjust="spacingAndGlyphs" textLength="77" x="134.25" y="382.5229">forbid_warn</text><text fill="#000000" font-family="Roboto Condensed" font-size="11" lengthAdjust="spacingAndGlyphs" textLength="9" x="214.25" y="382.4316">is</text><text fill="#000000" font-family="monospace" font-size="11" lengthAdjust="spacingAndGlyphs" text-decoration="underline" textLength="28" x="226.25" y="382.5229">TRUE</text><line style="stroke: #000000; stroke-width: 1.0;" x1="226.25" x2="254.25" y1="384.5229" y2="384.5229"/><text fill="#000000" font-family="Roboto Condensed" font-size="11" lengthAdjust="spacingAndGlyphs" textLength="18" x="257.25" y="382.4316">and</text><text fill="#000000" font-family="monospace" font-size="11" font-weight="bold" lengthAdjust="spacingAndGlyphs" textLength="21" x="278.25" y="382.5229">res</text><text fill="#000000" font-family="Roboto Condensed" font-size="11" lengthAdjust="spacingAndGlyphs" textLength="77" x="302.25" y="382.4316">contains global</text><text fill="#000000" font-family="monospace" font-size="11" font-style="italic" lengthAdjust="spacingAndGlyphs" textLength="63" x="382.25" y="382.5229">warn_flag</text><text fill="#000000" font-family="Roboto Condensed" font-size="11" lengthAdjust="spacingAndGlyphs" textLength="6" x="445.25" y="382.4316">?</text><text fill="#000000" font-family="Roboto Condensed" font-size="11" lengthAdjust="spacingAndGlyphs" textLength="13" x="463.25" y="375.9863">no</text><rect fill="#FFFFFF" filter="url(#f1dwzx75vyzv6m)" height="34.0625" rx="12.5" ry="12.5" style="stroke: #000000; stroke-width: 1.5;" width="116" x="217.75" y="538.6484"/><text fill="#000000" font-family="Roboto Condensed" font-size="12" lengthAdjust="spacingAndGlyphs" textLength="30" x="227.75" y="559.7813">return</text><text fill="#000000" font-family="monospace" font-size="12" lengthAdjust="spacingAndGlyphs" text-decoration="underline" textLength="63" x="260.75" y="559.8809">GOOD_WORD</text><line style="stroke: #000000; stroke-width: 1.0;" x1="260.75" x2="323.75" y1="561.8809" y2="561.8809"/><ellipse cx="275.75" cy="602.7109" fill="none" filter="url(#f1dwzx75vyzv6m)" rx="10" ry="10" style="stroke: #000000; stroke-width: 1.0;"/><ellipse cx="276.25" cy="603.2109" fill="#000000" filter="url(#f1dwzx75vyzv6m)" rx="6" ry="6" style="stroke: none; stroke-width: 1.0;"/><polygon fill="#FFFFFF" filter="url(#f1dwzx75vyzv6m)" points="230.75,146.25,320.75,146.25,332.75,158.25,320.75,170.25,230.75,170.25,218.75,158.25,230.75,146.25" style="stroke: #000000; stroke-width: 1.5;"/><text fill="#000000" font-family="Roboto Condensed" font-size="11" lengthAdjust="spacingAndGlyphs" textLength="17" x="279.75" y="180.4551">yes</text><text fill="#000000" font-family="monospace" font-size="11" font-weight="bold" lengthAdjust="spacingAndGlyphs" textLength="21" x="230.75" y="162.1011">res</text><text fill="#000000" font-family="Roboto Condensed" font-size="11" lengthAdjust="spacingAndGlyphs" textLength="66" x="254.75" y="162.0098">is not empty?</text><text fill="#000000" font-family="Roboto Condensed" font-size="11" lengthAdjust="spacingAndGlyphs" textLength="13" x="332.75" y="155.5645">no</text><rect fill="#FFFFFF" filter="url(#f1dwzx75vyzv6m)" height="34.0625" rx="12.5" ry="12.5" style="stroke: #000000; stroke-width: 1.5;" width="109" x="221.25" y="703.1563"/><text fill="#000000" font-family="Roboto Condensed" font-size="12" lengthAdjust="spacingAndGlyphs" textLength="30" x="231.25" y="724.2891">return</text><text fill="#000000" font-family="monospace" font-size="12" lengthAdjust="spacingAndGlyphs" text-decoration="underline" textLength="56" x="264.25" y="724.3887">BAD_WORD</text><line style="stroke: #000000; stroke-width: 1.0;" x1="264.25" x2="320.25" y1="726.3887" y2="726.3887"/><ellipse cx="275.75" cy="774.6875" fill="none" filter="url(#f1dwzx75vyzv6m)" rx="10" ry="10" style="stroke: #000000; stroke-width: 1.0;"/><ellipse cx="276.25" cy="775.1875" fill="#000000" filter="url(#f1dwzx75vyzv6m)" rx="6" ry="6" style="stroke: none; stroke-width: 1.0;"/><polygon fill="#FFFFFF" filter="url(#f1dwzx75vyzv6m)" points="244.25,654.7109,307.25,654.7109,319.25,666.7109,307.25,678.7109,244.25,678.7109,232.25,666.7109,244.25,654.7109" style="stroke: #000000; stroke-width: 1.5;"/><text fill="#000000" font-family="Roboto Condensed" font-size="11" lengthAdjust="spacingAndGlyphs" textLength="17" x="279.75" y="688.916">yes</text><text fill="#000000" font-family="monospace" font-size="11" font-weight="bold" lengthAdjust="spacingAndGlyphs" textLength="35" x="244.25" y="670.562">depth</text><text fill="#000000" font-family="Roboto Condensed" font-size="11" lengthAdjust="spacingAndGlyphs" textLength="9" x="282.25" y="670.4707">is</text><text fill="#000000" font-family="monospace" font-size="11" lengthAdjust="spacingAndGlyphs" text-decoration="underline" textLength="7" x="294.25" y="670.562">9</text><line style="stroke: #000000; stroke-width: 1.0;" x1="294.25" x2="301.25" y1="672.562" y2="672.562"/><text fill="#000000" font-family="Roboto Condensed" font-size="11" lengthAdjust="spacingAndGlyphs" textLength="6" x="301.25" y="670.4707">?</text><text fill="#000000" font-family="Roboto Condensed" font-size="11" lengthAdjust="spacingAndGlyphs" textLength="13" x="319.25" y="664.0254">no</text><rect fill="#FFFFFF" filter="url(#f1dwzx75vyzv6m)" height="34.0625" rx="12.5" ry="12.5" style="stroke: #000000; stroke-width: 1.5;" width="227" x="162.25" y="826.6875"/><text fill="#000000" font-family="Roboto Condensed" font-size="12" lengthAdjust="spacingAndGlyphs" textLength="16" x="172.25" y="847.8203">set</text><text fill="#000000" font-family="monospace" font-size="12" font-weight="bold" lengthAdjust="spacingAndGlyphs" textLength="77" x="191.25" y="847.9199">break_table</text><text fill="#000000" font-family="Roboto Condensed" font-size="12" lengthAdjust="spacingAndGlyphs" textLength="108" x="271.25" y="847.8203">to global break table</text><path d="M403.75,885.1641 L403.75,910.3984 L538.75,910.3984 L538.75,895.1641 L528.75,885.1641 L403.75,885.1641 " fill="#FFFFFF" filter="url(#f1dwzx75vyzv6m)" style="stroke: #000000; stroke-width: 1.0;"/><path d="M528.75,885.1641 L528.75,895.1641 L538.75,895.1641 L528.75,885.1641 " fill="#FFFFFF" style="stroke: #000000; stroke-width: 1.0;"/><text fill="#000000" font-family="Roboto Condensed" font-size="13" font-style="italic" lengthAdjust="spacingAndGlyphs" textLength="114" x="409.75" y="902.2246">This will be exapanded</text><rect fill="#FFFFFF" filter="url(#f1dwzx75vyzv6m)" height="34.0625" rx="12.5" ry="12.5" style="stroke: #000000; stroke-width: 1.5;" width="216" x="167.75" y="880.75"/><text fill="#000000" font-family="Roboto Condensed" font-size="12" lengthAdjust="spacingAndGlyphs" textLength="196" x="177.75" y="901.8828">handle break pattern in start of a word</text><path d="M402.75,939.2266 L402.75,964.4609 L537.75,964.4609 L537.75,949.2266 L527.75,939.2266 L402.75,939.2266 " fill="#FFFFFF" filter="url(#f1dwzx75vyzv6m)" style="stroke: #000000; stroke-width: 1.0;"/><path d="M527.75,939.2266 L527.75,949.2266 L537.75,949.2266 L527.75,939.2266 " fill="#FFFFFF" style="stroke: #000000; stroke-width: 1.0;"/><text fill="#000000" font-family="Roboto Condensed" font-size="13" font-style="italic" lengthAdjust="spacingAndGlyphs" textLength="114" x="408.75" y="956.2871">This will be exapanded</text><rect fill="#FFFFFF" filter="url(#f1dwzx75vyzv6m)" height="34.0625" rx="12.5" ry="12.5" style="stroke: #000000; stroke-width: 1.5;" width="214" x="168.75" y="934.8125"/><text fill="#000000" font-family="Roboto Condensed" font-size="12" lengthAdjust="spacingAndGlyphs" textLength="194" x="178.75" y="955.9453">handle break pattern in end of a word</text><path d="M410.75,993.2891 L410.75,1018.5234 L545.75,1018.5234 L545.75,1003.2891 L535.75,993.2891 L410.75,993.2891 " fill="#FFFFFF" filter="url(#f1dwzx75vyzv6m)" style="stroke: #000000; stroke-width: 1.0;"/><path d="M535.75,993.2891 L535.75,1003.2891 L545.75,1003.2891 L535.75,993.2891 " fill="#FFFFFF" style="stroke: #000000; stroke-width: 1.0;"/><text fill="#000000" font-family="Roboto Condensed" font-size="13" font-style="italic" lengthAdjust="spacingAndGlyphs" textLength="114" x="416.75" y="1010.3496">This will be exapanded</text><rect fill="#FFFFFF" filter="url(#f1dwzx75vyzv6m)" height="34.0625" rx="12.5" ry="12.5" style="stroke: #000000; stroke-width: 1.5;" width="230" x="160.75" y="988.875"/><text fill="#000000" font-family="Roboto Condensed" font-size="12" lengthAdjust="spacingAndGlyphs" textLength="210" x="170.75" y="1010.0078">handle break pattern in middle of a word</text><rect fill="#FFFFFF" filter="url(#f1dwzx75vyzv6m)" height="34.0625" rx="12.5" ry="12.5" style="stroke: #000000; stroke-width: 1.5;" width="109" x="221.25" y="1042.9375"/><text fill="#000000" font-family="Roboto Condensed" font-size="12" lengthAdjust="spacingAndGlyphs" textLength="30" x="231.25" y="1064.0703">return</text><text fill="#000000" font-family="monospace" font-size="12" lengthAdjust="spacingAndGlyphs" text-decoration="underline" textLength="56" x="264.25" y="1064.1699">BAD_WORD</text><line style="stroke: #000000; stroke-width: 1.0;" x1="264.25" x2="320.25" y1="1066.1699" y2="1066.1699"/><ellipse cx="275.75" cy="1107" fill="none" filter="url(#f1dwzx75vyzv6m)" rx="10" ry="10" style="stroke: #000000; stroke-width: 1.0;"/><ellipse cx="276.25" cy="1107.5" fill="#000000" filter="url(#f1dwzx75vyzv6m)" rx="6" ry="6" style="stroke: none; stroke-width: 1.0;"/><line style="stroke: #000000; stroke-width: 1.5;" x1="275.75" x2="275.75" y1="72.1875" y2="92.1875"/><polygon fill="#000000" points="271.75,82.1875,275.75,92.1875,279.75,82.1875,275.75,86.1875" style="stroke: #000000; stroke-width: 1.0;"/><line style="stroke: #000000; stroke-width: 1.5;" x1="275.75" x2="275.75" y1="277.2031" y2="304.6719"/><polygon fill="#000000" points="271.75,294.6719,275.75,304.6719,279.75,294.6719,275.75,298.6719" style="stroke: #000000; stroke-width: 1.0;"/><line style="stroke: #000000; stroke-width: 1.5;" x1="275.75" x2="275.75" y1="218.6953" y2="243.1406"/><polygon fill="#000000" points="271.75,233.1406,275.75,243.1406,279.75,233.1406,275.75,237.1406" style="stroke: #000000; stroke-width: 1.0;"/><line style="stroke: #000000; stroke-width: 1.5;" x1="405.75" x2="417.75" y1="206.6953" y2="206.6953"/><polygon fill="#000000" points="413.75,274.6719,417.75,284.6719,421.75,274.6719,417.75,278.6719" style="stroke: #000000; stroke-width: 1.5;"/><line style="stroke: #000000; stroke-width: 1.5;" x1="417.75" x2="417.75" y1="206.6953" y2="346.6719"/><line style="stroke: #000000; stroke-width: 1.5;" x1="417.75" x2="275.75" y1="346.6719" y2="346.6719"/><line style="stroke: #000000; stroke-width: 1.5;" x1="275.75" x2="275.75" y1="346.6719" y2="366.6719"/><polygon fill="#000000" points="271.75,356.6719,275.75,366.6719,279.75,356.6719,275.75,360.6719" style="stroke: #000000; stroke-width: 1.0;"/><line style="stroke: #000000; stroke-width: 1.5;" x1="275.75" x2="275.75" y1="449.1797" y2="476.6484"/><polygon fill="#000000" points="271.75,466.6484,275.75,476.6484,279.75,466.6484,275.75,470.6484" style="stroke: #000000; stroke-width: 1.0;"/><line style="stroke: #000000; stroke-width: 1.5;" x1="275.75" x2="275.75" y1="390.6719" y2="415.1172"/><polygon fill="#000000" points="271.75,405.1172,275.75,415.1172,279.75,405.1172,275.75,409.1172" style="stroke: #000000; stroke-width: 1.0;"/><line style="stroke: #000000; stroke-width: 1.5;" x1="463.25" x2="475.25" y1="378.6719" y2="378.6719"/><polygon fill="#000000" points="471.25,446.6484,475.25,456.6484,479.25,446.6484,475.25,450.6484" style="stroke: #000000; stroke-width: 1.5;"/><line style="stroke: #000000; stroke-width: 1.5;" x1="475.25" x2="475.25" y1="378.6719" y2="518.6484"/><line style="stroke: #000000; stroke-width: 1.5;" x1="475.25" x2="275.75" y1="518.6484" y2="518.6484"/><line style="stroke: #000000; stroke-width: 1.5;" x1="275.75" x2="275.75" y1="518.6484" y2="538.6484"/><polygon fill="#000000" points="271.75,528.6484,275.75,538.6484,279.75,528.6484,275.75,532.6484" style="stroke: #000000; stroke-width: 1.0;"/><line style="stroke: #000000; stroke-width: 1.5;" x1="275.75" x2="275.75" y1="572.7109" y2="592.7109"/><polygon fill="#000000" points="271.75,582.7109,275.75,592.7109,279.75,582.7109,275.75,586.7109" style="stroke: #000000; stroke-width: 1.0;"/><line style="stroke: #000000; stroke-width: 1.5;" x1="275.75" x2="275.75" y1="170.25" y2="194.6953"/><polygon fill="#000000" points="271.75,184.6953,275.75,194.6953,279.75,184.6953,275.75,188.6953" style="stroke: #000000; stroke-width: 1.0;"/><line style="stroke: #000000; stroke-width: 1.5;" x1="332.75" x2="485.25" y1="158.25" y2="158.25"/><polygon fill="#000000" points="481.25,398.2031,485.25,408.2031,489.25,398.2031,485.25,402.2031" style="stroke: #000000; stroke-width: 1.5;"/><line style="stroke: #000000; stroke-width: 1.5;" x1="485.25" x2="485.25" y1="158.25" y2="634.7109"/><line style="stroke: #000000; stroke-width: 1.5;" x1="485.25" x2="275.75" y1="634.7109" y2="634.7109"/><line style="stroke: #000000; stroke-width: 1.5;" x1="275.75" x2="275.75" y1="634.7109" y2="654.7109"/><polygon fill="#000000" points="271.75,644.7109,275.75,654.7109,279.75,644.7109,275.75,648.7109" style="stroke: #000000; stroke-width: 1.0;"/><line style="stroke: #000000; stroke-width: 1.5;" x1="275.75" x2="275.75" y1="126.25" y2="146.25"/><polygon fill="#000000" points="271.75,136.25,275.75,146.25,279.75,136.25,275.75,140.25" style="stroke: #000000; stroke-width: 1.0;"/><line style="stroke: #000000; stroke-width: 1.5;" x1="275.75" x2="275.75" y1="737.2188" y2="764.6875"/><polygon fill="#000000" points="271.75,754.6875,275.75,764.6875,279.75,754.6875,275.75,758.6875" style="stroke: #000000; stroke-width: 1.0;"/><line style="stroke: #000000; stroke-width: 1.5;" x1="275.75" x2="275.75" y1="678.7109" y2="703.1563"/><polygon fill="#000000" points="271.75,693.1563,275.75,703.1563,279.75,693.1563,275.75,697.1563" style="stroke: #000000; stroke-width: 1.0;"/><line style="stroke: #000000; stroke-width: 1.5;" x1="319.25" x2="340.25" y1="666.7109" y2="666.7109"/><polygon fill="#000000" points="336.25,734.6875,340.25,744.6875,344.25,734.6875,340.25,738.6875" style="stroke: #000000; stroke-width: 1.5;"/><line style="stroke: #000000; stroke-width: 1.5;" x1="340.25" x2="340.25" y1="666.7109" y2="806.6875"/><line style="stroke: #000000; stroke-width: 1.5;" x1="340.25" x2="275.75" y1="806.6875" y2="806.6875"/><line style="stroke: #000000; stroke-width: 1.5;" x1="275.75" x2="275.75" y1="806.6875" y2="826.6875"/><polygon fill="#000000" points="271.75,816.6875,275.75,826.6875,279.75,816.6875,275.75,820.6875" style="stroke: #000000; stroke-width: 1.0;"/><line style="stroke: #000000; stroke-width: 1.5;" x1="275.75" x2="275.75" y1="860.75" y2="880.75"/><polygon fill="#000000" points="271.75,870.75,275.75,880.75,279.75,870.75,275.75,874.75" style="stroke: #000000; stroke-width: 1.0;"/><line style="stroke: #000000; stroke-width: 1.5;" x1="275.75" x2="275.75" y1="914.8125" y2="934.8125"/><polygon fill="#000000" points="271.75,924.8125,275.75,934.8125,279.75,924.8125,275.75,928.8125" style="stroke: #000000; stroke-width: 1.0;"/><line style="stroke: #000000; stroke-width: 1.5;" x1="275.75" x2="275.75" y1="968.875" y2="988.875"/><polygon fill="#000000" points="271.75,978.875,275.75,988.875,279.75,978.875,275.75,982.875" style="stroke: #000000; stroke-width: 1.0;"/><line style="stroke: #000000; stroke-width: 1.5;" x1="275.75" x2="275.75" y1="1022.9375" y2="1042.9375"/><polygon fill="#000000" points="271.75,1032.9375,275.75,1042.9375,279.75,1032.9375,275.75,1036.9375" style="stroke: #000000; stroke-width: 1.0;"/><line style="stroke: #000000; stroke-width: 1.5;" x1="275.75" x2="275.75" y1="1077" y2="1097"/><polygon fill="#000000" points="271.75,1087,275.75,1097,279.75,1087,275.75,1091" style="stroke: #000000; stroke-width: 1.0;"/><!--
@startuml
skinparam BackgroundColor White|White
skinparam ArrowColor Black
skinparam DefaultFontName Roboto Condensed
skinparam TitleFontStyle Bold

skinparam NoteBackgroundColor White
skinparam NoteBorderColor Black

skinparam UsecaseBackgroundColor White
skinparam ActorBackgroundColor White
skinparam UsecaseBorderColor Black
skinparam ActorBorderColor Black

skinparam usecase {
	BackgroundColor<<for now out of scope>> Gray
}

skinparam StateBackgroundColor White
skinparam StateBorderColor Black

skinparam ActivityBackgroundColor White
skinparam ActivityDiamondBackgroundColor White
skinparam ActivityBorderColor Black
skinparam ActivityDiamondBorderColor Black

skinparam ClassBackgroundColor White
skinparam ClassBorderColor Black

title Nuspell - Check Spelling - ""spell_break(string s, integer depth)""\n

start

:set **""ret""** to <back:skyblue>//""spell_casing(s)""//</back>;
if (**""res""** is not empty?) then (yes)
    if (**""res""** contains global //""forbiddenword_flag""//?) then (yes)
        :return __""BAD_WORD""__;
	    stop
    else (no)
    endif
    if (global //""forbid_warn""// is __""TRUE""__ and **""res""** contains global //""warn_flag""//?) then (yes)
        :return __""BAD_WORD""__;
	    stop
    else (no)
    endif
    :return __""GOOD_WORD""__;
    stop
else (no)
endif

if (**""depth""** is __""9""__?) then (yes)
    :return __""BAD_WORD""__;
	stop
else (no)
endif

:set **""break_table""** to global break table;

:handle break pattern in start of a word;
floating note right: //This will be exapanded//
:handle break pattern in end of a word;
floating note right: //This will be exapanded//
:handle break pattern in middle of a word;
floating note right: //This will be exapanded//

:return __""BAD_WORD""__;

stop

@enduml

PlantUML version 1.2018.10(Sat Aug 25 19:02:59 CEST 2018)
(GPL source distribution)
Java Runtime: OpenJDK Runtime Environment
JVM: OpenJDK 64-Bit Server VM
Java Version: 10.0.2+13-Ubuntu-1ubuntu0.18.04.2
Operating System: Linux
OS Version: 4.15.0-34-generic
Default Encoding: UTF-8
Language: en
Country: US
--></g></svg>