<?xml version="1.0" encoding="UTF-8" standalone="no"?><svg xmlns="http://www.w3.org/2000/svg" xmlns:xlink="http://www.w3.org/1999/xlink" contentScriptType="application/ecmascript" contentStyleType="text/css" height="1127px" preserveAspectRatio="none" style="width:616px;height:1127px;" version="1.1" viewBox="0 0 616 1127" width="616px" zoomAndPan="magnify"><defs><linearGradient id="gomblvh3wyqkw0" x1="0%" x2="100%" y1="50%" y2="50%"><stop offset="0%" stop-color="#FFFFFF"/><stop offset="100%" stop-color="#FFFFFF"/></linearGradient><filter height="300%" id="fomblvh3wyqkw" width="300%" x="-1" y="-1"><feGaussianBlur result="blurOut" stdDeviation="2.0"/><feColorMatrix in="blurOut" result="blurOut2" type="matrix" values="0 0 0 0 0 0 0 0 0 0 0 0 0 0 0 0 0 0 .4 0"/><feOffset dx="4.0" dy="4.0" in="blurOut2" result="blurOut3"/><feBlend in="SourceGraphic" in2="blurOut3" mode="normal"/></filter><filter height="1" id="bomblvh3wyqkw0" width="1" x="0" y="0"><feFlood flood-color="#87CEEB" result="flood"/><feComposite in="SourceGraphic" in2="flood" operator="over"/></filter></defs><g><rect fill="url(#gomblvh3wyqkw0)" height="1127" style="stroke: none; stroke-width: 1.0;" width="616" x="0" y="0"/><text fill="#000000" font-family="Roboto Condensed" font-size="18" font-weight="bold" lengthAdjust="spacingAndGlyphs" textLength="192" x="12" y="28.8613">Nuspell - Check Spelling -</text><text fill="#000000" font-family="monospace" font-size="18" font-weight="bold" lengthAdjust="spacingAndGlyphs" textLength="396" x="208" y="29.4941">spell_break(string s, integer depth)</text><ellipse cx="269.75" cy="43.7393" fill="#000000" filter="url(#fomblvh3wyqkw)" rx="10" ry="10" style="stroke: none; stroke-width: 1.0;"/><rect fill="#FFFFFF" filter="url(#fomblvh3wyqkw)" height="35.8262" rx="12.5" ry="12.5" style="stroke: #000000; stroke-width: 1.5;" width="180" x="179.75" y="73.7393"/><text fill="#000000" font-family="Roboto Condensed" font-size="12" lengthAdjust="spacingAndGlyphs" textLength="15" x="189.75" y="96.3135">set</text><text fill="#000000" font-family="monospace" font-size="12" font-weight="bold" lengthAdjust="spacingAndGlyphs" textLength="21" x="207.75" y="96.7354">ret</text><text fill="#000000" font-family="Roboto Condensed" font-size="12" lengthAdjust="spacingAndGlyphs" textLength="10" x="231.75" y="96.3135">to</text><text fill="#000000" filter="url(#bomblvh3wyqkw0)" font-family="monospace" font-size="12" font-style="italic" lengthAdjust="spacingAndGlyphs" textLength="105" x="244.75" y="96.7354">spell_casing(s)</text><rect fill="#FFFFFF" filter="url(#fomblvh3wyqkw)" height="35.8262" rx="12.5" ry="12.5" style="stroke: #000000; stroke-width: 1.5;" width="109" x="215.25" y="228.0728"/><text fill="#000000" font-family="Roboto Condensed" font-size="12" lengthAdjust="spacingAndGlyphs" textLength="30" x="225.25" y="250.647">return</text><text fill="#000000" font-family="monospace" font-size="12" lengthAdjust="spacingAndGlyphs" text-decoration="underline" textLength="56" x="258.25" y="251.0688">BAD_WORD</text><line style="stroke: #000000; stroke-width: 1.0;" x1="258.25" x2="314.25" y1="253.0688" y2="253.0688"/><ellipse cx="269.75" cy="300.4858" fill="none" filter="url(#fomblvh3wyqkw)" rx="10" ry="10" style="stroke: #000000; stroke-width: 1.0;"/><ellipse cx="270.25" cy="300.9858" fill="#000000" filter="url(#fomblvh3wyqkw)" rx="6" ry="6" style="stroke: none; stroke-width: 1.0;"/><polygon fill="#FFFFFF" filter="url(#fomblvh3wyqkw)" points="157.25,178.8191,382.25,178.8191,394.25,190.8191,382.25,202.8191,157.25,202.8191,145.25,190.8191,157.25,178.8191" style="stroke: #000000; stroke-width: 1.5;"/><text fill="#000000" font-family="Roboto Condensed" font-size="11" lengthAdjust="spacingAndGlyphs" textLength="15" x="273.75" y="214.3455">yes</text><text fill="#000000" font-family="monospace" font-size="11" font-weight="bold" lengthAdjust="spacingAndGlyphs" textLength="21" x="157.25" y="195.4785">res</text><text fill="#000000" font-family="Roboto Condensed" font-size="11" lengthAdjust="spacingAndGlyphs" textLength="67" x="181.25" y="195.0918">contains global</text><text fill="#000000" font-family="monospace" font-size="11" font-style="italic" lengthAdjust="spacingAndGlyphs" textLength="126" x="251.25" y="195.4785">forbiddenword_flag</text><text fill="#000000" font-family="Roboto Condensed" font-size="11" lengthAdjust="spacingAndGlyphs" textLength="5" x="377.25" y="195.0918">?</text><text fill="#000000" font-family="Roboto Condensed" font-size="11" lengthAdjust="spacingAndGlyphs" textLength="11" x="394.25" y="187.8381">no</text><rect fill="#FFFFFF" filter="url(#fomblvh3wyqkw)" height="35.8262" rx="12.5" ry="12.5" style="stroke: #000000; stroke-width: 1.5;" width="109" x="215.25" y="401.7395"/><text fill="#000000" font-family="Roboto Condensed" font-size="12" lengthAdjust="spacingAndGlyphs" textLength="30" x="225.25" y="424.3137">return</text><text fill="#000000" font-family="monospace" font-size="12" lengthAdjust="spacingAndGlyphs" text-decoration="underline" textLength="56" x="258.25" y="424.7356">BAD_WORD</text><line style="stroke: #000000; stroke-width: 1.0;" x1="258.25" x2="314.25" y1="426.7356" y2="426.7356"/><ellipse cx="269.75" cy="474.1526" fill="none" filter="url(#fomblvh3wyqkw)" rx="10" ry="10" style="stroke: #000000; stroke-width: 1.0;"/><ellipse cx="270.25" cy="474.6526" fill="#000000" filter="url(#fomblvh3wyqkw)" rx="6" ry="6" style="stroke: none; stroke-width: 1.0;"/><polygon fill="#FFFFFF" filter="url(#fomblvh3wyqkw)" points="103.75,352.4858,435.75,352.4858,447.75,364.4858,435.75,376.4858,103.75,376.4858,91.75,364.4858,103.75,352.4858" style="stroke: #000000; stroke-width: 1.5;"/><text fill="#000000" font-family="Roboto Condensed" font-size="11" lengthAdjust="spacingAndGlyphs" textLength="15" x="273.75" y="388.0122">yes</text><text fill="#000000" font-family="Roboto Condensed" font-size="11" lengthAdjust="spacingAndGlyphs" textLength="27" x="103.75" y="368.7585">global</text><text fill="#000000" font-family="monospace" font-size="11" font-style="italic" lengthAdjust="spacingAndGlyphs" textLength="77" x="133.75" y="369.1453">forbid_warn</text><text fill="#000000" font-family="Roboto Condensed" font-size="11" lengthAdjust="spacingAndGlyphs" textLength="8" x="213.75" y="368.7585">is</text><text fill="#000000" font-family="monospace" font-size="11" lengthAdjust="spacingAndGlyphs" text-decoration="underline" textLength="28" x="224.75" y="369.1453">TRUE</text><line style="stroke: #000000; stroke-width: 1.0;" x1="224.75" x2="252.75" y1="371.1453" y2="371.1453"/><text fill="#000000" font-family="Roboto Condensed" font-size="11" lengthAdjust="spacingAndGlyphs" textLength="15" x="255.75" y="368.7585">and</text><text fill="#000000" font-family="monospace" font-size="11" font-weight="bold" lengthAdjust="spacingAndGlyphs" textLength="21" x="273.75" y="369.1453">res</text><text fill="#000000" font-family="Roboto Condensed" font-size="11" lengthAdjust="spacingAndGlyphs" textLength="67" x="297.75" y="368.7585">contains global</text><text fill="#000000" font-family="monospace" font-size="11" font-style="italic" lengthAdjust="spacingAndGlyphs" textLength="63" x="367.75" y="369.1453">warn_flag</text><text fill="#000000" font-family="Roboto Condensed" font-size="11" lengthAdjust="spacingAndGlyphs" textLength="5" x="430.75" y="368.7585">?</text><text fill="#000000" font-family="Roboto Condensed" font-size="11" lengthAdjust="spacingAndGlyphs" textLength="11" x="447.75" y="361.5049">no</text><rect fill="#FFFFFF" filter="url(#fomblvh3wyqkw)" height="35.8262" rx="12.5" ry="12.5" style="stroke: #000000; stroke-width: 1.5;" width="116" x="211.75" y="526.1526"/><text fill="#000000" font-family="Roboto Condensed" font-size="12" lengthAdjust="spacingAndGlyphs" textLength="30" x="221.75" y="548.7268">return</text><text fill="#000000" font-family="monospace" font-size="12" lengthAdjust="spacingAndGlyphs" text-decoration="underline" textLength="63" x="254.75" y="549.1487">GOOD_WORD</text><line style="stroke: #000000; stroke-width: 1.0;" x1="254.75" x2="317.75" y1="551.1487" y2="551.1487"/><ellipse cx="269.75" cy="591.9788" fill="none" filter="url(#fomblvh3wyqkw)" rx="10" ry="10" style="stroke: #000000; stroke-width: 1.0;"/><ellipse cx="270.25" cy="592.4788" fill="#000000" filter="url(#fomblvh3wyqkw)" rx="6" ry="6" style="stroke: none; stroke-width: 1.0;"/><polygon fill="#FFFFFF" filter="url(#fomblvh3wyqkw)" points="228.25,129.5654,311.25,129.5654,323.25,141.5654,311.25,153.5654,228.25,153.5654,216.25,141.5654,228.25,129.5654" style="stroke: #000000; stroke-width: 1.5;"/><text fill="#000000" font-family="Roboto Condensed" font-size="11" lengthAdjust="spacingAndGlyphs" textLength="15" x="273.75" y="165.0918">yes</text><text fill="#000000" font-family="monospace" font-size="11" font-weight="bold" lengthAdjust="spacingAndGlyphs" textLength="21" x="228.25" y="146.2249">res</text><text fill="#000000" font-family="Roboto Condensed" font-size="11" lengthAdjust="spacingAndGlyphs" textLength="59" x="252.25" y="145.8381">is not empty?</text><text fill="#000000" font-family="Roboto Condensed" font-size="11" lengthAdjust="spacingAndGlyphs" textLength="11" x="323.25" y="138.5845">no</text><rect fill="#FFFFFF" filter="url(#fomblvh3wyqkw)" height="35.8262" rx="12.5" ry="12.5" style="stroke: #000000; stroke-width: 1.5;" width="109" x="215.25" y="693.2324"/><text fill="#000000" font-family="Roboto Condensed" font-size="12" lengthAdjust="spacingAndGlyphs" textLength="30" x="225.25" y="715.8066">return</text><text fill="#000000" font-family="monospace" font-size="12" lengthAdjust="spacingAndGlyphs" text-decoration="underline" textLength="56" x="258.25" y="716.2285">BAD_WORD</text><line style="stroke: #000000; stroke-width: 1.0;" x1="258.25" x2="314.25" y1="718.2285" y2="718.2285"/><ellipse cx="269.75" cy="765.6455" fill="none" filter="url(#fomblvh3wyqkw)" rx="10" ry="10" style="stroke: #000000; stroke-width: 1.0;"/><ellipse cx="270.25" cy="766.1455" fill="#000000" filter="url(#fomblvh3wyqkw)" rx="6" ry="6" style="stroke: none; stroke-width: 1.0;"/><polygon fill="#FFFFFF" filter="url(#fomblvh3wyqkw)" points="239.25,643.9788,300.25,643.9788,312.25,655.9788,300.25,667.9788,239.25,667.9788,227.25,655.9788,239.25,643.9788" style="stroke: #000000; stroke-width: 1.5;"/><text fill="#000000" font-family="Roboto Condensed" font-size="11" lengthAdjust="spacingAndGlyphs" textLength="15" x="273.75" y="679.5051">yes</text><text fill="#000000" font-family="monospace" font-size="11" font-weight="bold" lengthAdjust="spacingAndGlyphs" textLength="35" x="239.25" y="660.6382">depth</text><text fill="#000000" font-family="Roboto Condensed" font-size="11" lengthAdjust="spacingAndGlyphs" textLength="8" x="277.25" y="660.2515">is</text><text fill="#000000" font-family="monospace" font-size="11" lengthAdjust="spacingAndGlyphs" text-decoration="underline" textLength="7" x="288.25" y="660.6382">9</text><line style="stroke: #000000; stroke-width: 1.0;" x1="288.25" x2="295.25" y1="662.6382" y2="662.6382"/><text fill="#000000" font-family="Roboto Condensed" font-size="11" lengthAdjust="spacingAndGlyphs" textLength="5" x="295.25" y="660.2515">?</text><text fill="#000000" font-family="Roboto Condensed" font-size="11" lengthAdjust="spacingAndGlyphs" textLength="11" x="312.25" y="652.9978">no</text><rect fill="#FFFFFF" filter="url(#fomblvh3wyqkw)" height="35.8262" rx="12.5" ry="12.5" style="stroke: #000000; stroke-width: 1.5;" width="219" x="160.25" y="817.6455"/><text fill="#000000" font-family="Roboto Condensed" font-size="12" lengthAdjust="spacingAndGlyphs" textLength="15" x="170.25" y="840.2197">set</text><text fill="#000000" font-family="monospace" font-size="12" font-weight="bold" lengthAdjust="spacingAndGlyphs" textLength="77" x="188.25" y="840.6416">break_table</text><text fill="#000000" font-family="Roboto Condensed" font-size="12" lengthAdjust="spacingAndGlyphs" textLength="101" x="268.25" y="840.2197">to global break table</text><path d="M394.25,877.8123 L394.25,904.9573 L529.25,904.9573 L529.25,887.8123 L519.25,877.8123 L394.25,877.8123 " fill="#FFFFFF" filter="url(#fomblvh3wyqkw)" style="stroke: #000000; stroke-width: 1.0;"/><path d="M519.25,877.8123 L519.25,887.8123 L529.25,887.8123 L519.25,877.8123 " fill="#FFFFFF" style="stroke: #000000; stroke-width: 1.0;"/><text fill="#000000" font-family="Roboto Condensed" font-size="13" font-style="italic" lengthAdjust="spacingAndGlyphs" textLength="114" x="400.25" y="896.4343">This will be exapanded</text><rect fill="#FFFFFF" filter="url(#fomblvh3wyqkw)" height="35.8262" rx="12.5" ry="12.5" style="stroke: #000000; stroke-width: 1.5;" width="209" x="165.25" y="873.4717"/><text fill="#000000" font-family="Roboto Condensed" font-size="12" lengthAdjust="spacingAndGlyphs" textLength="189" x="175.25" y="896.0459">handle break pattern in start of a word</text><path d="M391.75,933.6384 L391.75,960.7834 L526.75,960.7834 L526.75,943.6384 L516.75,933.6384 L391.75,933.6384 " fill="#FFFFFF" filter="url(#fomblvh3wyqkw)" style="stroke: #000000; stroke-width: 1.0;"/><path d="M516.75,933.6384 L516.75,943.6384 L526.75,943.6384 L516.75,933.6384 " fill="#FFFFFF" style="stroke: #000000; stroke-width: 1.0;"/><text fill="#000000" font-family="Roboto Condensed" font-size="13" font-style="italic" lengthAdjust="spacingAndGlyphs" textLength="114" x="397.75" y="952.2605">This will be exapanded</text><rect fill="#FFFFFF" filter="url(#fomblvh3wyqkw)" height="35.8262" rx="12.5" ry="12.5" style="stroke: #000000; stroke-width: 1.5;" width="204" x="167.75" y="929.2979"/><text fill="#000000" font-family="Roboto Condensed" font-size="12" lengthAdjust="spacingAndGlyphs" textLength="184" x="177.75" y="951.8721">handle break pattern in end of a word</text><path d="M399.25,989.4646 L399.25,1016.6096 L534.25,1016.6096 L534.25,999.4646 L524.25,989.4646 L399.25,989.4646 " fill="#FFFFFF" filter="url(#fomblvh3wyqkw)" style="stroke: #000000; stroke-width: 1.0;"/><path d="M524.25,989.4646 L524.25,999.4646 L534.25,999.4646 L524.25,989.4646 " fill="#FFFFFF" style="stroke: #000000; stroke-width: 1.0;"/><text fill="#000000" font-family="Roboto Condensed" font-size="13" font-style="italic" lengthAdjust="spacingAndGlyphs" textLength="114" x="405.25" y="1008.0867">This will be exapanded</text><rect fill="#FFFFFF" filter="url(#fomblvh3wyqkw)" height="35.8262" rx="12.5" ry="12.5" style="stroke: #000000; stroke-width: 1.5;" width="219" x="160.25" y="985.124"/><text fill="#000000" font-family="Roboto Condensed" font-size="12" lengthAdjust="spacingAndGlyphs" textLength="199" x="170.25" y="1007.6982">handle break pattern in middle of a word</text><rect fill="#FFFFFF" filter="url(#fomblvh3wyqkw)" height="35.8262" rx="12.5" ry="12.5" style="stroke: #000000; stroke-width: 1.5;" width="109" x="215.25" y="1040.9502"/><text fill="#000000" font-family="Roboto Condensed" font-size="12" lengthAdjust="spacingAndGlyphs" textLength="30" x="225.25" y="1063.5244">return</text><text fill="#000000" font-family="monospace" font-size="12" lengthAdjust="spacingAndGlyphs" text-decoration="underline" textLength="56" x="258.25" y="1063.9463">BAD_WORD</text><line style="stroke: #000000; stroke-width: 1.0;" x1="258.25" x2="314.25" y1="1065.9463" y2="1065.9463"/><ellipse cx="269.75" cy="1106.7764" fill="none" filter="url(#fomblvh3wyqkw)" rx="10" ry="10" style="stroke: #000000; stroke-width: 1.0;"/><ellipse cx="270.25" cy="1107.2764" fill="#000000" filter="url(#fomblvh3wyqkw)" rx="6" ry="6" style="stroke: none; stroke-width: 1.0;"/><line style="stroke: #000000; stroke-width: 1.5;" x1="269.75" x2="269.75" y1="53.7393" y2="73.7393"/><polygon fill="#000000" points="265.75,63.7393,269.75,73.7393,273.75,63.7393,269.75,67.7393" style="stroke: #000000; stroke-width: 1.0;"/><line style="stroke: #000000; stroke-width: 1.5;" x1="269.75" x2="269.75" y1="263.8989" y2="290.4858"/><polygon fill="#000000" points="265.75,280.4858,269.75,290.4858,273.75,280.4858,269.75,284.4858" style="stroke: #000000; stroke-width: 1.0;"/><line style="stroke: #000000; stroke-width: 1.5;" x1="269.75" x2="269.75" y1="202.8191" y2="228.0728"/><polygon fill="#000000" points="265.75,218.0728,269.75,228.0728,273.75,218.0728,269.75,222.0728" style="stroke: #000000; stroke-width: 1.0;"/><line style="stroke: #000000; stroke-width: 1.5;" x1="394.25" x2="406.25" y1="190.8191" y2="190.8191"/><polygon fill="#000000" points="402.25,260.4858,406.25,270.4858,410.25,260.4858,406.25,264.4858" style="stroke: #000000; stroke-width: 1.5;"/><line style="stroke: #000000; stroke-width: 1.5;" x1="406.25" x2="406.25" y1="190.8191" y2="332.4858"/><line style="stroke: #000000; stroke-width: 1.5;" x1="406.25" x2="269.75" y1="332.4858" y2="332.4858"/><line style="stroke: #000000; stroke-width: 1.5;" x1="269.75" x2="269.75" y1="332.4858" y2="352.4858"/><polygon fill="#000000" points="265.75,342.4858,269.75,352.4858,273.75,342.4858,269.75,346.4858" style="stroke: #000000; stroke-width: 1.0;"/><line style="stroke: #000000; stroke-width: 1.5;" x1="269.75" x2="269.75" y1="437.5657" y2="464.1526"/><polygon fill="#000000" points="265.75,454.1526,269.75,464.1526,273.75,454.1526,269.75,458.1526" style="stroke: #000000; stroke-width: 1.0;"/><line style="stroke: #000000; stroke-width: 1.5;" x1="269.75" x2="269.75" y1="376.4858" y2="401.7395"/><polygon fill="#000000" points="265.75,391.7395,269.75,401.7395,273.75,391.7395,269.75,395.7395" style="stroke: #000000; stroke-width: 1.0;"/><line style="stroke: #000000; stroke-width: 1.5;" x1="447.75" x2="459.75" y1="364.4858" y2="364.4858"/><polygon fill="#000000" points="455.75,434.1526,459.75,444.1526,463.75,434.1526,459.75,438.1526" style="stroke: #000000; stroke-width: 1.5;"/><line style="stroke: #000000; stroke-width: 1.5;" x1="459.75" x2="459.75" y1="364.4858" y2="506.1526"/><line style="stroke: #000000; stroke-width: 1.5;" x1="459.75" x2="269.75" y1="506.1526" y2="506.1526"/><line style="stroke: #000000; stroke-width: 1.5;" x1="269.75" x2="269.75" y1="506.1526" y2="526.1526"/><polygon fill="#000000" points="265.75,516.1526,269.75,526.1526,273.75,516.1526,269.75,520.1526" style="stroke: #000000; stroke-width: 1.0;"/><line style="stroke: #000000; stroke-width: 1.5;" x1="269.75" x2="269.75" y1="561.9788" y2="581.9788"/><polygon fill="#000000" points="265.75,571.9788,269.75,581.9788,273.75,571.9788,269.75,575.9788" style="stroke: #000000; stroke-width: 1.0;"/><line style="stroke: #000000; stroke-width: 1.5;" x1="269.75" x2="269.75" y1="153.5654" y2="178.8191"/><polygon fill="#000000" points="265.75,168.8191,269.75,178.8191,273.75,168.8191,269.75,172.8191" style="stroke: #000000; stroke-width: 1.0;"/><line style="stroke: #000000; stroke-width: 1.5;" x1="323.25" x2="469.75" y1="141.5654" y2="141.5654"/><polygon fill="#000000" points="465.75,384.8989,469.75,394.8989,473.75,384.8989,469.75,388.8989" style="stroke: #000000; stroke-width: 1.5;"/><line style="stroke: #000000; stroke-width: 1.5;" x1="469.75" x2="469.75" y1="141.5654" y2="623.9788"/><line style="stroke: #000000; stroke-width: 1.5;" x1="469.75" x2="269.75" y1="623.9788" y2="623.9788"/><line style="stroke: #000000; stroke-width: 1.5;" x1="269.75" x2="269.75" y1="623.9788" y2="643.9788"/><polygon fill="#000000" points="265.75,633.9788,269.75,643.9788,273.75,633.9788,269.75,637.9788" style="stroke: #000000; stroke-width: 1.0;"/><line style="stroke: #000000; stroke-width: 1.5;" x1="269.75" x2="269.75" y1="109.5654" y2="129.5654"/><polygon fill="#000000" points="265.75,119.5654,269.75,129.5654,273.75,119.5654,269.75,123.5654" style="stroke: #000000; stroke-width: 1.0;"/><line style="stroke: #000000; stroke-width: 1.5;" x1="269.75" x2="269.75" y1="729.0586" y2="755.6455"/><polygon fill="#000000" points="265.75,745.6455,269.75,755.6455,273.75,745.6455,269.75,749.6455" style="stroke: #000000; stroke-width: 1.0;"/><line style="stroke: #000000; stroke-width: 1.5;" x1="269.75" x2="269.75" y1="667.9788" y2="693.2324"/><polygon fill="#000000" points="265.75,683.2324,269.75,693.2324,273.75,683.2324,269.75,687.2324" style="stroke: #000000; stroke-width: 1.0;"/><line style="stroke: #000000; stroke-width: 1.5;" x1="312.25" x2="334.25" y1="655.9788" y2="655.9788"/><polygon fill="#000000" points="330.25,725.6455,334.25,735.6455,338.25,725.6455,334.25,729.6455" style="stroke: #000000; stroke-width: 1.5;"/><line style="stroke: #000000; stroke-width: 1.5;" x1="334.25" x2="334.25" y1="655.9788" y2="797.6455"/><line style="stroke: #000000; stroke-width: 1.5;" x1="334.25" x2="269.75" y1="797.6455" y2="797.6455"/><line style="stroke: #000000; stroke-width: 1.5;" x1="269.75" x2="269.75" y1="797.6455" y2="817.6455"/><polygon fill="#000000" points="265.75,807.6455,269.75,817.6455,273.75,807.6455,269.75,811.6455" style="stroke: #000000; stroke-width: 1.0;"/><line style="stroke: #000000; stroke-width: 1.5;" x1="269.75" x2="269.75" y1="853.4717" y2="873.4717"/><polygon fill="#000000" points="265.75,863.4717,269.75,873.4717,273.75,863.4717,269.75,867.4717" style="stroke: #000000; stroke-width: 1.0;"/><line style="stroke: #000000; stroke-width: 1.5;" x1="269.75" x2="269.75" y1="909.2979" y2="929.2979"/><polygon fill="#000000" points="265.75,919.2979,269.75,929.2979,273.75,919.2979,269.75,923.2979" style="stroke: #000000; stroke-width: 1.0;"/><line style="stroke: #000000; stroke-width: 1.5;" x1="269.75" x2="269.75" y1="965.124" y2="985.124"/><polygon fill="#000000" points="265.75,975.124,269.75,985.124,273.75,975.124,269.75,979.124" style="stroke: #000000; stroke-width: 1.0;"/><line style="stroke: #000000; stroke-width: 1.5;" x1="269.75" x2="269.75" y1="1020.9502" y2="1040.9502"/><polygon fill="#000000" points="265.75,1030.9502,269.75,1040.9502,273.75,1030.9502,269.75,1034.9502" style="stroke: #000000; stroke-width: 1.0;"/><line style="stroke: #000000; stroke-width: 1.5;" x1="269.75" x2="269.75" y1="1076.7764" y2="1096.7764"/><polygon fill="#000000" points="265.75,1086.7764,269.75,1096.7764,273.75,1086.7764,269.75,1090.7764" style="stroke: #000000; stroke-width: 1.0;"/><!--
@startuml
skinparam BackgroundColor White|White
skinparam ArrowColor Black
skinparam DefaultFontName Roboto Condensed
skinparam TitleFontStyle Bold

skinparam NoteBackgroundColor White
skinparam NoteBorderColor Black

skinparam UsecaseBackgroundColor White
skinparam ActorBackgroundColor White
skinparam UsecaseBorderColor Black
skinparam ActorBorderColor Black

skinparam usecase {
	BackgroundColor<<for now out of scope>> Gray
}

skinparam StateBackgroundColor White
skinparam StateBorderColor Black

skinparam ActivityBackgroundColor White
skinparam ActivityDiamondBackgroundColor White
skinparam ActivityBorderColor Black
skinparam ActivityDiamondBorderColor Black

skinparam ClassBackgroundColor White
skinparam ClassBorderColor Black

title Nuspell - Check Spelling - ""spell_break(string s, integer depth)""

start

:set **""ret""** to <back:skyblue>//""spell_casing(s)""//</back>;
if (**""res""** is not empty?) then (yes)
    if (**""res""** contains global //""forbiddenword_flag""//?) then (yes)
        :return __""BAD_WORD""__;
	    stop
    else (no)
    endif
    if (global //""forbid_warn""// is __""TRUE""__ and **""res""** contains global //""warn_flag""//?) then (yes)
        :return __""BAD_WORD""__;
	    stop
    else (no)
    endif
    :return __""GOOD_WORD""__;
    stop
else (no)
endif

if (**""depth""** is __""9""__?) then (yes)
    :return __""BAD_WORD""__;
	stop
else (no)
endif

:set **""break_table""** to global break table;

:handle break pattern in start of a word;
floating note right: //This will be exapanded//
:handle break pattern in end of a word;
floating note right: //This will be exapanded//
:handle break pattern in middle of a word;
floating note right: //This will be exapanded//

:return __""BAD_WORD""__;

stop

@enduml

PlantUML version 1.2018.06(Mon May 21 12:34:53 CEST 2018)
(GPL source distribution)
Java Runtime: OpenJDK Runtime Environment
JVM: OpenJDK 64-Bit Server VM
Java Version: 10.0.2+13-Ubuntu-1ubuntu0.18.04.2
Operating System: Linux
OS Version: 4.15.0-34-generic
Default Encoding: UTF-8
Language: en
Country: US
--></g></svg>