<?xml version="1.0" encoding="UTF-8" standalone="no"?><svg xmlns="http://www.w3.org/2000/svg" xmlns:xlink="http://www.w3.org/1999/xlink" contentScriptType="application/ecmascript" contentStyleType="text/css" height="509px" preserveAspectRatio="none" style="width:352px;height:509px;" version="1.1" viewBox="0 0 352 509" width="352px" zoomAndPan="magnify"><defs><linearGradient id="go1zotvatdu640" x1="0%" x2="100%" y1="50%" y2="50%"><stop offset="0%" stop-color="#FFFFFF"/><stop offset="100%" stop-color="#FFFFFF"/></linearGradient><filter height="300%" id="fo1zotvatdu64" width="300%" x="-1" y="-1"><feGaussianBlur result="blurOut" stdDeviation="2.0"/><feColorMatrix in="blurOut" result="blurOut2" type="matrix" values="0 0 0 0 0 0 0 0 0 0 0 0 0 0 0 0 0 0 .4 0"/><feOffset dx="4.0" dy="4.0" in="blurOut2" result="blurOut3"/><feBlend in="SourceGraphic" in2="blurOut3" mode="normal"/></filter></defs><g><rect fill="url(#go1zotvatdu640)" height="509" style="stroke: none; stroke-width: 1.0;" width="352" x="0" y="0"/><text fill="#000000" font-family="Roboto Condensed" font-size="18" font-weight="bold" lengthAdjust="spacingAndGlyphs" textLength="214" x="12" y="26.6992">Nuspell - Get Suggestions -</text><text fill="#000000" font-family="monospace" font-size="18" font-weight="bold" lengthAdjust="spacingAndGlyphs" textLength="110" x="230" y="26.8486">extra_char</text><text fill="#000000" font-family="Roboto Condensed" font-size="18" font-weight="bold" lengthAdjust="spacingAndGlyphs" textLength="0" x="178" y="47.793"/><ellipse cx="171.5" cy="62.1875" fill="#000000" filter="url(#fo1zotvatdu64)" rx="10" ry="10" style="stroke: none; stroke-width: 1.0;"/><rect fill="#FFFFFF" filter="url(#fo1zotvatdu64)" height="34.0625" rx="12.5" ry="12.5" style="stroke: #000000; stroke-width: 1.5;" width="208" x="67.5" y="147.8926"/><text fill="#000000" font-family="Roboto Condensed" font-size="12" lengthAdjust="spacingAndGlyphs" textLength="188" x="77.5" y="169.0254">remove that character from the word</text><rect fill="#FFFFFF" filter="url(#fo1zotvatdu64)" height="34.0625" rx="12.5" ry="12.5" style="stroke: #000000; stroke-width: 1.5;" width="195" x="74" y="250.4004"/><text fill="#000000" font-family="Roboto Condensed" font-size="12" lengthAdjust="spacingAndGlyphs" textLength="175" x="84" y="271.5332">add resulted word to suggestions</text><polygon fill="#FFFFFF" filter="url(#fo1zotvatdu64)" points="84.5,201.9551,258.5,201.9551,270.5,213.9551,258.5,225.9551,84.5,225.9551,72.5,213.9551,84.5,201.9551" style="stroke: #000000; stroke-width: 1.5;"/><text fill="#000000" font-family="Roboto Condensed" font-size="11" lengthAdjust="spacingAndGlyphs" textLength="17" x="175.5" y="236.1602">yes</text><text fill="#000000" font-family="Roboto Condensed" font-size="11" lengthAdjust="spacingAndGlyphs" textLength="174" x="84.5" y="217.7148">resulting word is spelled correctly?</text><text fill="#000000" font-family="Roboto Condensed" font-size="11" lengthAdjust="spacingAndGlyphs" textLength="13" x="270.5" y="211.2695">no</text><polygon fill="#FFFFFF" filter="url(#fo1zotvatdu64)" points="171.5,304.4629,183.5,316.4629,171.5,328.4629,159.5,316.4629,171.5,304.4629" style="stroke: #000000; stroke-width: 1.5;"/><rect fill="#FFFFFF" filter="url(#fo1zotvatdu64)" height="34.0625" rx="12.5" ry="12.5" style="stroke: #000000; stroke-width: 1.5;" width="160" x="91.5" y="348.4629"/><text fill="#000000" font-family="Roboto Condensed" font-size="12" lengthAdjust="spacingAndGlyphs" textLength="140" x="101.5" y="369.5957">restore removed character</text><polygon fill="#FFFFFF" filter="url(#fo1zotvatdu64)" points="73,92.1875,270,92.1875,282,104.1875,270,116.1875,73,116.1875,61,104.1875,73,92.1875" style="stroke: #000000; stroke-width: 1.5;"/><text fill="#000000" font-family="Roboto Condensed" font-size="11" lengthAdjust="spacingAndGlyphs" textLength="17" x="175.5" y="126.3926">yes</text><text fill="#000000" font-family="Roboto Condensed" font-size="11" lengthAdjust="spacingAndGlyphs" textLength="197" x="73" y="107.9473">reverse iterate over characters in word?</text><text fill="#000000" font-family="Roboto Condensed" font-size="11" lengthAdjust="spacingAndGlyphs" textLength="13" x="48" y="101.502">no</text><rect fill="#FFFFFF" filter="url(#fo1zotvatdu64)" height="34.0625" rx="12.5" ry="12.5" style="stroke: #000000; stroke-width: 1.5;" width="117" x="113" y="424.5254"/><text fill="#000000" font-family="Roboto Condensed" font-size="12" lengthAdjust="spacingAndGlyphs" textLength="97" x="123" y="445.6582">return suggestions</text><ellipse cx="171.5" cy="488.5879" fill="none" filter="url(#fo1zotvatdu64)" rx="10" ry="10" style="stroke: #000000; stroke-width: 1.0;"/><ellipse cx="172" cy="489.0879" fill="#000000" filter="url(#fo1zotvatdu64)" rx="6" ry="6" style="stroke: none; stroke-width: 1.0;"/><line style="stroke: #000000; stroke-width: 1.5;" x1="171.5" x2="171.5" y1="225.9551" y2="250.4004"/><polygon fill="#000000" points="167.5,240.4004,171.5,250.4004,175.5,240.4004,171.5,244.4004" style="stroke: #000000; stroke-width: 1.0;"/><line style="stroke: #000000; stroke-width: 1.5;" x1="270.5" x2="282.5" y1="213.9551" y2="213.9551"/><polygon fill="#000000" points="278.5,257.4316,282.5,267.4316,286.5,257.4316,282.5,261.4316" style="stroke: #000000; stroke-width: 1.5;"/><line style="stroke: #000000; stroke-width: 1.5;" x1="282.5" x2="282.5" y1="213.9551" y2="316.4629"/><line style="stroke: #000000; stroke-width: 1.5;" x1="282.5" x2="183.5" y1="316.4629" y2="316.4629"/><polygon fill="#000000" points="193.5,312.4629,183.5,316.4629,193.5,320.4629,189.5,316.4629" style="stroke: #000000; stroke-width: 1.0;"/><line style="stroke: #000000; stroke-width: 1.5;" x1="171.5" x2="171.5" y1="284.4629" y2="304.4629"/><polygon fill="#000000" points="167.5,294.4629,171.5,304.4629,175.5,294.4629,171.5,298.4629" style="stroke: #000000; stroke-width: 1.0;"/><line style="stroke: #000000; stroke-width: 1.5;" x1="171.5" x2="171.5" y1="181.9551" y2="201.9551"/><polygon fill="#000000" points="167.5,191.9551,171.5,201.9551,175.5,191.9551,171.5,195.9551" style="stroke: #000000; stroke-width: 1.0;"/><line style="stroke: #000000; stroke-width: 1.5;" x1="171.5" x2="171.5" y1="328.4629" y2="348.4629"/><polygon fill="#000000" points="167.5,338.4629,171.5,348.4629,175.5,338.4629,171.5,342.4629" style="stroke: #000000; stroke-width: 1.0;"/><line style="stroke: #000000; stroke-width: 1.5;" x1="171.5" x2="171.5" y1="116.1875" y2="147.8926"/><polygon fill="#000000" points="167.5,137.8926,171.5,147.8926,175.5,137.8926,171.5,141.8926" style="stroke: #000000; stroke-width: 1.0;"/><line style="stroke: #000000; stroke-width: 1.5;" x1="171.5" x2="171.5" y1="382.5254" y2="392.5254"/><line style="stroke: #000000; stroke-width: 1.5;" x1="171.5" x2="303" y1="392.5254" y2="392.5254"/><polygon fill="#000000" points="299,258.9863,303,248.9863,307,258.9863,303,254.9863" style="stroke: #000000; stroke-width: 1.5;"/><line style="stroke: #000000; stroke-width: 1.5;" x1="303" x2="303" y1="104.1875" y2="392.5254"/><line style="stroke: #000000; stroke-width: 1.5;" x1="303" x2="282" y1="104.1875" y2="104.1875"/><polygon fill="#000000" points="292,100.1875,282,104.1875,292,108.1875,288,104.1875" style="stroke: #000000; stroke-width: 1.0;"/><line style="stroke: #000000; stroke-width: 1.5;" x1="61" x2="49" y1="104.1875" y2="104.1875"/><polygon fill="#000000" points="45,244.9863,49,254.9863,53,244.9863,49,248.9863" style="stroke: #000000; stroke-width: 1.5;"/><line style="stroke: #000000; stroke-width: 1.5;" x1="49" x2="49" y1="104.1875" y2="404.5254"/><line style="stroke: #000000; stroke-width: 1.5;" x1="49" x2="171.5" y1="404.5254" y2="404.5254"/><line style="stroke: #000000; stroke-width: 1.5;" x1="171.5" x2="171.5" y1="404.5254" y2="424.5254"/><polygon fill="#000000" points="167.5,414.5254,171.5,424.5254,175.5,414.5254,171.5,418.5254" style="stroke: #000000; stroke-width: 1.0;"/><line style="stroke: #000000; stroke-width: 1.5;" x1="171.5" x2="171.5" y1="72.1875" y2="92.1875"/><polygon fill="#000000" points="167.5,82.1875,171.5,92.1875,175.5,82.1875,171.5,86.1875" style="stroke: #000000; stroke-width: 1.0;"/><line style="stroke: #000000; stroke-width: 1.5;" x1="171.5" x2="171.5" y1="458.5879" y2="478.5879"/><polygon fill="#000000" points="167.5,468.5879,171.5,478.5879,175.5,468.5879,171.5,472.5879" style="stroke: #000000; stroke-width: 1.0;"/><!--
@startuml
skinparam BackgroundColor White|White
skinparam ArrowColor Black
skinparam DefaultFontName Roboto Condensed
skinparam TitleFontStyle Bold

skinparam NoteBackgroundColor White
skinparam NoteBorderColor Black

skinparam UsecaseBackgroundColor White
skinparam ActorBackgroundColor White
skinparam UsecaseBorderColor Black
skinparam ActorBorderColor Black

skinparam usecase {
	BackgroundColor<<for now out of scope>> Gray
}

skinparam StateBackgroundColor White
skinparam StateBorderColor Black

skinparam ActivityBackgroundColor White
skinparam ActivityDiamondBackgroundColor White
skinparam ActivityBorderColor Black
skinparam ActivityDiamondBorderColor Black

skinparam ClassBackgroundColor White
skinparam ClassBorderColor Black

title Nuspell - Get Suggestions - ""extra_char""\n

start

while (reverse iterate over characters in word?) is (yes)
	:remove that character from the word;
	if (resulting word is spelled correctly?) then (yes)
		:add resulted word to suggestions;
	else (no)
	endif
	:restore removed character;
endwhile (no)
:return suggestions;

stop

@enduml

PlantUML version 1.2018.10(Sat Aug 25 19:02:59 CEST 2018)
(GPL source distribution)
Java Runtime: OpenJDK Runtime Environment
JVM: OpenJDK 64-Bit Server VM
Java Version: 10.0.2+13-Ubuntu-1ubuntu0.18.04.2
Operating System: Linux
OS Version: 4.15.0-34-generic
Default Encoding: UTF-8
Language: en
Country: US
--></g></svg>