<?xml version="1.0" encoding="UTF-8" standalone="no"?><svg xmlns="http://www.w3.org/2000/svg" xmlns:xlink="http://www.w3.org/1999/xlink" contentScriptType="application/ecmascript" contentStyleType="text/css" height="1415px" preserveAspectRatio="none" style="width:492px;height:1415px;" version="1.1" viewBox="0 0 492 1415" width="492px" zoomAndPan="magnify"><defs><linearGradient id="gd7m7g7cz6jh20" x1="0%" x2="100%" y1="50%" y2="50%"><stop offset="0%" stop-color="#FFFFFF"/><stop offset="100%" stop-color="#FFFFFF"/></linearGradient><filter height="300%" id="fd7m7g7cz6jh2" width="300%" x="-1" y="-1"><feGaussianBlur result="blurOut" stdDeviation="2.0"/><feColorMatrix in="blurOut" result="blurOut2" type="matrix" values="0 0 0 0 0 0 0 0 0 0 0 0 0 0 0 0 0 0 .4 0"/><feOffset dx="4.0" dy="4.0" in="blurOut2" result="blurOut3"/><feBlend in="SourceGraphic" in2="blurOut3" mode="normal"/></filter></defs><g><rect fill="url(#gd7m7g7cz6jh20)" height="1415" style="stroke: none; stroke-width: 1.0;" width="492" x="0" y="0"/><text fill="#000000" font-family="Roboto Condensed" font-size="18" font-weight="bold" lengthAdjust="spacingAndGlyphs" textLength="214" x="92" y="26.6992">Nuspell - Get Suggestions -</text><text fill="#000000" font-family="monospace" font-size="18" font-weight="bold" lengthAdjust="spacingAndGlyphs" textLength="88" x="310" y="26.8486">keyboard</text><ellipse cx="254" cy="41.0938" fill="#000000" filter="url(#fd7m7g7cz6jh2)" rx="10" ry="10" style="stroke: none; stroke-width: 1.0;"/><rect fill="#FFFFFF" filter="url(#fd7m7g7cz6jh2)" height="34.0625" rx="12.5" ry="12.5" style="stroke: #000000; stroke-width: 1.5;" width="270" x="119" y="126.7988"/><text fill="#000000" font-family="Roboto Condensed" font-size="12" lengthAdjust="spacingAndGlyphs" textLength="250" x="129" y="147.9316">convert word character via locale to upper case</text><rect fill="#FFFFFF" filter="url(#fd7m7g7cz6jh2)" height="34.0625" rx="12.5" ry="12.5" style="stroke: #000000; stroke-width: 1.5;" width="338" x="85" y="229.3066"/><text fill="#000000" font-family="Roboto Condensed" font-size="12" lengthAdjust="spacingAndGlyphs" textLength="318" x="95" y="250.4395">replace word character with converted upper case character</text><rect fill="#FFFFFF" filter="url(#fd7m7g7cz6jh2)" height="34.0625" rx="12.5" ry="12.5" style="stroke: #000000; stroke-width: 1.5;" width="195" x="156.5" y="331.8145"/><text fill="#000000" font-family="Roboto Condensed" font-size="12" lengthAdjust="spacingAndGlyphs" textLength="175" x="166.5" y="352.9473">add resulted word to suggestions</text><polygon fill="#FFFFFF" filter="url(#fd7m7g7cz6jh2)" points="167,283.3691,341,283.3691,353,295.3691,341,307.3691,167,307.3691,155,295.3691,167,283.3691" style="stroke: #000000; stroke-width: 1.5;"/><text fill="#000000" font-family="Roboto Condensed" font-size="11" lengthAdjust="spacingAndGlyphs" textLength="17" x="258" y="317.5742">yes</text><text fill="#000000" font-family="Roboto Condensed" font-size="11" lengthAdjust="spacingAndGlyphs" textLength="174" x="167" y="299.1289">resulting word is spelled correctly?</text><text fill="#000000" font-family="Roboto Condensed" font-size="11" lengthAdjust="spacingAndGlyphs" textLength="13" x="353" y="292.6836">no</text><polygon fill="#FFFFFF" filter="url(#fd7m7g7cz6jh2)" points="254,385.877,266,397.877,254,409.877,242,397.877,254,385.877" style="stroke: #000000; stroke-width: 1.5;"/><rect fill="#FFFFFF" filter="url(#fd7m7g7cz6jh2)" height="34.0625" rx="12.5" ry="12.5" style="stroke: #000000; stroke-width: 1.5;" width="191" x="158.5" y="429.877"/><text fill="#000000" font-family="Roboto Condensed" font-size="12" lengthAdjust="spacingAndGlyphs" textLength="171" x="168.5" y="451.0098">restore replaced word character</text><polygon fill="#FFFFFF" filter="url(#fd7m7g7cz6jh2)" points="97.5,180.8613,410.5,180.8613,422.5,192.8613,410.5,204.8613,97.5,204.8613,85.5,192.8613,97.5,180.8613" style="stroke: #000000; stroke-width: 1.5;"/><text fill="#000000" font-family="Roboto Condensed" font-size="11" lengthAdjust="spacingAndGlyphs" textLength="17" x="258" y="215.0664">yes</text><text fill="#000000" font-family="Roboto Condensed" font-size="11" lengthAdjust="spacingAndGlyphs" textLength="313" x="97.5" y="196.6211">word character differs from to upper case converted character?</text><text fill="#000000" font-family="Roboto Condensed" font-size="11" lengthAdjust="spacingAndGlyphs" textLength="13" x="422.5" y="190.1758">no</text><polygon fill="#FFFFFF" filter="url(#fd7m7g7cz6jh2)" points="254,483.9395,266,495.9395,254,507.9395,242,495.9395,254,483.9395" style="stroke: #000000; stroke-width: 1.5;"/><rect fill="#FFFFFF" filter="url(#fd7m7g7cz6jh2)" height="34.0625" rx="12.5" ry="12.5" style="stroke: #000000; stroke-width: 1.5;" width="324" x="92" y="632.0898"/><text fill="#000000" font-family="Roboto Condensed" font-size="12" lengthAdjust="spacingAndGlyphs" textLength="304" x="102" y="653.2227">replace word character with that character from the subset</text><rect fill="#FFFFFF" filter="url(#fd7m7g7cz6jh2)" height="34.0625" rx="12.5" ry="12.5" style="stroke: #000000; stroke-width: 1.5;" width="195" x="156.5" y="734.5977"/><text fill="#000000" font-family="Roboto Condensed" font-size="12" lengthAdjust="spacingAndGlyphs" textLength="175" x="166.5" y="755.7305">add resulted word to suggestions</text><polygon fill="#FFFFFF" filter="url(#fd7m7g7cz6jh2)" points="167,686.1523,341,686.1523,353,698.1523,341,710.1523,167,710.1523,155,698.1523,167,686.1523" style="stroke: #000000; stroke-width: 1.5;"/><text fill="#000000" font-family="Roboto Condensed" font-size="11" lengthAdjust="spacingAndGlyphs" textLength="17" x="258" y="720.3574">yes</text><text fill="#000000" font-family="Roboto Condensed" font-size="11" lengthAdjust="spacingAndGlyphs" textLength="174" x="167" y="701.9121">resulting word is spelled correctly?</text><text fill="#000000" font-family="Roboto Condensed" font-size="11" lengthAdjust="spacingAndGlyphs" textLength="13" x="353" y="695.4668">no</text><polygon fill="#FFFFFF" filter="url(#fd7m7g7cz6jh2)" points="254,788.6602,266,800.6602,254,812.6602,242,800.6602,254,788.6602" style="stroke: #000000; stroke-width: 1.5;"/><rect fill="#FFFFFF" filter="url(#fd7m7g7cz6jh2)" height="34.0625" rx="12.5" ry="12.5" style="stroke: #000000; stroke-width: 1.5;" width="191" x="158.5" y="832.6602"/><text fill="#000000" font-family="Roboto Condensed" font-size="12" lengthAdjust="spacingAndGlyphs" textLength="171" x="168.5" y="853.793">restore replaced word character</text><polygon fill="#FFFFFF" filter="url(#fd7m7g7cz6jh2)" points="120.5,583.6445,387.5,583.6445,399.5,595.6445,387.5,607.6445,120.5,607.6445,108.5,595.6445,120.5,583.6445" style="stroke: #000000; stroke-width: 1.5;"/><text fill="#000000" font-family="Roboto Condensed" font-size="11" lengthAdjust="spacingAndGlyphs" textLength="17" x="258" y="617.8496">yes</text><text fill="#000000" font-family="Roboto Condensed" font-size="11" lengthAdjust="spacingAndGlyphs" textLength="267" x="120.5" y="599.4043">the subset has a character before the word character?</text><text fill="#000000" font-family="Roboto Condensed" font-size="11" lengthAdjust="spacingAndGlyphs" textLength="13" x="399.5" y="592.959">no</text><polygon fill="#FFFFFF" filter="url(#fd7m7g7cz6jh2)" points="254,886.7227,266,898.7227,254,910.7227,242,898.7227,254,886.7227" style="stroke: #000000; stroke-width: 1.5;"/><rect fill="#FFFFFF" filter="url(#fd7m7g7cz6jh2)" height="34.0625" rx="12.5" ry="12.5" style="stroke: #000000; stroke-width: 1.5;" width="324" x="92" y="988.2227"/><text fill="#000000" font-family="Roboto Condensed" font-size="12" lengthAdjust="spacingAndGlyphs" textLength="304" x="102" y="1009.3555">replace word character with that character from the subset</text><rect fill="#FFFFFF" filter="url(#fd7m7g7cz6jh2)" height="34.0625" rx="12.5" ry="12.5" style="stroke: #000000; stroke-width: 1.5;" width="195" x="156.5" y="1090.7305"/><text fill="#000000" font-family="Roboto Condensed" font-size="12" lengthAdjust="spacingAndGlyphs" textLength="175" x="166.5" y="1111.8633">add resulted word to suggestions</text><polygon fill="#FFFFFF" filter="url(#fd7m7g7cz6jh2)" points="167,1042.2852,341,1042.2852,353,1054.2852,341,1066.2852,167,1066.2852,155,1054.2852,167,1042.2852" style="stroke: #000000; stroke-width: 1.5;"/><text fill="#000000" font-family="Roboto Condensed" font-size="11" lengthAdjust="spacingAndGlyphs" textLength="17" x="258" y="1076.4902">yes</text><text fill="#000000" font-family="Roboto Condensed" font-size="11" lengthAdjust="spacingAndGlyphs" textLength="174" x="167" y="1058.0449">resulting word is spelled correctly?</text><text fill="#000000" font-family="Roboto Condensed" font-size="11" lengthAdjust="spacingAndGlyphs" textLength="13" x="353" y="1051.5996">no</text><polygon fill="#FFFFFF" filter="url(#fd7m7g7cz6jh2)" points="254,1144.793,266,1156.793,254,1168.793,242,1156.793,254,1144.793" style="stroke: #000000; stroke-width: 1.5;"/><rect fill="#FFFFFF" filter="url(#fd7m7g7cz6jh2)" height="34.0625" rx="12.5" ry="12.5" style="stroke: #000000; stroke-width: 1.5;" width="191" x="158.5" y="1188.793"/><text fill="#000000" font-family="Roboto Condensed" font-size="12" lengthAdjust="spacingAndGlyphs" textLength="171" x="168.5" y="1209.9258">restore replaced word character</text><polygon fill="#FFFFFF" filter="url(#fd7m7g7cz6jh2)" points="125.5,939.7773,382.5,939.7773,394.5,951.7773,382.5,963.7773,125.5,963.7773,113.5,951.7773,125.5,939.7773" style="stroke: #000000; stroke-width: 1.5;"/><text fill="#000000" font-family="Roboto Condensed" font-size="11" lengthAdjust="spacingAndGlyphs" textLength="17" x="258" y="973.9824">yes</text><text fill="#000000" font-family="Roboto Condensed" font-size="11" lengthAdjust="spacingAndGlyphs" textLength="257" x="125.5" y="955.5371">the subset has a character after the word character?</text><text fill="#000000" font-family="Roboto Condensed" font-size="11" lengthAdjust="spacingAndGlyphs" textLength="13" x="394.5" y="949.0918">no</text><polygon fill="#FFFFFF" filter="url(#fd7m7g7cz6jh2)" points="254,1242.8555,266,1254.8555,254,1266.8555,242,1254.8555,254,1242.8555" style="stroke: #000000; stroke-width: 1.5;"/><polygon fill="#FFFFFF" filter="url(#fd7m7g7cz6jh2)" points="66,527.9395,442,527.9395,454,539.9395,442,551.9395,66,551.9395,54,539.9395,66,527.9395" style="stroke: #000000; stroke-width: 1.5;"/><text fill="#000000" font-family="Roboto Condensed" font-size="11" lengthAdjust="spacingAndGlyphs" textLength="17" x="258" y="562.1445">yes</text><text fill="#000000" font-family="Roboto Condensed" font-size="11" lengthAdjust="spacingAndGlyphs" textLength="376" x="66" y="543.6992">iterate over each subset of KEY characters that contains the word character?</text><text fill="#000000" font-family="Roboto Condensed" font-size="11" lengthAdjust="spacingAndGlyphs" textLength="13" x="41" y="537.2539">no</text><polygon fill="#FFFFFF" filter="url(#fd7m7g7cz6jh2)" points="175.5,71.0938,332.5,71.0938,344.5,83.0938,332.5,95.0938,175.5,95.0938,163.5,83.0938,175.5,71.0938" style="stroke: #000000; stroke-width: 1.5;"/><text fill="#000000" font-family="Roboto Condensed" font-size="11" lengthAdjust="spacingAndGlyphs" textLength="17" x="258" y="105.2988">yes</text><text fill="#000000" font-family="Roboto Condensed" font-size="11" lengthAdjust="spacingAndGlyphs" textLength="157" x="175.5" y="86.8535">iterate over characters in word?</text><text fill="#000000" font-family="Roboto Condensed" font-size="11" lengthAdjust="spacingAndGlyphs" textLength="13" x="150.5" y="80.4082">no</text><rect fill="#FFFFFF" filter="url(#fd7m7g7cz6jh2)" height="34.0625" rx="12.5" ry="12.5" style="stroke: #000000; stroke-width: 1.5;" width="117" x="195.5" y="1330.8555"/><text fill="#000000" font-family="Roboto Condensed" font-size="12" lengthAdjust="spacingAndGlyphs" textLength="97" x="205.5" y="1351.9883">return suggestions</text><ellipse cx="254" cy="1394.918" fill="none" filter="url(#fd7m7g7cz6jh2)" rx="10" ry="10" style="stroke: #000000; stroke-width: 1.0;"/><ellipse cx="254.5" cy="1395.418" fill="#000000" filter="url(#fd7m7g7cz6jh2)" rx="6" ry="6" style="stroke: none; stroke-width: 1.0;"/><line style="stroke: #000000; stroke-width: 1.5;" x1="254" x2="254" y1="307.3691" y2="331.8145"/><polygon fill="#000000" points="250,321.8145,254,331.8145,258,321.8145,254,325.8145" style="stroke: #000000; stroke-width: 1.0;"/><line style="stroke: #000000; stroke-width: 1.5;" x1="353" x2="365" y1="295.3691" y2="295.3691"/><polygon fill="#000000" points="361,338.8457,365,348.8457,369,338.8457,365,342.8457" style="stroke: #000000; stroke-width: 1.5;"/><line style="stroke: #000000; stroke-width: 1.5;" x1="365" x2="365" y1="295.3691" y2="397.877"/><line style="stroke: #000000; stroke-width: 1.5;" x1="365" x2="266" y1="397.877" y2="397.877"/><polygon fill="#000000" points="276,393.877,266,397.877,276,401.877,272,397.877" style="stroke: #000000; stroke-width: 1.0;"/><line style="stroke: #000000; stroke-width: 1.5;" x1="254" x2="254" y1="365.877" y2="385.877"/><polygon fill="#000000" points="250,375.877,254,385.877,258,375.877,254,379.877" style="stroke: #000000; stroke-width: 1.0;"/><line style="stroke: #000000; stroke-width: 1.5;" x1="254" x2="254" y1="263.3691" y2="283.3691"/><polygon fill="#000000" points="250,273.3691,254,283.3691,258,273.3691,254,277.3691" style="stroke: #000000; stroke-width: 1.0;"/><line style="stroke: #000000; stroke-width: 1.5;" x1="254" x2="254" y1="409.877" y2="429.877"/><polygon fill="#000000" points="250,419.877,254,429.877,258,419.877,254,423.877" style="stroke: #000000; stroke-width: 1.0;"/><line style="stroke: #000000; stroke-width: 1.5;" x1="254" x2="254" y1="204.8613" y2="229.3066"/><polygon fill="#000000" points="250,219.3066,254,229.3066,258,219.3066,254,223.3066" style="stroke: #000000; stroke-width: 1.0;"/><line style="stroke: #000000; stroke-width: 1.5;" x1="422.5" x2="434.5" y1="192.8613" y2="192.8613"/><polygon fill="#000000" points="430.5,338.8457,434.5,348.8457,438.5,338.8457,434.5,342.8457" style="stroke: #000000; stroke-width: 1.5;"/><line style="stroke: #000000; stroke-width: 1.5;" x1="434.5" x2="434.5" y1="192.8613" y2="495.9395"/><line style="stroke: #000000; stroke-width: 1.5;" x1="434.5" x2="266" y1="495.9395" y2="495.9395"/><polygon fill="#000000" points="276,491.9395,266,495.9395,276,499.9395,272,495.9395" style="stroke: #000000; stroke-width: 1.0;"/><line style="stroke: #000000; stroke-width: 1.5;" x1="254" x2="254" y1="463.9395" y2="483.9395"/><polygon fill="#000000" points="250,473.9395,254,483.9395,258,473.9395,254,477.9395" style="stroke: #000000; stroke-width: 1.0;"/><line style="stroke: #000000; stroke-width: 1.5;" x1="254" x2="254" y1="160.8613" y2="180.8613"/><polygon fill="#000000" points="250,170.8613,254,180.8613,258,170.8613,254,174.8613" style="stroke: #000000; stroke-width: 1.0;"/><line style="stroke: #000000; stroke-width: 1.5;" x1="254" x2="254" y1="710.1523" y2="734.5977"/><polygon fill="#000000" points="250,724.5977,254,734.5977,258,724.5977,254,728.5977" style="stroke: #000000; stroke-width: 1.0;"/><line style="stroke: #000000; stroke-width: 1.5;" x1="353" x2="365" y1="698.1523" y2="698.1523"/><polygon fill="#000000" points="361,741.6289,365,751.6289,369,741.6289,365,745.6289" style="stroke: #000000; stroke-width: 1.5;"/><line style="stroke: #000000; stroke-width: 1.5;" x1="365" x2="365" y1="698.1523" y2="800.6602"/><line style="stroke: #000000; stroke-width: 1.5;" x1="365" x2="266" y1="800.6602" y2="800.6602"/><polygon fill="#000000" points="276,796.6602,266,800.6602,276,804.6602,272,800.6602" style="stroke: #000000; stroke-width: 1.0;"/><line style="stroke: #000000; stroke-width: 1.5;" x1="254" x2="254" y1="768.6602" y2="788.6602"/><polygon fill="#000000" points="250,778.6602,254,788.6602,258,778.6602,254,782.6602" style="stroke: #000000; stroke-width: 1.0;"/><line style="stroke: #000000; stroke-width: 1.5;" x1="254" x2="254" y1="666.1523" y2="686.1523"/><polygon fill="#000000" points="250,676.1523,254,686.1523,258,676.1523,254,680.1523" style="stroke: #000000; stroke-width: 1.0;"/><line style="stroke: #000000; stroke-width: 1.5;" x1="254" x2="254" y1="812.6602" y2="832.6602"/><polygon fill="#000000" points="250,822.6602,254,832.6602,258,822.6602,254,826.6602" style="stroke: #000000; stroke-width: 1.0;"/><line style="stroke: #000000; stroke-width: 1.5;" x1="254" x2="254" y1="607.6445" y2="632.0898"/><polygon fill="#000000" points="250,622.0898,254,632.0898,258,622.0898,254,626.0898" style="stroke: #000000; stroke-width: 1.0;"/><line style="stroke: #000000; stroke-width: 1.5;" x1="399.5" x2="426" y1="595.6445" y2="595.6445"/><polygon fill="#000000" points="422,741.6289,426,751.6289,430,741.6289,426,745.6289" style="stroke: #000000; stroke-width: 1.5;"/><line style="stroke: #000000; stroke-width: 1.5;" x1="426" x2="426" y1="595.6445" y2="898.7227"/><line style="stroke: #000000; stroke-width: 1.5;" x1="426" x2="266" y1="898.7227" y2="898.7227"/><polygon fill="#000000" points="276,894.7227,266,898.7227,276,902.7227,272,898.7227" style="stroke: #000000; stroke-width: 1.0;"/><line style="stroke: #000000; stroke-width: 1.5;" x1="254" x2="254" y1="866.7227" y2="886.7227"/><polygon fill="#000000" points="250,876.7227,254,886.7227,258,876.7227,254,880.7227" style="stroke: #000000; stroke-width: 1.0;"/><line style="stroke: #000000; stroke-width: 1.5;" x1="254" x2="254" y1="1066.2852" y2="1090.7305"/><polygon fill="#000000" points="250,1080.7305,254,1090.7305,258,1080.7305,254,1084.7305" style="stroke: #000000; stroke-width: 1.0;"/><line style="stroke: #000000; stroke-width: 1.5;" x1="353" x2="365" y1="1054.2852" y2="1054.2852"/><polygon fill="#000000" points="361,1097.7617,365,1107.7617,369,1097.7617,365,1101.7617" style="stroke: #000000; stroke-width: 1.5;"/><line style="stroke: #000000; stroke-width: 1.5;" x1="365" x2="365" y1="1054.2852" y2="1156.793"/><line style="stroke: #000000; stroke-width: 1.5;" x1="365" x2="266" y1="1156.793" y2="1156.793"/><polygon fill="#000000" points="276,1152.793,266,1156.793,276,1160.793,272,1156.793" style="stroke: #000000; stroke-width: 1.0;"/><line style="stroke: #000000; stroke-width: 1.5;" x1="254" x2="254" y1="1124.793" y2="1144.793"/><polygon fill="#000000" points="250,1134.793,254,1144.793,258,1134.793,254,1138.793" style="stroke: #000000; stroke-width: 1.0;"/><line style="stroke: #000000; stroke-width: 1.5;" x1="254" x2="254" y1="1022.2852" y2="1042.2852"/><polygon fill="#000000" points="250,1032.2852,254,1042.2852,258,1032.2852,254,1036.2852" style="stroke: #000000; stroke-width: 1.0;"/><line style="stroke: #000000; stroke-width: 1.5;" x1="254" x2="254" y1="1168.793" y2="1188.793"/><polygon fill="#000000" points="250,1178.793,254,1188.793,258,1178.793,254,1182.793" style="stroke: #000000; stroke-width: 1.0;"/><line style="stroke: #000000; stroke-width: 1.5;" x1="254" x2="254" y1="963.7773" y2="988.2227"/><polygon fill="#000000" points="250,978.2227,254,988.2227,258,978.2227,254,982.2227" style="stroke: #000000; stroke-width: 1.0;"/><line style="stroke: #000000; stroke-width: 1.5;" x1="394.5" x2="426" y1="951.7773" y2="951.7773"/><polygon fill="#000000" points="422,1097.7617,426,1107.7617,430,1097.7617,426,1101.7617" style="stroke: #000000; stroke-width: 1.5;"/><line style="stroke: #000000; stroke-width: 1.5;" x1="426" x2="426" y1="951.7773" y2="1254.8555"/><line style="stroke: #000000; stroke-width: 1.5;" x1="426" x2="266" y1="1254.8555" y2="1254.8555"/><polygon fill="#000000" points="276,1250.8555,266,1254.8555,276,1258.8555,272,1254.8555" style="stroke: #000000; stroke-width: 1.0;"/><line style="stroke: #000000; stroke-width: 1.5;" x1="254" x2="254" y1="1222.8555" y2="1242.8555"/><polygon fill="#000000" points="250,1232.8555,254,1242.8555,258,1232.8555,254,1236.8555" style="stroke: #000000; stroke-width: 1.0;"/><line style="stroke: #000000; stroke-width: 1.5;" x1="254" x2="254" y1="910.7227" y2="939.7773"/><polygon fill="#000000" points="250,929.7773,254,939.7773,258,929.7773,254,933.7773" style="stroke: #000000; stroke-width: 1.0;"/><line style="stroke: #000000; stroke-width: 1.5;" x1="254" x2="254" y1="551.9395" y2="583.6445"/><polygon fill="#000000" points="250,573.6445,254,583.6445,258,573.6445,254,577.6445" style="stroke: #000000; stroke-width: 1.0;"/><line style="stroke: #000000; stroke-width: 1.5;" x1="254" x2="254" y1="1266.8555" y2="1276.8555"/><line style="stroke: #000000; stroke-width: 1.5;" x1="254" x2="466" y1="1276.8555" y2="1276.8555"/><polygon fill="#000000" points="462,919.7773,466,909.7773,470,919.7773,466,915.7773" style="stroke: #000000; stroke-width: 1.5;"/><line style="stroke: #000000; stroke-width: 1.5;" x1="466" x2="466" y1="539.9395" y2="1276.8555"/><line style="stroke: #000000; stroke-width: 1.5;" x1="466" x2="454" y1="539.9395" y2="539.9395"/><polygon fill="#000000" points="464,535.9395,454,539.9395,464,543.9395,460,539.9395" style="stroke: #000000; stroke-width: 1.0;"/><line style="stroke: #000000; stroke-width: 1.5;" x1="54" x2="42" y1="539.9395" y2="539.9395"/><polygon fill="#000000" points="38,905.7773,42,915.7773,46,905.7773,42,909.7773" style="stroke: #000000; stroke-width: 1.5;"/><line style="stroke: #000000; stroke-width: 1.5;" x1="42" x2="42" y1="539.9395" y2="1288.8555"/><line style="stroke: #000000; stroke-width: 1.5;" x1="42" x2="478" y1="1288.8555" y2="1288.8555"/><line style="stroke: #000000; stroke-width: 1.5;" x1="478" x2="478" y1="83.0938" y2="1288.8555"/><line style="stroke: #000000; stroke-width: 1.5;" x1="478" x2="344.5" y1="83.0938" y2="83.0938"/><polygon fill="#000000" points="354.5,79.0938,344.5,83.0938,354.5,87.0938,350.5,83.0938" style="stroke: #000000; stroke-width: 1.0;"/><line style="stroke: #000000; stroke-width: 1.5;" x1="254" x2="254" y1="507.9395" y2="527.9395"/><polygon fill="#000000" points="250,517.9395,254,527.9395,258,517.9395,254,521.9395" style="stroke: #000000; stroke-width: 1.0;"/><line style="stroke: #000000; stroke-width: 1.5;" x1="254" x2="254" y1="95.0938" y2="126.7988"/><polygon fill="#000000" points="250,116.7988,254,126.7988,258,116.7988,254,120.7988" style="stroke: #000000; stroke-width: 1.0;"/><line style="stroke: #000000; stroke-width: 1.5;" x1="163.5" x2="24" y1="83.0938" y2="83.0938"/><polygon fill="#000000" points="20,676.207,24,686.207,28,676.207,24,680.207" style="stroke: #000000; stroke-width: 1.5;"/><line style="stroke: #000000; stroke-width: 1.5;" x1="24" x2="24" y1="83.0938" y2="1310.8555"/><line style="stroke: #000000; stroke-width: 1.5;" x1="24" x2="254" y1="1310.8555" y2="1310.8555"/><line style="stroke: #000000; stroke-width: 1.5;" x1="254" x2="254" y1="1310.8555" y2="1330.8555"/><polygon fill="#000000" points="250,1320.8555,254,1330.8555,258,1320.8555,254,1324.8555" style="stroke: #000000; stroke-width: 1.0;"/><line style="stroke: #000000; stroke-width: 1.5;" x1="254" x2="254" y1="51.0938" y2="71.0938"/><polygon fill="#000000" points="250,61.0938,254,71.0938,258,61.0938,254,65.0938" style="stroke: #000000; stroke-width: 1.0;"/><line style="stroke: #000000; stroke-width: 1.5;" x1="254" x2="254" y1="1364.918" y2="1384.918"/><polygon fill="#000000" points="250,1374.918,254,1384.918,258,1374.918,254,1378.918" style="stroke: #000000; stroke-width: 1.0;"/><!--
@startuml
skinparam BackgroundColor White|White
skinparam ArrowColor Black
skinparam DefaultFontName Roboto Condensed
skinparam TitleFontStyle Bold

skinparam NoteBackgroundColor White
skinparam NoteBorderColor Black

skinparam UsecaseBackgroundColor White
skinparam ActorBackgroundColor White
skinparam UsecaseBorderColor Black
skinparam ActorBorderColor Black

skinparam usecase {
	BackgroundColor<<for now out of scope>> Gray
}

skinparam StateBackgroundColor White
skinparam StateBorderColor Black

skinparam ActivityBackgroundColor White
skinparam ActivityDiamondBackgroundColor White
skinparam ActivityBorderColor Black
skinparam ActivityDiamondBorderColor Black

skinparam ClassBackgroundColor White
skinparam ClassBorderColor Black
hide empty members

title Nuspell - Get Suggestions - ""keyboard""

start

while (iterate over characters in word?) is (yes)
	:convert word character via locale to upper case;
	if (word character differs from to upper case converted character?) then (yes)
		:replace word character with converted upper case character;
		if (resulting word is spelled correctly?) then (yes)
			:add resulted word to suggestions;
		else (no)
		endif
		:restore replaced word character;
	else (no)
	endif
	while (iterate over each subset of KEY characters that contains the word character?) is (yes)
		if (the subset has a character before the word character?) then (yes)
			:replace word character with that character from the subset;
			if (resulting word is spelled correctly?) then (yes)
				:add resulted word to suggestions;
			else (no)
			endif
			:restore replaced word character;
		else (no)
		endif
		if (the subset has a character after the word character?) then (yes)
			:replace word character with that character from the subset;
			if (resulting word is spelled correctly?) then (yes)
				:add resulted word to suggestions;
			else (no)
			endif
			:restore replaced word character;
		else (no)
		endif
	endwhile (no)
endwhile (no)
:return suggestions;

stop

@enduml

PlantUML version 1.2018.12beta1(Unknown compile time)
(GPL source distribution)
Java Runtime: OpenJDK Runtime Environment
JVM: OpenJDK 64-Bit Server VM
Java Version: 10.0.2+13-Ubuntu-1ubuntu0.18.04.2
Operating System: Linux
OS Version: 4.15.0-34-generic
Default Encoding: UTF-8
Language: en
Country: US
--></g></svg>