<?xml version="1.0" encoding="UTF-8" standalone="no"?><svg xmlns="http://www.w3.org/2000/svg" xmlns:xlink="http://www.w3.org/1999/xlink" contentScriptType="application/ecmascript" contentStyleType="text/css" height="658px" preserveAspectRatio="none" style="width:363px;height:658px;" version="1.1" viewBox="0 0 363 658" width="363px" zoomAndPan="magnify"><defs><linearGradient id="g1if0t45v0rrrf0" x1="0%" x2="100%" y1="50%" y2="50%"><stop offset="0%" stop-color="#FFFFFF"/><stop offset="100%" stop-color="#FFFFFF"/></linearGradient><filter height="300%" id="f1if0t45v0rrrf" width="300%" x="-1" y="-1"><feGaussianBlur result="blurOut" stdDeviation="2.0"/><feColorMatrix in="blurOut" result="blurOut2" type="matrix" values="0 0 0 0 0 0 0 0 0 0 0 0 0 0 0 0 0 0 .4 0"/><feOffset dx="4.0" dy="4.0" in="blurOut2" result="blurOut3"/><feBlend in="SourceGraphic" in2="blurOut3" mode="normal"/></filter></defs><g><rect fill="url(#g1if0t45v0rrrf0)" height="658" style="stroke: none; stroke-width: 1.0;" width="363" x="0" y="0"/><text fill="#000000" font-family="Roboto Condensed" font-size="18" font-weight="bold" lengthAdjust="spacingAndGlyphs" textLength="214" x="27.5" y="26.6992">Nuspell - Get Suggestions -</text><text fill="#000000" font-family="monospace" font-size="18" font-weight="bold" lengthAdjust="spacingAndGlyphs" textLength="88" x="245.5" y="26.8486">bad_char</text><ellipse cx="181" cy="41.0938" fill="#000000" filter="url(#f1if0t45v0rrrf)" rx="10" ry="10" style="stroke: none; stroke-width: 1.0;"/><rect fill="#FFFFFF" filter="url(#f1if0t45v0rrrf)" height="34.0625" rx="12.5" ry="12.5" style="stroke: #000000; stroke-width: 1.5;" width="244" x="59" y="230.9492"/><text fill="#000000" font-family="Roboto Condensed" font-size="12" lengthAdjust="spacingAndGlyphs" textLength="224" x="69" y="252.082">replace word character with TRY character</text><rect fill="#FFFFFF" filter="url(#f1if0t45v0rrrf)" height="34.0625" rx="12.5" ry="12.5" style="stroke: #000000; stroke-width: 1.5;" width="195" x="83.5" y="333.457"/><text fill="#000000" font-family="Roboto Condensed" font-size="12" lengthAdjust="spacingAndGlyphs" textLength="175" x="93.5" y="354.5898">add resulted word to suggestions</text><polygon fill="#FFFFFF" filter="url(#f1if0t45v0rrrf)" points="94,285.0117,268,285.0117,280,297.0117,268,309.0117,94,309.0117,82,297.0117,94,285.0117" style="stroke: #000000; stroke-width: 1.5;"/><text fill="#000000" font-family="Roboto Condensed" font-size="11" lengthAdjust="spacingAndGlyphs" textLength="17" x="185" y="319.2168">yes</text><text fill="#000000" font-family="Roboto Condensed" font-size="11" lengthAdjust="spacingAndGlyphs" textLength="174" x="94" y="300.7715">resulting word is spelled correctly?</text><text fill="#000000" font-family="Roboto Condensed" font-size="11" lengthAdjust="spacingAndGlyphs" textLength="13" x="280" y="294.3262">no</text><polygon fill="#FFFFFF" filter="url(#f1if0t45v0rrrf)" points="181,387.5195,193,399.5195,181,411.5195,169,399.5195,181,387.5195" style="stroke: #000000; stroke-width: 1.5;"/><polygon fill="#FFFFFF" filter="url(#f1if0t45v0rrrf)" points="68,182.5039,294,182.5039,306,194.5039,294,206.5039,68,206.5039,56,194.5039,68,182.5039" style="stroke: #000000; stroke-width: 1.5;"/><text fill="#000000" font-family="Roboto Condensed" font-size="11" lengthAdjust="spacingAndGlyphs" textLength="13" x="185" y="216.709">no</text><text fill="#000000" font-family="Roboto Condensed" font-size="11" lengthAdjust="spacingAndGlyphs" textLength="226" x="68" y="198.2637">TRY character is identitical to word character?</text><text fill="#000000" font-family="Roboto Condensed" font-size="11" lengthAdjust="spacingAndGlyphs" textLength="17" x="306" y="191.8184">yes</text><polygon fill="#FFFFFF" filter="url(#f1if0t45v0rrrf)" points="181,431.5195,193,443.5195,181,455.5195,169,443.5195,181,431.5195" style="stroke: #000000; stroke-width: 1.5;"/><rect fill="#FFFFFF" filter="url(#f1if0t45v0rrrf)" height="34.0625" rx="12.5" ry="12.5" style="stroke: #000000; stroke-width: 1.5;" width="191" x="85.5" y="475.5195"/><text fill="#000000" font-family="Roboto Condensed" font-size="12" lengthAdjust="spacingAndGlyphs" textLength="171" x="95.5" y="496.6523">restore replaced word character</text><polygon fill="#FFFFFF" filter="url(#f1if0t45v0rrrf)" points="102.5,126.7988,259.5,126.7988,271.5,138.7988,259.5,150.7988,102.5,150.7988,90.5,138.7988,102.5,126.7988" style="stroke: #000000; stroke-width: 1.5;"/><text fill="#000000" font-family="Roboto Condensed" font-size="11" lengthAdjust="spacingAndGlyphs" textLength="17" x="185" y="161.0039">yes</text><text fill="#000000" font-family="Roboto Condensed" font-size="11" lengthAdjust="spacingAndGlyphs" textLength="157" x="102.5" y="142.5586">iterate over characters in word?</text><text fill="#000000" font-family="Roboto Condensed" font-size="11" lengthAdjust="spacingAndGlyphs" textLength="13" x="77.5" y="136.1133">no</text><polygon fill="#FFFFFF" filter="url(#f1if0t45v0rrrf)" points="112,71.0938,250,71.0938,262,83.0938,250,95.0938,112,95.0938,100,83.0938,112,71.0938" style="stroke: #000000; stroke-width: 1.5;"/><text fill="#000000" font-family="Roboto Condensed" font-size="11" lengthAdjust="spacingAndGlyphs" textLength="17" x="185" y="105.2988">yes</text><text fill="#000000" font-family="Roboto Condensed" font-size="11" lengthAdjust="spacingAndGlyphs" textLength="138" x="112" y="86.8535">iterate over TRY characters?</text><text fill="#000000" font-family="Roboto Condensed" font-size="11" lengthAdjust="spacingAndGlyphs" textLength="13" x="87" y="80.4082">no</text><rect fill="#FFFFFF" filter="url(#f1if0t45v0rrrf)" height="34.0625" rx="12.5" ry="12.5" style="stroke: #000000; stroke-width: 1.5;" width="117" x="122.5" y="573.582"/><text fill="#000000" font-family="Roboto Condensed" font-size="12" lengthAdjust="spacingAndGlyphs" textLength="97" x="132.5" y="594.7148">return suggestions</text><ellipse cx="181" cy="637.6445" fill="none" filter="url(#f1if0t45v0rrrf)" rx="10" ry="10" style="stroke: #000000; stroke-width: 1.0;"/><ellipse cx="181.5" cy="638.1445" fill="#000000" filter="url(#f1if0t45v0rrrf)" rx="6" ry="6" style="stroke: none; stroke-width: 1.0;"/><line style="stroke: #000000; stroke-width: 1.5;" x1="181" x2="181" y1="309.0117" y2="333.457"/><polygon fill="#000000" points="177,323.457,181,333.457,185,323.457,181,327.457" style="stroke: #000000; stroke-width: 1.0;"/><line style="stroke: #000000; stroke-width: 1.5;" x1="280" x2="292" y1="297.0117" y2="297.0117"/><polygon fill="#000000" points="288,340.4883,292,350.4883,296,340.4883,292,344.4883" style="stroke: #000000; stroke-width: 1.5;"/><line style="stroke: #000000; stroke-width: 1.5;" x1="292" x2="292" y1="297.0117" y2="399.5195"/><line style="stroke: #000000; stroke-width: 1.5;" x1="292" x2="193" y1="399.5195" y2="399.5195"/><polygon fill="#000000" points="203,395.5195,193,399.5195,203,403.5195,199,399.5195" style="stroke: #000000; stroke-width: 1.0;"/><line style="stroke: #000000; stroke-width: 1.5;" x1="181" x2="181" y1="367.5195" y2="387.5195"/><polygon fill="#000000" points="177,377.5195,181,387.5195,185,377.5195,181,381.5195" style="stroke: #000000; stroke-width: 1.0;"/><line style="stroke: #000000; stroke-width: 1.5;" x1="181" x2="181" y1="265.0117" y2="285.0117"/><polygon fill="#000000" points="177,275.0117,181,285.0117,185,275.0117,181,279.0117" style="stroke: #000000; stroke-width: 1.0;"/><line style="stroke: #000000; stroke-width: 1.5;" x1="181" x2="181" y1="206.5039" y2="230.9492"/><polygon fill="#000000" points="177,220.9492,181,230.9492,185,220.9492,181,224.9492" style="stroke: #000000; stroke-width: 1.0;"/><line style="stroke: #000000; stroke-width: 1.5;" x1="306" x2="318" y1="194.5039" y2="194.5039"/><polygon fill="#000000" points="314,305.957,318,315.957,322,305.957,318,309.957" style="stroke: #000000; stroke-width: 1.5;"/><line style="stroke: #000000; stroke-width: 1.5;" x1="318" x2="318" y1="194.5039" y2="443.5195"/><line style="stroke: #000000; stroke-width: 1.5;" x1="318" x2="193" y1="443.5195" y2="443.5195"/><polygon fill="#000000" points="203,439.5195,193,443.5195,203,447.5195,199,443.5195" style="stroke: #000000; stroke-width: 1.0;"/><line style="stroke: #000000; stroke-width: 1.5;" x1="181" x2="181" y1="411.5195" y2="431.5195"/><polygon fill="#000000" points="177,421.5195,181,431.5195,185,421.5195,181,425.5195" style="stroke: #000000; stroke-width: 1.0;"/><line style="stroke: #000000; stroke-width: 1.5;" x1="181" x2="181" y1="455.5195" y2="475.5195"/><polygon fill="#000000" points="177,465.5195,181,475.5195,185,465.5195,181,469.5195" style="stroke: #000000; stroke-width: 1.0;"/><line style="stroke: #000000; stroke-width: 1.5;" x1="181" x2="181" y1="150.7988" y2="182.5039"/><polygon fill="#000000" points="177,172.5039,181,182.5039,185,172.5039,181,176.5039" style="stroke: #000000; stroke-width: 1.0;"/><line style="stroke: #000000; stroke-width: 1.5;" x1="181" x2="181" y1="509.582" y2="519.582"/><line style="stroke: #000000; stroke-width: 1.5;" x1="181" x2="337" y1="519.582" y2="519.582"/><polygon fill="#000000" points="333,342.043,337,332.043,341,342.043,337,338.043" style="stroke: #000000; stroke-width: 1.5;"/><line style="stroke: #000000; stroke-width: 1.5;" x1="337" x2="337" y1="138.7988" y2="519.582"/><line style="stroke: #000000; stroke-width: 1.5;" x1="337" x2="271.5" y1="138.7988" y2="138.7988"/><polygon fill="#000000" points="281.5,134.7988,271.5,138.7988,281.5,142.7988,277.5,138.7988" style="stroke: #000000; stroke-width: 1.0;"/><line style="stroke: #000000; stroke-width: 1.5;" x1="90.5" x2="42" y1="138.7988" y2="138.7988"/><polygon fill="#000000" points="38,328.043,42,338.043,46,328.043,42,332.043" style="stroke: #000000; stroke-width: 1.5;"/><line style="stroke: #000000; stroke-width: 1.5;" x1="42" x2="42" y1="138.7988" y2="531.582"/><line style="stroke: #000000; stroke-width: 1.5;" x1="42" x2="349" y1="531.582" y2="531.582"/><line style="stroke: #000000; stroke-width: 1.5;" x1="349" x2="349" y1="83.0938" y2="531.582"/><line style="stroke: #000000; stroke-width: 1.5;" x1="349" x2="262" y1="83.0938" y2="83.0938"/><polygon fill="#000000" points="272,79.0938,262,83.0938,272,87.0938,268,83.0938" style="stroke: #000000; stroke-width: 1.0;"/><line style="stroke: #000000; stroke-width: 1.5;" x1="181" x2="181" y1="95.0938" y2="126.7988"/><polygon fill="#000000" points="177,116.7988,181,126.7988,185,116.7988,181,120.7988" style="stroke: #000000; stroke-width: 1.0;"/><line style="stroke: #000000; stroke-width: 1.5;" x1="100" x2="24" y1="83.0938" y2="83.0938"/><polygon fill="#000000" points="20,309.5977,24,319.5977,28,309.5977,24,313.5977" style="stroke: #000000; stroke-width: 1.5;"/><line style="stroke: #000000; stroke-width: 1.5;" x1="24" x2="24" y1="83.0938" y2="553.582"/><line style="stroke: #000000; stroke-width: 1.5;" x1="24" x2="181" y1="553.582" y2="553.582"/><line style="stroke: #000000; stroke-width: 1.5;" x1="181" x2="181" y1="553.582" y2="573.582"/><polygon fill="#000000" points="177,563.582,181,573.582,185,563.582,181,567.582" style="stroke: #000000; stroke-width: 1.0;"/><line style="stroke: #000000; stroke-width: 1.5;" x1="181" x2="181" y1="51.0938" y2="71.0938"/><polygon fill="#000000" points="177,61.0938,181,71.0938,185,61.0938,181,65.0938" style="stroke: #000000; stroke-width: 1.0;"/><line style="stroke: #000000; stroke-width: 1.5;" x1="181" x2="181" y1="607.6445" y2="627.6445"/><polygon fill="#000000" points="177,617.6445,181,627.6445,185,617.6445,181,621.6445" style="stroke: #000000; stroke-width: 1.0;"/><!--
@startuml
skinparam BackgroundColor White|White
skinparam ArrowColor Black
skinparam DefaultFontName Roboto Condensed
skinparam TitleFontStyle Bold

skinparam NoteBackgroundColor White
skinparam NoteBorderColor Black

skinparam UsecaseBackgroundColor White
skinparam ActorBackgroundColor White
skinparam UsecaseBorderColor Black
skinparam ActorBorderColor Black

skinparam usecase {
	BackgroundColor<<for now out of scope>> Gray
}

skinparam StateBackgroundColor White
skinparam StateBorderColor Black

skinparam ActivityBackgroundColor White
skinparam ActivityDiamondBackgroundColor White
skinparam ActivityBorderColor Black
skinparam ActivityDiamondBorderColor Black

skinparam ClassBackgroundColor White
skinparam ClassBorderColor Black
hide empty members

title Nuspell - Get Suggestions - ""bad_char""

start

while (iterate over TRY characters?) is (yes)
	while (iterate over characters in word?) is (yes)
		if (TRY character is identitical to word character?) then (yes)
		else (no)
			:replace word character with TRY character;
			if (resulting word is spelled correctly?) then (yes)
				:add resulted word to suggestions;
			else (no)
			endif
		endif
		:restore replaced word character;
	endwhile (no)
endwhile (no)
:return suggestions;

stop

@enduml

PlantUML version 1.2018.12beta1(Unknown compile time)
(GPL source distribution)
Java Runtime: OpenJDK Runtime Environment
JVM: OpenJDK 64-Bit Server VM
Java Version: 10.0.2+13-Ubuntu-1ubuntu0.18.04.2
Operating System: Linux
OS Version: 4.15.0-34-generic
Default Encoding: UTF-8
Language: en
Country: US
--></g></svg>