<?xml version="1.0" encoding="UTF-8" standalone="no"?><svg xmlns="http://www.w3.org/2000/svg" xmlns:xlink="http://www.w3.org/1999/xlink" contentScriptType="application/ecmascript" contentStyleType="text/css" height="532px" preserveAspectRatio="none" style="width:367px;height:532px;" version="1.1" viewBox="0 0 367 532" width="367px" zoomAndPan="magnify"><defs><linearGradient id="g1gx7w5wf0j7fd0" x1="0%" x2="100%" y1="50%" y2="50%"><stop offset="0%" stop-color="#FFFFFF"/><stop offset="100%" stop-color="#FFFFFF"/></linearGradient><filter height="300%" id="f1gx7w5wf0j7fd" width="300%" x="-1" y="-1"><feGaussianBlur result="blurOut" stdDeviation="2.0"/><feColorMatrix in="blurOut" result="blurOut2" type="matrix" values="0 0 0 0 0 0 0 0 0 0 0 0 0 0 0 0 0 0 .4 0"/><feOffset dx="4.0" dy="4.0" in="blurOut2" result="blurOut3"/><feBlend in="SourceGraphic" in2="blurOut3" mode="normal"/></filter></defs><g><rect fill="url(#g1gx7w5wf0j7fd0)" height="532" style="stroke: none; stroke-width: 1.0;" width="367" x="0" y="0"/><text fill="#000000" font-family="Roboto Condensed" font-size="18" font-weight="bold" lengthAdjust="spacingAndGlyphs" textLength="242" x="61.5" y="26.6992">Nuspell - Regression Reporting</text><ellipse cx="188.5" cy="41.0938" fill="#000000" filter="url(#f1gx7w5wf0j7fd)" rx="10" ry="10" style="stroke: none; stroke-width: 1.0;"/><rect fill="#FFFFFF" filter="url(#f1gx7w5wf0j7fd)" height="34.0625" rx="12.5" ry="12.5" style="stroke: #000000; stroke-width: 1.5;" width="104" x="136.5" y="243.3945"/><text fill="#000000" font-family="Roboto Condensed" font-size="12" lengthAdjust="spacingAndGlyphs" textLength="84" x="146.5" y="264.5273">read test results</text><polygon fill="#FFFFFF" filter="url(#f1gx7w5wf0j7fd)" points="107,187.6895,270,187.6895,282,199.6895,270,211.6895,107,211.6895,95,199.6895,107,187.6895" style="stroke: #000000; stroke-width: 1.5;"/><text fill="#000000" font-family="Roboto Condensed" font-size="11" lengthAdjust="spacingAndGlyphs" textLength="17" x="192.5" y="221.8945">yes</text><text fill="#000000" font-family="Roboto Condensed" font-size="11" lengthAdjust="spacingAndGlyphs" textLength="163" x="107" y="203.4492">languages with test results exist?</text><text fill="#000000" font-family="Roboto Condensed" font-size="11" lengthAdjust="spacingAndGlyphs" textLength="13" x="82" y="197.0039">no</text><rect fill="#FFFFFF" filter="url(#f1gx7w5wf0j7fd)" height="34.0625" rx="12.5" ry="12.5" style="stroke: #000000; stroke-width: 1.5;" width="257" x="60" y="334.457"/><text fill="#000000" font-family="Roboto Condensed" font-size="12" lengthAdjust="spacingAndGlyphs" textLength="237" x="70" y="355.5898">calculate average results for specific commit</text><polygon fill="#FFFFFF" filter="url(#f1gx7w5wf0j7fd)" points="104.5,131.9844,272.5,131.9844,284.5,143.9844,272.5,155.9844,104.5,155.9844,92.5,143.9844,104.5,131.9844" style="stroke: #000000; stroke-width: 1.5;"/><text fill="#000000" font-family="Roboto Condensed" font-size="11" lengthAdjust="spacingAndGlyphs" textLength="17" x="192.5" y="166.1895">yes</text><text fill="#000000" font-family="Roboto Condensed" font-size="11" lengthAdjust="spacingAndGlyphs" textLength="168" x="104.5" y="147.7441">commit IDs with test results exist?</text><text fill="#000000" font-family="Roboto Condensed" font-size="11" lengthAdjust="spacingAndGlyphs" textLength="13" x="79.5" y="141.2988">no</text><rect fill="#FFFFFF" filter="url(#f1gx7w5wf0j7fd)" height="34.0625" rx="12.5" ry="12.5" style="stroke: #000000; stroke-width: 1.5;" width="269" x="54" y="410.5195"/><text fill="#000000" font-family="Roboto Condensed" font-size="12" lengthAdjust="spacingAndGlyphs" textLength="249" x="64" y="431.6523">calculate average results for specific hostname</text><rect fill="#FFFFFF" filter="url(#f1gx7w5wf0j7fd)" height="34.0625" rx="12.5" ry="12.5" style="stroke: #000000; stroke-width: 1.5;" width="218" x="79.5" y="464.582"/><text fill="#000000" font-family="Roboto Condensed" font-size="12" lengthAdjust="spacingAndGlyphs" textLength="198" x="89.5" y="485.7148">generate graph for specific hostname</text><polygon fill="#FFFFFF" filter="url(#f1gx7w5wf0j7fd)" points="105,71.0938,272,71.0938,284,83.0938,272,95.0938,105,95.0938,93,83.0938,105,71.0938" style="stroke: #000000; stroke-width: 1.5;"/><text fill="#000000" font-family="Roboto Condensed" font-size="11" lengthAdjust="spacingAndGlyphs" textLength="17" x="192.5" y="105.2988">yes</text><text fill="#000000" font-family="Roboto Condensed" font-size="11" lengthAdjust="spacingAndGlyphs" textLength="167" x="105" y="86.8535">hostnames with test results exist?</text><text fill="#000000" font-family="Roboto Condensed" font-size="11" lengthAdjust="spacingAndGlyphs" textLength="13" x="80" y="80.4082">no</text><ellipse cx="24" cy="129.0938" fill="none" filter="url(#f1gx7w5wf0j7fd)" rx="10" ry="10" style="stroke: #000000; stroke-width: 1.0;"/><ellipse cx="24.5" cy="129.5938" fill="#000000" filter="url(#f1gx7w5wf0j7fd)" rx="6" ry="6" style="stroke: none; stroke-width: 1.0;"/><line style="stroke: #000000; stroke-width: 1.5;" x1="188.5" x2="188.5" y1="211.6895" y2="243.3945"/><polygon fill="#000000" points="184.5,233.3945,188.5,243.3945,192.5,233.3945,188.5,237.3945" style="stroke: #000000; stroke-width: 1.0;"/><line style="stroke: #000000; stroke-width: 1.5;" x1="188.5" x2="188.5" y1="277.457" y2="287.457"/><line style="stroke: #000000; stroke-width: 1.5;" x1="188.5" x2="294" y1="287.457" y2="287.457"/><polygon fill="#000000" points="290,251.9805,294,241.9805,298,251.9805,294,247.9805" style="stroke: #000000; stroke-width: 1.5;"/><line style="stroke: #000000; stroke-width: 1.5;" x1="294" x2="294" y1="199.6895" y2="287.457"/><line style="stroke: #000000; stroke-width: 1.5;" x1="294" x2="282" y1="199.6895" y2="199.6895"/><polygon fill="#000000" points="292,195.6895,282,199.6895,292,203.6895,288,199.6895" style="stroke: #000000; stroke-width: 1.0;"/><line style="stroke: #000000; stroke-width: 1.5;" x1="95" x2="83" y1="199.6895" y2="199.6895"/><polygon fill="#000000" points="79,237.9805,83,247.9805,87,237.9805,83,241.9805" style="stroke: #000000; stroke-width: 1.5;"/><line style="stroke: #000000; stroke-width: 1.5;" x1="83" x2="83" y1="199.6895" y2="299.457"/><line style="stroke: #000000; stroke-width: 1.5;" x1="83" x2="188.5" y1="299.457" y2="299.457"/><line style="stroke: #000000; stroke-width: 1.5;" x1="188.5" x2="188.5" y1="299.457" y2="334.457"/><polygon fill="#000000" points="184.5,324.457,188.5,334.457,192.5,324.457,188.5,328.457" style="stroke: #000000; stroke-width: 1.0;"/><line style="stroke: #000000; stroke-width: 1.5;" x1="188.5" x2="188.5" y1="155.9844" y2="187.6895"/><polygon fill="#000000" points="184.5,177.6895,188.5,187.6895,192.5,177.6895,188.5,181.6895" style="stroke: #000000; stroke-width: 1.0;"/><line style="stroke: #000000; stroke-width: 1.5;" x1="188.5" x2="188.5" y1="368.5195" y2="378.5195"/><line style="stroke: #000000; stroke-width: 1.5;" x1="188.5" x2="329" y1="378.5195" y2="378.5195"/><polygon fill="#000000" points="325,268.0664,329,258.0664,333,268.0664,329,264.0664" style="stroke: #000000; stroke-width: 1.5;"/><line style="stroke: #000000; stroke-width: 1.5;" x1="329" x2="329" y1="143.9844" y2="378.5195"/><line style="stroke: #000000; stroke-width: 1.5;" x1="329" x2="284.5" y1="143.9844" y2="143.9844"/><polygon fill="#000000" points="294.5,139.9844,284.5,143.9844,294.5,147.9844,290.5,143.9844" style="stroke: #000000; stroke-width: 1.0;"/><line style="stroke: #000000; stroke-width: 1.5;" x1="92.5" x2="48" y1="143.9844" y2="143.9844"/><polygon fill="#000000" points="44,254.0664,48,264.0664,52,254.0664,48,258.0664" style="stroke: #000000; stroke-width: 1.5;"/><line style="stroke: #000000; stroke-width: 1.5;" x1="48" x2="48" y1="143.9844" y2="390.5195"/><line style="stroke: #000000; stroke-width: 1.5;" x1="48" x2="188.5" y1="390.5195" y2="390.5195"/><line style="stroke: #000000; stroke-width: 1.5;" x1="188.5" x2="188.5" y1="390.5195" y2="410.5195"/><polygon fill="#000000" points="184.5,400.5195,188.5,410.5195,192.5,400.5195,188.5,404.5195" style="stroke: #000000; stroke-width: 1.0;"/><line style="stroke: #000000; stroke-width: 1.5;" x1="188.5" x2="188.5" y1="444.582" y2="464.582"/><polygon fill="#000000" points="184.5,454.582,188.5,464.582,192.5,454.582,188.5,458.582" style="stroke: #000000; stroke-width: 1.0;"/><line style="stroke: #000000; stroke-width: 1.5;" x1="188.5" x2="188.5" y1="95.0938" y2="131.9844"/><polygon fill="#000000" points="184.5,121.9844,188.5,131.9844,192.5,121.9844,188.5,125.9844" style="stroke: #000000; stroke-width: 1.0;"/><line style="stroke: #000000; stroke-width: 1.5;" x1="188.5" x2="188.5" y1="498.6445" y2="508.6445"/><line style="stroke: #000000; stroke-width: 1.5;" x1="188.5" x2="341" y1="508.6445" y2="508.6445"/><polygon fill="#000000" points="337,316.6836,341,306.6836,345,316.6836,341,312.6836" style="stroke: #000000; stroke-width: 1.5;"/><line style="stroke: #000000; stroke-width: 1.5;" x1="341" x2="341" y1="83.0938" y2="508.6445"/><line style="stroke: #000000; stroke-width: 1.5;" x1="341" x2="284" y1="83.0938" y2="83.0938"/><polygon fill="#000000" points="294,79.0938,284,83.0938,294,87.0938,290,83.0938" style="stroke: #000000; stroke-width: 1.0;"/><line style="stroke: #000000; stroke-width: 1.5;" x1="93" x2="24" y1="83.0938" y2="83.0938"/><line style="stroke: #000000; stroke-width: 1.5;" x1="24" x2="24" y1="83.0938" y2="119.0938"/><polygon fill="#000000" points="20,109.0938,24,119.0938,28,109.0938,24,113.0938" style="stroke: #000000; stroke-width: 1.0;"/><line style="stroke: #000000; stroke-width: 1.5;" x1="188.5" x2="188.5" y1="51.0938" y2="71.0938"/><polygon fill="#000000" points="184.5,61.0938,188.5,71.0938,192.5,61.0938,188.5,65.0938" style="stroke: #000000; stroke-width: 1.0;"/><!--
@startuml
skinparam BackgroundColor White|White
skinparam ArrowColor Black
skinparam DefaultFontName Roboto Condensed
skinparam TitleFontStyle Bold

skinparam NoteBackgroundColor White
skinparam NoteBorderColor Black

skinparam UsecaseBackgroundColor White
skinparam ActorBackgroundColor White
skinparam UsecaseBorderColor Black
skinparam ActorBorderColor Black

skinparam usecase {
	BackgroundColor<<for now out of scope>> Gray
}

skinparam StateBackgroundColor White
skinparam StateBorderColor Black

skinparam ActivityBackgroundColor White
skinparam ActivityDiamondBackgroundColor White
skinparam ActivityBorderColor Black
skinparam ActivityDiamondBorderColor Black

skinparam ClassBackgroundColor White
skinparam ClassBorderColor Black
hide empty members

title Nuspell - Regression Reporting

start

while (hostnames with test results exist?) is (yes)
	while (commit IDs with test results exist?) is (yes)
		while (languages with test results exist?) is (yes)
			:read test results;
		endwhile (no)
		:calculate average results for specific commit;
	endwhile (no)
	:calculate average results for specific hostname;
	:generate graph for specific hostname;
endwhile (no)

stop

@enduml

PlantUML version 1.2018.12beta1(Unknown compile time)
(GPL source distribution)
Java Runtime: OpenJDK Runtime Environment
JVM: OpenJDK 64-Bit Server VM
Java Version: 10.0.2+13-Ubuntu-1ubuntu0.18.04.2
Operating System: Linux
OS Version: 4.15.0-34-generic
Default Encoding: UTF-8
Language: en
Country: US
--></g></svg>