<?xml version="1.0" encoding="UTF-8" standalone="no"?><svg xmlns="http://www.w3.org/2000/svg" xmlns:xlink="http://www.w3.org/1999/xlink" contentScriptType="application/ecmascript" contentStyleType="text/css" height="1127px" preserveAspectRatio="none" style="width:439px;height:1127px;" version="1.1" viewBox="0 0 439 1127" width="439px" zoomAndPan="magnify"><defs><linearGradient id="gm866autoftbs0" x1="0%" x2="100%" y1="50%" y2="50%"><stop offset="0%" stop-color="#FFFFFF"/><stop offset="100%" stop-color="#FFFFFF"/></linearGradient><filter height="300%" id="fm866autoftbs" width="300%" x="-1" y="-1"><feGaussianBlur result="blurOut" stdDeviation="2.0"/><feColorMatrix in="blurOut" result="blurOut2" type="matrix" values="0 0 0 0 0 0 0 0 0 0 0 0 0 0 0 0 0 0 .4 0"/><feOffset dx="4.0" dy="4.0" in="blurOut2" result="blurOut3"/><feBlend in="SourceGraphic" in2="blurOut3" mode="normal"/></filter></defs><g><rect fill="url(#gm866autoftbs0)" height="1127" style="stroke: none; stroke-width: 1.0;" width="439" x="0" y="0"/><text fill="#000000" font-family="sans-serif" font-size="18" lengthAdjust="spacingAndGlyphs" textLength="339" x="50" y="26.708">Hunspell - AffixMgr::affix_check(word)</text><text fill="#000000" font-family="sans-serif" font-size="18" lengthAdjust="spacingAndGlyphs" textLength="415" x="12" y="47.6611">"check if word with affixes is correctly spelled"</text><text fill="#000000" font-family="sans-serif" font-size="18" lengthAdjust="spacingAndGlyphs" textLength="340" x="49.5" y="68.6143">called from hunspell.checkword(word)</text><text fill="#000000" font-family="sans-serif" font-size="18" lengthAdjust="spacingAndGlyphs" textLength="0" x="222.5" y="89.5674"/><path d="M15,93.8125 L15,134.0781 L229,134.0781 L229,103.8125 L219,93.8125 L15,93.8125 " fill="#FBFB77" filter="url(#fm866autoftbs)" style="stroke: #A80036; stroke-width: 1.0;"/><path d="M219,93.8125 L219,103.8125 L229,103.8125 L219,93.8125 " fill="#FBFB77" style="stroke: #A80036; stroke-width: 1.0;"/><text fill="#000000" font-family="sans-serif" font-size="13" lengthAdjust="spacingAndGlyphs" textLength="193" x="21" y="110.8794">here default is always used for</text><text fill="#000000" font-family="sans-serif" font-size="13" lengthAdjust="spacingAndGlyphs" textLength="185" x="21" y="126.0122">in_compound, needflag,  etc.</text><ellipse cx="259" cy="113.9453" fill="#000000" filter="url(#fm866autoftbs)" rx="10" ry="10" style="stroke: none; stroke-width: 1.0;"/><rect fill="#32CD32" filter="url(#fm866autoftbs)" height="47.9375" rx="12.5" ry="12.5" style="stroke: #A80036; stroke-width: 1.5;" width="237" x="140.5" y="147.5122"/><text fill="#000000" font-family="sans-serif" font-size="12" lengthAdjust="spacingAndGlyphs" textLength="145" x="150.5" y="168.6509">check word for prefixes</text><text fill="#000000" font-family="sans-serif" font-size="12" lengthAdjust="spacingAndGlyphs" textLength="217" x="150.5" y="182.6196">root = AffixMgr::prefix_check(word)</text><rect fill="#FEFECE" filter="url(#fm866autoftbs)" height="33.9688" rx="12.5" ry="12.5" style="stroke: #A80036; stroke-width: 1.5;" width="89" x="214.5" y="263.8521"/><text fill="#000000" font-family="sans-serif" font-size="12" lengthAdjust="spacingAndGlyphs" textLength="69" x="224.5" y="284.9907">return root</text><ellipse cx="259" cy="335.3364" fill="none" filter="url(#fm866autoftbs)" rx="10" ry="10" style="stroke: #000000; stroke-width: 1.0;"/><ellipse cx="259.5" cy="335.8364" fill="#000000" filter="url(#fm866autoftbs)" rx="6" ry="6" style="stroke: none; stroke-width: 1.0;"/><polygon fill="#FEFECE" filter="url(#fm866autoftbs)" points="244.5,215.4497,273.5,215.4497,285.5,227.4497,273.5,239.4497,244.5,239.4497,232.5,227.4497,244.5,215.4497" style="stroke: #A80036; stroke-width: 1.5;"/><text fill="#000000" font-family="sans-serif" font-size="11" lengthAdjust="spacingAndGlyphs" textLength="20" x="263" y="249.6602">yes</text><text fill="#000000" font-family="sans-serif" font-size="11" lengthAdjust="spacingAndGlyphs" textLength="29" x="244.5" y="231.2578">root?</text><text fill="#000000" font-family="sans-serif" font-size="11" lengthAdjust="spacingAndGlyphs" textLength="14" x="285.5" y="224.8555">no</text><rect fill="#FF6347" filter="url(#fm866autoftbs)" height="47.9375" rx="12.5" ry="12.5" style="stroke: #A80036; stroke-width: 1.5;" width="235" x="141.5" y="387.3364"/><text fill="#000000" font-family="sans-serif" font-size="12" lengthAdjust="spacingAndGlyphs" textLength="143" x="151.5" y="408.4751">check word for suffixes</text><text fill="#000000" font-family="sans-serif" font-size="12" lengthAdjust="spacingAndGlyphs" textLength="215" x="151.5" y="422.4438">root = AffixMgr::suffix_check(word)</text><rect fill="#FEFECE" filter="url(#fm866autoftbs)" height="33.9688" rx="12.5" ry="12.5" style="stroke: #A80036; stroke-width: 1.5;" width="89" x="214.5" y="552.0786"/><text fill="#000000" font-family="sans-serif" font-size="12" lengthAdjust="spacingAndGlyphs" textLength="69" x="224.5" y="573.2173">return root</text><ellipse cx="259" cy="623.563" fill="none" filter="url(#fm866autoftbs)" rx="10" ry="10" style="stroke: #000000; stroke-width: 1.0;"/><ellipse cx="259.5" cy="624.063" fill="#000000" filter="url(#fm866autoftbs)" rx="6" ry="6" style="stroke: none; stroke-width: 1.0;"/><polygon fill="#FEFECE" filter="url(#fm866autoftbs)" points="244.5,503.6763,273.5,503.6763,285.5,515.6763,273.5,527.6763,244.5,527.6763,232.5,515.6763,244.5,503.6763" style="stroke: #A80036; stroke-width: 1.5;"/><text fill="#000000" font-family="sans-serif" font-size="11" lengthAdjust="spacingAndGlyphs" textLength="20" x="263" y="537.8867">yes</text><text fill="#000000" font-family="sans-serif" font-size="11" lengthAdjust="spacingAndGlyphs" textLength="29" x="244.5" y="519.4844">root?</text><text fill="#000000" font-family="sans-serif" font-size="11" lengthAdjust="spacingAndGlyphs" textLength="14" x="285.5" y="513.082">no</text><rect fill="#FF6347" filter="url(#fm866autoftbs)" height="47.9375" rx="12.5" ry="12.5" style="stroke: #A80036; stroke-width: 1.5;" width="280" x="119" y="675.563"/><text fill="#000000" font-family="sans-serif" font-size="12" lengthAdjust="spacingAndGlyphs" textLength="201" x="129" y="696.7017">check word for two-level suffixes</text><text fill="#000000" font-family="sans-serif" font-size="12" lengthAdjust="spacingAndGlyphs" textLength="260" x="129" y="710.6704">root = AffixMgr::suffix_check_twosfx(word)</text><rect fill="#FEFECE" filter="url(#fm866autoftbs)" height="33.9688" rx="12.5" ry="12.5" style="stroke: #A80036; stroke-width: 1.5;" width="89" x="214.5" y="806.9028"/><text fill="#000000" font-family="sans-serif" font-size="12" lengthAdjust="spacingAndGlyphs" textLength="69" x="224.5" y="828.0415">return root</text><ellipse cx="259" cy="878.3872" fill="none" filter="url(#fm866autoftbs)" rx="10" ry="10" style="stroke: #000000; stroke-width: 1.0;"/><ellipse cx="259.5" cy="878.8872" fill="#000000" filter="url(#fm866autoftbs)" rx="6" ry="6" style="stroke: none; stroke-width: 1.0;"/><polygon fill="#FEFECE" filter="url(#fm866autoftbs)" points="244.5,758.5005,273.5,758.5005,285.5,770.5005,273.5,782.5005,244.5,782.5005,232.5,770.5005,244.5,758.5005" style="stroke: #A80036; stroke-width: 1.5;"/><text fill="#000000" font-family="sans-serif" font-size="11" lengthAdjust="spacingAndGlyphs" textLength="20" x="263" y="792.7109">yes</text><text fill="#000000" font-family="sans-serif" font-size="11" lengthAdjust="spacingAndGlyphs" textLength="29" x="244.5" y="774.3086">root?</text><text fill="#000000" font-family="sans-serif" font-size="11" lengthAdjust="spacingAndGlyphs" textLength="14" x="285.5" y="767.9063">no</text><rect fill="#32CD32" filter="url(#fm866autoftbs)" height="47.9375" rx="12.5" ry="12.5" style="stroke: #A80036; stroke-width: 1.5;" width="282" x="118" y="930.3872"/><text fill="#000000" font-family="sans-serif" font-size="12" lengthAdjust="spacingAndGlyphs" textLength="203" x="128" y="951.5259">check word for two-level prefixes</text><text fill="#000000" font-family="sans-serif" font-size="12" lengthAdjust="spacingAndGlyphs" textLength="262" x="128" y="965.4946">root = AffixMgr::prefix_check_twosfx(word)</text><polygon fill="#FEFECE" filter="url(#fm866autoftbs)" points="182,455.2739,336,455.2739,348,467.2739,336,479.2739,182,479.2739,170,467.2739,182,455.2739" style="stroke: #A80036; stroke-width: 1.5;"/><text fill="#000000" font-family="sans-serif" font-size="11" lengthAdjust="spacingAndGlyphs" textLength="20" x="263" y="489.4844">yes</text><text fill="#000000" font-family="sans-serif" font-size="11" lengthAdjust="spacingAndGlyphs" textLength="154" x="182" y="471.082">continuation classes exist?</text><text fill="#000000" font-family="sans-serif" font-size="11" lengthAdjust="spacingAndGlyphs" textLength="14" x="348" y="464.6797">no</text><polygon fill="#FEFECE" filter="url(#fm866autoftbs)" points="259,998.3247,271,1010.3247,259,1022.3247,247,1010.3247,259,998.3247" style="stroke: #A80036; stroke-width: 1.5;"/><rect fill="#FEFECE" filter="url(#fm866autoftbs)" height="33.9688" rx="12.5" ry="12.5" style="stroke: #A80036; stroke-width: 1.5;" width="89" x="214.5" y="1042.3247"/><text fill="#000000" font-family="sans-serif" font-size="12" lengthAdjust="spacingAndGlyphs" textLength="69" x="224.5" y="1063.4634">return root</text><ellipse cx="259" cy="1106.2935" fill="none" filter="url(#fm866autoftbs)" rx="10" ry="10" style="stroke: #000000; stroke-width: 1.0;"/><ellipse cx="259.5" cy="1106.7935" fill="#000000" filter="url(#fm866autoftbs)" rx="6" ry="6" style="stroke: none; stroke-width: 1.0;"/><line style="stroke: #A80036; stroke-width: 1.5;" x1="259" x2="259" y1="123.9453" y2="147.5122"/><polygon fill="#A80036" points="255,137.5122,259,147.5122,263,137.5122,259,141.5122" style="stroke: #A80036; stroke-width: 1.0;"/><line style="stroke: #A80036; stroke-width: 1.5;" x1="259" x2="259" y1="297.8208" y2="325.3364"/><polygon fill="#A80036" points="255,315.3364,259,325.3364,263,315.3364,259,319.3364" style="stroke: #A80036; stroke-width: 1.0;"/><line style="stroke: #A80036; stroke-width: 1.5;" x1="259" x2="259" y1="239.4497" y2="263.8521"/><polygon fill="#A80036" points="255,253.8521,259,263.8521,263,253.8521,259,257.8521" style="stroke: #A80036; stroke-width: 1.0;"/><line style="stroke: #A80036; stroke-width: 1.5;" x1="285.5" x2="313.5" y1="227.4497" y2="227.4497"/><polygon fill="#A80036" points="309.5,295.3364,313.5,305.3364,317.5,295.3364,313.5,299.3364" style="stroke: #A80036; stroke-width: 1.5;"/><line style="stroke: #A80036; stroke-width: 1.5;" x1="313.5" x2="313.5" y1="227.4497" y2="367.3364"/><line style="stroke: #A80036; stroke-width: 1.5;" x1="313.5" x2="259" y1="367.3364" y2="367.3364"/><line style="stroke: #A80036; stroke-width: 1.5;" x1="259" x2="259" y1="367.3364" y2="387.3364"/><polygon fill="#A80036" points="255,377.3364,259,387.3364,263,377.3364,259,381.3364" style="stroke: #A80036; stroke-width: 1.0;"/><line style="stroke: #A80036; stroke-width: 1.5;" x1="259" x2="259" y1="195.4497" y2="215.4497"/><polygon fill="#A80036" points="255,205.4497,259,215.4497,263,205.4497,259,209.4497" style="stroke: #A80036; stroke-width: 1.0;"/><line style="stroke: #A80036; stroke-width: 1.5;" x1="259" x2="259" y1="586.0474" y2="613.563"/><polygon fill="#A80036" points="255,603.563,259,613.563,263,603.563,259,607.563" style="stroke: #A80036; stroke-width: 1.0;"/><line style="stroke: #A80036; stroke-width: 1.5;" x1="259" x2="259" y1="527.6763" y2="552.0786"/><polygon fill="#A80036" points="255,542.0786,259,552.0786,263,542.0786,259,546.0786" style="stroke: #A80036; stroke-width: 1.0;"/><line style="stroke: #A80036; stroke-width: 1.5;" x1="285.5" x2="313.5" y1="515.6763" y2="515.6763"/><polygon fill="#A80036" points="309.5,583.563,313.5,593.563,317.5,583.563,313.5,587.563" style="stroke: #A80036; stroke-width: 1.5;"/><line style="stroke: #A80036; stroke-width: 1.5;" x1="313.5" x2="313.5" y1="515.6763" y2="655.563"/><line style="stroke: #A80036; stroke-width: 1.5;" x1="313.5" x2="259" y1="655.563" y2="655.563"/><line style="stroke: #A80036; stroke-width: 1.5;" x1="259" x2="259" y1="655.563" y2="675.563"/><polygon fill="#A80036" points="255,665.563,259,675.563,263,665.563,259,669.563" style="stroke: #A80036; stroke-width: 1.0;"/><line style="stroke: #A80036; stroke-width: 1.5;" x1="259" x2="259" y1="840.8716" y2="868.3872"/><polygon fill="#A80036" points="255,858.3872,259,868.3872,263,858.3872,259,862.3872" style="stroke: #A80036; stroke-width: 1.0;"/><line style="stroke: #A80036; stroke-width: 1.5;" x1="259" x2="259" y1="782.5005" y2="806.9028"/><polygon fill="#A80036" points="255,796.9028,259,806.9028,263,796.9028,259,800.9028" style="stroke: #A80036; stroke-width: 1.0;"/><line style="stroke: #A80036; stroke-width: 1.5;" x1="285.5" x2="313.5" y1="770.5005" y2="770.5005"/><polygon fill="#A80036" points="309.5,838.3872,313.5,848.3872,317.5,838.3872,313.5,842.3872" style="stroke: #A80036; stroke-width: 1.5;"/><line style="stroke: #A80036; stroke-width: 1.5;" x1="313.5" x2="313.5" y1="770.5005" y2="910.3872"/><line style="stroke: #A80036; stroke-width: 1.5;" x1="313.5" x2="259" y1="910.3872" y2="910.3872"/><line style="stroke: #A80036; stroke-width: 1.5;" x1="259" x2="259" y1="910.3872" y2="930.3872"/><polygon fill="#A80036" points="255,920.3872,259,930.3872,263,920.3872,259,924.3872" style="stroke: #A80036; stroke-width: 1.0;"/><line style="stroke: #A80036; stroke-width: 1.5;" x1="259" x2="259" y1="723.5005" y2="758.5005"/><polygon fill="#A80036" points="255,748.5005,259,758.5005,263,748.5005,259,752.5005" style="stroke: #A80036; stroke-width: 1.0;"/><line style="stroke: #A80036; stroke-width: 1.5;" x1="259" x2="259" y1="479.2739" y2="503.6763"/><polygon fill="#A80036" points="255,493.6763,259,503.6763,263,493.6763,259,497.6763" style="stroke: #A80036; stroke-width: 1.0;"/><line style="stroke: #A80036; stroke-width: 1.5;" x1="348" x2="410" y1="467.2739" y2="467.2739"/><polygon fill="#A80036" points="406,731.0005,410,741.0005,414,731.0005,410,735.0005" style="stroke: #A80036; stroke-width: 1.5;"/><line style="stroke: #A80036; stroke-width: 1.5;" x1="410" x2="410" y1="467.2739" y2="1010.3247"/><line style="stroke: #A80036; stroke-width: 1.5;" x1="410" x2="271" y1="1010.3247" y2="1010.3247"/><polygon fill="#A80036" points="281,1006.3247,271,1010.3247,281,1014.3247,277,1010.3247" style="stroke: #A80036; stroke-width: 1.0;"/><line style="stroke: #A80036; stroke-width: 1.5;" x1="259" x2="259" y1="978.3247" y2="998.3247"/><polygon fill="#A80036" points="255,988.3247,259,998.3247,263,988.3247,259,992.3247" style="stroke: #A80036; stroke-width: 1.0;"/><line style="stroke: #A80036; stroke-width: 1.5;" x1="259" x2="259" y1="435.2739" y2="455.2739"/><polygon fill="#A80036" points="255,445.2739,259,455.2739,263,445.2739,259,449.2739" style="stroke: #A80036; stroke-width: 1.0;"/><line style="stroke: #A80036; stroke-width: 1.5;" x1="259" x2="259" y1="1022.3247" y2="1042.3247"/><polygon fill="#A80036" points="255,1032.3247,259,1042.3247,263,1032.3247,259,1036.3247" style="stroke: #A80036; stroke-width: 1.0;"/><line style="stroke: #A80036; stroke-width: 1.5;" x1="259" x2="259" y1="1076.2935" y2="1096.2935"/><polygon fill="#A80036" points="255,1086.2935,259,1096.2935,263,1086.2935,259,1090.2935" style="stroke: #A80036; stroke-width: 1.0;"/><!--
@startuml
skinparam backgroundcolor White|White

title Hunspell - AffixMgr::affix_check(word)\n"check if word with affixes is correctly spelled"\ncalled from hunspell.checkword(word)\n

start
floating note: here default is always used for\nin_compound, needflag,  etc.

#limegreen:check word for prefixes\nroot = AffixMgr::prefix_check(word);
if (root?) then (yes)
	:return root;
	stop
else (no)
endif

#tomato:check word for suffixes\nroot = AffixMgr::suffix_check(word);
if (continuation classes exist?) then (yes)
	if (root?) then (yes)
		:return root;
		stop
	else (no)
	endif

	#tomato:check word for two-level suffixes\nroot = AffixMgr::suffix_check_twosfx(word);
	if (root?) then (yes)
		:return root;
		stop
	else (no)
	endif

	#limegreen:check word for two-level prefixes\nroot = AffixMgr::prefix_check_twosfx(word);
else (no)
endif

:return root;
stop

@enduml

PlantUML version 1.2018.06(Mon May 21 12:34:53 CEST 2018)
(GPL source distribution)
Java Runtime: OpenJDK Runtime Environment
JVM: OpenJDK 64-Bit Server VM
Java Version: 10.0.2+13-Ubuntu-1ubuntu0.18.04.2
Operating System: Linux
OS Version: 4.15.0-33-generic
Default Encoding: UTF-8
Language: en
Country: US
--></g></svg>