<?xml version="1.0" encoding="UTF-8" standalone="no"?><svg xmlns="http://www.w3.org/2000/svg" xmlns:xlink="http://www.w3.org/1999/xlink" contentScriptType="application/ecmascript" contentStyleType="text/css" height="1127px" preserveAspectRatio="none" style="width:438px;height:1127px;" version="1.1" viewBox="0 0 438 1127" width="438px" zoomAndPan="magnify"><defs><linearGradient id="g5wydq285v24c0" x1="0%" x2="100%" y1="50%" y2="50%"><stop offset="0%" stop-color="#FFFFFF"/><stop offset="100%" stop-color="#FFFFFF"/></linearGradient><filter height="300%" id="f5wydq285v24c" width="300%" x="-1" y="-1"><feGaussianBlur result="blurOut" stdDeviation="2.0"/><feColorMatrix in="blurOut" result="blurOut2" type="matrix" values="0 0 0 0 0 0 0 0 0 0 0 0 0 0 0 0 0 0 .4 0"/><feOffset dx="4.0" dy="4.0" in="blurOut2" result="blurOut3"/><feBlend in="SourceGraphic" in2="blurOut3" mode="normal"/></filter></defs><g><rect fill="url(#g5wydq285v24c0)" height="1127" style="stroke: none; stroke-width: 1.0;" width="438" x="0" y="0"/><text fill="#000000" font-family="sans-serif" font-size="18" lengthAdjust="spacingAndGlyphs" textLength="340" x="48" y="26.708">Hunspell - AffixMgr::affix_check(word)</text><text fill="#000000" font-family="sans-serif" font-size="18" lengthAdjust="spacingAndGlyphs" textLength="384" x="26" y="47.6611">check word with affixes for correct spelling</text><text fill="#000000" font-family="sans-serif" font-size="18" lengthAdjust="spacingAndGlyphs" textLength="341" x="47.5" y="68.6143">called from hunspell.checkword(word)</text><text fill="#000000" font-family="sans-serif" font-size="18" lengthAdjust="spacingAndGlyphs" textLength="0" x="221" y="89.5674"/><path d="M10,93.8125 L10,134.0781 L232,134.0781 L232,103.8125 L222,93.8125 L10,93.8125 " fill="#FBFB77" filter="url(#f5wydq285v24c)" style="stroke: #A80036; stroke-width: 1.0;"/><path d="M222,93.8125 L222,103.8125 L232,103.8125 L222,93.8125 " fill="#FBFB77" style="stroke: #A80036; stroke-width: 1.0;"/><text fill="#000000" font-family="sans-serif" font-size="13" lengthAdjust="spacingAndGlyphs" textLength="201" x="16" y="110.8794">here default is always used for</text><text fill="#000000" font-family="sans-serif" font-size="13" lengthAdjust="spacingAndGlyphs" textLength="188" x="16" y="126.0122">in_compound, needflag,  etc.</text><ellipse cx="262" cy="113.9453" fill="#000000" filter="url(#f5wydq285v24c)" rx="10" ry="10" style="stroke: none; stroke-width: 1.0;"/><rect fill="#32CD32" filter="url(#f5wydq285v24c)" height="47.9375" rx="12.5" ry="12.5" style="stroke: #A80036; stroke-width: 1.5;" width="235" x="144.5" y="147.5122"/><text fill="#000000" font-family="sans-serif" font-size="12" lengthAdjust="spacingAndGlyphs" textLength="141" x="154.5" y="168.6509">check word for prefixes</text><text fill="#000000" font-family="sans-serif" font-size="12" lengthAdjust="spacingAndGlyphs" textLength="215" x="154.5" y="182.6196">root = AffixMgr::prefix_check(word)</text><rect fill="#FEFECE" filter="url(#f5wydq285v24c)" height="33.9688" rx="12.5" ry="12.5" style="stroke: #A80036; stroke-width: 1.5;" width="86" x="219" y="263.8521"/><text fill="#000000" font-family="sans-serif" font-size="12" lengthAdjust="spacingAndGlyphs" textLength="66" x="229" y="284.9907">return root</text><ellipse cx="262" cy="335.3364" fill="none" filter="url(#f5wydq285v24c)" rx="10" ry="10" style="stroke: #000000; stroke-width: 1.0;"/><ellipse cx="262.5" cy="335.8364" fill="#000000" filter="url(#f5wydq285v24c)" rx="6" ry="6" style="stroke: none; stroke-width: 1.0;"/><polygon fill="#FEFECE" filter="url(#f5wydq285v24c)" points="247.5,215.4497,276.5,215.4497,288.5,227.4497,276.5,239.4497,247.5,239.4497,235.5,227.4497,247.5,215.4497" style="stroke: #A80036; stroke-width: 1.5;"/><text fill="#000000" font-family="sans-serif" font-size="11" lengthAdjust="spacingAndGlyphs" textLength="20" x="266" y="249.6602">yes</text><text fill="#000000" font-family="sans-serif" font-size="11" lengthAdjust="spacingAndGlyphs" textLength="29" x="247.5" y="231.2578">root?</text><text fill="#000000" font-family="sans-serif" font-size="11" lengthAdjust="spacingAndGlyphs" textLength="14" x="288.5" y="224.8555">no</text><rect fill="#FF6347" filter="url(#f5wydq285v24c)" height="47.9375" rx="12.5" ry="12.5" style="stroke: #A80036; stroke-width: 1.5;" width="233" x="145.5" y="387.3364"/><text fill="#000000" font-family="sans-serif" font-size="12" lengthAdjust="spacingAndGlyphs" textLength="139" x="155.5" y="408.4751">check word for suffixes</text><text fill="#000000" font-family="sans-serif" font-size="12" lengthAdjust="spacingAndGlyphs" textLength="213" x="155.5" y="422.4438">root = AffixMgr::suffix_check(word)</text><rect fill="#FEFECE" filter="url(#f5wydq285v24c)" height="33.9688" rx="12.5" ry="12.5" style="stroke: #A80036; stroke-width: 1.5;" width="86" x="219" y="552.0786"/><text fill="#000000" font-family="sans-serif" font-size="12" lengthAdjust="spacingAndGlyphs" textLength="66" x="229" y="573.2173">return root</text><ellipse cx="262" cy="623.563" fill="none" filter="url(#f5wydq285v24c)" rx="10" ry="10" style="stroke: #000000; stroke-width: 1.0;"/><ellipse cx="262.5" cy="624.063" fill="#000000" filter="url(#f5wydq285v24c)" rx="6" ry="6" style="stroke: none; stroke-width: 1.0;"/><polygon fill="#FEFECE" filter="url(#f5wydq285v24c)" points="247.5,503.6763,276.5,503.6763,288.5,515.6763,276.5,527.6763,247.5,527.6763,235.5,515.6763,247.5,503.6763" style="stroke: #A80036; stroke-width: 1.5;"/><text fill="#000000" font-family="sans-serif" font-size="11" lengthAdjust="spacingAndGlyphs" textLength="20" x="266" y="537.8867">yes</text><text fill="#000000" font-family="sans-serif" font-size="11" lengthAdjust="spacingAndGlyphs" textLength="29" x="247.5" y="519.4844">root?</text><text fill="#000000" font-family="sans-serif" font-size="11" lengthAdjust="spacingAndGlyphs" textLength="14" x="288.5" y="513.082">no</text><rect fill="#FF6347" filter="url(#f5wydq285v24c)" height="47.9375" rx="12.5" ry="12.5" style="stroke: #A80036; stroke-width: 1.5;" width="278" x="123" y="675.563"/><text fill="#000000" font-family="sans-serif" font-size="12" lengthAdjust="spacingAndGlyphs" textLength="196" x="133" y="696.7017">check word for two-level suffixes</text><text fill="#000000" font-family="sans-serif" font-size="12" lengthAdjust="spacingAndGlyphs" textLength="258" x="133" y="710.6704">root = AffixMgr::suffix_check_twosfx(word)</text><rect fill="#FEFECE" filter="url(#f5wydq285v24c)" height="33.9688" rx="12.5" ry="12.5" style="stroke: #A80036; stroke-width: 1.5;" width="86" x="219" y="806.9028"/><text fill="#000000" font-family="sans-serif" font-size="12" lengthAdjust="spacingAndGlyphs" textLength="66" x="229" y="828.0415">return root</text><ellipse cx="262" cy="878.3872" fill="none" filter="url(#f5wydq285v24c)" rx="10" ry="10" style="stroke: #000000; stroke-width: 1.0;"/><ellipse cx="262.5" cy="878.8872" fill="#000000" filter="url(#f5wydq285v24c)" rx="6" ry="6" style="stroke: none; stroke-width: 1.0;"/><polygon fill="#FEFECE" filter="url(#f5wydq285v24c)" points="247.5,758.5005,276.5,758.5005,288.5,770.5005,276.5,782.5005,247.5,782.5005,235.5,770.5005,247.5,758.5005" style="stroke: #A80036; stroke-width: 1.5;"/><text fill="#000000" font-family="sans-serif" font-size="11" lengthAdjust="spacingAndGlyphs" textLength="20" x="266" y="792.7109">yes</text><text fill="#000000" font-family="sans-serif" font-size="11" lengthAdjust="spacingAndGlyphs" textLength="29" x="247.5" y="774.3086">root?</text><text fill="#000000" font-family="sans-serif" font-size="11" lengthAdjust="spacingAndGlyphs" textLength="14" x="288.5" y="767.9063">no</text><rect fill="#32CD32" filter="url(#f5wydq285v24c)" height="47.9375" rx="12.5" ry="12.5" style="stroke: #A80036; stroke-width: 1.5;" width="280" x="122" y="930.3872"/><text fill="#000000" font-family="sans-serif" font-size="12" lengthAdjust="spacingAndGlyphs" textLength="198" x="132" y="951.5259">check word for two-level prefixes</text><text fill="#000000" font-family="sans-serif" font-size="12" lengthAdjust="spacingAndGlyphs" textLength="260" x="132" y="965.4946">root = AffixMgr::prefix_check_twosfx(word)</text><polygon fill="#FEFECE" filter="url(#f5wydq285v24c)" points="186.5,455.2739,337.5,455.2739,349.5,467.2739,337.5,479.2739,186.5,479.2739,174.5,467.2739,186.5,455.2739" style="stroke: #A80036; stroke-width: 1.5;"/><text fill="#000000" font-family="sans-serif" font-size="11" lengthAdjust="spacingAndGlyphs" textLength="20" x="266" y="489.4844">yes</text><text fill="#000000" font-family="sans-serif" font-size="11" lengthAdjust="spacingAndGlyphs" textLength="151" x="186.5" y="471.082">continuation classes exist?</text><text fill="#000000" font-family="sans-serif" font-size="11" lengthAdjust="spacingAndGlyphs" textLength="14" x="349.5" y="464.6797">no</text><polygon fill="#FEFECE" filter="url(#f5wydq285v24c)" points="262,998.3247,274,1010.3247,262,1022.3247,250,1010.3247,262,998.3247" style="stroke: #A80036; stroke-width: 1.5;"/><rect fill="#FEFECE" filter="url(#f5wydq285v24c)" height="33.9688" rx="12.5" ry="12.5" style="stroke: #A80036; stroke-width: 1.5;" width="86" x="219" y="1042.3247"/><text fill="#000000" font-family="sans-serif" font-size="12" lengthAdjust="spacingAndGlyphs" textLength="66" x="229" y="1063.4634">return root</text><ellipse cx="262" cy="1106.2935" fill="none" filter="url(#f5wydq285v24c)" rx="10" ry="10" style="stroke: #000000; stroke-width: 1.0;"/><ellipse cx="262.5" cy="1106.7935" fill="#000000" filter="url(#f5wydq285v24c)" rx="6" ry="6" style="stroke: none; stroke-width: 1.0;"/><line style="stroke: #A80036; stroke-width: 1.5;" x1="262" x2="262" y1="123.9453" y2="147.5122"/><polygon fill="#A80036" points="258,137.5122,262,147.5122,266,137.5122,262,141.5122" style="stroke: #A80036; stroke-width: 1.0;"/><line style="stroke: #A80036; stroke-width: 1.5;" x1="262" x2="262" y1="297.8208" y2="325.3364"/><polygon fill="#A80036" points="258,315.3364,262,325.3364,266,315.3364,262,319.3364" style="stroke: #A80036; stroke-width: 1.0;"/><line style="stroke: #A80036; stroke-width: 1.5;" x1="262" x2="262" y1="239.4497" y2="263.8521"/><polygon fill="#A80036" points="258,253.8521,262,263.8521,266,253.8521,262,257.8521" style="stroke: #A80036; stroke-width: 1.0;"/><line style="stroke: #A80036; stroke-width: 1.5;" x1="288.5" x2="315" y1="227.4497" y2="227.4497"/><polygon fill="#A80036" points="311,295.3364,315,305.3364,319,295.3364,315,299.3364" style="stroke: #A80036; stroke-width: 1.5;"/><line style="stroke: #A80036; stroke-width: 1.5;" x1="315" x2="315" y1="227.4497" y2="367.3364"/><line style="stroke: #A80036; stroke-width: 1.5;" x1="315" x2="262" y1="367.3364" y2="367.3364"/><line style="stroke: #A80036; stroke-width: 1.5;" x1="262" x2="262" y1="367.3364" y2="387.3364"/><polygon fill="#A80036" points="258,377.3364,262,387.3364,266,377.3364,262,381.3364" style="stroke: #A80036; stroke-width: 1.0;"/><line style="stroke: #A80036; stroke-width: 1.5;" x1="262" x2="262" y1="195.4497" y2="215.4497"/><polygon fill="#A80036" points="258,205.4497,262,215.4497,266,205.4497,262,209.4497" style="stroke: #A80036; stroke-width: 1.0;"/><line style="stroke: #A80036; stroke-width: 1.5;" x1="262" x2="262" y1="586.0474" y2="613.563"/><polygon fill="#A80036" points="258,603.563,262,613.563,266,603.563,262,607.563" style="stroke: #A80036; stroke-width: 1.0;"/><line style="stroke: #A80036; stroke-width: 1.5;" x1="262" x2="262" y1="527.6763" y2="552.0786"/><polygon fill="#A80036" points="258,542.0786,262,552.0786,266,542.0786,262,546.0786" style="stroke: #A80036; stroke-width: 1.0;"/><line style="stroke: #A80036; stroke-width: 1.5;" x1="288.5" x2="315" y1="515.6763" y2="515.6763"/><polygon fill="#A80036" points="311,583.563,315,593.563,319,583.563,315,587.563" style="stroke: #A80036; stroke-width: 1.5;"/><line style="stroke: #A80036; stroke-width: 1.5;" x1="315" x2="315" y1="515.6763" y2="655.563"/><line style="stroke: #A80036; stroke-width: 1.5;" x1="315" x2="262" y1="655.563" y2="655.563"/><line style="stroke: #A80036; stroke-width: 1.5;" x1="262" x2="262" y1="655.563" y2="675.563"/><polygon fill="#A80036" points="258,665.563,262,675.563,266,665.563,262,669.563" style="stroke: #A80036; stroke-width: 1.0;"/><line style="stroke: #A80036; stroke-width: 1.5;" x1="262" x2="262" y1="840.8716" y2="868.3872"/><polygon fill="#A80036" points="258,858.3872,262,868.3872,266,858.3872,262,862.3872" style="stroke: #A80036; stroke-width: 1.0;"/><line style="stroke: #A80036; stroke-width: 1.5;" x1="262" x2="262" y1="782.5005" y2="806.9028"/><polygon fill="#A80036" points="258,796.9028,262,806.9028,266,796.9028,262,800.9028" style="stroke: #A80036; stroke-width: 1.0;"/><line style="stroke: #A80036; stroke-width: 1.5;" x1="288.5" x2="315" y1="770.5005" y2="770.5005"/><polygon fill="#A80036" points="311,838.3872,315,848.3872,319,838.3872,315,842.3872" style="stroke: #A80036; stroke-width: 1.5;"/><line style="stroke: #A80036; stroke-width: 1.5;" x1="315" x2="315" y1="770.5005" y2="910.3872"/><line style="stroke: #A80036; stroke-width: 1.5;" x1="315" x2="262" y1="910.3872" y2="910.3872"/><line style="stroke: #A80036; stroke-width: 1.5;" x1="262" x2="262" y1="910.3872" y2="930.3872"/><polygon fill="#A80036" points="258,920.3872,262,930.3872,266,920.3872,262,924.3872" style="stroke: #A80036; stroke-width: 1.0;"/><line style="stroke: #A80036; stroke-width: 1.5;" x1="262" x2="262" y1="723.5005" y2="758.5005"/><polygon fill="#A80036" points="258,748.5005,262,758.5005,266,748.5005,262,752.5005" style="stroke: #A80036; stroke-width: 1.0;"/><line style="stroke: #A80036; stroke-width: 1.5;" x1="262" x2="262" y1="479.2739" y2="503.6763"/><polygon fill="#A80036" points="258,493.6763,262,503.6763,266,493.6763,262,497.6763" style="stroke: #A80036; stroke-width: 1.0;"/><line style="stroke: #A80036; stroke-width: 1.5;" x1="349.5" x2="412" y1="467.2739" y2="467.2739"/><polygon fill="#A80036" points="408,731.0005,412,741.0005,416,731.0005,412,735.0005" style="stroke: #A80036; stroke-width: 1.5;"/><line style="stroke: #A80036; stroke-width: 1.5;" x1="412" x2="412" y1="467.2739" y2="1010.3247"/><line style="stroke: #A80036; stroke-width: 1.5;" x1="412" x2="274" y1="1010.3247" y2="1010.3247"/><polygon fill="#A80036" points="284,1006.3247,274,1010.3247,284,1014.3247,280,1010.3247" style="stroke: #A80036; stroke-width: 1.0;"/><line style="stroke: #A80036; stroke-width: 1.5;" x1="262" x2="262" y1="978.3247" y2="998.3247"/><polygon fill="#A80036" points="258,988.3247,262,998.3247,266,988.3247,262,992.3247" style="stroke: #A80036; stroke-width: 1.0;"/><line style="stroke: #A80036; stroke-width: 1.5;" x1="262" x2="262" y1="435.2739" y2="455.2739"/><polygon fill="#A80036" points="258,445.2739,262,455.2739,266,445.2739,262,449.2739" style="stroke: #A80036; stroke-width: 1.0;"/><line style="stroke: #A80036; stroke-width: 1.5;" x1="262" x2="262" y1="1022.3247" y2="1042.3247"/><polygon fill="#A80036" points="258,1032.3247,262,1042.3247,266,1032.3247,262,1036.3247" style="stroke: #A80036; stroke-width: 1.0;"/><line style="stroke: #A80036; stroke-width: 1.5;" x1="262" x2="262" y1="1076.2935" y2="1096.2935"/><polygon fill="#A80036" points="258,1086.2935,262,1096.2935,266,1086.2935,262,1090.2935" style="stroke: #A80036; stroke-width: 1.0;"/><!--
@startuml
skinparam backgroundcolor White|White

title Hunspell - AffixMgr::affix_check(word)\ncheck word with affixes for correct spelling\ncalled from hunspell.checkword(word)\n

start
floating note: here default is always used for\nin_compound, needflag,  etc.

#limegreen:check word for prefixes\nroot = AffixMgr::prefix_check(word);
if (root?) then (yes)
	:return root;
	stop
else (no)
endif

#tomato:check word for suffixes\nroot = AffixMgr::suffix_check(word);
if (continuation classes exist?) then (yes)
	if (root?) then (yes)
		:return root;
		stop
	else (no)
	endif

	#tomato:check word for two-level suffixes\nroot = AffixMgr::suffix_check_twosfx(word);
	if (root?) then (yes)
		:return root;
		stop
	else (no)
	endif

	#limegreen:check word for two-level prefixes\nroot = AffixMgr::prefix_check_twosfx(word);
else (no)
endif

:return root;
stop

@enduml

PlantUML version 1.2018.01(Sun Jan 28 19:08:22 CET 2018)
(GPL source distribution)
Java Runtime: OpenJDK Runtime Environment
JVM: OpenJDK 64-Bit Server VM
Java Version: 1.8.0_151-8u151-b12-0ubuntu0.17.10.2-b12
Operating System: Linux
OS Version: 4.13.0-36-generic
Default Encoding: UTF-8
Language: en
Country: US
--></g></svg>