<?xml version="1.0" encoding="UTF-8" standalone="yes"?><svg xmlns="http://www.w3.org/2000/svg" xmlns:xlink="http://www.w3.org/1999/xlink" height="788px" style="width:558px;height:788px;" version="1.1" viewBox="0 0 558 788" width="558px"><defs><linearGradient id="gr0" x1="0%" x2="100%" y1="50%" y2="50%"><stop offset="0%" stop-color="#FFFFFF"/><stop offset="100%" stop-color="#FFFFFF"/></linearGradient><filter height="300%" id="f1" width="300%" x="-1" y="-1"><feGaussianBlur result="blurOut" stdDeviation="2.0"/><feColorMatrix in="blurOut" result="blurOut2" type="matrix" values="0 0 0 0 0 0 0 0 0 0 0 0 0 0 0 0 0 0 .4 0"/><feOffset dx="4.0" dy="4.0" in="blurOut2" result="blurOut3"/><feBlend in="SourceGraphic" in2="blurOut3" mode="normal"/></filter></defs><g><rect fill="url(#gr0)" height="788" style="stroke: none; stroke-width: 1.0;" width="558" x="0" y="0"/><text fill="#000000" font-family="sans-serif" font-size="18" lengthAdjust="spacingAndGlyphs" textLength="192" x="184.5" y="26.708">Hunspell - checkword</text><ellipse cx="376" cy="40.9531" fill="#000000" filter="url(#f1)" rx="10" ry="10" style="stroke: none; stroke-width: 1.0;"/><rect fill="#FEFECE" filter="url(#f1)" height="33.9688" rx="12.5" ry="12.5" style="stroke: #A80036; stroke-width: 1.5;" width="136" x="308" y="70.9531"/><text fill="#000000" font-family="sans-serif" font-size="12" lengthAdjust="spacingAndGlyphs" textLength="116" x="318" y="92.0918">set buffer to FALSE</text><rect fill="#FEFECE" filter="url(#f1)" height="33.9688" rx="12.5" ry="12.5" style="stroke: #A80036; stroke-width: 1.5;" width="269" x="241.5" y="124.9219"/><text fill="#000000" font-family="sans-serif" font-size="12" lengthAdjust="spacingAndGlyphs" textLength="249" x="251.5" y="146.0605">get ignore characters from affix manager</text><polygon fill="#FEFECE" filter="url(#f1)" points="282,178.8906,470,178.8906,482,190.8906,470,202.8906,282,202.8906,270,190.8906,282,178.8906" style="stroke: #A80036; stroke-width: 1.5;"/><text fill="#000000" font-family="sans-serif" font-size="11" lengthAdjust="spacingAndGlyphs" textLength="188" x="282" y="194.6987">no ignore characters in affix file?</text><text fill="#000000" font-family="sans-serif" font-size="11" lengthAdjust="spacingAndGlyphs" textLength="20" x="250" y="188.2964">yes</text><text fill="#000000" font-family="sans-serif" font-size="11" lengthAdjust="spacingAndGlyphs" textLength="14" x="482" y="188.2964">no</text><rect fill="#FEFECE" filter="url(#f1)" height="33.9688" rx="12.5" ry="12.5" style="stroke: #A80036; stroke-width: 1.5;" width="241" x="139.5" y="212.8906"/><text fill="#000000" font-family="sans-serif" font-size="12" lengthAdjust="spacingAndGlyphs" textLength="221" x="149.5" y="234.0293">remove ignore characters from word</text><polygon fill="#FBFB77" filter="url(#f1)" points="10,271.2773,10,296.4102,166,296.4102,166,281.2773,156,271.2773,10,271.2773" style="stroke: #A80036; stroke-width: 1.0;"/><polygon fill="#FBFB77" points="10,271.2773,10,296.4102,166,296.4102,166,289.2773,186,283.8438,166,281.2773,166,281.2773,156,271.2773,10,271.2773" style="stroke: #A80036; stroke-width: 1.0;"/><line style="stroke: #A80036; stroke-width: 1.0;" x1="156" x2="156" y1="271.2773" y2="281.2773"/><line style="stroke: #A80036; stroke-width: 1.0;" x1="166" x2="156" y1="281.2773" y2="281.2773"/><text fill="#000000" font-family="sans-serif" font-size="13" lengthAdjust="spacingAndGlyphs" textLength="135" x="16" y="288.3442">for complex prefixes</text><rect fill="#FEFECE" filter="url(#f1)" height="33.9688" rx="12.5" ry="12.5" style="stroke: #A80036; stroke-width: 1.5;" width="148" x="186" y="266.8594"/><text fill="#000000" font-family="sans-serif" font-size="12" lengthAdjust="spacingAndGlyphs" textLength="128" x="196" y="287.998">created reverse word</text><rect fill="#FEFECE" filter="url(#f1)" height="33.9688" rx="12.5" ry="12.5" style="stroke: #A80036; stroke-width: 1.5;" width="126" x="197" y="320.8281"/><text fill="#000000" font-family="sans-serif" font-size="12" lengthAdjust="spacingAndGlyphs" textLength="106" x="207" y="341.9668">word refers to w2</text><rect fill="#FEFECE" filter="url(#f1)" height="33.9688" rx="12.5" ry="12.5" style="stroke: #A80036; stroke-width: 1.5;" width="130" x="195" y="374.7969"/><text fill="#000000" font-family="sans-serif" font-size="12" lengthAdjust="spacingAndGlyphs" textLength="110" x="205" y="395.9355">set buffer to TRUE</text><rect fill="#FEFECE" filter="url(#f1)" height="33.9688" rx="12.5" ry="12.5" style="stroke: #A80036; stroke-width: 1.5;" width="118" x="433" y="212.8906"/><text fill="#000000" font-family="sans-serif" font-size="12" lengthAdjust="spacingAndGlyphs" textLength="98" x="443" y="234.0293">word refers to w</text><polygon fill="#FEFECE" filter="url(#f1)" points="376,414.7656,388,426.7656,376,438.7656,364,426.7656,376,414.7656" style="stroke: #A80036; stroke-width: 1.5;"/><polygon fill="#FEFECE" filter="url(#f1)" points="323,458.7656,429,458.7656,441,470.7656,429,482.7656,323,482.7656,311,470.7656,323,458.7656" style="stroke: #A80036; stroke-width: 1.5;"/><text fill="#000000" font-family="sans-serif" font-size="11" lengthAdjust="spacingAndGlyphs" textLength="106" x="323" y="474.5737">word length == 0?</text><text fill="#000000" font-family="sans-serif" font-size="11" lengthAdjust="spacingAndGlyphs" textLength="20" x="291" y="468.1714">yes</text><text fill="#000000" font-family="sans-serif" font-size="11" lengthAdjust="spacingAndGlyphs" textLength="14" x="441" y="468.1714">no</text><rect fill="#FEFECE" filter="url(#f1)" height="33.9688" rx="12.5" ry="12.5" style="stroke: #A80036; stroke-width: 1.5;" width="94" x="254" y="492.7656"/><text fill="#000000" font-family="sans-serif" font-size="12" lengthAdjust="spacingAndGlyphs" textLength="74" x="264" y="513.9043">return NULL</text><ellipse cx="301" cy="559.25" fill="none" filter="url(#f1)" rx="10" ry="10" style="stroke: #000000; stroke-width: 1.0;"/><ellipse cx="301.5" cy="559.75" fill="#000000" filter="url(#f1)" rx="6" ry="6" style="stroke: none; stroke-width: 1.0;"/><polygon fill="#FEFECE" filter="url(#f1)" points="326,589.25,426,589.25,438,601.25,426,613.25,326,613.25,314,601.25,326,589.25" style="stroke: #A80036; stroke-width: 1.5;"/><text fill="#000000" font-family="sans-serif" font-size="11" lengthAdjust="spacingAndGlyphs" textLength="100" x="326" y="605.0581">complexprefixes?</text><text fill="#000000" font-family="sans-serif" font-size="11" lengthAdjust="spacingAndGlyphs" textLength="20" x="294" y="598.6558">yes</text><text fill="#000000" font-family="sans-serif" font-size="11" lengthAdjust="spacingAndGlyphs" textLength="14" x="438" y="598.6558">no</text><rect fill="#FEFECE" filter="url(#f1)" height="33.9688" rx="12.5" ry="12.5" style="stroke: #A80036; stroke-width: 1.5;" width="47" x="280.5" y="623.25"/><text fill="#000000" font-family="sans-serif" font-size="12" lengthAdjust="spacingAndGlyphs" textLength="27" x="290.5" y="644.3887">pass</text><rect fill="#FEFECE" filter="url(#f1)" height="33.9688" rx="12.5" ry="12.5" style="stroke: #A80036; stroke-width: 1.5;" width="86" x="405" y="623.25"/><text fill="#000000" font-family="sans-serif" font-size="12" lengthAdjust="spacingAndGlyphs" textLength="66" x="415" y="644.3887">reverse w2</text><polygon fill="#FEFECE" filter="url(#f1)" points="376,663.2188,388,675.2188,376,687.2188,364,675.2188,376,663.2188" style="stroke: #A80036; stroke-width: 1.5;"/><rect fill="#FEFECE" filter="url(#f1)" height="33.9688" rx="12.5" ry="12.5" style="stroke: #A80036; stroke-width: 1.5;" width="54" x="349" y="707.2188"/><text fill="#000000" font-family="sans-serif" font-size="12" lengthAdjust="spacingAndGlyphs" textLength="34" x="359" y="728.3574">TODO</text><ellipse cx="376" cy="771.1875" fill="none" filter="url(#f1)" rx="10" ry="10" style="stroke: #000000; stroke-width: 1.0;"/><ellipse cx="376.5" cy="771.6875" fill="#000000" filter="url(#f1)" rx="6" ry="6" style="stroke: none; stroke-width: 1.0;"/><line style="stroke: #A80036; stroke-width: 1.5;" x1="376" x2="376" y1="50.9531" y2="70.9531"/><polygon fill="#A80036" points="372,60.9531,376,70.9531,380,60.9531,376,64.9531" style="stroke: #A80036; stroke-width: 1.0;"/><line style="stroke: #A80036; stroke-width: 1.5;" x1="376" x2="376" y1="104.9219" y2="124.9219"/><polygon fill="#A80036" points="372,114.9219,376,124.9219,380,114.9219,376,118.9219" style="stroke: #A80036; stroke-width: 1.0;"/><line style="stroke: #A80036; stroke-width: 1.5;" x1="260" x2="260" y1="246.8594" y2="266.8594"/><polygon fill="#A80036" points="256,256.8594,260,266.8594,264,256.8594,260,260.8594" style="stroke: #A80036; stroke-width: 1.0;"/><line style="stroke: #A80036; stroke-width: 1.5;" x1="260" x2="260" y1="300.8281" y2="320.8281"/><polygon fill="#A80036" points="256,310.8281,260,320.8281,264,310.8281,260,314.8281" style="stroke: #A80036; stroke-width: 1.0;"/><line style="stroke: #A80036; stroke-width: 1.5;" x1="260" x2="260" y1="354.7969" y2="374.7969"/><polygon fill="#A80036" points="256,364.7969,260,374.7969,264,364.7969,260,368.7969" style="stroke: #A80036; stroke-width: 1.0;"/><line style="stroke: #A80036; stroke-width: 1.5;" x1="270" x2="260" y1="190.8906" y2="190.8906"/><line style="stroke: #A80036; stroke-width: 1.5;" x1="260" x2="260" y1="190.8906" y2="212.8906"/><polygon fill="#A80036" points="256,202.8906,260,212.8906,264,202.8906,260,206.8906" style="stroke: #A80036; stroke-width: 1.0;"/><line style="stroke: #A80036; stroke-width: 1.5;" x1="482" x2="492" y1="190.8906" y2="190.8906"/><line style="stroke: #A80036; stroke-width: 1.5;" x1="492" x2="492" y1="190.8906" y2="212.8906"/><polygon fill="#A80036" points="488,202.8906,492,212.8906,496,202.8906,492,206.8906" style="stroke: #A80036; stroke-width: 1.0;"/><line style="stroke: #A80036; stroke-width: 1.5;" x1="260" x2="260" y1="408.7656" y2="426.7656"/><line style="stroke: #A80036; stroke-width: 1.5;" x1="260" x2="364" y1="426.7656" y2="426.7656"/><polygon fill="#A80036" points="354,422.7656,364,426.7656,354,430.7656,358,426.7656" style="stroke: #A80036; stroke-width: 1.0;"/><line style="stroke: #A80036; stroke-width: 1.5;" x1="492" x2="492" y1="246.8594" y2="426.7656"/><line style="stroke: #A80036; stroke-width: 1.5;" x1="492" x2="388" y1="426.7656" y2="426.7656"/><polygon fill="#A80036" points="398,422.7656,388,426.7656,398,430.7656,394,426.7656" style="stroke: #A80036; stroke-width: 1.0;"/><line style="stroke: #A80036; stroke-width: 1.5;" x1="376" x2="376" y1="158.8906" y2="178.8906"/><polygon fill="#A80036" points="372,168.8906,376,178.8906,380,168.8906,376,172.8906" style="stroke: #A80036; stroke-width: 1.0;"/><line style="stroke: #A80036; stroke-width: 1.5;" x1="301" x2="301" y1="526.7344" y2="549.25"/><polygon fill="#A80036" points="297,539.25,301,549.25,305,539.25,301,543.25" style="stroke: #A80036; stroke-width: 1.0;"/><line style="stroke: #A80036; stroke-width: 1.5;" x1="311" x2="301" y1="470.7656" y2="470.7656"/><line style="stroke: #A80036; stroke-width: 1.5;" x1="301" x2="301" y1="470.7656" y2="492.7656"/><polygon fill="#A80036" points="297,482.7656,301,492.7656,305,482.7656,301,486.7656" style="stroke: #A80036; stroke-width: 1.0;"/><line style="stroke: #A80036; stroke-width: 1.5;" x1="441" x2="451" y1="470.7656" y2="470.7656"/><polygon fill="#A80036" points="447,519.25,451,529.25,455,519.25,451,523.25" style="stroke: #A80036; stroke-width: 1.5;"/><line style="stroke: #A80036; stroke-width: 1.5;" x1="451" x2="451" y1="470.7656" y2="574.25"/><line style="stroke: #A80036; stroke-width: 1.5;" x1="451" x2="376" y1="574.25" y2="574.25"/><line style="stroke: #A80036; stroke-width: 1.5;" x1="376" x2="376" y1="574.25" y2="589.25"/><polygon fill="#A80036" points="372,579.25,376,589.25,380,579.25,376,583.25" style="stroke: #A80036; stroke-width: 1.0;"/><line style="stroke: #A80036; stroke-width: 1.5;" x1="376" x2="376" y1="438.7656" y2="458.7656"/><polygon fill="#A80036" points="372,448.7656,376,458.7656,380,448.7656,376,452.7656" style="stroke: #A80036; stroke-width: 1.0;"/><line style="stroke: #A80036; stroke-width: 1.5;" x1="314" x2="304" y1="601.25" y2="601.25"/><line style="stroke: #A80036; stroke-width: 1.5;" x1="304" x2="304" y1="601.25" y2="623.25"/><polygon fill="#A80036" points="300,613.25,304,623.25,308,613.25,304,617.25" style="stroke: #A80036; stroke-width: 1.0;"/><line style="stroke: #A80036; stroke-width: 1.5;" x1="438" x2="448" y1="601.25" y2="601.25"/><line style="stroke: #A80036; stroke-width: 1.5;" x1="448" x2="448" y1="601.25" y2="623.25"/><polygon fill="#A80036" points="444,613.25,448,623.25,452,613.25,448,617.25" style="stroke: #A80036; stroke-width: 1.0;"/><line style="stroke: #A80036; stroke-width: 1.5;" x1="304" x2="304" y1="657.2188" y2="675.2188"/><line style="stroke: #A80036; stroke-width: 1.5;" x1="304" x2="364" y1="675.2188" y2="675.2188"/><polygon fill="#A80036" points="354,671.2188,364,675.2188,354,679.2188,358,675.2188" style="stroke: #A80036; stroke-width: 1.0;"/><line style="stroke: #A80036; stroke-width: 1.5;" x1="448" x2="448" y1="657.2188" y2="675.2188"/><line style="stroke: #A80036; stroke-width: 1.5;" x1="448" x2="388" y1="675.2188" y2="675.2188"/><polygon fill="#A80036" points="398,671.2188,388,675.2188,398,679.2188,394,675.2188" style="stroke: #A80036; stroke-width: 1.0;"/><line style="stroke: #A80036; stroke-width: 1.5;" x1="376" x2="376" y1="687.2188" y2="707.2188"/><polygon fill="#A80036" points="372,697.2188,376,707.2188,380,697.2188,376,701.2188" style="stroke: #A80036; stroke-width: 1.0;"/><line style="stroke: #A80036; stroke-width: 1.5;" x1="376" x2="376" y1="741.1875" y2="761.1875"/><polygon fill="#A80036" points="372,751.1875,376,761.1875,380,751.1875,376,755.1875" style="stroke: #A80036; stroke-width: 1.0;"/></g></svg>