<?xml version="1.0" encoding="UTF-8" standalone="no"?><svg xmlns="http://www.w3.org/2000/svg" xmlns:xlink="http://www.w3.org/1999/xlink" contentScriptType="application/ecmascript" contentStyleType="text/css" height="833px" preserveAspectRatio="none" style="width:560px;height:833px;" version="1.1" viewBox="0 0 560 833" width="560px" zoomAndPan="magnify"><defs><linearGradient id="g1tgmju9q6ys2l0" x1="0%" x2="100%" y1="50%" y2="50%"><stop offset="0%" stop-color="#FFFFFF"/><stop offset="100%" stop-color="#FFFFFF"/></linearGradient><filter height="300%" id="f1tgmju9q6ys2l" width="300%" x="-1" y="-1"><feGaussianBlur result="blurOut" stdDeviation="2.0"/><feColorMatrix in="blurOut" result="blurOut2" type="matrix" values="0 0 0 0 0 0 0 0 0 0 0 0 0 0 0 0 0 0 .4 0"/><feOffset dx="4.0" dy="4.0" in="blurOut2" result="blurOut3"/><feBlend in="SourceGraphic" in2="blurOut3" mode="normal"/></filter></defs><g><rect fill="url(#g1tgmju9q6ys2l0)" height="833" style="stroke: none; stroke-width: 1.0;" width="560" x="0" y="0"/><text fill="#000000" font-family="sans-serif" font-size="18" lengthAdjust="spacingAndGlyphs" textLength="191" x="183.75" y="26.708">Hunspell - checkword</text><ellipse cx="373" cy="40.9531" fill="#000000" filter="url(#f1tgmju9q6ys2l)" rx="10" ry="10" style="stroke: none; stroke-width: 1.0;"/><rect fill="#FEFECE" filter="url(#f1tgmju9q6ys2l)" height="33.9688" rx="12.5" ry="12.5" style="stroke: #A80036; stroke-width: 1.5;" width="139" x="303.5" y="70.9531"/><text fill="#000000" font-family="sans-serif" font-size="12" lengthAdjust="spacingAndGlyphs" textLength="119" x="313.5" y="92.0918">set buffer to FALSE</text><rect fill="#FEFECE" filter="url(#f1tgmju9q6ys2l)" height="33.9688" rx="12.5" ry="12.5" style="stroke: #A80036; stroke-width: 1.5;" width="278" x="234" y="124.9219"/><text fill="#000000" font-family="sans-serif" font-size="12" lengthAdjust="spacingAndGlyphs" textLength="258" x="244" y="146.0605">get ignore characters from affix manager</text><polygon fill="#FEFECE" filter="url(#f1tgmju9q6ys2l)" points="279,178.8906,467,178.8906,479,190.8906,467,202.8906,279,202.8906,267,190.8906,279,178.8906" style="stroke: #A80036; stroke-width: 1.5;"/><text fill="#000000" font-family="sans-serif" font-size="11" lengthAdjust="spacingAndGlyphs" textLength="188" x="279" y="194.6987">no ignore characters in affix file?</text><text fill="#000000" font-family="sans-serif" font-size="11" lengthAdjust="spacingAndGlyphs" textLength="20" x="247" y="188.2964">yes</text><text fill="#000000" font-family="sans-serif" font-size="11" lengthAdjust="spacingAndGlyphs" textLength="14" x="479" y="188.2964">no</text><rect fill="#FEFECE" filter="url(#f1tgmju9q6ys2l)" height="33.9688" rx="12.5" ry="12.5" style="stroke: #A80036; stroke-width: 1.5;" width="248" x="133" y="212.8906"/><text fill="#000000" font-family="sans-serif" font-size="12" lengthAdjust="spacingAndGlyphs" textLength="228" x="143" y="234.0293">remove ignore characters from word</text><path d="M10,271.2773 L10,296.4102 A0,0 0 0 0 10,296.4102 L160,296.4102 A0,0 0 0 0 160,296.4102 L160,289.2773 L180,283.8438 L160,281.2773 L160,281.2773 L150,271.2773 L10,271.2773 A0,0 0 0 0 10,271.2773 " fill="#FBFB77" filter="url(#f1tgmju9q6ys2l)" style="stroke: #A80036; stroke-width: 1.0;"/><path d="M150,271.2773 L150,281.2773 L160,281.2773 L150,271.2773 " fill="#FBFB77" style="stroke: #A80036; stroke-width: 1.0;"/><text fill="#000000" font-family="sans-serif" font-size="13" lengthAdjust="spacingAndGlyphs" textLength="129" x="16" y="288.3442">for complex prefixes</text><rect fill="#FEFECE" filter="url(#f1tgmju9q6ys2l)" height="33.9688" rx="12.5" ry="12.5" style="stroke: #A80036; stroke-width: 1.5;" width="154" x="180" y="266.8594"/><text fill="#000000" font-family="sans-serif" font-size="12" lengthAdjust="spacingAndGlyphs" textLength="134" x="190" y="287.998">created reverse word</text><rect fill="#FEFECE" filter="url(#f1tgmju9q6ys2l)" height="33.9688" rx="12.5" ry="12.5" style="stroke: #A80036; stroke-width: 1.5;" width="129" x="192.5" y="320.8281"/><text fill="#000000" font-family="sans-serif" font-size="12" lengthAdjust="spacingAndGlyphs" textLength="109" x="202.5" y="341.9668">word refers to w2</text><rect fill="#FEFECE" filter="url(#f1tgmju9q6ys2l)" height="33.9688" rx="12.5" ry="12.5" style="stroke: #A80036; stroke-width: 1.5;" width="134" x="190" y="374.7969"/><text fill="#000000" font-family="sans-serif" font-size="12" lengthAdjust="spacingAndGlyphs" textLength="114" x="200" y="395.9355">set buffer to TRUE</text><rect fill="#FEFECE" filter="url(#f1tgmju9q6ys2l)" height="33.9688" rx="12.5" ry="12.5" style="stroke: #A80036; stroke-width: 1.5;" width="121" x="428.5" y="212.8906"/><text fill="#000000" font-family="sans-serif" font-size="12" lengthAdjust="spacingAndGlyphs" textLength="101" x="438.5" y="234.0293">word refers to w</text><polygon fill="#FEFECE" filter="url(#f1tgmju9q6ys2l)" points="373,414.7656,385,426.7656,373,438.7656,361,426.7656,373,414.7656" style="stroke: #A80036; stroke-width: 1.5;"/><rect fill="#FEFECE" filter="url(#f1tgmju9q6ys2l)" height="33.9688" rx="12.5" ry="12.5" style="stroke: #A80036; stroke-width: 1.5;" width="93" x="326.5" y="507.168"/><text fill="#000000" font-family="sans-serif" font-size="12" lengthAdjust="spacingAndGlyphs" textLength="73" x="336.5" y="528.3066">return NULL</text><ellipse cx="373" cy="578.6523" fill="none" filter="url(#f1tgmju9q6ys2l)" rx="10" ry="10" style="stroke: #000000; stroke-width: 1.0;"/><ellipse cx="373.5" cy="579.1523" fill="#000000" filter="url(#f1tgmju9q6ys2l)" rx="6" ry="6" style="stroke: none; stroke-width: 1.0;"/><polygon fill="#FEFECE" filter="url(#f1tgmju9q6ys2l)" points="320,458.7656,426,458.7656,438,470.7656,426,482.7656,320,482.7656,308,470.7656,320,458.7656" style="stroke: #A80036; stroke-width: 1.5;"/><text fill="#000000" font-family="sans-serif" font-size="11" lengthAdjust="spacingAndGlyphs" textLength="20" x="377" y="492.9761">yes</text><text fill="#000000" font-family="sans-serif" font-size="11" lengthAdjust="spacingAndGlyphs" textLength="106" x="320" y="474.5737">word length == 0?</text><text fill="#000000" font-family="sans-serif" font-size="11" lengthAdjust="spacingAndGlyphs" textLength="14" x="438" y="468.1714">no</text><polygon fill="#FEFECE" filter="url(#f1tgmju9q6ys2l)" points="323.5,630.6523,422.5,630.6523,434.5,642.6523,422.5,654.6523,323.5,654.6523,311.5,642.6523,323.5,630.6523" style="stroke: #A80036; stroke-width: 1.5;"/><text fill="#000000" font-family="sans-serif" font-size="11" lengthAdjust="spacingAndGlyphs" textLength="99" x="323.5" y="646.4604">complexprefixes?</text><text fill="#000000" font-family="sans-serif" font-size="11" lengthAdjust="spacingAndGlyphs" textLength="20" x="291.5" y="640.0581">yes</text><text fill="#000000" font-family="sans-serif" font-size="11" lengthAdjust="spacingAndGlyphs" textLength="14" x="434.5" y="640.0581">no</text><rect fill="#FEFECE" filter="url(#f1tgmju9q6ys2l)" height="33.9688" rx="12.5" ry="12.5" style="stroke: #A80036; stroke-width: 1.5;" width="50" x="276.5" y="664.6523"/><text fill="#000000" font-family="sans-serif" font-size="12" lengthAdjust="spacingAndGlyphs" textLength="30" x="286.5" y="685.791">pass</text><rect fill="#FEFECE" filter="url(#f1tgmju9q6ys2l)" height="33.9688" rx="12.5" ry="12.5" style="stroke: #A80036; stroke-width: 1.5;" width="88" x="400.5" y="664.6523"/><text fill="#000000" font-family="sans-serif" font-size="12" lengthAdjust="spacingAndGlyphs" textLength="68" x="410.5" y="685.791">reverse w2</text><polygon fill="#FEFECE" filter="url(#f1tgmju9q6ys2l)" points="373,704.6211,385,716.6211,373,728.6211,361,716.6211,373,704.6211" style="stroke: #A80036; stroke-width: 1.5;"/><rect fill="#FEFECE" filter="url(#f1tgmju9q6ys2l)" height="33.9688" rx="12.5" ry="12.5" style="stroke: #A80036; stroke-width: 1.5;" width="54" x="346" y="748.6211"/><text fill="#000000" font-family="sans-serif" font-size="12" lengthAdjust="spacingAndGlyphs" textLength="34" x="356" y="769.7598">TODO</text><ellipse cx="373" cy="812.5898" fill="none" filter="url(#f1tgmju9q6ys2l)" rx="10" ry="10" style="stroke: #000000; stroke-width: 1.0;"/><ellipse cx="373.5" cy="813.0898" fill="#000000" filter="url(#f1tgmju9q6ys2l)" rx="6" ry="6" style="stroke: none; stroke-width: 1.0;"/><line style="stroke: #A80036; stroke-width: 1.5;" x1="373" x2="373" y1="50.9531" y2="70.9531"/><polygon fill="#A80036" points="369,60.9531,373,70.9531,377,60.9531,373,64.9531" style="stroke: #A80036; stroke-width: 1.0;"/><line style="stroke: #A80036; stroke-width: 1.5;" x1="373" x2="373" y1="104.9219" y2="124.9219"/><polygon fill="#A80036" points="369,114.9219,373,124.9219,377,114.9219,373,118.9219" style="stroke: #A80036; stroke-width: 1.0;"/><line style="stroke: #A80036; stroke-width: 1.5;" x1="257" x2="257" y1="246.8594" y2="266.8594"/><polygon fill="#A80036" points="253,256.8594,257,266.8594,261,256.8594,257,260.8594" style="stroke: #A80036; stroke-width: 1.0;"/><line style="stroke: #A80036; stroke-width: 1.5;" x1="257" x2="257" y1="300.8281" y2="320.8281"/><polygon fill="#A80036" points="253,310.8281,257,320.8281,261,310.8281,257,314.8281" style="stroke: #A80036; stroke-width: 1.0;"/><line style="stroke: #A80036; stroke-width: 1.5;" x1="257" x2="257" y1="354.7969" y2="374.7969"/><polygon fill="#A80036" points="253,364.7969,257,374.7969,261,364.7969,257,368.7969" style="stroke: #A80036; stroke-width: 1.0;"/><line style="stroke: #A80036; stroke-width: 1.5;" x1="267" x2="257" y1="190.8906" y2="190.8906"/><line style="stroke: #A80036; stroke-width: 1.5;" x1="257" x2="257" y1="190.8906" y2="212.8906"/><polygon fill="#A80036" points="253,202.8906,257,212.8906,261,202.8906,257,206.8906" style="stroke: #A80036; stroke-width: 1.0;"/><line style="stroke: #A80036; stroke-width: 1.5;" x1="479" x2="489" y1="190.8906" y2="190.8906"/><line style="stroke: #A80036; stroke-width: 1.5;" x1="489" x2="489" y1="190.8906" y2="212.8906"/><polygon fill="#A80036" points="485,202.8906,489,212.8906,493,202.8906,489,206.8906" style="stroke: #A80036; stroke-width: 1.0;"/><line style="stroke: #A80036; stroke-width: 1.5;" x1="257" x2="257" y1="408.7656" y2="426.7656"/><line style="stroke: #A80036; stroke-width: 1.5;" x1="257" x2="361" y1="426.7656" y2="426.7656"/><polygon fill="#A80036" points="351,422.7656,361,426.7656,351,430.7656,355,426.7656" style="stroke: #A80036; stroke-width: 1.0;"/><line style="stroke: #A80036; stroke-width: 1.5;" x1="489" x2="489" y1="246.8594" y2="426.7656"/><line style="stroke: #A80036; stroke-width: 1.5;" x1="489" x2="385" y1="426.7656" y2="426.7656"/><polygon fill="#A80036" points="395,422.7656,385,426.7656,395,430.7656,391,426.7656" style="stroke: #A80036; stroke-width: 1.0;"/><line style="stroke: #A80036; stroke-width: 1.5;" x1="373" x2="373" y1="158.8906" y2="178.8906"/><polygon fill="#A80036" points="369,168.8906,373,178.8906,377,168.8906,373,172.8906" style="stroke: #A80036; stroke-width: 1.0;"/><line style="stroke: #A80036; stroke-width: 1.5;" x1="373" x2="373" y1="541.1367" y2="568.6523"/><polygon fill="#A80036" points="369,558.6523,373,568.6523,377,558.6523,373,562.6523" style="stroke: #A80036; stroke-width: 1.0;"/><line style="stroke: #A80036; stroke-width: 1.5;" x1="373" x2="373" y1="482.7656" y2="507.168"/><polygon fill="#A80036" points="369,497.168,373,507.168,377,497.168,373,501.168" style="stroke: #A80036; stroke-width: 1.0;"/><line style="stroke: #A80036; stroke-width: 1.5;" x1="438" x2="450" y1="470.7656" y2="470.7656"/><polygon fill="#A80036" points="446,538.6523,450,548.6523,454,538.6523,450,542.6523" style="stroke: #A80036; stroke-width: 1.5;"/><line style="stroke: #A80036; stroke-width: 1.5;" x1="450" x2="450" y1="470.7656" y2="610.6523"/><line style="stroke: #A80036; stroke-width: 1.5;" x1="450" x2="373" y1="610.6523" y2="610.6523"/><line style="stroke: #A80036; stroke-width: 1.5;" x1="373" x2="373" y1="610.6523" y2="630.6523"/><polygon fill="#A80036" points="369,620.6523,373,630.6523,377,620.6523,373,624.6523" style="stroke: #A80036; stroke-width: 1.0;"/><line style="stroke: #A80036; stroke-width: 1.5;" x1="373" x2="373" y1="438.7656" y2="458.7656"/><polygon fill="#A80036" points="369,448.7656,373,458.7656,377,448.7656,373,452.7656" style="stroke: #A80036; stroke-width: 1.0;"/><line style="stroke: #A80036; stroke-width: 1.5;" x1="311.5" x2="301.5" y1="642.6523" y2="642.6523"/><line style="stroke: #A80036; stroke-width: 1.5;" x1="301.5" x2="301.5" y1="642.6523" y2="664.6523"/><polygon fill="#A80036" points="297.5,654.6523,301.5,664.6523,305.5,654.6523,301.5,658.6523" style="stroke: #A80036; stroke-width: 1.0;"/><line style="stroke: #A80036; stroke-width: 1.5;" x1="434.5" x2="444.5" y1="642.6523" y2="642.6523"/><line style="stroke: #A80036; stroke-width: 1.5;" x1="444.5" x2="444.5" y1="642.6523" y2="664.6523"/><polygon fill="#A80036" points="440.5,654.6523,444.5,664.6523,448.5,654.6523,444.5,658.6523" style="stroke: #A80036; stroke-width: 1.0;"/><line style="stroke: #A80036; stroke-width: 1.5;" x1="301.5" x2="301.5" y1="698.6211" y2="716.6211"/><line style="stroke: #A80036; stroke-width: 1.5;" x1="301.5" x2="361" y1="716.6211" y2="716.6211"/><polygon fill="#A80036" points="351,712.6211,361,716.6211,351,720.6211,355,716.6211" style="stroke: #A80036; stroke-width: 1.0;"/><line style="stroke: #A80036; stroke-width: 1.5;" x1="444.5" x2="444.5" y1="698.6211" y2="716.6211"/><line style="stroke: #A80036; stroke-width: 1.5;" x1="444.5" x2="385" y1="716.6211" y2="716.6211"/><polygon fill="#A80036" points="395,712.6211,385,716.6211,395,720.6211,391,716.6211" style="stroke: #A80036; stroke-width: 1.0;"/><line style="stroke: #A80036; stroke-width: 1.5;" x1="373" x2="373" y1="728.6211" y2="748.6211"/><polygon fill="#A80036" points="369,738.6211,373,748.6211,377,738.6211,373,742.6211" style="stroke: #A80036; stroke-width: 1.0;"/><line style="stroke: #A80036; stroke-width: 1.5;" x1="373" x2="373" y1="782.5898" y2="802.5898"/><polygon fill="#A80036" points="369,792.5898,373,802.5898,377,792.5898,373,796.5898" style="stroke: #A80036; stroke-width: 1.0;"/><!--
@startuml
skinparam backgroundcolor White|White

title Hunspell - checkword

start

:set buffer to FALSE;
:get ignore characters from affix manager;
if (no ignore characters in affix file?) then (yes)
	:remove ignore characters from word;
	:created reverse word;
	note left: for complex prefixes
	:word refers to w2;
	:set buffer to TRUE;
else (no)
	:word refers to w;
endif

if (word length == 0?) then (yes)
	:return NULL;
	stop
else (no)
endif

if (complexprefixes?) then (yes)
	:pass;
else (no)
	:reverse w2;
endif

:TODO;

stop
@enduml

PlantUML version 1.2018.10(Sat Aug 25 19:02:59 CEST 2018)
(GPL source distribution)
Java Runtime: OpenJDK Runtime Environment
JVM: OpenJDK 64-Bit Server VM
Java Version: 10.0.2+13-Ubuntu-1ubuntu0.18.04.2
Operating System: Linux
OS Version: 4.15.0-34-generic
Default Encoding: UTF-8
Language: en
Country: US
--></g></svg>