<?xml version="1.0" encoding="UTF-8" standalone="yes"?><svg xmlns="http://www.w3.org/2000/svg" xmlns:xlink="http://www.w3.org/1999/xlink" height="323px" style="width:334px;height:323px;" version="1.1" viewBox="0 0 334 323" width="334px"><defs><filter height="300%" id="f1" width="300%" x="-1" y="-1"><feGaussianBlur result="blurOut" stdDeviation="2.0"/><feColorMatrix in="blurOut" result="blurOut2" type="matrix" values="0 0 0 0 0 0 0 0 0 0 0 0 0 0 0 0 0 0 .4 0"/><feOffset dx="4.0" dy="4.0" in="blurOut2" result="blurOut3"/><feBlend in="SourceGraphic" in2="blurOut3" mode="normal"/></filter></defs><g><text fill="#000000" font-family="sans-serif" font-size="18" lengthAdjust="spacingAndGlyphs" textLength="323" x="10" y="26.708">Hunspell - Clean Word (cleanword2)</text><ellipse cx="177.25" cy="40.9531" fill="#000000" filter="url(#f1)" rx="10" ry="10" style="stroke: none; stroke-width: 1.0;"/><rect fill="#FEFECE" filter="url(#f1)" height="33.9688" rx="12.5" ry="12.5" style="stroke: #A80036; stroke-width: 1.5;" width="151" x="101.75" y="70.9531"/><text fill="#000000" font-family="sans-serif" font-size="12" lengthAdjust="spacingAndGlyphs" textLength="131" x="111.75" y="92.0918">skip leading spaces ' '</text><rect fill="#FEFECE" filter="url(#f1)" height="33.9688" rx="12.5" ry="12.5" style="stroke: #A80036; stroke-width: 1.5;" width="161" x="96.75" y="124.9219"/><text fill="#000000" font-family="sans-serif" font-size="12" lengthAdjust="spacingAndGlyphs" textLength="141" x="106.75" y="146.0605">strip trailing persiods '.'</text><polygon fill="#FEFECE" filter="url(#f1)" points="142.25,178.8906,212.25,178.8906,224.25,190.8906,212.25,202.8906,142.25,202.8906,130.25,190.8906,142.25,178.8906" style="stroke: #A80036; stroke-width: 1.5;"/><text fill="#000000" font-family="sans-serif" font-size="11" lengthAdjust="spacingAndGlyphs" textLength="70" x="142.25" y="194.6987">nothing left?</text><text fill="#000000" font-family="sans-serif" font-size="11" lengthAdjust="spacingAndGlyphs" textLength="20" x="110.25" y="188.2964">yes</text><text fill="#000000" font-family="sans-serif" font-size="11" lengthAdjust="spacingAndGlyphs" textLength="14" x="224.25" y="188.2964">no</text><rect fill="#FEFECE" filter="url(#f1)" height="33.9688" rx="12.5" ry="12.5" style="stroke: #A80036; stroke-width: 1.5;" width="70" x="85.25" y="212.8906"/><text fill="#000000" font-family="sans-serif" font-size="12" lengthAdjust="spacingAndGlyphs" textLength="50" x="95.25" y="234.0293">return 0</text><polygon fill="#FEFECE" filter="url(#f1)" points="177.25,252.8594,189.25,264.8594,177.25,276.8594,165.25,264.8594,177.25,252.8594" style="stroke: #A80036; stroke-width: 1.5;"/><ellipse cx="177.25" cy="306.8594" fill="none" filter="url(#f1)" rx="10" ry="10" style="stroke: #000000; stroke-width: 1.0;"/><ellipse cx="177.75" cy="307.3594" fill="#000000" filter="url(#f1)" rx="6" ry="6" style="stroke: none; stroke-width: 1.0;"/><line style="stroke: #A80036; stroke-width: 1.5;" x1="177.25" x2="177.25" y1="50.9531" y2="70.9531"/><polygon fill="#A80036" points="173.25,60.9531,177.25,70.9531,181.25,60.9531,177.25,64.9531" style="stroke: #A80036; stroke-width: 1.0;"/><line style="stroke: #A80036; stroke-width: 1.5;" x1="177.25" x2="177.25" y1="104.9219" y2="124.9219"/><polygon fill="#A80036" points="173.25,114.9219,177.25,124.9219,181.25,114.9219,177.25,118.9219" style="stroke: #A80036; stroke-width: 1.0;"/><line style="stroke: #A80036; stroke-width: 1.5;" x1="130.25" x2="120.25" y1="190.8906" y2="190.8906"/><line style="stroke: #A80036; stroke-width: 1.5;" x1="120.25" x2="120.25" y1="190.8906" y2="212.8906"/><polygon fill="#A80036" points="116.25,202.8906,120.25,212.8906,124.25,202.8906,120.25,206.8906" style="stroke: #A80036; stroke-width: 1.0;"/><line style="stroke: #A80036; stroke-width: 1.5;" x1="224.25" x2="234.25" y1="190.8906" y2="190.8906"/><polygon fill="#A80036" points="230.25,217.875,234.25,227.875,238.25,217.875,234.25,221.875" style="stroke: #A80036; stroke-width: 1.5;"/><line style="stroke: #A80036; stroke-width: 1.5;" x1="234.25" x2="234.25" y1="190.8906" y2="264.8594"/><line style="stroke: #A80036; stroke-width: 1.5;" x1="234.25" x2="189.25" y1="264.8594" y2="264.8594"/><polygon fill="#A80036" points="199.25,260.8594,189.25,264.8594,199.25,268.8594,195.25,264.8594" style="stroke: #A80036; stroke-width: 1.0;"/><line style="stroke: #A80036; stroke-width: 1.5;" x1="120.25" x2="120.25" y1="246.8594" y2="264.8594"/><line style="stroke: #A80036; stroke-width: 1.5;" x1="120.25" x2="165.25" y1="264.8594" y2="264.8594"/><polygon fill="#A80036" points="155.25,260.8594,165.25,264.8594,155.25,268.8594,159.25,264.8594" style="stroke: #A80036; stroke-width: 1.0;"/><line style="stroke: #A80036; stroke-width: 1.5;" x1="177.25" x2="177.25" y1="158.8906" y2="178.8906"/><polygon fill="#A80036" points="173.25,168.8906,177.25,178.8906,181.25,168.8906,177.25,172.8906" style="stroke: #A80036; stroke-width: 1.0;"/><line style="stroke: #A80036; stroke-width: 1.5;" x1="177.25" x2="177.25" y1="276.8594" y2="296.8594"/><polygon fill="#A80036" points="173.25,286.8594,177.25,296.8594,181.25,286.8594,177.25,290.8594" style="stroke: #A80036; stroke-width: 1.0;"/></g></svg>