<?xml version="1.0" encoding="UTF-8" standalone="yes"?><svg xmlns="http://www.w3.org/2000/svg" xmlns:xlink="http://www.w3.org/1999/xlink" height="554px" style="width:334px;height:554px;" version="1.1" viewBox="0 0 334 554" width="334px"><defs><filter height="300%" id="f1" width="300%" x="-1" y="-1"><feGaussianBlur result="blurOut" stdDeviation="2.0"/><feColorMatrix in="blurOut" result="blurOut2" type="matrix" values="0 0 0 0 0 0 0 0 0 0 0 0 0 0 0 0 0 0 .4 0"/><feOffset dx="4.0" dy="4.0" in="blurOut2" result="blurOut3"/><feBlend in="SourceGraphic" in2="blurOut3" mode="normal"/></filter></defs><g><text fill="#000000" font-family="sans-serif" font-size="18" lengthAdjust="spacingAndGlyphs" textLength="323" x="10" y="26.708">Hunspell - Clean Word (cleanword2)</text><ellipse cx="182.5" cy="40.9531" fill="#000000" filter="url(#f1)" rx="10" ry="10" style="stroke: none; stroke-width: 1.0;"/><rect fill="#FEFECE" filter="url(#f1)" height="33.9688" rx="12.5" ry="12.5" style="stroke: #A80036; stroke-width: 1.5;" width="151" x="107" y="70.9531"/><text fill="#000000" font-family="sans-serif" font-size="12" lengthAdjust="spacingAndGlyphs" textLength="131" x="117" y="92.0918">skip leading spaces ' '</text><rect fill="#FEFECE" filter="url(#f1)" height="33.9688" rx="12.5" ry="12.5" style="stroke: #A80036; stroke-width: 1.5;" width="161" x="102" y="124.9219"/><text fill="#000000" font-family="sans-serif" font-size="12" lengthAdjust="spacingAndGlyphs" textLength="141" x="112" y="146.0605">strip trailing persiods '.'</text><rect fill="#FEFECE" filter="url(#f1)" height="33.9688" rx="12.5" ry="12.5" style="stroke: #A80036; stroke-width: 1.5;" width="84" x="140.5" y="178.8906"/><text fill="#000000" font-family="sans-serif" font-size="12" lengthAdjust="spacingAndGlyphs" textLength="64" x="150.5" y="200.0293">set abbrev</text><polygon fill="#FEFECE" filter="url(#f1)" points="147.5,232.8594,217.5,232.8594,229.5,244.8594,217.5,256.8594,147.5,256.8594,135.5,244.8594,147.5,232.8594" style="stroke: #A80036; stroke-width: 1.5;"/><text fill="#000000" font-family="sans-serif" font-size="11" lengthAdjust="spacingAndGlyphs" textLength="70" x="147.5" y="248.6675">nothing left?</text><text fill="#000000" font-family="sans-serif" font-size="11" lengthAdjust="spacingAndGlyphs" textLength="20" x="115.5" y="242.2651">yes</text><text fill="#000000" font-family="sans-serif" font-size="11" lengthAdjust="spacingAndGlyphs" textLength="14" x="229.5" y="242.2651">no</text><rect fill="#FEFECE" filter="url(#f1)" height="33.9688" rx="12.5" ry="12.5" style="stroke: #A80036; stroke-width: 1.5;" width="152" x="49.5" y="266.8594"/><text fill="#000000" font-family="sans-serif" font-size="12" lengthAdjust="spacingAndGlyphs" textLength="132" x="59.5" y="287.998">set captype to NOCAP</text><rect fill="#FEFECE" filter="url(#f1)" height="33.9688" rx="12.5" ry="12.5" style="stroke: #A80036; stroke-width: 1.5;" width="70" x="90.5" y="335.8281"/><text fill="#000000" font-family="sans-serif" font-size="12" lengthAdjust="spacingAndGlyphs" textLength="50" x="100.5" y="356.9668">return 0</text><polygon fill="#FEFECE" filter="url(#f1)" points="182.5,375.7969,194.5,387.7969,182.5,399.7969,170.5,387.7969,182.5,375.7969" style="stroke: #A80036; stroke-width: 1.5;"/><rect fill="#FEFECE" filter="url(#f1)" height="33.9688" rx="12.5" ry="12.5" style="stroke: #A80036; stroke-width: 1.5;" width="91" x="137" y="419.7969"/><text fill="#000000" font-family="sans-serif" font-size="12" lengthAdjust="spacingAndGlyphs" textLength="71" x="147" y="440.9355">set captype</text><rect fill="#FEFECE" filter="url(#f1)" height="33.9688" rx="12.5" ry="12.5" style="stroke: #A80036; stroke-width: 1.5;" width="222" x="71.5" y="473.7656"/><text fill="#000000" font-family="sans-serif" font-size="12" lengthAdjust="spacingAndGlyphs" textLength="202" x="81.5" y="494.9043">return word length after cleaning</text><ellipse cx="182.5" cy="537.7344" fill="none" filter="url(#f1)" rx="10" ry="10" style="stroke: #000000; stroke-width: 1.0;"/><ellipse cx="183" cy="538.2344" fill="#000000" filter="url(#f1)" rx="6" ry="6" style="stroke: none; stroke-width: 1.0;"/><line style="stroke: #A80036; stroke-width: 1.5;" x1="182.5" x2="182.5" y1="50.9531" y2="70.9531"/><polygon fill="#A80036" points="178.5,60.9531,182.5,70.9531,186.5,60.9531,182.5,64.9531" style="stroke: #A80036; stroke-width: 1.0;"/><line style="stroke: #A80036; stroke-width: 1.5;" x1="182.5" x2="182.5" y1="104.9219" y2="124.9219"/><polygon fill="#A80036" points="178.5,114.9219,182.5,124.9219,186.5,114.9219,182.5,118.9219" style="stroke: #A80036; stroke-width: 1.0;"/><line style="stroke: #A80036; stroke-width: 1.5;" x1="182.5" x2="182.5" y1="158.8906" y2="178.8906"/><polygon fill="#A80036" points="178.5,168.8906,182.5,178.8906,186.5,168.8906,182.5,172.8906" style="stroke: #A80036; stroke-width: 1.0;"/><line style="stroke: #A80036; stroke-width: 1.5;" x1="125.5" x2="125.5" y1="300.8281" y2="335.8281"/><polygon fill="#A80036" points="121.5,325.8281,125.5,335.8281,129.5,325.8281,125.5,329.8281" style="stroke: #A80036; stroke-width: 1.0;"/><line style="stroke: #A80036; stroke-width: 1.5;" x1="135.5" x2="125.5" y1="244.8594" y2="244.8594"/><line style="stroke: #A80036; stroke-width: 1.5;" x1="125.5" x2="125.5" y1="244.8594" y2="266.8594"/><polygon fill="#A80036" points="121.5,256.8594,125.5,266.8594,129.5,256.8594,125.5,260.8594" style="stroke: #A80036; stroke-width: 1.0;"/><line style="stroke: #A80036; stroke-width: 1.5;" x1="229.5" x2="239.5" y1="244.8594" y2="244.8594"/><polygon fill="#A80036" points="235.5,306.3281,239.5,316.3281,243.5,306.3281,239.5,310.3281" style="stroke: #A80036; stroke-width: 1.5;"/><line style="stroke: #A80036; stroke-width: 1.5;" x1="239.5" x2="239.5" y1="244.8594" y2="387.7969"/><line style="stroke: #A80036; stroke-width: 1.5;" x1="239.5" x2="194.5" y1="387.7969" y2="387.7969"/><polygon fill="#A80036" points="204.5,383.7969,194.5,387.7969,204.5,391.7969,200.5,387.7969" style="stroke: #A80036; stroke-width: 1.0;"/><line style="stroke: #A80036; stroke-width: 1.5;" x1="125.5" x2="125.5" y1="369.7969" y2="387.7969"/><line style="stroke: #A80036; stroke-width: 1.5;" x1="125.5" x2="170.5" y1="387.7969" y2="387.7969"/><polygon fill="#A80036" points="160.5,383.7969,170.5,387.7969,160.5,391.7969,164.5,387.7969" style="stroke: #A80036; stroke-width: 1.0;"/><line style="stroke: #A80036; stroke-width: 1.5;" x1="182.5" x2="182.5" y1="212.8594" y2="232.8594"/><polygon fill="#A80036" points="178.5,222.8594,182.5,232.8594,186.5,222.8594,182.5,226.8594" style="stroke: #A80036; stroke-width: 1.0;"/><line style="stroke: #A80036; stroke-width: 1.5;" x1="182.5" x2="182.5" y1="399.7969" y2="419.7969"/><polygon fill="#A80036" points="178.5,409.7969,182.5,419.7969,186.5,409.7969,182.5,413.7969" style="stroke: #A80036; stroke-width: 1.0;"/><line style="stroke: #A80036; stroke-width: 1.5;" x1="182.5" x2="182.5" y1="453.7656" y2="473.7656"/><polygon fill="#A80036" points="178.5,463.7656,182.5,473.7656,186.5,463.7656,182.5,467.7656" style="stroke: #A80036; stroke-width: 1.0;"/><line style="stroke: #A80036; stroke-width: 1.5;" x1="182.5" x2="182.5" y1="507.7344" y2="527.7344"/><polygon fill="#A80036" points="178.5,517.7344,182.5,527.7344,186.5,517.7344,182.5,521.7344" style="stroke: #A80036; stroke-width: 1.0;"/></g></svg>