<?xml version="1.0" encoding="UTF-8" standalone="no"?><svg xmlns="http://www.w3.org/2000/svg" xmlns:xlink="http://www.w3.org/1999/xlink" contentScriptType="application/ecmascript" contentStyleType="text/css" height="759px" preserveAspectRatio="none" style="width:538px;height:759px;" version="1.1" viewBox="0 0 538 759" width="538px" zoomAndPan="magnify"><defs><linearGradient id="g1kgh1h44mcv6o0" x1="0%" x2="100%" y1="50%" y2="50%"><stop offset="0%" stop-color="#FFFFFF"/><stop offset="100%" stop-color="#FFFFFF"/></linearGradient><filter height="300%" id="f1kgh1h44mcv6o" width="300%" x="-1" y="-1"><feGaussianBlur result="blurOut" stdDeviation="2.0"/><feColorMatrix in="blurOut" result="blurOut2" type="matrix" values="0 0 0 0 0 0 0 0 0 0 0 0 0 0 0 0 0 0 .4 0"/><feOffset dx="4.0" dy="4.0" in="blurOut2" result="blurOut3"/><feBlend in="SourceGraphic" in2="blurOut3" mode="normal"/></filter></defs><g><rect fill="url(#g1kgh1h44mcv6o0)" height="759" style="stroke: none; stroke-width: 1.0;" width="538" x="0" y="0"/><text fill="#000000" font-family="sans-serif" font-size="18" lengthAdjust="spacingAndGlyphs" textLength="323" x="106.75" y="26.708">Hunspell - Clean Word (cleanword2)</text><ellipse cx="346" cy="40.9531" fill="#000000" filter="url(#f1kgh1h44mcv6o)" rx="10" ry="10" style="stroke: none; stroke-width: 1.0;"/><rect fill="#FEFECE" filter="url(#f1kgh1h44mcv6o)" height="33.9688" rx="12.5" ry="12.5" style="stroke: #A80036; stroke-width: 1.5;" width="295" x="198.5" y="70.9531"/><text fill="#000000" font-family="sans-serif" font-size="12" lengthAdjust="spacingAndGlyphs" textLength="275" x="208.5" y="92.0918">create destination string from source string</text><rect fill="#FEFECE" filter="url(#f1kgh1h44mcv6o)" height="33.9688" rx="12.5" ry="12.5" style="stroke: #A80036; stroke-width: 1.5;" width="323" x="184.5" y="124.9219"/><text fill="#000000" font-family="sans-serif" font-size="12" lengthAdjust="spacingAndGlyphs" textLength="303" x="194.5" y="146.0605">skip all leading spaces ' ' from destination string</text><rect fill="#FEFECE" filter="url(#f1kgh1h44mcv6o)" height="33.9688" rx="12.5" ry="12.5" style="stroke: #A80036; stroke-width: 1.5;" width="332" x="180" y="178.8906"/><text fill="#000000" font-family="sans-serif" font-size="12" lengthAdjust="spacingAndGlyphs" textLength="312" x="190" y="200.0293">strip all trailing persiods '.' from destination string</text><rect fill="#FEFECE" filter="url(#f1kgh1h44mcv6o)" height="33.9688" rx="12.5" ry="12.5" style="stroke: #A80036; stroke-width: 1.5;" width="363" x="164.5" y="232.8594"/><text fill="#000000" font-family="sans-serif" font-size="12" lengthAdjust="spacingAndGlyphs" textLength="343" x="174.5" y="253.998">set abbreviation to number of removed trailing periods</text><path d="M10,379.1992 L10,464.8633 L176,464.8633 L176,389.1992 L166,379.1992 L10,379.1992 " fill="#FBFB77" filter="url(#f1kgh1h44mcv6o)" style="stroke: #A80036; stroke-width: 1.0;"/><path d="M166,379.1992 L166,389.1992 L176,389.1992 L166,379.1992 " fill="#FBFB77" style="stroke: #A80036; stroke-width: 1.0;"/><text fill="#000000" font-family="sans-serif" font-size="13" lengthAdjust="spacingAndGlyphs" textLength="112" x="16" y="396.2661">When 'yes', this is</text><text fill="#000000" font-family="sans-serif" font-size="13" lengthAdjust="spacingAndGlyphs" textLength="133" x="16" y="411.3989">only an optimisation.</text><text fill="#000000" font-family="sans-serif" font-size="13" lengthAdjust="spacingAndGlyphs" textLength="145" x="16" y="426.5317">Functionally, nothing is</text><text fill="#000000" font-family="sans-serif" font-size="13" lengthAdjust="spacingAndGlyphs" textLength="122" x="16" y="441.6646">different compared</text><text fill="#000000" font-family="sans-serif" font-size="13" lengthAdjust="spacingAndGlyphs" textLength="81" x="16" y="456.7974">to main flow.</text><rect fill="#FEFECE" filter="url(#f1kgh1h44mcv6o)" height="33.9688" rx="12.5" ry="12.5" style="stroke: #A80036; stroke-width: 1.5;" width="280" x="206" y="335.2305"/><text fill="#000000" font-family="sans-serif" font-size="12" lengthAdjust="spacingAndGlyphs" textLength="260" x="216" y="356.3691">set captitalization type to no capitalizition</text><rect fill="#FEFECE" filter="url(#f1kgh1h44mcv6o)" height="89.8438" rx="12.5" ry="12.5" style="stroke: #A80036; stroke-width: 1.5;" width="211" x="240.5" y="393.0938"/><text fill="#000000" font-family="sans-serif" font-size="12" lengthAdjust="spacingAndGlyphs" textLength="43" x="250.5" y="414.2324">return:</text><text fill="#000000" font-family="sans-serif" font-size="12" lengthAdjust="spacingAndGlyphs" textLength="191" x="250.5" y="428.2012">- destination string length of 0</text><text fill="#000000" font-family="sans-serif" font-size="12" lengthAdjust="spacingAndGlyphs" textLength="119" x="250.5" y="442.1699">- destination string</text><text fill="#000000" font-family="sans-serif" font-size="12" lengthAdjust="spacingAndGlyphs" textLength="123" x="250.5" y="456.1387">- capitalisation type</text><text fill="#000000" font-family="sans-serif" font-size="12" lengthAdjust="spacingAndGlyphs" textLength="86" x="250.5" y="470.1074">- abbreviation</text><ellipse cx="346" cy="512.9375" fill="none" filter="url(#f1kgh1h44mcv6o)" rx="10" ry="10" style="stroke: #000000; stroke-width: 1.0;"/><ellipse cx="346.5" cy="513.4375" fill="#000000" filter="url(#f1kgh1h44mcv6o)" rx="6" ry="6" style="stroke: none; stroke-width: 1.0;"/><polygon fill="#FEFECE" filter="url(#f1kgh1h44mcv6o)" points="266.5,286.8281,425.5,286.8281,437.5,298.8281,425.5,310.8281,266.5,310.8281,254.5,298.8281,266.5,286.8281" style="stroke: #A80036; stroke-width: 1.5;"/><text fill="#000000" font-family="sans-serif" font-size="11" lengthAdjust="spacingAndGlyphs" textLength="20" x="350" y="321.0386">yes</text><text fill="#000000" font-family="sans-serif" font-size="11" lengthAdjust="spacingAndGlyphs" textLength="159" x="266.5" y="302.6362">destination string is empty?</text><text fill="#000000" font-family="sans-serif" font-size="11" lengthAdjust="spacingAndGlyphs" textLength="14" x="437.5" y="296.2339">no</text><rect fill="#FEFECE" filter="url(#f1kgh1h44mcv6o)" height="33.9688" rx="12.5" ry="12.5" style="stroke: #A80036; stroke-width: 1.5;" width="293" x="199.5" y="564.9375"/><text fill="#000000" font-family="sans-serif" font-size="12" lengthAdjust="spacingAndGlyphs" textLength="273" x="209.5" y="586.0762">set capitalization type for destination string</text><rect fill="#FEFECE" filter="url(#f1kgh1h44mcv6o)" height="89.8438" rx="12.5" ry="12.5" style="stroke: #A80036; stroke-width: 1.5;" width="183" x="254.5" y="618.9063"/><text fill="#000000" font-family="sans-serif" font-size="12" lengthAdjust="spacingAndGlyphs" textLength="43" x="264.5" y="640.0449">return:</text><text fill="#000000" font-family="sans-serif" font-size="12" lengthAdjust="spacingAndGlyphs" textLength="163" x="264.5" y="654.0137">- destination string length</text><text fill="#000000" font-family="sans-serif" font-size="12" lengthAdjust="spacingAndGlyphs" textLength="119" x="264.5" y="667.9824">- destination string</text><text fill="#000000" font-family="sans-serif" font-size="12" lengthAdjust="spacingAndGlyphs" textLength="123" x="264.5" y="681.9512">- capitalisation type</text><text fill="#000000" font-family="sans-serif" font-size="12" lengthAdjust="spacingAndGlyphs" textLength="86" x="264.5" y="695.9199">- abbreviation</text><ellipse cx="346" cy="738.75" fill="none" filter="url(#f1kgh1h44mcv6o)" rx="10" ry="10" style="stroke: #000000; stroke-width: 1.0;"/><ellipse cx="346.5" cy="739.25" fill="#000000" filter="url(#f1kgh1h44mcv6o)" rx="6" ry="6" style="stroke: none; stroke-width: 1.0;"/><line style="stroke: #A80036; stroke-width: 1.5;" x1="346" x2="346" y1="50.9531" y2="70.9531"/><polygon fill="#A80036" points="342,60.9531,346,70.9531,350,60.9531,346,64.9531" style="stroke: #A80036; stroke-width: 1.0;"/><line style="stroke: #A80036; stroke-width: 1.5;" x1="346" x2="346" y1="104.9219" y2="124.9219"/><polygon fill="#A80036" points="342,114.9219,346,124.9219,350,114.9219,346,118.9219" style="stroke: #A80036; stroke-width: 1.0;"/><line style="stroke: #A80036; stroke-width: 1.5;" x1="346" x2="346" y1="158.8906" y2="178.8906"/><polygon fill="#A80036" points="342,168.8906,346,178.8906,350,168.8906,346,172.8906" style="stroke: #A80036; stroke-width: 1.0;"/><line style="stroke: #A80036; stroke-width: 1.5;" x1="346" x2="346" y1="212.8594" y2="232.8594"/><polygon fill="#A80036" points="342,222.8594,346,232.8594,350,222.8594,346,226.8594" style="stroke: #A80036; stroke-width: 1.0;"/><line style="stroke: #A80036; stroke-width: 1.5;" x1="346" x2="346" y1="369.1992" y2="393.0938"/><polygon fill="#A80036" points="342,383.0938,346,393.0938,350,383.0938,346,387.0938" style="stroke: #A80036; stroke-width: 1.0;"/><line style="stroke: #A80036; stroke-width: 1.5;" x1="346" x2="346" y1="482.9375" y2="502.9375"/><polygon fill="#A80036" points="342,492.9375,346,502.9375,350,492.9375,346,496.9375" style="stroke: #A80036; stroke-width: 1.0;"/><line style="stroke: #A80036; stroke-width: 1.5;" x1="346" x2="346" y1="310.8281" y2="335.2305"/><polygon fill="#A80036" points="342,325.2305,346,335.2305,350,325.2305,346,329.2305" style="stroke: #A80036; stroke-width: 1.0;"/><line style="stroke: #A80036; stroke-width: 1.5;" x1="437.5" x2="496" y1="298.8281" y2="298.8281"/><polygon fill="#A80036" points="492,418.0313,496,428.0313,500,418.0313,496,422.0313" style="stroke: #A80036; stroke-width: 1.5;"/><line style="stroke: #A80036; stroke-width: 1.5;" x1="496" x2="496" y1="298.8281" y2="544.9375"/><line style="stroke: #A80036; stroke-width: 1.5;" x1="496" x2="346" y1="544.9375" y2="544.9375"/><line style="stroke: #A80036; stroke-width: 1.5;" x1="346" x2="346" y1="544.9375" y2="564.9375"/><polygon fill="#A80036" points="342,554.9375,346,564.9375,350,554.9375,346,558.9375" style="stroke: #A80036; stroke-width: 1.0;"/><line style="stroke: #A80036; stroke-width: 1.5;" x1="346" x2="346" y1="266.8281" y2="286.8281"/><polygon fill="#A80036" points="342,276.8281,346,286.8281,350,276.8281,346,280.8281" style="stroke: #A80036; stroke-width: 1.0;"/><line style="stroke: #A80036; stroke-width: 1.5;" x1="346" x2="346" y1="598.9063" y2="618.9063"/><polygon fill="#A80036" points="342,608.9063,346,618.9063,350,608.9063,346,612.9063" style="stroke: #A80036; stroke-width: 1.0;"/><line style="stroke: #A80036; stroke-width: 1.5;" x1="346" x2="346" y1="708.75" y2="728.75"/><polygon fill="#A80036" points="342,718.75,346,728.75,350,718.75,346,722.75" style="stroke: #A80036; stroke-width: 1.0;"/><!--
@startuml
skinparam backgroundcolor White|White

title Hunspell - Clean Word (cleanword2)

start
:create destination string from source string;
:skip all leading spaces ' ' from destination string;
:strip all trailing persiods '.' from destination string;
:set abbreviation to number of removed trailing periods;
if (destination string is empty?) then (yes)
	:set captitalization type to no capitalizition;
	:return:\n- destination string length of 0\n- destination string\n- capitalisation type\n- abbreviation;
	stop
else (no)
endif
note left: When 'yes', this is\nonly an optimisation.\nFunctionally, nothing is\ndifferent compared\nto main flow.
:set capitalization type for destination string;
:return:\n- destination string length\n- destination string\n- capitalisation type\n- abbreviation;
stop

@enduml

PlantUML version 1.2018.12beta1(Unknown compile time)
(GPL source distribution)
Java Runtime: OpenJDK Runtime Environment
JVM: OpenJDK 64-Bit Server VM
Java Version: 10.0.2+13-Ubuntu-1ubuntu0.18.04.2
Operating System: Linux
OS Version: 4.15.0-34-generic
Default Encoding: UTF-8
Language: en
Country: US
--></g></svg>