<?xml version="1.0" encoding="UTF-8" standalone="yes"?><svg xmlns="http://www.w3.org/2000/svg" xmlns:xlink="http://www.w3.org/1999/xlink" height="724px" style="width:630px;height:724px;" version="1.1" viewBox="0 0 630 724" width="630px"><defs><filter height="300%" id="f1" width="300%" x="-1" y="-1"><feGaussianBlur result="blurOut" stdDeviation="2.0"/><feColorMatrix in="blurOut" result="blurOut2" type="matrix" values="0 0 0 0 0 0 0 0 0 0 0 0 0 0 0 0 0 0 .4 0"/><feOffset dx="4.0" dy="4.0" in="blurOut2" result="blurOut3"/><feBlend in="SourceGraphic" in2="blurOut3" mode="normal"/></filter></defs><g><text fill="#000000" font-family="sans-serif" font-size="18" lengthAdjust="spacingAndGlyphs" textLength="323" x="155.25" y="26.708">Hunspell - Clean Word (cleanword2)</text><ellipse cx="448" cy="40.9531" fill="#000000" filter="url(#f1)" rx="10" ry="10" style="stroke: none; stroke-width: 1.0;"/><rect fill="#FEFECE" filter="url(#f1)" height="33.9688" rx="12.5" ry="12.5" style="stroke: #A80036; stroke-width: 1.5;" width="283" x="306.5" y="70.9531"/><text fill="#000000" font-family="sans-serif" font-size="12" lengthAdjust="spacingAndGlyphs" textLength="263" x="316.5" y="92.0918">create destination string from source string</text><rect fill="#FEFECE" filter="url(#f1)" height="33.9688" rx="12.5" ry="12.5" style="stroke: #A80036; stroke-width: 1.5;" width="310" x="293" y="124.9219"/><text fill="#000000" font-family="sans-serif" font-size="12" lengthAdjust="spacingAndGlyphs" textLength="290" x="303" y="146.0605">skip all leading spaces ' ' from destination string</text><rect fill="#FEFECE" filter="url(#f1)" height="33.9688" rx="12.5" ry="12.5" style="stroke: #A80036; stroke-width: 1.5;" width="320" x="288" y="178.8906"/><text fill="#000000" font-family="sans-serif" font-size="12" lengthAdjust="spacingAndGlyphs" textLength="300" x="298" y="200.0293">strip all trailing persiods '.' from destination string</text><rect fill="#FEFECE" filter="url(#f1)" height="33.9688" rx="12.5" ry="12.5" style="stroke: #A80036; stroke-width: 1.5;" width="351" x="272.5" y="232.8594"/><text fill="#000000" font-family="sans-serif" font-size="12" lengthAdjust="spacingAndGlyphs" textLength="331" x="282.5" y="253.998">set abbreviation to number of removed trailing periods</text><polygon fill="#FBFB77" filter="url(#f1)" points="10,364.7969,10,450.4609,182,450.4609,182,374.7969,172,364.7969,10,364.7969" style="stroke: #A80036; stroke-width: 1.0;"/><line style="stroke: #A80036; stroke-width: 1.0;" x1="172" x2="172" y1="364.7969" y2="374.7969"/><line style="stroke: #A80036; stroke-width: 1.0;" x1="182" x2="172" y1="374.7969" y2="374.7969"/><text fill="#000000" font-family="sans-serif" font-size="13" lengthAdjust="spacingAndGlyphs" textLength="119" x="16" y="381.8638">When 'yes', this is</text><text fill="#000000" font-family="sans-serif" font-size="13" lengthAdjust="spacingAndGlyphs" textLength="138" x="16" y="396.9966">only an optimisation.</text><text fill="#000000" font-family="sans-serif" font-size="13" lengthAdjust="spacingAndGlyphs" textLength="151" x="16" y="412.1294">Functionally, nothing is</text><text fill="#000000" font-family="sans-serif" font-size="13" lengthAdjust="spacingAndGlyphs" textLength="125" x="16" y="427.2622">different compared</text><text fill="#000000" font-family="sans-serif" font-size="13" lengthAdjust="spacingAndGlyphs" textLength="86" x="16" y="442.395">to main flow.</text><polygon fill="#FEFECE" filter="url(#f1)" points="369.5,286.8281,526.5,286.8281,538.5,298.8281,526.5,310.8281,369.5,310.8281,357.5,298.8281,369.5,286.8281" style="stroke: #A80036; stroke-width: 1.5;"/><text fill="#000000" font-family="sans-serif" font-size="11" lengthAdjust="spacingAndGlyphs" textLength="157" x="369.5" y="302.6362">destination string is empty?</text><text fill="#000000" font-family="sans-serif" font-size="11" lengthAdjust="spacingAndGlyphs" textLength="20" x="337.5" y="296.2339">yes</text><text fill="#000000" font-family="sans-serif" font-size="11" lengthAdjust="spacingAndGlyphs" textLength="14" x="538.5" y="296.2339">no</text><rect fill="#FEFECE" filter="url(#f1)" height="33.9688" rx="12.5" ry="12.5" style="stroke: #A80036; stroke-width: 1.5;" width="271" x="212" y="320.8281"/><text fill="#000000" font-family="sans-serif" font-size="12" lengthAdjust="spacingAndGlyphs" textLength="251" x="222" y="341.9668">set captitalization type to no capitalizition</text><rect fill="#FEFECE" filter="url(#f1)" height="89.8438" rx="12.5" ry="12.5" style="stroke: #A80036; stroke-width: 1.5;" width="204" x="245.5" y="383.6914"/><text fill="#000000" font-family="sans-serif" font-size="12" lengthAdjust="spacingAndGlyphs" textLength="42" x="255.5" y="404.8301">return:</text><text fill="#000000" font-family="sans-serif" font-size="12" lengthAdjust="spacingAndGlyphs" textLength="184" x="255.5" y="418.7988">- destination string length of 0</text><text fill="#000000" font-family="sans-serif" font-size="12" lengthAdjust="spacingAndGlyphs" textLength="114" x="255.5" y="432.7676">- destination string</text><text fill="#000000" font-family="sans-serif" font-size="12" lengthAdjust="spacingAndGlyphs" textLength="118" x="255.5" y="446.7363">- capitalisation type</text><text fill="#000000" font-family="sans-serif" font-size="12" lengthAdjust="spacingAndGlyphs" textLength="83" x="255.5" y="460.7051">- abbreviation</text><ellipse cx="347.5" cy="503.5352" fill="none" filter="url(#f1)" rx="10" ry="10" style="stroke: #000000; stroke-width: 1.0;"/><ellipse cx="348" cy="504.0352" fill="#000000" filter="url(#f1)" rx="6" ry="6" style="stroke: none; stroke-width: 1.0;"/><rect fill="#FEFECE" filter="url(#f1)" height="33.9688" rx="12.5" ry="12.5" style="stroke: #A80036; stroke-width: 1.5;" width="282" x="307" y="533.5352"/><text fill="#000000" font-family="sans-serif" font-size="12" lengthAdjust="spacingAndGlyphs" textLength="262" x="317" y="554.6738">set capitalization type for destination string</text><rect fill="#FEFECE" filter="url(#f1)" height="89.8438" rx="12.5" ry="12.5" style="stroke: #A80036; stroke-width: 1.5;" width="177" x="359.5" y="587.5039"/><text fill="#000000" font-family="sans-serif" font-size="12" lengthAdjust="spacingAndGlyphs" textLength="42" x="369.5" y="608.6426">return:</text><text fill="#000000" font-family="sans-serif" font-size="12" lengthAdjust="spacingAndGlyphs" textLength="157" x="369.5" y="622.6113">- destination string length</text><text fill="#000000" font-family="sans-serif" font-size="12" lengthAdjust="spacingAndGlyphs" textLength="114" x="369.5" y="636.5801">- destination string</text><text fill="#000000" font-family="sans-serif" font-size="12" lengthAdjust="spacingAndGlyphs" textLength="118" x="369.5" y="650.5488">- capitalisation type</text><text fill="#000000" font-family="sans-serif" font-size="12" lengthAdjust="spacingAndGlyphs" textLength="83" x="369.5" y="664.5176">- abbreviation</text><ellipse cx="448" cy="707.3477" fill="none" filter="url(#f1)" rx="10" ry="10" style="stroke: #000000; stroke-width: 1.0;"/><ellipse cx="448.5" cy="707.8477" fill="#000000" filter="url(#f1)" rx="6" ry="6" style="stroke: none; stroke-width: 1.0;"/><line style="stroke: #A80036; stroke-width: 1.5;" x1="448" x2="448" y1="50.9531" y2="70.9531"/><polygon fill="#A80036" points="444,60.9531,448,70.9531,452,60.9531,448,64.9531" style="stroke: #A80036; stroke-width: 1.0;"/><line style="stroke: #A80036; stroke-width: 1.5;" x1="448" x2="448" y1="104.9219" y2="124.9219"/><polygon fill="#A80036" points="444,114.9219,448,124.9219,452,114.9219,448,118.9219" style="stroke: #A80036; stroke-width: 1.0;"/><line style="stroke: #A80036; stroke-width: 1.5;" x1="448" x2="448" y1="158.8906" y2="178.8906"/><polygon fill="#A80036" points="444,168.8906,448,178.8906,452,168.8906,448,172.8906" style="stroke: #A80036; stroke-width: 1.0;"/><line style="stroke: #A80036; stroke-width: 1.5;" x1="448" x2="448" y1="212.8594" y2="232.8594"/><polygon fill="#A80036" points="444,222.8594,448,232.8594,452,222.8594,448,226.8594" style="stroke: #A80036; stroke-width: 1.0;"/><line style="stroke: #A80036; stroke-width: 1.5;" x1="347.5" x2="347.5" y1="354.7969" y2="383.6914"/><polygon fill="#A80036" points="343.5,373.6914,347.5,383.6914,351.5,373.6914,347.5,377.6914" style="stroke: #A80036; stroke-width: 1.0;"/><line style="stroke: #A80036; stroke-width: 1.5;" x1="347.5" x2="347.5" y1="473.5352" y2="493.5352"/><polygon fill="#A80036" points="343.5,483.5352,347.5,493.5352,351.5,483.5352,347.5,487.5352" style="stroke: #A80036; stroke-width: 1.0;"/><line style="stroke: #A80036; stroke-width: 1.5;" x1="357.5" x2="347.5" y1="298.8281" y2="298.8281"/><line style="stroke: #A80036; stroke-width: 1.5;" x1="347.5" x2="347.5" y1="298.8281" y2="320.8281"/><polygon fill="#A80036" points="343.5,310.8281,347.5,320.8281,351.5,310.8281,347.5,314.8281" style="stroke: #A80036; stroke-width: 1.0;"/><line style="stroke: #A80036; stroke-width: 1.5;" x1="538.5" x2="548.5" y1="298.8281" y2="298.8281"/><polygon fill="#A80036" points="544.5,403.6289,548.5,413.6289,552.5,403.6289,548.5,407.6289" style="stroke: #A80036; stroke-width: 1.5;"/><line style="stroke: #A80036; stroke-width: 1.5;" x1="548.5" x2="548.5" y1="298.8281" y2="518.5352"/><line style="stroke: #A80036; stroke-width: 1.5;" x1="548.5" x2="448" y1="518.5352" y2="518.5352"/><line style="stroke: #A80036; stroke-width: 1.5;" x1="448" x2="448" y1="518.5352" y2="533.5352"/><polygon fill="#A80036" points="444,523.5352,448,533.5352,452,523.5352,448,527.5352" style="stroke: #A80036; stroke-width: 1.0;"/><line style="stroke: #A80036; stroke-width: 1.5;" x1="448" x2="448" y1="266.8281" y2="286.8281"/><polygon fill="#A80036" points="444,276.8281,448,286.8281,452,276.8281,448,280.8281" style="stroke: #A80036; stroke-width: 1.0;"/><line style="stroke: #A80036; stroke-width: 1.5;" x1="448" x2="448" y1="567.5039" y2="587.5039"/><polygon fill="#A80036" points="444,577.5039,448,587.5039,452,577.5039,448,581.5039" style="stroke: #A80036; stroke-width: 1.0;"/><line style="stroke: #A80036; stroke-width: 1.5;" x1="448" x2="448" y1="677.3477" y2="697.3477"/><polygon fill="#A80036" points="444,687.3477,448,697.3477,452,687.3477,448,691.3477" style="stroke: #A80036; stroke-width: 1.0;"/></g></svg>