<?xml version="1.0" encoding="UTF-8" standalone="no"?><svg xmlns="http://www.w3.org/2000/svg" xmlns:xlink="http://www.w3.org/1999/xlink" contentScriptType="application/ecmascript" contentStyleType="text/css" height="1022px" preserveAspectRatio="none" style="width:548px;height:1022px;" version="1.1" viewBox="0 0 548 1022" width="548px" zoomAndPan="magnify"><defs><linearGradient id="gpqxltpteqam00" x1="0%" x2="100%" y1="50%" y2="50%"><stop offset="0%" stop-color="#FFFFFF"/><stop offset="100%" stop-color="#FFFFFF"/></linearGradient><filter height="300%" id="fpqxltpteqam0" width="300%" x="-1" y="-1"><feGaussianBlur result="blurOut" stdDeviation="2.0"/><feColorMatrix in="blurOut" result="blurOut2" type="matrix" values="0 0 0 0 0 0 0 0 0 0 0 0 0 0 0 0 0 0 .4 0"/><feOffset dx="4.0" dy="4.0" in="blurOut2" result="blurOut3"/><feBlend in="SourceGraphic" in2="blurOut3" mode="normal"/></filter></defs><g><rect fill="url(#gpqxltpteqam00)" height="1022" style="stroke: none; stroke-width: 1.0;" width="548" x="0" y="0"/><text fill="#000000" font-family="sans-serif" font-size="18" lengthAdjust="spacingAndGlyphs" textLength="420" x="63.25" y="26.708">Hunspell - AffixMgr::prefix_check_twosfx(word)</text><text fill="#000000" font-family="sans-serif" font-size="18" lengthAdjust="spacingAndGlyphs" textLength="427" x="59.75" y="47.6611">"check word for prefixes and two-level suffixes"</text><text fill="#000000" font-family="sans-serif" font-size="18" lengthAdjust="spacingAndGlyphs" textLength="0" x="276.25" y="68.6143"/><path d="M10,72.8594 L10,113.125 L330,113.125 L330,82.8594 L320,72.8594 L10,72.8594 " fill="#FBFB77" filter="url(#fpqxltpteqam0)" style="stroke: #A80036; stroke-width: 1.0;"/><path d="M320,72.8594 L320,82.8594 L330,82.8594 L320,72.8594 " fill="#FBFB77" style="stroke: #A80036; stroke-width: 1.0;"/><text fill="#000000" font-family="sans-serif" font-size="13" lengthAdjust="spacingAndGlyphs" textLength="299" x="16" y="89.9263">when called from affix_check(word) default is</text><text fill="#000000" font-family="sans-serif" font-size="13" lengthAdjust="spacingAndGlyphs" textLength="291" x="16" y="105.0591">always used for in_compound, needflag, etc.</text><ellipse cx="360" cy="92.9922" fill="#000000" filter="url(#fpqxltpteqam0)" rx="10" ry="10" style="stroke: none; stroke-width: 1.0;"/><rect fill="#C0C0C0" filter="url(#fpqxltpteqam0)" height="47.9375" rx="12.5" ry="12.5" style="stroke: #A80036; stroke-width: 1.5;" width="172" x="274" y="126.5591"/><text fill="#000000" font-family="sans-serif" font-size="12" lengthAdjust="spacingAndGlyphs" textLength="152" x="284" y="147.6978">reset compound pointers</text><text fill="#000000" font-family="sans-serif" font-size="12" lengthAdjust="spacingAndGlyphs" textLength="139" x="284" y="161.6665">pfx, sfxappnd, sfxextra</text><rect fill="#32CD32" filter="url(#fpqxltpteqam0)" height="33.9688" rx="12.5" ry="12.5" style="stroke: #A80036; stroke-width: 1.5;" width="257" x="231.5" y="250.207"/><text fill="#000000" font-family="sans-serif" font-size="12" lengthAdjust="spacingAndGlyphs" textLength="237" x="241.5" y="271.3457">root = PrefixEntry::check_twosfx(word)</text><rect fill="#FEFECE" filter="url(#fpqxltpteqam0)" height="33.9688" rx="12.5" ry="12.5" style="stroke: #A80036; stroke-width: 1.5;" width="86" x="317" y="352.5781"/><text fill="#000000" font-family="sans-serif" font-size="12" lengthAdjust="spacingAndGlyphs" textLength="66" x="327" y="373.7168">return root</text><ellipse cx="360" cy="416.5469" fill="none" filter="url(#fpqxltpteqam0)" rx="10" ry="10" style="stroke: #000000; stroke-width: 1.0;"/><ellipse cx="360.5" cy="417.0469" fill="#000000" filter="url(#fpqxltpteqam0)" rx="6" ry="6" style="stroke: none; stroke-width: 1.0;"/><polygon fill="#FEFECE" filter="url(#fpqxltpteqam0)" points="345.5,304.1758,374.5,304.1758,386.5,316.1758,374.5,328.1758,345.5,328.1758,333.5,316.1758,345.5,304.1758" style="stroke: #A80036; stroke-width: 1.5;"/><text fill="#000000" font-family="sans-serif" font-size="11" lengthAdjust="spacingAndGlyphs" textLength="20" x="364" y="338.3862">yes</text><text fill="#000000" font-family="sans-serif" font-size="11" lengthAdjust="spacingAndGlyphs" textLength="29" x="345.5" y="319.9839">root?</text><text fill="#000000" font-family="sans-serif" font-size="11" lengthAdjust="spacingAndGlyphs" textLength="14" x="386.5" y="313.5815">no</text><polygon fill="#FEFECE" filter="url(#fpqxltpteqam0)" points="279.5,194.4966,440.5,194.4966,452.5,206.4966,440.5,218.4966,279.5,218.4966,267.5,206.4966,279.5,194.4966" style="stroke: #A80036; stroke-width: 1.5;"/><text fill="#000000" font-family="sans-serif" font-size="11" lengthAdjust="spacingAndGlyphs" textLength="20" x="364" y="228.707">yes</text><text fill="#000000" font-family="sans-serif" font-size="11" lengthAdjust="spacingAndGlyphs" textLength="161" x="279.5" y="210.3047">iterate zero-length prefixes?</text><text fill="#000000" font-family="sans-serif" font-size="11" lengthAdjust="spacingAndGlyphs" textLength="14" x="253.5" y="203.9023">no</text><path d="M12.5,686.4136 L12.5,741.812 L177.5,741.812 L177.5,696.4136 L167.5,686.4136 L12.5,686.4136 " fill="#FBFB77" filter="url(#fpqxltpteqam0)" style="stroke: #A80036; stroke-width: 1.0;"/><path d="M167.5,686.4136 L167.5,696.4136 L177.5,696.4136 L167.5,686.4136 " fill="#FBFB77" style="stroke: #A80036; stroke-width: 1.0;"/><text fill="#000000" font-family="sans-serif" font-size="13" lengthAdjust="spacingAndGlyphs" textLength="144" x="18.5" y="703.4805">getKey returns appnd,</text><text fill="#000000" font-family="sans-serif" font-size="13" lengthAdjust="spacingAndGlyphs" textLength="135" x="18.5" y="718.6133">subset is tested with</text><text fill="#000000" font-family="sans-serif" font-size="13" lengthAdjust="spacingAndGlyphs" textLength="118" x="18.5" y="733.7461">AffixMgr::isSubset</text><rect fill="#32CD32" filter="url(#fpqxltpteqam0)" height="33.9688" rx="12.5" ry="12.5" style="stroke: #A80036; stroke-width: 1.5;" width="257" x="231.5" y="594.6597"/><text fill="#000000" font-family="sans-serif" font-size="12" lengthAdjust="spacingAndGlyphs" textLength="237" x="241.5" y="615.7983">root = PrefixEntry::check_twosfx(word)</text><rect fill="#C0C0C0" filter="url(#fpqxltpteqam0)" height="33.9688" rx="12.5" ry="12.5" style="stroke: #A80036; stroke-width: 1.5;" width="177" x="271.5" y="697.0308"/><text fill="#000000" font-family="sans-serif" font-size="12" lengthAdjust="spacingAndGlyphs" textLength="157" x="281.5" y="718.1694">set compound pointer pfx</text><rect fill="#FEFECE" filter="url(#fpqxltpteqam0)" height="33.9688" rx="12.5" ry="12.5" style="stroke: #A80036; stroke-width: 1.5;" width="86" x="317" y="755.2461"/><text fill="#000000" font-family="sans-serif" font-size="12" lengthAdjust="spacingAndGlyphs" textLength="66" x="327" y="776.3848">return root</text><ellipse cx="360" cy="819.2148" fill="none" filter="url(#fpqxltpteqam0)" rx="10" ry="10" style="stroke: #000000; stroke-width: 1.0;"/><ellipse cx="360.5" cy="819.7148" fill="#000000" filter="url(#fpqxltpteqam0)" rx="6" ry="6" style="stroke: none; stroke-width: 1.0;"/><polygon fill="#FEFECE" filter="url(#fpqxltpteqam0)" points="345.5,648.6284,374.5,648.6284,386.5,660.6284,374.5,672.6284,345.5,672.6284,333.5,660.6284,345.5,648.6284" style="stroke: #A80036; stroke-width: 1.5;"/><text fill="#000000" font-family="sans-serif" font-size="11" lengthAdjust="spacingAndGlyphs" textLength="20" x="364" y="682.8389">yes</text><text fill="#000000" font-family="sans-serif" font-size="11" lengthAdjust="spacingAndGlyphs" textLength="29" x="345.5" y="664.4365">root?</text><text fill="#000000" font-family="sans-serif" font-size="11" lengthAdjust="spacingAndGlyphs" textLength="14" x="386.5" y="658.0342">no</text><polygon fill="#FEFECE" filter="url(#fpqxltpteqam0)" points="244,546.2573,476,546.2573,488,558.2573,476,570.2573,244,570.2573,232,558.2573,244,546.2573" style="stroke: #A80036; stroke-width: 1.5;"/><text fill="#000000" font-family="sans-serif" font-size="11" lengthAdjust="spacingAndGlyphs" textLength="20" x="364" y="580.4678">yes</text><text fill="#000000" font-family="sans-serif" font-size="11" lengthAdjust="spacingAndGlyphs" textLength="232" x="244" y="562.0654">is PrefixEntry.getKey() a subset of word?</text><text fill="#000000" font-family="sans-serif" font-size="11" lengthAdjust="spacingAndGlyphs" textLength="14" x="488" y="555.6631">no</text><polygon fill="#FEFECE" filter="url(#fpqxltpteqam0)" points="360,871.2148,372,883.2148,360,895.2148,348,883.2148,360,871.2148" style="stroke: #A80036; stroke-width: 1.5;"/><polygon fill="#FEFECE" filter="url(#fpqxltpteqam0)" points="267,490.5469,453,490.5469,465,502.5469,453,514.5469,267,514.5469,255,502.5469,267,490.5469" style="stroke: #A80036; stroke-width: 1.5;"/><text fill="#000000" font-family="sans-serif" font-size="11" lengthAdjust="spacingAndGlyphs" textLength="20" x="364" y="524.7573">yes</text><text fill="#000000" font-family="sans-serif" font-size="11" lengthAdjust="spacingAndGlyphs" textLength="186" x="267" y="506.355">iterate non-zero-length prefixes?</text><text fill="#000000" font-family="sans-serif" font-size="11" lengthAdjust="spacingAndGlyphs" textLength="14" x="241" y="499.9526">no</text><rect fill="#FEFECE" filter="url(#fpqxltpteqam0)" height="33.9688" rx="12.5" ry="12.5" style="stroke: #A80036; stroke-width: 1.5;" width="94" x="313" y="937.2148"/><text fill="#000000" font-family="sans-serif" font-size="12" lengthAdjust="spacingAndGlyphs" textLength="74" x="323" y="958.3535">return NULL</text><ellipse cx="360" cy="1001.1836" fill="none" filter="url(#fpqxltpteqam0)" rx="10" ry="10" style="stroke: #000000; stroke-width: 1.0;"/><ellipse cx="360.5" cy="1001.6836" fill="#000000" filter="url(#fpqxltpteqam0)" rx="6" ry="6" style="stroke: none; stroke-width: 1.0;"/><line style="stroke: #A80036; stroke-width: 1.5;" x1="360" x2="360" y1="102.9922" y2="126.5591"/><polygon fill="#A80036" points="356,116.5591,360,126.5591,364,116.5591,360,120.5591" style="stroke: #A80036; stroke-width: 1.0;"/><line style="stroke: #A80036; stroke-width: 1.5;" x1="360" x2="360" y1="386.5469" y2="406.5469"/><polygon fill="#A80036" points="356,396.5469,360,406.5469,364,396.5469,360,400.5469" style="stroke: #A80036; stroke-width: 1.0;"/><line style="stroke: #A80036; stroke-width: 1.5;" x1="360" x2="360" y1="328.1758" y2="352.5781"/><polygon fill="#A80036" points="356,342.5781,360,352.5781,364,342.5781,360,346.5781" style="stroke: #A80036; stroke-width: 1.0;"/><line style="stroke: #A80036; stroke-width: 1.5;" x1="386.5" x2="500.5" y1="316.1758" y2="316.1758"/><line style="stroke: #A80036; stroke-width: 1.5;" x1="500.5" x2="500.5" y1="206.4966" y2="316.1758"/><line style="stroke: #A80036; stroke-width: 1.5;" x1="500.5" x2="452.5" y1="206.4966" y2="206.4966"/><polygon fill="#A80036" points="462.5,202.4966,452.5,206.4966,462.5,210.4966,458.5,206.4966" style="stroke: #A80036; stroke-width: 1.0;"/><line style="stroke: #A80036; stroke-width: 1.5;" x1="360" x2="360" y1="284.1758" y2="304.1758"/><polygon fill="#A80036" points="356,294.1758,360,304.1758,364,294.1758,360,298.1758" style="stroke: #A80036; stroke-width: 1.0;"/><line style="stroke: #A80036; stroke-width: 1.5;" x1="360" x2="360" y1="218.4966" y2="250.207"/><polygon fill="#A80036" points="356,240.207,360,250.207,364,240.207,360,244.207" style="stroke: #A80036; stroke-width: 1.0;"/><line style="stroke: #A80036; stroke-width: 1.5;" x1="267.5" x2="219.5" y1="206.4966" y2="206.4966"/><polygon fill="#A80036" points="215.5,331.1758,219.5,341.1758,223.5,331.1758,219.5,335.1758" style="stroke: #A80036; stroke-width: 1.5;"/><line style="stroke: #A80036; stroke-width: 1.5;" x1="219.5" x2="219.5" y1="206.4966" y2="470.5469"/><line style="stroke: #A80036; stroke-width: 1.5;" x1="219.5" x2="360" y1="470.5469" y2="470.5469"/><line style="stroke: #A80036; stroke-width: 1.5;" x1="360" x2="360" y1="470.5469" y2="490.5469"/><polygon fill="#A80036" points="356,480.5469,360,490.5469,364,480.5469,360,484.5469" style="stroke: #A80036; stroke-width: 1.0;"/><line style="stroke: #A80036; stroke-width: 1.5;" x1="360" x2="360" y1="174.4966" y2="194.4966"/><polygon fill="#A80036" points="356,184.4966,360,194.4966,364,184.4966,360,188.4966" style="stroke: #A80036; stroke-width: 1.0;"/><line style="stroke: #A80036; stroke-width: 1.5;" x1="360" x2="360" y1="730.9995" y2="755.2461"/><polygon fill="#A80036" points="356,745.2461,360,755.2461,364,745.2461,360,749.2461" style="stroke: #A80036; stroke-width: 1.0;"/><line style="stroke: #A80036; stroke-width: 1.5;" x1="360" x2="360" y1="789.2148" y2="809.2148"/><polygon fill="#A80036" points="356,799.2148,360,809.2148,364,799.2148,360,803.2148" style="stroke: #A80036; stroke-width: 1.0;"/><line style="stroke: #A80036; stroke-width: 1.5;" x1="360" x2="360" y1="672.6284" y2="697.0308"/><polygon fill="#A80036" points="356,687.0308,360,697.0308,364,687.0308,360,691.0308" style="stroke: #A80036; stroke-width: 1.0;"/><line style="stroke: #A80036; stroke-width: 1.5;" x1="386.5" x2="458.5" y1="660.6284" y2="660.6284"/><polygon fill="#A80036" points="454.5,752.2461,458.5,762.2461,462.5,752.2461,458.5,756.2461" style="stroke: #A80036; stroke-width: 1.5;"/><line style="stroke: #A80036; stroke-width: 1.5;" x1="458.5" x2="458.5" y1="660.6284" y2="851.2148"/><line style="stroke: #A80036; stroke-width: 1.5;" x1="458.5" x2="360" y1="851.2148" y2="851.2148"/><line style="stroke: #A80036; stroke-width: 1.5;" x1="360" x2="360" y1="851.2148" y2="871.2148"/><polygon fill="#A80036" points="356,861.2148,360,871.2148,364,861.2148,360,865.2148" style="stroke: #A80036; stroke-width: 1.0;"/><line style="stroke: #A80036; stroke-width: 1.5;" x1="360" x2="360" y1="628.6284" y2="648.6284"/><polygon fill="#A80036" points="356,638.6284,360,648.6284,364,638.6284,360,642.6284" style="stroke: #A80036; stroke-width: 1.0;"/><line style="stroke: #A80036; stroke-width: 1.5;" x1="360" x2="360" y1="570.2573" y2="594.6597"/><polygon fill="#A80036" points="356,584.6597,360,594.6597,364,584.6597,360,588.6597" style="stroke: #A80036; stroke-width: 1.0;"/><line style="stroke: #A80036; stroke-width: 1.5;" x1="488" x2="500" y1="558.2573" y2="558.2573"/><polygon fill="#A80036" points="496,722.5151,500,732.5151,504,722.5151,500,726.5151" style="stroke: #A80036; stroke-width: 1.5;"/><line style="stroke: #A80036; stroke-width: 1.5;" x1="500" x2="500" y1="558.2573" y2="883.2148"/><line style="stroke: #A80036; stroke-width: 1.5;" x1="500" x2="372" y1="883.2148" y2="883.2148"/><polygon fill="#A80036" points="382,879.2148,372,883.2148,382,887.2148,378,883.2148" style="stroke: #A80036; stroke-width: 1.0;"/><line style="stroke: #A80036; stroke-width: 1.5;" x1="360" x2="360" y1="514.5469" y2="546.2573"/><polygon fill="#A80036" points="356,536.2573,360,546.2573,364,536.2573,360,540.2573" style="stroke: #A80036; stroke-width: 1.0;"/><line style="stroke: #A80036; stroke-width: 1.5;" x1="360" x2="360" y1="895.2148" y2="905.2148"/><line style="stroke: #A80036; stroke-width: 1.5;" x1="360" x2="522.5" y1="905.2148" y2="905.2148"/><polygon fill="#A80036" points="518.5,724.1128,522.5,714.1128,526.5,724.1128,522.5,720.1128" style="stroke: #A80036; stroke-width: 1.5;"/><line style="stroke: #A80036; stroke-width: 1.5;" x1="522.5" x2="522.5" y1="502.5469" y2="905.2148"/><line style="stroke: #A80036; stroke-width: 1.5;" x1="522.5" x2="465" y1="502.5469" y2="502.5469"/><polygon fill="#A80036" points="475,498.5469,465,502.5469,475,506.5469,471,502.5469" style="stroke: #A80036; stroke-width: 1.0;"/><line style="stroke: #A80036; stroke-width: 1.5;" x1="255" x2="209.5" y1="502.5469" y2="502.5469"/><polygon fill="#A80036" points="205.5,710.1128,209.5,720.1128,213.5,710.1128,209.5,714.1128" style="stroke: #A80036; stroke-width: 1.5;"/><line style="stroke: #A80036; stroke-width: 1.5;" x1="209.5" x2="209.5" y1="502.5469" y2="917.2148"/><line style="stroke: #A80036; stroke-width: 1.5;" x1="209.5" x2="360" y1="917.2148" y2="917.2148"/><line style="stroke: #A80036; stroke-width: 1.5;" x1="360" x2="360" y1="917.2148" y2="937.2148"/><polygon fill="#A80036" points="356,927.2148,360,937.2148,364,927.2148,360,931.2148" style="stroke: #A80036; stroke-width: 1.0;"/><line style="stroke: #A80036; stroke-width: 1.5;" x1="360" x2="360" y1="971.1836" y2="991.1836"/><polygon fill="#A80036" points="356,981.1836,360,991.1836,364,981.1836,360,985.1836" style="stroke: #A80036; stroke-width: 1.0;"/><!--
@startuml
skinparam backgroundcolor White|White

title Hunspell - AffixMgr::prefix_check_twosfx(word)\n"check word for prefixes and two-level suffixes"\n

start
floating note: when called from affix_check(word) default is\nalways used for in_compound, needflag, etc.

#silver:reset compound pointers\npfx, sfxappnd, sfxextra;
while (iterate zero-length prefixes?) is (yes)
	#limegreen:root = PrefixEntry::check_twosfx(word);
	if (root?) then (yes)
		:return root;
		stop
	else (no)
	endif
endwhile (no)

while (iterate non-zero-length prefixes?) is (yes)
	floating note: getKey returns appnd,\nsubset is tested with\nAffixMgr::isSubset
	if (is PrefixEntry.getKey() a subset of word?) then (yes)
		#limegreen:root = PrefixEntry::check_twosfx(word);
		if (root?) then (yes)
			#silver:set compound pointer pfx;
			:return root;
			stop
		else (no)
		endif
	else (no)
	endif
endwhile (no)

:return NULL;
stop

@enduml

PlantUML version 1.2018.01(Sun Jan 28 19:08:22 CET 2018)
(GPL source distribution)
Java Runtime: OpenJDK Runtime Environment
JVM: OpenJDK 64-Bit Server VM
Java Version: 1.8.0_151-8u151-b12-0ubuntu0.17.10.2-b12
Operating System: Linux
OS Version: 4.13.0-36-generic
Default Encoding: UTF-8
Language: en
Country: US
--></g></svg>