<?xml version="1.0" encoding="UTF-8" standalone="no"?><svg xmlns="http://www.w3.org/2000/svg" xmlns:xlink="http://www.w3.org/1999/xlink" contentScriptType="application/ecmascript" contentStyleType="text/css" height="1184px" preserveAspectRatio="none" style="width:777px;height:1184px;" version="1.1" viewBox="0 0 777 1184" width="777px" zoomAndPan="magnify"><defs><linearGradient id="gbouqqnq6bp1s0" x1="0%" x2="100%" y1="50%" y2="50%"><stop offset="0%" stop-color="#FFFFFF"/><stop offset="100%" stop-color="#FFFFFF"/></linearGradient><filter height="300%" id="fbouqqnq6bp1s" width="300%" x="-1" y="-1"><feGaussianBlur result="blurOut" stdDeviation="2.0"/><feColorMatrix in="blurOut" result="blurOut2" type="matrix" values="0 0 0 0 0 0 0 0 0 0 0 0 0 0 0 0 0 0 .4 0"/><feOffset dx="4.0" dy="4.0" in="blurOut2" result="blurOut3"/><feBlend in="SourceGraphic" in2="blurOut3" mode="normal"/></filter></defs><g><rect fill="url(#gbouqqnq6bp1s0)" height="1184" style="stroke: none; stroke-width: 1.0;" width="777" x="0" y="0"/><text fill="#000000" font-family="sans-serif" font-size="18" lengthAdjust="spacingAndGlyphs" textLength="353" x="211" y="26.708">Hunspell - AffixMgr::prefix_check(word)</text><text fill="#000000" font-family="sans-serif" font-size="18" lengthAdjust="spacingAndGlyphs" textLength="226" x="274.5" y="47.6611">"check word for prefixes"</text><text fill="#000000" font-family="sans-serif" font-size="18" lengthAdjust="spacingAndGlyphs" textLength="0" x="390.5" y="68.6143"/><path d="M44.5,72.8594 L44.5,128.2578 L351.5,128.2578 L351.5,82.8594 L341.5,72.8594 L44.5,72.8594 " fill="#FBFB77" filter="url(#fbouqqnq6bp1s)" style="stroke: #A80036; stroke-width: 1.0;"/><path d="M341.5,72.8594 L341.5,82.8594 L351.5,82.8594 L341.5,72.8594 " fill="#FBFB77" style="stroke: #A80036; stroke-width: 1.0;"/><text fill="#000000" font-family="sans-serif" font-size="13" lengthAdjust="spacingAndGlyphs" textLength="286" x="50.5" y="89.9263">When called from affix_check(word) default is</text><text fill="#000000" font-family="sans-serif" font-size="13" lengthAdjust="spacingAndGlyphs" textLength="255" x="50.5" y="105.0591">always used for in_compound, needflag.</text><text fill="#000000" font-family="sans-serif" font-size="13" lengthAdjust="spacingAndGlyphs" textLength="148" x="50.5" y="120.1919">Return NULL is implied.</text><ellipse cx="381.5" cy="100.5586" fill="#000000" filter="url(#fbouqqnq6bp1s)" rx="10" ry="10" style="stroke: none; stroke-width: 1.0;"/><rect fill="#C0C0C0" filter="url(#fbouqqnq6bp1s)" height="47.9375" rx="12.5" ry="12.5" style="stroke: #A80036; stroke-width: 1.5;" width="226" x="268.5" y="141.6919"/><text fill="#000000" font-family="sans-serif" font-size="12" lengthAdjust="spacingAndGlyphs" textLength="154" x="278.5" y="162.8306">reset compound helpers</text><text fill="#000000" font-family="sans-serif" font-size="12" lengthAdjust="spacingAndGlyphs" textLength="206" x="278.5" y="176.7993">pfx, pfxappnd, sfxappnd, sfxextra</text><rect fill="#32CD32" filter="url(#fbouqqnq6bp1s)" height="33.9688" rx="12.5" ry="12.5" style="stroke: #A80036; stroke-width: 1.5;" width="245" x="259" y="404.9844"/><text fill="#000000" font-family="sans-serif" font-size="12" lengthAdjust="spacingAndGlyphs" textLength="225" x="269" y="426.123">root = PrefixEntry::checkword(word)</text><rect fill="#C0C0C0" filter="url(#fbouqqnq6bp1s)" height="33.9688" rx="12.5" ry="12.5" style="stroke: #A80036; stroke-width: 1.5;" width="176" x="293.5" y="507.3555"/><text fill="#000000" font-family="sans-serif" font-size="12" lengthAdjust="spacingAndGlyphs" textLength="156" x="303.5" y="528.4941">set compound helper pfx</text><rect fill="#FEFECE" filter="url(#fbouqqnq6bp1s)" height="33.9688" rx="12.5" ry="12.5" style="stroke: #A80036; stroke-width: 1.5;" width="89" x="337" y="561.3242"/><text fill="#000000" font-family="sans-serif" font-size="12" lengthAdjust="spacingAndGlyphs" textLength="69" x="347" y="582.4629">return root</text><ellipse cx="381.5" cy="625.293" fill="none" filter="url(#fbouqqnq6bp1s)" rx="10" ry="10" style="stroke: #000000; stroke-width: 1.0;"/><ellipse cx="382" cy="625.793" fill="#000000" filter="url(#fbouqqnq6bp1s)" rx="6" ry="6" style="stroke: none; stroke-width: 1.0;"/><polygon fill="#FEFECE" filter="url(#fbouqqnq6bp1s)" points="367,458.9531,396,458.9531,408,470.9531,396,482.9531,367,482.9531,355,470.9531,367,458.9531" style="stroke: #A80036; stroke-width: 1.5;"/><text fill="#000000" font-family="sans-serif" font-size="11" lengthAdjust="spacingAndGlyphs" textLength="20" x="385.5" y="493.1636">yes</text><text fill="#000000" font-family="sans-serif" font-size="11" lengthAdjust="spacingAndGlyphs" textLength="29" x="367" y="474.7612">root?</text><text fill="#000000" font-family="sans-serif" font-size="11" lengthAdjust="spacingAndGlyphs" textLength="14" x="408" y="468.3589">no</text><polygon fill="#FEFECE" filter="url(#fbouqqnq6bp1s)" points="48,265.3398,715,265.3398,727,322.9609,715,380.582,48,380.582,36,322.9609,48,265.3398" style="stroke: #A80036; stroke-width: 1.5;"/><text fill="#000000" font-family="sans-serif" font-size="11" lengthAdjust="spacingAndGlyphs" textLength="20" x="385.5" y="390.7925">yes</text><text fill="#000000" font-family="sans-serif" font-size="11" lengthAdjust="spacingAndGlyphs" textLength="0" x="52" y="275.5503"/><text fill="#000000" font-family="sans-serif" font-size="11" lengthAdjust="spacingAndGlyphs" textLength="252" x="64" y="288.355">1.a this method is called from compounding</text><text fill="#000000" font-family="sans-serif" font-size="11" lengthAdjust="spacingAndGlyphs" textLength="16" x="64" y="301.1597">OR</text><text fill="#000000" font-family="sans-serif" font-size="11" lengthAdjust="spacingAndGlyphs" textLength="651" x="64" y="313.9644">1.b the continuation classes of the prefix entry under consideration does not contain generic onlyincompound flag</text><text fill="#000000" font-family="sans-serif" font-size="11" lengthAdjust="spacingAndGlyphs" textLength="23" x="48" y="326.769">AND</text><text fill="#000000" font-family="sans-serif" font-size="11" lengthAdjust="spacingAndGlyphs" textLength="534" x="64" y="339.5737">2.a this method is not called from compounding or from compounding related to the end part</text><text fill="#000000" font-family="sans-serif" font-size="11" lengthAdjust="spacingAndGlyphs" textLength="16" x="64" y="352.3784">OR</text><text fill="#000000" font-family="sans-serif" font-size="11" lengthAdjust="spacingAndGlyphs" textLength="632" x="64" y="365.1831">2.b continuation classes of the prefix entry under consideration does contain generic compoundpermitflag flag</text><text fill="#000000" font-family="sans-serif" font-size="11" lengthAdjust="spacingAndGlyphs" textLength="14" x="727" y="320.3667">no</text><polygon fill="#FEFECE" filter="url(#fbouqqnq6bp1s)" points="381.5,677.293,393.5,689.293,381.5,701.293,369.5,689.293,381.5,677.293" style="stroke: #A80036; stroke-width: 1.5;"/><polygon fill="#FEFECE" filter="url(#fbouqqnq6bp1s)" points="301.5,209.6294,461.5,209.6294,473.5,221.6294,461.5,233.6294,301.5,233.6294,289.5,221.6294,301.5,209.6294" style="stroke: #A80036; stroke-width: 1.5;"/><text fill="#000000" font-family="sans-serif" font-size="11" lengthAdjust="spacingAndGlyphs" textLength="20" x="385.5" y="243.8398">yes</text><text fill="#000000" font-family="sans-serif" font-size="11" lengthAdjust="spacingAndGlyphs" textLength="160" x="301.5" y="225.4375">iterate zero-length prefixes?</text><text fill="#000000" font-family="sans-serif" font-size="11" lengthAdjust="spacingAndGlyphs" textLength="14" x="275.5" y="219.0352">no</text><rect fill="#32CD32" filter="url(#fbouqqnq6bp1s)" height="33.9688" rx="12.5" ry="12.5" style="stroke: #A80036; stroke-width: 1.5;" width="245" x="259" y="852.5"/><text fill="#000000" font-family="sans-serif" font-size="12" lengthAdjust="spacingAndGlyphs" textLength="225" x="269" y="873.6387">root = PrefixEntry::checkword(word)</text><rect fill="#C0C0C0" filter="url(#fbouqqnq6bp1s)" height="33.9688" rx="12.5" ry="12.5" style="stroke: #A80036; stroke-width: 1.5;" width="176" x="293.5" y="954.8711"/><text fill="#000000" font-family="sans-serif" font-size="12" lengthAdjust="spacingAndGlyphs" textLength="156" x="303.5" y="976.0098">set compound helper pfx</text><rect fill="#FEFECE" filter="url(#fbouqqnq6bp1s)" height="33.9688" rx="12.5" ry="12.5" style="stroke: #A80036; stroke-width: 1.5;" width="89" x="337" y="1010.3555"/><text fill="#000000" font-family="sans-serif" font-size="12" lengthAdjust="spacingAndGlyphs" textLength="69" x="347" y="1031.4941">return root</text><ellipse cx="381.5" cy="1074.3242" fill="none" filter="url(#fbouqqnq6bp1s)" rx="10" ry="10" style="stroke: #000000; stroke-width: 1.0;"/><ellipse cx="382" cy="1074.8242" fill="#000000" filter="url(#fbouqqnq6bp1s)" rx="6" ry="6" style="stroke: none; stroke-width: 1.0;"/><polygon fill="#FEFECE" filter="url(#fbouqqnq6bp1s)" points="367,906.4688,396,906.4688,408,918.4688,396,930.4688,367,930.4688,355,918.4688,367,906.4688" style="stroke: #A80036; stroke-width: 1.5;"/><text fill="#000000" font-family="sans-serif" font-size="11" lengthAdjust="spacingAndGlyphs" textLength="20" x="385.5" y="940.6792">yes</text><text fill="#000000" font-family="sans-serif" font-size="11" lengthAdjust="spacingAndGlyphs" textLength="29" x="367" y="922.2769">root?</text><text fill="#000000" font-family="sans-serif" font-size="11" lengthAdjust="spacingAndGlyphs" textLength="14" x="408" y="915.8745">no</text><polygon fill="#FEFECE" filter="url(#fbouqqnq6bp1s)" points="298,804.0977,465,804.0977,477,816.0977,465,828.0977,298,828.0977,286,816.0977,298,804.0977" style="stroke: #A80036; stroke-width: 1.5;"/><text fill="#000000" font-family="sans-serif" font-size="11" lengthAdjust="spacingAndGlyphs" textLength="20" x="385.5" y="838.3081">yes</text><text fill="#000000" font-family="sans-serif" font-size="11" lengthAdjust="spacingAndGlyphs" textLength="167" x="298" y="819.9058">SAME CONDITIONS AS ABOVE</text><text fill="#000000" font-family="sans-serif" font-size="11" lengthAdjust="spacingAndGlyphs" textLength="14" x="477" y="813.5034">no</text><polygon fill="#FEFECE" filter="url(#fbouqqnq6bp1s)" points="381.5,1126.3242,393.5,1138.3242,381.5,1150.3242,369.5,1138.3242,381.5,1126.3242" style="stroke: #A80036; stroke-width: 1.5;"/><polygon fill="#FEFECE" filter="url(#fbouqqnq6bp1s)" points="289,743.293,474,743.293,486,755.293,474,767.293,289,767.293,277,755.293,289,743.293" style="stroke: #A80036; stroke-width: 1.5;"/><text fill="#000000" font-family="sans-serif" font-size="11" lengthAdjust="spacingAndGlyphs" textLength="20" x="385.5" y="777.5034">yes</text><text fill="#000000" font-family="sans-serif" font-size="11" lengthAdjust="spacingAndGlyphs" textLength="185" x="289" y="759.1011">iterate non-zero-length prefixes?</text><text fill="#000000" font-family="sans-serif" font-size="11" lengthAdjust="spacingAndGlyphs" textLength="14" x="263" y="752.6987">no</text><ellipse cx="239" cy="801.293" fill="none" filter="url(#fbouqqnq6bp1s)" rx="10" ry="10" style="stroke: #000000; stroke-width: 1.0;"/><ellipse cx="239.5" cy="801.793" fill="#000000" filter="url(#fbouqqnq6bp1s)" rx="6" ry="6" style="stroke: none; stroke-width: 1.0;"/><line style="stroke: #A80036; stroke-width: 1.5;" x1="381.5" x2="381.5" y1="110.5586" y2="141.6919"/><polygon fill="#A80036" points="377.5,131.6919,381.5,141.6919,385.5,131.6919,381.5,135.6919" style="stroke: #A80036; stroke-width: 1.0;"/><line style="stroke: #A80036; stroke-width: 1.5;" x1="381.5" x2="381.5" y1="541.3242" y2="561.3242"/><polygon fill="#A80036" points="377.5,551.3242,381.5,561.3242,385.5,551.3242,381.5,555.3242" style="stroke: #A80036; stroke-width: 1.0;"/><line style="stroke: #A80036; stroke-width: 1.5;" x1="381.5" x2="381.5" y1="595.293" y2="615.293"/><polygon fill="#A80036" points="377.5,605.293,381.5,615.293,385.5,605.293,381.5,609.293" style="stroke: #A80036; stroke-width: 1.0;"/><line style="stroke: #A80036; stroke-width: 1.5;" x1="381.5" x2="381.5" y1="482.9531" y2="507.3555"/><polygon fill="#A80036" points="377.5,497.3555,381.5,507.3555,385.5,497.3555,381.5,501.3555" style="stroke: #A80036; stroke-width: 1.0;"/><line style="stroke: #A80036; stroke-width: 1.5;" x1="408" x2="479.5" y1="470.9531" y2="470.9531"/><polygon fill="#A80036" points="475.5,558.3242,479.5,568.3242,483.5,558.3242,479.5,562.3242" style="stroke: #A80036; stroke-width: 1.5;"/><line style="stroke: #A80036; stroke-width: 1.5;" x1="479.5" x2="479.5" y1="470.9531" y2="657.293"/><line style="stroke: #A80036; stroke-width: 1.5;" x1="479.5" x2="381.5" y1="657.293" y2="657.293"/><line style="stroke: #A80036; stroke-width: 1.5;" x1="381.5" x2="381.5" y1="657.293" y2="677.293"/><polygon fill="#A80036" points="377.5,667.293,381.5,677.293,385.5,667.293,381.5,671.293" style="stroke: #A80036; stroke-width: 1.0;"/><line style="stroke: #A80036; stroke-width: 1.5;" x1="381.5" x2="381.5" y1="438.9531" y2="458.9531"/><polygon fill="#A80036" points="377.5,448.9531,381.5,458.9531,385.5,448.9531,381.5,452.9531" style="stroke: #A80036; stroke-width: 1.0;"/><line style="stroke: #A80036; stroke-width: 1.5;" x1="381.5" x2="381.5" y1="380.582" y2="404.9844"/><polygon fill="#A80036" points="377.5,394.9844,381.5,404.9844,385.5,394.9844,381.5,398.9844" style="stroke: #A80036; stroke-width: 1.0;"/><line style="stroke: #A80036; stroke-width: 1.5;" x1="727" x2="739" y1="322.9609" y2="322.9609"/><polygon fill="#A80036" points="735,510.0293,739,520.0293,743,510.0293,739,514.0293" style="stroke: #A80036; stroke-width: 1.5;"/><line style="stroke: #A80036; stroke-width: 1.5;" x1="739" x2="739" y1="322.9609" y2="689.293"/><line style="stroke: #A80036; stroke-width: 1.5;" x1="739" x2="393.5" y1="689.293" y2="689.293"/><polygon fill="#A80036" points="403.5,685.293,393.5,689.293,403.5,693.293,399.5,689.293" style="stroke: #A80036; stroke-width: 1.0;"/><line style="stroke: #A80036; stroke-width: 1.5;" x1="381.5" x2="381.5" y1="233.6294" y2="265.3398"/><polygon fill="#A80036" points="377.5,255.3398,381.5,265.3398,385.5,255.3398,381.5,259.3398" style="stroke: #A80036; stroke-width: 1.0;"/><line style="stroke: #A80036; stroke-width: 1.5;" x1="381.5" x2="381.5" y1="701.293" y2="711.293"/><line style="stroke: #A80036; stroke-width: 1.5;" x1="381.5" x2="751" y1="711.293" y2="711.293"/><polygon fill="#A80036" points="747,488.8164,751,478.8164,755,488.8164,751,484.8164" style="stroke: #A80036; stroke-width: 1.5;"/><line style="stroke: #A80036; stroke-width: 1.5;" x1="751" x2="751" y1="221.6294" y2="711.293"/><line style="stroke: #A80036; stroke-width: 1.5;" x1="751" x2="473.5" y1="221.6294" y2="221.6294"/><polygon fill="#A80036" points="483.5,217.6294,473.5,221.6294,483.5,225.6294,479.5,221.6294" style="stroke: #A80036; stroke-width: 1.0;"/><line style="stroke: #A80036; stroke-width: 1.5;" x1="289.5" x2="24" y1="221.6294" y2="221.6294"/><polygon fill="#A80036" points="20,474.8164,24,484.8164,28,474.8164,24,478.8164" style="stroke: #A80036; stroke-width: 1.5;"/><line style="stroke: #A80036; stroke-width: 1.5;" x1="24" x2="24" y1="221.6294" y2="723.293"/><line style="stroke: #A80036; stroke-width: 1.5;" x1="24" x2="381.5" y1="723.293" y2="723.293"/><line style="stroke: #A80036; stroke-width: 1.5;" x1="381.5" x2="381.5" y1="723.293" y2="743.293"/><polygon fill="#A80036" points="377.5,733.293,381.5,743.293,385.5,733.293,381.5,737.293" style="stroke: #A80036; stroke-width: 1.0;"/><line style="stroke: #A80036; stroke-width: 1.5;" x1="381.5" x2="381.5" y1="189.6294" y2="209.6294"/><polygon fill="#A80036" points="377.5,199.6294,381.5,209.6294,385.5,199.6294,381.5,203.6294" style="stroke: #A80036; stroke-width: 1.0;"/><line style="stroke: #A80036; stroke-width: 1.5;" x1="381.5" x2="381.5" y1="988.8398" y2="1010.3555"/><polygon fill="#A80036" points="377.5,1000.3555,381.5,1010.3555,385.5,1000.3555,381.5,1004.3555" style="stroke: #A80036; stroke-width: 1.0;"/><line style="stroke: #A80036; stroke-width: 1.5;" x1="381.5" x2="381.5" y1="1044.3242" y2="1064.3242"/><polygon fill="#A80036" points="377.5,1054.3242,381.5,1064.3242,385.5,1054.3242,381.5,1058.3242" style="stroke: #A80036; stroke-width: 1.0;"/><line style="stroke: #A80036; stroke-width: 1.5;" x1="381.5" x2="381.5" y1="930.4688" y2="954.8711"/><polygon fill="#A80036" points="377.5,944.8711,381.5,954.8711,385.5,944.8711,381.5,948.8711" style="stroke: #A80036; stroke-width: 1.0;"/><line style="stroke: #A80036; stroke-width: 1.5;" x1="408" x2="479.5" y1="918.4688" y2="918.4688"/><polygon fill="#A80036" points="475.5,1007.3555,479.5,1017.3555,483.5,1007.3555,479.5,1011.3555" style="stroke: #A80036; stroke-width: 1.5;"/><line style="stroke: #A80036; stroke-width: 1.5;" x1="479.5" x2="479.5" y1="918.4688" y2="1106.3242"/><line style="stroke: #A80036; stroke-width: 1.5;" x1="479.5" x2="381.5" y1="1106.3242" y2="1106.3242"/><line style="stroke: #A80036; stroke-width: 1.5;" x1="381.5" x2="381.5" y1="1106.3242" y2="1126.3242"/><polygon fill="#A80036" points="377.5,1116.3242,381.5,1126.3242,385.5,1116.3242,381.5,1120.3242" style="stroke: #A80036; stroke-width: 1.0;"/><line style="stroke: #A80036; stroke-width: 1.5;" x1="381.5" x2="381.5" y1="886.4688" y2="906.4688"/><polygon fill="#A80036" points="377.5,896.4688,381.5,906.4688,385.5,896.4688,381.5,900.4688" style="stroke: #A80036; stroke-width: 1.0;"/><line style="stroke: #A80036; stroke-width: 1.5;" x1="381.5" x2="381.5" y1="828.0977" y2="852.5"/><polygon fill="#A80036" points="377.5,842.5,381.5,852.5,385.5,842.5,381.5,846.5" style="stroke: #A80036; stroke-width: 1.0;"/><line style="stroke: #A80036; stroke-width: 1.5;" x1="477" x2="514" y1="816.0977" y2="816.0977"/><polygon fill="#A80036" points="510,980.3555,514,990.3555,518,980.3555,514,984.3555" style="stroke: #A80036; stroke-width: 1.5;"/><line style="stroke: #A80036; stroke-width: 1.5;" x1="514" x2="514" y1="816.0977" y2="1138.3242"/><line style="stroke: #A80036; stroke-width: 1.5;" x1="514" x2="393.5" y1="1138.3242" y2="1138.3242"/><polygon fill="#A80036" points="403.5,1134.3242,393.5,1138.3242,403.5,1142.3242,399.5,1138.3242" style="stroke: #A80036; stroke-width: 1.0;"/><line style="stroke: #A80036; stroke-width: 1.5;" x1="381.5" x2="381.5" y1="767.293" y2="804.0977"/><polygon fill="#A80036" points="377.5,794.0977,381.5,804.0977,385.5,794.0977,381.5,798.0977" style="stroke: #A80036; stroke-width: 1.0;"/><line style="stroke: #A80036; stroke-width: 1.5;" x1="381.5" x2="381.5" y1="1150.3242" y2="1160.3242"/><line style="stroke: #A80036; stroke-width: 1.5;" x1="381.5" x2="538" y1="1160.3242" y2="1160.3242"/><polygon fill="#A80036" points="534,981.9531,538,971.9531,542,981.9531,538,977.9531" style="stroke: #A80036; stroke-width: 1.5;"/><line style="stroke: #A80036; stroke-width: 1.5;" x1="538" x2="538" y1="755.293" y2="1160.3242"/><line style="stroke: #A80036; stroke-width: 1.5;" x1="538" x2="486" y1="755.293" y2="755.293"/><polygon fill="#A80036" points="496,751.293,486,755.293,496,759.293,492,755.293" style="stroke: #A80036; stroke-width: 1.0;"/><line style="stroke: #A80036; stroke-width: 1.5;" x1="277" x2="239" y1="755.293" y2="755.293"/><line style="stroke: #A80036; stroke-width: 1.5;" x1="239" x2="239" y1="755.293" y2="791.293"/><polygon fill="#A80036" points="235,781.293,239,791.293,243,781.293,239,785.293" style="stroke: #A80036; stroke-width: 1.0;"/><!--
@startuml
skinparam backgroundcolor White|White

title Hunspell - AffixMgr::prefix_check(word)\n"check word for prefixes"\n

start
floating note: When called from affix_check(word) default is\nalways used for in_compound, needflag.\nReturn NULL is implied.

#silver:reset compound helpers\npfx, pfxappnd, sfxappnd, sfxextra;
while (iterate zero-length prefixes?) is (yes)
	if (
    1.a this method is called from compounding
    OR
    1.b the continuation classes of the prefix entry under consideration does not contain generic onlyincompound flag
AND
    2.a this method is not called from compounding or from compounding related to the end part
    OR
    2.b continuation classes of the prefix entry under consideration does contain generic compoundpermitflag flag
	) then (yes)
		#limegreen:root = PrefixEntry::checkword(word);
		if (root?) then (yes)
			#silver:set compound helper pfx;
			:return root;
			stop
		else (no)
		endif
	else (no)
	endif
endwhile (no)

while (iterate non-zero-length prefixes?) is (yes)
	if (SAME CONDITIONS AS ABOVE) then (yes)
		#limegreen:root = PrefixEntry::checkword(word);
		if (root?) then (yes)
			#silver:set compound helper pfx;
			:return root;
			stop
		else (no)
		endif
	else (no)
	endif
endwhile (no)

stop

@enduml

PlantUML version 1.2018.06(Mon May 21 12:34:53 CEST 2018)
(GPL source distribution)
Java Runtime: OpenJDK Runtime Environment
JVM: OpenJDK 64-Bit Server VM
Java Version: 10.0.2+13-Ubuntu-1ubuntu0.18.04.1
Operating System: Linux
OS Version: 4.15.0-32-generic
Default Encoding: UTF-8
Language: en
Country: US
--></g></svg>