<?xml version="1.0" encoding="UTF-8" standalone="no"?><svg xmlns="http://www.w3.org/2000/svg" xmlns:xlink="http://www.w3.org/1999/xlink" contentScriptType="application/ecmascript" contentStyleType="text/css" height="1003px" preserveAspectRatio="none" style="width:567px;height:1003px;" version="1.1" viewBox="0 0 567 1003" width="567px" zoomAndPan="magnify"><defs><linearGradient id="g3qpul37pzr1e0" x1="0%" x2="100%" y1="50%" y2="50%"><stop offset="0%" stop-color="#FFFFFF"/><stop offset="100%" stop-color="#FFFFFF"/></linearGradient><filter height="300%" id="f3qpul37pzr1e" width="300%" x="-1" y="-1"><feGaussianBlur result="blurOut" stdDeviation="2.0"/><feColorMatrix in="blurOut" result="blurOut2" type="matrix" values="0 0 0 0 0 0 0 0 0 0 0 0 0 0 0 0 0 0 .4 0"/><feOffset dx="4.0" dy="4.0" in="blurOut2" result="blurOut3"/><feBlend in="SourceGraphic" in2="blurOut3" mode="normal"/></filter></defs><g><rect fill="url(#g3qpul37pzr1e0)" height="1003" style="stroke: none; stroke-width: 1.0;" width="567" x="0" y="0"/><text fill="#000000" font-family="sans-serif" font-size="18" lengthAdjust="spacingAndGlyphs" textLength="421" x="72" y="26.708">Hunspell - AffixMgr::prefix_check_twosfx(word)</text><text fill="#000000" font-family="sans-serif" font-size="18" lengthAdjust="spacingAndGlyphs" textLength="426" x="69.5" y="47.6611">"check word for prefixes and two-level suffixes"</text><text fill="#000000" font-family="sans-serif" font-size="18" lengthAdjust="spacingAndGlyphs" textLength="0" x="285.5" y="68.6143"/><path d="M40,72.8594 L40,128.2578 L347,128.2578 L347,82.8594 L337,72.8594 L40,72.8594 " fill="#FBFB77" filter="url(#f3qpul37pzr1e)" style="stroke: #A80036; stroke-width: 1.0;"/><path d="M337,72.8594 L337,82.8594 L347,82.8594 L337,72.8594 " fill="#FBFB77" style="stroke: #A80036; stroke-width: 1.0;"/><text fill="#000000" font-family="sans-serif" font-size="13" lengthAdjust="spacingAndGlyphs" textLength="286" x="46" y="89.9263">When called from affix_check(word) default is</text><text fill="#000000" font-family="sans-serif" font-size="13" lengthAdjust="spacingAndGlyphs" textLength="255" x="46" y="105.0591">always used for in_compound, needflag.</text><text fill="#000000" font-family="sans-serif" font-size="13" lengthAdjust="spacingAndGlyphs" textLength="148" x="46" y="120.1919">Return NULL is implied.</text><ellipse cx="377" cy="100.5586" fill="#000000" filter="url(#f3qpul37pzr1e)" rx="10" ry="10" style="stroke: none; stroke-width: 1.0;"/><rect fill="#C0C0C0" filter="url(#f3qpul37pzr1e)" height="47.9375" rx="12.5" ry="12.5" style="stroke: #A80036; stroke-width: 1.5;" width="174" x="290" y="141.6919"/><text fill="#000000" font-family="sans-serif" font-size="12" lengthAdjust="spacingAndGlyphs" textLength="154" x="300" y="162.8306">reset compound helpers</text><text fill="#000000" font-family="sans-serif" font-size="12" lengthAdjust="spacingAndGlyphs" textLength="140" x="300" y="176.7993">pfx, sfxappnd, sfxextra</text><rect fill="#32CD32" filter="url(#f3qpul37pzr1e)" height="33.9688" rx="12.5" ry="12.5" style="stroke: #A80036; stroke-width: 1.5;" width="260" x="247" y="265.3398"/><text fill="#000000" font-family="sans-serif" font-size="12" lengthAdjust="spacingAndGlyphs" textLength="240" x="257" y="286.4785">root = PrefixEntry::check_twosfx(word)</text><rect fill="#C0C0C0" filter="url(#f3qpul37pzr1e)" height="33.9688" rx="12.5" ry="12.5" style="stroke: #A80036; stroke-width: 1.5;" width="232" x="261" y="367.7109"/><text fill="#000000" font-family="sans-serif" font-size="12" lengthAdjust="spacingAndGlyphs" textLength="212" x="271" y="388.8496">do not set any compound helpers</text><rect fill="#FEFECE" filter="url(#f3qpul37pzr1e)" height="33.9688" rx="12.5" ry="12.5" style="stroke: #A80036; stroke-width: 1.5;" width="89" x="332.5" y="421.6797"/><text fill="#000000" font-family="sans-serif" font-size="12" lengthAdjust="spacingAndGlyphs" textLength="69" x="342.5" y="442.8184">return root</text><ellipse cx="377" cy="485.6484" fill="none" filter="url(#f3qpul37pzr1e)" rx="10" ry="10" style="stroke: #000000; stroke-width: 1.0;"/><ellipse cx="377.5" cy="486.1484" fill="#000000" filter="url(#f3qpul37pzr1e)" rx="6" ry="6" style="stroke: none; stroke-width: 1.0;"/><polygon fill="#FEFECE" filter="url(#f3qpul37pzr1e)" points="362.5,319.3086,391.5,319.3086,403.5,331.3086,391.5,343.3086,362.5,343.3086,350.5,331.3086,362.5,319.3086" style="stroke: #A80036; stroke-width: 1.5;"/><text fill="#000000" font-family="sans-serif" font-size="11" lengthAdjust="spacingAndGlyphs" textLength="20" x="381" y="353.519">yes</text><text fill="#000000" font-family="sans-serif" font-size="11" lengthAdjust="spacingAndGlyphs" textLength="29" x="362.5" y="335.1167">root?</text><text fill="#000000" font-family="sans-serif" font-size="11" lengthAdjust="spacingAndGlyphs" textLength="14" x="403.5" y="328.7144">no</text><polygon fill="#FEFECE" filter="url(#f3qpul37pzr1e)" points="297,209.6294,457,209.6294,469,221.6294,457,233.6294,297,233.6294,285,221.6294,297,209.6294" style="stroke: #A80036; stroke-width: 1.5;"/><text fill="#000000" font-family="sans-serif" font-size="11" lengthAdjust="spacingAndGlyphs" textLength="20" x="381" y="243.8398">yes</text><text fill="#000000" font-family="sans-serif" font-size="11" lengthAdjust="spacingAndGlyphs" textLength="160" x="297" y="225.4375">iterate zero-length prefixes?</text><text fill="#000000" font-family="sans-serif" font-size="11" lengthAdjust="spacingAndGlyphs" textLength="14" x="271" y="219.0352">no</text><path d="M10,760.6094 L10,816.0078 L173,816.0078 L173,770.6094 L163,760.6094 L10,760.6094 " fill="#FBFB77" filter="url(#f3qpul37pzr1e)" style="stroke: #A80036; stroke-width: 1.0;"/><path d="M163,760.6094 L163,770.6094 L173,770.6094 L163,760.6094 " fill="#FBFB77" style="stroke: #A80036; stroke-width: 1.0;"/><text fill="#000000" font-family="sans-serif" font-size="13" lengthAdjust="spacingAndGlyphs" textLength="142" x="16" y="777.6763">getKey returns appnd,</text><text fill="#000000" font-family="sans-serif" font-size="13" lengthAdjust="spacingAndGlyphs" textLength="131" x="16" y="792.8091">subset is tested with</text><text fill="#000000" font-family="sans-serif" font-size="13" lengthAdjust="spacingAndGlyphs" textLength="114" x="16" y="807.9419">AffixMgr::isSubset</text><rect fill="#32CD32" filter="url(#f3qpul37pzr1e)" height="33.9688" rx="12.5" ry="12.5" style="stroke: #A80036; stroke-width: 1.5;" width="260" x="247" y="668.8555"/><text fill="#000000" font-family="sans-serif" font-size="12" lengthAdjust="spacingAndGlyphs" textLength="240" x="257" y="689.9941">root = PrefixEntry::check_twosfx(word)</text><rect fill="#C0C0C0" filter="url(#f3qpul37pzr1e)" height="33.9688" rx="12.5" ry="12.5" style="stroke: #A80036; stroke-width: 1.5;" width="176" x="289" y="771.2266"/><text fill="#000000" font-family="sans-serif" font-size="12" lengthAdjust="spacingAndGlyphs" textLength="156" x="299" y="792.3652">set compound helper pfx</text><rect fill="#FEFECE" filter="url(#f3qpul37pzr1e)" height="33.9688" rx="12.5" ry="12.5" style="stroke: #A80036; stroke-width: 1.5;" width="89" x="332.5" y="829.4419"/><text fill="#000000" font-family="sans-serif" font-size="12" lengthAdjust="spacingAndGlyphs" textLength="69" x="342.5" y="850.5806">return root</text><ellipse cx="377" cy="893.4106" fill="none" filter="url(#f3qpul37pzr1e)" rx="10" ry="10" style="stroke: #000000; stroke-width: 1.0;"/><ellipse cx="377.5" cy="893.9106" fill="#000000" filter="url(#f3qpul37pzr1e)" rx="6" ry="6" style="stroke: none; stroke-width: 1.0;"/><polygon fill="#FEFECE" filter="url(#f3qpul37pzr1e)" points="362.5,722.8242,391.5,722.8242,403.5,734.8242,391.5,746.8242,362.5,746.8242,350.5,734.8242,362.5,722.8242" style="stroke: #A80036; stroke-width: 1.5;"/><text fill="#000000" font-family="sans-serif" font-size="11" lengthAdjust="spacingAndGlyphs" textLength="20" x="381" y="757.0347">yes</text><text fill="#000000" font-family="sans-serif" font-size="11" lengthAdjust="spacingAndGlyphs" textLength="29" x="362.5" y="738.6323">root?</text><text fill="#000000" font-family="sans-serif" font-size="11" lengthAdjust="spacingAndGlyphs" textLength="14" x="403.5" y="732.23">no</text><polygon fill="#FEFECE" filter="url(#f3qpul37pzr1e)" points="261,620.4531,493,620.4531,505,632.4531,493,644.4531,261,644.4531,249,632.4531,261,620.4531" style="stroke: #A80036; stroke-width: 1.5;"/><text fill="#000000" font-family="sans-serif" font-size="11" lengthAdjust="spacingAndGlyphs" textLength="20" x="381" y="654.6636">yes</text><text fill="#000000" font-family="sans-serif" font-size="11" lengthAdjust="spacingAndGlyphs" textLength="232" x="261" y="636.2612">is PrefixEntry.getKey() a subset of word?</text><text fill="#000000" font-family="sans-serif" font-size="11" lengthAdjust="spacingAndGlyphs" textLength="14" x="505" y="629.8589">no</text><polygon fill="#FEFECE" filter="url(#f3qpul37pzr1e)" points="377,945.4106,389,957.4106,377,969.4106,365,957.4106,377,945.4106" style="stroke: #A80036; stroke-width: 1.5;"/><polygon fill="#FEFECE" filter="url(#f3qpul37pzr1e)" points="284.5,559.6484,469.5,559.6484,481.5,571.6484,469.5,583.6484,284.5,583.6484,272.5,571.6484,284.5,559.6484" style="stroke: #A80036; stroke-width: 1.5;"/><text fill="#000000" font-family="sans-serif" font-size="11" lengthAdjust="spacingAndGlyphs" textLength="20" x="381" y="593.8589">yes</text><text fill="#000000" font-family="sans-serif" font-size="11" lengthAdjust="spacingAndGlyphs" textLength="185" x="284.5" y="575.4565">iterate non-zero-length prefixes?</text><text fill="#000000" font-family="sans-serif" font-size="11" lengthAdjust="spacingAndGlyphs" textLength="14" x="258.5" y="569.0542">no</text><ellipse cx="227" cy="617.6484" fill="none" filter="url(#f3qpul37pzr1e)" rx="10" ry="10" style="stroke: #000000; stroke-width: 1.0;"/><ellipse cx="227.5" cy="618.1484" fill="#000000" filter="url(#f3qpul37pzr1e)" rx="6" ry="6" style="stroke: none; stroke-width: 1.0;"/><line style="stroke: #A80036; stroke-width: 1.5;" x1="377" x2="377" y1="110.5586" y2="141.6919"/><polygon fill="#A80036" points="373,131.6919,377,141.6919,381,131.6919,377,135.6919" style="stroke: #A80036; stroke-width: 1.0;"/><line style="stroke: #A80036; stroke-width: 1.5;" x1="377" x2="377" y1="401.6797" y2="421.6797"/><polygon fill="#A80036" points="373,411.6797,377,421.6797,381,411.6797,377,415.6797" style="stroke: #A80036; stroke-width: 1.0;"/><line style="stroke: #A80036; stroke-width: 1.5;" x1="377" x2="377" y1="455.6484" y2="475.6484"/><polygon fill="#A80036" points="373,465.6484,377,475.6484,381,465.6484,377,469.6484" style="stroke: #A80036; stroke-width: 1.0;"/><line style="stroke: #A80036; stroke-width: 1.5;" x1="377" x2="377" y1="343.3086" y2="367.7109"/><polygon fill="#A80036" points="373,357.7109,377,367.7109,381,357.7109,377,361.7109" style="stroke: #A80036; stroke-width: 1.0;"/><line style="stroke: #A80036; stroke-width: 1.5;" x1="403.5" x2="527" y1="331.3086" y2="331.3086"/><line style="stroke: #A80036; stroke-width: 1.5;" x1="527" x2="527" y1="221.6294" y2="331.3086"/><line style="stroke: #A80036; stroke-width: 1.5;" x1="527" x2="469" y1="221.6294" y2="221.6294"/><polygon fill="#A80036" points="479,217.6294,469,221.6294,479,225.6294,475,221.6294" style="stroke: #A80036; stroke-width: 1.0;"/><line style="stroke: #A80036; stroke-width: 1.5;" x1="377" x2="377" y1="299.3086" y2="319.3086"/><polygon fill="#A80036" points="373,309.3086,377,319.3086,381,309.3086,377,313.3086" style="stroke: #A80036; stroke-width: 1.0;"/><line style="stroke: #A80036; stroke-width: 1.5;" x1="377" x2="377" y1="233.6294" y2="265.3398"/><polygon fill="#A80036" points="373,255.3398,377,265.3398,381,255.3398,377,259.3398" style="stroke: #A80036; stroke-width: 1.0;"/><line style="stroke: #A80036; stroke-width: 1.5;" x1="285" x2="235" y1="221.6294" y2="221.6294"/><polygon fill="#A80036" points="231,380.793,235,390.793,239,380.793,235,384.793" style="stroke: #A80036; stroke-width: 1.5;"/><line style="stroke: #A80036; stroke-width: 1.5;" x1="235" x2="235" y1="221.6294" y2="539.6484"/><line style="stroke: #A80036; stroke-width: 1.5;" x1="235" x2="377" y1="539.6484" y2="539.6484"/><line style="stroke: #A80036; stroke-width: 1.5;" x1="377" x2="377" y1="539.6484" y2="559.6484"/><polygon fill="#A80036" points="373,549.6484,377,559.6484,381,549.6484,377,553.6484" style="stroke: #A80036; stroke-width: 1.0;"/><line style="stroke: #A80036; stroke-width: 1.5;" x1="377" x2="377" y1="189.6294" y2="209.6294"/><polygon fill="#A80036" points="373,199.6294,377,209.6294,381,199.6294,377,203.6294" style="stroke: #A80036; stroke-width: 1.0;"/><line style="stroke: #A80036; stroke-width: 1.5;" x1="377" x2="377" y1="805.1953" y2="829.4419"/><polygon fill="#A80036" points="373,819.4419,377,829.4419,381,819.4419,377,823.4419" style="stroke: #A80036; stroke-width: 1.0;"/><line style="stroke: #A80036; stroke-width: 1.5;" x1="377" x2="377" y1="863.4106" y2="883.4106"/><polygon fill="#A80036" points="373,873.4106,377,883.4106,381,873.4106,377,877.4106" style="stroke: #A80036; stroke-width: 1.0;"/><line style="stroke: #A80036; stroke-width: 1.5;" x1="377" x2="377" y1="746.8242" y2="771.2266"/><polygon fill="#A80036" points="373,761.2266,377,771.2266,381,761.2266,377,765.2266" style="stroke: #A80036; stroke-width: 1.0;"/><line style="stroke: #A80036; stroke-width: 1.5;" x1="403.5" x2="475" y1="734.8242" y2="734.8242"/><polygon fill="#A80036" points="471,826.4419,475,836.4419,479,826.4419,475,830.4419" style="stroke: #A80036; stroke-width: 1.5;"/><line style="stroke: #A80036; stroke-width: 1.5;" x1="475" x2="475" y1="734.8242" y2="925.4106"/><line style="stroke: #A80036; stroke-width: 1.5;" x1="475" x2="377" y1="925.4106" y2="925.4106"/><line style="stroke: #A80036; stroke-width: 1.5;" x1="377" x2="377" y1="925.4106" y2="945.4106"/><polygon fill="#A80036" points="373,935.4106,377,945.4106,381,935.4106,377,939.4106" style="stroke: #A80036; stroke-width: 1.0;"/><line style="stroke: #A80036; stroke-width: 1.5;" x1="377" x2="377" y1="702.8242" y2="722.8242"/><polygon fill="#A80036" points="373,712.8242,377,722.8242,381,712.8242,377,716.8242" style="stroke: #A80036; stroke-width: 1.0;"/><line style="stroke: #A80036; stroke-width: 1.5;" x1="377" x2="377" y1="644.4531" y2="668.8555"/><polygon fill="#A80036" points="373,658.8555,377,668.8555,381,658.8555,377,662.8555" style="stroke: #A80036; stroke-width: 1.0;"/><line style="stroke: #A80036; stroke-width: 1.5;" x1="505" x2="517" y1="632.4531" y2="632.4531"/><polygon fill="#A80036" points="513,796.7109,517,806.7109,521,796.7109,517,800.7109" style="stroke: #A80036; stroke-width: 1.5;"/><line style="stroke: #A80036; stroke-width: 1.5;" x1="517" x2="517" y1="632.4531" y2="957.4106"/><line style="stroke: #A80036; stroke-width: 1.5;" x1="517" x2="389" y1="957.4106" y2="957.4106"/><polygon fill="#A80036" points="399,953.4106,389,957.4106,399,961.4106,395,957.4106" style="stroke: #A80036; stroke-width: 1.0;"/><line style="stroke: #A80036; stroke-width: 1.5;" x1="377" x2="377" y1="583.6484" y2="620.4531"/><polygon fill="#A80036" points="373,610.4531,377,620.4531,381,610.4531,377,614.4531" style="stroke: #A80036; stroke-width: 1.0;"/><line style="stroke: #A80036; stroke-width: 1.5;" x1="377" x2="377" y1="969.4106" y2="979.4106"/><line style="stroke: #A80036; stroke-width: 1.5;" x1="377" x2="541" y1="979.4106" y2="979.4106"/><polygon fill="#A80036" points="537,798.3086,541,788.3086,545,798.3086,541,794.3086" style="stroke: #A80036; stroke-width: 1.5;"/><line style="stroke: #A80036; stroke-width: 1.5;" x1="541" x2="541" y1="571.6484" y2="979.4106"/><line style="stroke: #A80036; stroke-width: 1.5;" x1="541" x2="481.5" y1="571.6484" y2="571.6484"/><polygon fill="#A80036" points="491.5,567.6484,481.5,571.6484,491.5,575.6484,487.5,571.6484" style="stroke: #A80036; stroke-width: 1.0;"/><line style="stroke: #A80036; stroke-width: 1.5;" x1="272.5" x2="227" y1="571.6484" y2="571.6484"/><line style="stroke: #A80036; stroke-width: 1.5;" x1="227" x2="227" y1="571.6484" y2="607.6484"/><polygon fill="#A80036" points="223,597.6484,227,607.6484,231,597.6484,227,601.6484" style="stroke: #A80036; stroke-width: 1.0;"/><!--
@startuml
skinparam backgroundcolor White|White

title Hunspell - AffixMgr::prefix_check_twosfx(word)\n"check word for prefixes and two-level suffixes"\n

start
floating note: When called from affix_check(word) default is\nalways used for in_compound, needflag.\nReturn NULL is implied.

#silver:reset compound helpers\npfx, sfxappnd, sfxextra;
while (iterate zero-length prefixes?) is (yes)
	#limegreen:root = PrefixEntry::check_twosfx(word);
	if (root?) then (yes)
		#silver:do not set any compound helpers;
		:return root;
		stop
	else (no)
	endif
endwhile (no)

while (iterate non-zero-length prefixes?) is (yes)
	floating note: getKey returns appnd,\nsubset is tested with\nAffixMgr::isSubset
	if (is PrefixEntry.getKey() a subset of word?) then (yes)
		#limegreen:root = PrefixEntry::check_twosfx(word);
		if (root?) then (yes)
			#silver:set compound helper pfx;
			:return root;
			stop
		else (no)
		endif
	else (no)
	endif
endwhile (no)

stop

@enduml

PlantUML version 1.2018.06(Mon May 21 12:34:53 CEST 2018)
(GPL source distribution)
Java Runtime: OpenJDK Runtime Environment
JVM: OpenJDK 64-Bit Server VM
Java Version: 10.0.2+13-Ubuntu-1ubuntu0.18.04.1
Operating System: Linux
OS Version: 4.15.0-33-generic
Default Encoding: UTF-8
Language: en
Country: US
--></g></svg>