<?xml version="1.0" encoding="UTF-8" standalone="no"?><svg xmlns="http://www.w3.org/2000/svg" xmlns:xlink="http://www.w3.org/1999/xlink" contentScriptType="application/ecmascript" contentStyleType="text/css" height="1022px" preserveAspectRatio="none" style="width:556px;height:1022px;" version="1.1" viewBox="0 0 556 1022" width="556px" zoomAndPan="magnify"><defs><linearGradient id="gpfzwgriz2neh0" x1="0%" x2="100%" y1="50%" y2="50%"><stop offset="0%" stop-color="#FFFFFF"/><stop offset="100%" stop-color="#FFFFFF"/></linearGradient><filter height="300%" id="fpfzwgriz2neh" width="300%" x="-1" y="-1"><feGaussianBlur result="blurOut" stdDeviation="2.0"/><feColorMatrix in="blurOut" result="blurOut2" type="matrix" values="0 0 0 0 0 0 0 0 0 0 0 0 0 0 0 0 0 0 .4 0"/><feOffset dx="4.0" dy="4.0" in="blurOut2" result="blurOut3"/><feBlend in="SourceGraphic" in2="blurOut3" mode="normal"/></filter></defs><g><rect fill="url(#gpfzwgriz2neh0)" height="1022" style="stroke: none; stroke-width: 1.0;" width="556" x="0" y="0"/><text fill="#000000" font-family="sans-serif" font-size="18" lengthAdjust="spacingAndGlyphs" textLength="420" x="67" y="26.708">Hunspell - AffixMgr::prefix_check_twosfx(word)</text><text fill="#000000" font-family="sans-serif" font-size="18" lengthAdjust="spacingAndGlyphs" textLength="411" x="71.5" y="47.6611">check word for prefixes and two-level suffixes</text><text fill="#000000" font-family="sans-serif" font-size="18" lengthAdjust="spacingAndGlyphs" textLength="0" x="280" y="68.6143"/><path d="M17.5,72.8594 L17.5,113.125 L337.5,113.125 L337.5,82.8594 L327.5,72.8594 L17.5,72.8594 " fill="#FBFB77" filter="url(#fpfzwgriz2neh)" style="stroke: #A80036; stroke-width: 1.0;"/><path d="M327.5,72.8594 L327.5,82.8594 L337.5,82.8594 L327.5,72.8594 " fill="#FBFB77" style="stroke: #A80036; stroke-width: 1.0;"/><text fill="#000000" font-family="sans-serif" font-size="13" lengthAdjust="spacingAndGlyphs" textLength="299" x="23.5" y="89.9263">when called from affix_check(word) default is</text><text fill="#000000" font-family="sans-serif" font-size="13" lengthAdjust="spacingAndGlyphs" textLength="291" x="23.5" y="105.0591">always used for in_compound, needflag, etc.</text><ellipse cx="367.5" cy="92.9922" fill="#000000" filter="url(#fpfzwgriz2neh)" rx="10" ry="10" style="stroke: none; stroke-width: 1.0;"/><rect fill="#C0C0C0" filter="url(#fpfzwgriz2neh)" height="47.9375" rx="12.5" ry="12.5" style="stroke: #A80036; stroke-width: 1.5;" width="172" x="281.5" y="126.5591"/><text fill="#000000" font-family="sans-serif" font-size="12" lengthAdjust="spacingAndGlyphs" textLength="152" x="291.5" y="147.6978">reset compound pointers</text><text fill="#000000" font-family="sans-serif" font-size="12" lengthAdjust="spacingAndGlyphs" textLength="139" x="291.5" y="161.6665">pfx, sfxappnd, sfxextra</text><rect fill="#32CD32" filter="url(#fpfzwgriz2neh)" height="33.9688" rx="12.5" ry="12.5" style="stroke: #A80036; stroke-width: 1.5;" width="257" x="239" y="250.207"/><text fill="#000000" font-family="sans-serif" font-size="12" lengthAdjust="spacingAndGlyphs" textLength="237" x="249" y="271.3457">root = PrefixEntry::check_twosfx(word)</text><rect fill="#FEFECE" filter="url(#fpfzwgriz2neh)" height="33.9688" rx="12.5" ry="12.5" style="stroke: #A80036; stroke-width: 1.5;" width="86" x="324.5" y="352.5781"/><text fill="#000000" font-family="sans-serif" font-size="12" lengthAdjust="spacingAndGlyphs" textLength="66" x="334.5" y="373.7168">return root</text><ellipse cx="367.5" cy="416.5469" fill="none" filter="url(#fpfzwgriz2neh)" rx="10" ry="10" style="stroke: #000000; stroke-width: 1.0;"/><ellipse cx="368" cy="417.0469" fill="#000000" filter="url(#fpfzwgriz2neh)" rx="6" ry="6" style="stroke: none; stroke-width: 1.0;"/><polygon fill="#FEFECE" filter="url(#fpfzwgriz2neh)" points="353,304.1758,382,304.1758,394,316.1758,382,328.1758,353,328.1758,341,316.1758,353,304.1758" style="stroke: #A80036; stroke-width: 1.5;"/><text fill="#000000" font-family="sans-serif" font-size="11" lengthAdjust="spacingAndGlyphs" textLength="20" x="371.5" y="338.3862">yes</text><text fill="#000000" font-family="sans-serif" font-size="11" lengthAdjust="spacingAndGlyphs" textLength="29" x="353" y="319.9839">root?</text><text fill="#000000" font-family="sans-serif" font-size="11" lengthAdjust="spacingAndGlyphs" textLength="14" x="394" y="313.5815">no</text><polygon fill="#FEFECE" filter="url(#fpfzwgriz2neh)" points="287,194.4966,448,194.4966,460,206.4966,448,218.4966,287,218.4966,275,206.4966,287,194.4966" style="stroke: #A80036; stroke-width: 1.5;"/><text fill="#000000" font-family="sans-serif" font-size="11" lengthAdjust="spacingAndGlyphs" textLength="20" x="371.5" y="228.707">yes</text><text fill="#000000" font-family="sans-serif" font-size="11" lengthAdjust="spacingAndGlyphs" textLength="161" x="287" y="210.3047">iterate zero-length prefixes?</text><text fill="#000000" font-family="sans-serif" font-size="11" lengthAdjust="spacingAndGlyphs" textLength="14" x="261" y="203.9023">no</text><path d="M10,686.4136 L10,741.812 L185,741.812 L185,696.4136 L175,686.4136 L10,686.4136 " fill="#FBFB77" filter="url(#fpfzwgriz2neh)" style="stroke: #A80036; stroke-width: 1.0;"/><path d="M175,686.4136 L175,696.4136 L185,696.4136 L175,686.4136 " fill="#FBFB77" style="stroke: #A80036; stroke-width: 1.0;"/><text fill="#000000" font-family="sans-serif" font-size="13" lengthAdjust="spacingAndGlyphs" textLength="154" x="16" y="703.4805">getKey() returns appnd,</text><text fill="#000000" font-family="sans-serif" font-size="13" lengthAdjust="spacingAndGlyphs" textLength="135" x="16" y="718.6133">subset is tested with</text><text fill="#000000" font-family="sans-serif" font-size="13" lengthAdjust="spacingAndGlyphs" textLength="118" x="16" y="733.7461">AffixMgr::isSubset</text><rect fill="#32CD32" filter="url(#fpfzwgriz2neh)" height="33.9688" rx="12.5" ry="12.5" style="stroke: #A80036; stroke-width: 1.5;" width="257" x="239" y="594.6597"/><text fill="#000000" font-family="sans-serif" font-size="12" lengthAdjust="spacingAndGlyphs" textLength="237" x="249" y="615.7983">root = PrefixEntry::check_twosfx(word)</text><rect fill="#C0C0C0" filter="url(#fpfzwgriz2neh)" height="33.9688" rx="12.5" ry="12.5" style="stroke: #A80036; stroke-width: 1.5;" width="177" x="279" y="697.0308"/><text fill="#000000" font-family="sans-serif" font-size="12" lengthAdjust="spacingAndGlyphs" textLength="157" x="289" y="718.1694">set compound pointer pfx</text><rect fill="#FEFECE" filter="url(#fpfzwgriz2neh)" height="33.9688" rx="12.5" ry="12.5" style="stroke: #A80036; stroke-width: 1.5;" width="86" x="324.5" y="755.2461"/><text fill="#000000" font-family="sans-serif" font-size="12" lengthAdjust="spacingAndGlyphs" textLength="66" x="334.5" y="776.3848">return root</text><ellipse cx="367.5" cy="819.2148" fill="none" filter="url(#fpfzwgriz2neh)" rx="10" ry="10" style="stroke: #000000; stroke-width: 1.0;"/><ellipse cx="368" cy="819.7148" fill="#000000" filter="url(#fpfzwgriz2neh)" rx="6" ry="6" style="stroke: none; stroke-width: 1.0;"/><polygon fill="#FEFECE" filter="url(#fpfzwgriz2neh)" points="353,648.6284,382,648.6284,394,660.6284,382,672.6284,353,672.6284,341,660.6284,353,648.6284" style="stroke: #A80036; stroke-width: 1.5;"/><text fill="#000000" font-family="sans-serif" font-size="11" lengthAdjust="spacingAndGlyphs" textLength="20" x="371.5" y="682.8389">yes</text><text fill="#000000" font-family="sans-serif" font-size="11" lengthAdjust="spacingAndGlyphs" textLength="29" x="353" y="664.4365">root?</text><text fill="#000000" font-family="sans-serif" font-size="11" lengthAdjust="spacingAndGlyphs" textLength="14" x="394" y="658.0342">no</text><polygon fill="#FEFECE" filter="url(#fpfzwgriz2neh)" points="251.5,546.2573,483.5,546.2573,495.5,558.2573,483.5,570.2573,251.5,570.2573,239.5,558.2573,251.5,546.2573" style="stroke: #A80036; stroke-width: 1.5;"/><text fill="#000000" font-family="sans-serif" font-size="11" lengthAdjust="spacingAndGlyphs" textLength="20" x="371.5" y="580.4678">yes</text><text fill="#000000" font-family="sans-serif" font-size="11" lengthAdjust="spacingAndGlyphs" textLength="232" x="251.5" y="562.0654">is PrefixEntry.getKey() a subset of word?</text><text fill="#000000" font-family="sans-serif" font-size="11" lengthAdjust="spacingAndGlyphs" textLength="14" x="495.5" y="555.6631">no</text><polygon fill="#FEFECE" filter="url(#fpfzwgriz2neh)" points="367.5,871.2148,379.5,883.2148,367.5,895.2148,355.5,883.2148,367.5,871.2148" style="stroke: #A80036; stroke-width: 1.5;"/><polygon fill="#FEFECE" filter="url(#fpfzwgriz2neh)" points="274.5,490.5469,460.5,490.5469,472.5,502.5469,460.5,514.5469,274.5,514.5469,262.5,502.5469,274.5,490.5469" style="stroke: #A80036; stroke-width: 1.5;"/><text fill="#000000" font-family="sans-serif" font-size="11" lengthAdjust="spacingAndGlyphs" textLength="20" x="371.5" y="524.7573">yes</text><text fill="#000000" font-family="sans-serif" font-size="11" lengthAdjust="spacingAndGlyphs" textLength="186" x="274.5" y="506.355">iterate non-zero-length prefixes?</text><text fill="#000000" font-family="sans-serif" font-size="11" lengthAdjust="spacingAndGlyphs" textLength="14" x="248.5" y="499.9526">no</text><rect fill="#FEFECE" filter="url(#fpfzwgriz2neh)" height="33.9688" rx="12.5" ry="12.5" style="stroke: #A80036; stroke-width: 1.5;" width="94" x="320.5" y="937.2148"/><text fill="#000000" font-family="sans-serif" font-size="12" lengthAdjust="spacingAndGlyphs" textLength="74" x="330.5" y="958.3535">return NULL</text><ellipse cx="367.5" cy="1001.1836" fill="none" filter="url(#fpfzwgriz2neh)" rx="10" ry="10" style="stroke: #000000; stroke-width: 1.0;"/><ellipse cx="368" cy="1001.6836" fill="#000000" filter="url(#fpfzwgriz2neh)" rx="6" ry="6" style="stroke: none; stroke-width: 1.0;"/><line style="stroke: #A80036; stroke-width: 1.5;" x1="367.5" x2="367.5" y1="102.9922" y2="126.5591"/><polygon fill="#A80036" points="363.5,116.5591,367.5,126.5591,371.5,116.5591,367.5,120.5591" style="stroke: #A80036; stroke-width: 1.0;"/><line style="stroke: #A80036; stroke-width: 1.5;" x1="367.5" x2="367.5" y1="386.5469" y2="406.5469"/><polygon fill="#A80036" points="363.5,396.5469,367.5,406.5469,371.5,396.5469,367.5,400.5469" style="stroke: #A80036; stroke-width: 1.0;"/><line style="stroke: #A80036; stroke-width: 1.5;" x1="367.5" x2="367.5" y1="328.1758" y2="352.5781"/><polygon fill="#A80036" points="363.5,342.5781,367.5,352.5781,371.5,342.5781,367.5,346.5781" style="stroke: #A80036; stroke-width: 1.0;"/><line style="stroke: #A80036; stroke-width: 1.5;" x1="394" x2="508" y1="316.1758" y2="316.1758"/><line style="stroke: #A80036; stroke-width: 1.5;" x1="508" x2="508" y1="206.4966" y2="316.1758"/><line style="stroke: #A80036; stroke-width: 1.5;" x1="508" x2="460" y1="206.4966" y2="206.4966"/><polygon fill="#A80036" points="470,202.4966,460,206.4966,470,210.4966,466,206.4966" style="stroke: #A80036; stroke-width: 1.0;"/><line style="stroke: #A80036; stroke-width: 1.5;" x1="367.5" x2="367.5" y1="284.1758" y2="304.1758"/><polygon fill="#A80036" points="363.5,294.1758,367.5,304.1758,371.5,294.1758,367.5,298.1758" style="stroke: #A80036; stroke-width: 1.0;"/><line style="stroke: #A80036; stroke-width: 1.5;" x1="367.5" x2="367.5" y1="218.4966" y2="250.207"/><polygon fill="#A80036" points="363.5,240.207,367.5,250.207,371.5,240.207,367.5,244.207" style="stroke: #A80036; stroke-width: 1.0;"/><line style="stroke: #A80036; stroke-width: 1.5;" x1="275" x2="227" y1="206.4966" y2="206.4966"/><polygon fill="#A80036" points="223,331.1758,227,341.1758,231,331.1758,227,335.1758" style="stroke: #A80036; stroke-width: 1.5;"/><line style="stroke: #A80036; stroke-width: 1.5;" x1="227" x2="227" y1="206.4966" y2="470.5469"/><line style="stroke: #A80036; stroke-width: 1.5;" x1="227" x2="367.5" y1="470.5469" y2="470.5469"/><line style="stroke: #A80036; stroke-width: 1.5;" x1="367.5" x2="367.5" y1="470.5469" y2="490.5469"/><polygon fill="#A80036" points="363.5,480.5469,367.5,490.5469,371.5,480.5469,367.5,484.5469" style="stroke: #A80036; stroke-width: 1.0;"/><line style="stroke: #A80036; stroke-width: 1.5;" x1="367.5" x2="367.5" y1="174.4966" y2="194.4966"/><polygon fill="#A80036" points="363.5,184.4966,367.5,194.4966,371.5,184.4966,367.5,188.4966" style="stroke: #A80036; stroke-width: 1.0;"/><line style="stroke: #A80036; stroke-width: 1.5;" x1="367.5" x2="367.5" y1="730.9995" y2="755.2461"/><polygon fill="#A80036" points="363.5,745.2461,367.5,755.2461,371.5,745.2461,367.5,749.2461" style="stroke: #A80036; stroke-width: 1.0;"/><line style="stroke: #A80036; stroke-width: 1.5;" x1="367.5" x2="367.5" y1="789.2148" y2="809.2148"/><polygon fill="#A80036" points="363.5,799.2148,367.5,809.2148,371.5,799.2148,367.5,803.2148" style="stroke: #A80036; stroke-width: 1.0;"/><line style="stroke: #A80036; stroke-width: 1.5;" x1="367.5" x2="367.5" y1="672.6284" y2="697.0308"/><polygon fill="#A80036" points="363.5,687.0308,367.5,697.0308,371.5,687.0308,367.5,691.0308" style="stroke: #A80036; stroke-width: 1.0;"/><line style="stroke: #A80036; stroke-width: 1.5;" x1="394" x2="466" y1="660.6284" y2="660.6284"/><polygon fill="#A80036" points="462,752.2461,466,762.2461,470,752.2461,466,756.2461" style="stroke: #A80036; stroke-width: 1.5;"/><line style="stroke: #A80036; stroke-width: 1.5;" x1="466" x2="466" y1="660.6284" y2="851.2148"/><line style="stroke: #A80036; stroke-width: 1.5;" x1="466" x2="367.5" y1="851.2148" y2="851.2148"/><line style="stroke: #A80036; stroke-width: 1.5;" x1="367.5" x2="367.5" y1="851.2148" y2="871.2148"/><polygon fill="#A80036" points="363.5,861.2148,367.5,871.2148,371.5,861.2148,367.5,865.2148" style="stroke: #A80036; stroke-width: 1.0;"/><line style="stroke: #A80036; stroke-width: 1.5;" x1="367.5" x2="367.5" y1="628.6284" y2="648.6284"/><polygon fill="#A80036" points="363.5,638.6284,367.5,648.6284,371.5,638.6284,367.5,642.6284" style="stroke: #A80036; stroke-width: 1.0;"/><line style="stroke: #A80036; stroke-width: 1.5;" x1="367.5" x2="367.5" y1="570.2573" y2="594.6597"/><polygon fill="#A80036" points="363.5,584.6597,367.5,594.6597,371.5,584.6597,367.5,588.6597" style="stroke: #A80036; stroke-width: 1.0;"/><line style="stroke: #A80036; stroke-width: 1.5;" x1="495.5" x2="507.5" y1="558.2573" y2="558.2573"/><polygon fill="#A80036" points="503.5,722.5151,507.5,732.5151,511.5,722.5151,507.5,726.5151" style="stroke: #A80036; stroke-width: 1.5;"/><line style="stroke: #A80036; stroke-width: 1.5;" x1="507.5" x2="507.5" y1="558.2573" y2="883.2148"/><line style="stroke: #A80036; stroke-width: 1.5;" x1="507.5" x2="379.5" y1="883.2148" y2="883.2148"/><polygon fill="#A80036" points="389.5,879.2148,379.5,883.2148,389.5,887.2148,385.5,883.2148" style="stroke: #A80036; stroke-width: 1.0;"/><line style="stroke: #A80036; stroke-width: 1.5;" x1="367.5" x2="367.5" y1="514.5469" y2="546.2573"/><polygon fill="#A80036" points="363.5,536.2573,367.5,546.2573,371.5,536.2573,367.5,540.2573" style="stroke: #A80036; stroke-width: 1.0;"/><line style="stroke: #A80036; stroke-width: 1.5;" x1="367.5" x2="367.5" y1="895.2148" y2="905.2148"/><line style="stroke: #A80036; stroke-width: 1.5;" x1="367.5" x2="530" y1="905.2148" y2="905.2148"/><polygon fill="#A80036" points="526,724.1128,530,714.1128,534,724.1128,530,720.1128" style="stroke: #A80036; stroke-width: 1.5;"/><line style="stroke: #A80036; stroke-width: 1.5;" x1="530" x2="530" y1="502.5469" y2="905.2148"/><line style="stroke: #A80036; stroke-width: 1.5;" x1="530" x2="472.5" y1="502.5469" y2="502.5469"/><polygon fill="#A80036" points="482.5,498.5469,472.5,502.5469,482.5,506.5469,478.5,502.5469" style="stroke: #A80036; stroke-width: 1.0;"/><line style="stroke: #A80036; stroke-width: 1.5;" x1="262.5" x2="217" y1="502.5469" y2="502.5469"/><polygon fill="#A80036" points="213,710.1128,217,720.1128,221,710.1128,217,714.1128" style="stroke: #A80036; stroke-width: 1.5;"/><line style="stroke: #A80036; stroke-width: 1.5;" x1="217" x2="217" y1="502.5469" y2="917.2148"/><line style="stroke: #A80036; stroke-width: 1.5;" x1="217" x2="367.5" y1="917.2148" y2="917.2148"/><line style="stroke: #A80036; stroke-width: 1.5;" x1="367.5" x2="367.5" y1="917.2148" y2="937.2148"/><polygon fill="#A80036" points="363.5,927.2148,367.5,937.2148,371.5,927.2148,367.5,931.2148" style="stroke: #A80036; stroke-width: 1.0;"/><line style="stroke: #A80036; stroke-width: 1.5;" x1="367.5" x2="367.5" y1="971.1836" y2="991.1836"/><polygon fill="#A80036" points="363.5,981.1836,367.5,991.1836,371.5,981.1836,367.5,985.1836" style="stroke: #A80036; stroke-width: 1.0;"/><!--
@startuml
skinparam backgroundcolor White|White

title Hunspell - AffixMgr::prefix_check_twosfx(word)\ncheck word for prefixes and two-level suffixes\n

start
floating note: when called from affix_check(word) default is\nalways used for in_compound, needflag, etc.

#silver:reset compound pointers\npfx, sfxappnd, sfxextra;
while (iterate zero-length prefixes?) is (yes)
	#limegreen:root = PrefixEntry::check_twosfx(word);
	if (root?) then (yes)
		:return root;
		stop
	else (no)
	endif
endwhile (no)

while (iterate non-zero-length prefixes?) is (yes)
	floating note: getKey() returns appnd,\nsubset is tested with\nAffixMgr::isSubset
	if (is PrefixEntry.getKey() a subset of word?) then (yes)
		#limegreen:root = PrefixEntry::check_twosfx(word);
		if (root?) then (yes)
			#silver:set compound pointer pfx;
			:return root;
			stop
		else (no)
		endif
	else (no)
	endif
endwhile (no)

:return NULL;
stop

@enduml

PlantUML version 1.2018.01(Sun Jan 28 19:08:22 CET 2018)
(GPL source distribution)
Java Runtime: OpenJDK Runtime Environment
JVM: OpenJDK 64-Bit Server VM
Java Version: 1.8.0_151-8u151-b12-0ubuntu0.17.10.2-b12
Operating System: Linux
OS Version: 4.13.0-36-generic
Default Encoding: UTF-8
Language: en
Country: US
--></g></svg>