<?xml version="1.0" encoding="UTF-8" standalone="no"?><svg xmlns="http://www.w3.org/2000/svg" xmlns:xlink="http://www.w3.org/1999/xlink" contentScriptType="application/ecmascript" contentStyleType="text/css" height="1257px" preserveAspectRatio="none" style="width:775px;height:1257px;" version="1.1" viewBox="0 0 775 1257" width="775px" zoomAndPan="magnify"><defs><linearGradient id="gyoyyty8eo2b90" x1="0%" x2="100%" y1="50%" y2="50%"><stop offset="0%" stop-color="#FFFFFF"/><stop offset="100%" stop-color="#FFFFFF"/></linearGradient><filter height="300%" id="fyoyyty8eo2b9" width="300%" x="-1" y="-1"><feGaussianBlur result="blurOut" stdDeviation="2.0"/><feColorMatrix in="blurOut" result="blurOut2" type="matrix" values="0 0 0 0 0 0 0 0 0 0 0 0 0 0 0 0 0 0 .4 0"/><feOffset dx="4.0" dy="4.0" in="blurOut2" result="blurOut3"/><feBlend in="SourceGraphic" in2="blurOut3" mode="normal"/></filter></defs><g><rect fill="url(#gyoyyty8eo2b90)" height="1257" style="stroke: none; stroke-width: 1.0;" width="775" x="0" y="0"/><text fill="#000000" font-family="sans-serif" font-size="18" lengthAdjust="spacingAndGlyphs" textLength="352" x="210.5" y="26.708">Hunspell - AffixMgr::prefix_check(word)</text><text fill="#000000" font-family="sans-serif" font-size="18" lengthAdjust="spacingAndGlyphs" textLength="225" x="274" y="47.6611">"check word for prefixes"</text><text fill="#000000" font-family="sans-serif" font-size="18" lengthAdjust="spacingAndGlyphs" textLength="0" x="389.5" y="68.6143"/><path d="M30.5,72.8594 L30.5,113.125 L350.5,113.125 L350.5,82.8594 L340.5,72.8594 L30.5,72.8594 " fill="#FBFB77" filter="url(#fyoyyty8eo2b9)" style="stroke: #A80036; stroke-width: 1.0;"/><path d="M340.5,72.8594 L340.5,82.8594 L350.5,82.8594 L340.5,72.8594 " fill="#FBFB77" style="stroke: #A80036; stroke-width: 1.0;"/><text fill="#000000" font-family="sans-serif" font-size="13" lengthAdjust="spacingAndGlyphs" textLength="299" x="36.5" y="89.9263">when called from affix_check(word) default is</text><text fill="#000000" font-family="sans-serif" font-size="13" lengthAdjust="spacingAndGlyphs" textLength="291" x="36.5" y="105.0591">always used for in_compound, needflag, etc.</text><ellipse cx="380.5" cy="92.9922" fill="#000000" filter="url(#fyoyyty8eo2b9)" rx="10" ry="10" style="stroke: none; stroke-width: 1.0;"/><rect fill="#C0C0C0" filter="url(#fyoyyty8eo2b9)" height="47.9375" rx="12.5" ry="12.5" style="stroke: #A80036; stroke-width: 1.5;" width="225" x="268" y="126.5591"/><text fill="#000000" font-family="sans-serif" font-size="12" lengthAdjust="spacingAndGlyphs" textLength="152" x="278" y="147.6978">reset compound pointers</text><text fill="#000000" font-family="sans-serif" font-size="12" lengthAdjust="spacingAndGlyphs" textLength="205" x="278" y="161.6665">pfx, pfxappnd, sfxappnd, sfxextra</text><rect fill="#32CD32" filter="url(#fyoyyty8eo2b9)" height="33.9688" rx="12.5" ry="12.5" style="stroke: #A80036; stroke-width: 1.5;" width="242" x="259.5" y="389.8516"/><text fill="#000000" font-family="sans-serif" font-size="12" lengthAdjust="spacingAndGlyphs" textLength="222" x="269.5" y="410.9902">root = PrefixEntry::checkword(word)</text><rect fill="#C0C0C0" filter="url(#fyoyyty8eo2b9)" height="33.9688" rx="12.5" ry="12.5" style="stroke: #A80036; stroke-width: 1.5;" width="172" x="294.5" y="492.2227"/><text fill="#000000" font-family="sans-serif" font-size="12" lengthAdjust="spacingAndGlyphs" textLength="152" x="304.5" y="513.3613">set compound helper pfx</text><rect fill="#FEFECE" filter="url(#fyoyyty8eo2b9)" height="33.9688" rx="12.5" ry="12.5" style="stroke: #A80036; stroke-width: 1.5;" width="86" x="337.5" y="546.1914"/><text fill="#000000" font-family="sans-serif" font-size="12" lengthAdjust="spacingAndGlyphs" textLength="66" x="347.5" y="567.3301">return root</text><ellipse cx="380.5" cy="610.1602" fill="none" filter="url(#fyoyyty8eo2b9)" rx="10" ry="10" style="stroke: #000000; stroke-width: 1.0;"/><ellipse cx="381" cy="610.6602" fill="#000000" filter="url(#fyoyyty8eo2b9)" rx="6" ry="6" style="stroke: none; stroke-width: 1.0;"/><polygon fill="#FEFECE" filter="url(#fyoyyty8eo2b9)" points="366,443.8203,395,443.8203,407,455.8203,395,467.8203,366,467.8203,354,455.8203,366,443.8203" style="stroke: #A80036; stroke-width: 1.5;"/><text fill="#000000" font-family="sans-serif" font-size="11" lengthAdjust="spacingAndGlyphs" textLength="20" x="384.5" y="478.0308">yes</text><text fill="#000000" font-family="sans-serif" font-size="11" lengthAdjust="spacingAndGlyphs" textLength="29" x="366" y="459.6284">root?</text><text fill="#000000" font-family="sans-serif" font-size="11" lengthAdjust="spacingAndGlyphs" textLength="14" x="407" y="453.2261">no</text><polygon fill="#FEFECE" filter="url(#fyoyyty8eo2b9)" points="48,250.207,713,250.207,725,307.8281,713,365.4492,48,365.4492,36,307.8281,48,250.207" style="stroke: #A80036; stroke-width: 1.5;"/><text fill="#000000" font-family="sans-serif" font-size="11" lengthAdjust="spacingAndGlyphs" textLength="20" x="384.5" y="375.6597">yes</text><text fill="#000000" font-family="sans-serif" font-size="11" lengthAdjust="spacingAndGlyphs" textLength="0" x="52" y="260.4175"/><text fill="#000000" font-family="sans-serif" font-size="11" lengthAdjust="spacingAndGlyphs" textLength="250" x="64" y="273.2222">1.a this method is called from compounding</text><text fill="#000000" font-family="sans-serif" font-size="11" lengthAdjust="spacingAndGlyphs" textLength="17" x="64" y="286.0269">OR</text><text fill="#000000" font-family="sans-serif" font-size="11" lengthAdjust="spacingAndGlyphs" textLength="649" x="64" y="298.8315">1.b the continuation classes of the prefix entry under consideration does not contain generic onlyincompound flag</text><text fill="#000000" font-family="sans-serif" font-size="11" lengthAdjust="spacingAndGlyphs" textLength="24" x="48" y="311.6362">AND</text><text fill="#000000" font-family="sans-serif" font-size="11" lengthAdjust="spacingAndGlyphs" textLength="532" x="64" y="324.4409">2.a this method is not called from compounding or from compounding related to the end part</text><text fill="#000000" font-family="sans-serif" font-size="11" lengthAdjust="spacingAndGlyphs" textLength="17" x="64" y="337.2456">OR</text><text fill="#000000" font-family="sans-serif" font-size="11" lengthAdjust="spacingAndGlyphs" textLength="629" x="64" y="350.0503">2.b continuation classes of the prefix entry under consideration does contain generic compoundpermitflag flag</text><text fill="#000000" font-family="sans-serif" font-size="11" lengthAdjust="spacingAndGlyphs" textLength="14" x="725" y="305.2339">no</text><polygon fill="#FEFECE" filter="url(#fyoyyty8eo2b9)" points="380.5,662.1602,392.5,674.1602,380.5,686.1602,368.5,674.1602,380.5,662.1602" style="stroke: #A80036; stroke-width: 1.5;"/><polygon fill="#FEFECE" filter="url(#fyoyyty8eo2b9)" points="300,194.4966,461,194.4966,473,206.4966,461,218.4966,300,218.4966,288,206.4966,300,194.4966" style="stroke: #A80036; stroke-width: 1.5;"/><text fill="#000000" font-family="sans-serif" font-size="11" lengthAdjust="spacingAndGlyphs" textLength="20" x="384.5" y="228.707">yes</text><text fill="#000000" font-family="sans-serif" font-size="11" lengthAdjust="spacingAndGlyphs" textLength="161" x="300" y="210.3047">iterate zero-length prefixes?</text><text fill="#000000" font-family="sans-serif" font-size="11" lengthAdjust="spacingAndGlyphs" textLength="14" x="274" y="203.9023">no</text><rect fill="#32CD32" filter="url(#fyoyyty8eo2b9)" height="33.9688" rx="12.5" ry="12.5" style="stroke: #A80036; stroke-width: 1.5;" width="242" x="259.5" y="832.2729"/><text fill="#000000" font-family="sans-serif" font-size="12" lengthAdjust="spacingAndGlyphs" textLength="222" x="269.5" y="853.4116">root = PrefixEntry::checkword(word)</text><rect fill="#C0C0C0" filter="url(#fyoyyty8eo2b9)" height="33.9688" rx="12.5" ry="12.5" style="stroke: #A80036; stroke-width: 1.5;" width="172" x="294.5" y="934.644"/><text fill="#000000" font-family="sans-serif" font-size="12" lengthAdjust="spacingAndGlyphs" textLength="152" x="304.5" y="955.7827">set compound helper pfx</text><rect fill="#FEFECE" filter="url(#fyoyyty8eo2b9)" height="33.9688" rx="12.5" ry="12.5" style="stroke: #A80036; stroke-width: 1.5;" width="86" x="337.5" y="990.1284"/><text fill="#000000" font-family="sans-serif" font-size="12" lengthAdjust="spacingAndGlyphs" textLength="66" x="347.5" y="1011.2671">return root</text><ellipse cx="380.5" cy="1054.0972" fill="none" filter="url(#fyoyyty8eo2b9)" rx="10" ry="10" style="stroke: #000000; stroke-width: 1.0;"/><ellipse cx="381" cy="1054.5972" fill="#000000" filter="url(#fyoyyty8eo2b9)" rx="6" ry="6" style="stroke: none; stroke-width: 1.0;"/><polygon fill="#FEFECE" filter="url(#fyoyyty8eo2b9)" points="366,886.2417,395,886.2417,407,898.2417,395,910.2417,366,910.2417,354,898.2417,366,886.2417" style="stroke: #A80036; stroke-width: 1.5;"/><text fill="#000000" font-family="sans-serif" font-size="11" lengthAdjust="spacingAndGlyphs" textLength="20" x="384.5" y="920.4521">yes</text><text fill="#000000" font-family="sans-serif" font-size="11" lengthAdjust="spacingAndGlyphs" textLength="29" x="366" y="902.0498">root?</text><text fill="#000000" font-family="sans-serif" font-size="11" lengthAdjust="spacingAndGlyphs" textLength="14" x="407" y="895.6475">no</text><polygon fill="#FEFECE" filter="url(#fyoyyty8eo2b9)" points="296.5,783.8706,464.5,783.8706,476.5,795.8706,464.5,807.8706,296.5,807.8706,284.5,795.8706,296.5,783.8706" style="stroke: #A80036; stroke-width: 1.5;"/><text fill="#000000" font-family="sans-serif" font-size="11" lengthAdjust="spacingAndGlyphs" textLength="20" x="384.5" y="818.0811">yes</text><text fill="#000000" font-family="sans-serif" font-size="11" lengthAdjust="spacingAndGlyphs" textLength="168" x="296.5" y="799.6787">SAME CONDITIONS AS ABOVE</text><text fill="#000000" font-family="sans-serif" font-size="11" lengthAdjust="spacingAndGlyphs" textLength="14" x="476.5" y="793.2764">no</text><polygon fill="#FEFECE" filter="url(#fyoyyty8eo2b9)" points="380.5,1106.0972,392.5,1118.0972,380.5,1130.0972,368.5,1118.0972,380.5,1106.0972" style="stroke: #A80036; stroke-width: 1.5;"/><polygon fill="#FEFECE" filter="url(#fyoyyty8eo2b9)" points="287.5,728.1602,473.5,728.1602,485.5,740.1602,473.5,752.1602,287.5,752.1602,275.5,740.1602,287.5,728.1602" style="stroke: #A80036; stroke-width: 1.5;"/><text fill="#000000" font-family="sans-serif" font-size="11" lengthAdjust="spacingAndGlyphs" textLength="20" x="384.5" y="762.3706">yes</text><text fill="#000000" font-family="sans-serif" font-size="11" lengthAdjust="spacingAndGlyphs" textLength="186" x="287.5" y="743.9683">iterate non-zero-length prefixes?</text><text fill="#000000" font-family="sans-serif" font-size="11" lengthAdjust="spacingAndGlyphs" textLength="14" x="261.5" y="737.5659">no</text><rect fill="#FEFECE" filter="url(#fyoyyty8eo2b9)" height="33.9688" rx="12.5" ry="12.5" style="stroke: #A80036; stroke-width: 1.5;" width="94" x="333.5" y="1172.0972"/><text fill="#000000" font-family="sans-serif" font-size="12" lengthAdjust="spacingAndGlyphs" textLength="74" x="343.5" y="1193.2358">return NULL</text><ellipse cx="380.5" cy="1236.0659" fill="none" filter="url(#fyoyyty8eo2b9)" rx="10" ry="10" style="stroke: #000000; stroke-width: 1.0;"/><ellipse cx="381" cy="1236.5659" fill="#000000" filter="url(#fyoyyty8eo2b9)" rx="6" ry="6" style="stroke: none; stroke-width: 1.0;"/><line style="stroke: #A80036; stroke-width: 1.5;" x1="380.5" x2="380.5" y1="102.9922" y2="126.5591"/><polygon fill="#A80036" points="376.5,116.5591,380.5,126.5591,384.5,116.5591,380.5,120.5591" style="stroke: #A80036; stroke-width: 1.0;"/><line style="stroke: #A80036; stroke-width: 1.5;" x1="380.5" x2="380.5" y1="526.1914" y2="546.1914"/><polygon fill="#A80036" points="376.5,536.1914,380.5,546.1914,384.5,536.1914,380.5,540.1914" style="stroke: #A80036; stroke-width: 1.0;"/><line style="stroke: #A80036; stroke-width: 1.5;" x1="380.5" x2="380.5" y1="580.1602" y2="600.1602"/><polygon fill="#A80036" points="376.5,590.1602,380.5,600.1602,384.5,590.1602,380.5,594.1602" style="stroke: #A80036; stroke-width: 1.0;"/><line style="stroke: #A80036; stroke-width: 1.5;" x1="380.5" x2="380.5" y1="467.8203" y2="492.2227"/><polygon fill="#A80036" points="376.5,482.2227,380.5,492.2227,384.5,482.2227,380.5,486.2227" style="stroke: #A80036; stroke-width: 1.0;"/><line style="stroke: #A80036; stroke-width: 1.5;" x1="407" x2="476.5" y1="455.8203" y2="455.8203"/><polygon fill="#A80036" points="472.5,543.1914,476.5,553.1914,480.5,543.1914,476.5,547.1914" style="stroke: #A80036; stroke-width: 1.5;"/><line style="stroke: #A80036; stroke-width: 1.5;" x1="476.5" x2="476.5" y1="455.8203" y2="642.1602"/><line style="stroke: #A80036; stroke-width: 1.5;" x1="476.5" x2="380.5" y1="642.1602" y2="642.1602"/><line style="stroke: #A80036; stroke-width: 1.5;" x1="380.5" x2="380.5" y1="642.1602" y2="662.1602"/><polygon fill="#A80036" points="376.5,652.1602,380.5,662.1602,384.5,652.1602,380.5,656.1602" style="stroke: #A80036; stroke-width: 1.0;"/><line style="stroke: #A80036; stroke-width: 1.5;" x1="380.5" x2="380.5" y1="423.8203" y2="443.8203"/><polygon fill="#A80036" points="376.5,433.8203,380.5,443.8203,384.5,433.8203,380.5,437.8203" style="stroke: #A80036; stroke-width: 1.0;"/><line style="stroke: #A80036; stroke-width: 1.5;" x1="380.5" x2="380.5" y1="365.4492" y2="389.8516"/><polygon fill="#A80036" points="376.5,379.8516,380.5,389.8516,384.5,379.8516,380.5,383.8516" style="stroke: #A80036; stroke-width: 1.0;"/><line style="stroke: #A80036; stroke-width: 1.5;" x1="725" x2="737" y1="307.8281" y2="307.8281"/><polygon fill="#A80036" points="733,494.8965,737,504.8965,741,494.8965,737,498.8965" style="stroke: #A80036; stroke-width: 1.5;"/><line style="stroke: #A80036; stroke-width: 1.5;" x1="737" x2="737" y1="307.8281" y2="674.1602"/><line style="stroke: #A80036; stroke-width: 1.5;" x1="737" x2="392.5" y1="674.1602" y2="674.1602"/><polygon fill="#A80036" points="402.5,670.1602,392.5,674.1602,402.5,678.1602,398.5,674.1602" style="stroke: #A80036; stroke-width: 1.0;"/><line style="stroke: #A80036; stroke-width: 1.5;" x1="380.5" x2="380.5" y1="218.4966" y2="250.207"/><polygon fill="#A80036" points="376.5,240.207,380.5,250.207,384.5,240.207,380.5,244.207" style="stroke: #A80036; stroke-width: 1.0;"/><line style="stroke: #A80036; stroke-width: 1.5;" x1="380.5" x2="380.5" y1="686.1602" y2="696.1602"/><line style="stroke: #A80036; stroke-width: 1.5;" x1="380.5" x2="749" y1="696.1602" y2="696.1602"/><polygon fill="#A80036" points="745,473.6836,749,463.6836,753,473.6836,749,469.6836" style="stroke: #A80036; stroke-width: 1.5;"/><line style="stroke: #A80036; stroke-width: 1.5;" x1="749" x2="749" y1="206.4966" y2="696.1602"/><line style="stroke: #A80036; stroke-width: 1.5;" x1="749" x2="473" y1="206.4966" y2="206.4966"/><polygon fill="#A80036" points="483,202.4966,473,206.4966,483,210.4966,479,206.4966" style="stroke: #A80036; stroke-width: 1.0;"/><line style="stroke: #A80036; stroke-width: 1.5;" x1="288" x2="24" y1="206.4966" y2="206.4966"/><polygon fill="#A80036" points="20,459.6836,24,469.6836,28,459.6836,24,463.6836" style="stroke: #A80036; stroke-width: 1.5;"/><line style="stroke: #A80036; stroke-width: 1.5;" x1="24" x2="24" y1="206.4966" y2="708.1602"/><line style="stroke: #A80036; stroke-width: 1.5;" x1="24" x2="380.5" y1="708.1602" y2="708.1602"/><line style="stroke: #A80036; stroke-width: 1.5;" x1="380.5" x2="380.5" y1="708.1602" y2="728.1602"/><polygon fill="#A80036" points="376.5,718.1602,380.5,728.1602,384.5,718.1602,380.5,722.1602" style="stroke: #A80036; stroke-width: 1.0;"/><line style="stroke: #A80036; stroke-width: 1.5;" x1="380.5" x2="380.5" y1="174.4966" y2="194.4966"/><polygon fill="#A80036" points="376.5,184.4966,380.5,194.4966,384.5,184.4966,380.5,188.4966" style="stroke: #A80036; stroke-width: 1.0;"/><line style="stroke: #A80036; stroke-width: 1.5;" x1="380.5" x2="380.5" y1="968.6128" y2="990.1284"/><polygon fill="#A80036" points="376.5,980.1284,380.5,990.1284,384.5,980.1284,380.5,984.1284" style="stroke: #A80036; stroke-width: 1.0;"/><line style="stroke: #A80036; stroke-width: 1.5;" x1="380.5" x2="380.5" y1="1024.0972" y2="1044.0972"/><polygon fill="#A80036" points="376.5,1034.0972,380.5,1044.0972,384.5,1034.0972,380.5,1038.0972" style="stroke: #A80036; stroke-width: 1.0;"/><line style="stroke: #A80036; stroke-width: 1.5;" x1="380.5" x2="380.5" y1="910.2417" y2="934.644"/><polygon fill="#A80036" points="376.5,924.644,380.5,934.644,384.5,924.644,380.5,928.644" style="stroke: #A80036; stroke-width: 1.0;"/><line style="stroke: #A80036; stroke-width: 1.5;" x1="407" x2="476.5" y1="898.2417" y2="898.2417"/><polygon fill="#A80036" points="472.5,987.1284,476.5,997.1284,480.5,987.1284,476.5,991.1284" style="stroke: #A80036; stroke-width: 1.5;"/><line style="stroke: #A80036; stroke-width: 1.5;" x1="476.5" x2="476.5" y1="898.2417" y2="1086.0972"/><line style="stroke: #A80036; stroke-width: 1.5;" x1="476.5" x2="380.5" y1="1086.0972" y2="1086.0972"/><line style="stroke: #A80036; stroke-width: 1.5;" x1="380.5" x2="380.5" y1="1086.0972" y2="1106.0972"/><polygon fill="#A80036" points="376.5,1096.0972,380.5,1106.0972,384.5,1096.0972,380.5,1100.0972" style="stroke: #A80036; stroke-width: 1.0;"/><line style="stroke: #A80036; stroke-width: 1.5;" x1="380.5" x2="380.5" y1="866.2417" y2="886.2417"/><polygon fill="#A80036" points="376.5,876.2417,380.5,886.2417,384.5,876.2417,380.5,880.2417" style="stroke: #A80036; stroke-width: 1.0;"/><line style="stroke: #A80036; stroke-width: 1.5;" x1="380.5" x2="380.5" y1="807.8706" y2="832.2729"/><polygon fill="#A80036" points="376.5,822.2729,380.5,832.2729,384.5,822.2729,380.5,826.2729" style="stroke: #A80036; stroke-width: 1.0;"/><line style="stroke: #A80036; stroke-width: 1.5;" x1="476.5" x2="511.5" y1="795.8706" y2="795.8706"/><polygon fill="#A80036" points="507.5,960.1284,511.5,970.1284,515.5,960.1284,511.5,964.1284" style="stroke: #A80036; stroke-width: 1.5;"/><line style="stroke: #A80036; stroke-width: 1.5;" x1="511.5" x2="511.5" y1="795.8706" y2="1118.0972"/><line style="stroke: #A80036; stroke-width: 1.5;" x1="511.5" x2="392.5" y1="1118.0972" y2="1118.0972"/><polygon fill="#A80036" points="402.5,1114.0972,392.5,1118.0972,402.5,1122.0972,398.5,1118.0972" style="stroke: #A80036; stroke-width: 1.0;"/><line style="stroke: #A80036; stroke-width: 1.5;" x1="380.5" x2="380.5" y1="752.1602" y2="783.8706"/><polygon fill="#A80036" points="376.5,773.8706,380.5,783.8706,384.5,773.8706,380.5,777.8706" style="stroke: #A80036; stroke-width: 1.0;"/><line style="stroke: #A80036; stroke-width: 1.5;" x1="380.5" x2="380.5" y1="1130.0972" y2="1140.0972"/><line style="stroke: #A80036; stroke-width: 1.5;" x1="380.5" x2="535.5" y1="1140.0972" y2="1140.0972"/><polygon fill="#A80036" points="531.5,961.7261,535.5,951.7261,539.5,961.7261,535.5,957.7261" style="stroke: #A80036; stroke-width: 1.5;"/><line style="stroke: #A80036; stroke-width: 1.5;" x1="535.5" x2="535.5" y1="740.1602" y2="1140.0972"/><line style="stroke: #A80036; stroke-width: 1.5;" x1="535.5" x2="485.5" y1="740.1602" y2="740.1602"/><polygon fill="#A80036" points="495.5,736.1602,485.5,740.1602,495.5,744.1602,491.5,740.1602" style="stroke: #A80036; stroke-width: 1.0;"/><line style="stroke: #A80036; stroke-width: 1.5;" x1="275.5" x2="237.5" y1="740.1602" y2="740.1602"/><polygon fill="#A80036" points="233.5,947.7261,237.5,957.7261,241.5,947.7261,237.5,951.7261" style="stroke: #A80036; stroke-width: 1.5;"/><line style="stroke: #A80036; stroke-width: 1.5;" x1="237.5" x2="237.5" y1="740.1602" y2="1152.0972"/><line style="stroke: #A80036; stroke-width: 1.5;" x1="237.5" x2="380.5" y1="1152.0972" y2="1152.0972"/><line style="stroke: #A80036; stroke-width: 1.5;" x1="380.5" x2="380.5" y1="1152.0972" y2="1172.0972"/><polygon fill="#A80036" points="376.5,1162.0972,380.5,1172.0972,384.5,1162.0972,380.5,1166.0972" style="stroke: #A80036; stroke-width: 1.0;"/><line style="stroke: #A80036; stroke-width: 1.5;" x1="380.5" x2="380.5" y1="1206.0659" y2="1226.0659"/><polygon fill="#A80036" points="376.5,1216.0659,380.5,1226.0659,384.5,1216.0659,380.5,1220.0659" style="stroke: #A80036; stroke-width: 1.0;"/><!--
@startuml
skinparam backgroundcolor White|White

title Hunspell - AffixMgr::prefix_check(word)\n"check word for prefixes"\n

start
floating note: when called from affix_check(word) default is\nalways used for in_compound, needflag, etc.

#silver:reset compound pointers\npfx, pfxappnd, sfxappnd, sfxextra;
while (iterate zero-length prefixes?) is (yes)
	if (
    1.a this method is called from compounding
    OR
    1.b the continuation classes of the prefix entry under consideration does not contain generic onlyincompound flag
AND
    2.a this method is not called from compounding or from compounding related to the end part
    OR
    2.b continuation classes of the prefix entry under consideration does contain generic compoundpermitflag flag
	) then (yes)
		#limegreen:root = PrefixEntry::checkword(word);
		if (root?) then (yes)
			#silver:set compound helper pfx;
			:return root;
			stop
		else (no)
		endif
	else (no)
	endif
endwhile (no)

while (iterate non-zero-length prefixes?) is (yes)
	if (SAME CONDITIONS AS ABOVE) then (yes)
		#limegreen:root = PrefixEntry::checkword(word);
		if (root?) then (yes)
			#silver:set compound helper pfx;
			:return root;
			stop
		else (no)
		endif
	else (no)
	endif
endwhile (no)

:return NULL;
stop

@enduml

PlantUML version 1.2018.01(Sun Jan 28 19:08:22 CET 2018)
(GPL source distribution)
Java Runtime: OpenJDK Runtime Environment
JVM: OpenJDK 64-Bit Server VM
Java Version: 1.8.0_151-8u151-b12-0ubuntu0.17.10.2-b12
Operating System: Linux
OS Version: 4.13.0-36-generic
Default Encoding: UTF-8
Language: en
Country: US
--></g></svg>