<?xml version="1.0" encoding="UTF-8" standalone="no"?><svg xmlns="http://www.w3.org/2000/svg" xmlns:xlink="http://www.w3.org/1999/xlink" contentScriptType="application/ecmascript" contentStyleType="text/css" height="1016px" preserveAspectRatio="none" style="width:561px;height:1016px;" version="1.1" viewBox="0 0 561 1016" width="561px" zoomAndPan="magnify"><defs><linearGradient id="g3qpul37pzr1e0" x1="0%" x2="100%" y1="50%" y2="50%"><stop offset="0%" stop-color="#FFFFFF"/><stop offset="100%" stop-color="#FFFFFF"/></linearGradient><filter height="300%" id="f3qpul37pzr1e" width="300%" x="-1" y="-1"><feGaussianBlur result="blurOut" stdDeviation="2.0"/><feColorMatrix in="blurOut" result="blurOut2" type="matrix" values="0 0 0 0 0 0 0 0 0 0 0 0 0 0 0 0 0 0 .4 0"/><feOffset dx="4.0" dy="4.0" in="blurOut2" result="blurOut3"/><feBlend in="SourceGraphic" in2="blurOut3" mode="normal"/></filter></defs><g><rect fill="url(#g3qpul37pzr1e0)" height="1016" style="stroke: none; stroke-width: 1.0;" width="561" x="0" y="0"/><text fill="#000000" font-family="sans-serif" font-size="18" lengthAdjust="spacingAndGlyphs" textLength="421" x="69" y="26.708">Hunspell - AffixMgr::prefix_check_twosfx(word)</text><text fill="#000000" font-family="sans-serif" font-size="18" lengthAdjust="spacingAndGlyphs" textLength="426" x="66.5" y="47.6611">"check word for prefixes and two-level suffixes"</text><text fill="#000000" font-family="sans-serif" font-size="18" lengthAdjust="spacingAndGlyphs" textLength="0" x="282.5" y="68.6143"/><path d="M40,72.8594 L40,128.2578 L347,128.2578 L347,82.8594 L337,72.8594 L40,72.8594 " fill="#FBFB77" filter="url(#f3qpul37pzr1e)" style="stroke: #A80036; stroke-width: 1.0;"/><path d="M337,72.8594 L337,82.8594 L347,82.8594 L337,72.8594 " fill="#FBFB77" style="stroke: #A80036; stroke-width: 1.0;"/><text fill="#000000" font-family="sans-serif" font-size="13" lengthAdjust="spacingAndGlyphs" textLength="286" x="46" y="89.9263">When called from affix_check(word) default is</text><text fill="#000000" font-family="sans-serif" font-size="13" lengthAdjust="spacingAndGlyphs" textLength="255" x="46" y="105.0591">always used for in_compound, needflag.</text><text fill="#000000" font-family="sans-serif" font-size="13" lengthAdjust="spacingAndGlyphs" textLength="148" x="46" y="120.1919">Return NULL is implied.</text><ellipse cx="377" cy="100.5586" fill="#000000" filter="url(#f3qpul37pzr1e)" rx="10" ry="10" style="stroke: none; stroke-width: 1.0;"/><rect fill="#C0C0C0" filter="url(#f3qpul37pzr1e)" height="47.9375" rx="12.5" ry="12.5" style="stroke: #A80036; stroke-width: 1.5;" width="174" x="290" y="148.2578"/><text fill="#000000" font-family="sans-serif" font-size="12" lengthAdjust="spacingAndGlyphs" textLength="154" x="300" y="169.3965">reset compound helpers</text><text fill="#000000" font-family="sans-serif" font-size="12" lengthAdjust="spacingAndGlyphs" textLength="140" x="300" y="183.3652">pfx, sfxappnd, sfxextra</text><rect fill="#32CD32" filter="url(#f3qpul37pzr1e)" height="33.9688" rx="12.5" ry="12.5" style="stroke: #A80036; stroke-width: 1.5;" width="260" x="247" y="271.9058"/><text fill="#000000" font-family="sans-serif" font-size="12" lengthAdjust="spacingAndGlyphs" textLength="240" x="257" y="293.0444">root = PrefixEntry::check_twosfx(word)</text><rect fill="#C0C0C0" filter="url(#f3qpul37pzr1e)" height="33.9688" rx="12.5" ry="12.5" style="stroke: #A80036; stroke-width: 1.5;" width="232" x="261" y="374.2769"/><text fill="#000000" font-family="sans-serif" font-size="12" lengthAdjust="spacingAndGlyphs" textLength="212" x="271" y="395.4155">do not set any compound helpers</text><rect fill="#FEFECE" filter="url(#f3qpul37pzr1e)" height="33.9688" rx="12.5" ry="12.5" style="stroke: #A80036; stroke-width: 1.5;" width="89" x="332.5" y="428.2456"/><text fill="#000000" font-family="sans-serif" font-size="12" lengthAdjust="spacingAndGlyphs" textLength="69" x="342.5" y="449.3843">return root</text><ellipse cx="377" cy="492.2144" fill="none" filter="url(#f3qpul37pzr1e)" rx="10" ry="10" style="stroke: #000000; stroke-width: 1.0;"/><ellipse cx="377.5" cy="492.7144" fill="#000000" filter="url(#f3qpul37pzr1e)" rx="6" ry="6" style="stroke: none; stroke-width: 1.0;"/><polygon fill="#FEFECE" filter="url(#f3qpul37pzr1e)" points="362.5,325.8745,391.5,325.8745,403.5,337.8745,391.5,349.8745,362.5,349.8745,350.5,337.8745,362.5,325.8745" style="stroke: #A80036; stroke-width: 1.5;"/><text fill="#000000" font-family="sans-serif" font-size="11" lengthAdjust="spacingAndGlyphs" textLength="20" x="381" y="360.085">yes</text><text fill="#000000" font-family="sans-serif" font-size="11" lengthAdjust="spacingAndGlyphs" textLength="29" x="362.5" y="341.6826">root?</text><text fill="#000000" font-family="sans-serif" font-size="11" lengthAdjust="spacingAndGlyphs" textLength="14" x="403.5" y="335.2803">no</text><polygon fill="#FEFECE" filter="url(#f3qpul37pzr1e)" points="297,216.1953,457,216.1953,469,228.1953,457,240.1953,297,240.1953,285,228.1953,297,216.1953" style="stroke: #A80036; stroke-width: 1.5;"/><text fill="#000000" font-family="sans-serif" font-size="11" lengthAdjust="spacingAndGlyphs" textLength="20" x="381" y="250.4058">yes</text><text fill="#000000" font-family="sans-serif" font-size="11" lengthAdjust="spacingAndGlyphs" textLength="160" x="297" y="232.0034">iterate zero-length prefixes?</text><text fill="#000000" font-family="sans-serif" font-size="11" lengthAdjust="spacingAndGlyphs" textLength="14" x="271" y="225.6011">no</text><path d="M10,767.1753 L10,822.5737 L173,822.5737 L173,777.1753 L163,767.1753 L10,767.1753 " fill="#FBFB77" filter="url(#f3qpul37pzr1e)" style="stroke: #A80036; stroke-width: 1.0;"/><path d="M163,767.1753 L163,777.1753 L173,777.1753 L163,767.1753 " fill="#FBFB77" style="stroke: #A80036; stroke-width: 1.0;"/><text fill="#000000" font-family="sans-serif" font-size="13" lengthAdjust="spacingAndGlyphs" textLength="142" x="16" y="784.2422">getKey returns appnd,</text><text fill="#000000" font-family="sans-serif" font-size="13" lengthAdjust="spacingAndGlyphs" textLength="131" x="16" y="799.375">subset is tested with</text><text fill="#000000" font-family="sans-serif" font-size="13" lengthAdjust="spacingAndGlyphs" textLength="114" x="16" y="814.5078">AffixMgr::isSubset</text><rect fill="#32CD32" filter="url(#f3qpul37pzr1e)" height="33.9688" rx="12.5" ry="12.5" style="stroke: #A80036; stroke-width: 1.5;" width="260" x="247" y="675.4214"/><text fill="#000000" font-family="sans-serif" font-size="12" lengthAdjust="spacingAndGlyphs" textLength="240" x="257" y="696.5601">root = PrefixEntry::check_twosfx(word)</text><rect fill="#C0C0C0" filter="url(#f3qpul37pzr1e)" height="33.9688" rx="12.5" ry="12.5" style="stroke: #A80036; stroke-width: 1.5;" width="176" x="289" y="777.7925"/><text fill="#000000" font-family="sans-serif" font-size="12" lengthAdjust="spacingAndGlyphs" textLength="156" x="299" y="798.9312">set compound helper pfx</text><rect fill="#FEFECE" filter="url(#f3qpul37pzr1e)" height="33.9688" rx="12.5" ry="12.5" style="stroke: #A80036; stroke-width: 1.5;" width="89" x="332.5" y="842.5737"/><text fill="#000000" font-family="sans-serif" font-size="12" lengthAdjust="spacingAndGlyphs" textLength="69" x="342.5" y="863.7124">return root</text><ellipse cx="377" cy="906.5425" fill="none" filter="url(#f3qpul37pzr1e)" rx="10" ry="10" style="stroke: #000000; stroke-width: 1.0;"/><ellipse cx="377.5" cy="907.0425" fill="#000000" filter="url(#f3qpul37pzr1e)" rx="6" ry="6" style="stroke: none; stroke-width: 1.0;"/><polygon fill="#FEFECE" filter="url(#f3qpul37pzr1e)" points="362.5,729.3901,391.5,729.3901,403.5,741.3901,391.5,753.3901,362.5,753.3901,350.5,741.3901,362.5,729.3901" style="stroke: #A80036; stroke-width: 1.5;"/><text fill="#000000" font-family="sans-serif" font-size="11" lengthAdjust="spacingAndGlyphs" textLength="20" x="381" y="763.6006">yes</text><text fill="#000000" font-family="sans-serif" font-size="11" lengthAdjust="spacingAndGlyphs" textLength="29" x="362.5" y="745.1982">root?</text><text fill="#000000" font-family="sans-serif" font-size="11" lengthAdjust="spacingAndGlyphs" textLength="14" x="403.5" y="738.7959">no</text><polygon fill="#FEFECE" filter="url(#f3qpul37pzr1e)" points="261,627.019,493,627.019,505,639.019,493,651.019,261,651.019,249,639.019,261,627.019" style="stroke: #A80036; stroke-width: 1.5;"/><text fill="#000000" font-family="sans-serif" font-size="11" lengthAdjust="spacingAndGlyphs" textLength="20" x="381" y="661.2295">yes</text><text fill="#000000" font-family="sans-serif" font-size="11" lengthAdjust="spacingAndGlyphs" textLength="232" x="261" y="642.8271">is PrefixEntry.getKey() a subset of word?</text><text fill="#000000" font-family="sans-serif" font-size="11" lengthAdjust="spacingAndGlyphs" textLength="14" x="505" y="636.4248">no</text><polygon fill="#FEFECE" filter="url(#f3qpul37pzr1e)" points="377,958.5425,389,970.5425,377,982.5425,365,970.5425,377,958.5425" style="stroke: #A80036; stroke-width: 1.5;"/><polygon fill="#FEFECE" filter="url(#f3qpul37pzr1e)" points="284.5,566.2144,469.5,566.2144,481.5,578.2144,469.5,590.2144,284.5,590.2144,272.5,578.2144,284.5,566.2144" style="stroke: #A80036; stroke-width: 1.5;"/><text fill="#000000" font-family="sans-serif" font-size="11" lengthAdjust="spacingAndGlyphs" textLength="20" x="381" y="600.4248">yes</text><text fill="#000000" font-family="sans-serif" font-size="11" lengthAdjust="spacingAndGlyphs" textLength="185" x="284.5" y="582.0225">iterate non-zero-length prefixes?</text><text fill="#000000" font-family="sans-serif" font-size="11" lengthAdjust="spacingAndGlyphs" textLength="14" x="258.5" y="575.6201">no</text><ellipse cx="215" cy="624.2144" fill="none" filter="url(#f3qpul37pzr1e)" rx="10" ry="10" style="stroke: #000000; stroke-width: 1.0;"/><ellipse cx="215.5" cy="624.7144" fill="#000000" filter="url(#f3qpul37pzr1e)" rx="6" ry="6" style="stroke: none; stroke-width: 1.0;"/><line style="stroke: #A80036; stroke-width: 1.5;" x1="377" x2="377" y1="110.5586" y2="148.2578"/><polygon fill="#A80036" points="373,138.2578,377,148.2578,381,138.2578,377,142.2578" style="stroke: #A80036; stroke-width: 1.0;"/><line style="stroke: #A80036; stroke-width: 1.5;" x1="377" x2="377" y1="408.2456" y2="428.2456"/><polygon fill="#A80036" points="373,418.2456,377,428.2456,381,418.2456,377,422.2456" style="stroke: #A80036; stroke-width: 1.0;"/><line style="stroke: #A80036; stroke-width: 1.5;" x1="377" x2="377" y1="462.2144" y2="482.2144"/><polygon fill="#A80036" points="373,472.2144,377,482.2144,381,472.2144,377,476.2144" style="stroke: #A80036; stroke-width: 1.0;"/><line style="stroke: #A80036; stroke-width: 1.5;" x1="377" x2="377" y1="349.8745" y2="374.2769"/><polygon fill="#A80036" points="373,364.2769,377,374.2769,381,364.2769,377,368.2769" style="stroke: #A80036; stroke-width: 1.0;"/><line style="stroke: #A80036; stroke-width: 1.5;" x1="403.5" x2="526" y1="337.8745" y2="337.8745"/><line style="stroke: #A80036; stroke-width: 1.5;" x1="526" x2="526" y1="228.1953" y2="337.8745"/><line style="stroke: #A80036; stroke-width: 1.5;" x1="526" x2="469" y1="228.1953" y2="228.1953"/><polygon fill="#A80036" points="479,224.1953,469,228.1953,479,232.1953,475,228.1953" style="stroke: #A80036; stroke-width: 1.0;"/><line style="stroke: #A80036; stroke-width: 1.5;" x1="377" x2="377" y1="305.8745" y2="325.8745"/><polygon fill="#A80036" points="373,315.8745,377,325.8745,381,315.8745,377,319.8745" style="stroke: #A80036; stroke-width: 1.0;"/><line style="stroke: #A80036; stroke-width: 1.5;" x1="377" x2="377" y1="240.1953" y2="271.9058"/><polygon fill="#A80036" points="373,261.9058,377,271.9058,381,261.9058,377,265.9058" style="stroke: #A80036; stroke-width: 1.0;"/><line style="stroke: #A80036; stroke-width: 1.5;" x1="285" x2="235" y1="228.1953" y2="228.1953"/><polygon fill="#A80036" points="231,387.3589,235,397.3589,239,387.3589,235,391.3589" style="stroke: #A80036; stroke-width: 1.5;"/><line style="stroke: #A80036; stroke-width: 1.5;" x1="235" x2="235" y1="228.1953" y2="546.2144"/><line style="stroke: #A80036; stroke-width: 1.5;" x1="235" x2="377" y1="546.2144" y2="546.2144"/><line style="stroke: #A80036; stroke-width: 1.5;" x1="377" x2="377" y1="546.2144" y2="566.2144"/><polygon fill="#A80036" points="373,556.2144,377,566.2144,381,556.2144,377,560.2144" style="stroke: #A80036; stroke-width: 1.0;"/><line style="stroke: #A80036; stroke-width: 1.5;" x1="377" x2="377" y1="196.1953" y2="216.1953"/><polygon fill="#A80036" points="373,206.1953,377,216.1953,381,206.1953,377,210.1953" style="stroke: #A80036; stroke-width: 1.0;"/><line style="stroke: #A80036; stroke-width: 1.5;" x1="377" x2="377" y1="811.7612" y2="842.5737"/><polygon fill="#A80036" points="373,832.5737,377,842.5737,381,832.5737,377,836.5737" style="stroke: #A80036; stroke-width: 1.0;"/><line style="stroke: #A80036; stroke-width: 1.5;" x1="377" x2="377" y1="876.5425" y2="896.5425"/><polygon fill="#A80036" points="373,886.5425,377,896.5425,381,886.5425,377,890.5425" style="stroke: #A80036; stroke-width: 1.0;"/><line style="stroke: #A80036; stroke-width: 1.5;" x1="377" x2="377" y1="753.3901" y2="777.7925"/><polygon fill="#A80036" points="373,767.7925,377,777.7925,381,767.7925,377,771.7925" style="stroke: #A80036; stroke-width: 1.0;"/><line style="stroke: #A80036; stroke-width: 1.5;" x1="403.5" x2="475" y1="741.3901" y2="741.3901"/><polygon fill="#A80036" points="471,839.5737,475,849.5737,479,839.5737,475,843.5737" style="stroke: #A80036; stroke-width: 1.5;"/><line style="stroke: #A80036; stroke-width: 1.5;" x1="475" x2="475" y1="741.3901" y2="938.5425"/><line style="stroke: #A80036; stroke-width: 1.5;" x1="475" x2="377" y1="938.5425" y2="938.5425"/><line style="stroke: #A80036; stroke-width: 1.5;" x1="377" x2="377" y1="938.5425" y2="958.5425"/><polygon fill="#A80036" points="373,948.5425,377,958.5425,381,948.5425,377,952.5425" style="stroke: #A80036; stroke-width: 1.0;"/><line style="stroke: #A80036; stroke-width: 1.5;" x1="377" x2="377" y1="709.3901" y2="729.3901"/><polygon fill="#A80036" points="373,719.3901,377,729.3901,381,719.3901,377,723.3901" style="stroke: #A80036; stroke-width: 1.0;"/><line style="stroke: #A80036; stroke-width: 1.5;" x1="377" x2="377" y1="651.019" y2="675.4214"/><polygon fill="#A80036" points="373,665.4214,377,675.4214,381,665.4214,377,669.4214" style="stroke: #A80036; stroke-width: 1.0;"/><line style="stroke: #A80036; stroke-width: 1.5;" x1="505" x2="517" y1="639.019" y2="639.019"/><polygon fill="#A80036" points="513,803.2769,517,813.2769,521,803.2769,517,807.2769" style="stroke: #A80036; stroke-width: 1.5;"/><line style="stroke: #A80036; stroke-width: 1.5;" x1="517" x2="517" y1="639.019" y2="970.5425"/><line style="stroke: #A80036; stroke-width: 1.5;" x1="517" x2="389" y1="970.5425" y2="970.5425"/><polygon fill="#A80036" points="399,966.5425,389,970.5425,399,974.5425,395,970.5425" style="stroke: #A80036; stroke-width: 1.0;"/><line style="stroke: #A80036; stroke-width: 1.5;" x1="377" x2="377" y1="590.2144" y2="627.019"/><polygon fill="#A80036" points="373,617.019,377,627.019,381,617.019,377,621.019" style="stroke: #A80036; stroke-width: 1.0;"/><line style="stroke: #A80036; stroke-width: 1.5;" x1="377" x2="377" y1="982.5425" y2="992.5425"/><line style="stroke: #A80036; stroke-width: 1.5;" x1="377" x2="535" y1="992.5425" y2="992.5425"/><polygon fill="#A80036" points="531,804.8745,535,794.8745,539,804.8745,535,800.8745" style="stroke: #A80036; stroke-width: 1.5;"/><line style="stroke: #A80036; stroke-width: 1.5;" x1="535" x2="535" y1="578.2144" y2="992.5425"/><line style="stroke: #A80036; stroke-width: 1.5;" x1="535" x2="481.5" y1="578.2144" y2="578.2144"/><polygon fill="#A80036" points="491.5,574.2144,481.5,578.2144,491.5,582.2144,487.5,578.2144" style="stroke: #A80036; stroke-width: 1.0;"/><line style="stroke: #A80036; stroke-width: 1.5;" x1="272.5" x2="215" y1="578.2144" y2="578.2144"/><line style="stroke: #A80036; stroke-width: 1.5;" x1="215" x2="215" y1="578.2144" y2="614.2144"/><polygon fill="#A80036" points="211,604.2144,215,614.2144,219,604.2144,215,608.2144" style="stroke: #A80036; stroke-width: 1.0;"/><!--
@startuml
skinparam backgroundcolor White|White

title Hunspell - AffixMgr::prefix_check_twosfx(word)\n"check word for prefixes and two-level suffixes"\n

start
floating note: When called from affix_check(word) default is\nalways used for in_compound, needflag.\nReturn NULL is implied.

#silver:reset compound helpers\npfx, sfxappnd, sfxextra;
while (iterate zero-length prefixes?) is (yes)
	#limegreen:root = PrefixEntry::check_twosfx(word);
	if (root?) then (yes)
		#silver:do not set any compound helpers;
		:return root;
		stop
	else (no)
	endif
endwhile (no)

while (iterate non-zero-length prefixes?) is (yes)
	floating note: getKey returns appnd,\nsubset is tested with\nAffixMgr::isSubset
	if (is PrefixEntry.getKey() a subset of word?) then (yes)
		#limegreen:root = PrefixEntry::check_twosfx(word);
		if (root?) then (yes)
			#silver:set compound helper pfx;
			:return root;
			stop
		else (no)
		endif
	else (no)
	endif
endwhile (no)

stop

@enduml

PlantUML version 1.2018.12beta2(Unknown compile time)
(GPL source distribution)
Java Runtime: OpenJDK Runtime Environment
JVM: OpenJDK 64-Bit Server VM
Java Version: 10.0.2+13-Ubuntu-1ubuntu0.18.04.2
Operating System: Linux
OS Version: 4.15.0-34-generic
Default Encoding: UTF-8
Language: en
Country: US
--></g></svg>