<?xml version="1.0" encoding="UTF-8" standalone="no"?><svg xmlns="http://www.w3.org/2000/svg" xmlns:xlink="http://www.w3.org/1999/xlink" contentScriptType="application/ecmascript" contentStyleType="text/css" height="1003px" preserveAspectRatio="none" style="width:566px;height:1003px;" version="1.1" viewBox="0 0 566 1003" width="566px" zoomAndPan="magnify"><defs><linearGradient id="g3qpul37pzr1e0" x1="0%" x2="100%" y1="50%" y2="50%"><stop offset="0%" stop-color="#FFFFFF"/><stop offset="100%" stop-color="#FFFFFF"/></linearGradient><filter height="300%" id="f3qpul37pzr1e" width="300%" x="-1" y="-1"><feGaussianBlur result="blurOut" stdDeviation="2.0"/><feColorMatrix in="blurOut" result="blurOut2" type="matrix" values="0 0 0 0 0 0 0 0 0 0 0 0 0 0 0 0 0 0 .4 0"/><feOffset dx="4.0" dy="4.0" in="blurOut2" result="blurOut3"/><feBlend in="SourceGraphic" in2="blurOut3" mode="normal"/></filter></defs><g><rect fill="url(#g3qpul37pzr1e0)" height="1003" style="stroke: none; stroke-width: 1.0;" width="566" x="0" y="0"/><text fill="#000000" font-family="sans-serif" font-size="18" lengthAdjust="spacingAndGlyphs" textLength="420" x="72" y="26.708">Hunspell - AffixMgr::prefix_check_twosfx(word)</text><text fill="#000000" font-family="sans-serif" font-size="18" lengthAdjust="spacingAndGlyphs" textLength="427" x="68.5" y="47.6611">"check word for prefixes and two-level suffixes"</text><text fill="#000000" font-family="sans-serif" font-size="18" lengthAdjust="spacingAndGlyphs" textLength="0" x="285" y="68.6143"/><path d="M25.5,72.8594 L25.5,128.2578 L347.5,128.2578 L347.5,82.8594 L337.5,72.8594 L25.5,72.8594 " fill="#FBFB77" filter="url(#f3qpul37pzr1e)" style="stroke: #A80036; stroke-width: 1.0;"/><path d="M337.5,72.8594 L337.5,82.8594 L347.5,82.8594 L337.5,72.8594 " fill="#FBFB77" style="stroke: #A80036; stroke-width: 1.0;"/><text fill="#000000" font-family="sans-serif" font-size="13" lengthAdjust="spacingAndGlyphs" textLength="301" x="31.5" y="89.9263">When called from affix_check(word) default is</text><text fill="#000000" font-family="sans-serif" font-size="13" lengthAdjust="spacingAndGlyphs" textLength="263" x="31.5" y="105.0591">always used for in_compound, needflag.</text><text fill="#000000" font-family="sans-serif" font-size="13" lengthAdjust="spacingAndGlyphs" textLength="153" x="31.5" y="120.1919">Return NULL is implied.</text><ellipse cx="377.5" cy="100.5586" fill="#000000" filter="url(#f3qpul37pzr1e)" rx="10" ry="10" style="stroke: none; stroke-width: 1.0;"/><rect fill="#C0C0C0" filter="url(#f3qpul37pzr1e)" height="47.9375" rx="12.5" ry="12.5" style="stroke: #A80036; stroke-width: 1.5;" width="167" x="294" y="141.6919"/><text fill="#000000" font-family="sans-serif" font-size="12" lengthAdjust="spacingAndGlyphs" textLength="147" x="304" y="162.8306">reset compound helpers</text><text fill="#000000" font-family="sans-serif" font-size="12" lengthAdjust="spacingAndGlyphs" textLength="139" x="304" y="176.7993">pfx, sfxappnd, sfxextra</text><rect fill="#32CD32" filter="url(#f3qpul37pzr1e)" height="33.9688" rx="12.5" ry="12.5" style="stroke: #A80036; stroke-width: 1.5;" width="257" x="249" y="265.3398"/><text fill="#000000" font-family="sans-serif" font-size="12" lengthAdjust="spacingAndGlyphs" textLength="237" x="259" y="286.4785">root = PrefixEntry::check_twosfx(word)</text><rect fill="#C0C0C0" filter="url(#f3qpul37pzr1e)" height="33.9688" rx="12.5" ry="12.5" style="stroke: #A80036; stroke-width: 1.5;" width="224" x="265.5" y="367.7109"/><text fill="#000000" font-family="sans-serif" font-size="12" lengthAdjust="spacingAndGlyphs" textLength="204" x="275.5" y="388.8496">do not set any compound helpers</text><rect fill="#FEFECE" filter="url(#f3qpul37pzr1e)" height="33.9688" rx="12.5" ry="12.5" style="stroke: #A80036; stroke-width: 1.5;" width="86" x="334.5" y="421.6797"/><text fill="#000000" font-family="sans-serif" font-size="12" lengthAdjust="spacingAndGlyphs" textLength="66" x="344.5" y="442.8184">return root</text><ellipse cx="377.5" cy="485.6484" fill="none" filter="url(#f3qpul37pzr1e)" rx="10" ry="10" style="stroke: #000000; stroke-width: 1.0;"/><ellipse cx="378" cy="486.1484" fill="#000000" filter="url(#f3qpul37pzr1e)" rx="6" ry="6" style="stroke: none; stroke-width: 1.0;"/><polygon fill="#FEFECE" filter="url(#f3qpul37pzr1e)" points="363,319.3086,392,319.3086,404,331.3086,392,343.3086,363,343.3086,351,331.3086,363,319.3086" style="stroke: #A80036; stroke-width: 1.5;"/><text fill="#000000" font-family="sans-serif" font-size="11" lengthAdjust="spacingAndGlyphs" textLength="20" x="381.5" y="353.519">yes</text><text fill="#000000" font-family="sans-serif" font-size="11" lengthAdjust="spacingAndGlyphs" textLength="29" x="363" y="335.1167">root?</text><text fill="#000000" font-family="sans-serif" font-size="11" lengthAdjust="spacingAndGlyphs" textLength="14" x="404" y="328.7144">no</text><polygon fill="#FEFECE" filter="url(#f3qpul37pzr1e)" points="297,209.6294,458,209.6294,470,221.6294,458,233.6294,297,233.6294,285,221.6294,297,209.6294" style="stroke: #A80036; stroke-width: 1.5;"/><text fill="#000000" font-family="sans-serif" font-size="11" lengthAdjust="spacingAndGlyphs" textLength="20" x="381.5" y="243.8398">yes</text><text fill="#000000" font-family="sans-serif" font-size="11" lengthAdjust="spacingAndGlyphs" textLength="161" x="297" y="225.4375">iterate zero-length prefixes?</text><text fill="#000000" font-family="sans-serif" font-size="11" lengthAdjust="spacingAndGlyphs" textLength="14" x="271" y="219.0352">no</text><path d="M10,760.6094 L10,816.0078 L175,816.0078 L175,770.6094 L165,760.6094 L10,760.6094 " fill="#FBFB77" filter="url(#f3qpul37pzr1e)" style="stroke: #A80036; stroke-width: 1.0;"/><path d="M165,760.6094 L165,770.6094 L175,770.6094 L165,760.6094 " fill="#FBFB77" style="stroke: #A80036; stroke-width: 1.0;"/><text fill="#000000" font-family="sans-serif" font-size="13" lengthAdjust="spacingAndGlyphs" textLength="144" x="16" y="777.6763">getKey returns appnd,</text><text fill="#000000" font-family="sans-serif" font-size="13" lengthAdjust="spacingAndGlyphs" textLength="135" x="16" y="792.8091">subset is tested with</text><text fill="#000000" font-family="sans-serif" font-size="13" lengthAdjust="spacingAndGlyphs" textLength="118" x="16" y="807.9419">AffixMgr::isSubset</text><rect fill="#32CD32" filter="url(#f3qpul37pzr1e)" height="33.9688" rx="12.5" ry="12.5" style="stroke: #A80036; stroke-width: 1.5;" width="257" x="249" y="668.8555"/><text fill="#000000" font-family="sans-serif" font-size="12" lengthAdjust="spacingAndGlyphs" textLength="237" x="259" y="689.9941">root = PrefixEntry::check_twosfx(word)</text><rect fill="#C0C0C0" filter="url(#f3qpul37pzr1e)" height="33.9688" rx="12.5" ry="12.5" style="stroke: #A80036; stroke-width: 1.5;" width="172" x="291.5" y="771.2266"/><text fill="#000000" font-family="sans-serif" font-size="12" lengthAdjust="spacingAndGlyphs" textLength="152" x="301.5" y="792.3652">set compound helper pfx</text><rect fill="#FEFECE" filter="url(#f3qpul37pzr1e)" height="33.9688" rx="12.5" ry="12.5" style="stroke: #A80036; stroke-width: 1.5;" width="86" x="334.5" y="829.4419"/><text fill="#000000" font-family="sans-serif" font-size="12" lengthAdjust="spacingAndGlyphs" textLength="66" x="344.5" y="850.5806">return root</text><ellipse cx="377.5" cy="893.4106" fill="none" filter="url(#f3qpul37pzr1e)" rx="10" ry="10" style="stroke: #000000; stroke-width: 1.0;"/><ellipse cx="378" cy="893.9106" fill="#000000" filter="url(#f3qpul37pzr1e)" rx="6" ry="6" style="stroke: none; stroke-width: 1.0;"/><polygon fill="#FEFECE" filter="url(#f3qpul37pzr1e)" points="363,722.8242,392,722.8242,404,734.8242,392,746.8242,363,746.8242,351,734.8242,363,722.8242" style="stroke: #A80036; stroke-width: 1.5;"/><text fill="#000000" font-family="sans-serif" font-size="11" lengthAdjust="spacingAndGlyphs" textLength="20" x="381.5" y="757.0347">yes</text><text fill="#000000" font-family="sans-serif" font-size="11" lengthAdjust="spacingAndGlyphs" textLength="29" x="363" y="738.6323">root?</text><text fill="#000000" font-family="sans-serif" font-size="11" lengthAdjust="spacingAndGlyphs" textLength="14" x="404" y="732.23">no</text><polygon fill="#FEFECE" filter="url(#f3qpul37pzr1e)" points="261.5,620.4531,493.5,620.4531,505.5,632.4531,493.5,644.4531,261.5,644.4531,249.5,632.4531,261.5,620.4531" style="stroke: #A80036; stroke-width: 1.5;"/><text fill="#000000" font-family="sans-serif" font-size="11" lengthAdjust="spacingAndGlyphs" textLength="20" x="381.5" y="654.6636">yes</text><text fill="#000000" font-family="sans-serif" font-size="11" lengthAdjust="spacingAndGlyphs" textLength="232" x="261.5" y="636.2612">is PrefixEntry.getKey() a subset of word?</text><text fill="#000000" font-family="sans-serif" font-size="11" lengthAdjust="spacingAndGlyphs" textLength="14" x="505.5" y="629.8589">no</text><polygon fill="#FEFECE" filter="url(#f3qpul37pzr1e)" points="377.5,945.4106,389.5,957.4106,377.5,969.4106,365.5,957.4106,377.5,945.4106" style="stroke: #A80036; stroke-width: 1.5;"/><polygon fill="#FEFECE" filter="url(#f3qpul37pzr1e)" points="284.5,559.6484,470.5,559.6484,482.5,571.6484,470.5,583.6484,284.5,583.6484,272.5,571.6484,284.5,559.6484" style="stroke: #A80036; stroke-width: 1.5;"/><text fill="#000000" font-family="sans-serif" font-size="11" lengthAdjust="spacingAndGlyphs" textLength="20" x="381.5" y="593.8589">yes</text><text fill="#000000" font-family="sans-serif" font-size="11" lengthAdjust="spacingAndGlyphs" textLength="186" x="284.5" y="575.4565">iterate non-zero-length prefixes?</text><text fill="#000000" font-family="sans-serif" font-size="11" lengthAdjust="spacingAndGlyphs" textLength="14" x="258.5" y="569.0542">no</text><ellipse cx="229" cy="617.6484" fill="none" filter="url(#f3qpul37pzr1e)" rx="10" ry="10" style="stroke: #000000; stroke-width: 1.0;"/><ellipse cx="229.5" cy="618.1484" fill="#000000" filter="url(#f3qpul37pzr1e)" rx="6" ry="6" style="stroke: none; stroke-width: 1.0;"/><line style="stroke: #A80036; stroke-width: 1.5;" x1="377.5" x2="377.5" y1="110.5586" y2="141.6919"/><polygon fill="#A80036" points="373.5,131.6919,377.5,141.6919,381.5,131.6919,377.5,135.6919" style="stroke: #A80036; stroke-width: 1.0;"/><line style="stroke: #A80036; stroke-width: 1.5;" x1="377.5" x2="377.5" y1="401.6797" y2="421.6797"/><polygon fill="#A80036" points="373.5,411.6797,377.5,421.6797,381.5,411.6797,377.5,415.6797" style="stroke: #A80036; stroke-width: 1.0;"/><line style="stroke: #A80036; stroke-width: 1.5;" x1="377.5" x2="377.5" y1="455.6484" y2="475.6484"/><polygon fill="#A80036" points="373.5,465.6484,377.5,475.6484,381.5,465.6484,377.5,469.6484" style="stroke: #A80036; stroke-width: 1.0;"/><line style="stroke: #A80036; stroke-width: 1.5;" x1="377.5" x2="377.5" y1="343.3086" y2="367.7109"/><polygon fill="#A80036" points="373.5,357.7109,377.5,367.7109,381.5,357.7109,377.5,361.7109" style="stroke: #A80036; stroke-width: 1.0;"/><line style="stroke: #A80036; stroke-width: 1.5;" x1="404" x2="523.5" y1="331.3086" y2="331.3086"/><line style="stroke: #A80036; stroke-width: 1.5;" x1="523.5" x2="523.5" y1="221.6294" y2="331.3086"/><line style="stroke: #A80036; stroke-width: 1.5;" x1="523.5" x2="470" y1="221.6294" y2="221.6294"/><polygon fill="#A80036" points="480,217.6294,470,221.6294,480,225.6294,476,221.6294" style="stroke: #A80036; stroke-width: 1.0;"/><line style="stroke: #A80036; stroke-width: 1.5;" x1="377.5" x2="377.5" y1="299.3086" y2="319.3086"/><polygon fill="#A80036" points="373.5,309.3086,377.5,319.3086,381.5,309.3086,377.5,313.3086" style="stroke: #A80036; stroke-width: 1.0;"/><line style="stroke: #A80036; stroke-width: 1.5;" x1="377.5" x2="377.5" y1="233.6294" y2="265.3398"/><polygon fill="#A80036" points="373.5,255.3398,377.5,265.3398,381.5,255.3398,377.5,259.3398" style="stroke: #A80036; stroke-width: 1.0;"/><line style="stroke: #A80036; stroke-width: 1.5;" x1="285" x2="237" y1="221.6294" y2="221.6294"/><polygon fill="#A80036" points="233,380.793,237,390.793,241,380.793,237,384.793" style="stroke: #A80036; stroke-width: 1.5;"/><line style="stroke: #A80036; stroke-width: 1.5;" x1="237" x2="237" y1="221.6294" y2="539.6484"/><line style="stroke: #A80036; stroke-width: 1.5;" x1="237" x2="377.5" y1="539.6484" y2="539.6484"/><line style="stroke: #A80036; stroke-width: 1.5;" x1="377.5" x2="377.5" y1="539.6484" y2="559.6484"/><polygon fill="#A80036" points="373.5,549.6484,377.5,559.6484,381.5,549.6484,377.5,553.6484" style="stroke: #A80036; stroke-width: 1.0;"/><line style="stroke: #A80036; stroke-width: 1.5;" x1="377.5" x2="377.5" y1="189.6294" y2="209.6294"/><polygon fill="#A80036" points="373.5,199.6294,377.5,209.6294,381.5,199.6294,377.5,203.6294" style="stroke: #A80036; stroke-width: 1.0;"/><line style="stroke: #A80036; stroke-width: 1.5;" x1="377.5" x2="377.5" y1="805.1953" y2="829.4419"/><polygon fill="#A80036" points="373.5,819.4419,377.5,829.4419,381.5,819.4419,377.5,823.4419" style="stroke: #A80036; stroke-width: 1.0;"/><line style="stroke: #A80036; stroke-width: 1.5;" x1="377.5" x2="377.5" y1="863.4106" y2="883.4106"/><polygon fill="#A80036" points="373.5,873.4106,377.5,883.4106,381.5,873.4106,377.5,877.4106" style="stroke: #A80036; stroke-width: 1.0;"/><line style="stroke: #A80036; stroke-width: 1.5;" x1="377.5" x2="377.5" y1="746.8242" y2="771.2266"/><polygon fill="#A80036" points="373.5,761.2266,377.5,771.2266,381.5,761.2266,377.5,765.2266" style="stroke: #A80036; stroke-width: 1.0;"/><line style="stroke: #A80036; stroke-width: 1.5;" x1="404" x2="473.5" y1="734.8242" y2="734.8242"/><polygon fill="#A80036" points="469.5,826.4419,473.5,836.4419,477.5,826.4419,473.5,830.4419" style="stroke: #A80036; stroke-width: 1.5;"/><line style="stroke: #A80036; stroke-width: 1.5;" x1="473.5" x2="473.5" y1="734.8242" y2="925.4106"/><line style="stroke: #A80036; stroke-width: 1.5;" x1="473.5" x2="377.5" y1="925.4106" y2="925.4106"/><line style="stroke: #A80036; stroke-width: 1.5;" x1="377.5" x2="377.5" y1="925.4106" y2="945.4106"/><polygon fill="#A80036" points="373.5,935.4106,377.5,945.4106,381.5,935.4106,377.5,939.4106" style="stroke: #A80036; stroke-width: 1.0;"/><line style="stroke: #A80036; stroke-width: 1.5;" x1="377.5" x2="377.5" y1="702.8242" y2="722.8242"/><polygon fill="#A80036" points="373.5,712.8242,377.5,722.8242,381.5,712.8242,377.5,716.8242" style="stroke: #A80036; stroke-width: 1.0;"/><line style="stroke: #A80036; stroke-width: 1.5;" x1="377.5" x2="377.5" y1="644.4531" y2="668.8555"/><polygon fill="#A80036" points="373.5,658.8555,377.5,668.8555,381.5,658.8555,377.5,662.8555" style="stroke: #A80036; stroke-width: 1.0;"/><line style="stroke: #A80036; stroke-width: 1.5;" x1="505.5" x2="517.5" y1="632.4531" y2="632.4531"/><polygon fill="#A80036" points="513.5,796.7109,517.5,806.7109,521.5,796.7109,517.5,800.7109" style="stroke: #A80036; stroke-width: 1.5;"/><line style="stroke: #A80036; stroke-width: 1.5;" x1="517.5" x2="517.5" y1="632.4531" y2="957.4106"/><line style="stroke: #A80036; stroke-width: 1.5;" x1="517.5" x2="389.5" y1="957.4106" y2="957.4106"/><polygon fill="#A80036" points="399.5,953.4106,389.5,957.4106,399.5,961.4106,395.5,957.4106" style="stroke: #A80036; stroke-width: 1.0;"/><line style="stroke: #A80036; stroke-width: 1.5;" x1="377.5" x2="377.5" y1="583.6484" y2="620.4531"/><polygon fill="#A80036" points="373.5,610.4531,377.5,620.4531,381.5,610.4531,377.5,614.4531" style="stroke: #A80036; stroke-width: 1.0;"/><line style="stroke: #A80036; stroke-width: 1.5;" x1="377.5" x2="377.5" y1="969.4106" y2="979.4106"/><line style="stroke: #A80036; stroke-width: 1.5;" x1="377.5" x2="540" y1="979.4106" y2="979.4106"/><polygon fill="#A80036" points="536,798.3086,540,788.3086,544,798.3086,540,794.3086" style="stroke: #A80036; stroke-width: 1.5;"/><line style="stroke: #A80036; stroke-width: 1.5;" x1="540" x2="540" y1="571.6484" y2="979.4106"/><line style="stroke: #A80036; stroke-width: 1.5;" x1="540" x2="482.5" y1="571.6484" y2="571.6484"/><polygon fill="#A80036" points="492.5,567.6484,482.5,571.6484,492.5,575.6484,488.5,571.6484" style="stroke: #A80036; stroke-width: 1.0;"/><line style="stroke: #A80036; stroke-width: 1.5;" x1="272.5" x2="229" y1="571.6484" y2="571.6484"/><line style="stroke: #A80036; stroke-width: 1.5;" x1="229" x2="229" y1="571.6484" y2="607.6484"/><polygon fill="#A80036" points="225,597.6484,229,607.6484,233,597.6484,229,601.6484" style="stroke: #A80036; stroke-width: 1.0;"/><!--
@startuml
skinparam backgroundcolor White|White

title Hunspell - AffixMgr::prefix_check_twosfx(word)\n"check word for prefixes and two-level suffixes"\n

start
floating note: When called from affix_check(word) default is\nalways used for in_compound, needflag.\nReturn NULL is implied.

#silver:reset compound helpers\npfx, sfxappnd, sfxextra;
while (iterate zero-length prefixes?) is (yes)
	#limegreen:root = PrefixEntry::check_twosfx(word);
	if (root?) then (yes)
		#silver:do not set any compound helpers;
		:return root;
		stop
	else (no)
	endif
endwhile (no)

while (iterate non-zero-length prefixes?) is (yes)
	floating note: getKey returns appnd,\nsubset is tested with\nAffixMgr::isSubset
	if (is PrefixEntry.getKey() a subset of word?) then (yes)
		#limegreen:root = PrefixEntry::check_twosfx(word);
		if (root?) then (yes)
			#silver:set compound helper pfx;
			:return root;
			stop
		else (no)
		endif
	else (no)
	endif
endwhile (no)

stop

@enduml

PlantUML version 1.2018.01(Sun Jan 28 19:08:22 CET 2018)
(GPL source distribution)
Java Runtime: OpenJDK Runtime Environment
JVM: OpenJDK 64-Bit Server VM
Java Version: 1.8.0_151-8u151-b12-0ubuntu0.17.10.2-b12
Operating System: Linux
OS Version: 4.13.0-36-generic
Default Encoding: UTF-8
Language: en
Country: US
--></g></svg>