<?xml version="1.0" encoding="UTF-8" standalone="no"?><svg xmlns="http://www.w3.org/2000/svg" xmlns:xlink="http://www.w3.org/1999/xlink" contentScriptType="application/ecmascript" contentStyleType="text/css" height="1519px" preserveAspectRatio="none" style="width:1257px;height:1519px;" version="1.1" viewBox="0 0 1257 1519" width="1257px" zoomAndPan="magnify"><defs><linearGradient id="g1oky22a183dh40" x1="0%" x2="100%" y1="50%" y2="50%"><stop offset="0%" stop-color="#FFFFFF"/><stop offset="100%" stop-color="#FFFFFF"/></linearGradient><filter height="300%" id="f1oky22a183dh4" width="300%" x="-1" y="-1"><feGaussianBlur result="blurOut" stdDeviation="2.0"/><feColorMatrix in="blurOut" result="blurOut2" type="matrix" values="0 0 0 0 0 0 0 0 0 0 0 0 0 0 0 0 0 0 .4 0"/><feOffset dx="4.0" dy="4.0" in="blurOut2" result="blurOut3"/><feBlend in="SourceGraphic" in2="blurOut3" mode="normal"/></filter></defs><g><rect fill="url(#g1oky22a183dh40)" height="1519" style="stroke: none; stroke-width: 1.0;" width="1257" x="0" y="0"/><text fill="#000000" font-family="sans-serif" font-size="18" lengthAdjust="spacingAndGlyphs" textLength="254" x="500.5" y="26.708">Nuspell - Search Dictionaries</text><ellipse cx="628" cy="40.9531" fill="#000000" filter="url(#f1oky22a183dh4)" rx="10" ry="10" style="stroke: none; stroke-width: 1.0;"/><rect fill="#FFFFFF" filter="url(#f1oky22a183dh4)" height="82.2656" style="stroke: #000000; stroke-width: 2.0;" width="140" x="558" y="61.7549"/><path d="M688,62.7549 L688,71.0518 L678,81.0518 L558,81.0518 " fill="none" style="stroke: #000000; stroke-width: 2.0;"/><text fill="#000000" font-family="sans-serif" font-size="14" lengthAdjust="spacingAndGlyphs" textLength="120" x="561" y="75.75">add default paths</text><rect fill="#FEFECE" filter="url(#f1oky22a183dh4)" height="33.9688" rx="12.5" ry="12.5" style="stroke: #A80036; stroke-width: 1.5;" width="54" x="601" y="98.0518"/><text fill="#000000" font-family="sans-serif" font-size="12" lengthAdjust="spacingAndGlyphs" textLength="34" x="611" y="119.1904">TODO</text><rect fill="#FFFFFF" filter="url(#f1oky22a183dh4)" height="376.8511" style="stroke: #000000; stroke-width: 2.0;" width="1222" x="17" y="154.8223"/><path d="M172,155.8223 L172,164.1191 L162,174.1191 L17,174.1191 " fill="none" style="stroke: #000000; stroke-width: 2.0;"/><text fill="#000000" font-family="sans-serif" font-size="14" lengthAdjust="spacingAndGlyphs" textLength="145" x="20" y="168.8174">add LibreOffice paths</text><polygon fill="#FEFECE" filter="url(#f1oky22a183dh4)" points="293,194.1191,333,194.1191,345,206.1191,333,218.1191,293,218.1191,281,206.1191,293,194.1191" style="stroke: #A80036; stroke-width: 1.5;"/><text fill="#000000" font-family="sans-serif" font-size="11" lengthAdjust="spacingAndGlyphs" textLength="20" x="317" y="228.3296">yes</text><text fill="#000000" font-family="sans-serif" font-size="11" lengthAdjust="spacingAndGlyphs" textLength="40" x="293" y="209.9272">POSIX?</text><rect fill="#FEFECE" filter="url(#f1oky22a183dh4)" height="33.9688" rx="12.5" ry="12.5" style="stroke: #A80036; stroke-width: 1.5;" width="136" x="245" y="249.8296"/><text fill="#000000" font-family="sans-serif" font-size="12" lengthAdjust="spacingAndGlyphs" textLength="116" x="255" y="270.9683">omit symbolic links</text><rect fill="#FEFECE" filter="url(#f1oky22a183dh4)" height="33.9688" rx="12.5" ry="12.5" style="stroke: #A80036; stroke-width: 1.5;" width="356" x="135" y="303.7983"/><text fill="#000000" font-family="sans-serif" font-size="12" lengthAdjust="spacingAndGlyphs" textLength="336" x="145" y="324.937">search /usr/local/lib/libreoffice/share/extensions/dict-*</text><rect fill="#FEFECE" filter="url(#f1oky22a183dh4)" height="33.9688" rx="12.5" ry="12.5" style="stroke: #A80036; stroke-width: 1.5;" width="323" x="151.5" y="357.7671"/><text fill="#000000" font-family="sans-serif" font-size="12" lengthAdjust="spacingAndGlyphs" textLength="303" x="161.5" y="378.9058">search /usr/lib/libreoffice/share/extensions/dict-*</text><rect fill="#FEFECE" filter="url(#f1oky22a183dh4)" height="33.9688" rx="12.5" ry="12.5" style="stroke: #A80036; stroke-width: 1.5;" width="312" x="157" y="411.7358"/><text fill="#000000" font-family="sans-serif" font-size="12" lengthAdjust="spacingAndGlyphs" textLength="292" x="167" y="432.8745">search /opt/libreoffice*/share/extensions/dict-*</text><rect fill="#FEFECE" filter="url(#f1oky22a183dh4)" height="33.9688" rx="12.5" ry="12.5" style="stroke: #A80036; stroke-width: 1.5;" width="572" x="27" y="465.7046"/><text fill="#000000" font-family="sans-serif" font-size="12" lengthAdjust="spacingAndGlyphs" textLength="552" x="37" y="486.8433">search $HOME/.config/libreoffice/?/user/uno_packages/cache/uno_packages/*/*.oxt/dict*</text><polygon fill="#FEFECE" filter="url(#f1oky22a183dh4)" points="879,194.1191,919,194.1191,931,206.1191,919,218.1191,879,218.1191,867,206.1191,879,194.1191" style="stroke: #A80036; stroke-width: 1.5;"/><text fill="#000000" font-family="sans-serif" font-size="11" lengthAdjust="spacingAndGlyphs" textLength="20" x="903" y="228.3296">yes</text><text fill="#000000" font-family="sans-serif" font-size="11" lengthAdjust="spacingAndGlyphs" textLength="40" x="879" y="209.9272">WIN32?</text><text fill="#000000" font-family="sans-serif" font-size="11" lengthAdjust="spacingAndGlyphs" textLength="14" x="931" y="203.5249">no</text><rect fill="#FEFECE" filter="url(#f1oky22a183dh4)" height="33.9688" rx="12.5" ry="12.5" style="stroke: #A80036; stroke-width: 1.5;" width="409" x="694.5" y="249.8296"/><text fill="#000000" font-family="sans-serif" font-size="12" lengthAdjust="spacingAndGlyphs" textLength="389" x="704.5" y="270.9683">search %PROGRAMFILES%\LibreOffice ?\share\extensions\dict-*</text><rect fill="#FEFECE" filter="url(#f1oky22a183dh4)" height="33.9688" rx="12.5" ry="12.5" style="stroke: #A80036; stroke-width: 1.5;" width="441" x="678.5" y="303.7983"/><text fill="#000000" font-family="sans-serif" font-size="12" lengthAdjust="spacingAndGlyphs" textLength="421" x="688.5" y="324.937">search %PROGRAMFILES(x86)%\LibreOffice ?\share\extensions\dict-*</text><rect fill="#FEFECE" filter="url(#f1oky22a183dh4)" height="33.9688" rx="12.5" ry="12.5" style="stroke: #A80036; stroke-width: 1.5;" width="560" x="619" y="357.7671"/><text fill="#000000" font-family="sans-serif" font-size="12" lengthAdjust="spacingAndGlyphs" textLength="540" x="629" y="378.9058">search %APPDATA%\libreoffice\?\user\uno_packages\cache\uno_packages\*\*.oxt\dict*</text><rect fill="#FFFFFF" filter="url(#f1oky22a183dh4)" height="484.7886" style="stroke: #000000; stroke-width: 2.0;" width="949" x="153.5" y="542.4751"/><path d="M282.5,543.4751 L282.5,551.772 L272.5,561.772 L153.5,561.772 " fill="none" style="stroke: #000000; stroke-width: 2.0;"/><text fill="#000000" font-family="sans-serif" font-size="14" lengthAdjust="spacingAndGlyphs" textLength="119" x="156.5" y="556.4702">add Mozilla paths</text><polygon fill="#FEFECE" filter="url(#f1oky22a183dh4)" points="329,581.772,369,581.772,381,593.772,369,605.772,329,605.772,317,593.772,329,581.772" style="stroke: #A80036; stroke-width: 1.5;"/><text fill="#000000" font-family="sans-serif" font-size="11" lengthAdjust="spacingAndGlyphs" textLength="20" x="353" y="615.9824">yes</text><text fill="#000000" font-family="sans-serif" font-size="11" lengthAdjust="spacingAndGlyphs" textLength="40" x="329" y="597.5801">POSIX?</text><rect fill="#FEFECE" filter="url(#f1oky22a183dh4)" height="33.9688" rx="12.5" ry="12.5" style="stroke: #A80036; stroke-width: 1.5;" width="136" x="281" y="637.4824"/><text fill="#000000" font-family="sans-serif" font-size="12" lengthAdjust="spacingAndGlyphs" textLength="116" x="291" y="658.6211">omit symbolic links</text><rect fill="#FEFECE" filter="url(#f1oky22a183dh4)" height="33.9688" rx="12.5" ry="12.5" style="stroke: #A80036; stroke-width: 1.5;" width="261" x="218.5" y="691.4512"/><text fill="#000000" font-family="sans-serif" font-size="12" lengthAdjust="spacingAndGlyphs" textLength="241" x="228.5" y="712.5898">search /usr/local/lib/firefox/dictionaries</text><rect fill="#FEFECE" filter="url(#f1oky22a183dh4)" height="33.9688" rx="12.5" ry="12.5" style="stroke: #A80036; stroke-width: 1.5;" width="228" x="235" y="745.4199"/><text fill="#000000" font-family="sans-serif" font-size="12" lengthAdjust="spacingAndGlyphs" textLength="208" x="245" y="766.5586">search /usr/lib/firefox/dictionaries</text><rect fill="#FEFECE" filter="url(#f1oky22a183dh4)" height="33.9688" rx="12.5" ry="12.5" style="stroke: #A80036; stroke-width: 1.5;" width="297" x="200.5" y="799.3887"/><text fill="#000000" font-family="sans-serif" font-size="12" lengthAdjust="spacingAndGlyphs" textLength="277" x="210.5" y="820.5273">search /usr/local/lib/thunderbird/dictionaries</text><rect fill="#FEFECE" filter="url(#f1oky22a183dh4)" height="33.9688" rx="12.5" ry="12.5" style="stroke: #A80036; stroke-width: 1.5;" width="264" x="217" y="853.3574"/><text fill="#000000" font-family="sans-serif" font-size="12" lengthAdjust="spacingAndGlyphs" textLength="244" x="227" y="874.4961">search /usr/lib/thunderbird/dictionaries</text><rect fill="#FEFECE" filter="url(#f1oky22a183dh4)" height="33.9688" rx="12.5" ry="12.5" style="stroke: #A80036; stroke-width: 1.5;" width="371" x="163.5" y="907.3262"/><text fill="#000000" font-family="sans-serif" font-size="12" lengthAdjust="spacingAndGlyphs" textLength="351" x="173.5" y="928.4648">search $HOME/.mozilla/firefox/*/extensions/*/dictionaries</text><rect fill="#FEFECE" filter="url(#f1oky22a183dh4)" height="33.9688" rx="12.5" ry="12.5" style="stroke: #A80036; stroke-width: 1.5;" width="362" x="168" y="961.2949"/><text fill="#000000" font-family="sans-serif" font-size="12" lengthAdjust="spacingAndGlyphs" textLength="342" x="178" y="982.4336">search $HOME/.thunderbird/*/extensions/*/dictionaries</text><polygon fill="#FEFECE" filter="url(#f1oky22a183dh4)" points="778.5,581.772,818.5,581.772,830.5,593.772,818.5,605.772,778.5,605.772,766.5,593.772,778.5,581.772" style="stroke: #A80036; stroke-width: 1.5;"/><text fill="#000000" font-family="sans-serif" font-size="11" lengthAdjust="spacingAndGlyphs" textLength="20" x="802.5" y="615.9824">yes</text><text fill="#000000" font-family="sans-serif" font-size="11" lengthAdjust="spacingAndGlyphs" textLength="40" x="778.5" y="597.5801">WIN32?</text><text fill="#000000" font-family="sans-serif" font-size="11" lengthAdjust="spacingAndGlyphs" textLength="14" x="830.5" y="591.1777">no</text><rect fill="#FEFECE" filter="url(#f1oky22a183dh4)" height="33.9688" rx="12.5" ry="12.5" style="stroke: #A80036; stroke-width: 1.5;" width="347" x="625" y="637.4824"/><text fill="#000000" font-family="sans-serif" font-size="12" lengthAdjust="spacingAndGlyphs" textLength="327" x="635" y="658.6211">search %PROGRAMFILES%\Mozilla Firefox\dictionaries</text><rect fill="#FEFECE" filter="url(#f1oky22a183dh4)" height="33.9688" rx="12.5" ry="12.5" style="stroke: #A80036; stroke-width: 1.5;" width="379" x="609" y="691.4512"/><text fill="#000000" font-family="sans-serif" font-size="12" lengthAdjust="spacingAndGlyphs" textLength="359" x="619" y="712.5898">search %PROGRAMFILES(x86)%\Mozilla Firefox\dictionaries</text><rect fill="#FEFECE" filter="url(#f1oky22a183dh4)" height="33.9688" rx="12.5" ry="12.5" style="stroke: #A80036; stroke-width: 1.5;" width="382" x="607.5" y="745.4199"/><text fill="#000000" font-family="sans-serif" font-size="12" lengthAdjust="spacingAndGlyphs" textLength="362" x="617.5" y="766.5586">search %PROGRAMFILES%\Mozilla Thunderbird\dictionaries</text><rect fill="#FEFECE" filter="url(#f1oky22a183dh4)" height="33.9688" rx="12.5" ry="12.5" style="stroke: #A80036; stroke-width: 1.5;" width="414" x="591.5" y="799.3887"/><text fill="#000000" font-family="sans-serif" font-size="12" lengthAdjust="spacingAndGlyphs" textLength="394" x="601.5" y="820.5273">search %PROGRAMFILES(x86)%\Mozilla Thunderbird\dictionaries</text><rect fill="#FEFECE" filter="url(#f1oky22a183dh4)" height="33.9688" rx="12.5" ry="12.5" style="stroke: #A80036; stroke-width: 1.5;" width="453" x="572" y="853.3574"/><text fill="#000000" font-family="sans-serif" font-size="12" lengthAdjust="spacingAndGlyphs" textLength="433" x="582" y="874.4961">search %APPDATA%\Mozilla\Firefox\Profiles\*\extensions\*\dictionaries</text><rect fill="#FEFECE" filter="url(#f1oky22a183dh4)" height="33.9688" rx="12.5" ry="12.5" style="stroke: #A80036; stroke-width: 1.5;" width="488" x="554.5" y="907.3262"/><text fill="#000000" font-family="sans-serif" font-size="12" lengthAdjust="spacingAndGlyphs" textLength="468" x="564.5" y="928.4648">search %APPDATA%\Mozilla\Thunderbird\Profiles\*\extensions\*\dictionaries</text><rect fill="#FFFFFF" filter="url(#f1oky22a183dh4)" height="376.8511" style="stroke: #000000; stroke-width: 2.0;" width="1236" x="10" y="1038.0654"/><path d="M226,1039.0654 L226,1047.3623 L216,1057.3623 L10,1057.3623 " fill="none" style="stroke: #000000; stroke-width: 2.0;"/><text fill="#000000" font-family="sans-serif" font-size="14" lengthAdjust="spacingAndGlyphs" textLength="206" x="13" y="1052.0605">add Apache OpenOffice paths</text><polygon fill="#FEFECE" filter="url(#f1oky22a183dh4)" points="290.5,1077.3623,330.5,1077.3623,342.5,1089.3623,330.5,1101.3623,290.5,1101.3623,278.5,1089.3623,290.5,1077.3623" style="stroke: #A80036; stroke-width: 1.5;"/><text fill="#000000" font-family="sans-serif" font-size="11" lengthAdjust="spacingAndGlyphs" textLength="20" x="314.5" y="1111.5728">yes</text><text fill="#000000" font-family="sans-serif" font-size="11" lengthAdjust="spacingAndGlyphs" textLength="40" x="290.5" y="1093.1704">POSIX?</text><rect fill="#FEFECE" filter="url(#f1oky22a183dh4)" height="33.9688" rx="12.5" ry="12.5" style="stroke: #A80036; stroke-width: 1.5;" width="136" x="242.5" y="1133.0728"/><text fill="#000000" font-family="sans-serif" font-size="12" lengthAdjust="spacingAndGlyphs" textLength="116" x="252.5" y="1154.2114">omit symbolic links</text><rect fill="#FEFECE" filter="url(#f1oky22a183dh4)" height="33.9688" rx="12.5" ry="12.5" style="stroke: #A80036; stroke-width: 1.5;" width="361" x="130" y="1187.0415"/><text fill="#000000" font-family="sans-serif" font-size="12" lengthAdjust="spacingAndGlyphs" textLength="341" x="140" y="1208.1802">search /usr/local/lib/openoffice/share/extensions/dict-*</text><rect fill="#FEFECE" filter="url(#f1oky22a183dh4)" height="33.9688" rx="12.5" ry="12.5" style="stroke: #A80036; stroke-width: 1.5;" width="328" x="146.5" y="1241.0103"/><text fill="#000000" font-family="sans-serif" font-size="12" lengthAdjust="spacingAndGlyphs" textLength="308" x="156.5" y="1262.1489">search /usr/lib/openoffice/share/extensions/dict-*</text><rect fill="#FEFECE" filter="url(#f1oky22a183dh4)" height="33.9688" rx="12.5" ry="12.5" style="stroke: #A80036; stroke-width: 1.5;" width="317" x="152" y="1294.979"/><text fill="#000000" font-family="sans-serif" font-size="12" lengthAdjust="spacingAndGlyphs" textLength="297" x="162" y="1316.1177">search /opt/openoffice*/share/extensions/dict-*</text><rect fill="#FEFECE" filter="url(#f1oky22a183dh4)" height="33.9688" rx="12.5" ry="12.5" style="stroke: #A80036; stroke-width: 1.5;" width="581" x="20" y="1348.9478"/><text fill="#000000" font-family="sans-serif" font-size="12" lengthAdjust="spacingAndGlyphs" textLength="561" x="30" y="1370.0864">search $HOME//.config/openoffice/?/user/uno_packages/cache/uno_packages/*/*.oxt/dict*</text><polygon fill="#FEFECE" filter="url(#f1oky22a183dh4)" points="883.5,1077.3623,923.5,1077.3623,935.5,1089.3623,923.5,1101.3623,883.5,1101.3623,871.5,1089.3623,883.5,1077.3623" style="stroke: #A80036; stroke-width: 1.5;"/><text fill="#000000" font-family="sans-serif" font-size="11" lengthAdjust="spacingAndGlyphs" textLength="20" x="907.5" y="1111.5728">yes</text><text fill="#000000" font-family="sans-serif" font-size="11" lengthAdjust="spacingAndGlyphs" textLength="40" x="883.5" y="1093.1704">WIN32?</text><text fill="#000000" font-family="sans-serif" font-size="11" lengthAdjust="spacingAndGlyphs" textLength="14" x="935.5" y="1086.7681">no</text><rect fill="#FEFECE" filter="url(#f1oky22a183dh4)" height="33.9688" rx="12.5" ry="12.5" style="stroke: #A80036; stroke-width: 1.5;" width="420" x="693.5" y="1133.0728"/><text fill="#000000" font-family="sans-serif" font-size="12" lengthAdjust="spacingAndGlyphs" textLength="400" x="703.5" y="1154.2114">search %PROGRAMFILES%\OpeneOffice ?\share\extensions\dict-*</text><rect fill="#FEFECE" filter="url(#f1oky22a183dh4)" height="33.9688" rx="12.5" ry="12.5" style="stroke: #A80036; stroke-width: 1.5;" width="444" x="681.5" y="1187.0415"/><text fill="#000000" font-family="sans-serif" font-size="12" lengthAdjust="spacingAndGlyphs" textLength="424" x="691.5" y="1208.1802">search %PROGRAMFILES(x86)%\OpenOffice ?\share\extensions\dict-*</text><rect fill="#FEFECE" filter="url(#f1oky22a183dh4)" height="33.9688" rx="12.5" ry="12.5" style="stroke: #A80036; stroke-width: 1.5;" width="565" x="621" y="1241.0103"/><text fill="#000000" font-family="sans-serif" font-size="12" lengthAdjust="spacingAndGlyphs" textLength="545" x="631" y="1262.1489">search %APPDATA%\openoffice\?\user\uno_packages\cache\uno_packages\*\*.oxt\dict*</text><rect fill="#FEFECE" filter="url(#f1oky22a183dh4)" height="33.9688" rx="12.5" ry="12.5" style="stroke: #A80036; stroke-width: 1.5;" width="195" x="530.5" y="1434.9165"/><text fill="#000000" font-family="sans-serif" font-size="12" lengthAdjust="spacingAndGlyphs" textLength="175" x="540.5" y="1456.0552">search dictionaries in paths</text><ellipse cx="628" cy="1498.8853" fill="none" filter="url(#f1oky22a183dh4)" rx="10" ry="10" style="stroke: #000000; stroke-width: 1.0;"/><ellipse cx="628.5" cy="1499.3853" fill="#000000" filter="url(#f1oky22a183dh4)" rx="6" ry="6" style="stroke: none; stroke-width: 1.0;"/><line style="stroke: #A80036; stroke-width: 1.5;" x1="628" x2="628" y1="50.9531" y2="98.0518"/><polygon fill="#A80036" points="624,88.0518,628,98.0518,632,88.0518,628,92.0518" style="stroke: #A80036; stroke-width: 1.0;"/><line style="stroke: #A80036; stroke-width: 1.5;" x1="313" x2="313" y1="283.7983" y2="303.7983"/><polygon fill="#A80036" points="309,293.7983,313,303.7983,317,293.7983,313,297.7983" style="stroke: #A80036; stroke-width: 1.0;"/><line style="stroke: #A80036; stroke-width: 1.5;" x1="313" x2="313" y1="337.7671" y2="357.7671"/><polygon fill="#A80036" points="309,347.7671,313,357.7671,317,347.7671,313,351.7671" style="stroke: #A80036; stroke-width: 1.0;"/><line style="stroke: #A80036; stroke-width: 1.5;" x1="313" x2="313" y1="391.7358" y2="411.7358"/><polygon fill="#A80036" points="309,401.7358,313,411.7358,317,401.7358,313,405.7358" style="stroke: #A80036; stroke-width: 1.0;"/><line style="stroke: #A80036; stroke-width: 1.5;" x1="313" x2="313" y1="445.7046" y2="465.7046"/><polygon fill="#A80036" points="309,455.7046,313,465.7046,317,455.7046,313,459.7046" style="stroke: #A80036; stroke-width: 1.0;"/><line style="stroke: #A80036; stroke-width: 1.5;" x1="899" x2="899" y1="283.7983" y2="303.7983"/><polygon fill="#A80036" points="895,293.7983,899,303.7983,903,293.7983,899,297.7983" style="stroke: #A80036; stroke-width: 1.0;"/><line style="stroke: #A80036; stroke-width: 1.5;" x1="899" x2="899" y1="337.7671" y2="357.7671"/><polygon fill="#A80036" points="895,347.7671,899,357.7671,903,347.7671,899,351.7671" style="stroke: #A80036; stroke-width: 1.0;"/><line style="stroke: #A80036; stroke-width: 1.5;" x1="313" x2="313" y1="218.1191" y2="249.8296"/><polygon fill="#A80036" points="309,239.8296,313,249.8296,317,239.8296,313,243.8296" style="stroke: #A80036; stroke-width: 1.0;"/><line style="stroke: #A80036; stroke-width: 1.5;" x1="313" x2="313" y1="499.6733" y2="519.6733"/><polygon fill="#A80036" points="309,509.6733,313,519.6733,317,509.6733,313,513.6733" style="stroke: #A80036; stroke-width: 1.0;"/><line style="stroke: #A80036; stroke-width: 1.5;" x1="899" x2="899" y1="218.1191" y2="249.8296"/><polygon fill="#A80036" points="895,239.8296,899,249.8296,903,239.8296,899,243.8296" style="stroke: #A80036; stroke-width: 1.0;"/><line style="stroke: #A80036; stroke-width: 1.5;" x1="899" x2="899" y1="391.7358" y2="519.6733"/><polygon fill="#A80036" points="895,509.6733,899,519.6733,903,509.6733,899,513.6733" style="stroke: #A80036; stroke-width: 1.0;"/><line style="stroke: #A80036; stroke-width: 1.5;" x1="345" x2="867" y1="206.1191" y2="206.1191"/><polygon fill="#A80036" points="857,202.1191,867,206.1191,857,210.1191,861,206.1191" style="stroke: #A80036; stroke-width: 1.0;"/><line style="stroke: #A80036; stroke-width: 1.5;" x1="628" x2="628" y1="132.0205" y2="179.1191"/><line style="stroke: #A80036; stroke-width: 1.5;" x1="628" x2="313" y1="179.1191" y2="179.1191"/><line style="stroke: #A80036; stroke-width: 1.5;" x1="313" x2="313" y1="179.1191" y2="194.1191"/><polygon fill="#A80036" points="309,184.1191,313,194.1191,317,184.1191,313,188.1191" style="stroke: #A80036; stroke-width: 1.0;"/><line style="stroke: #A80036; stroke-width: 1.5;" x1="931" x2="1214" y1="206.1191" y2="206.1191"/><line style="stroke: #A80036; stroke-width: 1.5;" x1="1214" x2="1214" y1="206.1191" y2="519.6733"/><polygon fill="#A80036" points="1210,509.6733,1214,519.6733,1218,509.6733,1214,513.6733" style="stroke: #A80036; stroke-width: 1.0;"/><line style="stroke: #A80036; stroke-width: 1.5;" x1="313" x2="1214" y1="519.6733" y2="519.6733"/><line style="stroke: #A80036; stroke-width: 1.5;" x1="349" x2="349" y1="671.4512" y2="691.4512"/><polygon fill="#A80036" points="345,681.4512,349,691.4512,353,681.4512,349,685.4512" style="stroke: #A80036; stroke-width: 1.0;"/><line style="stroke: #A80036; stroke-width: 1.5;" x1="349" x2="349" y1="725.4199" y2="745.4199"/><polygon fill="#A80036" points="345,735.4199,349,745.4199,353,735.4199,349,739.4199" style="stroke: #A80036; stroke-width: 1.0;"/><line style="stroke: #A80036; stroke-width: 1.5;" x1="349" x2="349" y1="779.3887" y2="799.3887"/><polygon fill="#A80036" points="345,789.3887,349,799.3887,353,789.3887,349,793.3887" style="stroke: #A80036; stroke-width: 1.0;"/><line style="stroke: #A80036; stroke-width: 1.5;" x1="349" x2="349" y1="833.3574" y2="853.3574"/><polygon fill="#A80036" points="345,843.3574,349,853.3574,353,843.3574,349,847.3574" style="stroke: #A80036; stroke-width: 1.0;"/><line style="stroke: #A80036; stroke-width: 1.5;" x1="349" x2="349" y1="887.3262" y2="907.3262"/><polygon fill="#A80036" points="345,897.3262,349,907.3262,353,897.3262,349,901.3262" style="stroke: #A80036; stroke-width: 1.0;"/><line style="stroke: #A80036; stroke-width: 1.5;" x1="349" x2="349" y1="941.2949" y2="961.2949"/><polygon fill="#A80036" points="345,951.2949,349,961.2949,353,951.2949,349,955.2949" style="stroke: #A80036; stroke-width: 1.0;"/><line style="stroke: #A80036; stroke-width: 1.5;" x1="798.5" x2="798.5" y1="671.4512" y2="691.4512"/><polygon fill="#A80036" points="794.5,681.4512,798.5,691.4512,802.5,681.4512,798.5,685.4512" style="stroke: #A80036; stroke-width: 1.0;"/><line style="stroke: #A80036; stroke-width: 1.5;" x1="798.5" x2="798.5" y1="725.4199" y2="745.4199"/><polygon fill="#A80036" points="794.5,735.4199,798.5,745.4199,802.5,735.4199,798.5,739.4199" style="stroke: #A80036; stroke-width: 1.0;"/><line style="stroke: #A80036; stroke-width: 1.5;" x1="798.5" x2="798.5" y1="779.3887" y2="799.3887"/><polygon fill="#A80036" points="794.5,789.3887,798.5,799.3887,802.5,789.3887,798.5,793.3887" style="stroke: #A80036; stroke-width: 1.0;"/><line style="stroke: #A80036; stroke-width: 1.5;" x1="798.5" x2="798.5" y1="833.3574" y2="853.3574"/><polygon fill="#A80036" points="794.5,843.3574,798.5,853.3574,802.5,843.3574,798.5,847.3574" style="stroke: #A80036; stroke-width: 1.0;"/><line style="stroke: #A80036; stroke-width: 1.5;" x1="798.5" x2="798.5" y1="887.3262" y2="907.3262"/><polygon fill="#A80036" points="794.5,897.3262,798.5,907.3262,802.5,897.3262,798.5,901.3262" style="stroke: #A80036; stroke-width: 1.0;"/><line style="stroke: #A80036; stroke-width: 1.5;" x1="349" x2="349" y1="605.772" y2="637.4824"/><polygon fill="#A80036" points="345,627.4824,349,637.4824,353,627.4824,349,631.4824" style="stroke: #A80036; stroke-width: 1.0;"/><line style="stroke: #A80036; stroke-width: 1.5;" x1="349" x2="349" y1="995.2637" y2="1015.2637"/><polygon fill="#A80036" points="345,1005.2637,349,1015.2637,353,1005.2637,349,1009.2637" style="stroke: #A80036; stroke-width: 1.0;"/><line style="stroke: #A80036; stroke-width: 1.5;" x1="798.5" x2="798.5" y1="605.772" y2="637.4824"/><polygon fill="#A80036" points="794.5,627.4824,798.5,637.4824,802.5,627.4824,798.5,631.4824" style="stroke: #A80036; stroke-width: 1.0;"/><line style="stroke: #A80036; stroke-width: 1.5;" x1="798.5" x2="798.5" y1="941.2949" y2="1015.2637"/><polygon fill="#A80036" points="794.5,1005.2637,798.5,1015.2637,802.5,1005.2637,798.5,1009.2637" style="stroke: #A80036; stroke-width: 1.0;"/><line style="stroke: #A80036; stroke-width: 1.5;" x1="381" x2="766.5" y1="593.772" y2="593.772"/><polygon fill="#A80036" points="756.5,589.772,766.5,593.772,756.5,597.772,760.5,593.772" style="stroke: #A80036; stroke-width: 1.0;"/><line style="stroke: #A80036; stroke-width: 1.5;" x1="628" x2="628" y1="519.6733" y2="566.772"/><line style="stroke: #A80036; stroke-width: 1.5;" x1="628" x2="349" y1="566.772" y2="566.772"/><line style="stroke: #A80036; stroke-width: 1.5;" x1="349" x2="349" y1="566.772" y2="581.772"/><polygon fill="#A80036" points="345,571.772,349,581.772,353,571.772,349,575.772" style="stroke: #A80036; stroke-width: 1.0;"/><line style="stroke: #A80036; stroke-width: 1.5;" x1="830.5" x2="1077.5" y1="593.772" y2="593.772"/><line style="stroke: #A80036; stroke-width: 1.5;" x1="1077.5" x2="1077.5" y1="593.772" y2="1015.2637"/><polygon fill="#A80036" points="1073.5,1005.2637,1077.5,1015.2637,1081.5,1005.2637,1077.5,1009.2637" style="stroke: #A80036; stroke-width: 1.0;"/><line style="stroke: #A80036; stroke-width: 1.5;" x1="349" x2="1077.5" y1="1015.2637" y2="1015.2637"/><line style="stroke: #A80036; stroke-width: 1.5;" x1="310.5" x2="310.5" y1="1167.0415" y2="1187.0415"/><polygon fill="#A80036" points="306.5,1177.0415,310.5,1187.0415,314.5,1177.0415,310.5,1181.0415" style="stroke: #A80036; stroke-width: 1.0;"/><line style="stroke: #A80036; stroke-width: 1.5;" x1="310.5" x2="310.5" y1="1221.0103" y2="1241.0103"/><polygon fill="#A80036" points="306.5,1231.0103,310.5,1241.0103,314.5,1231.0103,310.5,1235.0103" style="stroke: #A80036; stroke-width: 1.0;"/><line style="stroke: #A80036; stroke-width: 1.5;" x1="310.5" x2="310.5" y1="1274.979" y2="1294.979"/><polygon fill="#A80036" points="306.5,1284.979,310.5,1294.979,314.5,1284.979,310.5,1288.979" style="stroke: #A80036; stroke-width: 1.0;"/><line style="stroke: #A80036; stroke-width: 1.5;" x1="310.5" x2="310.5" y1="1328.9478" y2="1348.9478"/><polygon fill="#A80036" points="306.5,1338.9478,310.5,1348.9478,314.5,1338.9478,310.5,1342.9478" style="stroke: #A80036; stroke-width: 1.0;"/><line style="stroke: #A80036; stroke-width: 1.5;" x1="903.5" x2="903.5" y1="1167.0415" y2="1187.0415"/><polygon fill="#A80036" points="899.5,1177.0415,903.5,1187.0415,907.5,1177.0415,903.5,1181.0415" style="stroke: #A80036; stroke-width: 1.0;"/><line style="stroke: #A80036; stroke-width: 1.5;" x1="903.5" x2="903.5" y1="1221.0103" y2="1241.0103"/><polygon fill="#A80036" points="899.5,1231.0103,903.5,1241.0103,907.5,1231.0103,903.5,1235.0103" style="stroke: #A80036; stroke-width: 1.0;"/><line style="stroke: #A80036; stroke-width: 1.5;" x1="310.5" x2="310.5" y1="1101.3623" y2="1133.0728"/><polygon fill="#A80036" points="306.5,1123.0728,310.5,1133.0728,314.5,1123.0728,310.5,1127.0728" style="stroke: #A80036; stroke-width: 1.0;"/><line style="stroke: #A80036; stroke-width: 1.5;" x1="310.5" x2="310.5" y1="1382.9165" y2="1402.9165"/><polygon fill="#A80036" points="306.5,1392.9165,310.5,1402.9165,314.5,1392.9165,310.5,1396.9165" style="stroke: #A80036; stroke-width: 1.0;"/><line style="stroke: #A80036; stroke-width: 1.5;" x1="903.5" x2="903.5" y1="1101.3623" y2="1133.0728"/><polygon fill="#A80036" points="899.5,1123.0728,903.5,1133.0728,907.5,1123.0728,903.5,1127.0728" style="stroke: #A80036; stroke-width: 1.0;"/><line style="stroke: #A80036; stroke-width: 1.5;" x1="903.5" x2="903.5" y1="1274.979" y2="1402.9165"/><polygon fill="#A80036" points="899.5,1392.9165,903.5,1402.9165,907.5,1392.9165,903.5,1396.9165" style="stroke: #A80036; stroke-width: 1.0;"/><line style="stroke: #A80036; stroke-width: 1.5;" x1="342.5" x2="871.5" y1="1089.3623" y2="1089.3623"/><polygon fill="#A80036" points="861.5,1085.3623,871.5,1089.3623,861.5,1093.3623,865.5,1089.3623" style="stroke: #A80036; stroke-width: 1.0;"/><line style="stroke: #A80036; stroke-width: 1.5;" x1="628" x2="628" y1="1015.2637" y2="1062.3623"/><line style="stroke: #A80036; stroke-width: 1.5;" x1="628" x2="310.5" y1="1062.3623" y2="1062.3623"/><line style="stroke: #A80036; stroke-width: 1.5;" x1="310.5" x2="310.5" y1="1062.3623" y2="1077.3623"/><polygon fill="#A80036" points="306.5,1067.3623,310.5,1077.3623,314.5,1067.3623,310.5,1071.3623" style="stroke: #A80036; stroke-width: 1.0;"/><line style="stroke: #A80036; stroke-width: 1.5;" x1="935.5" x2="1221" y1="1089.3623" y2="1089.3623"/><line style="stroke: #A80036; stroke-width: 1.5;" x1="1221" x2="1221" y1="1089.3623" y2="1402.9165"/><polygon fill="#A80036" points="1217,1392.9165,1221,1402.9165,1225,1392.9165,1221,1396.9165" style="stroke: #A80036; stroke-width: 1.0;"/><line style="stroke: #A80036; stroke-width: 1.5;" x1="310.5" x2="1221" y1="1402.9165" y2="1402.9165"/><line style="stroke: #A80036; stroke-width: 1.5;" x1="628" x2="628" y1="1402.9165" y2="1434.9165"/><polygon fill="#A80036" points="624,1424.9165,628,1434.9165,632,1424.9165,628,1428.9165" style="stroke: #A80036; stroke-width: 1.0;"/><line style="stroke: #A80036; stroke-width: 1.5;" x1="628" x2="628" y1="1468.8853" y2="1488.8853"/><polygon fill="#A80036" points="624,1478.8853,628,1488.8853,632,1478.8853,628,1482.8853" style="stroke: #A80036; stroke-width: 1.0;"/><!--
@startuml
skinparam backgroundcolor White|White

title Nuspell - Search Dictionaries

start
partition "add default paths" {
:TODO;
}

partition "add LibreOffice paths" {
if (POSIX?) then (yes)
	:omit symbolic links;
	:search /usr/local/lib/libreoffice/share/extensions/dict-*;
	:search /usr/lib/libreoffice/share/extensions/dict-*;
	:search /opt/libreoffice*/share/extensions/dict-*;
	:search $HOME/.config/libreoffice/?/user/uno_packages/cache/uno_packages/*/*.oxt/dict*;
elseif(WIN32?) then (yes)
	:search %PROGRAMFILES%\\LibreOffice ?\\share\\extensions\\dict-*;
	:search %PROGRAMFILES(x86)%\\LibreOffice ?\\share\\extensions\\dict-*;
	:search %APPDATA%\\libreoffice\\?\\user\\uno_packages\\cache\\uno_packages\\*\\*.oxt\\dict*;
else (no)
endif
}

partition "add Mozilla paths" {
if (POSIX?) then (yes)
	:omit symbolic links;
	:search /usr/local/lib/firefox/dictionaries;
	:search /usr/lib/firefox/dictionaries;
	:search /usr/local/lib/thunderbird/dictionaries;
	:search /usr/lib/thunderbird/dictionaries;
	:search $HOME/.mozilla/firefox/*/extensions/*/dictionaries;
	:search $HOME/.thunderbird/*/extensions/*/dictionaries;
elseif(WIN32?) then (yes)
	:search %PROGRAMFILES%\\Mozilla Firefox\\dictionaries;
	:search %PROGRAMFILES(x86)%\\Mozilla Firefox\\dictionaries;
	:search %PROGRAMFILES%\\Mozilla Thunderbird\\dictionaries;
	:search %PROGRAMFILES(x86)%\\Mozilla Thunderbird\\dictionaries;
	:search %APPDATA%\\Mozilla\\Firefox\\Profiles\\*\\extensions\\*\\dictionaries;
	:search %APPDATA%\\Mozilla\\Thunderbird\\Profiles\\*\\extensions\\*\\dictionaries;
else (no)
endif
}

partition "add Apache OpenOffice paths" {
if (POSIX?) then (yes)
	:omit symbolic links;
	:search /usr/local/lib/openoffice/share/extensions/dict-*;
	:search /usr/lib/openoffice/share/extensions/dict-*;
	:search /opt/openoffice*/share/extensions/dict-*;
	:search $HOME//.config/openoffice/?/user/uno_packages/cache/uno_packages/*/*.oxt/dict*;
elseif(WIN32?) then (yes)
	:search %PROGRAMFILES%\\OpeneOffice ?\\share\\extensions\\dict-*;
	:search %PROGRAMFILES(x86)%\\OpenOffice ?\\share\\extensions\\dict-*;
	:search %APPDATA%\\openoffice\\?\\user\\uno_packages\\cache\\uno_packages\\*\\*.oxt\\dict*;
else (no)
endif
}

:search dictionaries in paths;
stop

@enduml

PlantUML version 1.2018.10(Sat Aug 25 19:02:59 CEST 2018)
(GPL source distribution)
Java Runtime: OpenJDK Runtime Environment
JVM: OpenJDK 64-Bit Server VM
Java Version: 10.0.2+13-Ubuntu-1ubuntu0.18.04.2
Operating System: Linux
OS Version: 4.15.0-34-generic
Default Encoding: UTF-8
Language: en
Country: US
--></g></svg>