<?xml version="1.0" encoding="UTF-8" standalone="yes"?><svg xmlns="http://www.w3.org/2000/svg" xmlns:xlink="http://www.w3.org/1999/xlink" height="1992px" style="width:1208px;height:1992px;" version="1.1" viewBox="0 0 1208 1992" width="1208px"><defs><filter height="300%" id="f1" width="300%" x="-1" y="-1"><feGaussianBlur result="blurOut" stdDeviation="2.0"/><feColorMatrix in="blurOut" result="blurOut2" type="matrix" values="0 0 0 0 0 0 0 0 0 0 0 0 0 0 0 0 0 0 .4 0"/><feOffset dx="4.0" dy="4.0" in="blurOut2" result="blurOut3"/><feBlend in="SourceGraphic" in2="blurOut3" mode="normal"/></filter></defs><g><text fill="#000000" font-family="sans-serif" font-size="18" lengthAdjust="spacingAndGlyphs" textLength="269" x="471" y="26.708">Hunspell - Search Dictionaries</text><ellipse cx="605.5" cy="40.9531" fill="#000000" filter="url(#f1)" rx="10" ry="10" style="stroke: none; stroke-width: 1.0;"/><rect fill="#FFFFFF" filter="url(#f1)" height="90.2656" style="stroke: #000000; stroke-width: 2.0;" width="144" x="533.5" y="61.7549"/><path d="M667.5,62.7549 L667.5,71.0518 L657.5,81.0518 L533.5,81.0518 " fill="#FFFFFF" style="stroke: #000000; stroke-width: 2.0;"/><text fill="#000000" font-family="sans-serif" font-size="14" lengthAdjust="spacingAndGlyphs" textLength="124" x="536.5" y="75.75">add default paths</text><rect fill="#FEFECE" filter="url(#f1)" height="33.9688" rx="12.5" ry="12.5" style="stroke: #A80036; stroke-width: 1.5;" width="54" x="578.5" y="98.0518"/><text fill="#000000" font-family="sans-serif" font-size="12" lengthAdjust="spacingAndGlyphs" textLength="34" x="588.5" y="119.1904">TODO</text><rect fill="#FFFFFF" filter="url(#f1)" height="522.9453" style="stroke: #000000; stroke-width: 2.0;" width="1179" x="16" y="162.8223"/><path d="M178,163.8223 L178,172.1191 L168,182.1191 L16,182.1191 " fill="#FFFFFF" style="stroke: #000000; stroke-width: 2.0;"/><text fill="#000000" font-family="sans-serif" font-size="14" lengthAdjust="spacingAndGlyphs" textLength="152" x="19" y="176.8174">add LibreOffice paths</text><polygon fill="#FEFECE" filter="url(#f1)" points="281.5,224.1191,321.5,224.1191,333.5,236.1191,321.5,248.1191,281.5,248.1191,269.5,236.1191,281.5,224.1191" style="stroke: #A80036; stroke-width: 1.5;"/><text fill="#000000" font-family="sans-serif" font-size="11" lengthAdjust="spacingAndGlyphs" textLength="20" x="305.5" y="258.3296">yes</text><text fill="#000000" font-family="sans-serif" font-size="11" lengthAdjust="spacingAndGlyphs" textLength="40" x="281.5" y="239.9272">POSIX?</text><rect fill="#FEFECE" filter="url(#f1)" height="33.9688" rx="12.5" ry="12.5" style="stroke: #A80036; stroke-width: 1.5;" width="135" x="234" y="280.9238"/><text fill="#000000" font-family="sans-serif" font-size="12" lengthAdjust="spacingAndGlyphs" textLength="115" x="244" y="302.0625">omit symbolic links</text><rect fill="#FEFECE" filter="url(#f1)" height="33.9688" rx="12.5" ry="12.5" style="stroke: #A80036; stroke-width: 1.5;" width="340" x="131.5" y="349.8926"/><text fill="#000000" font-family="sans-serif" font-size="12" lengthAdjust="spacingAndGlyphs" textLength="320" x="141.5" y="371.0313">search /usr/local/lib/libreoffice/share/extensions/dict-*</text><rect fill="#FEFECE" filter="url(#f1)" height="33.9688" rx="12.5" ry="12.5" style="stroke: #A80036; stroke-width: 1.5;" width="309" x="147" y="418.8613"/><text fill="#000000" font-family="sans-serif" font-size="12" lengthAdjust="spacingAndGlyphs" textLength="289" x="157" y="440">search /usr/lib/libreoffice/share/extensions/dict-*</text><rect fill="#FEFECE" filter="url(#f1)" height="33.9688" rx="12.5" ry="12.5" style="stroke: #A80036; stroke-width: 1.5;" width="298" x="152.5" y="487.8301"/><text fill="#000000" font-family="sans-serif" font-size="12" lengthAdjust="spacingAndGlyphs" textLength="278" x="162.5" y="508.9688">search /opt/libreoffice*/share/extensions/dict-*</text><rect fill="#FEFECE" filter="url(#f1)" height="33.9688" rx="12.5" ry="12.5" style="stroke: #A80036; stroke-width: 1.5;" width="551" x="26" y="556.7988"/><text fill="#000000" font-family="sans-serif" font-size="12" lengthAdjust="spacingAndGlyphs" textLength="531" x="36" y="577.9375">search $HOME/.config/libreoffice/?/user/uno_packages/cache/uno_packages/*/*.oxt/dict*</text><polygon fill="#FEFECE" filter="url(#f1)" points="845,224.1191,887,224.1191,899,236.1191,887,248.1191,845,248.1191,833,236.1191,845,224.1191" style="stroke: #A80036; stroke-width: 1.5;"/><text fill="#000000" font-family="sans-serif" font-size="11" lengthAdjust="spacingAndGlyphs" textLength="20" x="870" y="258.3296">yes</text><text fill="#000000" font-family="sans-serif" font-size="11" lengthAdjust="spacingAndGlyphs" textLength="42" x="845" y="239.9272">WIN32?</text><text fill="#000000" font-family="sans-serif" font-size="11" lengthAdjust="spacingAndGlyphs" textLength="14" x="899" y="233.5249">no</text><rect fill="#FEFECE" filter="url(#f1)" height="33.9688" rx="12.5" ry="12.5" style="stroke: #A80036; stroke-width: 1.5;" width="399" x="666.5" y="280.9238"/><text fill="#000000" font-family="sans-serif" font-size="12" lengthAdjust="spacingAndGlyphs" textLength="379" x="676.5" y="302.0625">search %PROGRAMFILES%\LibreOffice ?\share\extensions\dict-*</text><rect fill="#FEFECE" filter="url(#f1)" height="33.9688" rx="12.5" ry="12.5" style="stroke: #A80036; stroke-width: 1.5;" width="432" x="650" y="349.8926"/><text fill="#000000" font-family="sans-serif" font-size="12" lengthAdjust="spacingAndGlyphs" textLength="412" x="660" y="371.0313">search %PROGRAMFILES(x86)%\LibreOffice ?\share\extensions\dict-*</text><rect fill="#FEFECE" filter="url(#f1)" height="33.9688" rx="12.5" ry="12.5" style="stroke: #A80036; stroke-width: 1.5;" width="538" x="597" y="418.8613"/><text fill="#000000" font-family="sans-serif" font-size="12" lengthAdjust="spacingAndGlyphs" textLength="518" x="607" y="440">search %APPDATA%\libreoffice\?\user\uno_packages\cache\uno_packages\*\*.oxt\dict*</text><rect fill="#FFFFFF" filter="url(#f1)" height="660.8828" style="stroke: #000000; stroke-width: 2.0;" width="918" x="146.5" y="696.5693"/><path d="M279.5,697.5693 L279.5,705.8662 L269.5,715.8662 L146.5,715.8662 " fill="#FFFFFF" style="stroke: #000000; stroke-width: 2.0;"/><text fill="#000000" font-family="sans-serif" font-size="14" lengthAdjust="spacingAndGlyphs" textLength="123" x="149.5" y="710.5645">add Mozilla paths</text><polygon fill="#FEFECE" filter="url(#f1)" points="316,757.8662,356,757.8662,368,769.8662,356,781.8662,316,781.8662,304,769.8662,316,757.8662" style="stroke: #A80036; stroke-width: 1.5;"/><text fill="#000000" font-family="sans-serif" font-size="11" lengthAdjust="spacingAndGlyphs" textLength="20" x="340" y="792.0767">yes</text><text fill="#000000" font-family="sans-serif" font-size="11" lengthAdjust="spacingAndGlyphs" textLength="40" x="316" y="773.6743">POSIX?</text><rect fill="#FEFECE" filter="url(#f1)" height="33.9688" rx="12.5" ry="12.5" style="stroke: #A80036; stroke-width: 1.5;" width="135" x="268.5" y="814.6709"/><text fill="#000000" font-family="sans-serif" font-size="12" lengthAdjust="spacingAndGlyphs" textLength="115" x="278.5" y="835.8096">omit symbolic links</text><rect fill="#FEFECE" filter="url(#f1)" height="33.9688" rx="12.5" ry="12.5" style="stroke: #A80036; stroke-width: 1.5;" width="250" x="211" y="883.6396"/><text fill="#000000" font-family="sans-serif" font-size="12" lengthAdjust="spacingAndGlyphs" textLength="230" x="221" y="904.7783">search /usr/local/lib/firefox/dictionaries</text><rect fill="#FEFECE" filter="url(#f1)" height="33.9688" rx="12.5" ry="12.5" style="stroke: #A80036; stroke-width: 1.5;" width="219" x="226.5" y="952.6084"/><text fill="#000000" font-family="sans-serif" font-size="12" lengthAdjust="spacingAndGlyphs" textLength="199" x="236.5" y="973.7471">search /usr/lib/firefox/dictionaries</text><rect fill="#FEFECE" filter="url(#f1)" height="33.9688" rx="12.5" ry="12.5" style="stroke: #A80036; stroke-width: 1.5;" width="286" x="193" y="1021.5771"/><text fill="#000000" font-family="sans-serif" font-size="12" lengthAdjust="spacingAndGlyphs" textLength="266" x="203" y="1042.7158">search /usr/local/lib/thunderbird/dictionaries</text><rect fill="#FEFECE" filter="url(#f1)" height="33.9688" rx="12.5" ry="12.5" style="stroke: #A80036; stroke-width: 1.5;" width="255" x="208.5" y="1090.5459"/><text fill="#000000" font-family="sans-serif" font-size="12" lengthAdjust="spacingAndGlyphs" textLength="235" x="218.5" y="1111.6846">search /usr/lib/thunderbird/dictionaries</text><rect fill="#FEFECE" filter="url(#f1)" height="33.9688" rx="12.5" ry="12.5" style="stroke: #A80036; stroke-width: 1.5;" width="359" x="156.5" y="1159.5146"/><text fill="#000000" font-family="sans-serif" font-size="12" lengthAdjust="spacingAndGlyphs" textLength="339" x="166.5" y="1180.6533">search $HOME/.mozilla/firefox/*/extensions/*/dictionaries</text><rect fill="#FEFECE" filter="url(#f1)" height="33.9688" rx="12.5" ry="12.5" style="stroke: #A80036; stroke-width: 1.5;" width="350" x="161" y="1228.4834"/><text fill="#000000" font-family="sans-serif" font-size="12" lengthAdjust="spacingAndGlyphs" textLength="330" x="171" y="1249.6221">search $HOME/.thunderbird/*/extensions/*/dictionaries</text><polygon fill="#FEFECE" filter="url(#f1)" points="749,757.8662,791,757.8662,803,769.8662,791,781.8662,749,781.8662,737,769.8662,749,757.8662" style="stroke: #A80036; stroke-width: 1.5;"/><text fill="#000000" font-family="sans-serif" font-size="11" lengthAdjust="spacingAndGlyphs" textLength="20" x="774" y="792.0767">yes</text><text fill="#000000" font-family="sans-serif" font-size="11" lengthAdjust="spacingAndGlyphs" textLength="42" x="749" y="773.6743">WIN32?</text><text fill="#000000" font-family="sans-serif" font-size="11" lengthAdjust="spacingAndGlyphs" textLength="14" x="803" y="767.272">no</text><rect fill="#FEFECE" filter="url(#f1)" height="33.9688" rx="12.5" ry="12.5" style="stroke: #A80036; stroke-width: 1.5;" width="339" x="600.5" y="814.6709"/><text fill="#000000" font-family="sans-serif" font-size="12" lengthAdjust="spacingAndGlyphs" textLength="319" x="610.5" y="835.8096">search %PROGRAMFILES%\Mozilla Firefox\dictionaries</text><rect fill="#FEFECE" filter="url(#f1)" height="33.9688" rx="12.5" ry="12.5" style="stroke: #A80036; stroke-width: 1.5;" width="372" x="584" y="883.6396"/><text fill="#000000" font-family="sans-serif" font-size="12" lengthAdjust="spacingAndGlyphs" textLength="352" x="594" y="904.7783">search %PROGRAMFILES(x86)%\Mozilla Firefox\dictionaries</text><rect fill="#FEFECE" filter="url(#f1)" height="33.9688" rx="12.5" ry="12.5" style="stroke: #A80036; stroke-width: 1.5;" width="374" x="583" y="952.6084"/><text fill="#000000" font-family="sans-serif" font-size="12" lengthAdjust="spacingAndGlyphs" textLength="354" x="593" y="973.7471">search %PROGRAMFILES%\Mozilla Thunderbird\dictionaries</text><rect fill="#FEFECE" filter="url(#f1)" height="33.9688" rx="12.5" ry="12.5" style="stroke: #A80036; stroke-width: 1.5;" width="407" x="566.5" y="1021.5771"/><text fill="#000000" font-family="sans-serif" font-size="12" lengthAdjust="spacingAndGlyphs" textLength="387" x="576.5" y="1042.7158">search %PROGRAMFILES(x86)%\Mozilla Thunderbird\dictionaries</text><rect fill="#FEFECE" filter="url(#f1)" height="33.9688" rx="12.5" ry="12.5" style="stroke: #A80036; stroke-width: 1.5;" width="434" x="553" y="1090.5459"/><text fill="#000000" font-family="sans-serif" font-size="12" lengthAdjust="spacingAndGlyphs" textLength="414" x="563" y="1111.6846">search %APPDATA%\Mozilla\Firefox\Profiles\*\extensions\*\dictionaries</text><rect fill="#FEFECE" filter="url(#f1)" height="33.9688" rx="12.5" ry="12.5" style="stroke: #A80036; stroke-width: 1.5;" width="469" x="535.5" y="1159.5146"/><text fill="#000000" font-family="sans-serif" font-size="12" lengthAdjust="spacingAndGlyphs" textLength="449" x="545.5" y="1180.6533">search %APPDATA%\Mozilla\Thunderbird\Profiles\*\extensions\*\dictionaries</text><rect fill="#FFFFFF" filter="url(#f1)" height="522.9453" style="stroke: #000000; stroke-width: 2.0;" width="1191" x="10" y="1368.2539"/><path d="M232,1369.2539 L232,1377.5508 L222,1387.5508 L10,1387.5508 " fill="#FFFFFF" style="stroke: #000000; stroke-width: 2.0;"/><text fill="#000000" font-family="sans-serif" font-size="14" lengthAdjust="spacingAndGlyphs" textLength="212" x="13" y="1382.249">add Apache OpenOffice paths</text><polygon fill="#FEFECE" filter="url(#f1)" points="279.5,1429.5508,319.5,1429.5508,331.5,1441.5508,319.5,1453.5508,279.5,1453.5508,267.5,1441.5508,279.5,1429.5508" style="stroke: #A80036; stroke-width: 1.5;"/><text fill="#000000" font-family="sans-serif" font-size="11" lengthAdjust="spacingAndGlyphs" textLength="20" x="303.5" y="1463.7612">yes</text><text fill="#000000" font-family="sans-serif" font-size="11" lengthAdjust="spacingAndGlyphs" textLength="40" x="279.5" y="1445.3589">POSIX?</text><rect fill="#FEFECE" filter="url(#f1)" height="33.9688" rx="12.5" ry="12.5" style="stroke: #A80036; stroke-width: 1.5;" width="135" x="232" y="1486.3555"/><text fill="#000000" font-family="sans-serif" font-size="12" lengthAdjust="spacingAndGlyphs" textLength="115" x="242" y="1507.4941">omit symbolic links</text><rect fill="#FEFECE" filter="url(#f1)" height="33.9688" rx="12.5" ry="12.5" style="stroke: #A80036; stroke-width: 1.5;" width="344" x="127.5" y="1555.3242"/><text fill="#000000" font-family="sans-serif" font-size="12" lengthAdjust="spacingAndGlyphs" textLength="324" x="137.5" y="1576.4629">search /usr/local/lib/openoffice/share/extensions/dict-*</text><rect fill="#FEFECE" filter="url(#f1)" height="33.9688" rx="12.5" ry="12.5" style="stroke: #A80036; stroke-width: 1.5;" width="313" x="143" y="1624.293"/><text fill="#000000" font-family="sans-serif" font-size="12" lengthAdjust="spacingAndGlyphs" textLength="293" x="153" y="1645.4316">search /usr/lib/openoffice/share/extensions/dict-*</text><rect fill="#FEFECE" filter="url(#f1)" height="33.9688" rx="12.5" ry="12.5" style="stroke: #A80036; stroke-width: 1.5;" width="302" x="148.5" y="1693.2617"/><text fill="#000000" font-family="sans-serif" font-size="12" lengthAdjust="spacingAndGlyphs" textLength="282" x="158.5" y="1714.4004">search /opt/openoffice*/share/extensions/dict-*</text><rect fill="#FEFECE" filter="url(#f1)" height="33.9688" rx="12.5" ry="12.5" style="stroke: #A80036; stroke-width: 1.5;" width="559" x="20" y="1762.2305"/><text fill="#000000" font-family="sans-serif" font-size="12" lengthAdjust="spacingAndGlyphs" textLength="539" x="30" y="1783.3691">search $HOME//.config/openoffice/?/user/uno_packages/cache/uno_packages/*/*.oxt/dict*</text><polygon fill="#FEFECE" filter="url(#f1)" points="849,1429.5508,891,1429.5508,903,1441.5508,891,1453.5508,849,1453.5508,837,1441.5508,849,1429.5508" style="stroke: #A80036; stroke-width: 1.5;"/><text fill="#000000" font-family="sans-serif" font-size="11" lengthAdjust="spacingAndGlyphs" textLength="20" x="874" y="1463.7612">yes</text><text fill="#000000" font-family="sans-serif" font-size="11" lengthAdjust="spacingAndGlyphs" textLength="42" x="849" y="1445.3589">WIN32?</text><text fill="#000000" font-family="sans-serif" font-size="11" lengthAdjust="spacingAndGlyphs" textLength="14" x="903" y="1438.9565">no</text><rect fill="#FEFECE" filter="url(#f1)" height="33.9688" rx="12.5" ry="12.5" style="stroke: #A80036; stroke-width: 1.5;" width="408" x="666" y="1486.3555"/><text fill="#000000" font-family="sans-serif" font-size="12" lengthAdjust="spacingAndGlyphs" textLength="388" x="676" y="1507.4941">search %PROGRAMFILES%\OpeneOffice ?\share\extensions\dict-*</text><rect fill="#FEFECE" filter="url(#f1)" height="33.9688" rx="12.5" ry="12.5" style="stroke: #A80036; stroke-width: 1.5;" width="434" x="653" y="1555.3242"/><text fill="#000000" font-family="sans-serif" font-size="12" lengthAdjust="spacingAndGlyphs" textLength="414" x="663" y="1576.4629">search %PROGRAMFILES(x86)%\OpenOffice ?\share\extensions\dict-*</text><rect fill="#FEFECE" filter="url(#f1)" height="33.9688" rx="12.5" ry="12.5" style="stroke: #A80036; stroke-width: 1.5;" width="542" x="599" y="1624.293"/><text fill="#000000" font-family="sans-serif" font-size="12" lengthAdjust="spacingAndGlyphs" textLength="522" x="609" y="1645.4316">search %APPDATA%\openoffice\?\user\uno_packages\cache\uno_packages\*\*.oxt\dict*</text><rect fill="#FEFECE" filter="url(#f1)" height="33.9688" rx="12.5" ry="12.5" style="stroke: #A80036; stroke-width: 1.5;" width="186" x="512.5" y="1911.1992"/><text fill="#000000" font-family="sans-serif" font-size="12" lengthAdjust="spacingAndGlyphs" textLength="166" x="522.5" y="1932.3379">search dictionaries in paths</text><ellipse cx="605.5" cy="1975.168" fill="none" filter="url(#f1)" rx="10" ry="10" style="stroke: #000000; stroke-width: 1.0;"/><ellipse cx="606" cy="1975.668" fill="#000000" filter="url(#f1)" rx="6" ry="6" style="stroke: none; stroke-width: 1.0;"/><line style="stroke: #A80036; stroke-width: 1.5;" x1="605.5" x2="605.5" y1="50.9531" y2="98.0518"/><polygon fill="#A80036" points="601.5,88.0518,605.5,98.0518,609.5,88.0518,605.5,92.0518" style="stroke: #A80036; stroke-width: 1.0;"/><line style="stroke: #A80036; stroke-width: 1.5;" x1="301.5" x2="301.5" y1="314.8926" y2="349.8926"/><polygon fill="#A80036" points="297.5,339.8926,301.5,349.8926,305.5,339.8926,301.5,343.8926" style="stroke: #A80036; stroke-width: 1.0;"/><line style="stroke: #A80036; stroke-width: 1.5;" x1="301.5" x2="301.5" y1="383.8613" y2="418.8613"/><polygon fill="#A80036" points="297.5,408.8613,301.5,418.8613,305.5,408.8613,301.5,412.8613" style="stroke: #A80036; stroke-width: 1.0;"/><line style="stroke: #A80036; stroke-width: 1.5;" x1="301.5" x2="301.5" y1="452.8301" y2="487.8301"/><polygon fill="#A80036" points="297.5,477.8301,301.5,487.8301,305.5,477.8301,301.5,481.8301" style="stroke: #A80036; stroke-width: 1.0;"/><line style="stroke: #A80036; stroke-width: 1.5;" x1="301.5" x2="301.5" y1="521.7988" y2="556.7988"/><polygon fill="#A80036" points="297.5,546.7988,301.5,556.7988,305.5,546.7988,301.5,550.7988" style="stroke: #A80036; stroke-width: 1.0;"/><line style="stroke: #A80036; stroke-width: 1.5;" x1="866" x2="866" y1="314.8926" y2="349.8926"/><polygon fill="#A80036" points="862,339.8926,866,349.8926,870,339.8926,866,343.8926" style="stroke: #A80036; stroke-width: 1.0;"/><line style="stroke: #A80036; stroke-width: 1.5;" x1="866" x2="866" y1="383.8613" y2="418.8613"/><polygon fill="#A80036" points="862,408.8613,866,418.8613,870,408.8613,866,412.8613" style="stroke: #A80036; stroke-width: 1.0;"/><line style="stroke: #A80036; stroke-width: 1.5;" x1="301.5" x2="301.5" y1="248.1191" y2="280.9238"/><polygon fill="#A80036" points="297.5,270.9238,301.5,280.9238,305.5,270.9238,301.5,274.9238" style="stroke: #A80036; stroke-width: 1.0;"/><line style="stroke: #A80036; stroke-width: 1.5;" x1="301.5" x2="301.5" y1="590.7676" y2="665.7676"/><polygon fill="#A80036" points="297.5,655.7676,301.5,665.7676,305.5,655.7676,301.5,659.7676" style="stroke: #A80036; stroke-width: 1.0;"/><line style="stroke: #A80036; stroke-width: 1.5;" x1="866" x2="866" y1="248.1191" y2="280.9238"/><polygon fill="#A80036" points="862,270.9238,866,280.9238,870,270.9238,866,274.9238" style="stroke: #A80036; stroke-width: 1.0;"/><line style="stroke: #A80036; stroke-width: 1.5;" x1="866" x2="866" y1="452.8301" y2="665.7676"/><polygon fill="#A80036" points="862,655.7676,866,665.7676,870,655.7676,866,659.7676" style="stroke: #A80036; stroke-width: 1.0;"/><line style="stroke: #A80036; stroke-width: 1.5;" x1="333.5" x2="833" y1="236.1191" y2="236.1191"/><polygon fill="#A80036" points="823,232.1191,833,236.1191,823,240.1191,827,236.1191" style="stroke: #A80036; stroke-width: 1.0;"/><line style="stroke: #A80036; stroke-width: 1.5;" x1="605.5" x2="605.5" y1="132.0205" y2="199.1191"/><line style="stroke: #A80036; stroke-width: 1.5;" x1="605.5" x2="301.5" y1="199.1191" y2="199.1191"/><line style="stroke: #A80036; stroke-width: 1.5;" x1="301.5" x2="301.5" y1="199.1191" y2="224.1191"/><polygon fill="#A80036" points="297.5,214.1191,301.5,224.1191,305.5,214.1191,301.5,218.1191" style="stroke: #A80036; stroke-width: 1.0;"/><line style="stroke: #A80036; stroke-width: 1.5;" x1="899" x2="1170" y1="236.1191" y2="236.1191"/><line style="stroke: #A80036; stroke-width: 1.5;" x1="1170" x2="1170" y1="236.1191" y2="665.7676"/><polygon fill="#A80036" points="1166,655.7676,1170,665.7676,1174,655.7676,1170,659.7676" style="stroke: #A80036; stroke-width: 1.0;"/><line style="stroke: #A80036; stroke-width: 1.5;" x1="301.5" x2="1170" y1="665.7676" y2="665.7676"/><line style="stroke: #A80036; stroke-width: 1.5;" x1="336" x2="336" y1="848.6396" y2="883.6396"/><polygon fill="#A80036" points="332,873.6396,336,883.6396,340,873.6396,336,877.6396" style="stroke: #A80036; stroke-width: 1.0;"/><line style="stroke: #A80036; stroke-width: 1.5;" x1="336" x2="336" y1="917.6084" y2="952.6084"/><polygon fill="#A80036" points="332,942.6084,336,952.6084,340,942.6084,336,946.6084" style="stroke: #A80036; stroke-width: 1.0;"/><line style="stroke: #A80036; stroke-width: 1.5;" x1="336" x2="336" y1="986.5771" y2="1021.5771"/><polygon fill="#A80036" points="332,1011.5771,336,1021.5771,340,1011.5771,336,1015.5771" style="stroke: #A80036; stroke-width: 1.0;"/><line style="stroke: #A80036; stroke-width: 1.5;" x1="336" x2="336" y1="1055.5459" y2="1090.5459"/><polygon fill="#A80036" points="332,1080.5459,336,1090.5459,340,1080.5459,336,1084.5459" style="stroke: #A80036; stroke-width: 1.0;"/><line style="stroke: #A80036; stroke-width: 1.5;" x1="336" x2="336" y1="1124.5146" y2="1159.5146"/><polygon fill="#A80036" points="332,1149.5146,336,1159.5146,340,1149.5146,336,1153.5146" style="stroke: #A80036; stroke-width: 1.0;"/><line style="stroke: #A80036; stroke-width: 1.5;" x1="336" x2="336" y1="1193.4834" y2="1228.4834"/><polygon fill="#A80036" points="332,1218.4834,336,1228.4834,340,1218.4834,336,1222.4834" style="stroke: #A80036; stroke-width: 1.0;"/><line style="stroke: #A80036; stroke-width: 1.5;" x1="770" x2="770" y1="848.6396" y2="883.6396"/><polygon fill="#A80036" points="766,873.6396,770,883.6396,774,873.6396,770,877.6396" style="stroke: #A80036; stroke-width: 1.0;"/><line style="stroke: #A80036; stroke-width: 1.5;" x1="770" x2="770" y1="917.6084" y2="952.6084"/><polygon fill="#A80036" points="766,942.6084,770,952.6084,774,942.6084,770,946.6084" style="stroke: #A80036; stroke-width: 1.0;"/><line style="stroke: #A80036; stroke-width: 1.5;" x1="770" x2="770" y1="986.5771" y2="1021.5771"/><polygon fill="#A80036" points="766,1011.5771,770,1021.5771,774,1011.5771,770,1015.5771" style="stroke: #A80036; stroke-width: 1.0;"/><line style="stroke: #A80036; stroke-width: 1.5;" x1="770" x2="770" y1="1055.5459" y2="1090.5459"/><polygon fill="#A80036" points="766,1080.5459,770,1090.5459,774,1080.5459,770,1084.5459" style="stroke: #A80036; stroke-width: 1.0;"/><line style="stroke: #A80036; stroke-width: 1.5;" x1="770" x2="770" y1="1124.5146" y2="1159.5146"/><polygon fill="#A80036" points="766,1149.5146,770,1159.5146,774,1149.5146,770,1153.5146" style="stroke: #A80036; stroke-width: 1.0;"/><line style="stroke: #A80036; stroke-width: 1.5;" x1="336" x2="336" y1="781.8662" y2="814.6709"/><polygon fill="#A80036" points="332,804.6709,336,814.6709,340,804.6709,336,808.6709" style="stroke: #A80036; stroke-width: 1.0;"/><line style="stroke: #A80036; stroke-width: 1.5;" x1="336" x2="336" y1="1262.4521" y2="1337.4521"/><polygon fill="#A80036" points="332,1327.4521,336,1337.4521,340,1327.4521,336,1331.4521" style="stroke: #A80036; stroke-width: 1.0;"/><line style="stroke: #A80036; stroke-width: 1.5;" x1="770" x2="770" y1="781.8662" y2="814.6709"/><polygon fill="#A80036" points="766,804.6709,770,814.6709,774,804.6709,770,808.6709" style="stroke: #A80036; stroke-width: 1.0;"/><line style="stroke: #A80036; stroke-width: 1.5;" x1="770" x2="770" y1="1193.4834" y2="1337.4521"/><polygon fill="#A80036" points="766,1327.4521,770,1337.4521,774,1327.4521,770,1331.4521" style="stroke: #A80036; stroke-width: 1.0;"/><line style="stroke: #A80036; stroke-width: 1.5;" x1="368" x2="737" y1="769.8662" y2="769.8662"/><polygon fill="#A80036" points="727,765.8662,737,769.8662,727,773.8662,731,769.8662" style="stroke: #A80036; stroke-width: 1.0;"/><line style="stroke: #A80036; stroke-width: 1.5;" x1="605.5" x2="605.5" y1="665.7676" y2="732.8662"/><line style="stroke: #A80036; stroke-width: 1.5;" x1="605.5" x2="336" y1="732.8662" y2="732.8662"/><line style="stroke: #A80036; stroke-width: 1.5;" x1="336" x2="336" y1="732.8662" y2="757.8662"/><polygon fill="#A80036" points="332,747.8662,336,757.8662,340,747.8662,336,751.8662" style="stroke: #A80036; stroke-width: 1.0;"/><line style="stroke: #A80036; stroke-width: 1.5;" x1="803" x2="1039.5" y1="769.8662" y2="769.8662"/><line style="stroke: #A80036; stroke-width: 1.5;" x1="1039.5" x2="1039.5" y1="769.8662" y2="1337.4521"/><polygon fill="#A80036" points="1035.5,1327.4521,1039.5,1337.4521,1043.5,1327.4521,1039.5,1331.4521" style="stroke: #A80036; stroke-width: 1.0;"/><line style="stroke: #A80036; stroke-width: 1.5;" x1="336" x2="1039.5" y1="1337.4521" y2="1337.4521"/><line style="stroke: #A80036; stroke-width: 1.5;" x1="299.5" x2="299.5" y1="1520.3242" y2="1555.3242"/><polygon fill="#A80036" points="295.5,1545.3242,299.5,1555.3242,303.5,1545.3242,299.5,1549.3242" style="stroke: #A80036; stroke-width: 1.0;"/><line style="stroke: #A80036; stroke-width: 1.5;" x1="299.5" x2="299.5" y1="1589.293" y2="1624.293"/><polygon fill="#A80036" points="295.5,1614.293,299.5,1624.293,303.5,1614.293,299.5,1618.293" style="stroke: #A80036; stroke-width: 1.0;"/><line style="stroke: #A80036; stroke-width: 1.5;" x1="299.5" x2="299.5" y1="1658.2617" y2="1693.2617"/><polygon fill="#A80036" points="295.5,1683.2617,299.5,1693.2617,303.5,1683.2617,299.5,1687.2617" style="stroke: #A80036; stroke-width: 1.0;"/><line style="stroke: #A80036; stroke-width: 1.5;" x1="299.5" x2="299.5" y1="1727.2305" y2="1762.2305"/><polygon fill="#A80036" points="295.5,1752.2305,299.5,1762.2305,303.5,1752.2305,299.5,1756.2305" style="stroke: #A80036; stroke-width: 1.0;"/><line style="stroke: #A80036; stroke-width: 1.5;" x1="870" x2="870" y1="1520.3242" y2="1555.3242"/><polygon fill="#A80036" points="866,1545.3242,870,1555.3242,874,1545.3242,870,1549.3242" style="stroke: #A80036; stroke-width: 1.0;"/><line style="stroke: #A80036; stroke-width: 1.5;" x1="870" x2="870" y1="1589.293" y2="1624.293"/><polygon fill="#A80036" points="866,1614.293,870,1624.293,874,1614.293,870,1618.293" style="stroke: #A80036; stroke-width: 1.0;"/><line style="stroke: #A80036; stroke-width: 1.5;" x1="299.5" x2="299.5" y1="1453.5508" y2="1486.3555"/><polygon fill="#A80036" points="295.5,1476.3555,299.5,1486.3555,303.5,1476.3555,299.5,1480.3555" style="stroke: #A80036; stroke-width: 1.0;"/><line style="stroke: #A80036; stroke-width: 1.5;" x1="299.5" x2="299.5" y1="1796.1992" y2="1871.1992"/><polygon fill="#A80036" points="295.5,1861.1992,299.5,1871.1992,303.5,1861.1992,299.5,1865.1992" style="stroke: #A80036; stroke-width: 1.0;"/><line style="stroke: #A80036; stroke-width: 1.5;" x1="870" x2="870" y1="1453.5508" y2="1486.3555"/><polygon fill="#A80036" points="866,1476.3555,870,1486.3555,874,1476.3555,870,1480.3555" style="stroke: #A80036; stroke-width: 1.0;"/><line style="stroke: #A80036; stroke-width: 1.5;" x1="870" x2="870" y1="1658.2617" y2="1871.1992"/><polygon fill="#A80036" points="866,1861.1992,870,1871.1992,874,1861.1992,870,1865.1992" style="stroke: #A80036; stroke-width: 1.0;"/><line style="stroke: #A80036; stroke-width: 1.5;" x1="331.5" x2="837" y1="1441.5508" y2="1441.5508"/><polygon fill="#A80036" points="827,1437.5508,837,1441.5508,827,1445.5508,831,1441.5508" style="stroke: #A80036; stroke-width: 1.0;"/><line style="stroke: #A80036; stroke-width: 1.5;" x1="605.5" x2="605.5" y1="1337.4521" y2="1404.5508"/><line style="stroke: #A80036; stroke-width: 1.5;" x1="605.5" x2="299.5" y1="1404.5508" y2="1404.5508"/><line style="stroke: #A80036; stroke-width: 1.5;" x1="299.5" x2="299.5" y1="1404.5508" y2="1429.5508"/><polygon fill="#A80036" points="295.5,1419.5508,299.5,1429.5508,303.5,1419.5508,299.5,1423.5508" style="stroke: #A80036; stroke-width: 1.0;"/><line style="stroke: #A80036; stroke-width: 1.5;" x1="903" x2="1176" y1="1441.5508" y2="1441.5508"/><line style="stroke: #A80036; stroke-width: 1.5;" x1="1176" x2="1176" y1="1441.5508" y2="1871.1992"/><polygon fill="#A80036" points="1172,1861.1992,1176,1871.1992,1180,1861.1992,1176,1865.1992" style="stroke: #A80036; stroke-width: 1.0;"/><line style="stroke: #A80036; stroke-width: 1.5;" x1="299.5" x2="1176" y1="1871.1992" y2="1871.1992"/><line style="stroke: #A80036; stroke-width: 1.5;" x1="605.5" x2="605.5" y1="1871.1992" y2="1911.1992"/><polygon fill="#A80036" points="601.5,1901.1992,605.5,1911.1992,609.5,1901.1992,605.5,1905.1992" style="stroke: #A80036; stroke-width: 1.0;"/><line style="stroke: #A80036; stroke-width: 1.5;" x1="605.5" x2="605.5" y1="1945.168" y2="1965.168"/><polygon fill="#A80036" points="601.5,1955.168,605.5,1965.168,609.5,1955.168,605.5,1959.168" style="stroke: #A80036; stroke-width: 1.0;"/></g></svg>