<?xml version="1.0" encoding="UTF-8" standalone="no"?><svg xmlns="http://www.w3.org/2000/svg" xmlns:xlink="http://www.w3.org/1999/xlink" contentScriptType="application/ecmascript" contentStyleType="text/css" height="1507px" preserveAspectRatio="none" style="width:1257px;height:1507px;" version="1.1" viewBox="0 0 1257 1507" width="1257px" zoomAndPan="magnify"><defs><linearGradient id="g1oky22a183dh40" x1="0%" x2="100%" y1="50%" y2="50%"><stop offset="0%" stop-color="#FFFFFF"/><stop offset="100%" stop-color="#FFFFFF"/></linearGradient><filter height="300%" id="f1oky22a183dh4" width="300%" x="-1" y="-1"><feGaussianBlur result="blurOut" stdDeviation="2.0"/><feColorMatrix in="blurOut" result="blurOut2" type="matrix" values="0 0 0 0 0 0 0 0 0 0 0 0 0 0 0 0 0 0 .4 0"/><feOffset dx="4.0" dy="4.0" in="blurOut2" result="blurOut3"/><feBlend in="SourceGraphic" in2="blurOut3" mode="normal"/></filter></defs><g><rect fill="url(#g1oky22a183dh40)" height="1507" style="stroke: none; stroke-width: 1.0;" width="1257" x="0" y="0"/><text fill="#000000" font-family="sans-serif" font-size="18" lengthAdjust="spacingAndGlyphs" textLength="254" x="500.5" y="26.708">Nuspell - Search Dictionaries</text><ellipse cx="628" cy="40.9531" fill="#000000" filter="url(#f1oky22a183dh4)" rx="10" ry="10" style="stroke: none; stroke-width: 1.0;"/><rect fill="#FFFFFF" filter="url(#f1oky22a183dh4)" height="81.4639" style="stroke: #000000; stroke-width: 2.0;" width="140" x="558" y="61.7549"/><path d="M688,62.7549 L688,71.0518 L678,81.0518 L558,81.0518 " fill="none" style="stroke: #000000; stroke-width: 2.0;"/><text fill="#000000" font-family="sans-serif" font-size="14" lengthAdjust="spacingAndGlyphs" textLength="120" x="561" y="75.75">add default paths</text><rect fill="#FEFECE" filter="url(#f1oky22a183dh4)" height="33.9688" rx="12.5" ry="12.5" style="stroke: #A80036; stroke-width: 1.5;" width="54" x="601" y="97.25"/><text fill="#000000" font-family="sans-serif" font-size="12" lengthAdjust="spacingAndGlyphs" textLength="34" x="611" y="118.3887">TODO</text><rect fill="#FFFFFF" filter="url(#f1oky22a183dh4)" height="373.0493" style="stroke: #000000; stroke-width: 2.0;" width="1222" x="17" y="154.0205"/><path d="M172,155.0205 L172,163.3174 L162,173.3174 L17,173.3174 " fill="none" style="stroke: #000000; stroke-width: 2.0;"/><text fill="#000000" font-family="sans-serif" font-size="14" lengthAdjust="spacingAndGlyphs" textLength="145" x="20" y="168.0156">add LibreOffice paths</text><polygon fill="#FEFECE" filter="url(#f1oky22a183dh4)" points="293,189.5156,333,189.5156,345,201.5156,333,213.5156,293,213.5156,281,201.5156,293,189.5156" style="stroke: #A80036; stroke-width: 1.5;"/><text fill="#000000" font-family="sans-serif" font-size="11" lengthAdjust="spacingAndGlyphs" textLength="20" x="317" y="223.7261">yes</text><text fill="#000000" font-family="sans-serif" font-size="11" lengthAdjust="spacingAndGlyphs" textLength="40" x="293" y="205.3237">POSIX?</text><rect fill="#FEFECE" filter="url(#f1oky22a183dh4)" height="33.9688" rx="12.5" ry="12.5" style="stroke: #A80036; stroke-width: 1.5;" width="136" x="245" y="245.2261"/><text fill="#000000" font-family="sans-serif" font-size="12" lengthAdjust="spacingAndGlyphs" textLength="116" x="255" y="266.3647">omit symbolic links</text><rect fill="#FEFECE" filter="url(#f1oky22a183dh4)" height="33.9688" rx="12.5" ry="12.5" style="stroke: #A80036; stroke-width: 1.5;" width="356" x="135" y="299.1948"/><text fill="#000000" font-family="sans-serif" font-size="12" lengthAdjust="spacingAndGlyphs" textLength="336" x="145" y="320.3335">search /usr/local/lib/libreoffice/share/extensions/dict-*</text><rect fill="#FEFECE" filter="url(#f1oky22a183dh4)" height="33.9688" rx="12.5" ry="12.5" style="stroke: #A80036; stroke-width: 1.5;" width="323" x="151.5" y="353.1636"/><text fill="#000000" font-family="sans-serif" font-size="12" lengthAdjust="spacingAndGlyphs" textLength="303" x="161.5" y="374.3022">search /usr/lib/libreoffice/share/extensions/dict-*</text><rect fill="#FEFECE" filter="url(#f1oky22a183dh4)" height="33.9688" rx="12.5" ry="12.5" style="stroke: #A80036; stroke-width: 1.5;" width="312" x="157" y="407.1323"/><text fill="#000000" font-family="sans-serif" font-size="12" lengthAdjust="spacingAndGlyphs" textLength="292" x="167" y="428.271">search /opt/libreoffice*/share/extensions/dict-*</text><rect fill="#FEFECE" filter="url(#f1oky22a183dh4)" height="33.9688" rx="12.5" ry="12.5" style="stroke: #A80036; stroke-width: 1.5;" width="572" x="27" y="461.1011"/><text fill="#000000" font-family="sans-serif" font-size="12" lengthAdjust="spacingAndGlyphs" textLength="552" x="37" y="482.2397">search $HOME/.config/libreoffice/?/user/uno_packages/cache/uno_packages/*/*.oxt/dict*</text><polygon fill="#FEFECE" filter="url(#f1oky22a183dh4)" points="879,189.5156,919,189.5156,931,201.5156,919,213.5156,879,213.5156,867,201.5156,879,189.5156" style="stroke: #A80036; stroke-width: 1.5;"/><text fill="#000000" font-family="sans-serif" font-size="11" lengthAdjust="spacingAndGlyphs" textLength="20" x="903" y="223.7261">yes</text><text fill="#000000" font-family="sans-serif" font-size="11" lengthAdjust="spacingAndGlyphs" textLength="40" x="879" y="205.3237">WIN32?</text><text fill="#000000" font-family="sans-serif" font-size="11" lengthAdjust="spacingAndGlyphs" textLength="14" x="931" y="198.9214">no</text><rect fill="#FEFECE" filter="url(#f1oky22a183dh4)" height="33.9688" rx="12.5" ry="12.5" style="stroke: #A80036; stroke-width: 1.5;" width="409" x="694.5" y="245.2261"/><text fill="#000000" font-family="sans-serif" font-size="12" lengthAdjust="spacingAndGlyphs" textLength="389" x="704.5" y="266.3647">search %PROGRAMFILES%\LibreOffice ?\share\extensions\dict-*</text><rect fill="#FEFECE" filter="url(#f1oky22a183dh4)" height="33.9688" rx="12.5" ry="12.5" style="stroke: #A80036; stroke-width: 1.5;" width="441" x="678.5" y="299.1948"/><text fill="#000000" font-family="sans-serif" font-size="12" lengthAdjust="spacingAndGlyphs" textLength="421" x="688.5" y="320.3335">search %PROGRAMFILES(x86)%\LibreOffice ?\share\extensions\dict-*</text><rect fill="#FEFECE" filter="url(#f1oky22a183dh4)" height="33.9688" rx="12.5" ry="12.5" style="stroke: #A80036; stroke-width: 1.5;" width="560" x="619" y="353.1636"/><text fill="#000000" font-family="sans-serif" font-size="12" lengthAdjust="spacingAndGlyphs" textLength="540" x="629" y="374.3022">search %APPDATA%\libreoffice\?\user\uno_packages\cache\uno_packages\*\*.oxt\dict*</text><rect fill="#FFFFFF" filter="url(#f1oky22a183dh4)" height="480.9868" style="stroke: #000000; stroke-width: 2.0;" width="949" x="153.5" y="537.8716"/><path d="M282.5,538.8716 L282.5,547.1685 L272.5,557.1685 L153.5,557.1685 " fill="none" style="stroke: #000000; stroke-width: 2.0;"/><text fill="#000000" font-family="sans-serif" font-size="14" lengthAdjust="spacingAndGlyphs" textLength="119" x="156.5" y="551.8667">add Mozilla paths</text><polygon fill="#FEFECE" filter="url(#f1oky22a183dh4)" points="329,573.3667,369,573.3667,381,585.3667,369,597.3667,329,597.3667,317,585.3667,329,573.3667" style="stroke: #A80036; stroke-width: 1.5;"/><text fill="#000000" font-family="sans-serif" font-size="11" lengthAdjust="spacingAndGlyphs" textLength="20" x="353" y="607.5771">yes</text><text fill="#000000" font-family="sans-serif" font-size="11" lengthAdjust="spacingAndGlyphs" textLength="40" x="329" y="589.1748">POSIX?</text><rect fill="#FEFECE" filter="url(#f1oky22a183dh4)" height="33.9688" rx="12.5" ry="12.5" style="stroke: #A80036; stroke-width: 1.5;" width="136" x="281" y="629.0771"/><text fill="#000000" font-family="sans-serif" font-size="12" lengthAdjust="spacingAndGlyphs" textLength="116" x="291" y="650.2158">omit symbolic links</text><rect fill="#FEFECE" filter="url(#f1oky22a183dh4)" height="33.9688" rx="12.5" ry="12.5" style="stroke: #A80036; stroke-width: 1.5;" width="261" x="218.5" y="683.0459"/><text fill="#000000" font-family="sans-serif" font-size="12" lengthAdjust="spacingAndGlyphs" textLength="241" x="228.5" y="704.1846">search /usr/local/lib/firefox/dictionaries</text><rect fill="#FEFECE" filter="url(#f1oky22a183dh4)" height="33.9688" rx="12.5" ry="12.5" style="stroke: #A80036; stroke-width: 1.5;" width="228" x="235" y="737.0146"/><text fill="#000000" font-family="sans-serif" font-size="12" lengthAdjust="spacingAndGlyphs" textLength="208" x="245" y="758.1533">search /usr/lib/firefox/dictionaries</text><rect fill="#FEFECE" filter="url(#f1oky22a183dh4)" height="33.9688" rx="12.5" ry="12.5" style="stroke: #A80036; stroke-width: 1.5;" width="297" x="200.5" y="790.9834"/><text fill="#000000" font-family="sans-serif" font-size="12" lengthAdjust="spacingAndGlyphs" textLength="277" x="210.5" y="812.1221">search /usr/local/lib/thunderbird/dictionaries</text><rect fill="#FEFECE" filter="url(#f1oky22a183dh4)" height="33.9688" rx="12.5" ry="12.5" style="stroke: #A80036; stroke-width: 1.5;" width="264" x="217" y="844.9521"/><text fill="#000000" font-family="sans-serif" font-size="12" lengthAdjust="spacingAndGlyphs" textLength="244" x="227" y="866.0908">search /usr/lib/thunderbird/dictionaries</text><rect fill="#FEFECE" filter="url(#f1oky22a183dh4)" height="33.9688" rx="12.5" ry="12.5" style="stroke: #A80036; stroke-width: 1.5;" width="371" x="163.5" y="898.9209"/><text fill="#000000" font-family="sans-serif" font-size="12" lengthAdjust="spacingAndGlyphs" textLength="351" x="173.5" y="920.0596">search $HOME/.mozilla/firefox/*/extensions/*/dictionaries</text><rect fill="#FEFECE" filter="url(#f1oky22a183dh4)" height="33.9688" rx="12.5" ry="12.5" style="stroke: #A80036; stroke-width: 1.5;" width="362" x="168" y="952.8896"/><text fill="#000000" font-family="sans-serif" font-size="12" lengthAdjust="spacingAndGlyphs" textLength="342" x="178" y="974.0283">search $HOME/.thunderbird/*/extensions/*/dictionaries</text><polygon fill="#FEFECE" filter="url(#f1oky22a183dh4)" points="778.5,573.3667,818.5,573.3667,830.5,585.3667,818.5,597.3667,778.5,597.3667,766.5,585.3667,778.5,573.3667" style="stroke: #A80036; stroke-width: 1.5;"/><text fill="#000000" font-family="sans-serif" font-size="11" lengthAdjust="spacingAndGlyphs" textLength="20" x="802.5" y="607.5771">yes</text><text fill="#000000" font-family="sans-serif" font-size="11" lengthAdjust="spacingAndGlyphs" textLength="40" x="778.5" y="589.1748">WIN32?</text><text fill="#000000" font-family="sans-serif" font-size="11" lengthAdjust="spacingAndGlyphs" textLength="14" x="830.5" y="582.7725">no</text><rect fill="#FEFECE" filter="url(#f1oky22a183dh4)" height="33.9688" rx="12.5" ry="12.5" style="stroke: #A80036; stroke-width: 1.5;" width="347" x="625" y="629.0771"/><text fill="#000000" font-family="sans-serif" font-size="12" lengthAdjust="spacingAndGlyphs" textLength="327" x="635" y="650.2158">search %PROGRAMFILES%\Mozilla Firefox\dictionaries</text><rect fill="#FEFECE" filter="url(#f1oky22a183dh4)" height="33.9688" rx="12.5" ry="12.5" style="stroke: #A80036; stroke-width: 1.5;" width="379" x="609" y="683.0459"/><text fill="#000000" font-family="sans-serif" font-size="12" lengthAdjust="spacingAndGlyphs" textLength="359" x="619" y="704.1846">search %PROGRAMFILES(x86)%\Mozilla Firefox\dictionaries</text><rect fill="#FEFECE" filter="url(#f1oky22a183dh4)" height="33.9688" rx="12.5" ry="12.5" style="stroke: #A80036; stroke-width: 1.5;" width="382" x="607.5" y="737.0146"/><text fill="#000000" font-family="sans-serif" font-size="12" lengthAdjust="spacingAndGlyphs" textLength="362" x="617.5" y="758.1533">search %PROGRAMFILES%\Mozilla Thunderbird\dictionaries</text><rect fill="#FEFECE" filter="url(#f1oky22a183dh4)" height="33.9688" rx="12.5" ry="12.5" style="stroke: #A80036; stroke-width: 1.5;" width="414" x="591.5" y="790.9834"/><text fill="#000000" font-family="sans-serif" font-size="12" lengthAdjust="spacingAndGlyphs" textLength="394" x="601.5" y="812.1221">search %PROGRAMFILES(x86)%\Mozilla Thunderbird\dictionaries</text><rect fill="#FEFECE" filter="url(#f1oky22a183dh4)" height="33.9688" rx="12.5" ry="12.5" style="stroke: #A80036; stroke-width: 1.5;" width="453" x="572" y="844.9521"/><text fill="#000000" font-family="sans-serif" font-size="12" lengthAdjust="spacingAndGlyphs" textLength="433" x="582" y="866.0908">search %APPDATA%\Mozilla\Firefox\Profiles\*\extensions\*\dictionaries</text><rect fill="#FEFECE" filter="url(#f1oky22a183dh4)" height="33.9688" rx="12.5" ry="12.5" style="stroke: #A80036; stroke-width: 1.5;" width="488" x="554.5" y="898.9209"/><text fill="#000000" font-family="sans-serif" font-size="12" lengthAdjust="spacingAndGlyphs" textLength="468" x="564.5" y="920.0596">search %APPDATA%\Mozilla\Thunderbird\Profiles\*\extensions\*\dictionaries</text><rect fill="#FFFFFF" filter="url(#f1oky22a183dh4)" height="373.0493" style="stroke: #000000; stroke-width: 2.0;" width="1236" x="10" y="1029.6602"/><path d="M226,1030.6602 L226,1038.957 L216,1048.957 L10,1048.957 " fill="none" style="stroke: #000000; stroke-width: 2.0;"/><text fill="#000000" font-family="sans-serif" font-size="14" lengthAdjust="spacingAndGlyphs" textLength="206" x="13" y="1043.6553">add Apache OpenOffice paths</text><polygon fill="#FEFECE" filter="url(#f1oky22a183dh4)" points="290.5,1065.1553,330.5,1065.1553,342.5,1077.1553,330.5,1089.1553,290.5,1089.1553,278.5,1077.1553,290.5,1065.1553" style="stroke: #A80036; stroke-width: 1.5;"/><text fill="#000000" font-family="sans-serif" font-size="11" lengthAdjust="spacingAndGlyphs" textLength="20" x="314.5" y="1099.3657">yes</text><text fill="#000000" font-family="sans-serif" font-size="11" lengthAdjust="spacingAndGlyphs" textLength="40" x="290.5" y="1080.9634">POSIX?</text><rect fill="#FEFECE" filter="url(#f1oky22a183dh4)" height="33.9688" rx="12.5" ry="12.5" style="stroke: #A80036; stroke-width: 1.5;" width="136" x="242.5" y="1120.8657"/><text fill="#000000" font-family="sans-serif" font-size="12" lengthAdjust="spacingAndGlyphs" textLength="116" x="252.5" y="1142.0044">omit symbolic links</text><rect fill="#FEFECE" filter="url(#f1oky22a183dh4)" height="33.9688" rx="12.5" ry="12.5" style="stroke: #A80036; stroke-width: 1.5;" width="361" x="130" y="1174.8345"/><text fill="#000000" font-family="sans-serif" font-size="12" lengthAdjust="spacingAndGlyphs" textLength="341" x="140" y="1195.9731">search /usr/local/lib/openoffice/share/extensions/dict-*</text><rect fill="#FEFECE" filter="url(#f1oky22a183dh4)" height="33.9688" rx="12.5" ry="12.5" style="stroke: #A80036; stroke-width: 1.5;" width="328" x="146.5" y="1228.8032"/><text fill="#000000" font-family="sans-serif" font-size="12" lengthAdjust="spacingAndGlyphs" textLength="308" x="156.5" y="1249.9419">search /usr/lib/openoffice/share/extensions/dict-*</text><rect fill="#FEFECE" filter="url(#f1oky22a183dh4)" height="33.9688" rx="12.5" ry="12.5" style="stroke: #A80036; stroke-width: 1.5;" width="317" x="152" y="1282.772"/><text fill="#000000" font-family="sans-serif" font-size="12" lengthAdjust="spacingAndGlyphs" textLength="297" x="162" y="1303.9106">search /opt/openoffice*/share/extensions/dict-*</text><rect fill="#FEFECE" filter="url(#f1oky22a183dh4)" height="33.9688" rx="12.5" ry="12.5" style="stroke: #A80036; stroke-width: 1.5;" width="581" x="20" y="1336.7407"/><text fill="#000000" font-family="sans-serif" font-size="12" lengthAdjust="spacingAndGlyphs" textLength="561" x="30" y="1357.8794">search $HOME//.config/openoffice/?/user/uno_packages/cache/uno_packages/*/*.oxt/dict*</text><polygon fill="#FEFECE" filter="url(#f1oky22a183dh4)" points="883.5,1065.1553,923.5,1065.1553,935.5,1077.1553,923.5,1089.1553,883.5,1089.1553,871.5,1077.1553,883.5,1065.1553" style="stroke: #A80036; stroke-width: 1.5;"/><text fill="#000000" font-family="sans-serif" font-size="11" lengthAdjust="spacingAndGlyphs" textLength="20" x="907.5" y="1099.3657">yes</text><text fill="#000000" font-family="sans-serif" font-size="11" lengthAdjust="spacingAndGlyphs" textLength="40" x="883.5" y="1080.9634">WIN32?</text><text fill="#000000" font-family="sans-serif" font-size="11" lengthAdjust="spacingAndGlyphs" textLength="14" x="935.5" y="1074.561">no</text><rect fill="#FEFECE" filter="url(#f1oky22a183dh4)" height="33.9688" rx="12.5" ry="12.5" style="stroke: #A80036; stroke-width: 1.5;" width="420" x="693.5" y="1120.8657"/><text fill="#000000" font-family="sans-serif" font-size="12" lengthAdjust="spacingAndGlyphs" textLength="400" x="703.5" y="1142.0044">search %PROGRAMFILES%\OpeneOffice ?\share\extensions\dict-*</text><rect fill="#FEFECE" filter="url(#f1oky22a183dh4)" height="33.9688" rx="12.5" ry="12.5" style="stroke: #A80036; stroke-width: 1.5;" width="444" x="681.5" y="1174.8345"/><text fill="#000000" font-family="sans-serif" font-size="12" lengthAdjust="spacingAndGlyphs" textLength="424" x="691.5" y="1195.9731">search %PROGRAMFILES(x86)%\OpenOffice ?\share\extensions\dict-*</text><rect fill="#FEFECE" filter="url(#f1oky22a183dh4)" height="33.9688" rx="12.5" ry="12.5" style="stroke: #A80036; stroke-width: 1.5;" width="565" x="621" y="1228.8032"/><text fill="#000000" font-family="sans-serif" font-size="12" lengthAdjust="spacingAndGlyphs" textLength="545" x="631" y="1249.9419">search %APPDATA%\openoffice\?\user\uno_packages\cache\uno_packages\*\*.oxt\dict*</text><rect fill="#FEFECE" filter="url(#f1oky22a183dh4)" height="33.9688" rx="12.5" ry="12.5" style="stroke: #A80036; stroke-width: 1.5;" width="195" x="530.5" y="1422.7095"/><text fill="#000000" font-family="sans-serif" font-size="12" lengthAdjust="spacingAndGlyphs" textLength="175" x="540.5" y="1443.8481">search dictionaries in paths</text><ellipse cx="628" cy="1486.6782" fill="none" filter="url(#f1oky22a183dh4)" rx="10" ry="10" style="stroke: #000000; stroke-width: 1.0;"/><ellipse cx="628.5" cy="1487.1782" fill="#000000" filter="url(#f1oky22a183dh4)" rx="6" ry="6" style="stroke: none; stroke-width: 1.0;"/><line style="stroke: #A80036; stroke-width: 1.5;" x1="628" x2="628" y1="50.9531" y2="97.25"/><polygon fill="#A80036" points="624,87.25,628,97.25,632,87.25,628,91.25" style="stroke: #A80036; stroke-width: 1.0;"/><line style="stroke: #A80036; stroke-width: 1.5;" x1="313" x2="313" y1="279.1948" y2="299.1948"/><polygon fill="#A80036" points="309,289.1948,313,299.1948,317,289.1948,313,293.1948" style="stroke: #A80036; stroke-width: 1.0;"/><line style="stroke: #A80036; stroke-width: 1.5;" x1="313" x2="313" y1="333.1636" y2="353.1636"/><polygon fill="#A80036" points="309,343.1636,313,353.1636,317,343.1636,313,347.1636" style="stroke: #A80036; stroke-width: 1.0;"/><line style="stroke: #A80036; stroke-width: 1.5;" x1="313" x2="313" y1="387.1323" y2="407.1323"/><polygon fill="#A80036" points="309,397.1323,313,407.1323,317,397.1323,313,401.1323" style="stroke: #A80036; stroke-width: 1.0;"/><line style="stroke: #A80036; stroke-width: 1.5;" x1="313" x2="313" y1="441.1011" y2="461.1011"/><polygon fill="#A80036" points="309,451.1011,313,461.1011,317,451.1011,313,455.1011" style="stroke: #A80036; stroke-width: 1.0;"/><line style="stroke: #A80036; stroke-width: 1.5;" x1="899" x2="899" y1="279.1948" y2="299.1948"/><polygon fill="#A80036" points="895,289.1948,899,299.1948,903,289.1948,899,293.1948" style="stroke: #A80036; stroke-width: 1.0;"/><line style="stroke: #A80036; stroke-width: 1.5;" x1="899" x2="899" y1="333.1636" y2="353.1636"/><polygon fill="#A80036" points="895,343.1636,899,353.1636,903,343.1636,899,347.1636" style="stroke: #A80036; stroke-width: 1.0;"/><line style="stroke: #A80036; stroke-width: 1.5;" x1="313" x2="313" y1="213.5156" y2="245.2261"/><polygon fill="#A80036" points="309,235.2261,313,245.2261,317,235.2261,313,239.2261" style="stroke: #A80036; stroke-width: 1.0;"/><line style="stroke: #A80036; stroke-width: 1.5;" x1="313" x2="313" y1="495.0698" y2="515.0698"/><polygon fill="#A80036" points="309,505.0698,313,515.0698,317,505.0698,313,509.0698" style="stroke: #A80036; stroke-width: 1.0;"/><line style="stroke: #A80036; stroke-width: 1.5;" x1="899" x2="899" y1="213.5156" y2="245.2261"/><polygon fill="#A80036" points="895,235.2261,899,245.2261,903,235.2261,899,239.2261" style="stroke: #A80036; stroke-width: 1.0;"/><line style="stroke: #A80036; stroke-width: 1.5;" x1="899" x2="899" y1="387.1323" y2="515.0698"/><polygon fill="#A80036" points="895,505.0698,899,515.0698,903,505.0698,899,509.0698" style="stroke: #A80036; stroke-width: 1.0;"/><line style="stroke: #A80036; stroke-width: 1.5;" x1="345" x2="867" y1="201.5156" y2="201.5156"/><polygon fill="#A80036" points="857,197.5156,867,201.5156,857,205.5156,861,201.5156" style="stroke: #A80036; stroke-width: 1.0;"/><line style="stroke: #A80036; stroke-width: 1.5;" x1="628" x2="628" y1="131.2188" y2="174.5156"/><line style="stroke: #A80036; stroke-width: 1.5;" x1="628" x2="313" y1="174.5156" y2="174.5156"/><line style="stroke: #A80036; stroke-width: 1.5;" x1="313" x2="313" y1="174.5156" y2="189.5156"/><polygon fill="#A80036" points="309,179.5156,313,189.5156,317,179.5156,313,183.5156" style="stroke: #A80036; stroke-width: 1.0;"/><line style="stroke: #A80036; stroke-width: 1.5;" x1="931" x2="1214" y1="201.5156" y2="201.5156"/><line style="stroke: #A80036; stroke-width: 1.5;" x1="1214" x2="1214" y1="201.5156" y2="515.0698"/><polygon fill="#A80036" points="1210,505.0698,1214,515.0698,1218,505.0698,1214,509.0698" style="stroke: #A80036; stroke-width: 1.0;"/><line style="stroke: #A80036; stroke-width: 1.5;" x1="313" x2="1214" y1="515.0698" y2="515.0698"/><line style="stroke: #A80036; stroke-width: 1.5;" x1="349" x2="349" y1="663.0459" y2="683.0459"/><polygon fill="#A80036" points="345,673.0459,349,683.0459,353,673.0459,349,677.0459" style="stroke: #A80036; stroke-width: 1.0;"/><line style="stroke: #A80036; stroke-width: 1.5;" x1="349" x2="349" y1="717.0146" y2="737.0146"/><polygon fill="#A80036" points="345,727.0146,349,737.0146,353,727.0146,349,731.0146" style="stroke: #A80036; stroke-width: 1.0;"/><line style="stroke: #A80036; stroke-width: 1.5;" x1="349" x2="349" y1="770.9834" y2="790.9834"/><polygon fill="#A80036" points="345,780.9834,349,790.9834,353,780.9834,349,784.9834" style="stroke: #A80036; stroke-width: 1.0;"/><line style="stroke: #A80036; stroke-width: 1.5;" x1="349" x2="349" y1="824.9521" y2="844.9521"/><polygon fill="#A80036" points="345,834.9521,349,844.9521,353,834.9521,349,838.9521" style="stroke: #A80036; stroke-width: 1.0;"/><line style="stroke: #A80036; stroke-width: 1.5;" x1="349" x2="349" y1="878.9209" y2="898.9209"/><polygon fill="#A80036" points="345,888.9209,349,898.9209,353,888.9209,349,892.9209" style="stroke: #A80036; stroke-width: 1.0;"/><line style="stroke: #A80036; stroke-width: 1.5;" x1="349" x2="349" y1="932.8896" y2="952.8896"/><polygon fill="#A80036" points="345,942.8896,349,952.8896,353,942.8896,349,946.8896" style="stroke: #A80036; stroke-width: 1.0;"/><line style="stroke: #A80036; stroke-width: 1.5;" x1="798.5" x2="798.5" y1="663.0459" y2="683.0459"/><polygon fill="#A80036" points="794.5,673.0459,798.5,683.0459,802.5,673.0459,798.5,677.0459" style="stroke: #A80036; stroke-width: 1.0;"/><line style="stroke: #A80036; stroke-width: 1.5;" x1="798.5" x2="798.5" y1="717.0146" y2="737.0146"/><polygon fill="#A80036" points="794.5,727.0146,798.5,737.0146,802.5,727.0146,798.5,731.0146" style="stroke: #A80036; stroke-width: 1.0;"/><line style="stroke: #A80036; stroke-width: 1.5;" x1="798.5" x2="798.5" y1="770.9834" y2="790.9834"/><polygon fill="#A80036" points="794.5,780.9834,798.5,790.9834,802.5,780.9834,798.5,784.9834" style="stroke: #A80036; stroke-width: 1.0;"/><line style="stroke: #A80036; stroke-width: 1.5;" x1="798.5" x2="798.5" y1="824.9521" y2="844.9521"/><polygon fill="#A80036" points="794.5,834.9521,798.5,844.9521,802.5,834.9521,798.5,838.9521" style="stroke: #A80036; stroke-width: 1.0;"/><line style="stroke: #A80036; stroke-width: 1.5;" x1="798.5" x2="798.5" y1="878.9209" y2="898.9209"/><polygon fill="#A80036" points="794.5,888.9209,798.5,898.9209,802.5,888.9209,798.5,892.9209" style="stroke: #A80036; stroke-width: 1.0;"/><line style="stroke: #A80036; stroke-width: 1.5;" x1="349" x2="349" y1="597.3667" y2="629.0771"/><polygon fill="#A80036" points="345,619.0771,349,629.0771,353,619.0771,349,623.0771" style="stroke: #A80036; stroke-width: 1.0;"/><line style="stroke: #A80036; stroke-width: 1.5;" x1="349" x2="349" y1="986.8584" y2="1006.8584"/><polygon fill="#A80036" points="345,996.8584,349,1006.8584,353,996.8584,349,1000.8584" style="stroke: #A80036; stroke-width: 1.0;"/><line style="stroke: #A80036; stroke-width: 1.5;" x1="798.5" x2="798.5" y1="597.3667" y2="629.0771"/><polygon fill="#A80036" points="794.5,619.0771,798.5,629.0771,802.5,619.0771,798.5,623.0771" style="stroke: #A80036; stroke-width: 1.0;"/><line style="stroke: #A80036; stroke-width: 1.5;" x1="798.5" x2="798.5" y1="932.8896" y2="1006.8584"/><polygon fill="#A80036" points="794.5,996.8584,798.5,1006.8584,802.5,996.8584,798.5,1000.8584" style="stroke: #A80036; stroke-width: 1.0;"/><line style="stroke: #A80036; stroke-width: 1.5;" x1="381" x2="766.5" y1="585.3667" y2="585.3667"/><polygon fill="#A80036" points="756.5,581.3667,766.5,585.3667,756.5,589.3667,760.5,585.3667" style="stroke: #A80036; stroke-width: 1.0;"/><line style="stroke: #A80036; stroke-width: 1.5;" x1="628" x2="628" y1="515.0698" y2="558.3667"/><line style="stroke: #A80036; stroke-width: 1.5;" x1="628" x2="349" y1="558.3667" y2="558.3667"/><line style="stroke: #A80036; stroke-width: 1.5;" x1="349" x2="349" y1="558.3667" y2="573.3667"/><polygon fill="#A80036" points="345,563.3667,349,573.3667,353,563.3667,349,567.3667" style="stroke: #A80036; stroke-width: 1.0;"/><line style="stroke: #A80036; stroke-width: 1.5;" x1="830.5" x2="1077.5" y1="585.3667" y2="585.3667"/><line style="stroke: #A80036; stroke-width: 1.5;" x1="1077.5" x2="1077.5" y1="585.3667" y2="1006.8584"/><polygon fill="#A80036" points="1073.5,996.8584,1077.5,1006.8584,1081.5,996.8584,1077.5,1000.8584" style="stroke: #A80036; stroke-width: 1.0;"/><line style="stroke: #A80036; stroke-width: 1.5;" x1="349" x2="1077.5" y1="1006.8584" y2="1006.8584"/><line style="stroke: #A80036; stroke-width: 1.5;" x1="310.5" x2="310.5" y1="1154.8345" y2="1174.8345"/><polygon fill="#A80036" points="306.5,1164.8345,310.5,1174.8345,314.5,1164.8345,310.5,1168.8345" style="stroke: #A80036; stroke-width: 1.0;"/><line style="stroke: #A80036; stroke-width: 1.5;" x1="310.5" x2="310.5" y1="1208.8032" y2="1228.8032"/><polygon fill="#A80036" points="306.5,1218.8032,310.5,1228.8032,314.5,1218.8032,310.5,1222.8032" style="stroke: #A80036; stroke-width: 1.0;"/><line style="stroke: #A80036; stroke-width: 1.5;" x1="310.5" x2="310.5" y1="1262.772" y2="1282.772"/><polygon fill="#A80036" points="306.5,1272.772,310.5,1282.772,314.5,1272.772,310.5,1276.772" style="stroke: #A80036; stroke-width: 1.0;"/><line style="stroke: #A80036; stroke-width: 1.5;" x1="310.5" x2="310.5" y1="1316.7407" y2="1336.7407"/><polygon fill="#A80036" points="306.5,1326.7407,310.5,1336.7407,314.5,1326.7407,310.5,1330.7407" style="stroke: #A80036; stroke-width: 1.0;"/><line style="stroke: #A80036; stroke-width: 1.5;" x1="903.5" x2="903.5" y1="1154.8345" y2="1174.8345"/><polygon fill="#A80036" points="899.5,1164.8345,903.5,1174.8345,907.5,1164.8345,903.5,1168.8345" style="stroke: #A80036; stroke-width: 1.0;"/><line style="stroke: #A80036; stroke-width: 1.5;" x1="903.5" x2="903.5" y1="1208.8032" y2="1228.8032"/><polygon fill="#A80036" points="899.5,1218.8032,903.5,1228.8032,907.5,1218.8032,903.5,1222.8032" style="stroke: #A80036; stroke-width: 1.0;"/><line style="stroke: #A80036; stroke-width: 1.5;" x1="310.5" x2="310.5" y1="1089.1553" y2="1120.8657"/><polygon fill="#A80036" points="306.5,1110.8657,310.5,1120.8657,314.5,1110.8657,310.5,1114.8657" style="stroke: #A80036; stroke-width: 1.0;"/><line style="stroke: #A80036; stroke-width: 1.5;" x1="310.5" x2="310.5" y1="1370.7095" y2="1390.7095"/><polygon fill="#A80036" points="306.5,1380.7095,310.5,1390.7095,314.5,1380.7095,310.5,1384.7095" style="stroke: #A80036; stroke-width: 1.0;"/><line style="stroke: #A80036; stroke-width: 1.5;" x1="903.5" x2="903.5" y1="1089.1553" y2="1120.8657"/><polygon fill="#A80036" points="899.5,1110.8657,903.5,1120.8657,907.5,1110.8657,903.5,1114.8657" style="stroke: #A80036; stroke-width: 1.0;"/><line style="stroke: #A80036; stroke-width: 1.5;" x1="903.5" x2="903.5" y1="1262.772" y2="1390.7095"/><polygon fill="#A80036" points="899.5,1380.7095,903.5,1390.7095,907.5,1380.7095,903.5,1384.7095" style="stroke: #A80036; stroke-width: 1.0;"/><line style="stroke: #A80036; stroke-width: 1.5;" x1="342.5" x2="871.5" y1="1077.1553" y2="1077.1553"/><polygon fill="#A80036" points="861.5,1073.1553,871.5,1077.1553,861.5,1081.1553,865.5,1077.1553" style="stroke: #A80036; stroke-width: 1.0;"/><line style="stroke: #A80036; stroke-width: 1.5;" x1="628" x2="628" y1="1006.8584" y2="1050.1553"/><line style="stroke: #A80036; stroke-width: 1.5;" x1="628" x2="310.5" y1="1050.1553" y2="1050.1553"/><line style="stroke: #A80036; stroke-width: 1.5;" x1="310.5" x2="310.5" y1="1050.1553" y2="1065.1553"/><polygon fill="#A80036" points="306.5,1055.1553,310.5,1065.1553,314.5,1055.1553,310.5,1059.1553" style="stroke: #A80036; stroke-width: 1.0;"/><line style="stroke: #A80036; stroke-width: 1.5;" x1="935.5" x2="1221" y1="1077.1553" y2="1077.1553"/><line style="stroke: #A80036; stroke-width: 1.5;" x1="1221" x2="1221" y1="1077.1553" y2="1390.7095"/><polygon fill="#A80036" points="1217,1380.7095,1221,1390.7095,1225,1380.7095,1221,1384.7095" style="stroke: #A80036; stroke-width: 1.0;"/><line style="stroke: #A80036; stroke-width: 1.5;" x1="310.5" x2="1221" y1="1390.7095" y2="1390.7095"/><line style="stroke: #A80036; stroke-width: 1.5;" x1="628" x2="628" y1="1390.7095" y2="1422.7095"/><polygon fill="#A80036" points="624,1412.7095,628,1422.7095,632,1412.7095,628,1416.7095" style="stroke: #A80036; stroke-width: 1.0;"/><line style="stroke: #A80036; stroke-width: 1.5;" x1="628" x2="628" y1="1456.6782" y2="1476.6782"/><polygon fill="#A80036" points="624,1466.6782,628,1476.6782,632,1466.6782,628,1470.6782" style="stroke: #A80036; stroke-width: 1.0;"/><!--
@startuml
skinparam backgroundcolor White|White

title Nuspell - Search Dictionaries

start
partition "add default paths" {
:TODO;
}

partition "add LibreOffice paths" {
if (POSIX?) then (yes)
	:omit symbolic links;
	:search /usr/local/lib/libreoffice/share/extensions/dict-*;
	:search /usr/lib/libreoffice/share/extensions/dict-*;
	:search /opt/libreoffice*/share/extensions/dict-*;
	:search $HOME/.config/libreoffice/?/user/uno_packages/cache/uno_packages/*/*.oxt/dict*;
elseif(WIN32?) then (yes)
	:search %PROGRAMFILES%\\LibreOffice ?\\share\\extensions\\dict-*;
	:search %PROGRAMFILES(x86)%\\LibreOffice ?\\share\\extensions\\dict-*;
	:search %APPDATA%\\libreoffice\\?\\user\\uno_packages\\cache\\uno_packages\\*\\*.oxt\\dict*;
else (no)
endif
}

partition "add Mozilla paths" {
if (POSIX?) then (yes)
	:omit symbolic links;
	:search /usr/local/lib/firefox/dictionaries;
	:search /usr/lib/firefox/dictionaries;
	:search /usr/local/lib/thunderbird/dictionaries;
	:search /usr/lib/thunderbird/dictionaries;
	:search $HOME/.mozilla/firefox/*/extensions/*/dictionaries;
	:search $HOME/.thunderbird/*/extensions/*/dictionaries;
elseif(WIN32?) then (yes)
	:search %PROGRAMFILES%\\Mozilla Firefox\\dictionaries;
	:search %PROGRAMFILES(x86)%\\Mozilla Firefox\\dictionaries;
	:search %PROGRAMFILES%\\Mozilla Thunderbird\\dictionaries;
	:search %PROGRAMFILES(x86)%\\Mozilla Thunderbird\\dictionaries;
	:search %APPDATA%\\Mozilla\\Firefox\\Profiles\\*\\extensions\\*\\dictionaries;
	:search %APPDATA%\\Mozilla\\Thunderbird\\Profiles\\*\\extensions\\*\\dictionaries;
else (no)
endif
}

partition "add Apache OpenOffice paths" {
if (POSIX?) then (yes)
	:omit symbolic links;
	:search /usr/local/lib/openoffice/share/extensions/dict-*;
	:search /usr/lib/openoffice/share/extensions/dict-*;
	:search /opt/openoffice*/share/extensions/dict-*;
	:search $HOME//.config/openoffice/?/user/uno_packages/cache/uno_packages/*/*.oxt/dict*;
elseif(WIN32?) then (yes)
	:search %PROGRAMFILES%\\OpeneOffice ?\\share\\extensions\\dict-*;
	:search %PROGRAMFILES(x86)%\\OpenOffice ?\\share\\extensions\\dict-*;
	:search %APPDATA%\\openoffice\\?\\user\\uno_packages\\cache\\uno_packages\\*\\*.oxt\\dict*;
else (no)
endif
}

:search dictionaries in paths;
stop

@enduml

PlantUML version 1.2018.06(Mon May 21 12:34:53 CEST 2018)
(GPL source distribution)
Java Runtime: OpenJDK Runtime Environment
JVM: OpenJDK 64-Bit Server VM
Java Version: 10.0.2+13-Ubuntu-1ubuntu0.18.04.2
Operating System: Linux
OS Version: 4.15.0-33-generic
Default Encoding: UTF-8
Language: en
Country: US
--></g></svg>