<?xml version="1.0" encoding="UTF-8" standalone="no"?><svg xmlns="http://www.w3.org/2000/svg" xmlns:xlink="http://www.w3.org/1999/xlink" contentScriptType="application/ecmascript" contentStyleType="text/css" height="1389px" preserveAspectRatio="none" style="width:854px;height:1389px;" version="1.1" viewBox="0 0 854 1389" width="854px" zoomAndPan="magnify"><defs><linearGradient id="gananp06p831d0" x1="0%" x2="100%" y1="50%" y2="50%"><stop offset="0%" stop-color="#FFFFFF"/><stop offset="100%" stop-color="#FFFFFF"/></linearGradient><filter height="300%" id="fananp06p831d" width="300%" x="-1" y="-1"><feGaussianBlur result="blurOut" stdDeviation="2.0"/><feColorMatrix in="blurOut" result="blurOut2" type="matrix" values="0 0 0 0 0 0 0 0 0 0 0 0 0 0 0 0 0 0 .4 0"/><feOffset dx="4.0" dy="4.0" in="blurOut2" result="blurOut3"/><feBlend in="SourceGraphic" in2="blurOut3" mode="normal"/></filter><filter height="1" id="bananp06p831d0" width="1" x="0" y="0"><feFlood flood-color="#87CEEB" result="flood"/><feComposite in="SourceGraphic" in2="flood" operator="over"/></filter></defs><g><rect fill="url(#gananp06p831d0)" height="1389" style="stroke: none; stroke-width: 1.0;" width="854" x="0" y="0"/><text fill="#000000" font-family="sans-serif" font-size="18" font-weight="bold" lengthAdjust="spacingAndGlyphs" textLength="248" x="200" y="26.708">Nuspell - segmentation -</text><text fill="#000000" font-family="monospace" font-size="18" font-style="italic" font-weight="bold" lengthAdjust="spacingAndGlyphs" textLength="198" x="454" y="26.708">word_breakables(s)</text><text fill="#000000" font-family="sans-serif" font-size="18" lengthAdjust="spacingAndGlyphs" textLength="0" x="429" y="47.6611"/><ellipse cx="531.5" cy="61.9063" fill="#000000" filter="url(#fananp06p831d)" rx="10" ry="10" style="stroke: none; stroke-width: 1.0;"/><path d="M10,78.4722 L10,254.9331 L431,254.9331 L431,88.4722 L421,78.4722 L10,78.4722 " fill="#FFFFFF" filter="url(#fananp06p831d)" style="stroke: #000000; stroke-width: 1.0;"/><path d="M421,78.4722 L421,88.4722 L431,88.4722 L421,78.4722 " fill="#FFFFFF" style="stroke: #000000; stroke-width: 1.0;"/><text fill="#000000" font-family="sans-serif" font-size="13" lengthAdjust="spacingAndGlyphs" textLength="387" x="16" y="95.5391">1 for "break" and 0 for "do not break".  The length of iteration</text><text fill="#000000" font-family="sans-serif" font-size="13" lengthAdjust="spacingAndGlyphs" textLength="194" x="16" y="110.6719">will be the same as ``len(s)``.</text><text fill="#000000" font-family="sans-serif" font-size="13" lengthAdjust="spacingAndGlyphs" textLength="0" x="20" y="125.8047"/><text fill="#000000" font-family="monospace" font-size="13" lengthAdjust="spacingAndGlyphs" textLength="312" x="16" y="140.9375">assert(list(word_breakables(u"ABC")) ==</text><text fill="#000000" font-family="sans-serif" font-size="13" lengthAdjust="spacingAndGlyphs" textLength="106" x="16" y="156.0703">"        [1, 0, 0]);""</text><text fill="#000000" font-family="sans-serif" font-size="13" lengthAdjust="spacingAndGlyphs" textLength="0" x="20" y="171.2031"/><text fill="#000000" font-family="monospace" font-size="13" lengthAdjust="spacingAndGlyphs" textLength="392" x="16" y="186.3359">assert(list(word_breakables(u"Hello, world.")) ==</text><text fill="#000000" font-family="monospace" font-size="13" lengthAdjust="spacingAndGlyphs" textLength="328" x="72" y="201.4688">[1, 0, 0, 0, 0, 1, 1, 1, 0, 0, 0, 0, 1]);</text><text fill="#000000" font-family="sans-serif" font-size="13" lengthAdjust="spacingAndGlyphs" textLength="0" x="20" y="216.6016"/><text fill="#000000" font-family="monospace" font-size="13" lengthAdjust="spacingAndGlyphs" textLength="400" x="16" y="231.7344">assert(list(word_breakables(u"\x01\u0308\x01")) ==</text><text fill="#000000" font-family="monospace" font-size="13" lengthAdjust="spacingAndGlyphs" textLength="88" x="72" y="246.8672">[1, 0, 1]);</text><rect fill="#FFFFFF" filter="url(#fananp06p831d)" height="33.9688" rx="12.5" ry="12.5" style="stroke: #000000; stroke-width: 1.5;" width="161" x="451" y="149.7183"/><text fill="#000000" font-family="monospace" font-size="12" font-weight="bold" lengthAdjust="spacingAndGlyphs" textLength="7" x="461" y="170.8569">s</text><text fill="#000000" font-family="sans-serif" font-size="12" lengthAdjust="spacingAndGlyphs" textLength="130" x="472" y="170.8569">contains input string</text><rect fill="#FFFFFF" filter="url(#fananp06p831d)" height="33.9688" rx="12.5" ry="12.5" style="stroke: #000000; stroke-width: 1.5;" width="111" x="476" y="316.7695"/><text fill="#000000" font-family="sans-serif" font-size="12" lengthAdjust="spacingAndGlyphs" textLength="91" x="486" y="337.9082">return nothing</text><ellipse cx="531.5" cy="388.2539" fill="none" filter="url(#fananp06p831d)" rx="10" ry="10" style="stroke: #000000; stroke-width: 1.0;"/><ellipse cx="532" cy="388.7539" fill="#000000" filter="url(#fananp06p831d)" rx="6" ry="6" style="stroke: none; stroke-width: 1.0;"/><polygon fill="#FFFFFF" filter="url(#fananp06p831d)" points="487.5,268.3672,575.5,268.3672,587.5,280.3672,575.5,292.3672,487.5,292.3672,475.5,280.3672,487.5,268.3672" style="stroke: #000000; stroke-width: 1.5;"/><text fill="#000000" font-family="sans-serif" font-size="11" lengthAdjust="spacingAndGlyphs" textLength="20" x="535.5" y="302.5776">yes</text><text fill="#000000" font-family="sans-serif" font-size="11" font-weight="bold" lengthAdjust="spacingAndGlyphs" textLength="19" x="487.5" y="284.1753">""s</text><text fill="#000000" font-family="sans-serif" font-size="11" lengthAdjust="spacingAndGlyphs" textLength="69" x="506.5" y="284.1753">"" is empty?</text><text fill="#000000" font-family="sans-serif" font-size="11" lengthAdjust="spacingAndGlyphs" textLength="14" x="587.5" y="277.7729">no</text><rect fill="#FFFFFF" filter="url(#fananp06p831d)" height="33.9688" rx="12.5" ry="12.5" style="stroke: #000000; stroke-width: 1.5;" width="485" x="289" y="440.2539"/><text fill="#000000" font-family="sans-serif" font-size="12" lengthAdjust="spacingAndGlyphs" textLength="20" x="299" y="461.3926">set</text><text fill="#000000" font-family="sans-serif" font-size="12" font-weight="bold" lengthAdjust="spacingAndGlyphs" textLength="160" x="323" y="461.3926">""primitive_boundaties</text><text fill="#000000" font-family="monospace" font-size="12" lengthAdjust="spacingAndGlyphs" textLength="91" x="490" y="461.3926">to list of //</text><text fill="#000000" font-family="sans-serif" font-size="12" lengthAdjust="spacingAndGlyphs" textLength="183" x="581" y="461.3926">preprocess_boundaries(s)""//</text><rect fill="#FFFFFF" filter="url(#fananp06p831d)" height="33.9688" rx="12.5" ry="12.5" style="stroke: #000000; stroke-width: 1.5;" width="198" x="432.5" y="494.2227"/><text fill="#000000" font-family="sans-serif" font-size="12" lengthAdjust="spacingAndGlyphs" textLength="20" x="442.5" y="515.3613">set</text><text fill="#000000" font-family="monospace" font-size="12" font-weight="bold" lengthAdjust="spacingAndGlyphs" textLength="84" x="466.5" y="515.3613">prev_prev_wb</text><text fill="#000000" font-family="sans-serif" font-size="12" lengthAdjust="spacingAndGlyphs" textLength="13" x="554.5" y="515.3613">to</text><text fill="#000000" font-family="monospace" font-size="12" lengthAdjust="spacingAndGlyphs" text-decoration="underline" textLength="49" x="571.5" y="515.3613">nullptr</text><line style="stroke: #000000; stroke-width: 1.0;" x1="571.5" x2="620.5" y1="517.3613" y2="517.3613"/><rect fill="#FFFFFF" filter="url(#fananp06p831d)" height="33.9688" rx="12.5" ry="12.5" style="stroke: #000000; stroke-width: 1.5;" width="163" x="450" y="548.1914"/><text fill="#000000" font-family="sans-serif" font-size="12" lengthAdjust="spacingAndGlyphs" textLength="20" x="460" y="569.3301">set</text><text fill="#000000" font-family="monospace" font-size="12" font-weight="bold" lengthAdjust="spacingAndGlyphs" textLength="49" x="484" y="569.3301">prev_wb</text><text fill="#000000" font-family="sans-serif" font-size="12" lengthAdjust="spacingAndGlyphs" textLength="13" x="537" y="569.3301">to</text><text fill="#000000" font-family="monospace" font-size="12" lengthAdjust="spacingAndGlyphs" text-decoration="underline" textLength="49" x="554" y="569.3301">nullptr</text><line style="stroke: #000000; stroke-width: 1.0;" x1="554" x2="603" y1="571.3301" y2="571.3301"/><rect fill="#FFFFFF" filter="url(#fananp06p831d)" height="33.9688" rx="12.5" ry="12.5" style="stroke: #000000; stroke-width: 1.5;" width="128" x="467.5" y="602.1602"/><text fill="#000000" font-family="sans-serif" font-size="12" lengthAdjust="spacingAndGlyphs" textLength="20" x="477.5" y="623.2988">set</text><text fill="#000000" font-family="monospace" font-size="12" font-weight="bold" lengthAdjust="spacingAndGlyphs" textLength="56" x="501.5" y="623.2988">prev_pos</text><text fill="#000000" font-family="sans-serif" font-size="12" lengthAdjust="spacingAndGlyphs" textLength="13" x="561.5" y="623.2988">to</text><text fill="#000000" font-family="monospace" font-size="12" lengthAdjust="spacingAndGlyphs" text-decoration="underline" textLength="7" x="578.5" y="623.2988">0</text><line style="stroke: #000000; stroke-width: 1.0;" x1="578.5" x2="585.5" y1="625.2988" y2="625.2988"/><rect fill="#FFFFFF" filter="url(#fananp06p831d)" height="33.9688" rx="12.5" ry="12.5" style="stroke: #000000; stroke-width: 1.5;" width="184" x="439.5" y="716.9336"/><text fill="#000000" font-family="sans-serif" font-size="12" lengthAdjust="spacingAndGlyphs" textLength="20" x="449.5" y="738.0723">set</text><text fill="#000000" font-family="monospace" font-size="12" font-weight="bold" lengthAdjust="spacingAndGlyphs" textLength="28" x="473.5" y="738.0723">prop</text><text fill="#000000" font-family="sans-serif" font-size="12" lengthAdjust="spacingAndGlyphs" textLength="13" x="505.5" y="738.0723">to</text><text fill="#000000" filter="url(#bananp06p831d0)" font-family="monospace" font-size="12" font-style="italic" lengthAdjust="spacingAndGlyphs" textLength="91" x="522.5" y="738.0723">word_break(c)</text><polygon fill="#FFFFFF" filter="url(#fananp06p831d)" points="259,770.9023,420,770.9023,432,782.9023,420,794.9023,259,794.9023,247,782.9023,259,770.9023" style="stroke: #000000; stroke-width: 1.5;"/><text fill="#000000" font-family="sans-serif" font-size="11" lengthAdjust="spacingAndGlyphs" textLength="20" x="343.5" y="805.1128">yes</text><text fill="#000000" font-family="monospace" font-size="11" font-weight="bold" lengthAdjust="spacingAndGlyphs" textLength="28" x="259" y="786.7104">prop</text><text fill="#000000" font-family="sans-serif" font-size="11" lengthAdjust="spacingAndGlyphs" textLength="129" x="291" y="786.7104">is in (Newline, CR, LF)?</text><rect fill="#FFFFFF" filter="url(#fananp06p831d)" height="33.9688" rx="12.5" ry="12.5" style="stroke: #000000; stroke-width: 1.5;" width="98" x="290.5" y="826.6128"/><text fill="#000000" font-family="sans-serif" font-size="12" lengthAdjust="spacingAndGlyphs" textLength="78" x="300.5" y="847.7515">yield(i, prop)</text><rect fill="#FFFFFF" filter="url(#fananp06p831d)" height="33.9688" rx="12.5" ry="12.5" style="stroke: #000000; stroke-width: 1.5;" width="156" x="261.5" y="895.5815"/><text fill="#000000" font-family="sans-serif" font-size="12" lengthAdjust="spacingAndGlyphs" textLength="20" x="271.5" y="916.7202">set</text><text fill="#000000" font-family="monospace" font-size="12" font-weight="bold" lengthAdjust="spacingAndGlyphs" textLength="63" x="295.5" y="916.7202">prev_prop</text><text fill="#000000" font-family="sans-serif" font-size="12" lengthAdjust="spacingAndGlyphs" textLength="13" x="362.5" y="916.7202">to</text><text fill="#000000" font-family="monospace" font-size="12" lengthAdjust="spacingAndGlyphs" text-decoration="underline" textLength="28" x="379.5" y="916.7202">None</text><line style="stroke: #000000; stroke-width: 1.0;" x1="379.5" x2="407.5" y1="918.7202" y2="918.7202"/><polygon fill="#FFFFFF" filter="url(#fananp06p831d)" points="467,770.9023,613,770.9023,625,782.9023,613,794.9023,467,794.9023,455,782.9023,467,770.9023" style="stroke: #000000; stroke-width: 1.5;"/><text fill="#000000" font-family="sans-serif" font-size="11" lengthAdjust="spacingAndGlyphs" textLength="20" x="544" y="805.1128">yes</text><text fill="#000000" font-family="monospace" font-size="11" font-weight="bold" lengthAdjust="spacingAndGlyphs" textLength="28" x="467" y="786.7104">prop</text><text fill="#000000" font-family="sans-serif" font-size="11" lengthAdjust="spacingAndGlyphs" textLength="114" x="499" y="786.7104">in (Extend, Format)?</text><text fill="#000000" font-family="sans-serif" font-size="11" lengthAdjust="spacingAndGlyphs" textLength="14" x="625" y="780.3081">no</text><rect fill="#FFFFFF" filter="url(#fananp06p831d)" height="33.9688" rx="12.5" ry="12.5" style="stroke: #000000; stroke-width: 1.5;" width="98" x="491" y="875.0151"/><text fill="#000000" font-family="sans-serif" font-size="12" lengthAdjust="spacingAndGlyphs" textLength="78" x="501" y="896.1538">yield(i, prop)</text><rect fill="#FFFFFF" filter="url(#fananp06p831d)" height="33.9688" rx="12.5" ry="12.5" style="stroke: #000000; stroke-width: 1.5;" width="156" x="462" y="943.9839"/><text fill="#000000" font-family="sans-serif" font-size="12" lengthAdjust="spacingAndGlyphs" textLength="20" x="472" y="965.1226">set</text><text fill="#000000" font-family="monospace" font-size="12" font-weight="bold" lengthAdjust="spacingAndGlyphs" textLength="63" x="496" y="965.1226">prev_prop</text><text fill="#000000" font-family="sans-serif" font-size="12" lengthAdjust="spacingAndGlyphs" textLength="13" x="563" y="965.1226">to</text><text fill="#000000" font-family="monospace" font-size="12" font-weight="bold" lengthAdjust="spacingAndGlyphs" textLength="28" x="580" y="965.1226">prop</text><polygon fill="#FFFFFF" filter="url(#fananp06p831d)" points="482.5,826.6128,597.5,826.6128,609.5,838.6128,597.5,850.6128,482.5,850.6128,470.5,838.6128,482.5,826.6128" style="stroke: #000000; stroke-width: 1.5;"/><text fill="#000000" font-family="sans-serif" font-size="11" lengthAdjust="spacingAndGlyphs" textLength="20" x="544" y="860.8232">yes</text><text fill="#000000" font-family="monospace" font-size="11" font-weight="bold" lengthAdjust="spacingAndGlyphs" textLength="63" x="482.5" y="842.4209">prev_prop</text><text fill="#000000" font-family="sans-serif" font-size="11" lengthAdjust="spacingAndGlyphs" textLength="10" x="549.5" y="842.4209">is</text><text fill="#000000" font-family="monospace" font-size="11" lengthAdjust="spacingAndGlyphs" text-decoration="underline" textLength="28" x="563.5" y="842.4209">None</text><line style="stroke: #000000; stroke-width: 1.0;" x1="563.5" x2="591.5" y1="844.4209" y2="844.4209"/><text fill="#000000" font-family="sans-serif" font-size="11" lengthAdjust="spacingAndGlyphs" textLength="6" x="591.5" y="842.4209">?</text><text fill="#000000" font-family="sans-serif" font-size="11" lengthAdjust="spacingAndGlyphs" textLength="14" x="609.5" y="836.0186">no</text><polygon fill="#FFFFFF" filter="url(#fananp06p831d)" points="540,997.9526,552,1009.9526,540,1021.9526,528,1009.9526,540,997.9526" style="stroke: #000000; stroke-width: 1.5;"/><rect fill="#FFFFFF" filter="url(#fananp06p831d)" height="33.9688" rx="12.5" ry="12.5" style="stroke: #000000; stroke-width: 1.5;" width="98" x="689" y="871.6128"/><text fill="#000000" font-family="sans-serif" font-size="12" lengthAdjust="spacingAndGlyphs" textLength="78" x="699" y="892.7515">yield(i, prop)</text><rect fill="#FFFFFF" filter="url(#fananp06p831d)" height="33.9688" rx="12.5" ry="12.5" style="stroke: #000000; stroke-width: 1.5;" width="156" x="660" y="940.5815"/><text fill="#000000" font-family="sans-serif" font-size="12" lengthAdjust="spacingAndGlyphs" textLength="20" x="670" y="961.7202">set</text><text fill="#000000" font-family="monospace" font-size="12" font-weight="bold" lengthAdjust="spacingAndGlyphs" textLength="63" x="694" y="961.7202">prev_prop</text><text fill="#000000" font-family="sans-serif" font-size="12" lengthAdjust="spacingAndGlyphs" textLength="13" x="761" y="961.7202">to</text><text fill="#000000" font-family="monospace" font-size="12" font-weight="bold" lengthAdjust="spacingAndGlyphs" textLength="28" x="778" y="961.7202">prop</text><rect fill="#FFFFFF" filter="url(#fananp06p831d)" height="33.9688" rx="12.5" ry="12.5" style="stroke: #000000; stroke-width: 1.5;" width="98" x="482.5" y="1137.6631"/><text fill="#000000" font-family="sans-serif" font-size="12" lengthAdjust="spacingAndGlyphs" textLength="78" x="492.5" y="1158.8018">yield(i, prop)</text><polygon fill="#FFFFFF" filter="url(#fananp06p831d)" points="421.5,1081.9526,641.5,1081.9526,653.5,1093.9526,641.5,1105.9526,421.5,1105.9526,409.5,1093.9526,421.5,1081.9526" style="stroke: #000000; stroke-width: 1.5;"/><text fill="#000000" font-family="sans-serif" font-size="11" lengthAdjust="spacingAndGlyphs" textLength="20" x="535.5" y="1116.1631">yes</text><text fill="#000000" font-family="sans-serif" font-size="11" lengthAdjust="spacingAndGlyphs" textLength="37" x="421.5" y="1097.7607">iterate</text><text fill="#000000" font-family="monospace" font-size="11" font-weight="bold" lengthAdjust="spacingAndGlyphs" textLength="7" x="462.5" y="1097.7607">j</text><text fill="#000000" font-family="sans-serif" font-size="11" lengthAdjust="spacingAndGlyphs" textLength="25" x="473.5" y="1097.7607">over</text><text fill="#000000" font-family="monospace" font-size="11" font-style="italic" lengthAdjust="spacingAndGlyphs" textLength="133" x="502.5" y="1097.7607">range(next_pos-pos)</text><text fill="#000000" font-family="sans-serif" font-size="11" lengthAdjust="spacingAndGlyphs" textLength="6" x="635.5" y="1097.7607">?</text><text fill="#000000" font-family="sans-serif" font-size="11" lengthAdjust="spacingAndGlyphs" textLength="14" x="395.5" y="1091.3584">no</text><rect fill="#FFFFFF" filter="url(#fananp06p831d)" height="33.9688" rx="12.5" ry="12.5" style="stroke: #000000; stroke-width: 1.5;" width="142" x="460.5" y="1213.6318"/><text fill="#000000" font-family="sans-serif" font-size="12" lengthAdjust="spacingAndGlyphs" textLength="20" x="470.5" y="1234.7705">set</text><text fill="#000000" font-family="monospace" font-size="12" font-weight="bold" lengthAdjust="spacingAndGlyphs" textLength="56" x="494.5" y="1234.7705">prev_pos</text><text fill="#000000" font-family="sans-serif" font-size="12" lengthAdjust="spacingAndGlyphs" textLength="13" x="554.5" y="1234.7705">to</text><text fill="#000000" font-family="monospace" font-size="12" font-weight="bold" lengthAdjust="spacingAndGlyphs" textLength="21" x="571.5" y="1234.7705">pos</text><rect fill="#FFFFFF" filter="url(#fananp06p831d)" height="33.9688" rx="12.5" ry="12.5" style="stroke: #000000; stroke-width: 1.5;" width="198" x="432.5" y="1267.6006"/><text fill="#000000" font-family="sans-serif" font-size="12" lengthAdjust="spacingAndGlyphs" textLength="20" x="442.5" y="1288.7393">set</text><text fill="#000000" font-family="monospace" font-size="12" font-weight="bold" lengthAdjust="spacingAndGlyphs" textLength="84" x="466.5" y="1288.7393">prev_prev_wb</text><text fill="#000000" font-family="sans-serif" font-size="12" lengthAdjust="spacingAndGlyphs" textLength="13" x="554.5" y="1288.7393">to</text><text fill="#000000" font-family="monospace" font-size="12" font-weight="bold" lengthAdjust="spacingAndGlyphs" textLength="49" x="571.5" y="1288.7393">prev_wb</text><rect fill="#FFFFFF" filter="url(#fananp06p831d)" height="33.9688" rx="12.5" ry="12.5" style="stroke: #000000; stroke-width: 1.5;" width="128" x="467.5" y="1321.5693"/><text fill="#000000" font-family="sans-serif" font-size="12" lengthAdjust="spacingAndGlyphs" textLength="20" x="477.5" y="1342.708">set</text><text fill="#000000" font-family="monospace" font-size="12" font-weight="bold" lengthAdjust="spacingAndGlyphs" textLength="49" x="501.5" y="1342.708">prev_wb</text><text fill="#000000" font-family="sans-serif" font-size="12" lengthAdjust="spacingAndGlyphs" textLength="13" x="554.5" y="1342.708">to</text><text fill="#000000" font-family="monospace" font-size="12" font-weight="bold" lengthAdjust="spacingAndGlyphs" textLength="14" x="571.5" y="1342.708">wb</text><polygon fill="#FFFFFF" filter="url(#fananp06p831d)" points="439,656.1289,624,656.1289,636,668.1289,624,680.1289,439,680.1289,427,668.1289,439,656.1289" style="stroke: #000000; stroke-width: 1.5;"/><text fill="#000000" font-family="sans-serif" font-size="11" lengthAdjust="spacingAndGlyphs" textLength="20" x="535.5" y="690.3394">yes</text><text fill="#000000" font-family="sans-serif" font-size="11" lengthAdjust="spacingAndGlyphs" textLength="37" x="439" y="671.937">iterate</text><text fill="#000000" font-family="monospace" font-size="11" font-weight="bold" lengthAdjust="spacingAndGlyphs" textLength="7" x="480" y="671.937">c</text><text fill="#000000" font-family="sans-serif" font-size="11" lengthAdjust="spacingAndGlyphs" textLength="25" x="491" y="671.937">over</text><text fill="#000000" filter="url(#bananp06p831d0)" font-family="monospace" font-size="11" font-style="italic" lengthAdjust="spacingAndGlyphs" textLength="98" x="520" y="671.937">code_points(s)</text><text fill="#000000" font-family="sans-serif" font-size="11" lengthAdjust="spacingAndGlyphs" textLength="6" x="618" y="671.937">?</text><text fill="#000000" font-family="sans-serif" font-size="11" lengthAdjust="spacingAndGlyphs" textLength="14" x="413" y="665.5347">no</text><ellipse cx="237" cy="714.1289" fill="none" filter="url(#fananp06p831d)" rx="10" ry="10" style="stroke: #000000; stroke-width: 1.0;"/><ellipse cx="237.5" cy="714.6289" fill="#000000" filter="url(#fananp06p831d)" rx="6" ry="6" style="stroke: none; stroke-width: 1.0;"/><line style="stroke: #000000; stroke-width: 1.5;" x1="531.5" x2="531.5" y1="71.9063" y2="149.7183"/><polygon fill="#000000" points="527.5,139.7183,531.5,149.7183,535.5,139.7183,531.5,143.7183" style="stroke: #000000; stroke-width: 1.0;"/><line style="stroke: #000000; stroke-width: 1.5;" x1="531.5" x2="531.5" y1="350.7383" y2="378.2539"/><polygon fill="#000000" points="527.5,368.2539,531.5,378.2539,535.5,368.2539,531.5,372.2539" style="stroke: #000000; stroke-width: 1.0;"/><line style="stroke: #000000; stroke-width: 1.5;" x1="531.5" x2="531.5" y1="292.3672" y2="316.7695"/><polygon fill="#000000" points="527.5,306.7695,531.5,316.7695,535.5,306.7695,531.5,310.7695" style="stroke: #000000; stroke-width: 1.0;"/><line style="stroke: #000000; stroke-width: 1.5;" x1="587.5" x2="599.5" y1="280.3672" y2="280.3672"/><polygon fill="#000000" points="595.5,348.2539,599.5,358.2539,603.5,348.2539,599.5,352.2539" style="stroke: #000000; stroke-width: 1.5;"/><line style="stroke: #000000; stroke-width: 1.5;" x1="599.5" x2="599.5" y1="280.3672" y2="420.2539"/><line style="stroke: #000000; stroke-width: 1.5;" x1="599.5" x2="531.5" y1="420.2539" y2="420.2539"/><line style="stroke: #000000; stroke-width: 1.5;" x1="531.5" x2="531.5" y1="420.2539" y2="440.2539"/><polygon fill="#000000" points="527.5,430.2539,531.5,440.2539,535.5,430.2539,531.5,434.2539" style="stroke: #000000; stroke-width: 1.0;"/><line style="stroke: #000000; stroke-width: 1.5;" x1="531.5" x2="531.5" y1="183.687" y2="268.3672"/><polygon fill="#000000" points="527.5,258.3672,531.5,268.3672,535.5,258.3672,531.5,262.3672" style="stroke: #000000; stroke-width: 1.0;"/><line style="stroke: #000000; stroke-width: 1.5;" x1="531.5" x2="531.5" y1="474.2227" y2="494.2227"/><polygon fill="#000000" points="527.5,484.2227,531.5,494.2227,535.5,484.2227,531.5,488.2227" style="stroke: #000000; stroke-width: 1.0;"/><line style="stroke: #000000; stroke-width: 1.5;" x1="531.5" x2="531.5" y1="528.1914" y2="548.1914"/><polygon fill="#000000" points="527.5,538.1914,531.5,548.1914,535.5,538.1914,531.5,542.1914" style="stroke: #000000; stroke-width: 1.0;"/><line style="stroke: #000000; stroke-width: 1.5;" x1="531.5" x2="531.5" y1="582.1602" y2="602.1602"/><polygon fill="#000000" points="527.5,592.1602,531.5,602.1602,535.5,592.1602,531.5,596.1602" style="stroke: #000000; stroke-width: 1.0;"/><line style="stroke: #000000; stroke-width: 1.5;" x1="339.5" x2="339.5" y1="860.5815" y2="895.5815"/><polygon fill="#000000" points="335.5,885.5815,339.5,895.5815,343.5,885.5815,339.5,889.5815" style="stroke: #000000; stroke-width: 1.0;"/><line style="stroke: #000000; stroke-width: 1.5;" x1="540" x2="540" y1="908.9839" y2="943.9839"/><polygon fill="#000000" points="536,933.9839,540,943.9839,544,933.9839,540,937.9839" style="stroke: #000000; stroke-width: 1.0;"/><line style="stroke: #000000; stroke-width: 1.5;" x1="540" x2="540" y1="850.6128" y2="875.0151"/><polygon fill="#000000" points="536,865.0151,540,875.0151,544,865.0151,540,869.0151" style="stroke: #000000; stroke-width: 1.0;"/><line style="stroke: #000000; stroke-width: 1.5;" x1="609.5" x2="628" y1="838.6128" y2="838.6128"/><polygon fill="#000000" points="624,916.4839,628,926.4839,632,916.4839,628,920.4839" style="stroke: #000000; stroke-width: 1.5;"/><line style="stroke: #000000; stroke-width: 1.5;" x1="628" x2="628" y1="838.6128" y2="1009.9526"/><line style="stroke: #000000; stroke-width: 1.5;" x1="628" x2="552" y1="1009.9526" y2="1009.9526"/><polygon fill="#000000" points="562,1005.9526,552,1009.9526,562,1013.9526,558,1009.9526" style="stroke: #000000; stroke-width: 1.0;"/><line style="stroke: #000000; stroke-width: 1.5;" x1="540" x2="540" y1="977.9526" y2="997.9526"/><polygon fill="#000000" points="536,987.9526,540,997.9526,544,987.9526,540,991.9526" style="stroke: #000000; stroke-width: 1.0;"/><line style="stroke: #000000; stroke-width: 1.5;" x1="738" x2="738" y1="905.5815" y2="940.5815"/><polygon fill="#000000" points="734,930.5815,738,940.5815,742,930.5815,738,934.5815" style="stroke: #000000; stroke-width: 1.0;"/><line style="stroke: #000000; stroke-width: 1.5;" x1="339.5" x2="339.5" y1="794.9023" y2="826.6128"/><polygon fill="#000000" points="335.5,816.6128,339.5,826.6128,343.5,816.6128,339.5,820.6128" style="stroke: #000000; stroke-width: 1.0;"/><line style="stroke: #000000; stroke-width: 1.5;" x1="339.5" x2="339.5" y1="929.5503" y2="1061.9526"/><polygon fill="#000000" points="335.5,1051.9526,339.5,1061.9526,343.5,1051.9526,339.5,1055.9526" style="stroke: #000000; stroke-width: 1.0;"/><line style="stroke: #000000; stroke-width: 1.5;" x1="540" x2="540" y1="794.9023" y2="826.6128"/><polygon fill="#000000" points="536,816.6128,540,826.6128,544,816.6128,540,820.6128" style="stroke: #000000; stroke-width: 1.0;"/><line style="stroke: #000000; stroke-width: 1.5;" x1="540" x2="540" y1="1021.9526" y2="1061.9526"/><polygon fill="#000000" points="536,1051.9526,540,1061.9526,544,1051.9526,540,1055.9526" style="stroke: #000000; stroke-width: 1.0;"/><line style="stroke: #000000; stroke-width: 1.5;" x1="432" x2="455" y1="782.9023" y2="782.9023"/><polygon fill="#000000" points="445,778.9023,455,782.9023,445,786.9023,449,782.9023" style="stroke: #000000; stroke-width: 1.0;"/><line style="stroke: #000000; stroke-width: 1.5;" x1="531.5" x2="531.5" y1="750.9023" y2="755.9023"/><line style="stroke: #000000; stroke-width: 1.5;" x1="531.5" x2="339.5" y1="755.9023" y2="755.9023"/><line style="stroke: #000000; stroke-width: 1.5;" x1="339.5" x2="339.5" y1="755.9023" y2="770.9023"/><polygon fill="#000000" points="335.5,760.9023,339.5,770.9023,343.5,760.9023,339.5,764.9023" style="stroke: #000000; stroke-width: 1.0;"/><line style="stroke: #000000; stroke-width: 1.5;" x1="625" x2="738" y1="782.9023" y2="782.9023"/><line style="stroke: #000000; stroke-width: 1.5;" x1="738" x2="738" y1="782.9023" y2="871.6128"/><polygon fill="#000000" points="734,861.6128,738,871.6128,742,861.6128,738,865.6128" style="stroke: #000000; stroke-width: 1.0;"/><line style="stroke: #000000; stroke-width: 1.5;" x1="738" x2="738" y1="974.5503" y2="1061.9526"/><polygon fill="#000000" points="734,1051.9526,738,1061.9526,742,1051.9526,738,1055.9526" style="stroke: #000000; stroke-width: 1.0;"/><line style="stroke: #000000; stroke-width: 1.5;" x1="339.5" x2="738" y1="1061.9526" y2="1061.9526"/><line style="stroke: #000000; stroke-width: 1.5;" x1="531.5" x2="531.5" y1="1105.9526" y2="1137.6631"/><polygon fill="#000000" points="527.5,1127.6631,531.5,1137.6631,535.5,1127.6631,531.5,1131.6631" style="stroke: #000000; stroke-width: 1.0;"/><line style="stroke: #000000; stroke-width: 1.5;" x1="531.5" x2="531.5" y1="1171.6318" y2="1181.6318"/><line style="stroke: #000000; stroke-width: 1.5;" x1="531.5" x2="665.5" y1="1181.6318" y2="1181.6318"/><polygon fill="#000000" points="661.5,1146.2451,665.5,1136.2451,669.5,1146.2451,665.5,1142.2451" style="stroke: #000000; stroke-width: 1.5;"/><line style="stroke: #000000; stroke-width: 1.5;" x1="665.5" x2="665.5" y1="1093.9526" y2="1181.6318"/><line style="stroke: #000000; stroke-width: 1.5;" x1="665.5" x2="653.5" y1="1093.9526" y2="1093.9526"/><polygon fill="#000000" points="663.5,1089.9526,653.5,1093.9526,663.5,1097.9526,659.5,1093.9526" style="stroke: #000000; stroke-width: 1.0;"/><line style="stroke: #000000; stroke-width: 1.5;" x1="409.5" x2="397.5" y1="1093.9526" y2="1093.9526"/><polygon fill="#000000" points="393.5,1132.2451,397.5,1142.2451,401.5,1132.2451,397.5,1136.2451" style="stroke: #000000; stroke-width: 1.5;"/><line style="stroke: #000000; stroke-width: 1.5;" x1="397.5" x2="397.5" y1="1093.9526" y2="1193.6318"/><line style="stroke: #000000; stroke-width: 1.5;" x1="397.5" x2="531.5" y1="1193.6318" y2="1193.6318"/><line style="stroke: #000000; stroke-width: 1.5;" x1="531.5" x2="531.5" y1="1193.6318" y2="1213.6318"/><polygon fill="#000000" points="527.5,1203.6318,531.5,1213.6318,535.5,1203.6318,531.5,1207.6318" style="stroke: #000000; stroke-width: 1.0;"/><line style="stroke: #000000; stroke-width: 1.5;" x1="531.5" x2="531.5" y1="1061.9526" y2="1081.9526"/><polygon fill="#000000" points="527.5,1071.9526,531.5,1081.9526,535.5,1071.9526,531.5,1075.9526" style="stroke: #000000; stroke-width: 1.0;"/><line style="stroke: #000000; stroke-width: 1.5;" x1="531.5" x2="531.5" y1="1247.6006" y2="1267.6006"/><polygon fill="#000000" points="527.5,1257.6006,531.5,1267.6006,535.5,1257.6006,531.5,1261.6006" style="stroke: #000000; stroke-width: 1.0;"/><line style="stroke: #000000; stroke-width: 1.5;" x1="531.5" x2="531.5" y1="1301.5693" y2="1321.5693"/><polygon fill="#000000" points="527.5,1311.5693,531.5,1321.5693,535.5,1311.5693,531.5,1315.5693" style="stroke: #000000; stroke-width: 1.0;"/><line style="stroke: #000000; stroke-width: 1.5;" x1="531.5" x2="531.5" y1="680.1289" y2="716.9336"/><polygon fill="#000000" points="527.5,706.9336,531.5,716.9336,535.5,706.9336,531.5,710.9336" style="stroke: #000000; stroke-width: 1.0;"/><line style="stroke: #000000; stroke-width: 1.5;" x1="531.5" x2="531.5" y1="1355.5381" y2="1365.5381"/><line style="stroke: #000000; stroke-width: 1.5;" x1="531.5" x2="828" y1="1365.5381" y2="1365.5381"/><polygon fill="#000000" points="824,1041.9526,828,1031.9526,832,1041.9526,828,1037.9526" style="stroke: #000000; stroke-width: 1.5;"/><line style="stroke: #000000; stroke-width: 1.5;" x1="828" x2="828" y1="668.1289" y2="1365.5381"/><line style="stroke: #000000; stroke-width: 1.5;" x1="828" x2="636" y1="668.1289" y2="668.1289"/><polygon fill="#000000" points="646,664.1289,636,668.1289,646,672.1289,642,668.1289" style="stroke: #000000; stroke-width: 1.0;"/><line style="stroke: #000000; stroke-width: 1.5;" x1="427" x2="237" y1="668.1289" y2="668.1289"/><line style="stroke: #000000; stroke-width: 1.5;" x1="237" x2="237" y1="668.1289" y2="704.1289"/><polygon fill="#000000" points="233,694.1289,237,704.1289,241,694.1289,237,698.1289" style="stroke: #000000; stroke-width: 1.0;"/><line style="stroke: #000000; stroke-width: 1.5;" x1="531.5" x2="531.5" y1="636.1289" y2="656.1289"/><polygon fill="#000000" points="527.5,646.1289,531.5,656.1289,535.5,646.1289,531.5,650.1289" style="stroke: #000000; stroke-width: 1.0;"/><!--
@startuml
skinparam BackgroundColor White|White
skinparam ArrowColor Black

skinparam NoteBackgroundColor White
skinparam NoteBorderColor Black

skinparam ActivityBackgroundColor White
skinparam ActivityDiamondBackgroundColor White
skinparam ActivityBorderColor Black
skinparam ActivityDiamondBorderColor Black

title **Nuspell - segmentation - //""word_breakables(s)""//**\n

start

:**""s""** contains input string;
floating note left
    1 for "break" and 0 for "do not break".  The length of iteration 
    will be the same as ``len(s)``.
    
    ""assert(list(word_breakables(u"ABC")) ==""
    "        [1, 0, 0]);""

    ""assert(list(word_breakables(u"Hello, world.")) ==""
    ""       [1, 0, 0, 0, 0, 1, 1, 1, 0, 0, 0, 0, 1]);""

    ""assert(list(word_breakables(u"\x01\u0308\x01")) ==""
    ""       [1, 0, 1]);""
end note

if (**""s**"" is empty?) then (yes)
    :return nothing;
    stop
else (no)
endif

:set **""primitive_boundaties**"" to list of //""preprocess_boundaries(s)""//;
:set **""prev_prev_wb""** to __""nullptr""__;
:set **""prev_wb""** to __""nullptr""__;
:set **""prev_pos""** to __""0""__;

while (iterate **""c""** over <back:skyblue>//""code_points(s)""//</back>?) is (yes)
    :set **""prop""** to <back:skyblue>//""word_break(c)""//</back>;
    if (**""prop""** is in (Newline, CR, LF)?) then (yes)
        :yield(i, prop);
        :set **""prev_prop""** to __""None""__;
    elseif (**""prop""** in (Extend, Format)?) then (yes)
        if (**""prev_prop""** is __""None""__?) then (yes)
            :yield(i, prop);
            :set **""prev_prop""** to **""prop""**;
        else (no)
        endif
    else (no)
        :yield(i, prop);
        :set **""prev_prop""** to **""prop""**;
    endif

    while (iterate **""j""** over //""range(next_pos-pos)""//?) is (yes)
        :yield(i, prop);
    endwhile (no)
    :set **""prev_pos""** to **""pos""**;
    :set **""prev_prev_wb""** to **""prev_wb""**;
    :set **""prev_wb""** to **""wb""**;
endwhile (no)

stop

@enduml

PlantUML version 1.2018.06(Mon May 21 12:34:53 CEST 2018)
(GPL source distribution)
Java Runtime: OpenJDK Runtime Environment
JVM: OpenJDK 64-Bit Server VM
Java Version: 10.0.2+13-Ubuntu-1ubuntu0.18.04.1
Operating System: Linux
OS Version: 4.15.0-32-generic
Default Encoding: UTF-8
Language: en
Country: US
--></g></svg>