<?xml version="1.0" encoding="UTF-8" standalone="no"?><svg xmlns="http://www.w3.org/2000/svg" xmlns:xlink="http://www.w3.org/1999/xlink" contentScriptType="application/ecmascript" contentStyleType="text/css" height="1219px" preserveAspectRatio="none" style="width:1396px;height:1219px;" version="1.1" viewBox="0 0 1396 1219" width="1396px" zoomAndPan="magnify"><defs><linearGradient id="gpcsq8nn38bj0" x1="0%" x2="100%" y1="50%" y2="50%"><stop offset="0%" stop-color="#FFFFFF"/><stop offset="100%" stop-color="#FFFFFF"/></linearGradient><filter height="300%" id="fpcsq8nn38bj" width="300%" x="-1" y="-1"><feGaussianBlur result="blurOut" stdDeviation="2.0"/><feColorMatrix in="blurOut" result="blurOut2" type="matrix" values="0 0 0 0 0 0 0 0 0 0 0 0 0 0 0 0 0 0 .4 0"/><feOffset dx="4.0" dy="4.0" in="blurOut2" result="blurOut3"/><feBlend in="SourceGraphic" in2="blurOut3" mode="normal"/></filter><filter height="1" id="bpcsq8nn38bj0" width="1" x="0" y="0"><feFlood flood-color="#87CEEB" result="flood"/><feComposite in="SourceGraphic" in2="flood" operator="over"/></filter></defs><g><rect fill="url(#gpcsq8nn38bj0)" height="1219" style="stroke: none; stroke-width: 1.0;" width="1396" x="0" y="0"/><text fill="#000000" font-family="sans-serif" font-size="18" font-weight="bold" lengthAdjust="spacingAndGlyphs" textLength="248" x="471" y="26.708">Nuspell - segmentation -</text><text fill="#000000" font-family="monospace" font-size="18" font-style="italic" font-weight="bold" lengthAdjust="spacingAndGlyphs" textLength="198" x="725" y="26.708">word_breakables(s)</text><text fill="#000000" font-family="sans-serif" font-size="18" lengthAdjust="spacingAndGlyphs" textLength="0" x="700" y="47.6611"/><ellipse cx="696" cy="61.9063" fill="#000000" filter="url(#fpcsq8nn38bj)" rx="10" ry="10" style="stroke: none; stroke-width: 1.0;"/><polygon fill="#FFFFFF" filter="url(#fpcsq8nn38bj)" points="174.5,81.9063,174.5,258.3672,595.5,258.3672,595.5,91.9063,585.5,81.9063,174.5,81.9063" style="stroke: #000000; stroke-width: 1.0;"/><line style="stroke: #000000; stroke-width: 1.0;" x1="585.5" x2="585.5" y1="81.9063" y2="91.9063"/><line style="stroke: #000000; stroke-width: 1.0;" x1="595.5" x2="585.5" y1="91.9063" y2="91.9063"/><text fill="#000000" font-family="sans-serif" font-size="13" lengthAdjust="spacingAndGlyphs" textLength="387" x="180.5" y="98.9731">1 for "break" and 0 for "do not break".  The length of iteration</text><text fill="#000000" font-family="sans-serif" font-size="13" lengthAdjust="spacingAndGlyphs" textLength="194" x="180.5" y="114.106">will be the same as ``len(s)``.</text><text fill="#000000" font-family="sans-serif" font-size="13" lengthAdjust="spacingAndGlyphs" textLength="0" x="184.5" y="129.2388"/><text fill="#000000" font-family="monospace" font-size="13" lengthAdjust="spacingAndGlyphs" textLength="312" x="180.5" y="144.3716">assert(list(word_breakables(u"ABC")) ==</text><text fill="#000000" font-family="sans-serif" font-size="13" lengthAdjust="spacingAndGlyphs" textLength="106" x="180.5" y="159.5044">"        [1, 0, 0]);""</text><text fill="#000000" font-family="sans-serif" font-size="13" lengthAdjust="spacingAndGlyphs" textLength="0" x="184.5" y="174.6372"/><text fill="#000000" font-family="monospace" font-size="13" lengthAdjust="spacingAndGlyphs" textLength="392" x="180.5" y="189.77">assert(list(word_breakables(u"Hello, world.")) ==</text><text fill="#000000" font-family="monospace" font-size="13" lengthAdjust="spacingAndGlyphs" textLength="328" x="236.5" y="204.9028">[1, 0, 0, 0, 0, 1, 1, 1, 0, 0, 0, 0, 1]);</text><text fill="#000000" font-family="sans-serif" font-size="13" lengthAdjust="spacingAndGlyphs" textLength="0" x="184.5" y="220.0356"/><text fill="#000000" font-family="monospace" font-size="13" lengthAdjust="spacingAndGlyphs" textLength="400" x="180.5" y="235.1685">assert(list(word_breakables(u"\x01\u0308\x01")) ==</text><text fill="#000000" font-family="monospace" font-size="13" lengthAdjust="spacingAndGlyphs" textLength="88" x="236.5" y="250.3013">[1, 0, 1]);</text><rect fill="#FFFFFF" filter="url(#fpcsq8nn38bj)" height="33.9688" rx="12.5" ry="12.5" style="stroke: #000000; stroke-width: 1.5;" width="161" x="615.5" y="153.1523"/><text fill="#000000" font-family="monospace" font-size="12" font-weight="bold" lengthAdjust="spacingAndGlyphs" textLength="7" x="625.5" y="174.291">s</text><text fill="#000000" font-family="sans-serif" font-size="12" lengthAdjust="spacingAndGlyphs" textLength="130" x="636.5" y="174.291">contains input string</text><rect fill="#FFFFFF" filter="url(#fpcsq8nn38bj)" height="33.9688" rx="12.5" ry="12.5" style="stroke: #000000; stroke-width: 1.5;" width="111" x="640.5" y="326.7695"/><text fill="#000000" font-family="sans-serif" font-size="12" lengthAdjust="spacingAndGlyphs" textLength="91" x="650.5" y="347.9082">return nothing</text><ellipse cx="696" cy="398.2539" fill="none" filter="url(#fpcsq8nn38bj)" rx="10" ry="10" style="stroke: #000000; stroke-width: 1.0;"/><ellipse cx="696.5" cy="398.7539" fill="#000000" filter="url(#fpcsq8nn38bj)" rx="6" ry="6" style="stroke: none; stroke-width: 1.0;"/><polygon fill="#FFFFFF" filter="url(#fpcsq8nn38bj)" points="652,278.3672,740,278.3672,752,290.3672,740,302.3672,652,302.3672,640,290.3672,652,278.3672" style="stroke: #000000; stroke-width: 1.5;"/><text fill="#000000" font-family="sans-serif" font-size="11" lengthAdjust="spacingAndGlyphs" textLength="20" x="700" y="312.5776">yes</text><text fill="#000000" font-family="sans-serif" font-size="11" font-weight="bold" lengthAdjust="spacingAndGlyphs" textLength="19" x="652" y="294.1753">""s</text><text fill="#000000" font-family="sans-serif" font-size="11" lengthAdjust="spacingAndGlyphs" textLength="69" x="671" y="294.1753">"" is empty?</text><text fill="#000000" font-family="sans-serif" font-size="11" lengthAdjust="spacingAndGlyphs" textLength="14" x="752" y="287.7729">no</text><rect fill="#FFFFFF" filter="url(#fpcsq8nn38bj)" height="33.9688" rx="12.5" ry="12.5" style="stroke: #000000; stroke-width: 1.5;" width="485" x="453.5" y="450.2539"/><text fill="#000000" font-family="sans-serif" font-size="12" lengthAdjust="spacingAndGlyphs" textLength="20" x="463.5" y="471.3926">set</text><text fill="#000000" font-family="sans-serif" font-size="12" font-weight="bold" lengthAdjust="spacingAndGlyphs" textLength="160" x="487.5" y="471.3926">""primitive_boundaties</text><text fill="#000000" font-family="monospace" font-size="12" lengthAdjust="spacingAndGlyphs" textLength="91" x="654.5" y="471.3926">to list of //</text><text fill="#000000" font-family="sans-serif" font-size="12" lengthAdjust="spacingAndGlyphs" textLength="183" x="745.5" y="471.3926">preprocess_boundaries(s)""//</text><rect fill="#FFFFFF" filter="url(#fpcsq8nn38bj)" height="33.9688" rx="12.5" ry="12.5" style="stroke: #000000; stroke-width: 1.5;" width="198" x="597" y="504.2227"/><text fill="#000000" font-family="sans-serif" font-size="12" lengthAdjust="spacingAndGlyphs" textLength="20" x="607" y="525.3613">set</text><text fill="#000000" font-family="monospace" font-size="12" font-weight="bold" lengthAdjust="spacingAndGlyphs" textLength="84" x="631" y="525.3613">prev_prev_wb</text><text fill="#000000" font-family="sans-serif" font-size="12" lengthAdjust="spacingAndGlyphs" textLength="13" x="719" y="525.3613">to</text><text fill="#000000" font-family="monospace" font-size="12" lengthAdjust="spacingAndGlyphs" text-decoration="underline" textLength="49" x="736" y="525.3613">nullptr</text><line style="stroke: #000000; stroke-width: 1.0;" x1="736" x2="785" y1="527.3613" y2="527.3613"/><rect fill="#FFFFFF" filter="url(#fpcsq8nn38bj)" height="33.9688" rx="12.5" ry="12.5" style="stroke: #000000; stroke-width: 1.5;" width="163" x="614.5" y="558.1914"/><text fill="#000000" font-family="sans-serif" font-size="12" lengthAdjust="spacingAndGlyphs" textLength="20" x="624.5" y="579.3301">set</text><text fill="#000000" font-family="monospace" font-size="12" font-weight="bold" lengthAdjust="spacingAndGlyphs" textLength="49" x="648.5" y="579.3301">prev_wb</text><text fill="#000000" font-family="sans-serif" font-size="12" lengthAdjust="spacingAndGlyphs" textLength="13" x="701.5" y="579.3301">to</text><text fill="#000000" font-family="monospace" font-size="12" lengthAdjust="spacingAndGlyphs" text-decoration="underline" textLength="49" x="718.5" y="579.3301">nullptr</text><line style="stroke: #000000; stroke-width: 1.0;" x1="718.5" x2="767.5" y1="581.3301" y2="581.3301"/><rect fill="#FFFFFF" filter="url(#fpcsq8nn38bj)" height="33.9688" rx="12.5" ry="12.5" style="stroke: #000000; stroke-width: 1.5;" width="128" x="632" y="612.1602"/><text fill="#000000" font-family="sans-serif" font-size="12" lengthAdjust="spacingAndGlyphs" textLength="20" x="642" y="633.2988">set</text><text fill="#000000" font-family="monospace" font-size="12" font-weight="bold" lengthAdjust="spacingAndGlyphs" textLength="56" x="666" y="633.2988">prev_pos</text><text fill="#000000" font-family="sans-serif" font-size="12" lengthAdjust="spacingAndGlyphs" textLength="13" x="726" y="633.2988">to</text><text fill="#000000" font-family="monospace" font-size="12" lengthAdjust="spacingAndGlyphs" text-decoration="underline" textLength="7" x="743" y="633.2988">0</text><line style="stroke: #000000; stroke-width: 1.0;" x1="743" x2="750" y1="635.2988" y2="635.2988"/><rect fill="#FFFFFF" filter="url(#fpcsq8nn38bj)" height="33.9688" rx="12.5" ry="12.5" style="stroke: #000000; stroke-width: 1.5;" width="226" x="583" y="726.9336"/><text fill="#000000" font-family="sans-serif" font-size="12" lengthAdjust="spacingAndGlyphs" textLength="20" x="593" y="748.0723">set</text><text fill="#000000" font-family="monospace" font-size="12" font-weight="bold" lengthAdjust="spacingAndGlyphs" textLength="119" x="617" y="748.0723">next_pos, next_wb</text><text fill="#000000" font-family="sans-serif" font-size="12" lengthAdjust="spacingAndGlyphs" textLength="13" x="740" y="748.0723">to</text><text fill="#000000" filter="url(#bpcsq8nn38bj0)" font-family="monospace" font-size="12" font-style="italic" lengthAdjust="spacingAndGlyphs" textLength="42" x="757" y="748.0723">&lt;TODO&gt;</text><polygon fill="#FFFFFF" filter="url(#fpcsq8nn38bj)" points="46,780.9023,437,780.9023,449,792.9023,437,804.9023,46,804.9023,34,792.9023,46,780.9023" style="stroke: #000000; stroke-width: 1.5;"/><text fill="#000000" font-family="sans-serif" font-size="11" lengthAdjust="spacingAndGlyphs" textLength="20" x="245.5" y="815.1128">yes</text><text fill="#000000" font-family="monospace" font-size="11" font-weight="bold" lengthAdjust="spacingAndGlyphs" textLength="49" x="46" y="796.7104">prev_wn</text><text fill="#000000" font-family="sans-serif" font-size="11" lengthAdjust="spacingAndGlyphs" textLength="24" x="99" y="796.7104">is in</text><text fill="#000000" font-family="monospace" font-size="11" lengthAdjust="spacingAndGlyphs" text-decoration="underline" textLength="119" x="127" y="796.7104">(Newline, CR, LF)</text><line style="stroke: #000000; stroke-width: 1.0;" x1="127" x2="246" y1="798.7104" y2="798.7104"/><text fill="#000000" font-family="sans-serif" font-size="11" lengthAdjust="spacingAndGlyphs" textLength="12" x="250" y="796.7104">or</text><text fill="#000000" font-family="monospace" font-size="11" font-weight="bold" lengthAdjust="spacingAndGlyphs" textLength="14" x="266" y="796.7104">wb</text><text fill="#000000" font-family="sans-serif" font-size="11" lengthAdjust="spacingAndGlyphs" textLength="24" x="284" y="796.7104">is in</text><text fill="#000000" font-family="monospace" font-size="11" lengthAdjust="spacingAndGlyphs" text-decoration="underline" textLength="119" x="312" y="796.7104">(Newline, CR, LF)</text><line style="stroke: #000000; stroke-width: 1.0;" x1="312" x2="431" y1="798.7104" y2="798.7104"/><text fill="#000000" font-family="sans-serif" font-size="11" lengthAdjust="spacingAndGlyphs" textLength="6" x="431" y="796.7104">?</text><rect fill="#FFFFFF" filter="url(#fpcsq8nn38bj)" height="33.9688" rx="12.5" ry="12.5" style="stroke: #000000; stroke-width: 1.5;" width="149" x="167" y="837.707"/><text fill="#000000" font-family="sans-serif" font-size="12" lengthAdjust="spacingAndGlyphs" textLength="20" x="177" y="858.8457">set</text><text fill="#000000" font-family="monospace" font-size="12" font-weight="bold" lengthAdjust="spacingAndGlyphs" textLength="56" x="201" y="858.8457">do_break</text><text fill="#000000" font-family="sans-serif" font-size="12" lengthAdjust="spacingAndGlyphs" textLength="13" x="261" y="858.8457">to</text><text fill="#000000" font-family="monospace" font-size="12" lengthAdjust="spacingAndGlyphs" text-decoration="underline" textLength="28" x="278" y="858.8457">TODO</text><line style="stroke: #000000; stroke-width: 1.0;" x1="278" x2="306" y1="860.8457" y2="860.8457"/><polygon fill="#FFFFFF" filter="url(#fpcsq8nn38bj)" points="481,780.9023,691,780.9023,703,792.9023,691,804.9023,481,804.9023,469,792.9023,481,780.9023" style="stroke: #000000; stroke-width: 1.5;"/><text fill="#000000" font-family="sans-serif" font-size="11" lengthAdjust="spacingAndGlyphs" textLength="20" x="590" y="815.1128">yes</text><text fill="#000000" font-family="monospace" font-size="11" font-weight="bold" lengthAdjust="spacingAndGlyphs" textLength="49" x="481" y="796.7104">prev_wb</text><text fill="#000000" font-family="sans-serif" font-size="11" lengthAdjust="spacingAndGlyphs" textLength="38" x="534" y="796.7104">equals</text><text fill="#000000" font-family="monospace" font-size="11" font-weight="bold" lengthAdjust="spacingAndGlyphs" textLength="14" x="576" y="796.7104">wb</text><text fill="#000000" font-family="sans-serif" font-size="11" lengthAdjust="spacingAndGlyphs" textLength="38" x="594" y="796.7104">equals</text><text fill="#000000" font-family="monospace" font-size="11" lengthAdjust="spacingAndGlyphs" text-decoration="underline" textLength="49" x="636" y="796.7104">ALetter</text><line style="stroke: #000000; stroke-width: 1.0;" x1="636" x2="685" y1="798.7104" y2="798.7104"/><text fill="#000000" font-family="sans-serif" font-size="11" lengthAdjust="spacingAndGlyphs" textLength="6" x="685" y="796.7104">?</text><rect fill="#FFFFFF" filter="url(#fpcsq8nn38bj)" height="33.9688" rx="12.5" ry="12.5" style="stroke: #000000; stroke-width: 1.5;" width="54" x="559" y="837.707"/><text fill="#000000" font-family="sans-serif" font-size="12" lengthAdjust="spacingAndGlyphs" textLength="34" x="569" y="858.8457">TODO</text><polygon fill="#FFFFFF" filter="url(#fpcsq8nn38bj)" points="735,780.9023,774,780.9023,786,792.9023,774,804.9023,735,804.9023,723,792.9023,735,780.9023" style="stroke: #000000; stroke-width: 1.5;"/><text fill="#000000" font-family="sans-serif" font-size="11" lengthAdjust="spacingAndGlyphs" textLength="20" x="758.5" y="815.1128">yes</text><text fill="#000000" font-family="sans-serif" font-size="11" lengthAdjust="spacingAndGlyphs" textLength="39" x="735" y="796.7104">TODO?</text><rect fill="#FFFFFF" filter="url(#fpcsq8nn38bj)" height="33.9688" rx="12.5" ry="12.5" style="stroke: #000000; stroke-width: 1.5;" width="54" x="727.5" y="837.707"/><text fill="#000000" font-family="sans-serif" font-size="12" lengthAdjust="spacingAndGlyphs" textLength="34" x="737.5" y="858.8457">TODO</text><polygon fill="#FFFFFF" filter="url(#fpcsq8nn38bj)" points="818,780.9023,857,780.9023,869,792.9023,857,804.9023,818,804.9023,806,792.9023,818,780.9023" style="stroke: #000000; stroke-width: 1.5;"/><text fill="#000000" font-family="sans-serif" font-size="11" lengthAdjust="spacingAndGlyphs" textLength="20" x="841.5" y="815.1128">yes</text><text fill="#000000" font-family="sans-serif" font-size="11" lengthAdjust="spacingAndGlyphs" textLength="39" x="818" y="796.7104">TODO?</text><rect fill="#FFFFFF" filter="url(#fpcsq8nn38bj)" height="33.9688" rx="12.5" ry="12.5" style="stroke: #000000; stroke-width: 1.5;" width="54" x="810.5" y="837.707"/><text fill="#000000" font-family="sans-serif" font-size="12" lengthAdjust="spacingAndGlyphs" textLength="34" x="820.5" y="858.8457">TODO</text><polygon fill="#FFFFFF" filter="url(#fpcsq8nn38bj)" points="901,780.9023,940,780.9023,952,792.9023,940,804.9023,901,804.9023,889,792.9023,901,780.9023" style="stroke: #000000; stroke-width: 1.5;"/><text fill="#000000" font-family="sans-serif" font-size="11" lengthAdjust="spacingAndGlyphs" textLength="20" x="924.5" y="815.1128">yes</text><text fill="#000000" font-family="sans-serif" font-size="11" lengthAdjust="spacingAndGlyphs" textLength="39" x="901" y="796.7104">TODO?</text><rect fill="#FFFFFF" filter="url(#fpcsq8nn38bj)" height="33.9688" rx="12.5" ry="12.5" style="stroke: #000000; stroke-width: 1.5;" width="54" x="893.5" y="837.707"/><text fill="#000000" font-family="sans-serif" font-size="12" lengthAdjust="spacingAndGlyphs" textLength="34" x="903.5" y="858.8457">TODO</text><polygon fill="#FFFFFF" filter="url(#fpcsq8nn38bj)" points="984,780.9023,1023,780.9023,1035,792.9023,1023,804.9023,984,804.9023,972,792.9023,984,780.9023" style="stroke: #000000; stroke-width: 1.5;"/><text fill="#000000" font-family="sans-serif" font-size="11" lengthAdjust="spacingAndGlyphs" textLength="20" x="1007.5" y="815.1128">yes</text><text fill="#000000" font-family="sans-serif" font-size="11" lengthAdjust="spacingAndGlyphs" textLength="39" x="984" y="796.7104">TODO?</text><rect fill="#FFFFFF" filter="url(#fpcsq8nn38bj)" height="33.9688" rx="12.5" ry="12.5" style="stroke: #000000; stroke-width: 1.5;" width="54" x="976.5" y="837.707"/><text fill="#000000" font-family="sans-serif" font-size="12" lengthAdjust="spacingAndGlyphs" textLength="34" x="986.5" y="858.8457">TODO</text><polygon fill="#FFFFFF" filter="url(#fpcsq8nn38bj)" points="1067,780.9023,1106,780.9023,1118,792.9023,1106,804.9023,1067,804.9023,1055,792.9023,1067,780.9023" style="stroke: #000000; stroke-width: 1.5;"/><text fill="#000000" font-family="sans-serif" font-size="11" lengthAdjust="spacingAndGlyphs" textLength="20" x="1090.5" y="815.1128">yes</text><text fill="#000000" font-family="sans-serif" font-size="11" lengthAdjust="spacingAndGlyphs" textLength="39" x="1067" y="796.7104">TODO?</text><rect fill="#FFFFFF" filter="url(#fpcsq8nn38bj)" height="33.9688" rx="12.5" ry="12.5" style="stroke: #000000; stroke-width: 1.5;" width="54" x="1059.5" y="837.707"/><text fill="#000000" font-family="sans-serif" font-size="12" lengthAdjust="spacingAndGlyphs" textLength="34" x="1069.5" y="858.8457">TODO</text><polygon fill="#FFFFFF" filter="url(#fpcsq8nn38bj)" points="1150,780.9023,1189,780.9023,1201,792.9023,1189,804.9023,1150,804.9023,1138,792.9023,1150,780.9023" style="stroke: #000000; stroke-width: 1.5;"/><text fill="#000000" font-family="sans-serif" font-size="11" lengthAdjust="spacingAndGlyphs" textLength="20" x="1173.5" y="815.1128">yes</text><text fill="#000000" font-family="sans-serif" font-size="11" lengthAdjust="spacingAndGlyphs" textLength="39" x="1150" y="796.7104">TODO?</text><rect fill="#FFFFFF" filter="url(#fpcsq8nn38bj)" height="33.9688" rx="12.5" ry="12.5" style="stroke: #000000; stroke-width: 1.5;" width="54" x="1142.5" y="837.707"/><text fill="#000000" font-family="sans-serif" font-size="12" lengthAdjust="spacingAndGlyphs" textLength="34" x="1152.5" y="858.8457">TODO</text><polygon fill="#FFFFFF" filter="url(#fpcsq8nn38bj)" points="1233,780.9023,1272,780.9023,1284,792.9023,1272,804.9023,1233,804.9023,1221,792.9023,1233,780.9023" style="stroke: #000000; stroke-width: 1.5;"/><text fill="#000000" font-family="sans-serif" font-size="11" lengthAdjust="spacingAndGlyphs" textLength="20" x="1256.5" y="815.1128">yes</text><text fill="#000000" font-family="sans-serif" font-size="11" lengthAdjust="spacingAndGlyphs" textLength="39" x="1233" y="796.7104">TODO?</text><text fill="#000000" font-family="sans-serif" font-size="11" lengthAdjust="spacingAndGlyphs" textLength="14" x="1284" y="790.3081">no</text><rect fill="#FFFFFF" filter="url(#fpcsq8nn38bj)" height="33.9688" rx="12.5" ry="12.5" style="stroke: #000000; stroke-width: 1.5;" width="54" x="1225.5" y="837.707"/><text fill="#000000" font-family="sans-serif" font-size="12" lengthAdjust="spacingAndGlyphs" textLength="34" x="1235.5" y="858.8457">TODO</text><rect fill="#FFFFFF" filter="url(#fpcsq8nn38bj)" height="33.9688" rx="12.5" ry="12.5" style="stroke: #000000; stroke-width: 1.5;" width="54" x="1304" y="834.3047"/><text fill="#000000" font-family="sans-serif" font-size="12" lengthAdjust="spacingAndGlyphs" textLength="34" x="1314" y="855.4434">TODO</text><rect fill="#FFFFFF" filter="url(#fpcsq8nn38bj)" height="33.9688" rx="12.5" ry="12.5" style="stroke: #000000; stroke-width: 1.5;" width="98" x="647" y="967.3862"/><text fill="#000000" font-family="sans-serif" font-size="12" lengthAdjust="spacingAndGlyphs" textLength="78" x="657" y="988.5249">yield(i, prop)</text><polygon fill="#FFFFFF" filter="url(#fpcsq8nn38bj)" points="586,911.6758,806,911.6758,818,923.6758,806,935.6758,586,935.6758,574,923.6758,586,911.6758" style="stroke: #000000; stroke-width: 1.5;"/><text fill="#000000" font-family="sans-serif" font-size="11" lengthAdjust="spacingAndGlyphs" textLength="20" x="700" y="945.8862">yes</text><text fill="#000000" font-family="sans-serif" font-size="11" lengthAdjust="spacingAndGlyphs" textLength="37" x="586" y="927.4839">iterate</text><text fill="#000000" font-family="monospace" font-size="11" font-weight="bold" lengthAdjust="spacingAndGlyphs" textLength="7" x="627" y="927.4839">j</text><text fill="#000000" font-family="sans-serif" font-size="11" lengthAdjust="spacingAndGlyphs" textLength="25" x="638" y="927.4839">over</text><text fill="#000000" font-family="monospace" font-size="11" font-style="italic" lengthAdjust="spacingAndGlyphs" textLength="133" x="667" y="927.4839">range(next_pos-pos)</text><text fill="#000000" font-family="sans-serif" font-size="11" lengthAdjust="spacingAndGlyphs" textLength="6" x="800" y="927.4839">?</text><text fill="#000000" font-family="sans-serif" font-size="11" lengthAdjust="spacingAndGlyphs" textLength="14" x="560" y="921.0815">no</text><rect fill="#FFFFFF" filter="url(#fpcsq8nn38bj)" height="33.9688" rx="12.5" ry="12.5" style="stroke: #000000; stroke-width: 1.5;" width="142" x="625" y="1043.355"/><text fill="#000000" font-family="sans-serif" font-size="12" lengthAdjust="spacingAndGlyphs" textLength="20" x="635" y="1064.4937">set</text><text fill="#000000" font-family="monospace" font-size="12" font-weight="bold" lengthAdjust="spacingAndGlyphs" textLength="56" x="659" y="1064.4937">prev_pos</text><text fill="#000000" font-family="sans-serif" font-size="12" lengthAdjust="spacingAndGlyphs" textLength="13" x="719" y="1064.4937">to</text><text fill="#000000" font-family="monospace" font-size="12" font-weight="bold" lengthAdjust="spacingAndGlyphs" textLength="21" x="736" y="1064.4937">pos</text><rect fill="#FFFFFF" filter="url(#fpcsq8nn38bj)" height="33.9688" rx="12.5" ry="12.5" style="stroke: #000000; stroke-width: 1.5;" width="198" x="597" y="1097.3237"/><text fill="#000000" font-family="sans-serif" font-size="12" lengthAdjust="spacingAndGlyphs" textLength="20" x="607" y="1118.4624">set</text><text fill="#000000" font-family="monospace" font-size="12" font-weight="bold" lengthAdjust="spacingAndGlyphs" textLength="84" x="631" y="1118.4624">prev_prev_wb</text><text fill="#000000" font-family="sans-serif" font-size="12" lengthAdjust="spacingAndGlyphs" textLength="13" x="719" y="1118.4624">to</text><text fill="#000000" font-family="monospace" font-size="12" font-weight="bold" lengthAdjust="spacingAndGlyphs" textLength="49" x="736" y="1118.4624">prev_wb</text><rect fill="#FFFFFF" filter="url(#fpcsq8nn38bj)" height="33.9688" rx="12.5" ry="12.5" style="stroke: #000000; stroke-width: 1.5;" width="128" x="632" y="1151.2925"/><text fill="#000000" font-family="sans-serif" font-size="12" lengthAdjust="spacingAndGlyphs" textLength="20" x="642" y="1172.4312">set</text><text fill="#000000" font-family="monospace" font-size="12" font-weight="bold" lengthAdjust="spacingAndGlyphs" textLength="49" x="666" y="1172.4312">prev_wb</text><text fill="#000000" font-family="sans-serif" font-size="12" lengthAdjust="spacingAndGlyphs" textLength="13" x="719" y="1172.4312">to</text><text fill="#000000" font-family="monospace" font-size="12" font-weight="bold" lengthAdjust="spacingAndGlyphs" textLength="14" x="736" y="1172.4312">wb</text><polygon fill="#FFFFFF" filter="url(#fpcsq8nn38bj)" points="491.5,666.1289,900.5,666.1289,912.5,678.1289,900.5,690.1289,491.5,690.1289,479.5,678.1289,491.5,666.1289" style="stroke: #000000; stroke-width: 1.5;"/><text fill="#000000" font-family="sans-serif" font-size="11" lengthAdjust="spacingAndGlyphs" textLength="20" x="700" y="700.3394">yes</text><text fill="#000000" font-family="sans-serif" font-size="11" lengthAdjust="spacingAndGlyphs" textLength="37" x="491.5" y="681.937">iterate</text><text fill="#000000" font-family="monospace" font-size="11" font-weight="bold" lengthAdjust="spacingAndGlyphs" textLength="112" x="532.5" y="681.937">i, pair&lt;pos, wb&gt;</text><text fill="#000000" font-family="sans-serif" font-size="11" lengthAdjust="spacingAndGlyphs" textLength="25" x="648.5" y="681.937">over</text><text fill="#000000" filter="url(#bpcsq8nn38bj0)" font-family="monospace" font-size="11" font-style="italic" lengthAdjust="spacingAndGlyphs" textLength="217" x="677.5" y="681.937">enumerate(primitive_boundaries)</text><text fill="#000000" font-family="sans-serif" font-size="11" lengthAdjust="spacingAndGlyphs" textLength="6" x="894.5" y="681.937">?</text><text fill="#000000" font-family="sans-serif" font-size="11" lengthAdjust="spacingAndGlyphs" textLength="14" x="465.5" y="675.5347">no</text><ellipse cx="24" cy="724.1289" fill="none" filter="url(#fpcsq8nn38bj)" rx="10" ry="10" style="stroke: #000000; stroke-width: 1.0;"/><ellipse cx="24.5" cy="724.6289" fill="#000000" filter="url(#fpcsq8nn38bj)" rx="6" ry="6" style="stroke: none; stroke-width: 1.0;"/><line style="stroke: #000000; stroke-width: 1.5;" x1="696" x2="696" y1="71.9063" y2="153.1523"/><polygon fill="#000000" points="692,143.1523,696,153.1523,700,143.1523,696,147.1523" style="stroke: #000000; stroke-width: 1.0;"/><line style="stroke: #000000; stroke-width: 1.5;" x1="696" x2="696" y1="360.7383" y2="388.2539"/><polygon fill="#000000" points="692,378.2539,696,388.2539,700,378.2539,696,382.2539" style="stroke: #000000; stroke-width: 1.0;"/><line style="stroke: #000000; stroke-width: 1.5;" x1="696" x2="696" y1="302.3672" y2="326.7695"/><polygon fill="#000000" points="692,316.7695,696,326.7695,700,316.7695,696,320.7695" style="stroke: #000000; stroke-width: 1.0;"/><line style="stroke: #000000; stroke-width: 1.5;" x1="752" x2="764" y1="290.3672" y2="290.3672"/><polygon fill="#000000" points="760,358.2539,764,368.2539,768,358.2539,764,362.2539" style="stroke: #000000; stroke-width: 1.5;"/><line style="stroke: #000000; stroke-width: 1.5;" x1="764" x2="764" y1="290.3672" y2="430.2539"/><line style="stroke: #000000; stroke-width: 1.5;" x1="764" x2="696" y1="430.2539" y2="430.2539"/><line style="stroke: #000000; stroke-width: 1.5;" x1="696" x2="696" y1="430.2539" y2="450.2539"/><polygon fill="#000000" points="692,440.2539,696,450.2539,700,440.2539,696,444.2539" style="stroke: #000000; stroke-width: 1.0;"/><line style="stroke: #000000; stroke-width: 1.5;" x1="696" x2="696" y1="187.1211" y2="278.3672"/><polygon fill="#000000" points="692,268.3672,696,278.3672,700,268.3672,696,272.3672" style="stroke: #000000; stroke-width: 1.0;"/><line style="stroke: #000000; stroke-width: 1.5;" x1="696" x2="696" y1="484.2227" y2="504.2227"/><polygon fill="#000000" points="692,494.2227,696,504.2227,700,494.2227,696,498.2227" style="stroke: #000000; stroke-width: 1.0;"/><line style="stroke: #000000; stroke-width: 1.5;" x1="696" x2="696" y1="538.1914" y2="558.1914"/><polygon fill="#000000" points="692,548.1914,696,558.1914,700,548.1914,696,552.1914" style="stroke: #000000; stroke-width: 1.0;"/><line style="stroke: #000000; stroke-width: 1.5;" x1="696" x2="696" y1="592.1602" y2="612.1602"/><polygon fill="#000000" points="692,602.1602,696,612.1602,700,602.1602,696,606.1602" style="stroke: #000000; stroke-width: 1.0;"/><line style="stroke: #000000; stroke-width: 1.5;" x1="241.5" x2="241.5" y1="804.9023" y2="837.707"/><polygon fill="#000000" points="237.5,827.707,241.5,837.707,245.5,827.707,241.5,831.707" style="stroke: #000000; stroke-width: 1.0;"/><line style="stroke: #000000; stroke-width: 1.5;" x1="241.5" x2="241.5" y1="871.6758" y2="891.6758"/><polygon fill="#000000" points="237.5,881.6758,241.5,891.6758,245.5,881.6758,241.5,885.6758" style="stroke: #000000; stroke-width: 1.0;"/><line style="stroke: #000000; stroke-width: 1.5;" x1="586" x2="586" y1="804.9023" y2="837.707"/><polygon fill="#000000" points="582,827.707,586,837.707,590,827.707,586,831.707" style="stroke: #000000; stroke-width: 1.0;"/><line style="stroke: #000000; stroke-width: 1.5;" x1="586" x2="586" y1="871.6758" y2="891.6758"/><polygon fill="#000000" points="582,881.6758,586,891.6758,590,881.6758,586,885.6758" style="stroke: #000000; stroke-width: 1.0;"/><line style="stroke: #000000; stroke-width: 1.5;" x1="754.5" x2="754.5" y1="804.9023" y2="837.707"/><polygon fill="#000000" points="750.5,827.707,754.5,837.707,758.5,827.707,754.5,831.707" style="stroke: #000000; stroke-width: 1.0;"/><line style="stroke: #000000; stroke-width: 1.5;" x1="754.5" x2="754.5" y1="871.6758" y2="891.6758"/><polygon fill="#000000" points="750.5,881.6758,754.5,891.6758,758.5,881.6758,754.5,885.6758" style="stroke: #000000; stroke-width: 1.0;"/><line style="stroke: #000000; stroke-width: 1.5;" x1="837.5" x2="837.5" y1="804.9023" y2="837.707"/><polygon fill="#000000" points="833.5,827.707,837.5,837.707,841.5,827.707,837.5,831.707" style="stroke: #000000; stroke-width: 1.0;"/><line style="stroke: #000000; stroke-width: 1.5;" x1="837.5" x2="837.5" y1="871.6758" y2="891.6758"/><polygon fill="#000000" points="833.5,881.6758,837.5,891.6758,841.5,881.6758,837.5,885.6758" style="stroke: #000000; stroke-width: 1.0;"/><line style="stroke: #000000; stroke-width: 1.5;" x1="920.5" x2="920.5" y1="804.9023" y2="837.707"/><polygon fill="#000000" points="916.5,827.707,920.5,837.707,924.5,827.707,920.5,831.707" style="stroke: #000000; stroke-width: 1.0;"/><line style="stroke: #000000; stroke-width: 1.5;" x1="920.5" x2="920.5" y1="871.6758" y2="891.6758"/><polygon fill="#000000" points="916.5,881.6758,920.5,891.6758,924.5,881.6758,920.5,885.6758" style="stroke: #000000; stroke-width: 1.0;"/><line style="stroke: #000000; stroke-width: 1.5;" x1="1003.5" x2="1003.5" y1="804.9023" y2="837.707"/><polygon fill="#000000" points="999.5,827.707,1003.5,837.707,1007.5,827.707,1003.5,831.707" style="stroke: #000000; stroke-width: 1.0;"/><line style="stroke: #000000; stroke-width: 1.5;" x1="1003.5" x2="1003.5" y1="871.6758" y2="891.6758"/><polygon fill="#000000" points="999.5,881.6758,1003.5,891.6758,1007.5,881.6758,1003.5,885.6758" style="stroke: #000000; stroke-width: 1.0;"/><line style="stroke: #000000; stroke-width: 1.5;" x1="1086.5" x2="1086.5" y1="804.9023" y2="837.707"/><polygon fill="#000000" points="1082.5,827.707,1086.5,837.707,1090.5,827.707,1086.5,831.707" style="stroke: #000000; stroke-width: 1.0;"/><line style="stroke: #000000; stroke-width: 1.5;" x1="1086.5" x2="1086.5" y1="871.6758" y2="891.6758"/><polygon fill="#000000" points="1082.5,881.6758,1086.5,891.6758,1090.5,881.6758,1086.5,885.6758" style="stroke: #000000; stroke-width: 1.0;"/><line style="stroke: #000000; stroke-width: 1.5;" x1="1169.5" x2="1169.5" y1="804.9023" y2="837.707"/><polygon fill="#000000" points="1165.5,827.707,1169.5,837.707,1173.5,827.707,1169.5,831.707" style="stroke: #000000; stroke-width: 1.0;"/><line style="stroke: #000000; stroke-width: 1.5;" x1="1169.5" x2="1169.5" y1="871.6758" y2="891.6758"/><polygon fill="#000000" points="1165.5,881.6758,1169.5,891.6758,1173.5,881.6758,1169.5,885.6758" style="stroke: #000000; stroke-width: 1.0;"/><line style="stroke: #000000; stroke-width: 1.5;" x1="1252.5" x2="1252.5" y1="804.9023" y2="837.707"/><polygon fill="#000000" points="1248.5,827.707,1252.5,837.707,1256.5,827.707,1252.5,831.707" style="stroke: #000000; stroke-width: 1.0;"/><line style="stroke: #000000; stroke-width: 1.5;" x1="1252.5" x2="1252.5" y1="871.6758" y2="891.6758"/><polygon fill="#000000" points="1248.5,881.6758,1252.5,891.6758,1256.5,881.6758,1252.5,885.6758" style="stroke: #000000; stroke-width: 1.0;"/><line style="stroke: #000000; stroke-width: 1.5;" x1="449" x2="469" y1="792.9023" y2="792.9023"/><polygon fill="#000000" points="459,788.9023,469,792.9023,459,796.9023,463,792.9023" style="stroke: #000000; stroke-width: 1.0;"/><line style="stroke: #000000; stroke-width: 1.5;" x1="703" x2="723" y1="792.9023" y2="792.9023"/><polygon fill="#000000" points="713,788.9023,723,792.9023,713,796.9023,717,792.9023" style="stroke: #000000; stroke-width: 1.0;"/><line style="stroke: #000000; stroke-width: 1.5;" x1="786" x2="806" y1="792.9023" y2="792.9023"/><polygon fill="#000000" points="796,788.9023,806,792.9023,796,796.9023,800,792.9023" style="stroke: #000000; stroke-width: 1.0;"/><line style="stroke: #000000; stroke-width: 1.5;" x1="869" x2="889" y1="792.9023" y2="792.9023"/><polygon fill="#000000" points="879,788.9023,889,792.9023,879,796.9023,883,792.9023" style="stroke: #000000; stroke-width: 1.0;"/><line style="stroke: #000000; stroke-width: 1.5;" x1="952" x2="972" y1="792.9023" y2="792.9023"/><polygon fill="#000000" points="962,788.9023,972,792.9023,962,796.9023,966,792.9023" style="stroke: #000000; stroke-width: 1.0;"/><line style="stroke: #000000; stroke-width: 1.5;" x1="1035" x2="1055" y1="792.9023" y2="792.9023"/><polygon fill="#000000" points="1045,788.9023,1055,792.9023,1045,796.9023,1049,792.9023" style="stroke: #000000; stroke-width: 1.0;"/><line style="stroke: #000000; stroke-width: 1.5;" x1="1118" x2="1138" y1="792.9023" y2="792.9023"/><polygon fill="#000000" points="1128,788.9023,1138,792.9023,1128,796.9023,1132,792.9023" style="stroke: #000000; stroke-width: 1.0;"/><line style="stroke: #000000; stroke-width: 1.5;" x1="1201" x2="1221" y1="792.9023" y2="792.9023"/><polygon fill="#000000" points="1211,788.9023,1221,792.9023,1211,796.9023,1215,792.9023" style="stroke: #000000; stroke-width: 1.0;"/><line style="stroke: #000000; stroke-width: 1.5;" x1="696" x2="696" y1="760.9023" y2="765.9023"/><line style="stroke: #000000; stroke-width: 1.5;" x1="696" x2="241.5" y1="765.9023" y2="765.9023"/><line style="stroke: #000000; stroke-width: 1.5;" x1="241.5" x2="241.5" y1="765.9023" y2="780.9023"/><polygon fill="#000000" points="237.5,770.9023,241.5,780.9023,245.5,770.9023,241.5,774.9023" style="stroke: #000000; stroke-width: 1.0;"/><line style="stroke: #000000; stroke-width: 1.5;" x1="1284" x2="1331" y1="792.9023" y2="792.9023"/><line style="stroke: #000000; stroke-width: 1.5;" x1="1331" x2="1331" y1="792.9023" y2="834.3047"/><polygon fill="#000000" points="1327,824.3047,1331,834.3047,1335,824.3047,1331,828.3047" style="stroke: #000000; stroke-width: 1.0;"/><line style="stroke: #000000; stroke-width: 1.5;" x1="1331" x2="1331" y1="868.2734" y2="891.6758"/><polygon fill="#000000" points="1327,881.6758,1331,891.6758,1335,881.6758,1331,885.6758" style="stroke: #000000; stroke-width: 1.0;"/><line style="stroke: #000000; stroke-width: 1.5;" x1="241.5" x2="1331" y1="891.6758" y2="891.6758"/><line style="stroke: #000000; stroke-width: 1.5;" x1="696" x2="696" y1="935.6758" y2="967.3862"/><polygon fill="#000000" points="692,957.3862,696,967.3862,700,957.3862,696,961.3862" style="stroke: #000000; stroke-width: 1.0;"/><line style="stroke: #000000; stroke-width: 1.5;" x1="696" x2="696" y1="1001.355" y2="1011.355"/><line style="stroke: #000000; stroke-width: 1.5;" x1="696" x2="830" y1="1011.355" y2="1011.355"/><polygon fill="#000000" points="826,975.9683,830,965.9683,834,975.9683,830,971.9683" style="stroke: #000000; stroke-width: 1.5;"/><line style="stroke: #000000; stroke-width: 1.5;" x1="830" x2="830" y1="923.6758" y2="1011.355"/><line style="stroke: #000000; stroke-width: 1.5;" x1="830" x2="818" y1="923.6758" y2="923.6758"/><polygon fill="#000000" points="828,919.6758,818,923.6758,828,927.6758,824,923.6758" style="stroke: #000000; stroke-width: 1.0;"/><line style="stroke: #000000; stroke-width: 1.5;" x1="574" x2="562" y1="923.6758" y2="923.6758"/><polygon fill="#000000" points="558,961.9683,562,971.9683,566,961.9683,562,965.9683" style="stroke: #000000; stroke-width: 1.5;"/><line style="stroke: #000000; stroke-width: 1.5;" x1="562" x2="562" y1="923.6758" y2="1023.355"/><line style="stroke: #000000; stroke-width: 1.5;" x1="562" x2="696" y1="1023.355" y2="1023.355"/><line style="stroke: #000000; stroke-width: 1.5;" x1="696" x2="696" y1="1023.355" y2="1043.355"/><polygon fill="#000000" points="692,1033.355,696,1043.355,700,1033.355,696,1037.355" style="stroke: #000000; stroke-width: 1.0;"/><line style="stroke: #000000; stroke-width: 1.5;" x1="696" x2="696" y1="891.6758" y2="911.6758"/><polygon fill="#000000" points="692,901.6758,696,911.6758,700,901.6758,696,905.6758" style="stroke: #000000; stroke-width: 1.0;"/><line style="stroke: #000000; stroke-width: 1.5;" x1="696" x2="696" y1="1077.3237" y2="1097.3237"/><polygon fill="#000000" points="692,1087.3237,696,1097.3237,700,1087.3237,696,1091.3237" style="stroke: #000000; stroke-width: 1.0;"/><line style="stroke: #000000; stroke-width: 1.5;" x1="696" x2="696" y1="1131.2925" y2="1151.2925"/><polygon fill="#000000" points="692,1141.2925,696,1151.2925,700,1141.2925,696,1145.2925" style="stroke: #000000; stroke-width: 1.0;"/><line style="stroke: #000000; stroke-width: 1.5;" x1="696" x2="696" y1="690.1289" y2="726.9336"/><polygon fill="#000000" points="692,716.9336,696,726.9336,700,716.9336,696,720.9336" style="stroke: #000000; stroke-width: 1.0;"/><line style="stroke: #000000; stroke-width: 1.5;" x1="696" x2="696" y1="1185.2612" y2="1195.2612"/><line style="stroke: #000000; stroke-width: 1.5;" x1="696" x2="1370" y1="1195.2612" y2="1195.2612"/><polygon fill="#000000" points="1366,918.7422,1370,908.7422,1374,918.7422,1370,914.7422" style="stroke: #000000; stroke-width: 1.5;"/><line style="stroke: #000000; stroke-width: 1.5;" x1="1370" x2="1370" y1="678.1289" y2="1195.2612"/><line style="stroke: #000000; stroke-width: 1.5;" x1="1370" x2="912.5" y1="678.1289" y2="678.1289"/><polygon fill="#000000" points="922.5,674.1289,912.5,678.1289,922.5,682.1289,918.5,678.1289" style="stroke: #000000; stroke-width: 1.0;"/><line style="stroke: #000000; stroke-width: 1.5;" x1="479.5" x2="24" y1="678.1289" y2="678.1289"/><line style="stroke: #000000; stroke-width: 1.5;" x1="24" x2="24" y1="678.1289" y2="714.1289"/><polygon fill="#000000" points="20,704.1289,24,714.1289,28,704.1289,24,708.1289" style="stroke: #000000; stroke-width: 1.0;"/><line style="stroke: #000000; stroke-width: 1.5;" x1="696" x2="696" y1="646.1289" y2="666.1289"/><polygon fill="#000000" points="692,656.1289,696,666.1289,700,656.1289,696,660.1289" style="stroke: #000000; stroke-width: 1.0;"/><!--
@startuml
skinparam BackgroundColor White|White
skinparam ArrowColor Black

skinparam NoteBackgroundColor White
skinparam NoteBorderColor Black

skinparam ActivityBackgroundColor White
skinparam ActivityDiamondBackgroundColor White
skinparam ActivityBorderColor Black
skinparam ActivityDiamondBorderColor Black

title **Nuspell - segmentation - //""word_breakables(s)""//**\n

start

:**""s""** contains input string;
floating note left
    1 for "break" and 0 for "do not break".  The length of iteration 
    will be the same as ``len(s)``.
    
    ""assert(list(word_breakables(u"ABC")) ==""
    "        [1, 0, 0]);""

    ""assert(list(word_breakables(u"Hello, world.")) ==""
    ""       [1, 0, 0, 0, 0, 1, 1, 1, 0, 0, 0, 0, 1]);""

    ""assert(list(word_breakables(u"\x01\u0308\x01")) ==""
    ""       [1, 0, 1]);""
end note

if (**""s**"" is empty?) then (yes)
    :return nothing;
    stop
else (no)
endif

:set **""primitive_boundaties**"" to list of //""preprocess_boundaries(s)""//;
:set **""prev_prev_wb""** to __""nullptr""__;
:set **""prev_wb""** to __""nullptr""__;
:set **""prev_pos""** to __""0""__;

while (iterate **""i, pair<pos, wb>""** over <back:skyblue>//""enumerate(primitive_boundaries)""//</back>?) is (yes)
    :set **""next_pos, next_wb""** to <back:skyblue>//""<TODO>""//</back>;
    if (**""prev_wn""** is in ""__(Newline, CR, LF)__"" or **""wb""** is in __""(Newline, CR, LF)""__?) then (yes)
        :set **""do_break""** to __""TODO""__;
    elseif (**""prev_wb""** equals **""wb""** equals __""ALetter""__?) then (yes)
        :TODO;
    elseif (TODO?) then (yes)
        :TODO;
    elseif (TODO?) then (yes)
        :TODO;
    elseif (TODO?) then (yes)
        :TODO;
    elseif (TODO?) then (yes)
        :TODO;
    elseif (TODO?) then (yes)
        :TODO;
    elseif (TODO?) then (yes)
        :TODO;
    elseif (TODO?) then (yes)
        :TODO;
    else (no)
        :TODO;
    endif

    while (iterate **""j""** over //""range(next_pos-pos)""//?) is (yes)
        :yield(i, prop);
    endwhile (no)
    :set **""prev_pos""** to **""pos""**;
    :set **""prev_prev_wb""** to **""prev_wb""**;
    :set **""prev_wb""** to **""wb""**;
endwhile (no)

stop

@enduml

PlantUML version 1.2017.15(Mon Jul 03 18:45:34 CEST 2017)
(GPL source distribution)
Java Runtime: OpenJDK Runtime Environment
JVM: OpenJDK 64-Bit Server VM
Java Version: 10.0.2+13-Ubuntu-1ubuntu0.18.04.1
Operating System: Linux
OS Version: 4.15.0-32-generic
Default Encoding: UTF-8
Language: en
Country: US
--></g></svg>