<?xml version="1.0" encoding="UTF-8" standalone="no"?><svg xmlns="http://www.w3.org/2000/svg" xmlns:xlink="http://www.w3.org/1999/xlink" contentScriptType="application/ecmascript" contentStyleType="text/css" height="850px" preserveAspectRatio="none" style="width:926px;height:850px;" version="1.1" viewBox="0 0 926 850" width="926px" zoomAndPan="magnify"><defs><linearGradient id="g194fhlj329g4f0" x1="0%" x2="100%" y1="50%" y2="50%"><stop offset="0%" stop-color="#FFFFFF"/><stop offset="100%" stop-color="#FFFFFF"/></linearGradient><filter height="300%" id="f194fhlj329g4f" width="300%" x="-1" y="-1"><feGaussianBlur result="blurOut" stdDeviation="2.0"/><feColorMatrix in="blurOut" result="blurOut2" type="matrix" values="0 0 0 0 0 0 0 0 0 0 0 0 0 0 0 0 0 0 .4 0"/><feOffset dx="4.0" dy="4.0" in="blurOut2" result="blurOut3"/><feBlend in="SourceGraphic" in2="blurOut3" mode="normal"/></filter><filter height="1" id="b194fhlj329g4f0" width="1" x="0" y="0"><feFlood flood-color="#87CEEB" result="flood"/><feComposite in="SourceGraphic" in2="flood" operator="over"/></filter></defs><g><rect fill="url(#g194fhlj329g4f0)" height="850" style="stroke: none; stroke-width: 1.0;" width="926" x="0" y="0"/><text fill="#000000" font-family="sans-serif" font-size="18" font-weight="bold" lengthAdjust="spacingAndGlyphs" textLength="248" x="203" y="26.708">Nuspell - segmentation -</text><text fill="#000000" font-family="monospace" font-size="18" font-style="italic" font-weight="bold" lengthAdjust="spacingAndGlyphs" textLength="264" x="457" y="26.708">preprocess_boundaries(s)</text><text fill="#000000" font-family="sans-serif" font-size="18" lengthAdjust="spacingAndGlyphs" textLength="0" x="465" y="47.6611"/><ellipse cx="579.5" cy="61.9063" fill="#000000" filter="url(#f194fhlj329g4f)" rx="10" ry="10" style="stroke: none; stroke-width: 1.0;"/><path d="M10,78.4722 L10,254.9331 L479,254.9331 L479,88.4722 L469,78.4722 L10,78.4722 " fill="#FFFFFF" filter="url(#f194fhlj329g4f)" style="stroke: #000000; stroke-width: 1.0;"/><path d="M469,78.4722 L469,88.4722 L479,88.4722 L469,78.4722 " fill="#FFFFFF" style="stroke: #000000; stroke-width: 1.0;"/><text fill="#000000" font-family="monospace" font-size="13" lengthAdjust="spacingAndGlyphs" textLength="360" x="16" y="95.5391">result = list(preprocess_boundaries("\r\n"));</text><text fill="#000000" font-family="monospace" font-size="13" lengthAdjust="spacingAndGlyphs" textLength="328" x="16" y="110.6719">assert(result == [(0, "CR"), (1, "LF")]);</text><text fill="#000000" font-family="sans-serif" font-size="13" lengthAdjust="spacingAndGlyphs" textLength="0" x="20" y="125.8047"/><text fill="#000000" font-family="monospace" font-size="13" lengthAdjust="spacingAndGlyphs" textLength="400" x="16" y="140.9375">result = list(_preprocess_boundaries("A\u0308A"));</text><text fill="#000000" font-family="monospace" font-size="13" lengthAdjust="spacingAndGlyphs" textLength="408" x="16" y="156.0703">assert(result == [(0, "ALetter"), (2, "ALetter")]);</text><text fill="#000000" font-family="sans-serif" font-size="13" lengthAdjust="spacingAndGlyphs" textLength="0" x="20" y="171.2031"/><text fill="#000000" font-family="monospace" font-size="13" lengthAdjust="spacingAndGlyphs" textLength="400" x="16" y="186.3359">result = list(_preprocess_boundaries("\n\u2060"));</text><text fill="#000000" font-family="monospace" font-size="13" lengthAdjust="spacingAndGlyphs" textLength="360" x="16" y="201.4688">assert(result == [(0, "LF"), (1, "Format")]);</text><text fill="#000000" font-family="sans-serif" font-size="13" lengthAdjust="spacingAndGlyphs" textLength="0" x="20" y="216.6016"/><text fill="#000000" font-family="monospace" font-size="13" lengthAdjust="spacingAndGlyphs" textLength="448" x="16" y="231.7344">result = list(_preprocess_boundaries("\x01\u0308\x01"));</text><text fill="#000000" font-family="monospace" font-size="13" lengthAdjust="spacingAndGlyphs" textLength="376" x="16" y="246.8672">assert(result == [(0, "Other"), (2, "Other")]);</text><rect fill="#FFFFFF" filter="url(#f194fhlj329g4f)" height="33.9688" rx="12.5" ry="12.5" style="stroke: #000000; stroke-width: 1.5;" width="161" x="499" y="149.7183"/><text fill="#000000" font-family="monospace" font-size="12" font-weight="bold" lengthAdjust="spacingAndGlyphs" textLength="7" x="509" y="170.8569">s</text><text fill="#000000" font-family="sans-serif" font-size="12" lengthAdjust="spacingAndGlyphs" textLength="130" x="520" y="170.8569">contains input string</text><rect fill="#FFFFFF" filter="url(#f194fhlj329g4f)" height="33.9688" rx="12.5" ry="12.5" style="stroke: #000000; stroke-width: 1.5;" width="177" x="491" y="268.3672"/><text fill="#000000" font-family="sans-serif" font-size="12" lengthAdjust="spacingAndGlyphs" textLength="20" x="501" y="289.5059">set</text><text fill="#000000" font-family="monospace" font-size="12" font-weight="bold" lengthAdjust="spacingAndGlyphs" textLength="63" x="525" y="289.5059">prev_prop</text><text fill="#000000" font-family="sans-serif" font-size="12" lengthAdjust="spacingAndGlyphs" textLength="13" x="592" y="289.5059">to</text><text fill="#000000" font-family="monospace" font-size="12" lengthAdjust="spacingAndGlyphs" text-decoration="underline" textLength="49" x="609" y="289.5059">nullptr</text><line style="stroke: #000000; stroke-width: 1.0;" x1="609" x2="658" y1="291.5059" y2="291.5059"/><rect fill="#FFFFFF" filter="url(#f194fhlj329g4f)" height="33.9688" rx="12.5" ry="12.5" style="stroke: #000000; stroke-width: 1.5;" width="79" x="540" y="322.3359"/><text fill="#000000" font-family="sans-serif" font-size="12" lengthAdjust="spacingAndGlyphs" textLength="20" x="550" y="343.4746">set</text><text fill="#000000" font-family="monospace" font-size="12" font-weight="bold" lengthAdjust="spacingAndGlyphs" textLength="7" x="574" y="343.4746">i</text><text fill="#000000" font-family="sans-serif" font-size="12" lengthAdjust="spacingAndGlyphs" textLength="13" x="585" y="343.4746">to</text><text fill="#000000" font-family="monospace" font-size="12" lengthAdjust="spacingAndGlyphs" text-decoration="underline" textLength="7" x="602" y="343.4746">0</text><line style="stroke: #000000; stroke-width: 1.0;" x1="602" x2="609" y1="345.4746" y2="345.4746"/><rect fill="#FFFFFF" filter="url(#f194fhlj329g4f)" height="33.9688" rx="12.5" ry="12.5" style="stroke: #000000; stroke-width: 1.5;" width="184" x="487.5" y="437.1094"/><text fill="#000000" font-family="sans-serif" font-size="12" lengthAdjust="spacingAndGlyphs" textLength="20" x="497.5" y="458.248">set</text><text fill="#000000" font-family="monospace" font-size="12" font-weight="bold" lengthAdjust="spacingAndGlyphs" textLength="28" x="521.5" y="458.248">prop</text><text fill="#000000" font-family="sans-serif" font-size="12" lengthAdjust="spacingAndGlyphs" textLength="13" x="553.5" y="458.248">to</text><text fill="#000000" font-family="monospace" font-size="12" font-style="italic" lengthAdjust="spacingAndGlyphs" textLength="91" x="570.5" y="458.248">word_break(c)</text><polygon fill="#FFFFFF" filter="url(#f194fhlj329g4f)" points="283,491.0781,476,491.0781,488,503.0781,476,515.0781,283,515.0781,271,503.0781,283,491.0781" style="stroke: #000000; stroke-width: 1.5;"/><text fill="#000000" font-family="sans-serif" font-size="11" lengthAdjust="spacingAndGlyphs" textLength="20" x="383.5" y="525.2886">yes</text><text fill="#000000" font-family="monospace" font-size="11" font-weight="bold" lengthAdjust="spacingAndGlyphs" textLength="28" x="283" y="506.8862">prop</text><text fill="#000000" font-family="sans-serif" font-size="11" lengthAdjust="spacingAndGlyphs" textLength="10" x="315" y="506.8862">is</text><text fill="#000000" font-family="monospace" font-size="11" lengthAdjust="spacingAndGlyphs" text-decoration="underline" textLength="56" x="329" y="506.8862">"Newline</text><line style="stroke: #000000; stroke-width: 1.0;" x1="329" x2="385" y1="508.8862" y2="508.8862"/><text fill="#000000" font-family="sans-serif" font-size="11" lengthAdjust="spacingAndGlyphs" text-decoration="underline" textLength="5" x="385" y="506.8862">"</text><line style="stroke: #000000; stroke-width: 1.0;" x1="385" x2="390" y1="508.8862" y2="508.8862"/><text fill="#000000" font-family="sans-serif" font-size="11" lengthAdjust="spacingAndGlyphs" textLength="4" x="390" y="506.8862">,</text><text fill="#000000" font-family="monospace" font-size="11" lengthAdjust="spacingAndGlyphs" text-decoration="underline" textLength="21" x="398" y="506.8862">"CR</text><line style="stroke: #000000; stroke-width: 1.0;" x1="398" x2="419" y1="508.8862" y2="508.8862"/><text fill="#000000" font-family="sans-serif" font-size="11" lengthAdjust="spacingAndGlyphs" text-decoration="underline" textLength="5" x="419" y="506.8862">"</text><line style="stroke: #000000; stroke-width: 1.0;" x1="419" x2="424" y1="508.8862" y2="508.8862"/><text fill="#000000" font-family="sans-serif" font-size="11" lengthAdjust="spacingAndGlyphs" textLength="12" x="428" y="506.8862">or</text><text fill="#000000" font-family="monospace" font-size="11" lengthAdjust="spacingAndGlyphs" text-decoration="underline" textLength="21" x="444" y="506.8862">"LF</text><line style="stroke: #000000; stroke-width: 1.0;" x1="444" x2="465" y1="508.8862" y2="508.8862"/><text fill="#000000" font-family="sans-serif" font-size="11" lengthAdjust="spacingAndGlyphs" text-decoration="underline" textLength="5" x="465" y="506.8862">"</text><line style="stroke: #000000; stroke-width: 1.0;" x1="465" x2="470" y1="508.8862" y2="508.8862"/><text fill="#000000" font-family="sans-serif" font-size="11" lengthAdjust="spacingAndGlyphs" textLength="6" x="470" y="506.8862">?</text><rect fill="#FFFFFF" filter="url(#f194fhlj329g4f)" height="33.9688" rx="12.5" ry="12.5" style="stroke: #000000; stroke-width: 1.5;" width="118" x="320.5" y="546.7886"/><text fill="#000000" font-family="monospace" font-size="12" font-style="italic" lengthAdjust="spacingAndGlyphs" textLength="98" x="330.5" y="567.9272">yield(i, prop)</text><rect fill="#FFFFFF" filter="url(#f194fhlj329g4f)" height="33.9688" rx="12.5" ry="12.5" style="stroke: #000000; stroke-width: 1.5;" width="177" x="291" y="615.7573"/><text fill="#000000" font-family="sans-serif" font-size="12" lengthAdjust="spacingAndGlyphs" textLength="20" x="301" y="636.896">set</text><text fill="#000000" font-family="monospace" font-size="12" font-weight="bold" lengthAdjust="spacingAndGlyphs" textLength="63" x="325" y="636.896">prev_prop</text><text fill="#000000" font-family="sans-serif" font-size="12" lengthAdjust="spacingAndGlyphs" textLength="13" x="392" y="636.896">to</text><text fill="#000000" font-family="monospace" font-size="12" lengthAdjust="spacingAndGlyphs" text-decoration="underline" textLength="49" x="409" y="636.896">nullptr</text><line style="stroke: #000000; stroke-width: 1.0;" x1="409" x2="458" y1="638.896" y2="638.896"/><polygon fill="#FFFFFF" filter="url(#f194fhlj329g4f)" points="520,491.0781,700,491.0781,712,503.0781,700,515.0781,520,515.0781,508,503.0781,520,491.0781" style="stroke: #000000; stroke-width: 1.5;"/><text fill="#000000" font-family="sans-serif" font-size="11" lengthAdjust="spacingAndGlyphs" textLength="20" x="614" y="525.2886">yes</text><text fill="#000000" font-family="monospace" font-size="11" font-weight="bold" lengthAdjust="spacingAndGlyphs" textLength="28" x="520" y="506.8862">prop</text><text fill="#000000" font-family="sans-serif" font-size="11" lengthAdjust="spacingAndGlyphs" textLength="10" x="552" y="506.8862">is</text><text fill="#000000" font-family="monospace" font-size="11" lengthAdjust="spacingAndGlyphs" text-decoration="underline" textLength="49" x="566" y="506.8862">"Extend</text><line style="stroke: #000000; stroke-width: 1.0;" x1="566" x2="615" y1="508.8862" y2="508.8862"/><text fill="#000000" font-family="sans-serif" font-size="11" lengthAdjust="spacingAndGlyphs" text-decoration="underline" textLength="5" x="615" y="506.8862">"</text><line style="stroke: #000000; stroke-width: 1.0;" x1="615" x2="620" y1="508.8862" y2="508.8862"/><text fill="#000000" font-family="sans-serif" font-size="11" lengthAdjust="spacingAndGlyphs" textLength="12" x="624" y="506.8862">or</text><text fill="#000000" font-family="monospace" font-size="11" lengthAdjust="spacingAndGlyphs" text-decoration="underline" textLength="49" x="640" y="506.8862">"Format</text><line style="stroke: #000000; stroke-width: 1.0;" x1="640" x2="689" y1="508.8862" y2="508.8862"/><text fill="#000000" font-family="sans-serif" font-size="11" lengthAdjust="spacingAndGlyphs" text-decoration="underline" textLength="5" x="689" y="506.8862">"</text><line style="stroke: #000000; stroke-width: 1.0;" x1="689" x2="694" y1="508.8862" y2="508.8862"/><text fill="#000000" font-family="sans-serif" font-size="11" lengthAdjust="spacingAndGlyphs" textLength="6" x="694" y="506.8862">?</text><text fill="#000000" font-family="sans-serif" font-size="11" lengthAdjust="spacingAndGlyphs" textLength="14" x="712" y="500.4839">no</text><rect fill="#FFFFFF" filter="url(#f194fhlj329g4f)" height="33.9688" rx="12.5" ry="12.5" style="stroke: #000000; stroke-width: 1.5;" width="118" x="551" y="595.1909"/><text fill="#000000" font-family="monospace" font-size="12" font-style="italic" lengthAdjust="spacingAndGlyphs" textLength="98" x="561" y="616.3296">yield(i, prop)</text><rect fill="#FFFFFF" filter="url(#f194fhlj329g4f)" height="33.9688" rx="12.5" ry="12.5" style="stroke: #000000; stroke-width: 1.5;" width="156" x="532" y="664.1597"/><text fill="#000000" font-family="sans-serif" font-size="12" lengthAdjust="spacingAndGlyphs" textLength="20" x="542" y="685.2983">set</text><text fill="#000000" font-family="monospace" font-size="12" font-weight="bold" lengthAdjust="spacingAndGlyphs" textLength="63" x="566" y="685.2983">prev_prop</text><text fill="#000000" font-family="sans-serif" font-size="12" lengthAdjust="spacingAndGlyphs" textLength="13" x="633" y="685.2983">to</text><text fill="#000000" font-family="monospace" font-size="12" font-weight="bold" lengthAdjust="spacingAndGlyphs" textLength="28" x="650" y="685.2983">prop</text><polygon fill="#FFFFFF" filter="url(#f194fhlj329g4f)" points="542,546.7886,678,546.7886,690,558.7886,678,570.7886,542,570.7886,530,558.7886,542,546.7886" style="stroke: #000000; stroke-width: 1.5;"/><text fill="#000000" font-family="sans-serif" font-size="11" lengthAdjust="spacingAndGlyphs" textLength="20" x="614" y="580.999">yes</text><text fill="#000000" font-family="monospace" font-size="11" font-weight="bold" lengthAdjust="spacingAndGlyphs" textLength="63" x="542" y="562.5967">prev_prop</text><text fill="#000000" font-family="sans-serif" font-size="11" lengthAdjust="spacingAndGlyphs" textLength="10" x="609" y="562.5967">is</text><text fill="#000000" font-family="monospace" font-size="11" lengthAdjust="spacingAndGlyphs" text-decoration="underline" textLength="49" x="623" y="562.5967">nullptr</text><line style="stroke: #000000; stroke-width: 1.0;" x1="623" x2="672" y1="564.5967" y2="564.5967"/><text fill="#000000" font-family="sans-serif" font-size="11" lengthAdjust="spacingAndGlyphs" textLength="6" x="672" y="562.5967">?</text><text fill="#000000" font-family="sans-serif" font-size="11" lengthAdjust="spacingAndGlyphs" textLength="14" x="690" y="556.1943">no</text><polygon fill="#FFFFFF" filter="url(#f194fhlj329g4f)" points="610,718.1284,622,730.1284,610,742.1284,598,730.1284,610,718.1284" style="stroke: #000000; stroke-width: 1.5;"/><rect fill="#FFFFFF" filter="url(#f194fhlj329g4f)" height="33.9688" rx="12.5" ry="12.5" style="stroke: #000000; stroke-width: 1.5;" width="118" x="751" y="591.7886"/><text fill="#000000" font-family="monospace" font-size="12" font-style="italic" lengthAdjust="spacingAndGlyphs" textLength="98" x="761" y="612.9272">yield(i, prop)</text><rect fill="#FFFFFF" filter="url(#f194fhlj329g4f)" height="33.9688" rx="12.5" ry="12.5" style="stroke: #000000; stroke-width: 1.5;" width="156" x="732" y="660.7573"/><text fill="#000000" font-family="sans-serif" font-size="12" lengthAdjust="spacingAndGlyphs" textLength="20" x="742" y="681.896">set</text><text fill="#000000" font-family="monospace" font-size="12" font-weight="bold" lengthAdjust="spacingAndGlyphs" textLength="63" x="766" y="681.896">prev_prop</text><text fill="#000000" font-family="sans-serif" font-size="12" lengthAdjust="spacingAndGlyphs" textLength="13" x="833" y="681.896">to</text><text fill="#000000" font-family="monospace" font-size="12" font-weight="bold" lengthAdjust="spacingAndGlyphs" textLength="28" x="850" y="681.896">prop</text><rect fill="#FFFFFF" filter="url(#f194fhlj329g4f)" height="33.9688" rx="12.5" ry="12.5" style="stroke: #000000; stroke-width: 1.5;" width="194" x="482.5" y="782.1284"/><text fill="#000000" font-family="sans-serif" font-size="12" lengthAdjust="spacingAndGlyphs" textLength="63" x="492.5" y="803.2671">increment</text><text fill="#000000" font-family="monospace" font-size="12" font-weight="bold" lengthAdjust="spacingAndGlyphs" textLength="7" x="559.5" y="803.2671">i</text><text fill="#000000" font-family="sans-serif" font-size="12" lengthAdjust="spacingAndGlyphs" textLength="85" x="570.5" y="803.2671">with length of</text><text fill="#000000" font-family="monospace" font-size="12" font-weight="bold" lengthAdjust="spacingAndGlyphs" textLength="7" x="659.5" y="803.2671">c</text><polygon fill="#FFFFFF" filter="url(#f194fhlj329g4f)" points="487,376.3047,672,376.3047,684,388.3047,672,400.3047,487,400.3047,475,388.3047,487,376.3047" style="stroke: #000000; stroke-width: 1.5;"/><text fill="#000000" font-family="sans-serif" font-size="11" lengthAdjust="spacingAndGlyphs" textLength="20" x="583.5" y="410.5151">yes</text><text fill="#000000" font-family="sans-serif" font-size="11" lengthAdjust="spacingAndGlyphs" textLength="37" x="487" y="392.1128">iterate</text><text fill="#000000" font-family="monospace" font-size="11" font-weight="bold" lengthAdjust="spacingAndGlyphs" textLength="7" x="528" y="392.1128">c</text><text fill="#000000" font-family="sans-serif" font-size="11" lengthAdjust="spacingAndGlyphs" textLength="25" x="539" y="392.1128">over</text><text fill="#000000" filter="url(#b194fhlj329g4f0)" font-family="monospace" font-size="11" font-style="italic" lengthAdjust="spacingAndGlyphs" textLength="98" x="568" y="392.1128">code_points(s)</text><text fill="#000000" font-family="sans-serif" font-size="11" lengthAdjust="spacingAndGlyphs" textLength="6" x="666" y="392.1128">?</text><text fill="#000000" font-family="sans-serif" font-size="11" lengthAdjust="spacingAndGlyphs" textLength="14" x="461" y="385.7104">no</text><ellipse cx="261" cy="434.3047" fill="none" filter="url(#f194fhlj329g4f)" rx="10" ry="10" style="stroke: #000000; stroke-width: 1.0;"/><ellipse cx="261.5" cy="434.8047" fill="#000000" filter="url(#f194fhlj329g4f)" rx="6" ry="6" style="stroke: none; stroke-width: 1.0;"/><line style="stroke: #000000; stroke-width: 1.5;" x1="579.5" x2="579.5" y1="71.9063" y2="149.7183"/><polygon fill="#000000" points="575.5,139.7183,579.5,149.7183,583.5,139.7183,579.5,143.7183" style="stroke: #000000; stroke-width: 1.0;"/><line style="stroke: #000000; stroke-width: 1.5;" x1="579.5" x2="579.5" y1="183.687" y2="268.3672"/><polygon fill="#000000" points="575.5,258.3672,579.5,268.3672,583.5,258.3672,579.5,262.3672" style="stroke: #000000; stroke-width: 1.0;"/><line style="stroke: #000000; stroke-width: 1.5;" x1="579.5" x2="579.5" y1="302.3359" y2="322.3359"/><polygon fill="#000000" points="575.5,312.3359,579.5,322.3359,583.5,312.3359,579.5,316.3359" style="stroke: #000000; stroke-width: 1.0;"/><line style="stroke: #000000; stroke-width: 1.5;" x1="379.5" x2="379.5" y1="580.7573" y2="615.7573"/><polygon fill="#000000" points="375.5,605.7573,379.5,615.7573,383.5,605.7573,379.5,609.7573" style="stroke: #000000; stroke-width: 1.0;"/><line style="stroke: #000000; stroke-width: 1.5;" x1="610" x2="610" y1="629.1597" y2="664.1597"/><polygon fill="#000000" points="606,654.1597,610,664.1597,614,654.1597,610,658.1597" style="stroke: #000000; stroke-width: 1.0;"/><line style="stroke: #000000; stroke-width: 1.5;" x1="610" x2="610" y1="570.7886" y2="595.1909"/><polygon fill="#000000" points="606,585.1909,610,595.1909,614,585.1909,610,589.1909" style="stroke: #000000; stroke-width: 1.0;"/><line style="stroke: #000000; stroke-width: 1.5;" x1="690" x2="702" y1="558.7886" y2="558.7886"/><polygon fill="#000000" points="698,636.6597,702,646.6597,706,636.6597,702,640.6597" style="stroke: #000000; stroke-width: 1.5;"/><line style="stroke: #000000; stroke-width: 1.5;" x1="702" x2="702" y1="558.7886" y2="730.1284"/><line style="stroke: #000000; stroke-width: 1.5;" x1="702" x2="622" y1="730.1284" y2="730.1284"/><polygon fill="#000000" points="632,726.1284,622,730.1284,632,734.1284,628,730.1284" style="stroke: #000000; stroke-width: 1.0;"/><line style="stroke: #000000; stroke-width: 1.5;" x1="610" x2="610" y1="698.1284" y2="718.1284"/><polygon fill="#000000" points="606,708.1284,610,718.1284,614,708.1284,610,712.1284" style="stroke: #000000; stroke-width: 1.0;"/><line style="stroke: #000000; stroke-width: 1.5;" x1="810" x2="810" y1="625.7573" y2="660.7573"/><polygon fill="#000000" points="806,650.7573,810,660.7573,814,650.7573,810,654.7573" style="stroke: #000000; stroke-width: 1.0;"/><line style="stroke: #000000; stroke-width: 1.5;" x1="379.5" x2="379.5" y1="515.0781" y2="546.7886"/><polygon fill="#000000" points="375.5,536.7886,379.5,546.7886,383.5,536.7886,379.5,540.7886" style="stroke: #000000; stroke-width: 1.0;"/><line style="stroke: #000000; stroke-width: 1.5;" x1="379.5" x2="379.5" y1="649.7261" y2="762.1284"/><polygon fill="#000000" points="375.5,752.1284,379.5,762.1284,383.5,752.1284,379.5,756.1284" style="stroke: #000000; stroke-width: 1.0;"/><line style="stroke: #000000; stroke-width: 1.5;" x1="610" x2="610" y1="515.0781" y2="546.7886"/><polygon fill="#000000" points="606,536.7886,610,546.7886,614,536.7886,610,540.7886" style="stroke: #000000; stroke-width: 1.0;"/><line style="stroke: #000000; stroke-width: 1.5;" x1="610" x2="610" y1="742.1284" y2="762.1284"/><polygon fill="#000000" points="606,752.1284,610,762.1284,614,752.1284,610,756.1284" style="stroke: #000000; stroke-width: 1.0;"/><line style="stroke: #000000; stroke-width: 1.5;" x1="488" x2="508" y1="503.0781" y2="503.0781"/><polygon fill="#000000" points="498,499.0781,508,503.0781,498,507.0781,502,503.0781" style="stroke: #000000; stroke-width: 1.0;"/><line style="stroke: #000000; stroke-width: 1.5;" x1="579.5" x2="579.5" y1="471.0781" y2="476.0781"/><line style="stroke: #000000; stroke-width: 1.5;" x1="579.5" x2="379.5" y1="476.0781" y2="476.0781"/><line style="stroke: #000000; stroke-width: 1.5;" x1="379.5" x2="379.5" y1="476.0781" y2="491.0781"/><polygon fill="#000000" points="375.5,481.0781,379.5,491.0781,383.5,481.0781,379.5,485.0781" style="stroke: #000000; stroke-width: 1.0;"/><line style="stroke: #000000; stroke-width: 1.5;" x1="712" x2="810" y1="503.0781" y2="503.0781"/><line style="stroke: #000000; stroke-width: 1.5;" x1="810" x2="810" y1="503.0781" y2="591.7886"/><polygon fill="#000000" points="806,581.7886,810,591.7886,814,581.7886,810,585.7886" style="stroke: #000000; stroke-width: 1.0;"/><line style="stroke: #000000; stroke-width: 1.5;" x1="810" x2="810" y1="694.7261" y2="762.1284"/><polygon fill="#000000" points="806,752.1284,810,762.1284,814,752.1284,810,756.1284" style="stroke: #000000; stroke-width: 1.0;"/><line style="stroke: #000000; stroke-width: 1.5;" x1="379.5" x2="810" y1="762.1284" y2="762.1284"/><line style="stroke: #000000; stroke-width: 1.5;" x1="579.5" x2="579.5" y1="762.1284" y2="782.1284"/><polygon fill="#000000" points="575.5,772.1284,579.5,782.1284,583.5,772.1284,579.5,776.1284" style="stroke: #000000; stroke-width: 1.0;"/><line style="stroke: #000000; stroke-width: 1.5;" x1="579.5" x2="579.5" y1="400.3047" y2="437.1094"/><polygon fill="#000000" points="575.5,427.1094,579.5,437.1094,583.5,427.1094,579.5,431.1094" style="stroke: #000000; stroke-width: 1.0;"/><line style="stroke: #000000; stroke-width: 1.5;" x1="579.5" x2="579.5" y1="816.0972" y2="826.0972"/><line style="stroke: #000000; stroke-width: 1.5;" x1="579.5" x2="900" y1="826.0972" y2="826.0972"/><polygon fill="#000000" points="896,634.855,900,624.855,904,634.855,900,630.855" style="stroke: #000000; stroke-width: 1.5;"/><line style="stroke: #000000; stroke-width: 1.5;" x1="900" x2="900" y1="388.3047" y2="826.0972"/><line style="stroke: #000000; stroke-width: 1.5;" x1="900" x2="684" y1="388.3047" y2="388.3047"/><polygon fill="#000000" points="694,384.3047,684,388.3047,694,392.3047,690,388.3047" style="stroke: #000000; stroke-width: 1.0;"/><line style="stroke: #000000; stroke-width: 1.5;" x1="475" x2="261" y1="388.3047" y2="388.3047"/><line style="stroke: #000000; stroke-width: 1.5;" x1="261" x2="261" y1="388.3047" y2="424.3047"/><polygon fill="#000000" points="257,414.3047,261,424.3047,265,414.3047,261,418.3047" style="stroke: #000000; stroke-width: 1.0;"/><line style="stroke: #000000; stroke-width: 1.5;" x1="579.5" x2="579.5" y1="356.3047" y2="376.3047"/><polygon fill="#000000" points="575.5,366.3047,579.5,376.3047,583.5,366.3047,579.5,370.3047" style="stroke: #000000; stroke-width: 1.0;"/><!--
@startuml
skinparam BackgroundColor White|White
skinparam ArrowColor Black

skinparam NoteBackgroundColor White
skinparam NoteBorderColor Black

skinparam ActivityBackgroundColor White
skinparam ActivityDiamondBackgroundColor White
skinparam ActivityBorderColor Black
skinparam ActivityDiamondBorderColor Black

title **Nuspell - segmentation - //""preprocess_boundaries(s)""//**\n

start

:**""s""** contains input string;
floating note left
    ""result = list(preprocess_boundaries("\r\n"));""
    ""assert(result == [(0, "CR"), (1, "LF")]);""

    ""result = list(_preprocess_boundaries("A\u0308A"));""
    ""assert(result == [(0, "ALetter"), (2, "ALetter")]);""

    ""result = list(_preprocess_boundaries("\n\u2060"));""
    ""assert(result == [(0, "LF"), (1, "Format")]);""

    ""result = list(_preprocess_boundaries("\x01\u0308\x01"));""
    ""assert(result == [(0, "Other"), (2, "Other")]);""
end note

:set **""prev_prop""** to __""nullptr""__;
:set **""i""** to __""0""__;

while (iterate **""c""** over <back:skyblue>//""code_points(s)""//</back>?) is (yes)
    :set **""prop""** to //""word_break(c)""//;
    if (**""prop""** is __"""Newline"""__, __"""CR"""__ or __"""LF"""__?) then (yes)
        ://""yield(i, prop)""//;
        :set **""prev_prop""** to __""nullptr""__;
    elseif (**""prop""** is __"""Extend"""__ or __"""Format"""__?) then (yes)
        if (**""prev_prop""** is __""nullptr""__?) then (yes)
            ://""yield(i, prop)""//;
            :set **""prev_prop""** to **""prop""**;
        else (no)
        endif
    else (no)
        ://""yield(i, prop)""//;
        :set **""prev_prop""** to **""prop""**;
    endif
    :increment **""i""** with length of **""c""**;
endwhile (no)

stop

@enduml

PlantUML version 1.2018.06(Mon May 21 12:34:53 CEST 2018)
(GPL source distribution)
Java Runtime: OpenJDK Runtime Environment
JVM: OpenJDK 64-Bit Server VM
Java Version: 10.0.2+13-Ubuntu-1ubuntu0.18.04.1
Operating System: Linux
OS Version: 4.15.0-32-generic
Default Encoding: UTF-8
Language: en
Country: US
--></g></svg>