<?xml version="1.0" encoding="UTF-8" standalone="no"?><svg xmlns="http://www.w3.org/2000/svg" xmlns:xlink="http://www.w3.org/1999/xlink" contentScriptType="application/ecmascript" contentStyleType="text/css" height="1063px" preserveAspectRatio="none" style="width:742px;height:1063px;" version="1.1" viewBox="0 0 742 1063" width="742px" zoomAndPan="magnify"><defs><linearGradient id="g8s3o9ykxr7440" x1="0%" x2="100%" y1="50%" y2="50%"><stop offset="0%" stop-color="#FFFFFF"/><stop offset="100%" stop-color="#FFFFFF"/></linearGradient><filter height="300%" id="f8s3o9ykxr744" width="300%" x="-1" y="-1"><feGaussianBlur result="blurOut" stdDeviation="2.0"/><feColorMatrix in="blurOut" result="blurOut2" type="matrix" values="0 0 0 0 0 0 0 0 0 0 0 0 0 0 0 0 0 0 .4 0"/><feOffset dx="4.0" dy="4.0" in="blurOut2" result="blurOut3"/><feBlend in="SourceGraphic" in2="blurOut3" mode="normal"/></filter><filter height="1" id="b8s3o9ykxr7440" width="1" x="0" y="0"><feFlood flood-color="#87CEEB" result="flood"/><feComposite in="SourceGraphic" in2="flood" operator="over"/></filter></defs><g><rect fill="url(#g8s3o9ykxr7440)" height="1063" style="stroke: none; stroke-width: 1.0;" width="742" x="0" y="0"/><text fill="#000000" font-family="Roboto Condensed" font-size="18" font-weight="bold" lengthAdjust="spacingAndGlyphs" textLength="182" x="139.5" y="28.8613">Nuspell - segmentation -</text><text fill="#000000" font-family="monospace" font-size="18" font-style="italic" font-weight="bold" lengthAdjust="spacingAndGlyphs" textLength="275" x="325.5" y="29.4941">_preprocess_boundaries(s)</text><text fill="#000000" font-family="Roboto Condensed" font-size="18" font-weight="bold" lengthAdjust="spacingAndGlyphs" textLength="0" x="372" y="52.6006"/><path d="M10,57.4785 L10,308.5562 L367,308.5562 L367,67.4785 L357,57.4785 L10,57.4785 " fill="#FFFFFF" filter="url(#f8s3o9ykxr744)" style="stroke: #000000; stroke-width: 1.0;"/><path d="M357,57.4785 L357,67.4785 L367,67.4785 L357,57.4785 " fill="#FFFFFF" style="stroke: #000000; stroke-width: 1.0;"/><text fill="#000000" font-family="Roboto Condensed" font-size="13" lengthAdjust="spacingAndGlyphs" textLength="99" x="16" y="76.1006">Preprocesses WB4.</text><text fill="#000000" font-family="Roboto Condensed" font-size="13" lengthAdjust="spacingAndGlyphs" textLength="0" x="19" y="93.2456"/><text fill="#000000" font-family="monospace" font-size="13" font-weight="bold" lengthAdjust="spacingAndGlyphs" textLength="8" x="16" y="110.8477">s</text><text fill="#000000" font-family="Roboto Condensed" font-size="13" lengthAdjust="spacingAndGlyphs" textLength="183" x="27" y="110.3906">must be a Unicode code point string</text><text fill="#000000" font-family="Roboto Condensed" font-size="13" lengthAdjust="spacingAndGlyphs" textLength="0" x="19" y="127.5356"/><text fill="#000000" font-family="monospace" font-size="13" lengthAdjust="spacingAndGlyphs" textLength="256" x="16" y="143.1255">assert({(0, "CR"), (1, "LF")} ==</text><text fill="#000000" font-family="monospace" font-size="13" lengthAdjust="spacingAndGlyphs" textLength="256" x="16" y="158.2583">_preprocess_boundaries("\r\n"));</text><text fill="#000000" font-family="Roboto Condensed" font-size="13" lengthAdjust="spacingAndGlyphs" textLength="0" x="19" y="174.9463"/><text fill="#000000" font-family="monospace" font-size="13" lengthAdjust="spacingAndGlyphs" textLength="336" x="16" y="190.5361">assert({(0, "ALetter"), (2, "ALetter")} ==</text><text fill="#000000" font-family="monospace" font-size="13" lengthAdjust="spacingAndGlyphs" textLength="288" x="16" y="205.6689">_preprocess_boundaries("A\u0308A"));</text><text fill="#000000" font-family="Roboto Condensed" font-size="13" lengthAdjust="spacingAndGlyphs" textLength="0" x="19" y="222.3569"/><text fill="#000000" font-family="monospace" font-size="13" lengthAdjust="spacingAndGlyphs" textLength="288" x="16" y="237.9468">assert({(0, "LF"), (1, "Format")} ==</text><text fill="#000000" font-family="monospace" font-size="13" lengthAdjust="spacingAndGlyphs" textLength="288" x="16" y="253.0796">_preprocess_boundaries("\n\u2060"));</text><text fill="#000000" font-family="Roboto Condensed" font-size="13" lengthAdjust="spacingAndGlyphs" textLength="0" x="19" y="269.7676"/><text fill="#000000" font-family="monospace" font-size="13" lengthAdjust="spacingAndGlyphs" textLength="304" x="16" y="285.3574">assert({(0, "Other"), (2, "Other")} ==</text><text fill="#000000" font-family="monospace" font-size="13" lengthAdjust="spacingAndGlyphs" textLength="336" x="16" y="300.4902">_preprocess_boundaries("\x01\u0308\x01"));</text><ellipse cx="397" cy="183.0173" fill="#000000" filter="url(#f8s3o9ykxr744)" rx="10" ry="10" style="stroke: none; stroke-width: 1.0;"/><rect fill="#FFFFFF" filter="url(#f8s3o9ykxr744)" height="35.8262" rx="12.5" ry="12.5" style="stroke: #000000; stroke-width: 1.5;" width="231" x="281.5" y="321.9902"/><text fill="#000000" font-family="Roboto Condensed" font-size="12" lengthAdjust="spacingAndGlyphs" textLength="80" x="291.5" y="344.5645">initialize pointer</text><text fill="#000000" font-family="monospace" font-size="12" font-weight="bold" lengthAdjust="spacingAndGlyphs" textLength="63" x="374.5" y="344.9863">prev_prop</text><text fill="#000000" font-family="Roboto Condensed" font-size="12" lengthAdjust="spacingAndGlyphs" textLength="10" x="440.5" y="344.5645">to</text><text fill="#000000" font-family="monospace" font-size="12" lengthAdjust="spacingAndGlyphs" text-decoration="underline" textLength="49" x="453.5" y="344.9863">nullptr</text><line style="stroke: #000000; stroke-width: 1.0;" x1="453.5" x2="502.5" y1="346.9863" y2="346.9863"/><rect fill="#FFFFFF" filter="url(#f8s3o9ykxr744)" height="35.8262" rx="12.5" ry="12.5" style="stroke: #000000; stroke-width: 1.5;" width="133" x="330.5" y="377.8164"/><text fill="#000000" font-family="Roboto Condensed" font-size="12" lengthAdjust="spacingAndGlyphs" textLength="80" x="340.5" y="400.3906">initialize integer</text><text fill="#000000" font-family="monospace" font-size="12" font-weight="bold" lengthAdjust="spacingAndGlyphs" textLength="7" x="423.5" y="400.8125">i</text><text fill="#000000" font-family="Roboto Condensed" font-size="12" lengthAdjust="spacingAndGlyphs" textLength="10" x="433.5" y="400.3906">to</text><text fill="#000000" font-family="monospace" font-size="12" lengthAdjust="spacingAndGlyphs" text-decoration="underline" textLength="7" x="446.5" y="400.8125">0</text><line style="stroke: #000000; stroke-width: 1.0;" x1="446.5" x2="453.5" y1="402.8125" y2="402.8125"/><rect fill="#FFFFFF" filter="url(#f8s3o9ykxr744)" height="35.8262" rx="12.5" ry="12.5" style="stroke: #000000; stroke-width: 1.5;" width="381" x="206.5" y="433.6426"/><text fill="#000000" font-family="Roboto Condensed" font-size="12" lengthAdjust="spacingAndGlyphs" textLength="109" x="216.5" y="456.2168">initialize empty vector</text><text fill="#000000" font-family="monospace" font-size="12" font-weight="bold" lengthAdjust="spacingAndGlyphs" textLength="42" x="328.5" y="456.6387">result</text><text fill="#000000" font-family="Roboto Condensed" font-size="12" lengthAdjust="spacingAndGlyphs" textLength="204" x="373.5" y="456.2168">which can hold pairs of integer and string</text><rect fill="#FFFFFF" filter="url(#f8s3o9ykxr744)" height="35.8262" rx="12.5" ry="12.5" style="stroke: #000000; stroke-width: 1.5;" width="173" x="310.5" y="546.4951"/><text fill="#000000" font-family="Roboto Condensed" font-size="12" lengthAdjust="spacingAndGlyphs" textLength="15" x="320.5" y="569.0693">set</text><text fill="#000000" font-family="monospace" font-size="12" font-weight="bold" lengthAdjust="spacingAndGlyphs" textLength="28" x="338.5" y="569.4912">prop</text><text fill="#000000" font-family="Roboto Condensed" font-size="12" lengthAdjust="spacingAndGlyphs" textLength="10" x="369.5" y="569.0693">to</text><text fill="#000000" font-family="monospace" font-size="12" font-style="italic" lengthAdjust="spacingAndGlyphs" textLength="91" x="382.5" y="569.4912">word_break(c)</text><polygon fill="#FFFFFF" filter="url(#f8s3o9ykxr744)" points="102,602.3213,279,602.3213,291,614.3213,279,626.3213,102,626.3213,90,614.3213,102,602.3213" style="stroke: #000000; stroke-width: 1.5;"/><text fill="#000000" font-family="Roboto Condensed" font-size="11" lengthAdjust="spacingAndGlyphs" textLength="15" x="194.5" y="637.8477">yes</text><text fill="#000000" font-family="monospace" font-size="11" font-weight="bold" lengthAdjust="spacingAndGlyphs" textLength="28" x="102" y="618.9807">prop</text><text fill="#000000" font-family="Roboto Condensed" font-size="11" lengthAdjust="spacingAndGlyphs" textLength="8" x="133" y="618.594">is</text><text fill="#000000" font-family="monospace" font-size="11" lengthAdjust="spacingAndGlyphs" text-decoration="underline" textLength="56" x="144" y="618.9807">"Newline</text><line style="stroke: #000000; stroke-width: 1.0;" x1="144" x2="200" y1="620.9807" y2="620.9807"/><text fill="#000000" font-family="Roboto Condensed" font-size="11" lengthAdjust="spacingAndGlyphs" text-decoration="underline" textLength="4" x="200" y="618.594">"</text><line style="stroke: #000000; stroke-width: 1.0;" x1="200" x2="204" y1="620.594" y2="620.594"/><text fill="#000000" font-family="Roboto Condensed" font-size="11" lengthAdjust="spacingAndGlyphs" textLength="2" x="204" y="618.594">,</text><text fill="#000000" font-family="monospace" font-size="11" lengthAdjust="spacingAndGlyphs" text-decoration="underline" textLength="21" x="209" y="618.9807">"CR</text><line style="stroke: #000000; stroke-width: 1.0;" x1="209" x2="230" y1="620.9807" y2="620.9807"/><text fill="#000000" font-family="Roboto Condensed" font-size="11" lengthAdjust="spacingAndGlyphs" text-decoration="underline" textLength="4" x="230" y="618.594">"</text><line style="stroke: #000000; stroke-width: 1.0;" x1="230" x2="234" y1="620.594" y2="620.594"/><text fill="#000000" font-family="Roboto Condensed" font-size="11" lengthAdjust="spacingAndGlyphs" textLength="9" x="237" y="618.594">or</text><text fill="#000000" font-family="monospace" font-size="11" lengthAdjust="spacingAndGlyphs" text-decoration="underline" textLength="21" x="249" y="618.9807">"LF</text><line style="stroke: #000000; stroke-width: 1.0;" x1="249" x2="270" y1="620.9807" y2="620.9807"/><text fill="#000000" font-family="Roboto Condensed" font-size="11" lengthAdjust="spacingAndGlyphs" text-decoration="underline" textLength="4" x="270" y="618.594">"</text><line style="stroke: #000000; stroke-width: 1.0;" x1="270" x2="274" y1="620.594" y2="620.594"/><text fill="#000000" font-family="Roboto Condensed" font-size="11" lengthAdjust="spacingAndGlyphs" textLength="5" x="274" y="618.594">?</text><rect fill="#FFFFFF" filter="url(#f8s3o9ykxr744)" height="35.8262" rx="12.5" ry="12.5" style="stroke: #000000; stroke-width: 1.5;" width="170" x="105.5" y="659.3477"/><text fill="#000000" font-family="Roboto Condensed" font-size="12" lengthAdjust="spacingAndGlyphs" textLength="40" x="115.5" y="681.9219">add pair</text><text fill="#000000" font-family="monospace" font-size="12" font-weight="bold" lengthAdjust="spacingAndGlyphs" textLength="49" x="158.5" y="682.3438">i, prop</text><text fill="#000000" font-family="Roboto Condensed" font-size="12" lengthAdjust="spacingAndGlyphs" textLength="10" x="210.5" y="681.9219">to</text><text fill="#000000" font-family="monospace" font-size="12" font-weight="bold" lengthAdjust="spacingAndGlyphs" textLength="42" x="223.5" y="682.3438">result</text><rect fill="#FFFFFF" filter="url(#f8s3o9ykxr744)" height="35.8262" rx="12.5" ry="12.5" style="stroke: #000000; stroke-width: 1.5;" width="166" x="107.5" y="730.1738"/><text fill="#000000" font-family="Roboto Condensed" font-size="12" lengthAdjust="spacingAndGlyphs" textLength="15" x="117.5" y="752.748">set</text><text fill="#000000" font-family="monospace" font-size="12" font-weight="bold" lengthAdjust="spacingAndGlyphs" textLength="63" x="135.5" y="753.1699">prev_prop</text><text fill="#000000" font-family="Roboto Condensed" font-size="12" lengthAdjust="spacingAndGlyphs" textLength="10" x="201.5" y="752.748">to</text><text fill="#000000" font-family="monospace" font-size="12" lengthAdjust="spacingAndGlyphs" text-decoration="underline" textLength="49" x="214.5" y="753.1699">nullptr</text><line style="stroke: #000000; stroke-width: 1.0;" x1="214.5" x2="263.5" y1="755.1699" y2="755.1699"/><polygon fill="#FFFFFF" filter="url(#f8s3o9ykxr744)" points="323,602.3213,491,602.3213,503,614.3213,491,626.3213,323,626.3213,311,614.3213,323,602.3213" style="stroke: #000000; stroke-width: 1.5;"/><text fill="#000000" font-family="Roboto Condensed" font-size="11" lengthAdjust="spacingAndGlyphs" textLength="15" x="411" y="637.8477">yes</text><text fill="#000000" font-family="monospace" font-size="11" font-weight="bold" lengthAdjust="spacingAndGlyphs" textLength="28" x="323" y="618.9807">prop</text><text fill="#000000" font-family="Roboto Condensed" font-size="11" lengthAdjust="spacingAndGlyphs" textLength="8" x="354" y="618.594">is</text><text fill="#000000" font-family="monospace" font-size="11" lengthAdjust="spacingAndGlyphs" text-decoration="underline" textLength="49" x="365" y="618.9807">"Extend</text><line style="stroke: #000000; stroke-width: 1.0;" x1="365" x2="414" y1="620.9807" y2="620.9807"/><text fill="#000000" font-family="Roboto Condensed" font-size="11" lengthAdjust="spacingAndGlyphs" text-decoration="underline" textLength="4" x="414" y="618.594">"</text><line style="stroke: #000000; stroke-width: 1.0;" x1="414" x2="418" y1="620.594" y2="620.594"/><text fill="#000000" font-family="Roboto Condensed" font-size="11" lengthAdjust="spacingAndGlyphs" textLength="9" x="421" y="618.594">or</text><text fill="#000000" font-family="monospace" font-size="11" lengthAdjust="spacingAndGlyphs" text-decoration="underline" textLength="49" x="433" y="618.9807">"Format</text><line style="stroke: #000000; stroke-width: 1.0;" x1="433" x2="482" y1="620.9807" y2="620.9807"/><text fill="#000000" font-family="Roboto Condensed" font-size="11" lengthAdjust="spacingAndGlyphs" text-decoration="underline" textLength="4" x="482" y="618.594">"</text><line style="stroke: #000000; stroke-width: 1.0;" x1="482" x2="486" y1="620.594" y2="620.594"/><text fill="#000000" font-family="Roboto Condensed" font-size="11" lengthAdjust="spacingAndGlyphs" textLength="5" x="486" y="618.594">?</text><text fill="#000000" font-family="Roboto Condensed" font-size="11" lengthAdjust="spacingAndGlyphs" textLength="11" x="503" y="611.3403">no</text><rect fill="#FFFFFF" filter="url(#f8s3o9ykxr744)" height="35.8262" rx="12.5" ry="12.5" style="stroke: #000000; stroke-width: 1.5;" width="170" x="322" y="708.6013"/><text fill="#000000" font-family="Roboto Condensed" font-size="12" lengthAdjust="spacingAndGlyphs" textLength="40" x="332" y="731.1755">add pair</text><text fill="#000000" font-family="monospace" font-size="12" font-weight="bold" lengthAdjust="spacingAndGlyphs" textLength="49" x="375" y="731.5974">i, prop</text><text fill="#000000" font-family="Roboto Condensed" font-size="12" lengthAdjust="spacingAndGlyphs" textLength="10" x="427" y="731.1755">to</text><text fill="#000000" font-family="monospace" font-size="12" font-weight="bold" lengthAdjust="spacingAndGlyphs" textLength="42" x="440" y="731.5974">result</text><rect fill="#FFFFFF" filter="url(#f8s3o9ykxr744)" height="35.8262" rx="12.5" ry="12.5" style="stroke: #000000; stroke-width: 1.5;" width="145" x="334.5" y="779.4275"/><text fill="#000000" font-family="Roboto Condensed" font-size="12" lengthAdjust="spacingAndGlyphs" textLength="15" x="344.5" y="802.0017">set</text><text fill="#000000" font-family="monospace" font-size="12" font-weight="bold" lengthAdjust="spacingAndGlyphs" textLength="63" x="362.5" y="802.4236">prev_prop</text><text fill="#000000" font-family="Roboto Condensed" font-size="12" lengthAdjust="spacingAndGlyphs" textLength="10" x="428.5" y="802.0017">to</text><text fill="#000000" font-family="monospace" font-size="12" font-weight="bold" lengthAdjust="spacingAndGlyphs" textLength="28" x="441.5" y="802.4236">prop</text><polygon fill="#FFFFFF" filter="url(#f8s3o9ykxr744)" points="341.5,659.3477,472.5,659.3477,484.5,671.3477,472.5,683.3477,341.5,683.3477,329.5,671.3477,341.5,659.3477" style="stroke: #000000; stroke-width: 1.5;"/><text fill="#000000" font-family="Roboto Condensed" font-size="11" lengthAdjust="spacingAndGlyphs" textLength="15" x="411" y="694.874">yes</text><text fill="#000000" font-family="monospace" font-size="11" font-weight="bold" lengthAdjust="spacingAndGlyphs" textLength="63" x="341.5" y="676.0071">prev_prop</text><text fill="#000000" font-family="Roboto Condensed" font-size="11" lengthAdjust="spacingAndGlyphs" textLength="8" x="407.5" y="675.6204">is</text><text fill="#000000" font-family="monospace" font-size="11" lengthAdjust="spacingAndGlyphs" text-decoration="underline" textLength="49" x="418.5" y="676.0071">nullptr</text><line style="stroke: #000000; stroke-width: 1.0;" x1="418.5" x2="467.5" y1="678.0071" y2="678.0071"/><text fill="#000000" font-family="Roboto Condensed" font-size="11" lengthAdjust="spacingAndGlyphs" textLength="5" x="467.5" y="675.6204">?</text><text fill="#000000" font-family="Roboto Condensed" font-size="11" lengthAdjust="spacingAndGlyphs" textLength="11" x="484.5" y="668.3667">no</text><polygon fill="#FFFFFF" filter="url(#f8s3o9ykxr744)" points="407,835.2537,419,847.2537,407,859.2537,395,847.2537,407,835.2537" style="stroke: #000000; stroke-width: 1.5;"/><rect fill="#FFFFFF" filter="url(#f8s3o9ykxr744)" height="35.8262" rx="12.5" ry="12.5" style="stroke: #000000; stroke-width: 1.5;" width="170" x="534" y="704.3477"/><text fill="#000000" font-family="Roboto Condensed" font-size="12" lengthAdjust="spacingAndGlyphs" textLength="40" x="544" y="726.9219">add pair</text><text fill="#000000" font-family="monospace" font-size="12" font-weight="bold" lengthAdjust="spacingAndGlyphs" textLength="49" x="587" y="727.3438">i, prop</text><text fill="#000000" font-family="Roboto Condensed" font-size="12" lengthAdjust="spacingAndGlyphs" textLength="10" x="639" y="726.9219">to</text><text fill="#000000" font-family="monospace" font-size="12" font-weight="bold" lengthAdjust="spacingAndGlyphs" textLength="42" x="652" y="727.3438">result</text><rect fill="#FFFFFF" filter="url(#f8s3o9ykxr744)" height="35.8262" rx="12.5" ry="12.5" style="stroke: #000000; stroke-width: 1.5;" width="145" x="546.5" y="775.1738"/><text fill="#000000" font-family="Roboto Condensed" font-size="12" lengthAdjust="spacingAndGlyphs" textLength="15" x="556.5" y="797.748">set</text><text fill="#000000" font-family="monospace" font-size="12" font-weight="bold" lengthAdjust="spacingAndGlyphs" textLength="63" x="574.5" y="798.1699">prev_prop</text><text fill="#000000" font-family="Roboto Condensed" font-size="12" lengthAdjust="spacingAndGlyphs" textLength="10" x="640.5" y="797.748">to</text><text fill="#000000" font-family="monospace" font-size="12" font-weight="bold" lengthAdjust="spacingAndGlyphs" textLength="28" x="653.5" y="798.1699">prop</text><rect fill="#FFFFFF" filter="url(#f8s3o9ykxr744)" height="35.8262" rx="12.5" ry="12.5" style="stroke: #000000; stroke-width: 1.5;" width="161" x="316.5" y="899.2537"/><text fill="#000000" font-family="Roboto Condensed" font-size="12" lengthAdjust="spacingAndGlyphs" textLength="50" x="326.5" y="921.8279">increment</text><text fill="#000000" font-family="monospace" font-size="12" font-weight="bold" lengthAdjust="spacingAndGlyphs" textLength="7" x="379.5" y="922.2498">i</text><text fill="#000000" font-family="Roboto Condensed" font-size="12" lengthAdjust="spacingAndGlyphs" textLength="68" x="389.5" y="921.8279">with length of</text><text fill="#000000" font-family="monospace" font-size="12" font-weight="bold" lengthAdjust="spacingAndGlyphs" textLength="7" x="460.5" y="922.2498">c</text><polygon fill="#FFFFFF" filter="url(#f8s3o9ykxr744)" points="327.5,489.4688,466.5,489.4688,478.5,501.4688,466.5,513.4688,327.5,513.4688,315.5,501.4688,327.5,489.4688" style="stroke: #000000; stroke-width: 1.5;"/><text fill="#000000" font-family="Roboto Condensed" font-size="11" lengthAdjust="spacingAndGlyphs" textLength="15" x="401" y="524.9951">yes</text><text fill="#000000" font-family="Roboto Condensed" font-size="11" lengthAdjust="spacingAndGlyphs" textLength="12" x="327.5" y="505.7415">for</text><text fill="#000000" font-family="monospace" font-size="11" font-weight="bold" lengthAdjust="spacingAndGlyphs" textLength="7" x="342.5" y="506.1282">c</text><text fill="#000000" font-family="Roboto Condensed" font-size="11" lengthAdjust="spacingAndGlyphs" textLength="8" x="352.5" y="505.7415">in</text><text fill="#000000" filter="url(#b8s3o9ykxr7440)" font-family="monospace" font-size="11" font-style="italic" lengthAdjust="spacingAndGlyphs" textLength="98" x="363.5" y="506.1282">code_points(s)</text><text fill="#000000" font-family="Roboto Condensed" font-size="11" lengthAdjust="spacingAndGlyphs" textLength="5" x="461.5" y="505.7415">?</text><text fill="#000000" font-family="Roboto Condensed" font-size="11" lengthAdjust="spacingAndGlyphs" textLength="11" x="304.5" y="498.4878">no</text><rect fill="#FFFFFF" filter="url(#f8s3o9ykxr744)" height="35.8262" rx="12.5" ry="12.5" style="stroke: #000000; stroke-width: 1.5;" width="95" x="349.5" y="977.0798"/><text fill="#000000" font-family="Roboto Condensed" font-size="12" lengthAdjust="spacingAndGlyphs" textLength="30" x="359.5" y="999.6541">return</text><text fill="#000000" font-family="monospace" font-size="12" font-weight="bold" lengthAdjust="spacingAndGlyphs" textLength="42" x="392.5" y="1000.0759">result</text><ellipse cx="397" cy="1042.906" fill="none" filter="url(#f8s3o9ykxr744)" rx="10" ry="10" style="stroke: #000000; stroke-width: 1.0;"/><ellipse cx="397.5" cy="1043.406" fill="#000000" filter="url(#f8s3o9ykxr744)" rx="6" ry="6" style="stroke: none; stroke-width: 1.0;"/><line style="stroke: #000000; stroke-width: 1.5;" x1="397" x2="397" y1="193.0173" y2="321.9902"/><polygon fill="#000000" points="393,311.9902,397,321.9902,401,311.9902,397,315.9902" style="stroke: #000000; stroke-width: 1.0;"/><line style="stroke: #000000; stroke-width: 1.5;" x1="397" x2="397" y1="357.8164" y2="377.8164"/><polygon fill="#000000" points="393,367.8164,397,377.8164,401,367.8164,397,371.8164" style="stroke: #000000; stroke-width: 1.0;"/><line style="stroke: #000000; stroke-width: 1.5;" x1="397" x2="397" y1="413.6426" y2="433.6426"/><polygon fill="#000000" points="393,423.6426,397,433.6426,401,423.6426,397,427.6426" style="stroke: #000000; stroke-width: 1.0;"/><line style="stroke: #000000; stroke-width: 1.5;" x1="190.5" x2="190.5" y1="695.1738" y2="730.1738"/><polygon fill="#000000" points="186.5,720.1738,190.5,730.1738,194.5,720.1738,190.5,724.1738" style="stroke: #000000; stroke-width: 1.0;"/><line style="stroke: #000000; stroke-width: 1.5;" x1="407" x2="407" y1="744.4275" y2="779.4275"/><polygon fill="#000000" points="403,769.4275,407,779.4275,411,769.4275,407,773.4275" style="stroke: #000000; stroke-width: 1.0;"/><line style="stroke: #000000; stroke-width: 1.5;" x1="407" x2="407" y1="683.3477" y2="708.6013"/><polygon fill="#000000" points="403,698.6013,407,708.6013,411,698.6013,407,702.6013" style="stroke: #000000; stroke-width: 1.0;"/><line style="stroke: #000000; stroke-width: 1.5;" x1="484.5" x2="502" y1="671.3477" y2="671.3477"/><polygon fill="#000000" points="498,751.9275,502,761.9275,506,751.9275,502,755.9275" style="stroke: #000000; stroke-width: 1.5;"/><line style="stroke: #000000; stroke-width: 1.5;" x1="502" x2="502" y1="671.3477" y2="847.2537"/><line style="stroke: #000000; stroke-width: 1.5;" x1="502" x2="419" y1="847.2537" y2="847.2537"/><polygon fill="#000000" points="429,843.2537,419,847.2537,429,851.2537,425,847.2537" style="stroke: #000000; stroke-width: 1.0;"/><line style="stroke: #000000; stroke-width: 1.5;" x1="407" x2="407" y1="815.2537" y2="835.2537"/><polygon fill="#000000" points="403,825.2537,407,835.2537,411,825.2537,407,829.2537" style="stroke: #000000; stroke-width: 1.0;"/><line style="stroke: #000000; stroke-width: 1.5;" x1="619" x2="619" y1="740.1738" y2="775.1738"/><polygon fill="#000000" points="615,765.1738,619,775.1738,623,765.1738,619,769.1738" style="stroke: #000000; stroke-width: 1.0;"/><line style="stroke: #000000; stroke-width: 1.5;" x1="190.5" x2="190.5" y1="626.3213" y2="659.3477"/><polygon fill="#000000" points="186.5,649.3477,190.5,659.3477,194.5,649.3477,190.5,653.3477" style="stroke: #000000; stroke-width: 1.0;"/><line style="stroke: #000000; stroke-width: 1.5;" x1="190.5" x2="190.5" y1="766" y2="879.2537"/><polygon fill="#000000" points="186.5,869.2537,190.5,879.2537,194.5,869.2537,190.5,873.2537" style="stroke: #000000; stroke-width: 1.0;"/><line style="stroke: #000000; stroke-width: 1.5;" x1="407" x2="407" y1="626.3213" y2="659.3477"/><polygon fill="#000000" points="403,649.3477,407,659.3477,411,649.3477,407,653.3477" style="stroke: #000000; stroke-width: 1.0;"/><line style="stroke: #000000; stroke-width: 1.5;" x1="407" x2="407" y1="859.2537" y2="879.2537"/><polygon fill="#000000" points="403,869.2537,407,879.2537,411,869.2537,407,873.2537" style="stroke: #000000; stroke-width: 1.0;"/><line style="stroke: #000000; stroke-width: 1.5;" x1="291" x2="311" y1="614.3213" y2="614.3213"/><polygon fill="#000000" points="301,610.3213,311,614.3213,301,618.3213,305,614.3213" style="stroke: #000000; stroke-width: 1.0;"/><line style="stroke: #000000; stroke-width: 1.5;" x1="397" x2="397" y1="582.3213" y2="587.3213"/><line style="stroke: #000000; stroke-width: 1.5;" x1="397" x2="190.5" y1="587.3213" y2="587.3213"/><line style="stroke: #000000; stroke-width: 1.5;" x1="190.5" x2="190.5" y1="587.3213" y2="602.3213"/><polygon fill="#000000" points="186.5,592.3213,190.5,602.3213,194.5,592.3213,190.5,596.3213" style="stroke: #000000; stroke-width: 1.0;"/><line style="stroke: #000000; stroke-width: 1.5;" x1="503" x2="619" y1="614.3213" y2="614.3213"/><line style="stroke: #000000; stroke-width: 1.5;" x1="619" x2="619" y1="614.3213" y2="704.3477"/><polygon fill="#000000" points="615,694.3477,619,704.3477,623,694.3477,619,698.3477" style="stroke: #000000; stroke-width: 1.0;"/><line style="stroke: #000000; stroke-width: 1.5;" x1="619" x2="619" y1="811" y2="879.2537"/><polygon fill="#000000" points="615,869.2537,619,879.2537,623,869.2537,619,873.2537" style="stroke: #000000; stroke-width: 1.0;"/><line style="stroke: #000000; stroke-width: 1.5;" x1="190.5" x2="619" y1="879.2537" y2="879.2537"/><line style="stroke: #000000; stroke-width: 1.5;" x1="397" x2="397" y1="879.2537" y2="899.2537"/><polygon fill="#000000" points="393,889.2537,397,899.2537,401,889.2537,397,893.2537" style="stroke: #000000; stroke-width: 1.0;"/><line style="stroke: #000000; stroke-width: 1.5;" x1="397" x2="397" y1="513.4688" y2="546.4951"/><polygon fill="#000000" points="393,536.4951,397,546.4951,401,536.4951,397,540.4951" style="stroke: #000000; stroke-width: 1.0;"/><line style="stroke: #000000; stroke-width: 1.5;" x1="397" x2="397" y1="935.0798" y2="945.0798"/><line style="stroke: #000000; stroke-width: 1.5;" x1="397" x2="716" y1="945.0798" y2="945.0798"/><polygon fill="#000000" points="712,748.4202,716,738.4202,720,748.4202,716,744.4202" style="stroke: #000000; stroke-width: 1.5;"/><line style="stroke: #000000; stroke-width: 1.5;" x1="716" x2="716" y1="501.4688" y2="945.0798"/><line style="stroke: #000000; stroke-width: 1.5;" x1="716" x2="478.5" y1="501.4688" y2="501.4688"/><polygon fill="#000000" points="488.5,497.4688,478.5,501.4688,488.5,505.4688,484.5,501.4688" style="stroke: #000000; stroke-width: 1.0;"/><line style="stroke: #000000; stroke-width: 1.5;" x1="315.5" x2="78" y1="501.4688" y2="501.4688"/><polygon fill="#000000" points="74,734.4202,78,744.4202,82,734.4202,78,738.4202" style="stroke: #000000; stroke-width: 1.5;"/><line style="stroke: #000000; stroke-width: 1.5;" x1="78" x2="78" y1="501.4688" y2="957.0798"/><line style="stroke: #000000; stroke-width: 1.5;" x1="78" x2="397" y1="957.0798" y2="957.0798"/><line style="stroke: #000000; stroke-width: 1.5;" x1="397" x2="397" y1="957.0798" y2="977.0798"/><polygon fill="#000000" points="393,967.0798,397,977.0798,401,967.0798,397,971.0798" style="stroke: #000000; stroke-width: 1.0;"/><line style="stroke: #000000; stroke-width: 1.5;" x1="397" x2="397" y1="469.4688" y2="489.4688"/><polygon fill="#000000" points="393,479.4688,397,489.4688,401,479.4688,397,483.4688" style="stroke: #000000; stroke-width: 1.0;"/><line style="stroke: #000000; stroke-width: 1.5;" x1="397" x2="397" y1="1012.906" y2="1032.906"/><polygon fill="#000000" points="393,1022.906,397,1032.906,401,1022.906,397,1026.906" style="stroke: #000000; stroke-width: 1.0;"/><!--
@startuml
skinparam BackgroundColor White|White
skinparam ArrowColor Black
skinparam DefaultFontName Roboto Condensed
skinparam TitleFontStyle Bold

skinparam NoteBackgroundColor White
skinparam NoteBorderColor Black

skinparam UsecaseBackgroundColor White
skinparam ActorBackgroundColor White
skinparam UsecaseBorderColor Black
skinparam ActorBorderColor Black

skinparam StateBackgroundColor White
skinparam StateBorderColor Black

skinparam ActivityBackgroundColor White
skinparam ActivityDiamondBackgroundColor White
skinparam ActivityBorderColor Black
skinparam ActivityDiamondBorderColor Black

title Nuspell - segmentation - //""_preprocess_boundaries(s)""//\n

start

floating note left
    Preprocesses WB4.

    **""s""** must be a Unicode code point string

    ""assert({(0, "CR"), (1, "LF")} ==""
    ""_preprocess_boundaries("\r\n"));""

    ""assert({(0, "ALetter"), (2, "ALetter")} ==""
    ""_preprocess_boundaries("A\u0308A"));""

    ""assert({(0, "LF"), (1, "Format")} == ""
    ""_preprocess_boundaries("\n\u2060"));""

    ""assert({(0, "Other"), (2, "Other")} ==""
    ""_preprocess_boundaries("\x01\u0308\x01"));""
end note

:initialize pointer **""prev_prop""** to __""nullptr""__;
:initialize integer **""i""** to __""0""__;
:initialize empty vector **""result""** which can hold pairs of integer and string;

while (for **""c""** in <back:skyblue>//""code_points(s)""//</back>?) is (yes)
    :set **""prop""** to //""word_break(c)""//;
    if (**""prop""** is __"""Newline"""__, __"""CR"""__ or __"""LF"""__?) then (yes)
        :add pair **""i, prop""** to **""result""**;
        :set **""prev_prop""** to __""nullptr""__;
    elseif (**""prop""** is __"""Extend"""__ or __"""Format"""__?) then (yes)
        if (**""prev_prop""** is __""nullptr""__?) then (yes)
            :add pair **""i, prop""** to **""result""**;
            :set **""prev_prop""** to **""prop""**;
        else (no)
        endif
    else (no)
        :add pair **""i, prop""** to **""result""**;
        :set **""prev_prop""** to **""prop""**;
    endif
    :increment **""i""** with length of **""c""**;
endwhile (no)
:return **""result""**;

stop

@enduml

PlantUML version 1.2018.06(Mon May 21 12:34:53 CEST 2018)
(GPL source distribution)
Java Runtime: OpenJDK Runtime Environment
JVM: OpenJDK 64-Bit Server VM
Java Version: 10.0.2+13-Ubuntu-1ubuntu0.18.04.1
Operating System: Linux
OS Version: 4.15.0-33-generic
Default Encoding: UTF-8
Language: en
Country: US
--></g></svg>