<?xml version="1.0" encoding="UTF-8" standalone="no"?><svg xmlns="http://www.w3.org/2000/svg" xmlns:xlink="http://www.w3.org/1999/xlink" contentScriptType="application/ecmascript" contentStyleType="text/css" height="2531px" preserveAspectRatio="none" style="width:572px;height:2531px;" version="1.1" viewBox="0 0 572 2531" width="572px" zoomAndPan="magnify"><defs><linearGradient id="gbg9emej322hu0" x1="0%" x2="100%" y1="50%" y2="50%"><stop offset="0%" stop-color="#FFFFFF"/><stop offset="100%" stop-color="#FFFFFF"/></linearGradient><filter height="300%" id="fbg9emej322hu" width="300%" x="-1" y="-1"><feGaussianBlur result="blurOut" stdDeviation="2.0"/><feColorMatrix in="blurOut" result="blurOut2" type="matrix" values="0 0 0 0 0 0 0 0 0 0 0 0 0 0 0 0 0 0 .4 0"/><feOffset dx="4.0" dy="4.0" in="blurOut2" result="blurOut3"/><feBlend in="SourceGraphic" in2="blurOut3" mode="normal"/></filter></defs><g><rect fill="url(#gbg9emej322hu0)" height="2531" style="stroke: none; stroke-width: 1.0;" width="572" x="0" y="0"/><text fill="#000000" font-family="sans-serif" font-size="18" lengthAdjust="spacingAndGlyphs" textLength="488" x="41" y="26.708">Hunspell - Check Spelling A - upper case or capitalized</text><ellipse cx="281" cy="40.9531" fill="#000000" filter="url(#fbg9emej322hu)" rx="10" ry="10" style="stroke: none; stroke-width: 1.0;"/><rect fill="#FEFECE" filter="url(#fbg9emej322hu)" height="33.9688" rx="12.5" ry="12.5" style="stroke: #A80036; stroke-width: 1.5;" width="185" x="188.5" y="119.3555"/><text fill="#000000" font-family="sans-serif" font-size="12" lengthAdjust="spacingAndGlyphs" textLength="165" x="198.5" y="140.4941">add SPELL_ORIGCAP to info</text><rect fill="#87CEEB" filter="url(#fbg9emej322hu)" height="33.9688" rx="12.5" ry="12.5" style="stroke: #A80036; stroke-width: 1.5;" width="287" x="137.5" y="221.7266"/><text fill="#000000" font-family="sans-serif" font-size="12" lengthAdjust="spacingAndGlyphs" textLength="267" x="147.5" y="242.8652">root = check_word(cleaned word, info, root)</text><rect fill="#87CEEB" filter="url(#fbg9emej322hu)" height="33.9688" rx="12.5" ry="12.5" style="stroke: #A80036; stroke-width: 1.5;" width="414" x="74" y="324.0977"/><text fill="#000000" font-family="sans-serif" font-size="12" lengthAdjust="spacingAndGlyphs" textLength="394" x="84" y="345.2363">root = check_word(cleaned word period added at end, info, root)</text><polygon fill="#FEFECE" filter="url(#fbg9emej322hu)" points="215.5,275.6953,346.5,275.6953,358.5,287.6953,346.5,299.6953,215.5,299.6953,203.5,287.6953,215.5,275.6953" style="stroke: #A80036; stroke-width: 1.5;"/><text fill="#000000" font-family="sans-serif" font-size="11" lengthAdjust="spacingAndGlyphs" textLength="20" x="285" y="309.9058">yes</text><text fill="#000000" font-family="sans-serif" font-size="11" lengthAdjust="spacingAndGlyphs" textLength="131" x="215.5" y="291.5034">abbv &gt; 0 AND no root?</text><text fill="#000000" font-family="sans-serif" font-size="11" lengthAdjust="spacingAndGlyphs" textLength="14" x="358.5" y="285.1011">no</text><polygon fill="#FEFECE" filter="url(#fbg9emej322hu)" points="281,378.0664,293,390.0664,281,402.0664,269,390.0664,281,378.0664" style="stroke: #A80036; stroke-width: 1.5;"/><polygon fill="#FEFECE" filter="url(#fbg9emej322hu)" points="266.5,422.0664,295.5,422.0664,307.5,434.0664,295.5,446.0664,266.5,446.0664,254.5,434.0664,266.5,422.0664" style="stroke: #A80036; stroke-width: 1.5;"/><text fill="#000000" font-family="sans-serif" font-size="11" lengthAdjust="spacingAndGlyphs" textLength="14" x="285" y="456.2769">no</text><text fill="#000000" font-family="sans-serif" font-size="11" lengthAdjust="spacingAndGlyphs" textLength="29" x="266.5" y="437.8745">root?</text><text fill="#000000" font-family="sans-serif" font-size="11" lengthAdjust="spacingAndGlyphs" textLength="20" x="307.5" y="431.4722">yes</text><ellipse cx="347.5" cy="434.0664" fill="none" filter="url(#fbg9emej322hu)" rx="10" ry="10" style="stroke: #000000; stroke-width: 1.0;"/><ellipse cx="348" cy="434.5664" fill="#000000" filter="url(#fbg9emej322hu)" rx="6" ry="6" style="stroke: none; stroke-width: 1.0;"/><rect fill="#FEFECE" filter="url(#fbg9emej322hu)" height="33.9688" rx="12.5" ry="12.5" style="stroke: #A80036; stroke-width: 1.5;" width="371" x="95.5" y="489.7769"/><text fill="#000000" font-family="sans-serif" font-size="12" lengthAdjust="spacingAndGlyphs" textLength="351" x="105.5" y="510.9155">handle apostrophe for Catalan, French and Italian prefixes</text><polygon fill="#FEFECE" filter="url(#fbg9emej322hu)" points="266.5,543.7456,295.5,543.7456,307.5,555.7456,295.5,567.7456,266.5,567.7456,254.5,555.7456,266.5,543.7456" style="stroke: #A80036; stroke-width: 1.5;"/><text fill="#000000" font-family="sans-serif" font-size="11" lengthAdjust="spacingAndGlyphs" textLength="14" x="285" y="577.9561">no</text><text fill="#000000" font-family="sans-serif" font-size="11" lengthAdjust="spacingAndGlyphs" textLength="29" x="266.5" y="559.5537">root?</text><text fill="#000000" font-family="sans-serif" font-size="11" lengthAdjust="spacingAndGlyphs" textLength="20" x="307.5" y="553.1514">yes</text><ellipse cx="347.5" cy="555.7456" fill="none" filter="url(#fbg9emej322hu)" rx="10" ry="10" style="stroke: #000000; stroke-width: 1.0;"/><ellipse cx="348" cy="556.2456" fill="#000000" filter="url(#fbg9emej322hu)" rx="6" ry="6" style="stroke: none; stroke-width: 1.0;"/><rect fill="#FEFECE" filter="url(#fbg9emej322hu)" height="33.9688" rx="12.5" ry="12.5" style="stroke: #A80036; stroke-width: 1.5;" width="161" x="200.5" y="599.4561"/><text fill="#000000" font-family="sans-serif" font-size="12" lengthAdjust="spacingAndGlyphs" textLength="141" x="210.5" y="620.5947">handle German sharp s</text><polygon fill="#FEFECE" filter="url(#fbg9emej322hu)" points="266.5,653.4248,295.5,653.4248,307.5,665.4248,295.5,677.4248,266.5,677.4248,254.5,665.4248,266.5,653.4248" style="stroke: #A80036; stroke-width: 1.5;"/><text fill="#000000" font-family="sans-serif" font-size="11" lengthAdjust="spacingAndGlyphs" textLength="14" x="285" y="687.6353">no</text><text fill="#000000" font-family="sans-serif" font-size="11" lengthAdjust="spacingAndGlyphs" textLength="29" x="266.5" y="669.2329">root?</text><text fill="#000000" font-family="sans-serif" font-size="11" lengthAdjust="spacingAndGlyphs" textLength="20" x="307.5" y="662.8306">yes</text><ellipse cx="347.5" cy="665.4248" fill="none" filter="url(#fbg9emej322hu)" rx="10" ry="10" style="stroke: #000000; stroke-width: 1.0;"/><ellipse cx="348" cy="665.9248" fill="#000000" filter="url(#fbg9emej322hu)" rx="6" ry="6" style="stroke: none; stroke-width: 1.0;"/><polygon fill="#FEFECE" filter="url(#fbg9emej322hu)" points="207,173.3242,355,173.3242,367,185.3242,355,197.3242,207,197.3242,195,185.3242,207,173.3242" style="stroke: #A80036; stroke-width: 1.5;"/><text fill="#000000" font-family="sans-serif" font-size="11" lengthAdjust="spacingAndGlyphs" textLength="20" x="285" y="207.5347">yes</text><text fill="#000000" font-family="sans-serif" font-size="11" lengthAdjust="spacingAndGlyphs" textLength="148" x="207" y="189.1323">captype is all upper case?</text><text fill="#000000" font-family="sans-serif" font-size="11" lengthAdjust="spacingAndGlyphs" textLength="14" x="367" y="182.73">no</text><polygon fill="#FEFECE" filter="url(#fbg9emej322hu)" points="281,709.1353,293,721.1353,281,733.1353,269,721.1353,281,709.1353" style="stroke: #A80036; stroke-width: 1.5;"/><path d="M32,757.5532 L32,782.686 A0,0 0 0 0 32,782.686 L215,782.686 A0,0 0 0 0 215,782.686 L215,775.5532 L235,770.1196 L215,767.5532 L215,767.5532 L205,757.5532 L32,757.5532 A0,0 0 0 0 32,757.5532 " fill="#FBFB77" filter="url(#fbg9emej322hu)" style="stroke: #A80036; stroke-width: 1.0;"/><path d="M205,757.5532 L205,767.5532 L215,767.5532 L205,757.5532 " fill="#FBFB77" style="stroke: #A80036; stroke-width: 1.0;"/><text fill="#000000" font-family="sans-serif" font-size="13" lengthAdjust="spacingAndGlyphs" textLength="162" x="38" y="774.6201">(entry INITCAP in switch)</text><rect fill="#FEFECE" filter="url(#fbg9emej322hu)" height="33.9688" rx="12.5" ry="12.5" style="stroke: #A80036; stroke-width: 1.5;" width="92" x="235" y="753.1353"/><text fill="#000000" font-family="sans-serif" font-size="12" lengthAdjust="spacingAndGlyphs" textLength="72" x="245" y="774.2739">initliaze idot</text><rect fill="#FEFECE" filter="url(#fbg9emej322hu)" height="33.9688" rx="12.5" ry="12.5" style="stroke: #A80036; stroke-width: 1.5;" width="398" x="82" y="855.5063"/><text fill="#000000" font-family="sans-serif" font-size="12" lengthAdjust="spacingAndGlyphs" textLength="378" x="92" y="876.645">make cleaned word all lower case and then make it capitalized</text><rect fill="#FEFECE" filter="url(#fbg9emej322hu)" height="33.9688" rx="12.5" ry="12.5" style="stroke: #A80036; stroke-width: 1.5;" width="88" x="237" y="924.4751"/><text fill="#000000" font-family="sans-serif" font-size="12" lengthAdjust="spacingAndGlyphs" textLength="68" x="247" y="945.6138">handle idot</text><polygon fill="#FEFECE" filter="url(#fbg9emej322hu)" points="217,807.104,345,807.104,357,819.104,345,831.104,217,831.104,205,819.104,217,807.104" style="stroke: #A80036; stroke-width: 1.5;"/><text fill="#000000" font-family="sans-serif" font-size="11" lengthAdjust="spacingAndGlyphs" textLength="20" x="285" y="841.3145">yes</text><text fill="#000000" font-family="sans-serif" font-size="11" lengthAdjust="spacingAndGlyphs" textLength="128" x="217" y="822.9121">captype is capitalized?</text><text fill="#000000" font-family="sans-serif" font-size="11" lengthAdjust="spacingAndGlyphs" textLength="14" x="357" y="816.5098">no</text><polygon fill="#FEFECE" filter="url(#fbg9emej322hu)" points="281,978.4438,293,990.4438,281,1002.4438,269,990.4438,281,978.4438" style="stroke: #A80036; stroke-width: 1.5;"/><rect fill="#FEFECE" filter="url(#fbg9emej322hu)" height="33.9688" rx="12.5" ry="12.5" style="stroke: #A80036; stroke-width: 1.5;" width="179" x="191.5" y="1070.8462"/><text fill="#000000" font-family="sans-serif" font-size="12" lengthAdjust="spacingAndGlyphs" textLength="159" x="201.5" y="1091.9849">add SPELL_INITCAP to info</text><polygon fill="#FEFECE" filter="url(#fbg9emej322hu)" points="217,1022.4438,345,1022.4438,357,1034.4438,345,1046.4438,217,1046.4438,205,1034.4438,217,1022.4438" style="stroke: #A80036; stroke-width: 1.5;"/><text fill="#000000" font-family="sans-serif" font-size="11" lengthAdjust="spacingAndGlyphs" textLength="20" x="285" y="1056.6543">yes</text><text fill="#000000" font-family="sans-serif" font-size="11" lengthAdjust="spacingAndGlyphs" textLength="128" x="217" y="1038.252">captype is capitalized?</text><text fill="#000000" font-family="sans-serif" font-size="11" lengthAdjust="spacingAndGlyphs" textLength="14" x="357" y="1031.8496">no</text><polygon fill="#FEFECE" filter="url(#fbg9emej322hu)" points="281,1124.8149,293,1136.8149,281,1148.8149,269,1136.8149,281,1124.8149" style="stroke: #A80036; stroke-width: 1.5;"/><rect fill="#87CEEB" filter="url(#fbg9emej322hu)" height="33.9688" rx="12.5" ry="12.5" style="stroke: #A80036; stroke-width: 1.5;" width="287" x="137.5" y="1168.8149"/><text fill="#000000" font-family="sans-serif" font-size="12" lengthAdjust="spacingAndGlyphs" textLength="267" x="147.5" y="1189.9536">root = check_word(cleaned word, info, root)</text><rect fill="#FEFECE" filter="url(#fbg9emej322hu)" height="33.9688" rx="12.5" ry="12.5" style="stroke: #A80036; stroke-width: 1.5;" width="201" x="180.5" y="1271.186"/><text fill="#000000" font-family="sans-serif" font-size="12" lengthAdjust="spacingAndGlyphs" textLength="181" x="190.5" y="1292.3247">remove SPELL_INITCAP to info</text><polygon fill="#FEFECE" filter="url(#fbg9emej322hu)" points="217,1222.7837,345,1222.7837,357,1234.7837,345,1246.7837,217,1246.7837,205,1234.7837,217,1222.7837" style="stroke: #A80036; stroke-width: 1.5;"/><text fill="#000000" font-family="sans-serif" font-size="11" lengthAdjust="spacingAndGlyphs" textLength="20" x="285" y="1256.9941">yes</text><text fill="#000000" font-family="sans-serif" font-size="11" lengthAdjust="spacingAndGlyphs" textLength="128" x="217" y="1238.5918">captype is capitalized?</text><text fill="#000000" font-family="sans-serif" font-size="11" lengthAdjust="spacingAndGlyphs" textLength="14" x="357" y="1232.1895">no</text><polygon fill="#FEFECE" filter="url(#fbg9emej322hu)" points="281,1325.1548,293,1337.1548,281,1349.1548,269,1337.1548,281,1325.1548" style="stroke: #A80036; stroke-width: 1.5;"/><rect fill="#FEFECE" filter="url(#fbg9emej322hu)" height="33.9688" rx="12.5" ry="12.5" style="stroke: #A80036; stroke-width: 1.5;" width="94" x="234" y="1417.5571"/><text fill="#000000" font-family="sans-serif" font-size="12" lengthAdjust="spacingAndGlyphs" textLength="74" x="244" y="1438.6958">root = NULL</text><path d="M10,1466.1782 L10,1551.8423 A0,0 0 0 0 10,1551.8423 L251,1551.8423 A0,0 0 0 0 251,1551.8423 L251,1513.0103 L271,1509.0103 L251,1505.0103 L251,1476.1782 L241,1466.1782 L10,1466.1782 A0,0 0 0 0 10,1466.1782 " fill="#FBFB77" filter="url(#fbg9emej322hu)" style="stroke: #A80036; stroke-width: 1.0;"/><path d="M241,1466.1782 L241,1476.1782 L251,1476.1782 L241,1466.1782 " fill="#FBFB77" style="stroke: #A80036; stroke-width: 1.0;"/><text fill="#000000" font-family="sans-serif" font-size="13" lengthAdjust="spacingAndGlyphs" textLength="164" x="16" y="1483.2451">"forbid bad capitalization</text><text fill="#000000" font-family="sans-serif" font-size="13" lengthAdjust="spacingAndGlyphs" textLength="146" x="16" y="1498.3779">(for example, ijs -&gt; Ijs</text><text fill="#000000" font-family="sans-serif" font-size="13" lengthAdjust="spacingAndGlyphs" textLength="147" x="16" y="1513.5107">instead of IJs in Dutch)</text><text fill="#000000" font-family="sans-serif" font-size="13" lengthAdjust="spacingAndGlyphs" textLength="160" x="16" y="1528.6436">use explicit forms in dic:</text><text fill="#000000" font-family="sans-serif" font-size="13" lengthAdjust="spacingAndGlyphs" textLength="220" x="16" y="1543.7764">Ijs/F (F = FORBIDDENWORD flag)"</text><ellipse cx="281" cy="1509.0103" fill="none" filter="url(#fbg9emej322hu)" rx="10" ry="10" style="stroke: #000000; stroke-width: 1.0;"/><ellipse cx="281.5" cy="1509.5103" fill="#000000" filter="url(#fbg9emej322hu)" rx="6" ry="6" style="stroke: none; stroke-width: 1.0;"/><polygon fill="#FEFECE" filter="url(#fbg9emej322hu)" points="188,1369.1548,374,1369.1548,386,1381.1548,374,1393.1548,188,1393.1548,176,1381.1548,188,1369.1548" style="stroke: #A80036; stroke-width: 1.5;"/><text fill="#000000" font-family="sans-serif" font-size="11" lengthAdjust="spacingAndGlyphs" textLength="20" x="285" y="1403.3652">yes</text><text fill="#000000" font-family="sans-serif" font-size="11" lengthAdjust="spacingAndGlyphs" textLength="186" x="188" y="1384.9629">info contains SPELL_FORBIDDEN?</text><text fill="#000000" font-family="sans-serif" font-size="11" lengthAdjust="spacingAndGlyphs" textLength="14" x="386" y="1378.5605">no</text><rect fill="#FEFECE" filter="url(#fbg9emej322hu)" height="33.9688" rx="12.5" ry="12.5" style="stroke: #A80036; stroke-width: 1.5;" width="94" x="234" y="1635.6787"/><text fill="#000000" font-family="sans-serif" font-size="12" lengthAdjust="spacingAndGlyphs" textLength="74" x="244" y="1656.8174">root = NULL</text><ellipse cx="281" cy="1707.1631" fill="none" filter="url(#fbg9emej322hu)" rx="10" ry="10" style="stroke: #000000; stroke-width: 1.0;"/><ellipse cx="281.5" cy="1707.6631" fill="#000000" filter="url(#fbg9emej322hu)" rx="6" ry="6" style="stroke: none; stroke-width: 1.0;"/><polygon fill="#FEFECE" filter="url(#fbg9emej322hu)" points="112.5,1587.2764,449.5,1587.2764,461.5,1599.2764,449.5,1611.2764,112.5,1611.2764,100.5,1599.2764,112.5,1587.2764" style="stroke: #A80036; stroke-width: 1.5;"/><text fill="#000000" font-family="sans-serif" font-size="11" lengthAdjust="spacingAndGlyphs" textLength="20" x="285" y="1621.4868">yes</text><text fill="#000000" font-family="sans-serif" font-size="11" lengthAdjust="spacingAndGlyphs" textLength="337" x="112.5" y="1603.0845">root AND keepcase(root)??? AND captype is all upper case?</text><text fill="#000000" font-family="sans-serif" font-size="11" lengthAdjust="spacingAndGlyphs" textLength="14" x="461.5" y="1596.6821">no</text><polygon fill="#FEFECE" filter="url(#fbg9emej322hu)" points="137,1759.1631,425,1759.1631,437,1771.1631,425,1783.1631,137,1783.1631,125,1771.1631,137,1759.1631" style="stroke: #A80036; stroke-width: 1.5;"/><text fill="#000000" font-family="sans-serif" font-size="11" lengthAdjust="spacingAndGlyphs" textLength="14" x="285" y="1793.3735">no</text><text fill="#000000" font-family="sans-serif" font-size="11" lengthAdjust="spacingAndGlyphs" textLength="288" x="137" y="1774.9712">root OR idot OR some language specific condition?</text><text fill="#000000" font-family="sans-serif" font-size="11" lengthAdjust="spacingAndGlyphs" textLength="20" x="437" y="1768.5688">yes</text><ellipse cx="477" cy="1771.1631" fill="none" filter="url(#fbg9emej322hu)" rx="10" ry="10" style="stroke: #000000; stroke-width: 1.0;"/><ellipse cx="477.5" cy="1771.6631" fill="#000000" filter="url(#fbg9emej322hu)" rx="6" ry="6" style="stroke: none; stroke-width: 1.0;"/><rect fill="#FEFECE" filter="url(#fbg9emej322hu)" height="33.9688" rx="12.5" ry="12.5" style="stroke: #A80036; stroke-width: 1.5;" width="226" x="168" y="1814.8735"/><text fill="#000000" font-family="sans-serif" font-size="12" lengthAdjust="spacingAndGlyphs" textLength="202" x="178" y="1836.0122">make cleaned word all lower case</text><rect fill="#FEFECE" filter="url(#fbg9emej322hu)" height="33.9688" rx="12.5" ry="12.5" style="stroke: #A80036; stroke-width: 1.5;" width="206" x="178" y="1868.8423"/><text fill="#000000" font-family="sans-serif" font-size="12" lengthAdjust="spacingAndGlyphs" textLength="186" x="188" y="1889.981">copy cleaned word to u8buffer</text><rect fill="#FEFECE" filter="url(#fbg9emej322hu)" height="33.9688" rx="12.5" ry="12.5" style="stroke: #A80036; stroke-width: 1.5;" width="206" x="178" y="1922.811"/><text fill="#000000" font-family="sans-serif" font-size="12" lengthAdjust="spacingAndGlyphs" textLength="186" x="188" y="1943.9497">make cleaned word capitalized</text><rect fill="#87CEEB" filter="url(#fbg9emej322hu)" height="33.9688" rx="12.5" ry="12.5" style="stroke: #A80036; stroke-width: 1.5;" width="258" x="152" y="1976.7798"/><text fill="#000000" font-family="sans-serif" font-size="12" lengthAdjust="spacingAndGlyphs" textLength="238" x="162" y="1997.9185">root = check_word(u8buffer, info, root)</text><rect fill="#FEFECE" filter="url(#fbg9emej322hu)" height="33.9688" rx="12.5" ry="12.5" style="stroke: #A80036; stroke-width: 1.5;" width="54" x="254" y="2079.1509"/><text fill="#000000" font-family="sans-serif" font-size="12" lengthAdjust="spacingAndGlyphs" textLength="34" x="264" y="2100.2896">TODO</text><rect fill="#FEFECE" filter="url(#fbg9emej322hu)" height="33.9688" rx="12.5" ry="12.5" style="stroke: #A80036; stroke-width: 1.5;" width="54" x="254" y="2133.1196"/><text fill="#000000" font-family="sans-serif" font-size="12" lengthAdjust="spacingAndGlyphs" textLength="34" x="264" y="2154.2583">TODO</text><rect fill="#FEFECE" filter="url(#fbg9emej322hu)" height="33.9688" rx="12.5" ry="12.5" style="stroke: #A80036; stroke-width: 1.5;" width="54" x="254" y="2187.0884"/><text fill="#000000" font-family="sans-serif" font-size="12" lengthAdjust="spacingAndGlyphs" textLength="34" x="264" y="2208.2271">TODO</text><polygon fill="#FEFECE" filter="url(#fbg9emej322hu)" points="215.5,2030.7485,346.5,2030.7485,358.5,2042.7485,346.5,2054.7485,215.5,2054.7485,203.5,2042.7485,215.5,2030.7485" style="stroke: #A80036; stroke-width: 1.5;"/><text fill="#000000" font-family="sans-serif" font-size="11" lengthAdjust="spacingAndGlyphs" textLength="20" x="285" y="2064.959">yes</text><text fill="#000000" font-family="sans-serif" font-size="11" lengthAdjust="spacingAndGlyphs" textLength="131" x="215.5" y="2046.5566">abbv &gt; 0 AND no root?</text><text fill="#000000" font-family="sans-serif" font-size="11" lengthAdjust="spacingAndGlyphs" textLength="14" x="358.5" y="2040.1543">no</text><polygon fill="#FEFECE" filter="url(#fbg9emej322hu)" points="281,2241.0571,293,2253.0571,281,2265.0571,269,2253.0571,281,2241.0571" style="stroke: #A80036; stroke-width: 1.5;"/><rect fill="#FEFECE" filter="url(#fbg9emej322hu)" height="33.9688" rx="12.5" ry="12.5" style="stroke: #A80036; stroke-width: 1.5;" width="94" x="234" y="2333.4595"/><text fill="#000000" font-family="sans-serif" font-size="12" lengthAdjust="spacingAndGlyphs" textLength="74" x="244" y="2354.5981">root = NULL</text><ellipse cx="281" cy="2404.9438" fill="none" filter="url(#fbg9emej322hu)" rx="10" ry="10" style="stroke: #000000; stroke-width: 1.0;"/><ellipse cx="281.5" cy="2405.4438" fill="#000000" filter="url(#fbg9emej322hu)" rx="6" ry="6" style="stroke: none; stroke-width: 1.0;"/><polygon fill="#FEFECE" filter="url(#fbg9emej322hu)" points="50,2285.0571,512,2285.0571,524,2297.0571,512,2309.0571,50,2309.0571,38,2297.0571,50,2285.0571" style="stroke: #A80036; stroke-width: 1.5;"/><text fill="#000000" font-family="sans-serif" font-size="11" lengthAdjust="spacingAndGlyphs" textLength="20" x="285" y="2319.2676">yes</text><text fill="#000000" font-family="sans-serif" font-size="11" lengthAdjust="spacingAndGlyphs" textLength="462" x="50" y="2300.8652">root AND keepcase(root)??? AND (captype is all upper case OR German sharp s)?</text><text fill="#000000" font-family="sans-serif" font-size="11" lengthAdjust="spacingAndGlyphs" textLength="14" x="524" y="2294.4629">no</text><polygon fill="#FEFECE" filter="url(#fbg9emej322hu)" points="124,70.9531,438,70.9531,450,82.9531,438,94.9531,124,94.9531,112,82.9531,124,70.9531" style="stroke: #A80036; stroke-width: 1.5;"/><text fill="#000000" font-family="sans-serif" font-size="11" lengthAdjust="spacingAndGlyphs" textLength="20" x="285" y="105.1636">yes</text><text fill="#000000" font-family="sans-serif" font-size="11" lengthAdjust="spacingAndGlyphs" textLength="314" x="124" y="86.7612">captype is capitalized OR (all upper case AND no root)?</text><text fill="#000000" font-family="sans-serif" font-size="11" lengthAdjust="spacingAndGlyphs" textLength="14" x="450" y="80.3589">no</text><polygon fill="#FEFECE" filter="url(#fbg9emej322hu)" points="281,2456.9438,293,2468.9438,281,2480.9438,269,2468.9438,281,2456.9438" style="stroke: #A80036; stroke-width: 1.5;"/><ellipse cx="281" cy="2510.9438" fill="none" filter="url(#fbg9emej322hu)" rx="10" ry="10" style="stroke: #000000; stroke-width: 1.0;"/><ellipse cx="281.5" cy="2511.4438" fill="#000000" filter="url(#fbg9emej322hu)" rx="6" ry="6" style="stroke: none; stroke-width: 1.0;"/><line style="stroke: #A80036; stroke-width: 1.5;" x1="281" x2="281" y1="299.6953" y2="324.0977"/><polygon fill="#A80036" points="277,314.0977,281,324.0977,285,314.0977,281,318.0977" style="stroke: #A80036; stroke-width: 1.0;"/><line style="stroke: #A80036; stroke-width: 1.5;" x1="358.5" x2="498" y1="287.6953" y2="287.6953"/><polygon fill="#A80036" points="494,331.082,498,341.082,502,331.082,498,335.082" style="stroke: #A80036; stroke-width: 1.5;"/><line style="stroke: #A80036; stroke-width: 1.5;" x1="498" x2="498" y1="287.6953" y2="390.0664"/><line style="stroke: #A80036; stroke-width: 1.5;" x1="498" x2="293" y1="390.0664" y2="390.0664"/><polygon fill="#A80036" points="303,386.0664,293,390.0664,303,394.0664,299,390.0664" style="stroke: #A80036; stroke-width: 1.0;"/><line style="stroke: #A80036; stroke-width: 1.5;" x1="281" x2="281" y1="358.0664" y2="378.0664"/><polygon fill="#A80036" points="277,368.0664,281,378.0664,285,368.0664,281,372.0664" style="stroke: #A80036; stroke-width: 1.0;"/><line style="stroke: #A80036; stroke-width: 1.5;" x1="281" x2="281" y1="255.6953" y2="275.6953"/><polygon fill="#A80036" points="277,265.6953,281,275.6953,285,265.6953,281,269.6953" style="stroke: #A80036; stroke-width: 1.0;"/><line style="stroke: #A80036; stroke-width: 1.5;" x1="281" x2="281" y1="446.0664" y2="489.7769"/><polygon fill="#A80036" points="277,479.7769,281,489.7769,285,479.7769,281,483.7769" style="stroke: #A80036; stroke-width: 1.0;"/><line style="stroke: #A80036; stroke-width: 1.5;" x1="307.5" x2="337.5" y1="434.0664" y2="434.0664"/><polygon fill="#A80036" points="327.5,430.0664,337.5,434.0664,327.5,438.0664,331.5,434.0664" style="stroke: #A80036; stroke-width: 1.0;"/><line style="stroke: #A80036; stroke-width: 1.5;" x1="281" x2="281" y1="402.0664" y2="422.0664"/><polygon fill="#A80036" points="277,412.0664,281,422.0664,285,412.0664,281,416.0664" style="stroke: #A80036; stroke-width: 1.0;"/><line style="stroke: #A80036; stroke-width: 1.5;" x1="281" x2="281" y1="567.7456" y2="599.4561"/><polygon fill="#A80036" points="277,589.4561,281,599.4561,285,589.4561,281,593.4561" style="stroke: #A80036; stroke-width: 1.0;"/><line style="stroke: #A80036; stroke-width: 1.5;" x1="307.5" x2="337.5" y1="555.7456" y2="555.7456"/><polygon fill="#A80036" points="327.5,551.7456,337.5,555.7456,327.5,559.7456,331.5,555.7456" style="stroke: #A80036; stroke-width: 1.0;"/><line style="stroke: #A80036; stroke-width: 1.5;" x1="281" x2="281" y1="523.7456" y2="543.7456"/><polygon fill="#A80036" points="277,533.7456,281,543.7456,285,533.7456,281,537.7456" style="stroke: #A80036; stroke-width: 1.0;"/><line style="stroke: #A80036; stroke-width: 1.5;" x1="281" x2="281" y1="677.4248" y2="709.1353"/><polygon fill="#A80036" points="277,699.1353,281,709.1353,285,699.1353,281,703.1353" style="stroke: #A80036; stroke-width: 1.0;"/><line style="stroke: #A80036; stroke-width: 1.5;" x1="307.5" x2="337.5" y1="665.4248" y2="665.4248"/><polygon fill="#A80036" points="327.5,661.4248,337.5,665.4248,327.5,669.4248,331.5,665.4248" style="stroke: #A80036; stroke-width: 1.0;"/><line style="stroke: #A80036; stroke-width: 1.5;" x1="281" x2="281" y1="633.4248" y2="653.4248"/><polygon fill="#A80036" points="277,643.4248,281,653.4248,285,643.4248,281,647.4248" style="stroke: #A80036; stroke-width: 1.0;"/><line style="stroke: #A80036; stroke-width: 1.5;" x1="281" x2="281" y1="197.3242" y2="221.7266"/><polygon fill="#A80036" points="277,211.7266,281,221.7266,285,211.7266,281,215.7266" style="stroke: #A80036; stroke-width: 1.0;"/><line style="stroke: #A80036; stroke-width: 1.5;" x1="367" x2="520" y1="185.3242" y2="185.3242"/><polygon fill="#A80036" points="516,467.7769,520,477.7769,524,467.7769,520,471.7769" style="stroke: #A80036; stroke-width: 1.5;"/><line style="stroke: #A80036; stroke-width: 1.5;" x1="520" x2="520" y1="185.3242" y2="721.1353"/><line style="stroke: #A80036; stroke-width: 1.5;" x1="520" x2="293" y1="721.1353" y2="721.1353"/><polygon fill="#A80036" points="303,717.1353,293,721.1353,303,725.1353,299,721.1353" style="stroke: #A80036; stroke-width: 1.0;"/><line style="stroke: #A80036; stroke-width: 1.5;" x1="281" x2="281" y1="153.3242" y2="173.3242"/><polygon fill="#A80036" points="277,163.3242,281,173.3242,285,163.3242,281,167.3242" style="stroke: #A80036; stroke-width: 1.0;"/><line style="stroke: #A80036; stroke-width: 1.5;" x1="281" x2="281" y1="733.1353" y2="753.1353"/><polygon fill="#A80036" points="277,743.1353,281,753.1353,285,743.1353,281,747.1353" style="stroke: #A80036; stroke-width: 1.0;"/><line style="stroke: #A80036; stroke-width: 1.5;" x1="281" x2="281" y1="889.4751" y2="924.4751"/><polygon fill="#A80036" points="277,914.4751,281,924.4751,285,914.4751,281,918.4751" style="stroke: #A80036; stroke-width: 1.0;"/><line style="stroke: #A80036; stroke-width: 1.5;" x1="281" x2="281" y1="831.104" y2="855.5063"/><polygon fill="#A80036" points="277,845.5063,281,855.5063,285,845.5063,281,849.5063" style="stroke: #A80036; stroke-width: 1.0;"/><line style="stroke: #A80036; stroke-width: 1.5;" x1="357" x2="490" y1="819.104" y2="819.104"/><polygon fill="#A80036" points="486,896.9751,490,906.9751,494,896.9751,490,900.9751" style="stroke: #A80036; stroke-width: 1.5;"/><line style="stroke: #A80036; stroke-width: 1.5;" x1="490" x2="490" y1="819.104" y2="990.4438"/><line style="stroke: #A80036; stroke-width: 1.5;" x1="490" x2="293" y1="990.4438" y2="990.4438"/><polygon fill="#A80036" points="303,986.4438,293,990.4438,303,994.4438,299,990.4438" style="stroke: #A80036; stroke-width: 1.0;"/><line style="stroke: #A80036; stroke-width: 1.5;" x1="281" x2="281" y1="958.4438" y2="978.4438"/><polygon fill="#A80036" points="277,968.4438,281,978.4438,285,968.4438,281,972.4438" style="stroke: #A80036; stroke-width: 1.0;"/><line style="stroke: #A80036; stroke-width: 1.5;" x1="281" x2="281" y1="787.104" y2="807.104"/><polygon fill="#A80036" points="277,797.104,281,807.104,285,797.104,281,801.104" style="stroke: #A80036; stroke-width: 1.0;"/><line style="stroke: #A80036; stroke-width: 1.5;" x1="281" x2="281" y1="1046.4438" y2="1070.8462"/><polygon fill="#A80036" points="277,1060.8462,281,1070.8462,285,1060.8462,281,1064.8462" style="stroke: #A80036; stroke-width: 1.0;"/><line style="stroke: #A80036; stroke-width: 1.5;" x1="357" x2="380.5" y1="1034.4438" y2="1034.4438"/><polygon fill="#A80036" points="376.5,1077.8306,380.5,1087.8306,384.5,1077.8306,380.5,1081.8306" style="stroke: #A80036; stroke-width: 1.5;"/><line style="stroke: #A80036; stroke-width: 1.5;" x1="380.5" x2="380.5" y1="1034.4438" y2="1136.8149"/><line style="stroke: #A80036; stroke-width: 1.5;" x1="380.5" x2="293" y1="1136.8149" y2="1136.8149"/><polygon fill="#A80036" points="303,1132.8149,293,1136.8149,303,1140.8149,299,1136.8149" style="stroke: #A80036; stroke-width: 1.0;"/><line style="stroke: #A80036; stroke-width: 1.5;" x1="281" x2="281" y1="1104.8149" y2="1124.8149"/><polygon fill="#A80036" points="277,1114.8149,281,1124.8149,285,1114.8149,281,1118.8149" style="stroke: #A80036; stroke-width: 1.0;"/><line style="stroke: #A80036; stroke-width: 1.5;" x1="281" x2="281" y1="1002.4438" y2="1022.4438"/><polygon fill="#A80036" points="277,1012.4438,281,1022.4438,285,1012.4438,281,1016.4438" style="stroke: #A80036; stroke-width: 1.0;"/><line style="stroke: #A80036; stroke-width: 1.5;" x1="281" x2="281" y1="1148.8149" y2="1168.8149"/><polygon fill="#A80036" points="277,1158.8149,281,1168.8149,285,1158.8149,281,1162.8149" style="stroke: #A80036; stroke-width: 1.0;"/><line style="stroke: #A80036; stroke-width: 1.5;" x1="281" x2="281" y1="1246.7837" y2="1271.186"/><polygon fill="#A80036" points="277,1261.186,281,1271.186,285,1261.186,281,1265.186" style="stroke: #A80036; stroke-width: 1.0;"/><line style="stroke: #A80036; stroke-width: 1.5;" x1="357" x2="391.5" y1="1234.7837" y2="1234.7837"/><polygon fill="#A80036" points="387.5,1278.1704,391.5,1288.1704,395.5,1278.1704,391.5,1282.1704" style="stroke: #A80036; stroke-width: 1.5;"/><line style="stroke: #A80036; stroke-width: 1.5;" x1="391.5" x2="391.5" y1="1234.7837" y2="1337.1548"/><line style="stroke: #A80036; stroke-width: 1.5;" x1="391.5" x2="293" y1="1337.1548" y2="1337.1548"/><polygon fill="#A80036" points="303,1333.1548,293,1337.1548,303,1341.1548,299,1337.1548" style="stroke: #A80036; stroke-width: 1.0;"/><line style="stroke: #A80036; stroke-width: 1.5;" x1="281" x2="281" y1="1305.1548" y2="1325.1548"/><polygon fill="#A80036" points="277,1315.1548,281,1325.1548,285,1315.1548,281,1319.1548" style="stroke: #A80036; stroke-width: 1.0;"/><line style="stroke: #A80036; stroke-width: 1.5;" x1="281" x2="281" y1="1202.7837" y2="1222.7837"/><polygon fill="#A80036" points="277,1212.7837,281,1222.7837,285,1212.7837,281,1216.7837" style="stroke: #A80036; stroke-width: 1.0;"/><line style="stroke: #A80036; stroke-width: 1.5;" x1="281" x2="281" y1="1451.5259" y2="1499.0103"/><polygon fill="#A80036" points="277,1489.0103,281,1499.0103,285,1489.0103,281,1493.0103" style="stroke: #A80036; stroke-width: 1.0;"/><line style="stroke: #A80036; stroke-width: 1.5;" x1="281" x2="281" y1="1393.1548" y2="1417.5571"/><polygon fill="#A80036" points="277,1407.5571,281,1417.5571,285,1407.5571,281,1411.5571" style="stroke: #A80036; stroke-width: 1.0;"/><line style="stroke: #A80036; stroke-width: 1.5;" x1="386" x2="398" y1="1381.1548" y2="1381.1548"/><polygon fill="#A80036" points="394,1461.5259,398,1471.5259,402,1461.5259,398,1465.5259" style="stroke: #A80036; stroke-width: 1.5;"/><line style="stroke: #A80036; stroke-width: 1.5;" x1="398" x2="398" y1="1381.1548" y2="1567.2764"/><line style="stroke: #A80036; stroke-width: 1.5;" x1="398" x2="281" y1="1567.2764" y2="1567.2764"/><line style="stroke: #A80036; stroke-width: 1.5;" x1="281" x2="281" y1="1567.2764" y2="1587.2764"/><polygon fill="#A80036" points="277,1577.2764,281,1587.2764,285,1577.2764,281,1581.2764" style="stroke: #A80036; stroke-width: 1.0;"/><line style="stroke: #A80036; stroke-width: 1.5;" x1="281" x2="281" y1="1349.1548" y2="1369.1548"/><polygon fill="#A80036" points="277,1359.1548,281,1369.1548,285,1359.1548,281,1363.1548" style="stroke: #A80036; stroke-width: 1.0;"/><line style="stroke: #A80036; stroke-width: 1.5;" x1="281" x2="281" y1="1669.6475" y2="1697.1631"/><polygon fill="#A80036" points="277,1687.1631,281,1697.1631,285,1687.1631,281,1691.1631" style="stroke: #A80036; stroke-width: 1.0;"/><line style="stroke: #A80036; stroke-width: 1.5;" x1="281" x2="281" y1="1611.2764" y2="1635.6787"/><polygon fill="#A80036" points="277,1625.6787,281,1635.6787,285,1625.6787,281,1629.6787" style="stroke: #A80036; stroke-width: 1.0;"/><line style="stroke: #A80036; stroke-width: 1.5;" x1="461.5" x2="473.5" y1="1599.2764" y2="1599.2764"/><polygon fill="#A80036" points="469.5,1667.1631,473.5,1677.1631,477.5,1667.1631,473.5,1671.1631" style="stroke: #A80036; stroke-width: 1.5;"/><line style="stroke: #A80036; stroke-width: 1.5;" x1="473.5" x2="473.5" y1="1599.2764" y2="1739.1631"/><line style="stroke: #A80036; stroke-width: 1.5;" x1="473.5" x2="281" y1="1739.1631" y2="1739.1631"/><line style="stroke: #A80036; stroke-width: 1.5;" x1="281" x2="281" y1="1739.1631" y2="1759.1631"/><polygon fill="#A80036" points="277,1749.1631,281,1759.1631,285,1749.1631,281,1753.1631" style="stroke: #A80036; stroke-width: 1.0;"/><line style="stroke: #A80036; stroke-width: 1.5;" x1="281" x2="281" y1="1783.1631" y2="1814.8735"/><polygon fill="#A80036" points="277,1804.8735,281,1814.8735,285,1804.8735,281,1808.8735" style="stroke: #A80036; stroke-width: 1.0;"/><line style="stroke: #A80036; stroke-width: 1.5;" x1="437" x2="467" y1="1771.1631" y2="1771.1631"/><polygon fill="#A80036" points="457,1767.1631,467,1771.1631,457,1775.1631,461,1771.1631" style="stroke: #A80036; stroke-width: 1.0;"/><line style="stroke: #A80036; stroke-width: 1.5;" x1="281" x2="281" y1="1848.8423" y2="1868.8423"/><polygon fill="#A80036" points="277,1858.8423,281,1868.8423,285,1858.8423,281,1862.8423" style="stroke: #A80036; stroke-width: 1.0;"/><line style="stroke: #A80036; stroke-width: 1.5;" x1="281" x2="281" y1="1902.811" y2="1922.811"/><polygon fill="#A80036" points="277,1912.811,281,1922.811,285,1912.811,281,1916.811" style="stroke: #A80036; stroke-width: 1.0;"/><line style="stroke: #A80036; stroke-width: 1.5;" x1="281" x2="281" y1="1956.7798" y2="1976.7798"/><polygon fill="#A80036" points="277,1966.7798,281,1976.7798,285,1966.7798,281,1970.7798" style="stroke: #A80036; stroke-width: 1.0;"/><line style="stroke: #A80036; stroke-width: 1.5;" x1="281" x2="281" y1="2113.1196" y2="2133.1196"/><polygon fill="#A80036" points="277,2123.1196,281,2133.1196,285,2123.1196,281,2127.1196" style="stroke: #A80036; stroke-width: 1.0;"/><line style="stroke: #A80036; stroke-width: 1.5;" x1="281" x2="281" y1="2167.0884" y2="2187.0884"/><polygon fill="#A80036" points="277,2177.0884,281,2187.0884,285,2177.0884,281,2181.0884" style="stroke: #A80036; stroke-width: 1.0;"/><line style="stroke: #A80036; stroke-width: 1.5;" x1="281" x2="281" y1="2054.7485" y2="2079.1509"/><polygon fill="#A80036" points="277,2069.1509,281,2079.1509,285,2069.1509,281,2073.1509" style="stroke: #A80036; stroke-width: 1.0;"/><line style="stroke: #A80036; stroke-width: 1.5;" x1="358.5" x2="370.5" y1="2042.7485" y2="2042.7485"/><polygon fill="#A80036" points="366.5,2140.104,370.5,2150.104,374.5,2140.104,370.5,2144.104" style="stroke: #A80036; stroke-width: 1.5;"/><line style="stroke: #A80036; stroke-width: 1.5;" x1="370.5" x2="370.5" y1="2042.7485" y2="2253.0571"/><line style="stroke: #A80036; stroke-width: 1.5;" x1="370.5" x2="293" y1="2253.0571" y2="2253.0571"/><polygon fill="#A80036" points="303,2249.0571,293,2253.0571,303,2257.0571,299,2253.0571" style="stroke: #A80036; stroke-width: 1.0;"/><line style="stroke: #A80036; stroke-width: 1.5;" x1="281" x2="281" y1="2221.0571" y2="2241.0571"/><polygon fill="#A80036" points="277,2231.0571,281,2241.0571,285,2231.0571,281,2235.0571" style="stroke: #A80036; stroke-width: 1.0;"/><line style="stroke: #A80036; stroke-width: 1.5;" x1="281" x2="281" y1="2010.7485" y2="2030.7485"/><polygon fill="#A80036" points="277,2020.7485,281,2030.7485,285,2020.7485,281,2024.7485" style="stroke: #A80036; stroke-width: 1.0;"/><line style="stroke: #A80036; stroke-width: 1.5;" x1="281" x2="281" y1="2367.4282" y2="2394.9438"/><polygon fill="#A80036" points="277,2384.9438,281,2394.9438,285,2384.9438,281,2388.9438" style="stroke: #A80036; stroke-width: 1.0;"/><line style="stroke: #A80036; stroke-width: 1.5;" x1="281" x2="281" y1="2309.0571" y2="2333.4595"/><polygon fill="#A80036" points="277,2323.4595,281,2333.4595,285,2323.4595,281,2327.4595" style="stroke: #A80036; stroke-width: 1.0;"/><line style="stroke: #A80036; stroke-width: 1.5;" x1="524" x2="536" y1="2297.0571" y2="2297.0571"/><polygon fill="#A80036" points="532,2364.9438,536,2374.9438,540,2364.9438,536,2368.9438" style="stroke: #A80036; stroke-width: 1.5;"/><line style="stroke: #A80036; stroke-width: 1.5;" x1="536" x2="536" y1="2297.0571" y2="2436.9438"/><line style="stroke: #A80036; stroke-width: 1.5;" x1="536" x2="281" y1="2436.9438" y2="2436.9438"/><line style="stroke: #A80036; stroke-width: 1.5;" x1="281" x2="281" y1="2436.9438" y2="2456.9438"/><polygon fill="#A80036" points="277,2446.9438,281,2456.9438,285,2446.9438,281,2450.9438" style="stroke: #A80036; stroke-width: 1.0;"/><line style="stroke: #A80036; stroke-width: 1.5;" x1="281" x2="281" y1="2265.0571" y2="2285.0571"/><polygon fill="#A80036" points="277,2275.0571,281,2285.0571,285,2275.0571,281,2279.0571" style="stroke: #A80036; stroke-width: 1.0;"/><line style="stroke: #A80036; stroke-width: 1.5;" x1="281" x2="281" y1="94.9531" y2="119.3555"/><polygon fill="#A80036" points="277,109.3555,281,119.3555,285,109.3555,281,113.3555" style="stroke: #A80036; stroke-width: 1.0;"/><line style="stroke: #A80036; stroke-width: 1.5;" x1="450" x2="546" y1="82.9531" y2="82.9531"/><polygon fill="#A80036" points="542,1258.6978,546,1268.6978,550,1258.6978,546,1262.6978" style="stroke: #A80036; stroke-width: 1.5;"/><line style="stroke: #A80036; stroke-width: 1.5;" x1="546" x2="546" y1="82.9531" y2="2468.9438"/><line style="stroke: #A80036; stroke-width: 1.5;" x1="546" x2="293" y1="2468.9438" y2="2468.9438"/><polygon fill="#A80036" points="303,2464.9438,293,2468.9438,303,2472.9438,299,2468.9438" style="stroke: #A80036; stroke-width: 1.0;"/><line style="stroke: #A80036; stroke-width: 1.5;" x1="281" x2="281" y1="50.9531" y2="70.9531"/><polygon fill="#A80036" points="277,60.9531,281,70.9531,285,60.9531,281,64.9531" style="stroke: #A80036; stroke-width: 1.0;"/><line style="stroke: #A80036; stroke-width: 1.5;" x1="281" x2="281" y1="2480.9438" y2="2500.9438"/><polygon fill="#A80036" points="277,2490.9438,281,2500.9438,285,2490.9438,281,2494.9438" style="stroke: #A80036; stroke-width: 1.0;"/><!--
@startuml
skinparam backgroundcolor White|White

title Hunspell - Check Spelling A - upper case or capitalized

start

if (captype is capitalized OR (all upper case AND no root)?) then (yes)
	:add SPELL_ORIGCAP to info;
	if (captype is all upper case?) then (yes)
		#skyblue:root = check_word(cleaned word, info, root);
		if (abbv > 0 AND no root?) then (yes)
			#skyblue:root = check_word(cleaned word period added at end, info, root);
		else (no)
		endif
		if (root?) then (yes)
			stop
		else (no)
		endif

		:handle apostrophe for Catalan, French and Italian prefixes;
		if (root?) then (yes)
			stop
		else (no)
		endif

		:handle German sharp s;
		if (root?) then (yes)
			stop
		else (no)
		endif

	else (no)
	endif

	:initliaze idot;
	note left
(entry INITCAP in switch)
	end note
	if (captype is capitalized?) then (yes)
		:make cleaned word all lower case and then make it capitalized;
		:handle idot;
	else (no)
	endif
	if (captype is capitalized?) then (yes)
		:add SPELL_INITCAP to info;
	else (no)
	endif
	#skyblue:root = check_word(cleaned word, info, root);
	if (captype is capitalized?) then (yes)
		:remove SPELL_INITCAP to info;
	else (no)
	endif

	if (info contains SPELL_FORBIDDEN?) then (yes)
		:root = NULL;
		stop
		note left
"forbid bad capitalization
(for example, ijs -> Ijs
instead of IJs in Dutch)
use explicit forms in dic:
Ijs/F (F = FORBIDDENWORD flag)"
		end note
	else (no)
	endif

	if (root AND keepcase(root)??? AND captype is all upper case?) then (yes)
		:root = NULL;
		stop
	else (no)
	endif

	if (root OR idot OR some language specific condition?) then (yes)
		stop
	else (no)
	endif

	:make cleaned word all lower case ;
	:copy cleaned word to u8buffer;
	:make cleaned word capitalized;
	#skyblue:root = check_word(u8buffer, info, root);
	if (abbv > 0 AND no root?) then (yes)
		:TODO;
		:TODO;
		:TODO;
	else (no)
	endif
	if (root AND keepcase(root)??? AND (captype is all upper case OR German sharp s)?) then (yes)
		:root = NULL;
		stop
	else (no)
	endif
else (no)
endif

stop

@enduml

PlantUML version 1.2018.01(Sun Jan 28 19:08:22 CET 2018)
(GPL source distribution)
Java Runtime: OpenJDK Runtime Environment
JVM: OpenJDK 64-Bit Server VM
Java Version: 1.8.0_151-8u151-b12-0ubuntu0.17.10.2-b12
Operating System: Linux
OS Version: 4.13.0-36-generic
Default Encoding: UTF-8
Language: en
Country: US
--></g></svg>