<?xml version="1.0" encoding="UTF-8" standalone="no"?><svg xmlns="http://www.w3.org/2000/svg" xmlns:xlink="http://www.w3.org/1999/xlink" contentScriptType="application/ecmascript" contentStyleType="text/css" height="2667px" preserveAspectRatio="none" style="width:743px;height:2667px;" version="1.1" viewBox="0 0 743 2667" width="743px" zoomAndPan="magnify"><defs><linearGradient id="g1t2we1aoii7w40" x1="0%" x2="100%" y1="50%" y2="50%"><stop offset="0%" stop-color="#FFFFFF"/><stop offset="100%" stop-color="#FFFFFF"/></linearGradient><filter height="300%" id="f1t2we1aoii7w4" width="300%" x="-1" y="-1"><feGaussianBlur result="blurOut" stdDeviation="2.0"/><feColorMatrix in="blurOut" result="blurOut2" type="matrix" values="0 0 0 0 0 0 0 0 0 0 0 0 0 0 0 0 0 0 .4 0"/><feOffset dx="4.0" dy="4.0" in="blurOut2" result="blurOut3"/><feBlend in="SourceGraphic" in2="blurOut3" mode="normal"/></filter></defs><g><rect fill="url(#g1t2we1aoii7w40)" height="2667" style="stroke: none; stroke-width: 1.0;" width="743" x="0" y="0"/><text fill="#000000" font-family="sans-serif" font-size="18" lengthAdjust="spacingAndGlyphs" textLength="482" x="129.75" y="26.708">Hunspell - Check Spelling - bool spell(word, info, root)</text><path d="M228,30.9531 L228,56.0859 L407,56.0859 L407,40.9531 L397,30.9531 L228,30.9531 " fill="#FBFB77" filter="url(#f1t2we1aoii7w4)" style="stroke: #A80036; stroke-width: 1.0;"/><path d="M397,30.9531 L397,40.9531 L407,40.9531 L397,30.9531 " fill="#FBFB77" style="stroke: #A80036; stroke-width: 1.0;"/><text fill="#000000" font-family="sans-serif" font-size="13" lengthAdjust="spacingAndGlyphs" textLength="158" x="234" y="48.02">Return FALSE is implied.</text><ellipse cx="437" cy="43.5195" fill="#000000" filter="url(#f1t2we1aoii7w4)" rx="10" ry="10" style="stroke: none; stroke-width: 1.0;"/><rect fill="#FFFFFF" filter="url(#f1t2we1aoii7w4)" height="198.0703" style="stroke: #000000; stroke-width: 2.0;" width="291" x="322.5" y="64.3213"/><path d="M418.5,65.3213 L418.5,73.6182 L408.5,83.6182 L322.5,83.6182 " fill="none" style="stroke: #000000; stroke-width: 2.0;"/><text fill="#000000" font-family="sans-serif" font-size="14" lengthAdjust="spacingAndGlyphs" textLength="86" x="325.5" y="78.3164">initialazition</text><rect fill="#FEFECE" filter="url(#f1t2we1aoii7w4)" height="33.9688" rx="12.5" ry="12.5" style="stroke: #A80036; stroke-width: 1.5;" width="164" x="355" y="100.6182"/><text fill="#000000" font-family="sans-serif" font-size="12" lengthAdjust="spacingAndGlyphs" textLength="144" x="365" y="121.7568">reset I/O parameter info</text><polygon fill="#FEFECE" filter="url(#f1t2we1aoii7w4)" points="344.5,169.5869,529.5,169.5869,541.5,181.5869,529.5,193.5869,344.5,193.5869,332.5,181.5869,344.5,169.5869" style="stroke: #A80036; stroke-width: 1.5;"/><text fill="#000000" font-family="sans-serif" font-size="11" lengthAdjust="spacingAndGlyphs" textLength="14" x="441" y="203.7974">no</text><text fill="#000000" font-family="sans-serif" font-size="11" lengthAdjust="spacingAndGlyphs" textLength="185" x="344.5" y="185.395">word length exceeds maximum?</text><text fill="#000000" font-family="sans-serif" font-size="11" lengthAdjust="spacingAndGlyphs" textLength="20" x="541.5" y="178.9927">yes</text><ellipse cx="581.5" cy="181.5869" fill="none" filter="url(#f1t2we1aoii7w4)" rx="10" ry="10" style="stroke: #000000; stroke-width: 1.0;"/><ellipse cx="582" cy="182.0869" fill="#000000" filter="url(#f1t2we1aoii7w4)" rx="6" ry="6" style="stroke: none; stroke-width: 1.0;"/><rect fill="#FFFFFF" filter="url(#f1t2we1aoii7w4)" height="813.4297" style="stroke: #000000; stroke-width: 2.0;" width="485" x="192.75" y="273.1934"/><path d="M320.75,274.1934 L320.75,282.4902 L310.75,292.4902 L192.75,292.4902 " fill="none" style="stroke: #000000; stroke-width: 2.0;"/><text fill="#000000" font-family="sans-serif" font-size="14" lengthAdjust="spacingAndGlyphs" textLength="118" x="195.75" y="287.1885">input conversion</text><rect fill="#FEFECE" filter="url(#f1t2we1aoii7w4)" height="33.9688" rx="12.5" ry="12.5" style="stroke: #A80036; stroke-width: 1.5;" width="226" x="324" y="357.8926"/><text fill="#000000" font-family="sans-serif" font-size="12" lengthAdjust="spacingAndGlyphs" textLength="206" x="334" y="379.0313">perform input conversion on word</text><polygon fill="#FEFECE" filter="url(#f1t2we1aoii7w4)" points="359.5,309.4902,514.5,309.4902,526.5,321.4902,514.5,333.4902,359.5,333.4902,347.5,321.4902,359.5,309.4902" style="stroke: #A80036; stroke-width: 1.5;"/><text fill="#000000" font-family="sans-serif" font-size="11" lengthAdjust="spacingAndGlyphs" textLength="20" x="441" y="343.7007">yes</text><text fill="#000000" font-family="sans-serif" font-size="11" lengthAdjust="spacingAndGlyphs" textLength="155" x="359.5" y="325.2983">input conversion available?</text><text fill="#000000" font-family="sans-serif" font-size="11" lengthAdjust="spacingAndGlyphs" textLength="14" x="526.5" y="318.896">no</text><polygon fill="#FEFECE" filter="url(#f1t2we1aoii7w4)" points="437,416.2637,449,428.2637,437,440.2637,425,428.2637,437,416.2637" style="stroke: #A80036; stroke-width: 1.5;"/><polygon fill="#FEFECE" filter="url(#f1t2we1aoii7w4)" points="345,475.2637,529,475.2637,541,487.2637,529,499.2637,345,499.2637,333,487.2637,345,475.2637" style="stroke: #A80036; stroke-width: 1.5;"/><text fill="#000000" font-family="sans-serif" font-size="11" lengthAdjust="spacingAndGlyphs" textLength="184" x="345" y="491.0718">input conversion changed word?</text><text fill="#000000" font-family="sans-serif" font-size="11" lengthAdjust="spacingAndGlyphs" textLength="20" x="313" y="484.6694">yes</text><text fill="#000000" font-family="sans-serif" font-size="11" lengthAdjust="spacingAndGlyphs" textLength="14" x="541" y="484.6694">no</text><rect fill="#FEFECE" filter="url(#f1t2we1aoii7w4)" height="89.8438" rx="12.5" ry="12.5" style="stroke: #A80036; stroke-width: 1.5;" width="216" x="212.75" y="509.2637"/><text fill="#000000" font-family="sans-serif" font-size="12" lengthAdjust="spacingAndGlyphs" textLength="196" x="222.75" y="530.4023">clean converted word and store:</text><text fill="#000000" font-family="sans-serif" font-size="12" lengthAdjust="spacingAndGlyphs" textLength="132" x="222.75" y="544.3711">- cleaned word length</text><text fill="#000000" font-family="sans-serif" font-size="12" lengthAdjust="spacingAndGlyphs" textLength="89" x="222.75" y="558.3398">- cleaned word</text><text fill="#000000" font-family="sans-serif" font-size="12" lengthAdjust="spacingAndGlyphs" textLength="183" x="222.75" y="572.3086">- capitalization type "captype"</text><text fill="#000000" font-family="sans-serif" font-size="12" lengthAdjust="spacingAndGlyphs" textLength="168" x="222.75" y="586.2773">- abbreviation count "abbv"</text><rect fill="#FEFECE" filter="url(#f1t2we1aoii7w4)" height="89.8438" rx="12.5" ry="12.5" style="stroke: #A80036; stroke-width: 1.5;" width="209" x="448.75" y="509.2637"/><text fill="#000000" font-family="sans-serif" font-size="12" lengthAdjust="spacingAndGlyphs" textLength="189" x="458.75" y="530.4023">clean (original) word and store:</text><text fill="#000000" font-family="sans-serif" font-size="12" lengthAdjust="spacingAndGlyphs" textLength="132" x="458.75" y="544.3711">- cleaned word length</text><text fill="#000000" font-family="sans-serif" font-size="12" lengthAdjust="spacingAndGlyphs" textLength="89" x="458.75" y="558.3398">- cleaned word</text><text fill="#000000" font-family="sans-serif" font-size="12" lengthAdjust="spacingAndGlyphs" textLength="183" x="458.75" y="572.3086">- capitalization type "captype"</text><text fill="#000000" font-family="sans-serif" font-size="12" lengthAdjust="spacingAndGlyphs" textLength="168" x="458.75" y="586.2773">- abbreviation count "abbv"</text><polygon fill="#FEFECE" filter="url(#f1t2we1aoii7w4)" points="437,605.1074,449,617.1074,437,629.1074,425,617.1074,437,605.1074" style="stroke: #A80036; stroke-width: 1.5;"/><rect fill="#FEFECE" filter="url(#f1t2we1aoii7w4)" height="33.9688" rx="12.5" ry="12.5" style="stroke: #A80036; stroke-width: 1.5;" width="184" x="345" y="712.5098"/><text fill="#000000" font-family="sans-serif" font-size="12" lengthAdjust="spacingAndGlyphs" textLength="164" x="355" y="733.6484">set abbreviation count to 1</text><polygon fill="#FEFECE" filter="url(#f1t2we1aoii7w4)" points="394.5,664.1074,479.5,664.1074,491.5,676.1074,479.5,688.1074,394.5,688.1074,382.5,676.1074,394.5,664.1074" style="stroke: #A80036; stroke-width: 1.5;"/><text fill="#000000" font-family="sans-serif" font-size="11" lengthAdjust="spacingAndGlyphs" textLength="20" x="441" y="698.3179">yes</text><text fill="#000000" font-family="sans-serif" font-size="11" lengthAdjust="spacingAndGlyphs" textLength="85" x="394.5" y="679.9155">client is Mozilla</text><text fill="#000000" font-family="sans-serif" font-size="11" lengthAdjust="spacingAndGlyphs" textLength="14" x="491.5" y="673.5132">no</text><polygon fill="#FEFECE" filter="url(#f1t2we1aoii7w4)" points="437,770.8809,449,782.8809,437,794.8809,425,782.8809,437,770.8809" style="stroke: #A80036; stroke-width: 1.5;"/><rect fill="#FEFECE" filter="url(#f1t2we1aoii7w4)" height="33.9688" rx="12.5" ry="12.5" style="stroke: #A80036; stroke-width: 1.5;" width="94" x="390" y="878.2832"/><text fill="#000000" font-family="sans-serif" font-size="12" lengthAdjust="spacingAndGlyphs" textLength="74" x="400" y="899.4219">return TRUE</text><ellipse cx="437" cy="957.252" fill="none" filter="url(#f1t2we1aoii7w4)" rx="10" ry="10" style="stroke: #000000; stroke-width: 1.0;"/><ellipse cx="437.5" cy="957.752" fill="#000000" filter="url(#f1t2we1aoii7w4)" rx="6" ry="6" style="stroke: none; stroke-width: 1.0;"/><polygon fill="#FEFECE" filter="url(#f1t2we1aoii7w4)" points="284.5,829.8809,589.5,829.8809,601.5,841.8809,589.5,853.8809,284.5,853.8809,272.5,841.8809,284.5,829.8809" style="stroke: #A80036; stroke-width: 1.5;"/><text fill="#000000" font-family="sans-serif" font-size="11" lengthAdjust="spacingAndGlyphs" textLength="20" x="441" y="864.0913">yes</text><text fill="#000000" font-family="sans-serif" font-size="11" lengthAdjust="spacingAndGlyphs" textLength="305" x="284.5" y="845.689">cleaned word length is 0 OR hash manager is empty?</text><text fill="#000000" font-family="sans-serif" font-size="11" lengthAdjust="spacingAndGlyphs" textLength="14" x="601.5" y="839.2866">no</text><rect fill="#FEFECE" filter="url(#f1t2we1aoii7w4)" height="33.9688" rx="12.5" ry="12.5" style="stroke: #A80036; stroke-width: 1.5;" width="78" x="398" y="1032.6543"/><text fill="#000000" font-family="sans-serif" font-size="12" lengthAdjust="spacingAndGlyphs" textLength="58" x="408" y="1053.793">reset root</text><rect fill="#FFFFFF" filter="url(#f1t2we1aoii7w4)" height="293.0391" style="stroke: #000000; stroke-width: 2.0;" width="293" x="290.5" y="1097.4248"/><path d="M537.5,1098.4248 L537.5,1106.7217 L527.5,1116.7217 L290.5,1116.7217 " fill="none" style="stroke: #000000; stroke-width: 2.0;"/><text fill="#000000" font-family="sans-serif" font-size="14" lengthAdjust="spacingAndGlyphs" textLength="237" x="293.5" y="1111.4199">numbers and numeric separators</text><rect fill="#FEFECE" filter="url(#f1t2we1aoii7w4)" height="33.9688" rx="12.5" ry="12.5" style="stroke: #A80036; stroke-width: 1.5;" width="273" x="300.5" y="1133.7217"/><text fill="#000000" font-family="sans-serif" font-size="12" lengthAdjust="spacingAndGlyphs" textLength="253" x="310.5" y="1154.8604">determine number state for cleaned word</text><rect fill="#FEFECE" filter="url(#f1t2we1aoii7w4)" height="33.9688" rx="12.5" ry="12.5" style="stroke: #A80036; stroke-width: 1.5;" width="94" x="390" y="1251.0928"/><text fill="#000000" font-family="sans-serif" font-size="12" lengthAdjust="spacingAndGlyphs" textLength="74" x="400" y="1272.2314">return TRUE</text><ellipse cx="437" cy="1330.0615" fill="none" filter="url(#f1t2we1aoii7w4)" rx="10" ry="10" style="stroke: #000000; stroke-width: 1.0;"/><ellipse cx="437.5" cy="1330.5615" fill="#000000" filter="url(#f1t2we1aoii7w4)" rx="6" ry="6" style="stroke: none; stroke-width: 1.0;"/><polygon fill="#FEFECE" filter="url(#f1t2we1aoii7w4)" points="360,1202.6904,514,1202.6904,526,1214.6904,514,1226.6904,360,1226.6904,348,1214.6904,360,1202.6904" style="stroke: #A80036; stroke-width: 1.5;"/><text fill="#000000" font-family="sans-serif" font-size="11" lengthAdjust="spacingAndGlyphs" textLength="20" x="441" y="1236.9009">yes</text><text fill="#000000" font-family="sans-serif" font-size="11" lengthAdjust="spacingAndGlyphs" textLength="154" x="360" y="1218.4985">cleaned word is a number?</text><text fill="#000000" font-family="sans-serif" font-size="11" lengthAdjust="spacingAndGlyphs" textLength="14" x="526" y="1212.0962">no</text><rect fill="#FFFFFF" filter="url(#f1t2we1aoii7w4)" height="485.8125" style="stroke: #000000; stroke-width: 2.0;" width="722.5" x="10" y="1401.2656"/><path d="M150,1402.2656 L150,1410.5625 L140,1420.5625 L10,1420.5625 " fill="none" style="stroke: #000000; stroke-width: 2.0;"/><text fill="#000000" font-family="sans-serif" font-size="14" lengthAdjust="spacingAndGlyphs" textLength="130" x="13" y="1415.2607">capitalization type</text><polygon fill="#FEFECE" filter="url(#f1t2we1aoii7w4)" points="269,1437.5625,605,1437.5625,617,1449.5625,605,1461.5625,269,1461.5625,257,1449.5625,269,1437.5625" style="stroke: #A80036; stroke-width: 1.5;"/><text fill="#000000" font-family="sans-serif" font-size="11" lengthAdjust="spacingAndGlyphs" textLength="336" x="269" y="1453.3706">captype is camel case, pascal case OR lower/neutral case?</text><text fill="#000000" font-family="sans-serif" font-size="11" lengthAdjust="spacingAndGlyphs" textLength="20" x="237" y="1446.9683">yes</text><text fill="#000000" font-family="sans-serif" font-size="11" lengthAdjust="spacingAndGlyphs" textLength="14" x="617" y="1446.9683">no</text><rect fill="#FEFECE" filter="url(#f1t2we1aoii7w4)" height="33.9688" rx="12.5" ry="12.5" style="stroke: #A80036; stroke-width: 1.5;" width="185" x="154.5" y="1519.9648"/><text fill="#000000" font-family="sans-serif" font-size="12" lengthAdjust="spacingAndGlyphs" textLength="165" x="164.5" y="1541.1035">add SPELL_ORIGCAP to info</text><polygon fill="#FEFECE" filter="url(#f1t2we1aoii7w4)" points="135.5,1471.5625,358.5,1471.5625,370.5,1483.5625,358.5,1495.5625,135.5,1495.5625,123.5,1483.5625,135.5,1471.5625" style="stroke: #A80036; stroke-width: 1.5;"/><text fill="#000000" font-family="sans-serif" font-size="11" lengthAdjust="spacingAndGlyphs" textLength="20" x="251" y="1505.7729">yes</text><text fill="#000000" font-family="sans-serif" font-size="11" lengthAdjust="spacingAndGlyphs" textLength="223" x="135.5" y="1487.3706">captype is camel case OR pascal case?</text><text fill="#000000" font-family="sans-serif" font-size="11" lengthAdjust="spacingAndGlyphs" textLength="14" x="370.5" y="1480.9683">no</text><polygon fill="#FEFECE" filter="url(#f1t2we1aoii7w4)" points="247,1578.3359,259,1590.3359,247,1602.3359,235,1590.3359,247,1578.3359" style="stroke: #A80036; stroke-width: 1.5;"/><rect fill="#87CEEB" filter="url(#f1t2we1aoii7w4)" height="33.9688" rx="12.5" ry="12.5" style="stroke: #A80036; stroke-width: 1.5;" width="287" x="103.5" y="1637.3359"/><text fill="#000000" font-family="sans-serif" font-size="12" lengthAdjust="spacingAndGlyphs" textLength="267" x="113.5" y="1658.4746">root = check_word(cleaned word, info, root)</text><rect fill="#87CEEB" filter="url(#f1t2we1aoii7w4)" height="33.9688" rx="12.5" ry="12.5" style="stroke: #A80036; stroke-width: 1.5;" width="414" x="40" y="1754.707"/><text fill="#000000" font-family="sans-serif" font-size="12" lengthAdjust="spacingAndGlyphs" textLength="394" x="50" y="1775.8457">root = check_word(cleaned word period added at end, info, root)</text><polygon fill="#FEFECE" filter="url(#f1t2we1aoii7w4)" points="181.5,1706.3047,312.5,1706.3047,324.5,1718.3047,312.5,1730.3047,181.5,1730.3047,169.5,1718.3047,181.5,1706.3047" style="stroke: #A80036; stroke-width: 1.5;"/><text fill="#000000" font-family="sans-serif" font-size="11" lengthAdjust="spacingAndGlyphs" textLength="20" x="251" y="1740.5151">yes</text><text fill="#000000" font-family="sans-serif" font-size="11" lengthAdjust="spacingAndGlyphs" textLength="131" x="181.5" y="1722.1128">abbv &gt; 0 AND no root?</text><text fill="#000000" font-family="sans-serif" font-size="11" lengthAdjust="spacingAndGlyphs" textLength="14" x="324.5" y="1715.7104">no</text><polygon fill="#FEFECE" filter="url(#f1t2we1aoii7w4)" points="247,1813.0781,259,1825.0781,247,1837.0781,235,1825.0781,247,1813.0781" style="stroke: #A80036; stroke-width: 1.5;"/><rect fill="#87CEEB" filter="url(#f1t2we1aoii7w4)" height="47.9375" rx="12.5" ry="12.5" style="stroke: #A80036; stroke-width: 1.5;" width="171" x="541.5" y="1471.5625"/><text fill="#000000" font-family="sans-serif" font-size="12" lengthAdjust="spacingAndGlyphs" textLength="101" x="551.5" y="1492.7012">Check Spelling A</text><text fill="#000000" font-family="sans-serif" font-size="12" lengthAdjust="spacingAndGlyphs" textLength="151" x="551.5" y="1506.6699">spell upper or capitalized</text><polygon fill="#FEFECE" filter="url(#f1t2we1aoii7w4)" points="437,1843.0781,449,1855.0781,437,1867.0781,425,1855.0781,437,1843.0781" style="stroke: #A80036; stroke-width: 1.5;"/><rect fill="#FFFFFF" filter="url(#f1t2we1aoii7w4)" height="603.6172" style="stroke: #000000; stroke-width: 2.0;" width="362.5" x="296.5" y="1897.8799"/><path d="M421.5,1898.8799 L421.5,1907.1768 L411.5,1917.1768 L296.5,1917.1768 " fill="none" style="stroke: #000000; stroke-width: 2.0;"/><text fill="#000000" font-family="sans-serif" font-size="14" lengthAdjust="spacingAndGlyphs" textLength="115" x="299.5" y="1911.875">forbidden words</text><rect fill="#FEFECE" filter="url(#f1t2we1aoii7w4)" height="33.9688" rx="12.5" ry="12.5" style="stroke: #A80036; stroke-width: 1.5;" width="169" x="352.5" y="2030.9814"/><text fill="#000000" font-family="sans-serif" font-size="12" lengthAdjust="spacingAndGlyphs" textLength="149" x="362.5" y="2052.1201">add SPELL_WARN to info</text><polygon fill="#FEFECE" filter="url(#f1t2we1aoii7w4)" points="343,2099.9502,531,2099.9502,543,2111.9502,531,2123.9502,343,2123.9502,331,2111.9502,343,2099.9502" style="stroke: #A80036; stroke-width: 1.5;"/><text fill="#000000" font-family="sans-serif" font-size="11" lengthAdjust="spacingAndGlyphs" textLength="14" x="441" y="2134.1606">no</text><text fill="#000000" font-family="sans-serif" font-size="11" lengthAdjust="spacingAndGlyphs" textLength="188" x="343" y="2115.7583">generic setting forbids warnings?</text><text fill="#000000" font-family="sans-serif" font-size="11" lengthAdjust="spacingAndGlyphs" textLength="20" x="543" y="2109.356">yes</text><ellipse cx="583" cy="2111.9502" fill="none" filter="url(#f1t2we1aoii7w4)" rx="10" ry="10" style="stroke: #000000; stroke-width: 1.0;"/><ellipse cx="583.5" cy="2112.4502" fill="#000000" filter="url(#f1t2we1aoii7w4)" rx="6" ry="6" style="stroke: none; stroke-width: 1.0;"/><rect fill="#FEFECE" filter="url(#f1t2we1aoii7w4)" height="33.9688" rx="12.5" ry="12.5" style="stroke: #A80036; stroke-width: 1.5;" width="94" x="390" y="2207.7549"/><text fill="#000000" font-family="sans-serif" font-size="12" lengthAdjust="spacingAndGlyphs" textLength="74" x="400" y="2228.8936">return TRUE</text><ellipse cx="437" cy="2286.7236" fill="none" filter="url(#f1t2we1aoii7w4)" rx="10" ry="10" style="stroke: #000000; stroke-width: 1.0;"/><ellipse cx="437.5" cy="2287.2236" fill="#000000" filter="url(#f1t2we1aoii7w4)" rx="6" ry="6" style="stroke: none; stroke-width: 1.0;"/><polygon fill="#FEFECE" filter="url(#f1t2we1aoii7w4)" points="328.5,1982.5791,545.5,1982.5791,557.5,1994.5791,545.5,2006.5791,328.5,2006.5791,316.5,1994.5791,328.5,1982.5791" style="stroke: #A80036; stroke-width: 1.5;"/><text fill="#000000" font-family="sans-serif" font-size="11" lengthAdjust="spacingAndGlyphs" textLength="20" x="441" y="2016.7896">yes</text><text fill="#000000" font-family="sans-serif" font-size="11" lengthAdjust="spacingAndGlyphs" textLength="217" x="328.5" y="1998.3872">warning flag is present in root's flags?</text><text fill="#000000" font-family="sans-serif" font-size="11" lengthAdjust="spacingAndGlyphs" textLength="14" x="557.5" y="1991.9849">no</text><rect fill="#FEFECE" filter="url(#f1t2we1aoii7w4)" height="33.9688" rx="12.5" ry="12.5" style="stroke: #A80036; stroke-width: 1.5;" width="94" x="390" y="2362.126"/><text fill="#000000" font-family="sans-serif" font-size="12" lengthAdjust="spacingAndGlyphs" textLength="74" x="400" y="2383.2646">return TRUE</text><ellipse cx="437" cy="2441.0947" fill="none" filter="url(#f1t2we1aoii7w4)" rx="10" ry="10" style="stroke: #000000; stroke-width: 1.0;"/><ellipse cx="437.5" cy="2441.5947" fill="#000000" filter="url(#f1t2we1aoii7w4)" rx="6" ry="6" style="stroke: none; stroke-width: 1.0;"/><polygon fill="#FEFECE" filter="url(#f1t2we1aoii7w4)" points="422.5,1934.1768,451.5,1934.1768,463.5,1946.1768,451.5,1958.1768,422.5,1958.1768,410.5,1946.1768,422.5,1934.1768" style="stroke: #A80036; stroke-width: 1.5;"/><text fill="#000000" font-family="sans-serif" font-size="11" lengthAdjust="spacingAndGlyphs" textLength="20" x="441" y="1968.3872">yes</text><text fill="#000000" font-family="sans-serif" font-size="11" lengthAdjust="spacingAndGlyphs" textLength="29" x="422.5" y="1949.9849">root?</text><text fill="#000000" font-family="sans-serif" font-size="11" lengthAdjust="spacingAndGlyphs" textLength="14" x="463.5" y="1943.5825">no</text><rect fill="#FFFFFF" filter="url(#f1t2we1aoii7w4)" height="104.2344" style="stroke: #000000; stroke-width: 2.0;" width="263" x="305.5" y="2512.2988"/><path d="M558.5,2513.2988 L558.5,2521.5957 L548.5,2531.5957 L305.5,2531.5957 " fill="none" style="stroke: #000000; stroke-width: 2.0;"/><text fill="#000000" font-family="sans-serif" font-size="14" lengthAdjust="spacingAndGlyphs" textLength="243" x="308.5" y="2526.2939">recursive breaking at break points</text><rect fill="#87CEEB" filter="url(#f1t2we1aoii7w4)" height="47.9375" rx="12.5" ry="12.5" style="stroke: #A80036; stroke-width: 1.5;" width="140" x="367" y="2548.5957"/><text fill="#000000" font-family="sans-serif" font-size="12" lengthAdjust="spacingAndGlyphs" textLength="101" x="377" y="2569.7344">Check Spelling B</text><text fill="#000000" font-family="sans-serif" font-size="12" lengthAdjust="spacingAndGlyphs" textLength="120" x="377" y="2583.7031">recurse breakpoints</text><ellipse cx="437" cy="2646.5332" fill="none" filter="url(#f1t2we1aoii7w4)" rx="10" ry="10" style="stroke: #000000; stroke-width: 1.0;"/><ellipse cx="437.5" cy="2647.0332" fill="#000000" filter="url(#f1t2we1aoii7w4)" rx="6" ry="6" style="stroke: none; stroke-width: 1.0;"/><line style="stroke: #A80036; stroke-width: 1.5;" x1="437" x2="437" y1="193.5869" y2="309.4902"/><polygon fill="#A80036" points="433,299.4902,437,309.4902,441,299.4902,437,303.4902" style="stroke: #A80036; stroke-width: 1.0;"/><line style="stroke: #A80036; stroke-width: 1.5;" x1="541.5" x2="571.5" y1="181.5869" y2="181.5869"/><polygon fill="#A80036" points="561.5,177.5869,571.5,181.5869,561.5,185.5869,565.5,181.5869" style="stroke: #A80036; stroke-width: 1.0;"/><line style="stroke: #A80036; stroke-width: 1.5;" x1="437" x2="437" y1="134.5869" y2="169.5869"/><polygon fill="#A80036" points="433,159.5869,437,169.5869,441,159.5869,437,163.5869" style="stroke: #A80036; stroke-width: 1.0;"/><line style="stroke: #A80036; stroke-width: 1.5;" x1="437" x2="437" y1="53.5195" y2="100.6182"/><polygon fill="#A80036" points="433,90.6182,437,100.6182,441,90.6182,437,94.6182" style="stroke: #A80036; stroke-width: 1.0;"/><line style="stroke: #A80036; stroke-width: 1.5;" x1="437" x2="437" y1="333.4902" y2="357.8926"/><polygon fill="#A80036" points="433,347.8926,437,357.8926,441,347.8926,437,351.8926" style="stroke: #A80036; stroke-width: 1.0;"/><line style="stroke: #A80036; stroke-width: 1.5;" x1="526.5" x2="560" y1="321.4902" y2="321.4902"/><polygon fill="#A80036" points="556,364.877,560,374.877,564,364.877,560,368.877" style="stroke: #A80036; stroke-width: 1.5;"/><line style="stroke: #A80036; stroke-width: 1.5;" x1="560" x2="560" y1="321.4902" y2="428.2637"/><line style="stroke: #A80036; stroke-width: 1.5;" x1="560" x2="449" y1="428.2637" y2="428.2637"/><polygon fill="#A80036" points="459,424.2637,449,428.2637,459,432.2637,455,428.2637" style="stroke: #A80036; stroke-width: 1.0;"/><line style="stroke: #A80036; stroke-width: 1.5;" x1="437" x2="437" y1="391.8613" y2="416.2637"/><polygon fill="#A80036" points="433,406.2637,437,416.2637,441,406.2637,437,410.2637" style="stroke: #A80036; stroke-width: 1.0;"/><line style="stroke: #A80036; stroke-width: 1.5;" x1="333" x2="320.75" y1="487.2637" y2="487.2637"/><line style="stroke: #A80036; stroke-width: 1.5;" x1="320.75" x2="320.75" y1="487.2637" y2="509.2637"/><polygon fill="#A80036" points="316.75,499.2637,320.75,509.2637,324.75,499.2637,320.75,503.2637" style="stroke: #A80036; stroke-width: 1.0;"/><line style="stroke: #A80036; stroke-width: 1.5;" x1="541" x2="553.25" y1="487.2637" y2="487.2637"/><line style="stroke: #A80036; stroke-width: 1.5;" x1="553.25" x2="553.25" y1="487.2637" y2="509.2637"/><polygon fill="#A80036" points="549.25,499.2637,553.25,509.2637,557.25,499.2637,553.25,503.2637" style="stroke: #A80036; stroke-width: 1.0;"/><line style="stroke: #A80036; stroke-width: 1.5;" x1="320.75" x2="320.75" y1="599.1074" y2="617.1074"/><line style="stroke: #A80036; stroke-width: 1.5;" x1="320.75" x2="425" y1="617.1074" y2="617.1074"/><polygon fill="#A80036" points="415,613.1074,425,617.1074,415,621.1074,419,617.1074" style="stroke: #A80036; stroke-width: 1.0;"/><line style="stroke: #A80036; stroke-width: 1.5;" x1="553.25" x2="553.25" y1="599.1074" y2="617.1074"/><line style="stroke: #A80036; stroke-width: 1.5;" x1="553.25" x2="449" y1="617.1074" y2="617.1074"/><polygon fill="#A80036" points="459,613.1074,449,617.1074,459,621.1074,455,617.1074" style="stroke: #A80036; stroke-width: 1.0;"/><line style="stroke: #A80036; stroke-width: 1.5;" x1="437" x2="437" y1="440.2637" y2="475.2637"/><polygon fill="#A80036" points="433,465.2637,437,475.2637,441,465.2637,437,469.2637" style="stroke: #A80036; stroke-width: 1.0;"/><line style="stroke: #A80036; stroke-width: 1.5;" x1="437" x2="437" y1="688.1074" y2="712.5098"/><polygon fill="#A80036" points="433,702.5098,437,712.5098,441,702.5098,437,706.5098" style="stroke: #A80036; stroke-width: 1.0;"/><line style="stroke: #A80036; stroke-width: 1.5;" x1="491.5" x2="539" y1="676.1074" y2="676.1074"/><polygon fill="#A80036" points="535,719.4941,539,729.4941,543,719.4941,539,723.4941" style="stroke: #A80036; stroke-width: 1.5;"/><line style="stroke: #A80036; stroke-width: 1.5;" x1="539" x2="539" y1="676.1074" y2="782.8809"/><line style="stroke: #A80036; stroke-width: 1.5;" x1="539" x2="449" y1="782.8809" y2="782.8809"/><polygon fill="#A80036" points="459,778.8809,449,782.8809,459,786.8809,455,782.8809" style="stroke: #A80036; stroke-width: 1.0;"/><line style="stroke: #A80036; stroke-width: 1.5;" x1="437" x2="437" y1="746.4785" y2="770.8809"/><polygon fill="#A80036" points="433,760.8809,437,770.8809,441,760.8809,437,764.8809" style="stroke: #A80036; stroke-width: 1.0;"/><line style="stroke: #A80036; stroke-width: 1.5;" x1="437" x2="437" y1="629.1074" y2="664.1074"/><polygon fill="#A80036" points="433,654.1074,437,664.1074,441,654.1074,437,658.1074" style="stroke: #A80036; stroke-width: 1.0;"/><line style="stroke: #A80036; stroke-width: 1.5;" x1="437" x2="437" y1="912.252" y2="947.252"/><polygon fill="#A80036" points="433,937.252,437,947.252,441,937.252,437,941.252" style="stroke: #A80036; stroke-width: 1.0;"/><line style="stroke: #A80036; stroke-width: 1.5;" x1="437" x2="437" y1="853.8809" y2="878.2832"/><polygon fill="#A80036" points="433,868.2832,437,878.2832,441,868.2832,437,872.2832" style="stroke: #A80036; stroke-width: 1.0;"/><line style="stroke: #A80036; stroke-width: 1.5;" x1="601.5" x2="613.5" y1="841.8809" y2="841.8809"/><polygon fill="#A80036" points="609.5,909.7676,613.5,919.7676,617.5,909.7676,613.5,913.7676" style="stroke: #A80036; stroke-width: 1.5;"/><line style="stroke: #A80036; stroke-width: 1.5;" x1="613.5" x2="613.5" y1="841.8809" y2="997.6543"/><line style="stroke: #A80036; stroke-width: 1.5;" x1="613.5" x2="437" y1="997.6543" y2="997.6543"/><line style="stroke: #A80036; stroke-width: 1.5;" x1="437" x2="437" y1="997.6543" y2="1032.6543"/><polygon fill="#A80036" points="433,1022.6543,437,1032.6543,441,1022.6543,437,1026.6543" style="stroke: #A80036; stroke-width: 1.0;"/><line style="stroke: #A80036; stroke-width: 1.5;" x1="437" x2="437" y1="794.8809" y2="829.8809"/><polygon fill="#A80036" points="433,819.8809,437,829.8809,441,819.8809,437,823.8809" style="stroke: #A80036; stroke-width: 1.0;"/><line style="stroke: #A80036; stroke-width: 1.5;" x1="437" x2="437" y1="1285.0615" y2="1320.0615"/><polygon fill="#A80036" points="433,1310.0615,437,1320.0615,441,1310.0615,437,1314.0615" style="stroke: #A80036; stroke-width: 1.0;"/><line style="stroke: #A80036; stroke-width: 1.5;" x1="437" x2="437" y1="1226.6904" y2="1251.0928"/><polygon fill="#A80036" points="433,1241.0928,437,1251.0928,441,1241.0928,437,1245.0928" style="stroke: #A80036; stroke-width: 1.0;"/><line style="stroke: #A80036; stroke-width: 1.5;" x1="526" x2="538" y1="1214.6904" y2="1214.6904"/><polygon fill="#A80036" points="534,1282.5771,538,1292.5771,542,1282.5771,538,1286.5771" style="stroke: #A80036; stroke-width: 1.5;"/><line style="stroke: #A80036; stroke-width: 1.5;" x1="538" x2="538" y1="1214.6904" y2="1370.4639"/><line style="stroke: #A80036; stroke-width: 1.5;" x1="538" x2="437" y1="1370.4639" y2="1370.4639"/><line style="stroke: #A80036; stroke-width: 1.5;" x1="437" x2="437" y1="1370.4639" y2="1437.5625"/><polygon fill="#A80036" points="433,1427.5625,437,1437.5625,441,1427.5625,437,1431.5625" style="stroke: #A80036; stroke-width: 1.0;"/><line style="stroke: #A80036; stroke-width: 1.5;" x1="437" x2="437" y1="1167.6904" y2="1202.6904"/><polygon fill="#A80036" points="433,1192.6904,437,1202.6904,441,1192.6904,437,1196.6904" style="stroke: #A80036; stroke-width: 1.0;"/><line style="stroke: #A80036; stroke-width: 1.5;" x1="437" x2="437" y1="1066.623" y2="1133.7217"/><polygon fill="#A80036" points="433,1123.7217,437,1133.7217,441,1123.7217,437,1127.7217" style="stroke: #A80036; stroke-width: 1.0;"/><line style="stroke: #A80036; stroke-width: 1.5;" x1="247" x2="247" y1="1495.5625" y2="1519.9648"/><polygon fill="#A80036" points="243,1509.9648,247,1519.9648,251,1509.9648,247,1513.9648" style="stroke: #A80036; stroke-width: 1.0;"/><line style="stroke: #A80036; stroke-width: 1.5;" x1="370.5" x2="382.5" y1="1483.5625" y2="1483.5625"/><polygon fill="#A80036" points="378.5,1526.9492,382.5,1536.9492,386.5,1526.9492,382.5,1530.9492" style="stroke: #A80036; stroke-width: 1.5;"/><line style="stroke: #A80036; stroke-width: 1.5;" x1="382.5" x2="382.5" y1="1483.5625" y2="1590.3359"/><line style="stroke: #A80036; stroke-width: 1.5;" x1="382.5" x2="259" y1="1590.3359" y2="1590.3359"/><polygon fill="#A80036" points="269,1586.3359,259,1590.3359,269,1594.3359,265,1590.3359" style="stroke: #A80036; stroke-width: 1.0;"/><line style="stroke: #A80036; stroke-width: 1.5;" x1="247" x2="247" y1="1553.9336" y2="1578.3359"/><polygon fill="#A80036" points="243,1568.3359,247,1578.3359,251,1568.3359,247,1572.3359" style="stroke: #A80036; stroke-width: 1.0;"/><line style="stroke: #A80036; stroke-width: 1.5;" x1="247" x2="247" y1="1602.3359" y2="1637.3359"/><polygon fill="#A80036" points="243,1627.3359,247,1637.3359,251,1627.3359,247,1631.3359" style="stroke: #A80036; stroke-width: 1.0;"/><line style="stroke: #A80036; stroke-width: 1.5;" x1="247" x2="247" y1="1730.3047" y2="1754.707"/><polygon fill="#A80036" points="243,1744.707,247,1754.707,251,1744.707,247,1748.707" style="stroke: #A80036; stroke-width: 1.0;"/><line style="stroke: #A80036; stroke-width: 1.5;" x1="324.5" x2="464" y1="1718.3047" y2="1718.3047"/><polygon fill="#A80036" points="460,1761.6914,464,1771.6914,468,1761.6914,464,1765.6914" style="stroke: #A80036; stroke-width: 1.5;"/><line style="stroke: #A80036; stroke-width: 1.5;" x1="464" x2="464" y1="1718.3047" y2="1825.0781"/><line style="stroke: #A80036; stroke-width: 1.5;" x1="464" x2="259" y1="1825.0781" y2="1825.0781"/><polygon fill="#A80036" points="269,1821.0781,259,1825.0781,269,1829.0781,265,1825.0781" style="stroke: #A80036; stroke-width: 1.0;"/><line style="stroke: #A80036; stroke-width: 1.5;" x1="247" x2="247" y1="1788.6758" y2="1813.0781"/><polygon fill="#A80036" points="243,1803.0781,247,1813.0781,251,1803.0781,247,1807.0781" style="stroke: #A80036; stroke-width: 1.0;"/><line style="stroke: #A80036; stroke-width: 1.5;" x1="247" x2="247" y1="1671.3047" y2="1706.3047"/><polygon fill="#A80036" points="243,1696.3047,247,1706.3047,251,1696.3047,247,1700.3047" style="stroke: #A80036; stroke-width: 1.0;"/><line style="stroke: #A80036; stroke-width: 1.5;" x1="257" x2="247" y1="1449.5625" y2="1449.5625"/><line style="stroke: #A80036; stroke-width: 1.5;" x1="247" x2="247" y1="1449.5625" y2="1471.5625"/><polygon fill="#A80036" points="243,1461.5625,247,1471.5625,251,1461.5625,247,1465.5625" style="stroke: #A80036; stroke-width: 1.0;"/><line style="stroke: #A80036; stroke-width: 1.5;" x1="617" x2="627" y1="1449.5625" y2="1449.5625"/><line style="stroke: #A80036; stroke-width: 1.5;" x1="627" x2="627" y1="1449.5625" y2="1471.5625"/><polygon fill="#A80036" points="623,1461.5625,627,1471.5625,631,1461.5625,627,1465.5625" style="stroke: #A80036; stroke-width: 1.0;"/><line style="stroke: #A80036; stroke-width: 1.5;" x1="247" x2="247" y1="1837.0781" y2="1855.0781"/><line style="stroke: #A80036; stroke-width: 1.5;" x1="247" x2="425" y1="1855.0781" y2="1855.0781"/><polygon fill="#A80036" points="415,1851.0781,425,1855.0781,415,1859.0781,419,1855.0781" style="stroke: #A80036; stroke-width: 1.0;"/><line style="stroke: #A80036; stroke-width: 1.5;" x1="627" x2="627" y1="1519.5" y2="1855.0781"/><line style="stroke: #A80036; stroke-width: 1.5;" x1="627" x2="449" y1="1855.0781" y2="1855.0781"/><polygon fill="#A80036" points="459,1851.0781,449,1855.0781,459,1859.0781,455,1855.0781" style="stroke: #A80036; stroke-width: 1.0;"/><line style="stroke: #A80036; stroke-width: 1.5;" x1="437" x2="437" y1="2123.9502" y2="2207.7549"/><polygon fill="#A80036" points="433,2197.7549,437,2207.7549,441,2197.7549,437,2201.7549" style="stroke: #A80036; stroke-width: 1.0;"/><line style="stroke: #A80036; stroke-width: 1.5;" x1="543" x2="573" y1="2111.9502" y2="2111.9502"/><polygon fill="#A80036" points="563,2107.9502,573,2111.9502,563,2115.9502,567,2111.9502" style="stroke: #A80036; stroke-width: 1.0;"/><line style="stroke: #A80036; stroke-width: 1.5;" x1="437" x2="437" y1="2064.9502" y2="2099.9502"/><polygon fill="#A80036" points="433,2089.9502,437,2099.9502,441,2089.9502,437,2093.9502" style="stroke: #A80036; stroke-width: 1.0;"/><line style="stroke: #A80036; stroke-width: 1.5;" x1="437" x2="437" y1="2241.7236" y2="2276.7236"/><polygon fill="#A80036" points="433,2266.7236,437,2276.7236,441,2266.7236,437,2270.7236" style="stroke: #A80036; stroke-width: 1.0;"/><line style="stroke: #A80036; stroke-width: 1.5;" x1="437" x2="437" y1="2006.5791" y2="2030.9814"/><polygon fill="#A80036" points="433,2020.9814,437,2030.9814,441,2020.9814,437,2024.9814" style="stroke: #A80036; stroke-width: 1.0;"/><line style="stroke: #A80036; stroke-width: 1.5;" x1="557.5" x2="615" y1="1994.5791" y2="1994.5791"/><polygon fill="#A80036" points="611,2150.8525,615,2160.8525,619,2150.8525,615,2154.8525" style="stroke: #A80036; stroke-width: 1.5;"/><line style="stroke: #A80036; stroke-width: 1.5;" x1="615" x2="615" y1="1994.5791" y2="2327.126"/><line style="stroke: #A80036; stroke-width: 1.5;" x1="615" x2="437" y1="2327.126" y2="2327.126"/><line style="stroke: #A80036; stroke-width: 1.5;" x1="437" x2="437" y1="2327.126" y2="2362.126"/><polygon fill="#A80036" points="433,2352.126,437,2362.126,441,2352.126,437,2356.126" style="stroke: #A80036; stroke-width: 1.0;"/><line style="stroke: #A80036; stroke-width: 1.5;" x1="437" x2="437" y1="2396.0947" y2="2431.0947"/><polygon fill="#A80036" points="433,2421.0947,437,2431.0947,441,2421.0947,437,2425.0947" style="stroke: #A80036; stroke-width: 1.0;"/><line style="stroke: #A80036; stroke-width: 1.5;" x1="437" x2="437" y1="1958.1768" y2="1982.5791"/><polygon fill="#A80036" points="433,1972.5791,437,1982.5791,441,1972.5791,437,1976.5791" style="stroke: #A80036; stroke-width: 1.0;"/><line style="stroke: #A80036; stroke-width: 1.5;" x1="463.5" x2="637" y1="1946.1768" y2="1946.1768"/><polygon fill="#A80036" points="633,2203.8369,637,2213.8369,641,2203.8369,637,2207.8369" style="stroke: #A80036; stroke-width: 1.5;"/><line style="stroke: #A80036; stroke-width: 1.5;" x1="637" x2="637" y1="1946.1768" y2="2481.4971"/><line style="stroke: #A80036; stroke-width: 1.5;" x1="637" x2="437" y1="2481.4971" y2="2481.4971"/><line style="stroke: #A80036; stroke-width: 1.5;" x1="437" x2="437" y1="2481.4971" y2="2548.5957"/><polygon fill="#A80036" points="433,2538.5957,437,2548.5957,441,2538.5957,437,2542.5957" style="stroke: #A80036; stroke-width: 1.0;"/><line style="stroke: #A80036; stroke-width: 1.5;" x1="437" x2="437" y1="1867.0781" y2="1934.1768"/><polygon fill="#A80036" points="433,1924.1768,437,1934.1768,441,1924.1768,437,1928.1768" style="stroke: #A80036; stroke-width: 1.0;"/><line style="stroke: #A80036; stroke-width: 1.5;" x1="437" x2="437" y1="2596.5332" y2="2636.5332"/><polygon fill="#A80036" points="433,2626.5332,437,2636.5332,441,2626.5332,437,2630.5332" style="stroke: #A80036; stroke-width: 1.0;"/><!--
@startuml
skinparam backgroundcolor White|White

title Hunspell - Check Spelling - bool spell(word, info, root)

start
floating note: Return FALSE is implied.

partition "initialazition" {
	:reset I/O parameter info;
	if (word length exceeds maximum?) then (yes)
		stop
	else (no)
	endif
}

partition "input conversion" {
	if (input conversion available?) then (yes)
		:perform input conversion on word;
	else (no)
	endif
	if (input conversion changed word?) then (yes)
		:clean converted word and store:\n- cleaned word length\n- cleaned word\n- capitalization type "captype"\n- abbreviation count "abbv";
	else (no)
		:clean (original) word and store:\n- cleaned word length\n- cleaned word\n- capitalization type "captype"\n- abbreviation count "abbv";
	endif

	if (client is Mozilla) then (yes)
		:set abbreviation count to 1;
	else (no)
	endif

	if (cleaned word length is 0 OR hash manager is empty?) then (yes)
		:return TRUE;
		stop
	else (no)
	endif
	:reset root;
}

partition "numbers and numeric separators" {
	:determine number state for cleaned word;
	if (cleaned word is a number?) then (yes)
		:return TRUE;
		stop
	else (no)
	endif
}

partition "capitalization type" {
	if (captype is camel case, pascal case OR lower/neutral case?) then(yes)
		if (captype is camel case OR pascal case?) then(yes)
			:add SPELL_ORIGCAP to info;
		else (no)
		endif
		#skyblue:root = check_word(cleaned word, info, root);
		if (abbv > 0 AND no root?) then (yes)
			#skyblue:root = check_word(cleaned word period added at end, info, root);
		else (no)
		endif
	else (no)
		#skyblue:Check Spelling A\nspell upper or capitalized;
	endif
}

partition "forbidden words" {
	if (root?) then (yes)
		if (warning flag is present in root's flags?) then (yes)
			:add SPELL_WARN to info;
			if (generic setting forbids warnings?) then (yes)
				stop
			else (no)
			endif
			:return TRUE;
			stop
		else (no)
		endif
		:return TRUE;
		stop
	else (no)
	endif
}

partition "recursive breaking at break points" {
	#skyblue:Check Spelling B\nrecurse breakpoints;
}

stop

@enduml

PlantUML version 1.2018.01(Sun Jan 28 19:08:22 CET 2018)
(GPL source distribution)
Java Runtime: OpenJDK Runtime Environment
JVM: OpenJDK 64-Bit Server VM
Java Version: 1.8.0_151-8u151-b12-0ubuntu0.17.10.2-b12
Operating System: Linux
OS Version: 4.13.0-36-generic
Default Encoding: UTF-8
Language: en
Country: US
--></g></svg>