<?xml version="1.0" encoding="UTF-8" standalone="yes"?><svg xmlns="http://www.w3.org/2000/svg" xmlns:xlink="http://www.w3.org/1999/xlink" height="1842px" style="width:768px;height:1842px;" version="1.1" viewBox="0 0 768 1842" width="768px"><defs><linearGradient id="gr0" x1="0%" x2="100%" y1="50%" y2="50%"><stop offset="0%" stop-color="#FFFFFF"/><stop offset="100%" stop-color="#FFFFFF"/></linearGradient><filter height="300%" id="f1" width="300%" x="-1" y="-1"><feGaussianBlur result="blurOut" stdDeviation="2.0"/><feColorMatrix in="blurOut" result="blurOut2" type="matrix" values="0 0 0 0 0 0 0 0 0 0 0 0 0 0 0 0 0 0 .4 0"/><feOffset dx="4.0" dy="4.0" in="blurOut2" result="blurOut3"/><feBlend in="SourceGraphic" in2="blurOut3" mode="normal"/></filter></defs><g><rect fill="url(#gr0)" height="1842" style="stroke: none; stroke-width: 1.0;" width="768" x="0" y="0"/><text fill="#000000" font-family="sans-serif" font-size="18" lengthAdjust="spacingAndGlyphs" textLength="200" x="285.5313" y="26.708">Hunspell - Spell (spell)</text><ellipse cx="503.5625" cy="40.9531" fill="#000000" filter="url(#f1)" rx="10" ry="10" style="stroke: none; stroke-width: 1.0;"/><rect fill="#FFFFFF" filter="url(#f1)" height="185.2656" style="stroke: #000000; stroke-width: 2.0;" width="385" x="293.5625" y="61.7549"/><path d="M370.5625,62.7549 L370.5625,71.0518 L360.5625,81.0518 L293.5625,81.0518 " fill="#FFFFFF" style="stroke: #000000; stroke-width: 2.0;"/><text fill="#000000" font-family="sans-serif" font-size="14" lengthAdjust="spacingAndGlyphs" textLength="67" x="296.5625" y="75.75">limitation</text><polygon fill="#FEFECE" filter="url(#f1)" points="385.5625,98.0518,621.5625,98.0518,633.5625,110.0518,621.5625,122.0518,385.5625,122.0518,373.5625,110.0518,385.5625,98.0518" style="stroke: #A80036; stroke-width: 1.5;"/><text fill="#000000" font-family="sans-serif" font-size="11" lengthAdjust="spacingAndGlyphs" textLength="236" x="385.5625" y="113.8599">length of word &gt;= maximum word length</text><text fill="#000000" font-family="sans-serif" font-size="11" lengthAdjust="spacingAndGlyphs" textLength="20" x="353.5625" y="107.4575">yes</text><text fill="#000000" font-family="sans-serif" font-size="11" lengthAdjust="spacingAndGlyphs" textLength="14" x="633.5625" y="107.4575">no</text><rect fill="#FEFECE" filter="url(#f1)" height="33.9688" rx="12.5" ry="12.5" style="stroke: #A80036; stroke-width: 1.5;" width="100" x="313.5625" y="132.0518"/><text fill="#000000" font-family="sans-serif" font-size="12" lengthAdjust="spacingAndGlyphs" textLength="80" x="323.5625" y="153.1904">return FALSE</text><ellipse cx="363.5625" cy="211.0205" fill="none" filter="url(#f1)" rx="10" ry="10" style="stroke: #000000; stroke-width: 1.0;"/><ellipse cx="364.0625" cy="211.5205" fill="#000000" filter="url(#f1)" rx="6" ry="6" style="stroke: none; stroke-width: 1.0;"/><rect fill="#FFFFFF" filter="url(#f1)" height="848.2813" style="stroke: #000000; stroke-width: 2.0;" width="697.5625" x="10" y="257.8223"/><path d="M138,258.8223 L138,267.1191 L128,277.1191 L10,277.1191 " fill="#FFFFFF" style="stroke: #000000; stroke-width: 2.0;"/><text fill="#000000" font-family="sans-serif" font-size="14" lengthAdjust="spacingAndGlyphs" textLength="118" x="13" y="271.8174">input conversion</text><polygon fill="#FEFECE" filter="url(#f1)" points="445.0625,294.1191,562.0625,294.1191,574.0625,306.1191,562.0625,318.1191,445.0625,318.1191,433.0625,306.1191,445.0625,294.1191" style="stroke: #A80036; stroke-width: 1.5;"/><text fill="#000000" font-family="sans-serif" font-size="11" lengthAdjust="spacingAndGlyphs" textLength="117" x="445.0625" y="309.9272">affix manager exists</text><text fill="#000000" font-family="sans-serif" font-size="11" lengthAdjust="spacingAndGlyphs" textLength="20" x="413.0625" y="303.5249">yes</text><text fill="#000000" font-family="sans-serif" font-size="11" lengthAdjust="spacingAndGlyphs" textLength="14" x="574.0625" y="303.5249">no</text><rect fill="#FEFECE" filter="url(#f1)" height="33.9688" rx="12.5" ry="12.5" style="stroke: #A80036; stroke-width: 1.5;" width="285" x="264.625" y="328.1191"/><text fill="#000000" font-family="sans-serif" font-size="12" lengthAdjust="spacingAndGlyphs" textLength="265" x="274.625" y="349.2578">get input conversion list from affix manager</text><polygon fill="#FEFECE" filter="url(#f1)" points="331.625,397.0879,482.625,397.0879,494.625,409.0879,482.625,421.0879,331.625,421.0879,319.625,409.0879,331.625,397.0879" style="stroke: #A80036; stroke-width: 1.5;"/><text fill="#000000" font-family="sans-serif" font-size="11" lengthAdjust="spacingAndGlyphs" textLength="151" x="331.625" y="412.896">input conversion list exists</text><text fill="#000000" font-family="sans-serif" font-size="11" lengthAdjust="spacingAndGlyphs" textLength="20" x="299.625" y="406.4937">yes</text><text fill="#000000" font-family="sans-serif" font-size="11" lengthAdjust="spacingAndGlyphs" textLength="14" x="494.625" y="406.4937">no</text><rect fill="#FEFECE" filter="url(#f1)" height="33.9688" rx="12.5" ry="12.5" style="stroke: #A80036; stroke-width: 1.5;" width="226" x="161.25" y="431.0879"/><text fill="#000000" font-family="sans-serif" font-size="12" lengthAdjust="spacingAndGlyphs" textLength="206" x="171.25" y="452.2266">perform input conversion on word</text><polygon fill="#FEFECE" filter="url(#f1)" points="185.75,500.0566,362.75,500.0566,374.75,512.0566,362.75,524.0566,185.75,524.0566,173.75,512.0566,185.75,500.0566" style="stroke: #A80036; stroke-width: 1.5;"/><text fill="#000000" font-family="sans-serif" font-size="11" lengthAdjust="spacingAndGlyphs" textLength="177" x="185.75" y="515.8647">input conversion changes word</text><text fill="#000000" font-family="sans-serif" font-size="11" lengthAdjust="spacingAndGlyphs" textLength="20" x="153.75" y="509.4624">yes</text><text fill="#000000" font-family="sans-serif" font-size="11" lengthAdjust="spacingAndGlyphs" textLength="14" x="374.75" y="509.4624">no</text><rect fill="#FEFECE" filter="url(#f1)" height="89.8438" rx="12.5" ry="12.5" style="stroke: #A80036; stroke-width: 1.5;" width="216" x="50" y="534.0566"/><text fill="#000000" font-family="sans-serif" font-size="12" lengthAdjust="spacingAndGlyphs" textLength="196" x="60" y="555.1953">clean converted word and store:</text><text fill="#000000" font-family="sans-serif" font-size="12" lengthAdjust="spacingAndGlyphs" textLength="132" x="60" y="569.1641">- cleaned word length</text><text fill="#000000" font-family="sans-serif" font-size="12" lengthAdjust="spacingAndGlyphs" textLength="89" x="60" y="583.1328">- cleaned word</text><text fill="#000000" font-family="sans-serif" font-size="12" lengthAdjust="spacingAndGlyphs" textLength="118" x="60" y="597.1016">- capitalization type</text><text fill="#000000" font-family="sans-serif" font-size="12" lengthAdjust="spacingAndGlyphs" textLength="79" x="60" y="611.0703">- abbr. count</text><rect fill="#FEFECE" filter="url(#f1)" height="89.8438" rx="12.5" ry="12.5" style="stroke: #A80036; stroke-width: 1.5;" width="209" x="286" y="534.0566"/><text fill="#000000" font-family="sans-serif" font-size="12" lengthAdjust="spacingAndGlyphs" textLength="189" x="296" y="555.1953">clean (original) word and store:</text><text fill="#000000" font-family="sans-serif" font-size="12" lengthAdjust="spacingAndGlyphs" textLength="132" x="296" y="569.1641">- cleaned word length</text><text fill="#000000" font-family="sans-serif" font-size="12" lengthAdjust="spacingAndGlyphs" textLength="89" x="296" y="583.1328">- cleaned word</text><text fill="#000000" font-family="sans-serif" font-size="12" lengthAdjust="spacingAndGlyphs" textLength="118" x="296" y="597.1016">- capitalization type</text><text fill="#000000" font-family="sans-serif" font-size="12" lengthAdjust="spacingAndGlyphs" textLength="79" x="296" y="611.0703">- abbr. count</text><polygon fill="#FEFECE" filter="url(#f1)" points="274.25,629.9004,286.25,641.9004,274.25,653.9004,262.25,641.9004,274.25,629.9004" style="stroke: #A80036; stroke-width: 1.5;"/><polygon fill="#FEFECE" filter="url(#f1)" points="407.125,659.9004,419.125,671.9004,407.125,683.9004,395.125,671.9004,407.125,659.9004" style="stroke: #A80036; stroke-width: 1.5;"/><polygon fill="#FEFECE" filter="url(#f1)" points="503.5625,689.9004,515.5625,701.9004,503.5625,713.9004,491.5625,701.9004,503.5625,689.9004" style="stroke: #A80036; stroke-width: 1.5;"/><polygon fill="#FEFECE" filter="url(#f1)" points="461.0625,748.9004,546.0625,748.9004,558.0625,760.9004,546.0625,772.9004,461.0625,772.9004,449.0625,760.9004,461.0625,748.9004" style="stroke: #A80036; stroke-width: 1.5;"/><text fill="#000000" font-family="sans-serif" font-size="11" lengthAdjust="spacingAndGlyphs" textLength="85" x="461.0625" y="764.7085">client is Mozilla</text><text fill="#000000" font-family="sans-serif" font-size="11" lengthAdjust="spacingAndGlyphs" textLength="20" x="429.0625" y="758.3062">yes</text><text fill="#000000" font-family="sans-serif" font-size="11" lengthAdjust="spacingAndGlyphs" textLength="14" x="558.0625" y="758.3062">no</text><rect fill="#FEFECE" filter="url(#f1)" height="33.9688" rx="12.5" ry="12.5" style="stroke: #A80036; stroke-width: 1.5;" width="141" x="368.5625" y="782.9004"/><text fill="#000000" font-family="sans-serif" font-size="12" lengthAdjust="spacingAndGlyphs" textLength="121" x="378.5625" y="804.0391">set abbr. count to 1</text><polygon fill="#FEFECE" filter="url(#f1)" points="503.5625,822.8691,515.5625,834.8691,503.5625,846.8691,491.5625,834.8691,503.5625,822.8691" style="stroke: #A80036; stroke-width: 1.5;"/><polygon fill="#FEFECE" filter="url(#f1)" points="356.5625,881.8691,650.5625,881.8691,662.5625,893.8691,650.5625,905.8691,356.5625,905.8691,344.5625,893.8691,356.5625,881.8691" style="stroke: #A80036; stroke-width: 1.5;"/><text fill="#000000" font-family="sans-serif" font-size="11" lengthAdjust="spacingAndGlyphs" textLength="294" x="356.5625" y="897.6772">cleaned word length is 0 or hash manager is empty</text><text fill="#000000" font-family="sans-serif" font-size="11" lengthAdjust="spacingAndGlyphs" textLength="20" x="324.5625" y="891.2749">yes</text><text fill="#000000" font-family="sans-serif" font-size="11" lengthAdjust="spacingAndGlyphs" textLength="14" x="662.5625" y="891.2749">no</text><rect fill="#FEFECE" filter="url(#f1)" height="33.9688" rx="12.5" ry="12.5" style="stroke: #A80036; stroke-width: 1.5;" width="94" x="287.5625" y="915.8691"/><text fill="#000000" font-family="sans-serif" font-size="12" lengthAdjust="spacingAndGlyphs" textLength="74" x="297.5625" y="937.0078">return TRUE</text><ellipse cx="334.5625" cy="994.8379" fill="none" filter="url(#f1)" rx="10" ry="10" style="stroke: #000000; stroke-width: 1.0;"/><ellipse cx="335.0625" cy="995.3379" fill="#000000" filter="url(#f1)" rx="6" ry="6" style="stroke: none; stroke-width: 1.0;"/><polygon fill="#FBFB77" filter="url(#f1)" points="294.0625,1045.8379,294.0625,1086.1035,440.0625,1086.1035,440.0625,1055.8379,430.0625,1045.8379,294.0625,1045.8379" style="stroke: #A80036; stroke-width: 1.0;"/><polygon fill="#FBFB77" points="294.0625,1045.8379,294.0625,1086.1035,440.0625,1086.1035,440.0625,1069.9707,460.0625,1065.9707,440.0625,1061.9707,440.0625,1055.8379,430.0625,1045.8379,294.0625,1045.8379" style="stroke: #A80036; stroke-width: 1.0;"/><line style="stroke: #A80036; stroke-width: 1.0;" x1="430.0625" x2="430.0625" y1="1045.8379" y2="1055.8379"/><line style="stroke: #A80036; stroke-width: 1.0;" x1="440.0625" x2="430.0625" y1="1055.8379" y2="1055.8379"/><text fill="#000000" font-family="sans-serif" font-size="13" lengthAdjust="spacingAndGlyphs" textLength="92" x="300.0625" y="1062.9048">can this move</text><text fill="#000000" font-family="sans-serif" font-size="13" lengthAdjust="spacingAndGlyphs" textLength="125" x="300.0625" y="1078.0376">up to initialization?</text><rect fill="#FEFECE" filter="url(#f1)" height="33.9688" rx="12.5" ry="12.5" style="stroke: #A80036; stroke-width: 1.5;" width="87" x="460.0625" y="1048.9863"/><text fill="#000000" font-family="sans-serif" font-size="12" lengthAdjust="spacingAndGlyphs" textLength="67" x="470.0625" y="1070.125">empty root</text><rect fill="#FFFFFF" filter="url(#f1)" height="260.5313" style="stroke: #000000; stroke-width: 2.0;" width="419" x="204.5625" y="1116.9053"/><path d="M309.5625,1117.9053 L309.5625,1126.2021 L299.5625,1136.2021 L204.5625,1136.2021 " fill="#FFFFFF" style="stroke: #000000; stroke-width: 2.0;"/><text fill="#000000" font-family="sans-serif" font-size="14" lengthAdjust="spacingAndGlyphs" textLength="95" x="207.5625" y="1130.9004">number state</text><rect fill="#FEFECE" filter="url(#f1)" height="33.9688" rx="12.5" ry="12.5" style="stroke: #A80036; stroke-width: 1.5;" width="168" x="419.5625" y="1153.2021"/><text fill="#000000" font-family="sans-serif" font-size="12" lengthAdjust="spacingAndGlyphs" textLength="148" x="429.5625" y="1174.3408">determine number state</text><polygon fill="#FEFECE" filter="url(#f1)" points="440.5625,1222.1709,566.5625,1222.1709,578.5625,1234.1709,566.5625,1246.1709,440.5625,1246.1709,428.5625,1234.1709,440.5625,1222.1709" style="stroke: #A80036; stroke-width: 1.5;"/><text fill="#000000" font-family="sans-serif" font-size="11" lengthAdjust="spacingAndGlyphs" textLength="126" x="440.5625" y="1237.979">number state is NNUM</text><text fill="#000000" font-family="sans-serif" font-size="11" lengthAdjust="spacingAndGlyphs" textLength="20" x="408.5625" y="1231.5767">yes</text><text fill="#000000" font-family="sans-serif" font-size="11" lengthAdjust="spacingAndGlyphs" textLength="14" x="578.5625" y="1231.5767">no</text><polygon fill="#FBFB77" filter="url(#f1)" points="224.5625,1256.1709,224.5625,1296.4365,351.5625,1296.4365,351.5625,1266.1709,341.5625,1256.1709,224.5625,1256.1709" style="stroke: #A80036; stroke-width: 1.0;"/><polygon fill="#FBFB77" points="224.5625,1256.1709,224.5625,1296.4365,351.5625,1296.4365,351.5625,1280.3037,371.5625,1276.3037,351.5625,1272.3037,351.5625,1266.1709,341.5625,1256.1709,224.5625,1256.1709" style="stroke: #A80036; stroke-width: 1.0;"/><line style="stroke: #A80036; stroke-width: 1.0;" x1="341.5625" x2="341.5625" y1="1256.1709" y2="1266.1709"/><line style="stroke: #A80036; stroke-width: 1.0;" x1="351.5625" x2="341.5625" y1="1266.1709" y2="1266.1709"/><text fill="#000000" font-family="sans-serif" font-size="13" lengthAdjust="spacingAndGlyphs" textLength="89" x="230.5625" y="1273.2378">word consists</text><text fill="#000000" font-family="sans-serif" font-size="13" lengthAdjust="spacingAndGlyphs" textLength="106" x="230.5625" y="1288.3706">of only numbers</text><rect fill="#FEFECE" filter="url(#f1)" height="33.9688" rx="12.5" ry="12.5" style="stroke: #A80036; stroke-width: 1.5;" width="94" x="371.5625" y="1259.3193"/><text fill="#000000" font-family="sans-serif" font-size="12" lengthAdjust="spacingAndGlyphs" textLength="74" x="381.5625" y="1280.458">return TRUE</text><ellipse cx="418.5625" cy="1341.4365" fill="none" filter="url(#f1)" rx="10" ry="10" style="stroke: #000000; stroke-width: 1.0;"/><ellipse cx="419.0625" cy="1341.9365" fill="#000000" filter="url(#f1)" rx="6" ry="6" style="stroke: none; stroke-width: 1.0;"/><rect fill="#FFFFFF" filter="url(#f1)" height="104.2344" style="stroke: #000000; stroke-width: 2.0;" width="524" x="131.5625" y="1388.2383"/><path d="M222.5625,1389.2383 L222.5625,1397.5352 L212.5625,1407.5352 L131.5625,1407.5352 " fill="#FFFFFF" style="stroke: #000000; stroke-width: 2.0;"/><text fill="#000000" font-family="sans-serif" font-size="14" lengthAdjust="spacingAndGlyphs" textLength="81" x="134.5625" y="1402.2334">check word</text><polygon fill="#FBFB77" filter="url(#f1)" points="141.5625,1435.9375,141.5625,1461.0703,341.5625,1461.0703,341.5625,1445.9375,331.5625,1435.9375,141.5625,1435.9375" style="stroke: #A80036; stroke-width: 1.0;"/><polygon fill="#FBFB77" points="141.5625,1435.9375,141.5625,1461.0703,341.5625,1461.0703,341.5625,1453.9375,361.5625,1448.5039,341.5625,1445.9375,341.5625,1445.9375,331.5625,1435.9375,141.5625,1435.9375" style="stroke: #A80036; stroke-width: 1.0;"/><line style="stroke: #A80036; stroke-width: 1.0;" x1="331.5625" x2="331.5625" y1="1435.9375" y2="1445.9375"/><line style="stroke: #A80036; stroke-width: 1.0;" x1="341.5625" x2="331.5625" y1="1445.9375" y2="1445.9375"/><text fill="#000000" font-family="sans-serif" font-size="13" lengthAdjust="spacingAndGlyphs" textLength="179" x="147.5625" y="1453.0044">see other activity diagrams</text><rect fill="#FEFECE" filter="url(#f1)" height="47.9375" rx="12.5" ry="12.5" style="stroke: #A80036; stroke-width: 1.5;" width="284" x="361.5625" y="1424.5352"/><text fill="#000000" font-family="sans-serif" font-size="12" lengthAdjust="spacingAndGlyphs" textLength="219" x="371.5625" y="1445.6738">set root value to output check_word</text><text fill="#000000" font-family="sans-serif" font-size="12" lengthAdjust="spacingAndGlyphs" textLength="264" x="371.5625" y="1459.6426">according depending on cleaned word case</text><rect fill="#FFFFFF" filter="url(#f1)" height="90.2656" style="stroke: #000000; stroke-width: 2.0;" width="235" x="386.0625" y="1503.2744"/><path d="M511.0625,1504.2744 L511.0625,1512.5713 L501.0625,1522.5713 L386.0625,1522.5713 " fill="#FFFFFF" style="stroke: #000000; stroke-width: 2.0;"/><text fill="#000000" font-family="sans-serif" font-size="14" lengthAdjust="spacingAndGlyphs" textLength="115" x="389.0625" y="1517.2695">forbidden words</text><rect fill="#FEFECE" filter="url(#f1)" height="33.9688" rx="12.5" ry="12.5" style="stroke: #A80036; stroke-width: 1.5;" width="215" x="396.0625" y="1539.5713"/><text fill="#000000" font-family="sans-serif" font-size="12" lengthAdjust="spacingAndGlyphs" textLength="195" x="406.0625" y="1560.71">TODO deal with forbidden words</text><rect fill="#FFFFFF" filter="url(#f1)" height="90.2656" style="stroke: #000000; stroke-width: 2.0;" width="728" x="33.0625" y="1604.3418"/><path d="M76.0625,1605.3418 L76.0625,1613.6387 L66.0625,1623.6387 L33.0625,1623.6387 " fill="#FFFFFF" style="stroke: #000000; stroke-width: 2.0;"/><text fill="#000000" font-family="sans-serif" font-size="14" lengthAdjust="spacingAndGlyphs" textLength="33" x="36.0625" y="1618.3369">spell</text><polygon fill="#FBFB77" filter="url(#f1)" points="43.0625,1645.0566,43.0625,1670.1895,236.0625,1670.1895,236.0625,1655.0566,226.0625,1645.0566,43.0625,1645.0566" style="stroke: #A80036; stroke-width: 1.0;"/><polygon fill="#FBFB77" points="43.0625,1645.0566,43.0625,1670.1895,236.0625,1670.1895,236.0625,1663.0566,256.0625,1657.623,236.0625,1655.0566,236.0625,1655.0566,226.0625,1645.0566,43.0625,1645.0566" style="stroke: #A80036; stroke-width: 1.0;"/><line style="stroke: #A80036; stroke-width: 1.0;" x1="226.0625" x2="226.0625" y1="1645.0566" y2="1655.0566"/><line style="stroke: #A80036; stroke-width: 1.0;" x1="236.0625" x2="226.0625" y1="1655.0566" y2="1655.0566"/><text fill="#000000" font-family="sans-serif" font-size="13" lengthAdjust="spacingAndGlyphs" textLength="172" x="49.0625" y="1662.1235">see other activity diagram</text><rect fill="#FEFECE" filter="url(#f1)" height="33.9688" rx="12.5" ry="12.5" style="stroke: #A80036; stroke-width: 1.5;" width="495" x="256.0625" y="1640.6387"/><text fill="#000000" font-family="sans-serif" font-size="12" lengthAdjust="spacingAndGlyphs" textLength="475" x="266.0625" y="1661.7773">return result recursive call to this spell algorithm depending on break patterns</text><rect fill="#FFFFFF" filter="url(#f1)" height="90.2656" style="stroke: #000000; stroke-width: 2.0;" width="120" x="443.5625" y="1705.4092"/><path d="M503.5625,1706.4092 L503.5625,1714.7061 L493.5625,1724.7061 L443.5625,1724.7061 " fill="#FFFFFF" style="stroke: #000000; stroke-width: 2.0;"/><text fill="#000000" font-family="sans-serif" font-size="14" lengthAdjust="spacingAndGlyphs" textLength="50" x="446.5625" y="1719.4043">default</text><rect fill="#FEFECE" filter="url(#f1)" height="33.9688" rx="12.5" ry="12.5" style="stroke: #A80036; stroke-width: 1.5;" width="100" x="453.5625" y="1741.7061"/><text fill="#000000" font-family="sans-serif" font-size="12" lengthAdjust="spacingAndGlyphs" textLength="80" x="463.5625" y="1762.8447">return FALSE</text><ellipse cx="503.5625" cy="1825.6748" fill="none" filter="url(#f1)" rx="10" ry="10" style="stroke: #000000; stroke-width: 1.0;"/><ellipse cx="504.0625" cy="1826.1748" fill="#000000" filter="url(#f1)" rx="6" ry="6" style="stroke: none; stroke-width: 1.0;"/><line style="stroke: #A80036; stroke-width: 1.5;" x1="363.5625" x2="363.5625" y1="166.0205" y2="201.0205"/><polygon fill="#A80036" points="359.5625,191.0205,363.5625,201.0205,367.5625,191.0205,363.5625,195.0205" style="stroke: #A80036; stroke-width: 1.0;"/><line style="stroke: #A80036; stroke-width: 1.5;" x1="373.5625" x2="363.5625" y1="110.0518" y2="110.0518"/><line style="stroke: #A80036; stroke-width: 1.5;" x1="363.5625" x2="363.5625" y1="110.0518" y2="132.0518"/><polygon fill="#A80036" points="359.5625,122.0518,363.5625,132.0518,367.5625,122.0518,363.5625,126.0518" style="stroke: #A80036; stroke-width: 1.0;"/><line style="stroke: #A80036; stroke-width: 1.5;" x1="633.5625" x2="643.5625" y1="110.0518" y2="110.0518"/><polygon fill="#A80036" points="639.5625,158.5361,643.5625,168.5361,647.5625,158.5361,643.5625,162.5361" style="stroke: #A80036; stroke-width: 1.5;"/><line style="stroke: #A80036; stroke-width: 1.5;" x1="643.5625" x2="643.5625" y1="110.0518" y2="227.0205"/><line style="stroke: #A80036; stroke-width: 1.5;" x1="643.5625" x2="503.5625" y1="227.0205" y2="227.0205"/><line style="stroke: #A80036; stroke-width: 1.5;" x1="503.5625" x2="503.5625" y1="227.0205" y2="294.1191"/><polygon fill="#A80036" points="499.5625,284.1191,503.5625,294.1191,507.5625,284.1191,503.5625,288.1191" style="stroke: #A80036; stroke-width: 1.0;"/><line style="stroke: #A80036; stroke-width: 1.5;" x1="503.5625" x2="503.5625" y1="50.9531" y2="98.0518"/><polygon fill="#A80036" points="499.5625,88.0518,503.5625,98.0518,507.5625,88.0518,503.5625,92.0518" style="stroke: #A80036; stroke-width: 1.0;"/><line style="stroke: #A80036; stroke-width: 1.5;" x1="173.75" x2="158" y1="512.0566" y2="512.0566"/><line style="stroke: #A80036; stroke-width: 1.5;" x1="158" x2="158" y1="512.0566" y2="534.0566"/><polygon fill="#A80036" points="154,524.0566,158,534.0566,162,524.0566,158,528.0566" style="stroke: #A80036; stroke-width: 1.0;"/><line style="stroke: #A80036; stroke-width: 1.5;" x1="374.75" x2="390.5" y1="512.0566" y2="512.0566"/><line style="stroke: #A80036; stroke-width: 1.5;" x1="390.5" x2="390.5" y1="512.0566" y2="534.0566"/><polygon fill="#A80036" points="386.5,524.0566,390.5,534.0566,394.5,524.0566,390.5,528.0566" style="stroke: #A80036; stroke-width: 1.0;"/><line style="stroke: #A80036; stroke-width: 1.5;" x1="158" x2="158" y1="623.9004" y2="641.9004"/><line style="stroke: #A80036; stroke-width: 1.5;" x1="158" x2="262.25" y1="641.9004" y2="641.9004"/><polygon fill="#A80036" points="252.25,637.9004,262.25,641.9004,252.25,645.9004,256.25,641.9004" style="stroke: #A80036; stroke-width: 1.0;"/><line style="stroke: #A80036; stroke-width: 1.5;" x1="390.5" x2="390.5" y1="623.9004" y2="641.9004"/><line style="stroke: #A80036; stroke-width: 1.5;" x1="390.5" x2="286.25" y1="641.9004" y2="641.9004"/><polygon fill="#A80036" points="296.25,637.9004,286.25,641.9004,296.25,645.9004,292.25,641.9004" style="stroke: #A80036; stroke-width: 1.0;"/><line style="stroke: #A80036; stroke-width: 1.5;" x1="274.25" x2="274.25" y1="465.0566" y2="500.0566"/><polygon fill="#A80036" points="270.25,490.0566,274.25,500.0566,278.25,490.0566,274.25,494.0566" style="stroke: #A80036; stroke-width: 1.0;"/><line style="stroke: #A80036; stroke-width: 1.5;" x1="319.625" x2="274.25" y1="409.0879" y2="409.0879"/><line style="stroke: #A80036; stroke-width: 1.5;" x1="274.25" x2="274.25" y1="409.0879" y2="431.0879"/><polygon fill="#A80036" points="270.25,421.0879,274.25,431.0879,278.25,421.0879,274.25,425.0879" style="stroke: #A80036; stroke-width: 1.0;"/><line style="stroke: #A80036; stroke-width: 1.5;" x1="494.625" x2="540" y1="409.0879" y2="409.0879"/><polygon fill="#A80036" points="536,530.4941,540,540.4941,544,530.4941,540,534.4941" style="stroke: #A80036; stroke-width: 1.5;"/><line style="stroke: #A80036; stroke-width: 1.5;" x1="540" x2="540" y1="409.0879" y2="671.9004"/><line style="stroke: #A80036; stroke-width: 1.5;" x1="540" x2="419.125" y1="671.9004" y2="671.9004"/><polygon fill="#A80036" points="429.125,667.9004,419.125,671.9004,429.125,675.9004,425.125,671.9004" style="stroke: #A80036; stroke-width: 1.0;"/><line style="stroke: #A80036; stroke-width: 1.5;" x1="274.25" x2="274.25" y1="653.9004" y2="671.9004"/><line style="stroke: #A80036; stroke-width: 1.5;" x1="274.25" x2="395.125" y1="671.9004" y2="671.9004"/><polygon fill="#A80036" points="385.125,667.9004,395.125,671.9004,385.125,675.9004,389.125,671.9004" style="stroke: #A80036; stroke-width: 1.0;"/><line style="stroke: #A80036; stroke-width: 1.5;" x1="407.125" x2="407.125" y1="362.0879" y2="397.0879"/><polygon fill="#A80036" points="403.125,387.0879,407.125,397.0879,411.125,387.0879,407.125,391.0879" style="stroke: #A80036; stroke-width: 1.0;"/><line style="stroke: #A80036; stroke-width: 1.5;" x1="433.0625" x2="407.125" y1="306.1191" y2="306.1191"/><line style="stroke: #A80036; stroke-width: 1.5;" x1="407.125" x2="407.125" y1="306.1191" y2="328.1191"/><polygon fill="#A80036" points="403.125,318.1191,407.125,328.1191,411.125,318.1191,407.125,322.1191" style="stroke: #A80036; stroke-width: 1.0;"/><line style="stroke: #A80036; stroke-width: 1.5;" x1="574.0625" x2="600" y1="306.1191" y2="306.1191"/><polygon fill="#A80036" points="596,494.0098,600,504.0098,604,494.0098,600,498.0098" style="stroke: #A80036; stroke-width: 1.5;"/><line style="stroke: #A80036; stroke-width: 1.5;" x1="600" x2="600" y1="306.1191" y2="701.9004"/><line style="stroke: #A80036; stroke-width: 1.5;" x1="600" x2="515.5625" y1="701.9004" y2="701.9004"/><polygon fill="#A80036" points="525.5625,697.9004,515.5625,701.9004,525.5625,705.9004,521.5625,701.9004" style="stroke: #A80036; stroke-width: 1.0;"/><line style="stroke: #A80036; stroke-width: 1.5;" x1="407.125" x2="407.125" y1="683.9004" y2="701.9004"/><line style="stroke: #A80036; stroke-width: 1.5;" x1="407.125" x2="491.5625" y1="701.9004" y2="701.9004"/><polygon fill="#A80036" points="481.5625,697.9004,491.5625,701.9004,481.5625,705.9004,485.5625,701.9004" style="stroke: #A80036; stroke-width: 1.0;"/><line style="stroke: #A80036; stroke-width: 1.5;" x1="449.0625" x2="439.0625" y1="760.9004" y2="760.9004"/><line style="stroke: #A80036; stroke-width: 1.5;" x1="439.0625" x2="439.0625" y1="760.9004" y2="782.9004"/><polygon fill="#A80036" points="435.0625,772.9004,439.0625,782.9004,443.0625,772.9004,439.0625,776.9004" style="stroke: #A80036; stroke-width: 1.0;"/><line style="stroke: #A80036; stroke-width: 1.5;" x1="558.0625" x2="568.0625" y1="760.9004" y2="760.9004"/><polygon fill="#A80036" points="564.0625,787.8848,568.0625,797.8848,572.0625,787.8848,568.0625,791.8848" style="stroke: #A80036; stroke-width: 1.5;"/><line style="stroke: #A80036; stroke-width: 1.5;" x1="568.0625" x2="568.0625" y1="760.9004" y2="834.8691"/><line style="stroke: #A80036; stroke-width: 1.5;" x1="568.0625" x2="515.5625" y1="834.8691" y2="834.8691"/><polygon fill="#A80036" points="525.5625,830.8691,515.5625,834.8691,525.5625,838.8691,521.5625,834.8691" style="stroke: #A80036; stroke-width: 1.0;"/><line style="stroke: #A80036; stroke-width: 1.5;" x1="439.0625" x2="439.0625" y1="816.8691" y2="834.8691"/><line style="stroke: #A80036; stroke-width: 1.5;" x1="439.0625" x2="491.5625" y1="834.8691" y2="834.8691"/><polygon fill="#A80036" points="481.5625,830.8691,491.5625,834.8691,481.5625,838.8691,485.5625,834.8691" style="stroke: #A80036; stroke-width: 1.0;"/><line style="stroke: #A80036; stroke-width: 1.5;" x1="503.5625" x2="503.5625" y1="713.9004" y2="748.9004"/><polygon fill="#A80036" points="499.5625,738.9004,503.5625,748.9004,507.5625,738.9004,503.5625,742.9004" style="stroke: #A80036; stroke-width: 1.0;"/><line style="stroke: #A80036; stroke-width: 1.5;" x1="334.5625" x2="334.5625" y1="949.8379" y2="984.8379"/><polygon fill="#A80036" points="330.5625,974.8379,334.5625,984.8379,338.5625,974.8379,334.5625,978.8379" style="stroke: #A80036; stroke-width: 1.0;"/><line style="stroke: #A80036; stroke-width: 1.5;" x1="344.5625" x2="334.5625" y1="893.8691" y2="893.8691"/><line style="stroke: #A80036; stroke-width: 1.5;" x1="334.5625" x2="334.5625" y1="893.8691" y2="915.8691"/><polygon fill="#A80036" points="330.5625,905.8691,334.5625,915.8691,338.5625,905.8691,334.5625,909.8691" style="stroke: #A80036; stroke-width: 1.0;"/><line style="stroke: #A80036; stroke-width: 1.5;" x1="662.5625" x2="672.5625" y1="893.8691" y2="893.8691"/><polygon fill="#A80036" points="668.5625,942.3535,672.5625,952.3535,676.5625,942.3535,672.5625,946.3535" style="stroke: #A80036; stroke-width: 1.5;"/><line style="stroke: #A80036; stroke-width: 1.5;" x1="672.5625" x2="672.5625" y1="893.8691" y2="1010.8379"/><line style="stroke: #A80036; stroke-width: 1.5;" x1="672.5625" x2="503.5625" y1="1010.8379" y2="1010.8379"/><line style="stroke: #A80036; stroke-width: 1.5;" x1="503.5625" x2="503.5625" y1="1010.8379" y2="1048.9863"/><polygon fill="#A80036" points="499.5625,1038.9863,503.5625,1048.9863,507.5625,1038.9863,503.5625,1042.9863" style="stroke: #A80036; stroke-width: 1.0;"/><line style="stroke: #A80036; stroke-width: 1.5;" x1="503.5625" x2="503.5625" y1="846.8691" y2="881.8691"/><polygon fill="#A80036" points="499.5625,871.8691,503.5625,881.8691,507.5625,871.8691,503.5625,875.8691" style="stroke: #A80036; stroke-width: 1.0;"/><line style="stroke: #A80036; stroke-width: 1.5;" x1="418.5625" x2="418.5625" y1="1293.2881" y2="1331.4365"/><polygon fill="#A80036" points="414.5625,1321.4365,418.5625,1331.4365,422.5625,1321.4365,418.5625,1325.4365" style="stroke: #A80036; stroke-width: 1.0;"/><line style="stroke: #A80036; stroke-width: 1.5;" x1="428.5625" x2="418.5625" y1="1234.1709" y2="1234.1709"/><line style="stroke: #A80036; stroke-width: 1.5;" x1="418.5625" x2="418.5625" y1="1234.1709" y2="1259.3193"/><polygon fill="#A80036" points="414.5625,1249.3193,418.5625,1259.3193,422.5625,1249.3193,418.5625,1253.3193" style="stroke: #A80036; stroke-width: 1.0;"/><line style="stroke: #A80036; stroke-width: 1.5;" x1="578.5625" x2="588.5625" y1="1234.1709" y2="1234.1709"/><polygon fill="#A80036" points="584.5625,1285.8037,588.5625,1295.8037,592.5625,1285.8037,588.5625,1289.8037" style="stroke: #A80036; stroke-width: 1.5;"/><line style="stroke: #A80036; stroke-width: 1.5;" x1="588.5625" x2="588.5625" y1="1234.1709" y2="1357.4365"/><line style="stroke: #A80036; stroke-width: 1.5;" x1="588.5625" x2="503.5625" y1="1357.4365" y2="1357.4365"/><line style="stroke: #A80036; stroke-width: 1.5;" x1="503.5625" x2="503.5625" y1="1357.4365" y2="1424.5352"/><polygon fill="#A80036" points="499.5625,1414.5352,503.5625,1424.5352,507.5625,1414.5352,503.5625,1418.5352" style="stroke: #A80036; stroke-width: 1.0;"/><line style="stroke: #A80036; stroke-width: 1.5;" x1="503.5625" x2="503.5625" y1="1187.1709" y2="1222.1709"/><polygon fill="#A80036" points="499.5625,1212.1709,503.5625,1222.1709,507.5625,1212.1709,503.5625,1216.1709" style="stroke: #A80036; stroke-width: 1.0;"/><line style="stroke: #A80036; stroke-width: 1.5;" x1="503.5625" x2="503.5625" y1="1082.9551" y2="1153.2021"/><polygon fill="#A80036" points="499.5625,1143.2021,503.5625,1153.2021,507.5625,1143.2021,503.5625,1147.2021" style="stroke: #A80036; stroke-width: 1.0;"/><line style="stroke: #A80036; stroke-width: 1.5;" x1="503.5625" x2="503.5625" y1="1472.4727" y2="1539.5713"/><polygon fill="#A80036" points="499.5625,1529.5713,503.5625,1539.5713,507.5625,1529.5713,503.5625,1533.5713" style="stroke: #A80036; stroke-width: 1.0;"/><line style="stroke: #A80036; stroke-width: 1.5;" x1="503.5625" x2="503.5625" y1="1573.54" y2="1640.6387"/><polygon fill="#A80036" points="499.5625,1630.6387,503.5625,1640.6387,507.5625,1630.6387,503.5625,1634.6387" style="stroke: #A80036; stroke-width: 1.0;"/><line style="stroke: #A80036; stroke-width: 1.5;" x1="503.5625" x2="503.5625" y1="1674.6074" y2="1741.7061"/><polygon fill="#A80036" points="499.5625,1731.7061,503.5625,1741.7061,507.5625,1731.7061,503.5625,1735.7061" style="stroke: #A80036; stroke-width: 1.0;"/><line style="stroke: #A80036; stroke-width: 1.5;" x1="503.5625" x2="503.5625" y1="1775.6748" y2="1815.6748"/><polygon fill="#A80036" points="499.5625,1805.6748,503.5625,1815.6748,507.5625,1805.6748,503.5625,1809.6748" style="stroke: #A80036; stroke-width: 1.0;"/></g></svg>