<?xml version="1.0" encoding="UTF-8" standalone="no"?><svg xmlns="http://www.w3.org/2000/svg" xmlns:xlink="http://www.w3.org/1999/xlink" contentScriptType="application/ecmascript" contentStyleType="text/css" height="1126px" preserveAspectRatio="none" style="width:683px;height:1126px;" version="1.1" viewBox="0 0 683 1126" width="683px" zoomAndPan="magnify"><defs><linearGradient id="gch2kzs0n9vxz0" x1="0%" x2="100%" y1="50%" y2="50%"><stop offset="0%" stop-color="#FFFFFF"/><stop offset="100%" stop-color="#FFFFFF"/></linearGradient><filter height="300%" id="fch2kzs0n9vxz" width="300%" x="-1" y="-1"><feGaussianBlur result="blurOut" stdDeviation="2.0"/><feColorMatrix in="blurOut" result="blurOut2" type="matrix" values="0 0 0 0 0 0 0 0 0 0 0 0 0 0 0 0 0 0 .4 0"/><feOffset dx="4.0" dy="4.0" in="blurOut2" result="blurOut3"/><feBlend in="SourceGraphic" in2="blurOut3" mode="normal"/></filter><filter height="1" id="bch2kzs0n9vxz0" width="1" x="0" y="0"><feFlood flood-color="#87CEEB" result="flood"/><feComposite in="SourceGraphic" in2="flood" operator="over"/></filter></defs><g><rect fill="url(#gch2kzs0n9vxz0)" height="1126" style="stroke: none; stroke-width: 1.0;" width="683" x="0" y="0"/><text fill="#000000" font-family="sans-serif" font-size="18" font-weight="bold" lengthAdjust="spacingAndGlyphs" textLength="257" x="12" y="26.708">Nuspell - Check Spelling -</text><text fill="#000000" font-family="monospace" font-size="18" font-weight="bold" lengthAdjust="spacingAndGlyphs" textLength="396" x="275" y="26.708">spell_break(string s, integer depth)</text><text fill="#000000" font-family="sans-serif" font-size="18" lengthAdjust="spacingAndGlyphs" textLength="0" x="344.5" y="47.6611"/><ellipse cx="280.5" cy="61.9063" fill="#000000" filter="url(#fch2kzs0n9vxz)" rx="10" ry="10" style="stroke: none; stroke-width: 1.0;"/><rect fill="#FFFFFF" filter="url(#fch2kzs0n9vxz)" height="33.9688" rx="12.5" ry="12.5" style="stroke: #000000; stroke-width: 1.5;" width="191" x="185" y="91.9063"/><text fill="#000000" font-family="sans-serif" font-size="12" lengthAdjust="spacingAndGlyphs" textLength="20" x="195" y="113.0449">set</text><text fill="#000000" font-family="monospace" font-size="12" font-weight="bold" lengthAdjust="spacingAndGlyphs" textLength="21" x="219" y="113.0449">ret</text><text fill="#000000" font-family="sans-serif" font-size="12" lengthAdjust="spacingAndGlyphs" textLength="13" x="244" y="113.0449">to</text><text fill="#000000" filter="url(#bch2kzs0n9vxz0)" font-family="monospace" font-size="12" font-style="italic" lengthAdjust="spacingAndGlyphs" textLength="105" x="261" y="113.0449">spell_casing(s)</text><rect fill="#FFFFFF" filter="url(#fch2kzs0n9vxz)" height="33.9688" rx="12.5" ry="12.5" style="stroke: #000000; stroke-width: 1.5;" width="119" x="221" y="242.6797"/><text fill="#000000" font-family="sans-serif" font-size="12" lengthAdjust="spacingAndGlyphs" textLength="39" x="231" y="263.8184">return</text><text fill="#000000" font-family="monospace" font-size="12" lengthAdjust="spacingAndGlyphs" text-decoration="underline" textLength="56" x="274" y="263.8184">BAD_WORD</text><line style="stroke: #000000; stroke-width: 1.0;" x1="274" x2="330" y1="265.8184" y2="265.8184"/><ellipse cx="280.5" cy="314.1641" fill="none" filter="url(#fch2kzs0n9vxz)" rx="10" ry="10" style="stroke: #000000; stroke-width: 1.0;"/><ellipse cx="281" cy="314.6641" fill="#000000" filter="url(#fch2kzs0n9vxz)" rx="6" ry="6" style="stroke: none; stroke-width: 1.0;"/><polygon fill="#FFFFFF" filter="url(#fch2kzs0n9vxz)" points="157,194.2773,404,194.2773,416,206.2773,404,218.2773,157,218.2773,145,206.2773,157,194.2773" style="stroke: #000000; stroke-width: 1.5;"/><text fill="#000000" font-family="sans-serif" font-size="11" lengthAdjust="spacingAndGlyphs" textLength="20" x="284.5" y="228.4878">yes</text><text fill="#000000" font-family="monospace" font-size="11" font-weight="bold" lengthAdjust="spacingAndGlyphs" textLength="21" x="157" y="210.0854">res</text><text fill="#000000" font-family="sans-serif" font-size="11" lengthAdjust="spacingAndGlyphs" textLength="86" x="182" y="210.0854">contains global</text><text fill="#000000" font-family="monospace" font-size="11" font-style="italic" lengthAdjust="spacingAndGlyphs" textLength="126" x="272" y="210.0854">forbiddenword_flag</text><text fill="#000000" font-family="sans-serif" font-size="11" lengthAdjust="spacingAndGlyphs" textLength="6" x="398" y="210.0854">?</text><text fill="#000000" font-family="sans-serif" font-size="11" lengthAdjust="spacingAndGlyphs" textLength="14" x="416" y="203.6831">no</text><rect fill="#FFFFFF" filter="url(#fch2kzs0n9vxz)" height="33.9688" rx="12.5" ry="12.5" style="stroke: #000000; stroke-width: 1.5;" width="119" x="221" y="414.5664"/><text fill="#000000" font-family="sans-serif" font-size="12" lengthAdjust="spacingAndGlyphs" textLength="39" x="231" y="435.7051">return</text><text fill="#000000" font-family="monospace" font-size="12" lengthAdjust="spacingAndGlyphs" text-decoration="underline" textLength="56" x="274" y="435.7051">BAD_WORD</text><line style="stroke: #000000; stroke-width: 1.0;" x1="274" x2="330" y1="437.7051" y2="437.7051"/><ellipse cx="280.5" cy="486.0508" fill="none" filter="url(#fch2kzs0n9vxz)" rx="10" ry="10" style="stroke: #000000; stroke-width: 1.0;"/><ellipse cx="281" cy="486.5508" fill="#000000" filter="url(#fch2kzs0n9vxz)" rx="6" ry="6" style="stroke: none; stroke-width: 1.0;"/><polygon fill="#FFFFFF" filter="url(#fch2kzs0n9vxz)" points="93.5,366.1641,467.5,366.1641,479.5,378.1641,467.5,390.1641,93.5,390.1641,81.5,378.1641,93.5,366.1641" style="stroke: #000000; stroke-width: 1.5;"/><text fill="#000000" font-family="sans-serif" font-size="11" lengthAdjust="spacingAndGlyphs" textLength="20" x="284.5" y="400.3745">yes</text><text fill="#000000" font-family="sans-serif" font-size="11" lengthAdjust="spacingAndGlyphs" textLength="34" x="93.5" y="381.9722">global</text><text fill="#000000" font-family="monospace" font-size="11" font-style="italic" lengthAdjust="spacingAndGlyphs" textLength="77" x="131.5" y="381.9722">forbid_warn</text><text fill="#000000" font-family="sans-serif" font-size="11" lengthAdjust="spacingAndGlyphs" textLength="10" x="212.5" y="381.9722">is</text><text fill="#000000" font-family="monospace" font-size="11" lengthAdjust="spacingAndGlyphs" text-decoration="underline" textLength="28" x="226.5" y="381.9722">TRUE</text><line style="stroke: #000000; stroke-width: 1.0;" x1="226.5" x2="254.5" y1="383.9722" y2="383.9722"/><text fill="#000000" font-family="sans-serif" font-size="11" lengthAdjust="spacingAndGlyphs" textLength="21" x="258.5" y="381.9722">and</text><text fill="#000000" font-family="monospace" font-size="11" font-weight="bold" lengthAdjust="spacingAndGlyphs" textLength="21" x="283.5" y="381.9722">res</text><text fill="#000000" font-family="sans-serif" font-size="11" lengthAdjust="spacingAndGlyphs" textLength="86" x="308.5" y="381.9722">contains global</text><text fill="#000000" font-family="monospace" font-size="11" font-style="italic" lengthAdjust="spacingAndGlyphs" textLength="63" x="398.5" y="381.9722">warn_flag</text><text fill="#000000" font-family="sans-serif" font-size="11" lengthAdjust="spacingAndGlyphs" textLength="6" x="461.5" y="381.9722">?</text><text fill="#000000" font-family="sans-serif" font-size="11" lengthAdjust="spacingAndGlyphs" textLength="14" x="479.5" y="375.5698">no</text><rect fill="#FFFFFF" filter="url(#fch2kzs0n9vxz)" height="33.9688" rx="12.5" ry="12.5" style="stroke: #000000; stroke-width: 1.5;" width="126" x="217.5" y="538.0508"/><text fill="#000000" font-family="sans-serif" font-size="12" lengthAdjust="spacingAndGlyphs" textLength="39" x="227.5" y="559.1895">return</text><text fill="#000000" font-family="monospace" font-size="12" lengthAdjust="spacingAndGlyphs" text-decoration="underline" textLength="63" x="270.5" y="559.1895">GOOD_WORD</text><line style="stroke: #000000; stroke-width: 1.0;" x1="270.5" x2="333.5" y1="561.1895" y2="561.1895"/><ellipse cx="280.5" cy="602.0195" fill="none" filter="url(#fch2kzs0n9vxz)" rx="10" ry="10" style="stroke: #000000; stroke-width: 1.0;"/><ellipse cx="281" cy="602.5195" fill="#000000" filter="url(#fch2kzs0n9vxz)" rx="6" ry="6" style="stroke: none; stroke-width: 1.0;"/><polygon fill="#FFFFFF" filter="url(#fch2kzs0n9vxz)" points="229.5,145.875,331.5,145.875,343.5,157.875,331.5,169.875,229.5,169.875,217.5,157.875,229.5,145.875" style="stroke: #000000; stroke-width: 1.5;"/><text fill="#000000" font-family="sans-serif" font-size="11" lengthAdjust="spacingAndGlyphs" textLength="20" x="284.5" y="180.0854">yes</text><text fill="#000000" font-family="monospace" font-size="11" font-weight="bold" lengthAdjust="spacingAndGlyphs" textLength="21" x="229.5" y="161.6831">res</text><text fill="#000000" font-family="sans-serif" font-size="11" lengthAdjust="spacingAndGlyphs" textLength="77" x="254.5" y="161.6831">is not empty?</text><text fill="#000000" font-family="sans-serif" font-size="11" lengthAdjust="spacingAndGlyphs" textLength="14" x="343.5" y="155.2808">no</text><rect fill="#FFFFFF" filter="url(#fch2kzs0n9vxz)" height="33.9688" rx="12.5" ry="12.5" style="stroke: #000000; stroke-width: 1.5;" width="119" x="221" y="702.4219"/><text fill="#000000" font-family="sans-serif" font-size="12" lengthAdjust="spacingAndGlyphs" textLength="39" x="231" y="723.5605">return</text><text fill="#000000" font-family="monospace" font-size="12" lengthAdjust="spacingAndGlyphs" text-decoration="underline" textLength="56" x="274" y="723.5605">BAD_WORD</text><line style="stroke: #000000; stroke-width: 1.0;" x1="274" x2="330" y1="725.5605" y2="725.5605"/><ellipse cx="280.5" cy="773.9063" fill="none" filter="url(#fch2kzs0n9vxz)" rx="10" ry="10" style="stroke: #000000; stroke-width: 1.0;"/><ellipse cx="281" cy="774.4063" fill="#000000" filter="url(#fch2kzs0n9vxz)" rx="6" ry="6" style="stroke: none; stroke-width: 1.0;"/><polygon fill="#FFFFFF" filter="url(#fch2kzs0n9vxz)" points="247.5,654.0195,313.5,654.0195,325.5,666.0195,313.5,678.0195,247.5,678.0195,235.5,666.0195,247.5,654.0195" style="stroke: #000000; stroke-width: 1.5;"/><text fill="#000000" font-family="sans-serif" font-size="11" lengthAdjust="spacingAndGlyphs" textLength="20" x="284.5" y="688.23">yes</text><text fill="#000000" font-family="monospace" font-size="11" font-weight="bold" lengthAdjust="spacingAndGlyphs" textLength="35" x="247.5" y="669.8276">depth</text><text fill="#000000" font-family="sans-serif" font-size="11" lengthAdjust="spacingAndGlyphs" textLength="10" x="286.5" y="669.8276">is</text><text fill="#000000" font-family="monospace" font-size="11" lengthAdjust="spacingAndGlyphs" text-decoration="underline" textLength="7" x="300.5" y="669.8276">9</text><line style="stroke: #000000; stroke-width: 1.0;" x1="300.5" x2="307.5" y1="671.8276" y2="671.8276"/><text fill="#000000" font-family="sans-serif" font-size="11" lengthAdjust="spacingAndGlyphs" textLength="6" x="307.5" y="669.8276">?</text><text fill="#000000" font-family="sans-serif" font-size="11" lengthAdjust="spacingAndGlyphs" textLength="14" x="325.5" y="663.4253">no</text><rect fill="#FFFFFF" filter="url(#fch2kzs0n9vxz)" height="33.9688" rx="12.5" ry="12.5" style="stroke: #000000; stroke-width: 1.5;" width="256" x="152.5" y="825.9063"/><text fill="#000000" font-family="sans-serif" font-size="12" lengthAdjust="spacingAndGlyphs" textLength="20" x="162.5" y="847.0449">set</text><text fill="#000000" font-family="monospace" font-size="12" font-weight="bold" lengthAdjust="spacingAndGlyphs" textLength="77" x="186.5" y="847.0449">break_table</text><text fill="#000000" font-family="sans-serif" font-size="12" lengthAdjust="spacingAndGlyphs" textLength="131" x="267.5" y="847.0449">to global break table</text><polygon fill="#FFFFFF" filter="url(#fch2kzs0n9vxz)" points="433,884.293,433,909.4258,596,909.4258,596,894.293,586,884.293,433,884.293" style="stroke: #000000; stroke-width: 1.0;"/><line style="stroke: #000000; stroke-width: 1.0;" x1="586" x2="586" y1="884.293" y2="894.293"/><line style="stroke: #000000; stroke-width: 1.0;" x1="596" x2="586" y1="894.293" y2="894.293"/><text fill="#000000" font-family="sans-serif" font-size="13" font-style="italic" lengthAdjust="spacingAndGlyphs" textLength="142" x="439" y="901.3599">This will be exapanded</text><rect fill="#FFFFFF" filter="url(#fch2kzs0n9vxz)" height="33.9688" rx="12.5" ry="12.5" style="stroke: #000000; stroke-width: 1.5;" width="265" x="148" y="879.875"/><text fill="#000000" font-family="sans-serif" font-size="12" lengthAdjust="spacingAndGlyphs" textLength="245" x="158" y="901.0137">handle break pattern in start of a word</text><polygon fill="#FFFFFF" filter="url(#fch2kzs0n9vxz)" points="430,938.2617,430,963.3945,593,963.3945,593,948.2617,583,938.2617,430,938.2617" style="stroke: #000000; stroke-width: 1.0;"/><line style="stroke: #000000; stroke-width: 1.0;" x1="583" x2="583" y1="938.2617" y2="948.2617"/><line style="stroke: #000000; stroke-width: 1.0;" x1="593" x2="583" y1="948.2617" y2="948.2617"/><text fill="#000000" font-family="sans-serif" font-size="13" font-style="italic" lengthAdjust="spacingAndGlyphs" textLength="142" x="436" y="955.3286">This will be exapanded</text><rect fill="#FFFFFF" filter="url(#fch2kzs0n9vxz)" height="33.9688" rx="12.5" ry="12.5" style="stroke: #000000; stroke-width: 1.5;" width="259" x="151" y="933.8438"/><text fill="#000000" font-family="sans-serif" font-size="12" lengthAdjust="spacingAndGlyphs" textLength="239" x="161" y="954.9824">handle break pattern in end of a word</text><polygon fill="#FFFFFF" filter="url(#fch2kzs0n9vxz)" points="438.5,992.2305,438.5,1017.3633,601.5,1017.3633,601.5,1002.2305,591.5,992.2305,438.5,992.2305" style="stroke: #000000; stroke-width: 1.0;"/><line style="stroke: #000000; stroke-width: 1.0;" x1="591.5" x2="591.5" y1="992.2305" y2="1002.2305"/><line style="stroke: #000000; stroke-width: 1.0;" x1="601.5" x2="591.5" y1="1002.2305" y2="1002.2305"/><text fill="#000000" font-family="sans-serif" font-size="13" font-style="italic" lengthAdjust="spacingAndGlyphs" textLength="142" x="444.5" y="1009.2974">This will be exapanded</text><rect fill="#FFFFFF" filter="url(#fch2kzs0n9vxz)" height="33.9688" rx="12.5" ry="12.5" style="stroke: #000000; stroke-width: 1.5;" width="276" x="142.5" y="987.8125"/><text fill="#000000" font-family="sans-serif" font-size="12" lengthAdjust="spacingAndGlyphs" textLength="256" x="152.5" y="1008.9512">handle break pattern in middle of a word</text><rect fill="#FFFFFF" filter="url(#fch2kzs0n9vxz)" height="33.9688" rx="12.5" ry="12.5" style="stroke: #000000; stroke-width: 1.5;" width="119" x="221" y="1041.7813"/><text fill="#000000" font-family="sans-serif" font-size="12" lengthAdjust="spacingAndGlyphs" textLength="39" x="231" y="1062.9199">return</text><text fill="#000000" font-family="monospace" font-size="12" lengthAdjust="spacingAndGlyphs" text-decoration="underline" textLength="56" x="274" y="1062.9199">BAD_WORD</text><line style="stroke: #000000; stroke-width: 1.0;" x1="274" x2="330" y1="1064.9199" y2="1064.9199"/><ellipse cx="280.5" cy="1105.75" fill="none" filter="url(#fch2kzs0n9vxz)" rx="10" ry="10" style="stroke: #000000; stroke-width: 1.0;"/><ellipse cx="281" cy="1106.25" fill="#000000" filter="url(#fch2kzs0n9vxz)" rx="6" ry="6" style="stroke: none; stroke-width: 1.0;"/><line style="stroke: #000000; stroke-width: 1.5;" x1="280.5" x2="280.5" y1="71.9063" y2="91.9063"/><polygon fill="#000000" points="276.5,81.9063,280.5,91.9063,284.5,81.9063,280.5,85.9063" style="stroke: #000000; stroke-width: 1.0;"/><line style="stroke: #000000; stroke-width: 1.5;" x1="280.5" x2="280.5" y1="276.6484" y2="304.1641"/><polygon fill="#000000" points="276.5,294.1641,280.5,304.1641,284.5,294.1641,280.5,298.1641" style="stroke: #000000; stroke-width: 1.0;"/><line style="stroke: #000000; stroke-width: 1.5;" x1="280.5" x2="280.5" y1="218.2773" y2="242.6797"/><polygon fill="#000000" points="276.5,232.6797,280.5,242.6797,284.5,232.6797,280.5,236.6797" style="stroke: #000000; stroke-width: 1.0;"/><line style="stroke: #000000; stroke-width: 1.5;" x1="416" x2="428" y1="206.2773" y2="206.2773"/><polygon fill="#000000" points="424,274.1641,428,284.1641,432,274.1641,428,278.1641" style="stroke: #000000; stroke-width: 1.5;"/><line style="stroke: #000000; stroke-width: 1.5;" x1="428" x2="428" y1="206.2773" y2="346.1641"/><line style="stroke: #000000; stroke-width: 1.5;" x1="428" x2="280.5" y1="346.1641" y2="346.1641"/><line style="stroke: #000000; stroke-width: 1.5;" x1="280.5" x2="280.5" y1="346.1641" y2="366.1641"/><polygon fill="#000000" points="276.5,356.1641,280.5,366.1641,284.5,356.1641,280.5,360.1641" style="stroke: #000000; stroke-width: 1.0;"/><line style="stroke: #000000; stroke-width: 1.5;" x1="280.5" x2="280.5" y1="448.5352" y2="476.0508"/><polygon fill="#000000" points="276.5,466.0508,280.5,476.0508,284.5,466.0508,280.5,470.0508" style="stroke: #000000; stroke-width: 1.0;"/><line style="stroke: #000000; stroke-width: 1.5;" x1="280.5" x2="280.5" y1="390.1641" y2="414.5664"/><polygon fill="#000000" points="276.5,404.5664,280.5,414.5664,284.5,404.5664,280.5,408.5664" style="stroke: #000000; stroke-width: 1.0;"/><line style="stroke: #000000; stroke-width: 1.5;" x1="479.5" x2="491.5" y1="378.1641" y2="378.1641"/><polygon fill="#000000" points="487.5,446.0508,491.5,456.0508,495.5,446.0508,491.5,450.0508" style="stroke: #000000; stroke-width: 1.5;"/><line style="stroke: #000000; stroke-width: 1.5;" x1="491.5" x2="491.5" y1="378.1641" y2="518.0508"/><line style="stroke: #000000; stroke-width: 1.5;" x1="491.5" x2="280.5" y1="518.0508" y2="518.0508"/><line style="stroke: #000000; stroke-width: 1.5;" x1="280.5" x2="280.5" y1="518.0508" y2="538.0508"/><polygon fill="#000000" points="276.5,528.0508,280.5,538.0508,284.5,528.0508,280.5,532.0508" style="stroke: #000000; stroke-width: 1.0;"/><line style="stroke: #000000; stroke-width: 1.5;" x1="280.5" x2="280.5" y1="572.0195" y2="592.0195"/><polygon fill="#000000" points="276.5,582.0195,280.5,592.0195,284.5,582.0195,280.5,586.0195" style="stroke: #000000; stroke-width: 1.0;"/><line style="stroke: #000000; stroke-width: 1.5;" x1="280.5" x2="280.5" y1="169.875" y2="194.2773"/><polygon fill="#000000" points="276.5,184.2773,280.5,194.2773,284.5,184.2773,280.5,188.2773" style="stroke: #000000; stroke-width: 1.0;"/><line style="stroke: #000000; stroke-width: 1.5;" x1="343.5" x2="501.5" y1="157.875" y2="157.875"/><polygon fill="#000000" points="497.5,397.6484,501.5,407.6484,505.5,397.6484,501.5,401.6484" style="stroke: #000000; stroke-width: 1.5;"/><line style="stroke: #000000; stroke-width: 1.5;" x1="501.5" x2="501.5" y1="157.875" y2="634.0195"/><line style="stroke: #000000; stroke-width: 1.5;" x1="501.5" x2="280.5" y1="634.0195" y2="634.0195"/><line style="stroke: #000000; stroke-width: 1.5;" x1="280.5" x2="280.5" y1="634.0195" y2="654.0195"/><polygon fill="#000000" points="276.5,644.0195,280.5,654.0195,284.5,644.0195,280.5,648.0195" style="stroke: #000000; stroke-width: 1.0;"/><line style="stroke: #000000; stroke-width: 1.5;" x1="280.5" x2="280.5" y1="125.875" y2="145.875"/><polygon fill="#000000" points="276.5,135.875,280.5,145.875,284.5,135.875,280.5,139.875" style="stroke: #000000; stroke-width: 1.0;"/><line style="stroke: #000000; stroke-width: 1.5;" x1="280.5" x2="280.5" y1="736.3906" y2="763.9063"/><polygon fill="#000000" points="276.5,753.9063,280.5,763.9063,284.5,753.9063,280.5,757.9063" style="stroke: #000000; stroke-width: 1.0;"/><line style="stroke: #000000; stroke-width: 1.5;" x1="280.5" x2="280.5" y1="678.0195" y2="702.4219"/><polygon fill="#000000" points="276.5,692.4219,280.5,702.4219,284.5,692.4219,280.5,696.4219" style="stroke: #000000; stroke-width: 1.0;"/><line style="stroke: #000000; stroke-width: 1.5;" x1="325.5" x2="350" y1="666.0195" y2="666.0195"/><polygon fill="#000000" points="346,733.9063,350,743.9063,354,733.9063,350,737.9063" style="stroke: #000000; stroke-width: 1.5;"/><line style="stroke: #000000; stroke-width: 1.5;" x1="350" x2="350" y1="666.0195" y2="805.9063"/><line style="stroke: #000000; stroke-width: 1.5;" x1="350" x2="280.5" y1="805.9063" y2="805.9063"/><line style="stroke: #000000; stroke-width: 1.5;" x1="280.5" x2="280.5" y1="805.9063" y2="825.9063"/><polygon fill="#000000" points="276.5,815.9063,280.5,825.9063,284.5,815.9063,280.5,819.9063" style="stroke: #000000; stroke-width: 1.0;"/><line style="stroke: #000000; stroke-width: 1.5;" x1="280.5" x2="280.5" y1="859.875" y2="879.875"/><polygon fill="#000000" points="276.5,869.875,280.5,879.875,284.5,869.875,280.5,873.875" style="stroke: #000000; stroke-width: 1.0;"/><line style="stroke: #000000; stroke-width: 1.5;" x1="280.5" x2="280.5" y1="913.8438" y2="933.8438"/><polygon fill="#000000" points="276.5,923.8438,280.5,933.8438,284.5,923.8438,280.5,927.8438" style="stroke: #000000; stroke-width: 1.0;"/><line style="stroke: #000000; stroke-width: 1.5;" x1="280.5" x2="280.5" y1="967.8125" y2="987.8125"/><polygon fill="#000000" points="276.5,977.8125,280.5,987.8125,284.5,977.8125,280.5,981.8125" style="stroke: #000000; stroke-width: 1.0;"/><line style="stroke: #000000; stroke-width: 1.5;" x1="280.5" x2="280.5" y1="1021.7813" y2="1041.7813"/><polygon fill="#000000" points="276.5,1031.7813,280.5,1041.7813,284.5,1031.7813,280.5,1035.7813" style="stroke: #000000; stroke-width: 1.0;"/><line style="stroke: #000000; stroke-width: 1.5;" x1="280.5" x2="280.5" y1="1075.75" y2="1095.75"/><polygon fill="#000000" points="276.5,1085.75,280.5,1095.75,284.5,1085.75,280.5,1089.75" style="stroke: #000000; stroke-width: 1.0;"/><!--
@startuml
skinparam BackgroundColor White|White
skinparam ArrowColor Black

skinparam NoteBackgroundColor White
skinparam NoteBorderColor Black

skinparam ActivityBackgroundColor White
skinparam ActivityDiamondBackgroundColor White
skinparam ActivityBorderColor Black
skinparam ActivityDiamondBorderColor Black

title **Nuspell - Check Spelling - ""spell_break(string s, integer depth)""**\n

start

:set **""ret""** to <back:skyblue>//""spell_casing(s)""//</back>;
if (**""res""** is not empty?) then (yes)
    if (**""res""** contains global //""forbiddenword_flag""//?) then (yes)
        :return __""BAD_WORD""__;
	    stop
    else (no)
    endif
    if (global //""forbid_warn""// is __""TRUE""__ and **""res""** contains global //""warn_flag""//?) then (yes)
        :return __""BAD_WORD""__;
	    stop
    else (no)
    endif
    :return __""GOOD_WORD""__;
    stop
else (no)
endif

if (**""depth""** is __""9""__?) then (yes)
    :return __""BAD_WORD""__;
	stop
else (no)
endif

:set **""break_table""** to global break table;

:handle break pattern in start of a word;
floating note right: //This will be exapanded//
:handle break pattern in end of a word;
floating note right: //This will be exapanded//
:handle break pattern in middle of a word;
floating note right: //This will be exapanded//

:return __""BAD_WORD""__;

stop

@enduml

PlantUML version 1.2017.15(Mon Jul 03 18:45:34 CEST 2017)
(GPL source distribution)
Java Runtime: OpenJDK Runtime Environment
JVM: OpenJDK 64-Bit Server VM
Java Version: 10.0.1+10-Ubuntu-3ubuntu1
Operating System: Linux
OS Version: 4.15.0-24-generic
Default Encoding: UTF-8
Language: en
Country: US
--></g></svg>