<?xml version="1.0" encoding="UTF-8" standalone="no"?><svg xmlns="http://www.w3.org/2000/svg" xmlns:xlink="http://www.w3.org/1999/xlink" contentScriptType="application/ecmascript" contentStyleType="text/css" height="1960px" preserveAspectRatio="none" style="width:749px;height:1960px;" version="1.1" viewBox="0 0 749 1960" width="749px" zoomAndPan="magnify"><defs><linearGradient id="g1tsx6xm8pdh7p0" x1="0%" x2="100%" y1="50%" y2="50%"><stop offset="0%" stop-color="#FFFFFF"/><stop offset="100%" stop-color="#FFFFFF"/></linearGradient><filter height="300%" id="f1tsx6xm8pdh7p" width="300%" x="-1" y="-1"><feGaussianBlur result="blurOut" stdDeviation="2.0"/><feColorMatrix in="blurOut" result="blurOut2" type="matrix" values="0 0 0 0 0 0 0 0 0 0 0 0 0 0 0 0 0 0 .4 0"/><feOffset dx="4.0" dy="4.0" in="blurOut2" result="blurOut3"/><feBlend in="SourceGraphic" in2="blurOut3" mode="normal"/></filter></defs><g><rect fill="url(#g1tsx6xm8pdh7p0)" height="1960" style="stroke: none; stroke-width: 1.0;" width="749" x="0" y="0"/><text fill="#000000" font-family="sans-serif" font-size="18" lengthAdjust="spacingAndGlyphs" textLength="482" x="132.5" y="26.708">Hunspell - Check Spelling - bool spell(word, info, root)</text><path d="M271.5,30.9531 L271.5,56.0859 L450.5,56.0859 L450.5,40.9531 L440.5,30.9531 L271.5,30.9531 " fill="#FBFB77" filter="url(#f1tsx6xm8pdh7p)" style="stroke: #A80036; stroke-width: 1.0;"/><path d="M440.5,30.9531 L440.5,40.9531 L450.5,40.9531 L440.5,30.9531 " fill="#FBFB77" style="stroke: #A80036; stroke-width: 1.0;"/><text fill="#000000" font-family="sans-serif" font-size="13" lengthAdjust="spacingAndGlyphs" textLength="158" x="277.5" y="48.02">Return FALSE is implied.</text><ellipse cx="480.5" cy="43.5195" fill="#000000" filter="url(#f1tsx6xm8pdh7p)" rx="10" ry="10" style="stroke: none; stroke-width: 1.0;"/><rect fill="#FFFFFF" filter="url(#f1tsx6xm8pdh7p)" height="198.0703" style="stroke: #000000; stroke-width: 2.0;" width="291" x="366" y="64.3213"/><path d="M458,65.3213 L458,73.6182 L448,83.6182 L366,83.6182 " fill="none" style="stroke: #000000; stroke-width: 2.0;"/><text fill="#000000" font-family="sans-serif" font-size="14" lengthAdjust="spacingAndGlyphs" textLength="82" x="369" y="78.3164">initialzation</text><rect fill="#FEFECE" filter="url(#f1tsx6xm8pdh7p)" height="33.9688" rx="12.5" ry="12.5" style="stroke: #A80036; stroke-width: 1.5;" width="164" x="398.5" y="100.6182"/><text fill="#000000" font-family="sans-serif" font-size="12" lengthAdjust="spacingAndGlyphs" textLength="144" x="408.5" y="121.7568">reset I/O parameter info</text><polygon fill="#FEFECE" filter="url(#f1tsx6xm8pdh7p)" points="388,169.5869,573,169.5869,585,181.5869,573,193.5869,388,193.5869,376,181.5869,388,169.5869" style="stroke: #A80036; stroke-width: 1.5;"/><text fill="#000000" font-family="sans-serif" font-size="11" lengthAdjust="spacingAndGlyphs" textLength="14" x="484.5" y="203.7974">no</text><text fill="#000000" font-family="sans-serif" font-size="11" lengthAdjust="spacingAndGlyphs" textLength="185" x="388" y="185.395">word length exceeds maximum?</text><text fill="#000000" font-family="sans-serif" font-size="11" lengthAdjust="spacingAndGlyphs" textLength="20" x="585" y="178.9927">yes</text><ellipse cx="625" cy="181.5869" fill="none" filter="url(#f1tsx6xm8pdh7p)" rx="10" ry="10" style="stroke: #000000; stroke-width: 1.0;"/><ellipse cx="625.5" cy="182.0869" fill="#000000" filter="url(#f1tsx6xm8pdh7p)" rx="6" ry="6" style="stroke: none; stroke-width: 1.0;"/><rect fill="#FFFFFF" filter="url(#f1tsx6xm8pdh7p)" height="813.4297" style="stroke: #000000; stroke-width: 2.0;" width="485" x="236.25" y="273.1934"/><path d="M364.25,274.1934 L364.25,282.4902 L354.25,292.4902 L236.25,292.4902 " fill="none" style="stroke: #000000; stroke-width: 2.0;"/><text fill="#000000" font-family="sans-serif" font-size="14" lengthAdjust="spacingAndGlyphs" textLength="118" x="239.25" y="287.1885">input conversion</text><rect fill="#FEFECE" filter="url(#f1tsx6xm8pdh7p)" height="33.9688" rx="12.5" ry="12.5" style="stroke: #A80036; stroke-width: 1.5;" width="226" x="367.5" y="357.8926"/><text fill="#000000" font-family="sans-serif" font-size="12" lengthAdjust="spacingAndGlyphs" textLength="206" x="377.5" y="379.0313">perform input conversion on word</text><polygon fill="#FEFECE" filter="url(#f1tsx6xm8pdh7p)" points="403,309.4902,558,309.4902,570,321.4902,558,333.4902,403,333.4902,391,321.4902,403,309.4902" style="stroke: #A80036; stroke-width: 1.5;"/><text fill="#000000" font-family="sans-serif" font-size="11" lengthAdjust="spacingAndGlyphs" textLength="20" x="484.5" y="343.7007">yes</text><text fill="#000000" font-family="sans-serif" font-size="11" lengthAdjust="spacingAndGlyphs" textLength="155" x="403" y="325.2983">input conversion available?</text><text fill="#000000" font-family="sans-serif" font-size="11" lengthAdjust="spacingAndGlyphs" textLength="14" x="570" y="318.896">no</text><polygon fill="#FEFECE" filter="url(#f1tsx6xm8pdh7p)" points="480.5,416.2637,492.5,428.2637,480.5,440.2637,468.5,428.2637,480.5,416.2637" style="stroke: #A80036; stroke-width: 1.5;"/><polygon fill="#FEFECE" filter="url(#f1tsx6xm8pdh7p)" points="388.5,475.2637,572.5,475.2637,584.5,487.2637,572.5,499.2637,388.5,499.2637,376.5,487.2637,388.5,475.2637" style="stroke: #A80036; stroke-width: 1.5;"/><text fill="#000000" font-family="sans-serif" font-size="11" lengthAdjust="spacingAndGlyphs" textLength="184" x="388.5" y="491.0718">input conversion changed word?</text><text fill="#000000" font-family="sans-serif" font-size="11" lengthAdjust="spacingAndGlyphs" textLength="20" x="356.5" y="484.6694">yes</text><text fill="#000000" font-family="sans-serif" font-size="11" lengthAdjust="spacingAndGlyphs" textLength="14" x="584.5" y="484.6694">no</text><rect fill="#FEFECE" filter="url(#f1tsx6xm8pdh7p)" height="89.8438" rx="12.5" ry="12.5" style="stroke: #A80036; stroke-width: 1.5;" width="216" x="256.25" y="509.2637"/><text fill="#000000" font-family="sans-serif" font-size="12" lengthAdjust="spacingAndGlyphs" textLength="196" x="266.25" y="530.4023">clean converted word and store:</text><text fill="#000000" font-family="sans-serif" font-size="12" lengthAdjust="spacingAndGlyphs" textLength="132" x="266.25" y="544.3711">- cleaned word length</text><text fill="#000000" font-family="sans-serif" font-size="12" lengthAdjust="spacingAndGlyphs" textLength="89" x="266.25" y="558.3398">- cleaned word</text><text fill="#000000" font-family="sans-serif" font-size="12" lengthAdjust="spacingAndGlyphs" textLength="118" x="266.25" y="572.3086">- capitalization type</text><text fill="#000000" font-family="sans-serif" font-size="12" lengthAdjust="spacingAndGlyphs" textLength="79" x="266.25" y="586.2773">- abbr. count</text><rect fill="#FEFECE" filter="url(#f1tsx6xm8pdh7p)" height="89.8438" rx="12.5" ry="12.5" style="stroke: #A80036; stroke-width: 1.5;" width="209" x="492.25" y="509.2637"/><text fill="#000000" font-family="sans-serif" font-size="12" lengthAdjust="spacingAndGlyphs" textLength="189" x="502.25" y="530.4023">clean (original) word and store:</text><text fill="#000000" font-family="sans-serif" font-size="12" lengthAdjust="spacingAndGlyphs" textLength="132" x="502.25" y="544.3711">- cleaned word length</text><text fill="#000000" font-family="sans-serif" font-size="12" lengthAdjust="spacingAndGlyphs" textLength="89" x="502.25" y="558.3398">- cleaned word</text><text fill="#000000" font-family="sans-serif" font-size="12" lengthAdjust="spacingAndGlyphs" textLength="118" x="502.25" y="572.3086">- capitalization type</text><text fill="#000000" font-family="sans-serif" font-size="12" lengthAdjust="spacingAndGlyphs" textLength="122" x="502.25" y="586.2773">- abbreviation count</text><polygon fill="#FEFECE" filter="url(#f1tsx6xm8pdh7p)" points="480.5,605.1074,492.5,617.1074,480.5,629.1074,468.5,617.1074,480.5,605.1074" style="stroke: #A80036; stroke-width: 1.5;"/><rect fill="#FEFECE" filter="url(#f1tsx6xm8pdh7p)" height="33.9688" rx="12.5" ry="12.5" style="stroke: #A80036; stroke-width: 1.5;" width="184" x="388.5" y="712.5098"/><text fill="#000000" font-family="sans-serif" font-size="12" lengthAdjust="spacingAndGlyphs" textLength="164" x="398.5" y="733.6484">set abbreviation count to 1</text><polygon fill="#FEFECE" filter="url(#f1tsx6xm8pdh7p)" points="438,664.1074,523,664.1074,535,676.1074,523,688.1074,438,688.1074,426,676.1074,438,664.1074" style="stroke: #A80036; stroke-width: 1.5;"/><text fill="#000000" font-family="sans-serif" font-size="11" lengthAdjust="spacingAndGlyphs" textLength="20" x="484.5" y="698.3179">yes</text><text fill="#000000" font-family="sans-serif" font-size="11" lengthAdjust="spacingAndGlyphs" textLength="85" x="438" y="679.9155">client is Mozilla</text><text fill="#000000" font-family="sans-serif" font-size="11" lengthAdjust="spacingAndGlyphs" textLength="14" x="535" y="673.5132">no</text><polygon fill="#FEFECE" filter="url(#f1tsx6xm8pdh7p)" points="480.5,770.8809,492.5,782.8809,480.5,794.8809,468.5,782.8809,480.5,770.8809" style="stroke: #A80036; stroke-width: 1.5;"/><rect fill="#FEFECE" filter="url(#f1tsx6xm8pdh7p)" height="33.9688" rx="12.5" ry="12.5" style="stroke: #A80036; stroke-width: 1.5;" width="94" x="433.5" y="878.2832"/><text fill="#000000" font-family="sans-serif" font-size="12" lengthAdjust="spacingAndGlyphs" textLength="74" x="443.5" y="899.4219">return TRUE</text><ellipse cx="480.5" cy="957.252" fill="none" filter="url(#f1tsx6xm8pdh7p)" rx="10" ry="10" style="stroke: #000000; stroke-width: 1.0;"/><ellipse cx="481" cy="957.752" fill="#000000" filter="url(#f1tsx6xm8pdh7p)" rx="6" ry="6" style="stroke: none; stroke-width: 1.0;"/><polygon fill="#FEFECE" filter="url(#f1tsx6xm8pdh7p)" points="330.5,829.8809,630.5,829.8809,642.5,841.8809,630.5,853.8809,330.5,853.8809,318.5,841.8809,330.5,829.8809" style="stroke: #A80036; stroke-width: 1.5;"/><text fill="#000000" font-family="sans-serif" font-size="11" lengthAdjust="spacingAndGlyphs" textLength="20" x="484.5" y="864.0913">yes</text><text fill="#000000" font-family="sans-serif" font-size="11" lengthAdjust="spacingAndGlyphs" textLength="300" x="330.5" y="845.689">cleaned word length is 0 or hash manager is empty?</text><text fill="#000000" font-family="sans-serif" font-size="11" lengthAdjust="spacingAndGlyphs" textLength="14" x="642.5" y="839.2866">no</text><rect fill="#FEFECE" filter="url(#f1tsx6xm8pdh7p)" height="33.9688" rx="12.5" ry="12.5" style="stroke: #A80036; stroke-width: 1.5;" width="78" x="441.5" y="1032.6543"/><text fill="#000000" font-family="sans-serif" font-size="12" lengthAdjust="spacingAndGlyphs" textLength="58" x="451.5" y="1053.793">reset root</text><rect fill="#FFFFFF" filter="url(#f1tsx6xm8pdh7p)" height="293.0391" style="stroke: #000000; stroke-width: 2.0;" width="293" x="334" y="1097.4248"/><path d="M555,1098.4248 L555,1106.7217 L545,1116.7217 L334,1116.7217 " fill="none" style="stroke: #000000; stroke-width: 2.0;"/><text fill="#000000" font-family="sans-serif" font-size="14" lengthAdjust="spacingAndGlyphs" textLength="211" x="337" y="1111.4199">numbers and their separators</text><rect fill="#FEFECE" filter="url(#f1tsx6xm8pdh7p)" height="33.9688" rx="12.5" ry="12.5" style="stroke: #A80036; stroke-width: 1.5;" width="273" x="344" y="1133.7217"/><text fill="#000000" font-family="sans-serif" font-size="12" lengthAdjust="spacingAndGlyphs" textLength="253" x="354" y="1154.8604">determine number state for cleaned word</text><rect fill="#FEFECE" filter="url(#f1tsx6xm8pdh7p)" height="33.9688" rx="12.5" ry="12.5" style="stroke: #A80036; stroke-width: 1.5;" width="94" x="433.5" y="1251.0928"/><text fill="#000000" font-family="sans-serif" font-size="12" lengthAdjust="spacingAndGlyphs" textLength="74" x="443.5" y="1272.2314">return TRUE</text><ellipse cx="480.5" cy="1330.0615" fill="none" filter="url(#f1tsx6xm8pdh7p)" rx="10" ry="10" style="stroke: #000000; stroke-width: 1.0;"/><ellipse cx="481" cy="1330.5615" fill="#000000" filter="url(#f1tsx6xm8pdh7p)" rx="6" ry="6" style="stroke: none; stroke-width: 1.0;"/><polygon fill="#FEFECE" filter="url(#f1tsx6xm8pdh7p)" points="403.5,1202.6904,557.5,1202.6904,569.5,1214.6904,557.5,1226.6904,403.5,1226.6904,391.5,1214.6904,403.5,1202.6904" style="stroke: #A80036; stroke-width: 1.5;"/><text fill="#000000" font-family="sans-serif" font-size="11" lengthAdjust="spacingAndGlyphs" textLength="20" x="484.5" y="1236.9009">yes</text><text fill="#000000" font-family="sans-serif" font-size="11" lengthAdjust="spacingAndGlyphs" textLength="154" x="403.5" y="1218.4985">cleaned word is a number?</text><text fill="#000000" font-family="sans-serif" font-size="11" lengthAdjust="spacingAndGlyphs" textLength="14" x="569.5" y="1212.0962">no</text><rect fill="#FFFFFF" filter="url(#f1tsx6xm8pdh7p)" height="90.2656" style="stroke: #000000; stroke-width: 2.0;" width="150" x="405.5" y="1401.2656"/><path d="M545.5,1402.2656 L545.5,1410.5625 L535.5,1420.5625 L405.5,1420.5625 " fill="none" style="stroke: #000000; stroke-width: 2.0;"/><text fill="#000000" font-family="sans-serif" font-size="14" lengthAdjust="spacingAndGlyphs" textLength="130" x="408.5" y="1415.2607">capitalization type</text><rect fill="#FEFECE" filter="url(#f1tsx6xm8pdh7p)" height="33.9688" rx="12.5" ry="12.5" style="stroke: #A80036; stroke-width: 1.5;" width="54" x="453.5" y="1437.5625"/><text fill="#000000" font-family="sans-serif" font-size="12" lengthAdjust="spacingAndGlyphs" textLength="34" x="463.5" y="1458.7012">TODO</text><rect fill="#FFFFFF" filter="url(#f1tsx6xm8pdh7p)" height="104.2344" style="stroke: #000000; stroke-width: 2.0;" width="524" x="108.5" y="1502.333"/><path d="M199.5,1503.333 L199.5,1511.6299 L189.5,1521.6299 L108.5,1521.6299 " fill="none" style="stroke: #000000; stroke-width: 2.0;"/><text fill="#000000" font-family="sans-serif" font-size="14" lengthAdjust="spacingAndGlyphs" textLength="81" x="111.5" y="1516.3281">check word</text><path d="M118.5,1550.0322 L118.5,1575.165 A0,0 0 0 0 118.5,1575.165 L318.5,1575.165 A0,0 0 0 0 318.5,1575.165 L318.5,1568.0322 L338.5,1562.5986 L318.5,1560.0322 L318.5,1560.0322 L308.5,1550.0322 L118.5,1550.0322 A0,0 0 0 0 118.5,1550.0322 " fill="#FBFB77" filter="url(#f1tsx6xm8pdh7p)" style="stroke: #A80036; stroke-width: 1.0;"/><path d="M308.5,1550.0322 L308.5,1560.0322 L318.5,1560.0322 L308.5,1550.0322 " fill="#FBFB77" style="stroke: #A80036; stroke-width: 1.0;"/><text fill="#000000" font-family="sans-serif" font-size="13" lengthAdjust="spacingAndGlyphs" textLength="179" x="124.5" y="1567.0991">see other activity diagrams</text><rect fill="#FEFECE" filter="url(#f1tsx6xm8pdh7p)" height="47.9375" rx="12.5" ry="12.5" style="stroke: #A80036; stroke-width: 1.5;" width="284" x="338.5" y="1538.6299"/><text fill="#000000" font-family="sans-serif" font-size="12" lengthAdjust="spacingAndGlyphs" textLength="227" x="348.5" y="1559.7686">set root value to result of check_word</text><text fill="#000000" font-family="sans-serif" font-size="12" lengthAdjust="spacingAndGlyphs" textLength="264" x="348.5" y="1573.7373">according depending on cleaned word case</text><rect fill="#FFFFFF" filter="url(#f1tsx6xm8pdh7p)" height="90.2656" style="stroke: #000000; stroke-width: 2.0;" width="235" x="363" y="1617.3691"/><path d="M488,1618.3691 L488,1626.666 L478,1636.666 L363,1636.666 " fill="none" style="stroke: #000000; stroke-width: 2.0;"/><text fill="#000000" font-family="sans-serif" font-size="14" lengthAdjust="spacingAndGlyphs" textLength="115" x="366" y="1631.3643">forbidden words</text><rect fill="#FEFECE" filter="url(#f1tsx6xm8pdh7p)" height="33.9688" rx="12.5" ry="12.5" style="stroke: #A80036; stroke-width: 1.5;" width="215" x="373" y="1653.666"/><text fill="#000000" font-family="sans-serif" font-size="12" lengthAdjust="spacingAndGlyphs" textLength="195" x="383" y="1674.8047">TODO deal with forbidden words</text><rect fill="#FFFFFF" filter="url(#f1tsx6xm8pdh7p)" height="90.2656" style="stroke: #000000; stroke-width: 2.0;" width="728" x="10" y="1718.4365"/><path d="M53,1719.4365 L53,1727.7334 L43,1737.7334 L10,1737.7334 " fill="none" style="stroke: #000000; stroke-width: 2.0;"/><text fill="#000000" font-family="sans-serif" font-size="14" lengthAdjust="spacingAndGlyphs" textLength="33" x="13" y="1732.4316">spell</text><path d="M20,1759.1514 L20,1784.2842 A0,0 0 0 0 20,1784.2842 L213,1784.2842 A0,0 0 0 0 213,1784.2842 L213,1777.1514 L233,1771.7178 L213,1769.1514 L213,1769.1514 L203,1759.1514 L20,1759.1514 A0,0 0 0 0 20,1759.1514 " fill="#FBFB77" filter="url(#f1tsx6xm8pdh7p)" style="stroke: #A80036; stroke-width: 1.0;"/><path d="M203,1759.1514 L203,1769.1514 L213,1769.1514 L203,1759.1514 " fill="#FBFB77" style="stroke: #A80036; stroke-width: 1.0;"/><text fill="#000000" font-family="sans-serif" font-size="13" lengthAdjust="spacingAndGlyphs" textLength="172" x="26" y="1776.2183">see other activity diagram</text><rect fill="#FEFECE" filter="url(#f1tsx6xm8pdh7p)" height="33.9688" rx="12.5" ry="12.5" style="stroke: #A80036; stroke-width: 1.5;" width="495" x="233" y="1754.7334"/><text fill="#000000" font-family="sans-serif" font-size="12" lengthAdjust="spacingAndGlyphs" textLength="475" x="243" y="1775.8721">return result recursive call to this spell algorithm depending on break patterns</text><rect fill="#FFFFFF" filter="url(#f1tsx6xm8pdh7p)" height="90.2656" style="stroke: #000000; stroke-width: 2.0;" width="120" x="420.5" y="1819.5039"/><path d="M480.5,1820.5039 L480.5,1828.8008 L470.5,1838.8008 L420.5,1838.8008 " fill="none" style="stroke: #000000; stroke-width: 2.0;"/><text fill="#000000" font-family="sans-serif" font-size="14" lengthAdjust="spacingAndGlyphs" textLength="50" x="423.5" y="1833.499">default</text><rect fill="#FEFECE" filter="url(#f1tsx6xm8pdh7p)" height="33.9688" rx="12.5" ry="12.5" style="stroke: #A80036; stroke-width: 1.5;" width="100" x="430.5" y="1855.8008"/><text fill="#000000" font-family="sans-serif" font-size="12" lengthAdjust="spacingAndGlyphs" textLength="80" x="440.5" y="1876.9395">return FALSE</text><ellipse cx="480.5" cy="1939.7695" fill="none" filter="url(#f1tsx6xm8pdh7p)" rx="10" ry="10" style="stroke: #000000; stroke-width: 1.0;"/><ellipse cx="481" cy="1940.2695" fill="#000000" filter="url(#f1tsx6xm8pdh7p)" rx="6" ry="6" style="stroke: none; stroke-width: 1.0;"/><line style="stroke: #A80036; stroke-width: 1.5;" x1="480.5" x2="480.5" y1="193.5869" y2="309.4902"/><polygon fill="#A80036" points="476.5,299.4902,480.5,309.4902,484.5,299.4902,480.5,303.4902" style="stroke: #A80036; stroke-width: 1.0;"/><line style="stroke: #A80036; stroke-width: 1.5;" x1="585" x2="615" y1="181.5869" y2="181.5869"/><polygon fill="#A80036" points="605,177.5869,615,181.5869,605,185.5869,609,181.5869" style="stroke: #A80036; stroke-width: 1.0;"/><line style="stroke: #A80036; stroke-width: 1.5;" x1="480.5" x2="480.5" y1="134.5869" y2="169.5869"/><polygon fill="#A80036" points="476.5,159.5869,480.5,169.5869,484.5,159.5869,480.5,163.5869" style="stroke: #A80036; stroke-width: 1.0;"/><line style="stroke: #A80036; stroke-width: 1.5;" x1="480.5" x2="480.5" y1="53.5195" y2="100.6182"/><polygon fill="#A80036" points="476.5,90.6182,480.5,100.6182,484.5,90.6182,480.5,94.6182" style="stroke: #A80036; stroke-width: 1.0;"/><line style="stroke: #A80036; stroke-width: 1.5;" x1="480.5" x2="480.5" y1="333.4902" y2="357.8926"/><polygon fill="#A80036" points="476.5,347.8926,480.5,357.8926,484.5,347.8926,480.5,351.8926" style="stroke: #A80036; stroke-width: 1.0;"/><line style="stroke: #A80036; stroke-width: 1.5;" x1="570" x2="603.5" y1="321.4902" y2="321.4902"/><polygon fill="#A80036" points="599.5,364.877,603.5,374.877,607.5,364.877,603.5,368.877" style="stroke: #A80036; stroke-width: 1.5;"/><line style="stroke: #A80036; stroke-width: 1.5;" x1="603.5" x2="603.5" y1="321.4902" y2="428.2637"/><line style="stroke: #A80036; stroke-width: 1.5;" x1="603.5" x2="492.5" y1="428.2637" y2="428.2637"/><polygon fill="#A80036" points="502.5,424.2637,492.5,428.2637,502.5,432.2637,498.5,428.2637" style="stroke: #A80036; stroke-width: 1.0;"/><line style="stroke: #A80036; stroke-width: 1.5;" x1="480.5" x2="480.5" y1="391.8613" y2="416.2637"/><polygon fill="#A80036" points="476.5,406.2637,480.5,416.2637,484.5,406.2637,480.5,410.2637" style="stroke: #A80036; stroke-width: 1.0;"/><line style="stroke: #A80036; stroke-width: 1.5;" x1="376.5" x2="364.25" y1="487.2637" y2="487.2637"/><line style="stroke: #A80036; stroke-width: 1.5;" x1="364.25" x2="364.25" y1="487.2637" y2="509.2637"/><polygon fill="#A80036" points="360.25,499.2637,364.25,509.2637,368.25,499.2637,364.25,503.2637" style="stroke: #A80036; stroke-width: 1.0;"/><line style="stroke: #A80036; stroke-width: 1.5;" x1="584.5" x2="596.75" y1="487.2637" y2="487.2637"/><line style="stroke: #A80036; stroke-width: 1.5;" x1="596.75" x2="596.75" y1="487.2637" y2="509.2637"/><polygon fill="#A80036" points="592.75,499.2637,596.75,509.2637,600.75,499.2637,596.75,503.2637" style="stroke: #A80036; stroke-width: 1.0;"/><line style="stroke: #A80036; stroke-width: 1.5;" x1="364.25" x2="364.25" y1="599.1074" y2="617.1074"/><line style="stroke: #A80036; stroke-width: 1.5;" x1="364.25" x2="468.5" y1="617.1074" y2="617.1074"/><polygon fill="#A80036" points="458.5,613.1074,468.5,617.1074,458.5,621.1074,462.5,617.1074" style="stroke: #A80036; stroke-width: 1.0;"/><line style="stroke: #A80036; stroke-width: 1.5;" x1="596.75" x2="596.75" y1="599.1074" y2="617.1074"/><line style="stroke: #A80036; stroke-width: 1.5;" x1="596.75" x2="492.5" y1="617.1074" y2="617.1074"/><polygon fill="#A80036" points="502.5,613.1074,492.5,617.1074,502.5,621.1074,498.5,617.1074" style="stroke: #A80036; stroke-width: 1.0;"/><line style="stroke: #A80036; stroke-width: 1.5;" x1="480.5" x2="480.5" y1="440.2637" y2="475.2637"/><polygon fill="#A80036" points="476.5,465.2637,480.5,475.2637,484.5,465.2637,480.5,469.2637" style="stroke: #A80036; stroke-width: 1.0;"/><line style="stroke: #A80036; stroke-width: 1.5;" x1="480.5" x2="480.5" y1="688.1074" y2="712.5098"/><polygon fill="#A80036" points="476.5,702.5098,480.5,712.5098,484.5,702.5098,480.5,706.5098" style="stroke: #A80036; stroke-width: 1.0;"/><line style="stroke: #A80036; stroke-width: 1.5;" x1="535" x2="582.5" y1="676.1074" y2="676.1074"/><polygon fill="#A80036" points="578.5,719.4941,582.5,729.4941,586.5,719.4941,582.5,723.4941" style="stroke: #A80036; stroke-width: 1.5;"/><line style="stroke: #A80036; stroke-width: 1.5;" x1="582.5" x2="582.5" y1="676.1074" y2="782.8809"/><line style="stroke: #A80036; stroke-width: 1.5;" x1="582.5" x2="492.5" y1="782.8809" y2="782.8809"/><polygon fill="#A80036" points="502.5,778.8809,492.5,782.8809,502.5,786.8809,498.5,782.8809" style="stroke: #A80036; stroke-width: 1.0;"/><line style="stroke: #A80036; stroke-width: 1.5;" x1="480.5" x2="480.5" y1="746.4785" y2="770.8809"/><polygon fill="#A80036" points="476.5,760.8809,480.5,770.8809,484.5,760.8809,480.5,764.8809" style="stroke: #A80036; stroke-width: 1.0;"/><line style="stroke: #A80036; stroke-width: 1.5;" x1="480.5" x2="480.5" y1="629.1074" y2="664.1074"/><polygon fill="#A80036" points="476.5,654.1074,480.5,664.1074,484.5,654.1074,480.5,658.1074" style="stroke: #A80036; stroke-width: 1.0;"/><line style="stroke: #A80036; stroke-width: 1.5;" x1="480.5" x2="480.5" y1="912.252" y2="947.252"/><polygon fill="#A80036" points="476.5,937.252,480.5,947.252,484.5,937.252,480.5,941.252" style="stroke: #A80036; stroke-width: 1.0;"/><line style="stroke: #A80036; stroke-width: 1.5;" x1="480.5" x2="480.5" y1="853.8809" y2="878.2832"/><polygon fill="#A80036" points="476.5,868.2832,480.5,878.2832,484.5,868.2832,480.5,872.2832" style="stroke: #A80036; stroke-width: 1.0;"/><line style="stroke: #A80036; stroke-width: 1.5;" x1="642.5" x2="654.5" y1="841.8809" y2="841.8809"/><polygon fill="#A80036" points="650.5,909.7676,654.5,919.7676,658.5,909.7676,654.5,913.7676" style="stroke: #A80036; stroke-width: 1.5;"/><line style="stroke: #A80036; stroke-width: 1.5;" x1="654.5" x2="654.5" y1="841.8809" y2="997.6543"/><line style="stroke: #A80036; stroke-width: 1.5;" x1="654.5" x2="480.5" y1="997.6543" y2="997.6543"/><line style="stroke: #A80036; stroke-width: 1.5;" x1="480.5" x2="480.5" y1="997.6543" y2="1032.6543"/><polygon fill="#A80036" points="476.5,1022.6543,480.5,1032.6543,484.5,1022.6543,480.5,1026.6543" style="stroke: #A80036; stroke-width: 1.0;"/><line style="stroke: #A80036; stroke-width: 1.5;" x1="480.5" x2="480.5" y1="794.8809" y2="829.8809"/><polygon fill="#A80036" points="476.5,819.8809,480.5,829.8809,484.5,819.8809,480.5,823.8809" style="stroke: #A80036; stroke-width: 1.0;"/><line style="stroke: #A80036; stroke-width: 1.5;" x1="480.5" x2="480.5" y1="1285.0615" y2="1320.0615"/><polygon fill="#A80036" points="476.5,1310.0615,480.5,1320.0615,484.5,1310.0615,480.5,1314.0615" style="stroke: #A80036; stroke-width: 1.0;"/><line style="stroke: #A80036; stroke-width: 1.5;" x1="480.5" x2="480.5" y1="1226.6904" y2="1251.0928"/><polygon fill="#A80036" points="476.5,1241.0928,480.5,1251.0928,484.5,1241.0928,480.5,1245.0928" style="stroke: #A80036; stroke-width: 1.0;"/><line style="stroke: #A80036; stroke-width: 1.5;" x1="569.5" x2="581.5" y1="1214.6904" y2="1214.6904"/><polygon fill="#A80036" points="577.5,1282.5771,581.5,1292.5771,585.5,1282.5771,581.5,1286.5771" style="stroke: #A80036; stroke-width: 1.5;"/><line style="stroke: #A80036; stroke-width: 1.5;" x1="581.5" x2="581.5" y1="1214.6904" y2="1370.4639"/><line style="stroke: #A80036; stroke-width: 1.5;" x1="581.5" x2="480.5" y1="1370.4639" y2="1370.4639"/><line style="stroke: #A80036; stroke-width: 1.5;" x1="480.5" x2="480.5" y1="1370.4639" y2="1437.5625"/><polygon fill="#A80036" points="476.5,1427.5625,480.5,1437.5625,484.5,1427.5625,480.5,1431.5625" style="stroke: #A80036; stroke-width: 1.0;"/><line style="stroke: #A80036; stroke-width: 1.5;" x1="480.5" x2="480.5" y1="1167.6904" y2="1202.6904"/><polygon fill="#A80036" points="476.5,1192.6904,480.5,1202.6904,484.5,1192.6904,480.5,1196.6904" style="stroke: #A80036; stroke-width: 1.0;"/><line style="stroke: #A80036; stroke-width: 1.5;" x1="480.5" x2="480.5" y1="1066.623" y2="1133.7217"/><polygon fill="#A80036" points="476.5,1123.7217,480.5,1133.7217,484.5,1123.7217,480.5,1127.7217" style="stroke: #A80036; stroke-width: 1.0;"/><line style="stroke: #A80036; stroke-width: 1.5;" x1="480.5" x2="480.5" y1="1471.5313" y2="1538.6299"/><polygon fill="#A80036" points="476.5,1528.6299,480.5,1538.6299,484.5,1528.6299,480.5,1532.6299" style="stroke: #A80036; stroke-width: 1.0;"/><line style="stroke: #A80036; stroke-width: 1.5;" x1="480.5" x2="480.5" y1="1586.5674" y2="1653.666"/><polygon fill="#A80036" points="476.5,1643.666,480.5,1653.666,484.5,1643.666,480.5,1647.666" style="stroke: #A80036; stroke-width: 1.0;"/><line style="stroke: #A80036; stroke-width: 1.5;" x1="480.5" x2="480.5" y1="1687.6348" y2="1754.7334"/><polygon fill="#A80036" points="476.5,1744.7334,480.5,1754.7334,484.5,1744.7334,480.5,1748.7334" style="stroke: #A80036; stroke-width: 1.0;"/><line style="stroke: #A80036; stroke-width: 1.5;" x1="480.5" x2="480.5" y1="1788.7021" y2="1855.8008"/><polygon fill="#A80036" points="476.5,1845.8008,480.5,1855.8008,484.5,1845.8008,480.5,1849.8008" style="stroke: #A80036; stroke-width: 1.0;"/><line style="stroke: #A80036; stroke-width: 1.5;" x1="480.5" x2="480.5" y1="1889.7695" y2="1929.7695"/><polygon fill="#A80036" points="476.5,1919.7695,480.5,1929.7695,484.5,1919.7695,480.5,1923.7695" style="stroke: #A80036; stroke-width: 1.0;"/><!--
@startuml
skinparam backgroundcolor White|White

title Hunspell - Check Spelling - bool spell(word, info, root)

start
floating note: Return FALSE is implied.


partition "initialzation" {
	:reset I/O parameter info;
	if (word length exceeds maximum?) then (yes)
		stop
	else (no)
	endif
}

partition "input conversion" {
	if (input conversion available?) then (yes)
		:perform input conversion on word;
	else (no)
	endif
	if (input conversion changed word?) then (yes)
		:clean converted word and store:\n- cleaned word length\n- cleaned word\n- capitalization type\n- abbr. count;
	else (no)
		:clean (original) word and store:\n- cleaned word length\n- cleaned word\n- capitalization type\n- abbreviation count;
	endif

	if (client is Mozilla) then (yes)
		:set abbreviation count to 1;
	else (no)
	endif

	if (cleaned word length is 0 or hash manager is empty?) then (yes)
		:return TRUE;
		stop
	else (no)
	endif
	:reset root;
}

partition "numbers and their separators" {
	:determine number state for cleaned word;
	if (cleaned word is a number?) then (yes)
		:return TRUE;
		stop
	else (no)
	endif
}

partition "capitalization type" {
	:TODO;
}

partition "check word" {
	:set root value to result of check_word\naccording depending on cleaned word case;
	note left: see other activity diagrams
}

partition "forbidden words" {
	:TODO deal with forbidden words;
}

partition "spell" {
	:return result recursive call to this spell algorithm depending on break patterns;
	note left: see other activity diagram
}

partition "default" {
	:return FALSE;
}

stop

@enduml

PlantUML version 1.2018.01(Sun Jan 28 19:08:22 CET 2018)
(GPL source distribution)
Java Runtime: OpenJDK Runtime Environment
JVM: OpenJDK 64-Bit Server VM
Java Version: 1.8.0_151-8u151-b12-0ubuntu0.17.10.2-b12
Operating System: Linux
OS Version: 4.13.0-36-generic
Default Encoding: UTF-8
Language: en
Country: US
--></g></svg>