<?xml version="1.0" encoding="UTF-8" standalone="yes"?><svg xmlns="http://www.w3.org/2000/svg" xmlns:xlink="http://www.w3.org/1999/xlink" height="1545px" style="width:1046px;height:1545px;" version="1.1" viewBox="0 0 1046 1545" width="1046px"><defs><filter height="300%" id="f1" width="300%" x="-1" y="-1"><feGaussianBlur result="blurOut" stdDeviation="2.0"/><feColorMatrix in="blurOut" result="blurOut2" type="matrix" values="0 0 0 0 0 0 0 0 0 0 0 0 0 0 0 0 0 0 .4 0"/><feOffset dx="4.0" dy="4.0" in="blurOut2" result="blurOut3"/><feBlend in="SourceGraphic" in2="blurOut3" mode="normal"/></filter></defs><g><text fill="#000000" font-family="sans-serif" font-size="18" lengthAdjust="spacingAndGlyphs" textLength="200" x="424.5" y="26.708">Hunspell - Spell (spell)</text><ellipse cx="615.5" cy="40.9531" fill="#000000" filter="url(#f1)" rx="10" ry="10" style="stroke: none; stroke-width: 1.0;"/><polygon fill="#FEFECE" filter="url(#f1)" points="524,70.9531,707,70.9531,719,82.9531,707,94.9531,524,94.9531,512,82.9531,524,70.9531" style="stroke: #A80036; stroke-width: 1.5;"/><text fill="#000000" font-family="sans-serif" font-size="11" lengthAdjust="spacingAndGlyphs" textLength="183" x="524" y="86.7612">size of word &gt;= MAXWORDLEN?</text><text fill="#000000" font-family="sans-serif" font-size="11" lengthAdjust="spacingAndGlyphs" textLength="20" x="492" y="80.3589">yes</text><text fill="#000000" font-family="sans-serif" font-size="11" lengthAdjust="spacingAndGlyphs" textLength="14" x="719" y="80.3589">no</text><rect fill="#FEFECE" filter="url(#f1)" height="33.9688" rx="12.5" ry="12.5" style="stroke: #A80036; stroke-width: 1.5;" width="100" x="452" y="104.9531"/><text fill="#000000" font-family="sans-serif" font-size="12" lengthAdjust="spacingAndGlyphs" textLength="80" x="462" y="126.0918">return FALSE</text><ellipse cx="502" cy="171.4375" fill="none" filter="url(#f1)" rx="10" ry="10" style="stroke: #000000; stroke-width: 1.0;"/><ellipse cx="502.5" cy="171.9375" fill="#000000" filter="url(#f1)" rx="6" ry="6" style="stroke: none; stroke-width: 1.0;"/><rect fill="#FFFFFF" filter="url(#f1)" height="722.9844" style="stroke: #000000; stroke-width: 2.0;" width="979" x="10" y="192.2393"/><path d="M138,193.2393 L138,201.5361 L128,211.5361 L10,211.5361 " fill="#FFFFFF" style="stroke: #000000; stroke-width: 2.0;"/><text fill="#000000" font-family="sans-serif" font-size="14" lengthAdjust="spacingAndGlyphs" textLength="118" x="13" y="206.2344">input conversion</text><polygon fill="#FEFECE" filter="url(#f1)" points="572.5,228.5361,658.5,228.5361,670.5,240.5361,658.5,252.5361,572.5,252.5361,560.5,240.5361,572.5,228.5361" style="stroke: #A80036; stroke-width: 1.5;"/><text fill="#000000" font-family="sans-serif" font-size="11" lengthAdjust="spacingAndGlyphs" textLength="86" x="572.5" y="244.3442">affix manager?</text><text fill="#000000" font-family="sans-serif" font-size="11" lengthAdjust="spacingAndGlyphs" textLength="20" x="540.5" y="237.9419">yes</text><text fill="#000000" font-family="sans-serif" font-size="11" lengthAdjust="spacingAndGlyphs" textLength="14" x="670.5" y="237.9419">no</text><rect fill="#FEFECE" filter="url(#f1)" height="89.8438" rx="12.5" ry="12.5" style="stroke: #A80036; stroke-width: 1.5;" width="386" x="263.25" y="262.5361"/><text fill="#000000" font-family="sans-serif" font-size="12" lengthAdjust="spacingAndGlyphs" textLength="209" x="273.25" y="283.6748">get iconv table from affix manager</text><text fill="#000000" font-family="sans-serif" font-size="12" lengthAdjust="spacingAndGlyphs" textLength="52" x="273.25" y="297.6436">else (no)</text><text fill="#000000" font-family="sans-serif" font-size="12" lengthAdjust="spacingAndGlyphs" textLength="30" x="273.25" y="311.6123">endif</text><text fill="#000000" font-family="sans-serif" font-size="12" lengthAdjust="spacingAndGlyphs" textLength="176" x="273.25" y="325.5811">if (rep. list exists?) then (yes)</text><text fill="#000000" font-family="sans-serif" font-size="12" lengthAdjust="spacingAndGlyphs" textLength="334" x="305.25" y="339.5498">:get conversion status for word and update whitespace</text><rect fill="#FEFECE" filter="url(#f1)" height="33.9688" rx="12.5" ry="12.5" style="stroke: #A80036; stroke-width: 1.5;" width="211" x="669.25" y="262.5361"/><text fill="#000000" font-family="sans-serif" font-size="12" lengthAdjust="spacingAndGlyphs" textLength="191" x="679.25" y="283.6748">set converstion status to FALSE</text><polygon fill="#FEFECE" filter="url(#f1)" points="615.5,358.3799,627.5,370.3799,615.5,382.3799,603.5,370.3799,615.5,358.3799" style="stroke: #A80036; stroke-width: 1.5;"/><polygon fill="#FEFECE" filter="url(#f1)" points="562.5,417.3799,668.5,417.3799,680.5,429.3799,668.5,441.3799,562.5,441.3799,550.5,429.3799,562.5,417.3799" style="stroke: #A80036; stroke-width: 1.5;"/><text fill="#000000" font-family="sans-serif" font-size="11" lengthAdjust="spacingAndGlyphs" textLength="106" x="562.5" y="433.188">conversion status?</text><text fill="#000000" font-family="sans-serif" font-size="11" lengthAdjust="spacingAndGlyphs" textLength="20" x="530.5" y="426.7856">yes</text><text fill="#000000" font-family="sans-serif" font-size="11" lengthAdjust="spacingAndGlyphs" textLength="14" x="680.5" y="426.7856">no</text><polygon fill="#FBFB77" filter="url(#f1)" points="30,455.2158,30,495.4814,223,495.4814,223,465.2158,213,455.2158,30,455.2158" style="stroke: #A80036; stroke-width: 1.0;"/><polygon fill="#FBFB77" points="30,455.2158,30,495.4814,223,495.4814,223,479.3486,243,475.3486,223,471.3486,223,465.2158,213,455.2158,30,455.2158" style="stroke: #A80036; stroke-width: 1.0;"/><line style="stroke: #A80036; stroke-width: 1.0;" x1="213" x2="213" y1="455.2158" y2="465.2158"/><line style="stroke: #A80036; stroke-width: 1.0;" x1="223" x2="213" y1="465.2158" y2="465.2158"/><text fill="#000000" font-family="sans-serif" font-size="13" lengthAdjust="spacingAndGlyphs" textLength="172" x="36" y="472.2827">word length can become 0</text><text fill="#000000" font-family="sans-serif" font-size="13" lengthAdjust="spacingAndGlyphs" textLength="90" x="36" y="487.4155">after cleaning</text><rect fill="#FEFECE" filter="url(#f1)" height="47.9375" rx="12.5" ry="12.5" style="stroke: #A80036; stroke-width: 1.5;" width="372" x="243" y="451.3799"/><text fill="#000000" font-family="sans-serif" font-size="12" lengthAdjust="spacingAndGlyphs" textLength="352" x="253" y="472.5186">get word length, captype from cleanword2 for whitespace</text><text fill="#000000" font-family="sans-serif" font-size="12" lengthAdjust="spacingAndGlyphs" textLength="107" x="253" y="486.4873">TODO needs work</text><rect fill="#FEFECE" filter="url(#f1)" height="47.9375" rx="12.5" ry="12.5" style="stroke: #A80036; stroke-width: 1.5;" width="334" x="635" y="451.3799"/><text fill="#000000" font-family="sans-serif" font-size="12" lengthAdjust="spacingAndGlyphs" textLength="314" x="645" y="472.5186">get word length, captype from cleanword2 for word</text><text fill="#000000" font-family="sans-serif" font-size="12" lengthAdjust="spacingAndGlyphs" textLength="107" x="645" y="486.4873">TODO needs work</text><polygon fill="#FEFECE" filter="url(#f1)" points="615.5,505.3174,627.5,517.3174,615.5,529.3174,603.5,517.3174,615.5,505.3174" style="stroke: #A80036; stroke-width: 1.5;"/><polygon fill="#FEFECE" filter="url(#f1)" points="565.5,564.3174,665.5,564.3174,677.5,576.3174,665.5,588.3174,565.5,588.3174,553.5,576.3174,565.5,564.3174" style="stroke: #A80036; stroke-width: 1.5;"/><text fill="#000000" font-family="sans-serif" font-size="11" lengthAdjust="spacingAndGlyphs" textLength="100" x="565.5" y="580.1255">MOZILLA_CLIENT?</text><text fill="#000000" font-family="sans-serif" font-size="11" lengthAdjust="spacingAndGlyphs" textLength="20" x="533.5" y="573.7231">yes</text><text fill="#000000" font-family="sans-serif" font-size="11" lengthAdjust="spacingAndGlyphs" textLength="14" x="677.5" y="573.7231">no</text><rect fill="#FEFECE" filter="url(#f1)" height="33.9688" rx="12.5" ry="12.5" style="stroke: #A80036; stroke-width: 1.5;" width="100" x="493.5" y="598.3174"/><text fill="#000000" font-family="sans-serif" font-size="12" lengthAdjust="spacingAndGlyphs" textLength="80" x="503.5" y="619.4561">set abbv to 1</text><polygon fill="#FEFECE" filter="url(#f1)" points="615.5,638.2861,627.5,650.2861,615.5,662.2861,603.5,650.2861,615.5,638.2861" style="stroke: #A80036; stroke-width: 1.5;"/><polygon fill="#FEFECE" filter="url(#f1)" points="485,697.2861,746,697.2861,758,709.2861,746,721.2861,485,721.2861,473,709.2861,485,697.2861" style="stroke: #A80036; stroke-width: 1.5;"/><text fill="#000000" font-family="sans-serif" font-size="11" lengthAdjust="spacingAndGlyphs" textLength="261" x="485" y="713.0942">word length == 0 or hash manager is empty?</text><text fill="#000000" font-family="sans-serif" font-size="11" lengthAdjust="spacingAndGlyphs" textLength="20" x="453" y="706.6919">yes</text><text fill="#000000" font-family="sans-serif" font-size="11" lengthAdjust="spacingAndGlyphs" textLength="14" x="758" y="706.6919">no</text><rect fill="#FEFECE" filter="url(#f1)" height="33.9688" rx="12.5" ry="12.5" style="stroke: #A80036; stroke-width: 1.5;" width="94" x="416" y="731.2861"/><text fill="#000000" font-family="sans-serif" font-size="12" lengthAdjust="spacingAndGlyphs" textLength="74" x="426" y="752.4248">return TRUE</text><ellipse cx="463" cy="810.2549" fill="none" filter="url(#f1)" rx="10" ry="10" style="stroke: #000000; stroke-width: 1.0;"/><ellipse cx="463.5" cy="810.7549" fill="#000000" filter="url(#f1)" rx="6" ry="6" style="stroke: none; stroke-width: 1.0;"/><rect fill="#FEFECE" filter="url(#f1)" height="33.9688" rx="12.5" ry="12.5" style="stroke: #A80036; stroke-width: 1.5;" width="77" x="577" y="861.2549"/><text fill="#000000" font-family="sans-serif" font-size="12" lengthAdjust="spacingAndGlyphs" textLength="57" x="587" y="882.3936">clear root</text><rect fill="#FFFFFF" filter="url(#f1)" height="260.5313" style="stroke: #000000; stroke-width: 2.0;" width="384" x="334" y="926.0254"/><path d="M439,927.0254 L439,935.3223 L429,945.3223 L334,945.3223 " fill="#FFFFFF" style="stroke: #000000; stroke-width: 2.0;"/><text fill="#000000" font-family="sans-serif" font-size="14" lengthAdjust="spacingAndGlyphs" textLength="95" x="337" y="940.0205">number state</text><rect fill="#FEFECE" filter="url(#f1)" height="33.9688" rx="12.5" ry="12.5" style="stroke: #A80036; stroke-width: 1.5;" width="80" x="575.5" y="962.3223"/><text fill="#000000" font-family="sans-serif" font-size="12" lengthAdjust="spacingAndGlyphs" textLength="60" x="585.5" y="983.4609">set nstate</text><polygon fill="#FEFECE" filter="url(#f1)" points="570,1031.291,661,1031.291,673,1043.291,661,1055.291,570,1055.291,558,1043.291,570,1031.291" style="stroke: #A80036; stroke-width: 1.5;"/><text fill="#000000" font-family="sans-serif" font-size="11" lengthAdjust="spacingAndGlyphs" textLength="91" x="570" y="1047.0991">nstate is NNUM?</text><text fill="#000000" font-family="sans-serif" font-size="11" lengthAdjust="spacingAndGlyphs" textLength="20" x="538" y="1040.6968">yes</text><text fill="#000000" font-family="sans-serif" font-size="11" lengthAdjust="spacingAndGlyphs" textLength="14" x="673" y="1040.6968">no</text><polygon fill="#FBFB77" filter="url(#f1)" points="354,1065.291,354,1105.5566,481,1105.5566,481,1075.291,471,1065.291,354,1065.291" style="stroke: #A80036; stroke-width: 1.0;"/><polygon fill="#FBFB77" points="354,1065.291,354,1105.5566,481,1105.5566,481,1089.4238,501,1085.4238,481,1081.4238,481,1075.291,471,1065.291,354,1065.291" style="stroke: #A80036; stroke-width: 1.0;"/><line style="stroke: #A80036; stroke-width: 1.0;" x1="471" x2="471" y1="1065.291" y2="1075.291"/><line style="stroke: #A80036; stroke-width: 1.0;" x1="481" x2="471" y1="1075.291" y2="1075.291"/><text fill="#000000" font-family="sans-serif" font-size="13" lengthAdjust="spacingAndGlyphs" textLength="89" x="360" y="1082.3579">word consists</text><text fill="#000000" font-family="sans-serif" font-size="13" lengthAdjust="spacingAndGlyphs" textLength="106" x="360" y="1097.4907">of only numbers</text><rect fill="#FEFECE" filter="url(#f1)" height="33.9688" rx="12.5" ry="12.5" style="stroke: #A80036; stroke-width: 1.5;" width="94" x="501" y="1068.4395"/><text fill="#000000" font-family="sans-serif" font-size="12" lengthAdjust="spacingAndGlyphs" textLength="74" x="511" y="1089.5781">return TRUE</text><ellipse cx="548" cy="1150.5566" fill="none" filter="url(#f1)" rx="10" ry="10" style="stroke: #000000; stroke-width: 1.0;"/><ellipse cx="548.5" cy="1151.0566" fill="#000000" filter="url(#f1)" rx="6" ry="6" style="stroke: none; stroke-width: 1.0;"/><rect fill="#FFFFFF" filter="url(#f1)" height="247.0703" style="stroke: #000000; stroke-width: 2.0;" width="847" x="192" y="1197.3584"/><path d="M283,1198.3584 L283,1206.6553 L273,1216.6553 L192,1216.6553 " fill="#FFFFFF" style="stroke: #000000; stroke-width: 2.0;"/><text fill="#000000" font-family="sans-serif" font-size="14" lengthAdjust="spacingAndGlyphs" textLength="81" x="195" y="1211.3535">check word</text><polygon fill="#FEFECE" filter="url(#f1)" points="214,1258.6553,338,1258.6553,350,1270.6553,338,1282.6553,214,1282.6553,202,1270.6553,214,1258.6553" style="stroke: #A80036; stroke-width: 1.5;"/><text fill="#000000" font-family="sans-serif" font-size="11" lengthAdjust="spacingAndGlyphs" textLength="20" x="280" y="1292.8657">yes</text><text fill="#000000" font-family="sans-serif" font-size="11" lengthAdjust="spacingAndGlyphs" textLength="124" x="214" y="1274.4634">captype == HUHCAP?</text><rect fill="#FEFECE" filter="url(#f1)" height="33.9688" rx="12.5" ry="12.5" style="stroke: #A80036; stroke-width: 1.5;" width="28" x="262" y="1315.46"/><text fill="#000000" font-family="sans-serif" font-size="12" lengthAdjust="spacingAndGlyphs" textLength="8" x="272" y="1336.5986">b</text><polygon fill="#FEFECE" filter="url(#f1)" points="404.5,1258.6553,549.5,1258.6553,561.5,1270.6553,549.5,1282.6553,404.5,1282.6553,392.5,1270.6553,404.5,1258.6553" style="stroke: #A80036; stroke-width: 1.5;"/><text fill="#000000" font-family="sans-serif" font-size="11" lengthAdjust="spacingAndGlyphs" textLength="20" x="481" y="1292.8657">yes</text><text fill="#000000" font-family="sans-serif" font-size="11" lengthAdjust="spacingAndGlyphs" textLength="145" x="404.5" y="1274.4634">captype == HUHINITCAP?</text><rect fill="#FEFECE" filter="url(#f1)" height="33.9688" rx="12.5" ry="12.5" style="stroke: #A80036; stroke-width: 1.5;" width="214" x="370" y="1315.46"/><text fill="#000000" font-family="sans-serif" font-size="12" lengthAdjust="spacingAndGlyphs" textLength="194" x="380" y="1336.5986">info += SPELL_ORIGCAP (TODO)</text><polygon fill="#FEFECE" filter="url(#f1)" points="616,1258.6553,733,1258.6553,745,1270.6553,733,1282.6553,616,1282.6553,604,1270.6553,616,1258.6553" style="stroke: #A80036; stroke-width: 1.5;"/><text fill="#000000" font-family="sans-serif" font-size="11" lengthAdjust="spacingAndGlyphs" textLength="20" x="678.5" y="1292.8657">yes</text><text fill="#000000" font-family="sans-serif" font-size="11" lengthAdjust="spacingAndGlyphs" textLength="117" x="616" y="1274.4634">captype == NOCAP?</text><rect fill="#FEFECE" filter="url(#f1)" height="33.9688" rx="12.5" ry="12.5" style="stroke: #A80036; stroke-width: 1.5;" width="86" x="631.5" y="1315.46"/><text fill="#000000" font-family="sans-serif" font-size="12" lengthAdjust="spacingAndGlyphs" textLength="66" x="641.5" y="1336.5986">checkword</text><polygon fill="#FEFECE" filter="url(#f1)" points="812,1258.6553,932,1258.6553,944,1270.6553,932,1282.6553,812,1282.6553,800,1270.6553,812,1258.6553" style="stroke: #A80036; stroke-width: 1.5;"/><text fill="#000000" font-family="sans-serif" font-size="11" lengthAdjust="spacingAndGlyphs" textLength="20" x="876" y="1292.8657">yes</text><text fill="#000000" font-family="sans-serif" font-size="11" lengthAdjust="spacingAndGlyphs" textLength="120" x="812" y="1274.4634">captype == ALLCAP?</text><text fill="#000000" font-family="sans-serif" font-size="11" lengthAdjust="spacingAndGlyphs" textLength="14" x="944" y="1268.061">no</text><rect fill="#FEFECE" filter="url(#f1)" height="33.9688" rx="12.5" ry="12.5" style="stroke: #A80036; stroke-width: 1.5;" width="214" x="765" y="1315.46"/><text fill="#000000" font-family="sans-serif" font-size="12" lengthAdjust="spacingAndGlyphs" textLength="194" x="775" y="1336.5986">info += SPELL_ORIGCAP (TODO)</text><rect fill="#FEFECE" filter="url(#f1)" height="33.9688" rx="12.5" ry="12.5" style="stroke: #A80036; stroke-width: 1.5;" width="100" x="565.5" y="1464.4287"/><text fill="#000000" font-family="sans-serif" font-size="12" lengthAdjust="spacingAndGlyphs" textLength="80" x="575.5" y="1485.5674">return FALSE</text><ellipse cx="615.5" cy="1528.3975" fill="none" filter="url(#f1)" rx="10" ry="10" style="stroke: #000000; stroke-width: 1.0;"/><ellipse cx="616" cy="1528.8975" fill="#000000" filter="url(#f1)" rx="6" ry="6" style="stroke: none; stroke-width: 1.0;"/><line style="stroke: #A80036; stroke-width: 1.5;" x1="502" x2="502" y1="138.9219" y2="161.4375"/><polygon fill="#A80036" points="498,151.4375,502,161.4375,506,151.4375,502,155.4375" style="stroke: #A80036; stroke-width: 1.0;"/><line style="stroke: #A80036; stroke-width: 1.5;" x1="512" x2="502" y1="82.9531" y2="82.9531"/><line style="stroke: #A80036; stroke-width: 1.5;" x1="502" x2="502" y1="82.9531" y2="104.9531"/><polygon fill="#A80036" points="498,94.9531,502,104.9531,506,94.9531,502,98.9531" style="stroke: #A80036; stroke-width: 1.0;"/><line style="stroke: #A80036; stroke-width: 1.5;" x1="719" x2="729" y1="82.9531" y2="82.9531"/><polygon fill="#A80036" points="725,131.4375,729,141.4375,733,131.4375,729,135.4375" style="stroke: #A80036; stroke-width: 1.5;"/><line style="stroke: #A80036; stroke-width: 1.5;" x1="729" x2="729" y1="82.9531" y2="186.4375"/><line style="stroke: #A80036; stroke-width: 1.5;" x1="729" x2="615.5" y1="186.4375" y2="186.4375"/><line style="stroke: #A80036; stroke-width: 1.5;" x1="615.5" x2="615.5" y1="186.4375" y2="228.5361"/><polygon fill="#A80036" points="611.5,218.5361,615.5,228.5361,619.5,218.5361,615.5,222.5361" style="stroke: #A80036; stroke-width: 1.0;"/><line style="stroke: #A80036; stroke-width: 1.5;" x1="615.5" x2="615.5" y1="50.9531" y2="70.9531"/><polygon fill="#A80036" points="611.5,60.9531,615.5,70.9531,619.5,60.9531,615.5,64.9531" style="stroke: #A80036; stroke-width: 1.0;"/><line style="stroke: #A80036; stroke-width: 1.5;" x1="560.5" x2="456.25" y1="240.5361" y2="240.5361"/><line style="stroke: #A80036; stroke-width: 1.5;" x1="456.25" x2="456.25" y1="240.5361" y2="262.5361"/><polygon fill="#A80036" points="452.25,252.5361,456.25,262.5361,460.25,252.5361,456.25,256.5361" style="stroke: #A80036; stroke-width: 1.0;"/><line style="stroke: #A80036; stroke-width: 1.5;" x1="670.5" x2="774.75" y1="240.5361" y2="240.5361"/><line style="stroke: #A80036; stroke-width: 1.5;" x1="774.75" x2="774.75" y1="240.5361" y2="262.5361"/><polygon fill="#A80036" points="770.75,252.5361,774.75,262.5361,778.75,252.5361,774.75,256.5361" style="stroke: #A80036; stroke-width: 1.0;"/><line style="stroke: #A80036; stroke-width: 1.5;" x1="456.25" x2="456.25" y1="352.3799" y2="370.3799"/><line style="stroke: #A80036; stroke-width: 1.5;" x1="456.25" x2="603.5" y1="370.3799" y2="370.3799"/><polygon fill="#A80036" points="593.5,366.3799,603.5,370.3799,593.5,374.3799,597.5,370.3799" style="stroke: #A80036; stroke-width: 1.0;"/><line style="stroke: #A80036; stroke-width: 1.5;" x1="774.75" x2="774.75" y1="296.5049" y2="370.3799"/><line style="stroke: #A80036; stroke-width: 1.5;" x1="774.75" x2="627.5" y1="370.3799" y2="370.3799"/><polygon fill="#A80036" points="637.5,366.3799,627.5,370.3799,637.5,374.3799,633.5,370.3799" style="stroke: #A80036; stroke-width: 1.0;"/><line style="stroke: #A80036; stroke-width: 1.5;" x1="550.5" x2="429" y1="429.3799" y2="429.3799"/><line style="stroke: #A80036; stroke-width: 1.5;" x1="429" x2="429" y1="429.3799" y2="451.3799"/><polygon fill="#A80036" points="425,441.3799,429,451.3799,433,441.3799,429,445.3799" style="stroke: #A80036; stroke-width: 1.0;"/><line style="stroke: #A80036; stroke-width: 1.5;" x1="680.5" x2="802" y1="429.3799" y2="429.3799"/><line style="stroke: #A80036; stroke-width: 1.5;" x1="802" x2="802" y1="429.3799" y2="451.3799"/><polygon fill="#A80036" points="798,441.3799,802,451.3799,806,441.3799,802,445.3799" style="stroke: #A80036; stroke-width: 1.0;"/><line style="stroke: #A80036; stroke-width: 1.5;" x1="429" x2="429" y1="499.3174" y2="517.3174"/><line style="stroke: #A80036; stroke-width: 1.5;" x1="429" x2="603.5" y1="517.3174" y2="517.3174"/><polygon fill="#A80036" points="593.5,513.3174,603.5,517.3174,593.5,521.3174,597.5,517.3174" style="stroke: #A80036; stroke-width: 1.0;"/><line style="stroke: #A80036; stroke-width: 1.5;" x1="802" x2="802" y1="499.3174" y2="517.3174"/><line style="stroke: #A80036; stroke-width: 1.5;" x1="802" x2="627.5" y1="517.3174" y2="517.3174"/><polygon fill="#A80036" points="637.5,513.3174,627.5,517.3174,637.5,521.3174,633.5,517.3174" style="stroke: #A80036; stroke-width: 1.0;"/><line style="stroke: #A80036; stroke-width: 1.5;" x1="615.5" x2="615.5" y1="382.3799" y2="417.3799"/><polygon fill="#A80036" points="611.5,407.3799,615.5,417.3799,619.5,407.3799,615.5,411.3799" style="stroke: #A80036; stroke-width: 1.0;"/><line style="stroke: #A80036; stroke-width: 1.5;" x1="553.5" x2="543.5" y1="576.3174" y2="576.3174"/><line style="stroke: #A80036; stroke-width: 1.5;" x1="543.5" x2="543.5" y1="576.3174" y2="598.3174"/><polygon fill="#A80036" points="539.5,588.3174,543.5,598.3174,547.5,588.3174,543.5,592.3174" style="stroke: #A80036; stroke-width: 1.0;"/><line style="stroke: #A80036; stroke-width: 1.5;" x1="677.5" x2="687.5" y1="576.3174" y2="576.3174"/><polygon fill="#A80036" points="683.5,603.3018,687.5,613.3018,691.5,603.3018,687.5,607.3018" style="stroke: #A80036; stroke-width: 1.5;"/><line style="stroke: #A80036; stroke-width: 1.5;" x1="687.5" x2="687.5" y1="576.3174" y2="650.2861"/><line style="stroke: #A80036; stroke-width: 1.5;" x1="687.5" x2="627.5" y1="650.2861" y2="650.2861"/><polygon fill="#A80036" points="637.5,646.2861,627.5,650.2861,637.5,654.2861,633.5,650.2861" style="stroke: #A80036; stroke-width: 1.0;"/><line style="stroke: #A80036; stroke-width: 1.5;" x1="543.5" x2="543.5" y1="632.2861" y2="650.2861"/><line style="stroke: #A80036; stroke-width: 1.5;" x1="543.5" x2="603.5" y1="650.2861" y2="650.2861"/><polygon fill="#A80036" points="593.5,646.2861,603.5,650.2861,593.5,654.2861,597.5,650.2861" style="stroke: #A80036; stroke-width: 1.0;"/><line style="stroke: #A80036; stroke-width: 1.5;" x1="615.5" x2="615.5" y1="529.3174" y2="564.3174"/><polygon fill="#A80036" points="611.5,554.3174,615.5,564.3174,619.5,554.3174,615.5,558.3174" style="stroke: #A80036; stroke-width: 1.0;"/><line style="stroke: #A80036; stroke-width: 1.5;" x1="463" x2="463" y1="765.2549" y2="800.2549"/><polygon fill="#A80036" points="459,790.2549,463,800.2549,467,790.2549,463,794.2549" style="stroke: #A80036; stroke-width: 1.0;"/><line style="stroke: #A80036; stroke-width: 1.5;" x1="473" x2="463" y1="709.2861" y2="709.2861"/><line style="stroke: #A80036; stroke-width: 1.5;" x1="463" x2="463" y1="709.2861" y2="731.2861"/><polygon fill="#A80036" points="459,721.2861,463,731.2861,467,721.2861,463,725.2861" style="stroke: #A80036; stroke-width: 1.0;"/><line style="stroke: #A80036; stroke-width: 1.5;" x1="758" x2="768" y1="709.2861" y2="709.2861"/><polygon fill="#A80036" points="764,757.7705,768,767.7705,772,757.7705,768,761.7705" style="stroke: #A80036; stroke-width: 1.5;"/><line style="stroke: #A80036; stroke-width: 1.5;" x1="768" x2="768" y1="709.2861" y2="826.2549"/><line style="stroke: #A80036; stroke-width: 1.5;" x1="768" x2="615.5" y1="826.2549" y2="826.2549"/><line style="stroke: #A80036; stroke-width: 1.5;" x1="615.5" x2="615.5" y1="826.2549" y2="861.2549"/><polygon fill="#A80036" points="611.5,851.2549,615.5,861.2549,619.5,851.2549,615.5,855.2549" style="stroke: #A80036; stroke-width: 1.0;"/><line style="stroke: #A80036; stroke-width: 1.5;" x1="615.5" x2="615.5" y1="662.2861" y2="697.2861"/><polygon fill="#A80036" points="611.5,687.2861,615.5,697.2861,619.5,687.2861,615.5,691.2861" style="stroke: #A80036; stroke-width: 1.0;"/><line style="stroke: #A80036; stroke-width: 1.5;" x1="548" x2="548" y1="1102.4082" y2="1140.5566"/><polygon fill="#A80036" points="544,1130.5566,548,1140.5566,552,1130.5566,548,1134.5566" style="stroke: #A80036; stroke-width: 1.0;"/><line style="stroke: #A80036; stroke-width: 1.5;" x1="558" x2="548" y1="1043.291" y2="1043.291"/><line style="stroke: #A80036; stroke-width: 1.5;" x1="548" x2="548" y1="1043.291" y2="1068.4395"/><polygon fill="#A80036" points="544,1058.4395,548,1068.4395,552,1058.4395,548,1062.4395" style="stroke: #A80036; stroke-width: 1.0;"/><line style="stroke: #A80036; stroke-width: 1.5;" x1="673" x2="683" y1="1043.291" y2="1043.291"/><polygon fill="#A80036" points="679,1094.9238,683,1104.9238,687,1094.9238,683,1098.9238" style="stroke: #A80036; stroke-width: 1.5;"/><line style="stroke: #A80036; stroke-width: 1.5;" x1="683" x2="683" y1="1043.291" y2="1166.5566"/><line style="stroke: #A80036; stroke-width: 1.5;" x1="683" x2="615.5" y1="1166.5566" y2="1166.5566"/><line style="stroke: #A80036; stroke-width: 1.5;" x1="615.5" x2="615.5" y1="1166.5566" y2="1233.6553"/><polygon fill="#A80036" points="611.5,1223.6553,615.5,1233.6553,619.5,1223.6553,615.5,1227.6553" style="stroke: #A80036; stroke-width: 1.0;"/><line style="stroke: #A80036; stroke-width: 1.5;" x1="615.5" x2="615.5" y1="996.291" y2="1031.291"/><polygon fill="#A80036" points="611.5,1021.291,615.5,1031.291,619.5,1021.291,615.5,1025.291" style="stroke: #A80036; stroke-width: 1.0;"/><line style="stroke: #A80036; stroke-width: 1.5;" x1="615.5" x2="615.5" y1="895.2236" y2="962.3223"/><polygon fill="#A80036" points="611.5,952.3223,615.5,962.3223,619.5,952.3223,615.5,956.3223" style="stroke: #A80036; stroke-width: 1.0;"/><line style="stroke: #A80036; stroke-width: 1.5;" x1="276" x2="276" y1="1282.6553" y2="1315.46"/><polygon fill="#A80036" points="272,1305.46,276,1315.46,280,1305.46,276,1309.46" style="stroke: #A80036; stroke-width: 1.0;"/><line style="stroke: #A80036; stroke-width: 1.5;" x1="276" x2="276" y1="1349.4287" y2="1424.4287"/><polygon fill="#A80036" points="272,1414.4287,276,1424.4287,280,1414.4287,276,1418.4287" style="stroke: #A80036; stroke-width: 1.0;"/><line style="stroke: #A80036; stroke-width: 1.5;" x1="477" x2="477" y1="1282.6553" y2="1315.46"/><polygon fill="#A80036" points="473,1305.46,477,1315.46,481,1305.46,477,1309.46" style="stroke: #A80036; stroke-width: 1.0;"/><line style="stroke: #A80036; stroke-width: 1.5;" x1="477" x2="477" y1="1349.4287" y2="1424.4287"/><polygon fill="#A80036" points="473,1414.4287,477,1424.4287,481,1414.4287,477,1418.4287" style="stroke: #A80036; stroke-width: 1.0;"/><line style="stroke: #A80036; stroke-width: 1.5;" x1="674.5" x2="674.5" y1="1282.6553" y2="1315.46"/><polygon fill="#A80036" points="670.5,1305.46,674.5,1315.46,678.5,1305.46,674.5,1309.46" style="stroke: #A80036; stroke-width: 1.0;"/><line style="stroke: #A80036; stroke-width: 1.5;" x1="674.5" x2="674.5" y1="1349.4287" y2="1424.4287"/><polygon fill="#A80036" points="670.5,1414.4287,674.5,1424.4287,678.5,1414.4287,674.5,1418.4287" style="stroke: #A80036; stroke-width: 1.0;"/><line style="stroke: #A80036; stroke-width: 1.5;" x1="872" x2="872" y1="1282.6553" y2="1315.46"/><polygon fill="#A80036" points="868,1305.46,872,1315.46,876,1305.46,872,1309.46" style="stroke: #A80036; stroke-width: 1.0;"/><line style="stroke: #A80036; stroke-width: 1.5;" x1="872" x2="872" y1="1349.4287" y2="1424.4287"/><polygon fill="#A80036" points="868,1414.4287,872,1424.4287,876,1414.4287,872,1418.4287" style="stroke: #A80036; stroke-width: 1.0;"/><line style="stroke: #A80036; stroke-width: 1.5;" x1="350" x2="392.5" y1="1270.6553" y2="1270.6553"/><polygon fill="#A80036" points="382.5,1266.6553,392.5,1270.6553,382.5,1274.6553,386.5,1270.6553" style="stroke: #A80036; stroke-width: 1.0;"/><line style="stroke: #A80036; stroke-width: 1.5;" x1="561.5" x2="604" y1="1270.6553" y2="1270.6553"/><polygon fill="#A80036" points="594,1266.6553,604,1270.6553,594,1274.6553,598,1270.6553" style="stroke: #A80036; stroke-width: 1.0;"/><line style="stroke: #A80036; stroke-width: 1.5;" x1="745" x2="800" y1="1270.6553" y2="1270.6553"/><polygon fill="#A80036" points="790,1266.6553,800,1270.6553,790,1274.6553,794,1270.6553" style="stroke: #A80036; stroke-width: 1.0;"/><line style="stroke: #A80036; stroke-width: 1.5;" x1="615.5" x2="276" y1="1233.6553" y2="1233.6553"/><line style="stroke: #A80036; stroke-width: 1.5;" x1="276" x2="276" y1="1233.6553" y2="1258.6553"/><polygon fill="#A80036" points="272,1248.6553,276,1258.6553,280,1248.6553,276,1252.6553" style="stroke: #A80036; stroke-width: 1.0;"/><line style="stroke: #A80036; stroke-width: 1.5;" x1="944" x2="1014" y1="1270.6553" y2="1270.6553"/><line style="stroke: #A80036; stroke-width: 1.5;" x1="1014" x2="1014" y1="1270.6553" y2="1424.4287"/><polygon fill="#A80036" points="1010,1414.4287,1014,1424.4287,1018,1414.4287,1014,1418.4287" style="stroke: #A80036; stroke-width: 1.0;"/><line style="stroke: #A80036; stroke-width: 1.5;" x1="276" x2="1014" y1="1424.4287" y2="1424.4287"/><line style="stroke: #A80036; stroke-width: 1.5;" x1="615.5" x2="615.5" y1="1424.4287" y2="1464.4287"/><polygon fill="#A80036" points="611.5,1454.4287,615.5,1464.4287,619.5,1454.4287,615.5,1458.4287" style="stroke: #A80036; stroke-width: 1.0;"/><line style="stroke: #A80036; stroke-width: 1.5;" x1="615.5" x2="615.5" y1="1498.3975" y2="1518.3975"/><polygon fill="#A80036" points="611.5,1508.3975,615.5,1518.3975,619.5,1508.3975,615.5,1512.3975" style="stroke: #A80036; stroke-width: 1.0;"/></g></svg>