<?xml version="1.0" encoding="UTF-8" standalone="yes"?><svg xmlns="http://www.w3.org/2000/svg" xmlns:xlink="http://www.w3.org/1999/xlink" height="1258px" style="width:996px;height:1258px;" version="1.1" viewBox="0 0 996 1258" width="996px"><defs><filter height="300%" id="f1" width="300%" x="-1" y="-1"><feGaussianBlur result="blurOut" stdDeviation="2.0"/><feColorMatrix in="blurOut" result="blurOut2" type="matrix" values="0 0 0 0 0 0 0 0 0 0 0 0 0 0 0 0 0 0 .4 0"/><feOffset dx="4.0" dy="4.0" in="blurOut2" result="blurOut3"/><feBlend in="SourceGraphic" in2="blurOut3" mode="normal"/></filter></defs><g><text fill="#000000" font-family="sans-serif" font-size="18" lengthAdjust="spacingAndGlyphs" textLength="200" x="399.5" y="26.708">Hunspell - Spell (spell)</text><ellipse cx="615.5" cy="40.9531" fill="#000000" filter="url(#f1)" rx="10" ry="10" style="stroke: none; stroke-width: 1.0;"/><polygon fill="#FEFECE" filter="url(#f1)" points="524,70.9531,707,70.9531,719,82.9531,707,94.9531,524,94.9531,512,82.9531,524,70.9531" style="stroke: #A80036; stroke-width: 1.5;"/><text fill="#000000" font-family="sans-serif" font-size="11" lengthAdjust="spacingAndGlyphs" textLength="183" x="524" y="86.7612">size of word &gt;= MAXWORDLEN?</text><text fill="#000000" font-family="sans-serif" font-size="11" lengthAdjust="spacingAndGlyphs" textLength="20" x="492" y="80.3589">yes</text><text fill="#000000" font-family="sans-serif" font-size="11" lengthAdjust="spacingAndGlyphs" textLength="14" x="719" y="80.3589">no</text><rect fill="#FEFECE" filter="url(#f1)" height="33.9688" rx="12.5" ry="12.5" style="stroke: #A80036; stroke-width: 1.5;" width="100" x="452" y="104.9531"/><text fill="#000000" font-family="sans-serif" font-size="12" lengthAdjust="spacingAndGlyphs" textLength="80" x="462" y="126.0918">return FALSE</text><ellipse cx="502" cy="171.4375" fill="none" filter="url(#f1)" rx="10" ry="10" style="stroke: #000000; stroke-width: 1.0;"/><ellipse cx="502.5" cy="171.9375" fill="#000000" filter="url(#f1)" rx="6" ry="6" style="stroke: none; stroke-width: 1.0;"/><rect fill="#FFFFFF" filter="url(#f1)" height="357.0781" style="stroke: #000000; stroke-width: 2.0;" width="979" x="10" y="192.2393"/><path d="M138,193.2393 L138,201.5361 L128,211.5361 L10,211.5361 " fill="#FFFFFF" style="stroke: #000000; stroke-width: 2.0;"/><text fill="#000000" font-family="sans-serif" font-size="14" lengthAdjust="spacingAndGlyphs" textLength="118" x="13" y="206.2344">input conversion</text><polygon fill="#FEFECE" filter="url(#f1)" points="572.5,228.5361,658.5,228.5361,670.5,240.5361,658.5,252.5361,572.5,252.5361,560.5,240.5361,572.5,228.5361" style="stroke: #A80036; stroke-width: 1.5;"/><text fill="#000000" font-family="sans-serif" font-size="11" lengthAdjust="spacingAndGlyphs" textLength="86" x="572.5" y="244.3442">affix manager?</text><text fill="#000000" font-family="sans-serif" font-size="11" lengthAdjust="spacingAndGlyphs" textLength="20" x="540.5" y="237.9419">yes</text><text fill="#000000" font-family="sans-serif" font-size="11" lengthAdjust="spacingAndGlyphs" textLength="14" x="670.5" y="237.9419">no</text><rect fill="#FEFECE" filter="url(#f1)" height="89.8438" rx="12.5" ry="12.5" style="stroke: #A80036; stroke-width: 1.5;" width="386" x="263.25" y="262.5361"/><text fill="#000000" font-family="sans-serif" font-size="12" lengthAdjust="spacingAndGlyphs" textLength="209" x="273.25" y="283.6748">get iconv table from affix manager</text><text fill="#000000" font-family="sans-serif" font-size="12" lengthAdjust="spacingAndGlyphs" textLength="52" x="273.25" y="297.6436">else (no)</text><text fill="#000000" font-family="sans-serif" font-size="12" lengthAdjust="spacingAndGlyphs" textLength="30" x="273.25" y="311.6123">endif</text><text fill="#000000" font-family="sans-serif" font-size="12" lengthAdjust="spacingAndGlyphs" textLength="176" x="273.25" y="325.5811">if (rep. list exists?) then (yes)</text><text fill="#000000" font-family="sans-serif" font-size="12" lengthAdjust="spacingAndGlyphs" textLength="334" x="305.25" y="339.5498">:get conversion status for word and update whitespace</text><rect fill="#FEFECE" filter="url(#f1)" height="33.9688" rx="12.5" ry="12.5" style="stroke: #A80036; stroke-width: 1.5;" width="211" x="669.25" y="262.5361"/><text fill="#000000" font-family="sans-serif" font-size="12" lengthAdjust="spacingAndGlyphs" textLength="191" x="679.25" y="283.6748">set converstion status to FALSE</text><polygon fill="#FEFECE" filter="url(#f1)" points="615.5,358.3799,627.5,370.3799,615.5,382.3799,603.5,370.3799,615.5,358.3799" style="stroke: #A80036; stroke-width: 1.5;"/><polygon fill="#FEFECE" filter="url(#f1)" points="562.5,417.3799,668.5,417.3799,680.5,429.3799,668.5,441.3799,562.5,441.3799,550.5,429.3799,562.5,417.3799" style="stroke: #A80036; stroke-width: 1.5;"/><text fill="#000000" font-family="sans-serif" font-size="11" lengthAdjust="spacingAndGlyphs" textLength="106" x="562.5" y="433.188">conversion status?</text><text fill="#000000" font-family="sans-serif" font-size="11" lengthAdjust="spacingAndGlyphs" textLength="20" x="530.5" y="426.7856">yes</text><text fill="#000000" font-family="sans-serif" font-size="11" lengthAdjust="spacingAndGlyphs" textLength="14" x="680.5" y="426.7856">no</text><polygon fill="#FBFB77" filter="url(#f1)" points="30,455.2158,30,495.4814,223,495.4814,223,465.2158,213,455.2158,30,455.2158" style="stroke: #A80036; stroke-width: 1.0;"/><polygon fill="#FBFB77" points="30,455.2158,30,495.4814,223,495.4814,223,479.3486,243,475.3486,223,471.3486,223,465.2158,213,455.2158,30,455.2158" style="stroke: #A80036; stroke-width: 1.0;"/><line style="stroke: #A80036; stroke-width: 1.0;" x1="213" x2="213" y1="455.2158" y2="465.2158"/><line style="stroke: #A80036; stroke-width: 1.0;" x1="223" x2="213" y1="465.2158" y2="465.2158"/><text fill="#000000" font-family="sans-serif" font-size="13" lengthAdjust="spacingAndGlyphs" textLength="172" x="36" y="472.2827">word length can become 0</text><text fill="#000000" font-family="sans-serif" font-size="13" lengthAdjust="spacingAndGlyphs" textLength="90" x="36" y="487.4155">after cleaning</text><rect fill="#FEFECE" filter="url(#f1)" height="47.9375" rx="12.5" ry="12.5" style="stroke: #A80036; stroke-width: 1.5;" width="372" x="243" y="451.3799"/><text fill="#000000" font-family="sans-serif" font-size="12" lengthAdjust="spacingAndGlyphs" textLength="352" x="253" y="472.5186">get word length, captype from cleanword2 for whitespace</text><text fill="#000000" font-family="sans-serif" font-size="12" lengthAdjust="spacingAndGlyphs" textLength="107" x="253" y="486.4873">TODO needs work</text><rect fill="#FEFECE" filter="url(#f1)" height="47.9375" rx="12.5" ry="12.5" style="stroke: #A80036; stroke-width: 1.5;" width="334" x="635" y="451.3799"/><text fill="#000000" font-family="sans-serif" font-size="12" lengthAdjust="spacingAndGlyphs" textLength="314" x="645" y="472.5186">get word length, captype from cleanword2 for word</text><text fill="#000000" font-family="sans-serif" font-size="12" lengthAdjust="spacingAndGlyphs" textLength="107" x="645" y="486.4873">TODO needs work</text><polygon fill="#FEFECE" filter="url(#f1)" points="615.5,505.3174,627.5,517.3174,615.5,529.3174,603.5,517.3174,615.5,505.3174" style="stroke: #A80036; stroke-width: 1.5;"/><polygon fill="#FEFECE" filter="url(#f1)" points="565.5,569.3174,665.5,569.3174,677.5,581.3174,665.5,593.3174,565.5,593.3174,553.5,581.3174,565.5,569.3174" style="stroke: #A80036; stroke-width: 1.5;"/><text fill="#000000" font-family="sans-serif" font-size="11" lengthAdjust="spacingAndGlyphs" textLength="100" x="565.5" y="585.1255">MOZILLA_CLIENT?</text><text fill="#000000" font-family="sans-serif" font-size="11" lengthAdjust="spacingAndGlyphs" textLength="20" x="533.5" y="578.7231">yes</text><text fill="#000000" font-family="sans-serif" font-size="11" lengthAdjust="spacingAndGlyphs" textLength="14" x="677.5" y="578.7231">no</text><rect fill="#FEFECE" filter="url(#f1)" height="33.9688" rx="12.5" ry="12.5" style="stroke: #A80036; stroke-width: 1.5;" width="100" x="493.5" y="603.3174"/><text fill="#000000" font-family="sans-serif" font-size="12" lengthAdjust="spacingAndGlyphs" textLength="80" x="503.5" y="624.4561">set abbv to 1</text><polygon fill="#FEFECE" filter="url(#f1)" points="615.5,643.2861,627.5,655.2861,615.5,667.2861,603.5,655.2861,615.5,643.2861" style="stroke: #A80036; stroke-width: 1.5;"/><polygon fill="#FEFECE" filter="url(#f1)" points="565.5,687.2861,665.5,687.2861,677.5,699.2861,665.5,711.2861,565.5,711.2861,553.5,699.2861,565.5,687.2861" style="stroke: #A80036; stroke-width: 1.5;"/><text fill="#000000" font-family="sans-serif" font-size="11" lengthAdjust="spacingAndGlyphs" textLength="100" x="565.5" y="703.0942">MOZILLA_CLIENT?</text><text fill="#000000" font-family="sans-serif" font-size="11" lengthAdjust="spacingAndGlyphs" textLength="20" x="533.5" y="696.6919">yes</text><text fill="#000000" font-family="sans-serif" font-size="11" lengthAdjust="spacingAndGlyphs" textLength="14" x="677.5" y="696.6919">no</text><rect fill="#FEFECE" filter="url(#f1)" height="33.9688" rx="12.5" ry="12.5" style="stroke: #A80036; stroke-width: 1.5;" width="100" x="493.5" y="721.2861"/><text fill="#000000" font-family="sans-serif" font-size="12" lengthAdjust="spacingAndGlyphs" textLength="80" x="503.5" y="742.4248">set abbv to 1</text><polygon fill="#FEFECE" filter="url(#f1)" points="615.5,761.2549,627.5,773.2549,615.5,785.2549,603.5,773.2549,615.5,761.2549" style="stroke: #A80036; stroke-width: 1.5;"/><polygon fill="#FEFECE" filter="url(#f1)" points="485,805.2549,746,805.2549,758,817.2549,746,829.2549,485,829.2549,473,817.2549,485,805.2549" style="stroke: #A80036; stroke-width: 1.5;"/><text fill="#000000" font-family="sans-serif" font-size="11" lengthAdjust="spacingAndGlyphs" textLength="261" x="485" y="821.063">word length == 0 or hash manager is empty?</text><text fill="#000000" font-family="sans-serif" font-size="11" lengthAdjust="spacingAndGlyphs" textLength="20" x="453" y="814.6606">yes</text><text fill="#000000" font-family="sans-serif" font-size="11" lengthAdjust="spacingAndGlyphs" textLength="14" x="758" y="814.6606">no</text><rect fill="#FEFECE" filter="url(#f1)" height="33.9688" rx="12.5" ry="12.5" style="stroke: #A80036; stroke-width: 1.5;" width="94" x="416" y="839.2549"/><text fill="#000000" font-family="sans-serif" font-size="12" lengthAdjust="spacingAndGlyphs" textLength="74" x="426" y="860.3936">return TRUE</text><ellipse cx="463" cy="905.7393" fill="none" filter="url(#f1)" rx="10" ry="10" style="stroke: #000000; stroke-width: 1.0;"/><ellipse cx="463.5" cy="906.2393" fill="#000000" filter="url(#f1)" rx="6" ry="6" style="stroke: none; stroke-width: 1.0;"/><rect fill="#FEFECE" filter="url(#f1)" height="33.9688" rx="12.5" ry="12.5" style="stroke: #A80036; stroke-width: 1.5;" width="77" x="577" y="935.7393"/><text fill="#000000" font-family="sans-serif" font-size="12" lengthAdjust="spacingAndGlyphs" textLength="57" x="587" y="956.8779">clear root</text><rect fill="#FEFECE" filter="url(#f1)" height="33.9688" rx="12.5" ry="12.5" style="stroke: #A80036; stroke-width: 1.5;" width="80" x="575.5" y="989.708"/><text fill="#000000" font-family="sans-serif" font-size="12" lengthAdjust="spacingAndGlyphs" textLength="60" x="585.5" y="1010.8467">set nstate</text><polygon fill="#FEFECE" filter="url(#f1)" points="570,1043.6768,661,1043.6768,673,1055.6768,661,1067.6768,570,1067.6768,558,1055.6768,570,1043.6768" style="stroke: #A80036; stroke-width: 1.5;"/><text fill="#000000" font-family="sans-serif" font-size="11" lengthAdjust="spacingAndGlyphs" textLength="91" x="570" y="1059.4849">nstate is NNUM?</text><text fill="#000000" font-family="sans-serif" font-size="11" lengthAdjust="spacingAndGlyphs" textLength="20" x="538" y="1053.0825">yes</text><text fill="#000000" font-family="sans-serif" font-size="11" lengthAdjust="spacingAndGlyphs" textLength="14" x="673" y="1053.0825">no</text><polygon fill="#FBFB77" filter="url(#f1)" points="354,1077.6768,354,1117.9424,481,1117.9424,481,1087.6768,471,1077.6768,354,1077.6768" style="stroke: #A80036; stroke-width: 1.0;"/><polygon fill="#FBFB77" points="354,1077.6768,354,1117.9424,481,1117.9424,481,1101.8096,501,1097.8096,481,1093.8096,481,1087.6768,471,1077.6768,354,1077.6768" style="stroke: #A80036; stroke-width: 1.0;"/><line style="stroke: #A80036; stroke-width: 1.0;" x1="471" x2="471" y1="1077.6768" y2="1087.6768"/><line style="stroke: #A80036; stroke-width: 1.0;" x1="481" x2="471" y1="1087.6768" y2="1087.6768"/><text fill="#000000" font-family="sans-serif" font-size="13" lengthAdjust="spacingAndGlyphs" textLength="89" x="360" y="1094.7437">word consists</text><text fill="#000000" font-family="sans-serif" font-size="13" lengthAdjust="spacingAndGlyphs" textLength="106" x="360" y="1109.8765">of only numbers</text><rect fill="#FEFECE" filter="url(#f1)" height="33.9688" rx="12.5" ry="12.5" style="stroke: #A80036; stroke-width: 1.5;" width="94" x="501" y="1080.8252"/><text fill="#000000" font-family="sans-serif" font-size="12" lengthAdjust="spacingAndGlyphs" textLength="74" x="511" y="1101.9639">return TRUE</text><ellipse cx="548" cy="1147.9424" fill="none" filter="url(#f1)" rx="10" ry="10" style="stroke: #000000; stroke-width: 1.0;"/><ellipse cx="548.5" cy="1148.4424" fill="#000000" filter="url(#f1)" rx="6" ry="6" style="stroke: none; stroke-width: 1.0;"/><rect fill="#FEFECE" filter="url(#f1)" height="33.9688" rx="12.5" ry="12.5" style="stroke: #A80036; stroke-width: 1.5;" width="100" x="565.5" y="1177.9424"/><text fill="#000000" font-family="sans-serif" font-size="12" lengthAdjust="spacingAndGlyphs" textLength="80" x="575.5" y="1199.0811">return FALSE</text><ellipse cx="615.5" cy="1241.9111" fill="none" filter="url(#f1)" rx="10" ry="10" style="stroke: #000000; stroke-width: 1.0;"/><ellipse cx="616" cy="1242.4111" fill="#000000" filter="url(#f1)" rx="6" ry="6" style="stroke: none; stroke-width: 1.0;"/><line style="stroke: #A80036; stroke-width: 1.5;" x1="502" x2="502" y1="138.9219" y2="161.4375"/><polygon fill="#A80036" points="498,151.4375,502,161.4375,506,151.4375,502,155.4375" style="stroke: #A80036; stroke-width: 1.0;"/><line style="stroke: #A80036; stroke-width: 1.5;" x1="512" x2="502" y1="82.9531" y2="82.9531"/><line style="stroke: #A80036; stroke-width: 1.5;" x1="502" x2="502" y1="82.9531" y2="104.9531"/><polygon fill="#A80036" points="498,94.9531,502,104.9531,506,94.9531,502,98.9531" style="stroke: #A80036; stroke-width: 1.0;"/><line style="stroke: #A80036; stroke-width: 1.5;" x1="719" x2="729" y1="82.9531" y2="82.9531"/><polygon fill="#A80036" points="725,131.4375,729,141.4375,733,131.4375,729,135.4375" style="stroke: #A80036; stroke-width: 1.5;"/><line style="stroke: #A80036; stroke-width: 1.5;" x1="729" x2="729" y1="82.9531" y2="186.4375"/><line style="stroke: #A80036; stroke-width: 1.5;" x1="729" x2="615.5" y1="186.4375" y2="186.4375"/><line style="stroke: #A80036; stroke-width: 1.5;" x1="615.5" x2="615.5" y1="186.4375" y2="228.5361"/><polygon fill="#A80036" points="611.5,218.5361,615.5,228.5361,619.5,218.5361,615.5,222.5361" style="stroke: #A80036; stroke-width: 1.0;"/><line style="stroke: #A80036; stroke-width: 1.5;" x1="615.5" x2="615.5" y1="50.9531" y2="70.9531"/><polygon fill="#A80036" points="611.5,60.9531,615.5,70.9531,619.5,60.9531,615.5,64.9531" style="stroke: #A80036; stroke-width: 1.0;"/><line style="stroke: #A80036; stroke-width: 1.5;" x1="560.5" x2="456.25" y1="240.5361" y2="240.5361"/><line style="stroke: #A80036; stroke-width: 1.5;" x1="456.25" x2="456.25" y1="240.5361" y2="262.5361"/><polygon fill="#A80036" points="452.25,252.5361,456.25,262.5361,460.25,252.5361,456.25,256.5361" style="stroke: #A80036; stroke-width: 1.0;"/><line style="stroke: #A80036; stroke-width: 1.5;" x1="670.5" x2="774.75" y1="240.5361" y2="240.5361"/><line style="stroke: #A80036; stroke-width: 1.5;" x1="774.75" x2="774.75" y1="240.5361" y2="262.5361"/><polygon fill="#A80036" points="770.75,252.5361,774.75,262.5361,778.75,252.5361,774.75,256.5361" style="stroke: #A80036; stroke-width: 1.0;"/><line style="stroke: #A80036; stroke-width: 1.5;" x1="456.25" x2="456.25" y1="352.3799" y2="370.3799"/><line style="stroke: #A80036; stroke-width: 1.5;" x1="456.25" x2="603.5" y1="370.3799" y2="370.3799"/><polygon fill="#A80036" points="593.5,366.3799,603.5,370.3799,593.5,374.3799,597.5,370.3799" style="stroke: #A80036; stroke-width: 1.0;"/><line style="stroke: #A80036; stroke-width: 1.5;" x1="774.75" x2="774.75" y1="296.5049" y2="370.3799"/><line style="stroke: #A80036; stroke-width: 1.5;" x1="774.75" x2="627.5" y1="370.3799" y2="370.3799"/><polygon fill="#A80036" points="637.5,366.3799,627.5,370.3799,637.5,374.3799,633.5,370.3799" style="stroke: #A80036; stroke-width: 1.0;"/><line style="stroke: #A80036; stroke-width: 1.5;" x1="550.5" x2="429" y1="429.3799" y2="429.3799"/><line style="stroke: #A80036; stroke-width: 1.5;" x1="429" x2="429" y1="429.3799" y2="451.3799"/><polygon fill="#A80036" points="425,441.3799,429,451.3799,433,441.3799,429,445.3799" style="stroke: #A80036; stroke-width: 1.0;"/><line style="stroke: #A80036; stroke-width: 1.5;" x1="680.5" x2="802" y1="429.3799" y2="429.3799"/><line style="stroke: #A80036; stroke-width: 1.5;" x1="802" x2="802" y1="429.3799" y2="451.3799"/><polygon fill="#A80036" points="798,441.3799,802,451.3799,806,441.3799,802,445.3799" style="stroke: #A80036; stroke-width: 1.0;"/><line style="stroke: #A80036; stroke-width: 1.5;" x1="429" x2="429" y1="499.3174" y2="517.3174"/><line style="stroke: #A80036; stroke-width: 1.5;" x1="429" x2="603.5" y1="517.3174" y2="517.3174"/><polygon fill="#A80036" points="593.5,513.3174,603.5,517.3174,593.5,521.3174,597.5,517.3174" style="stroke: #A80036; stroke-width: 1.0;"/><line style="stroke: #A80036; stroke-width: 1.5;" x1="802" x2="802" y1="499.3174" y2="517.3174"/><line style="stroke: #A80036; stroke-width: 1.5;" x1="802" x2="627.5" y1="517.3174" y2="517.3174"/><polygon fill="#A80036" points="637.5,513.3174,627.5,517.3174,637.5,521.3174,633.5,517.3174" style="stroke: #A80036; stroke-width: 1.0;"/><line style="stroke: #A80036; stroke-width: 1.5;" x1="615.5" x2="615.5" y1="382.3799" y2="417.3799"/><polygon fill="#A80036" points="611.5,407.3799,615.5,417.3799,619.5,407.3799,615.5,411.3799" style="stroke: #A80036; stroke-width: 1.0;"/><line style="stroke: #A80036; stroke-width: 1.5;" x1="553.5" x2="543.5" y1="581.3174" y2="581.3174"/><line style="stroke: #A80036; stroke-width: 1.5;" x1="543.5" x2="543.5" y1="581.3174" y2="603.3174"/><polygon fill="#A80036" points="539.5,593.3174,543.5,603.3174,547.5,593.3174,543.5,597.3174" style="stroke: #A80036; stroke-width: 1.0;"/><line style="stroke: #A80036; stroke-width: 1.5;" x1="677.5" x2="687.5" y1="581.3174" y2="581.3174"/><polygon fill="#A80036" points="683.5,608.3018,687.5,618.3018,691.5,608.3018,687.5,612.3018" style="stroke: #A80036; stroke-width: 1.5;"/><line style="stroke: #A80036; stroke-width: 1.5;" x1="687.5" x2="687.5" y1="581.3174" y2="655.2861"/><line style="stroke: #A80036; stroke-width: 1.5;" x1="687.5" x2="627.5" y1="655.2861" y2="655.2861"/><polygon fill="#A80036" points="637.5,651.2861,627.5,655.2861,637.5,659.2861,633.5,655.2861" style="stroke: #A80036; stroke-width: 1.0;"/><line style="stroke: #A80036; stroke-width: 1.5;" x1="543.5" x2="543.5" y1="637.2861" y2="655.2861"/><line style="stroke: #A80036; stroke-width: 1.5;" x1="543.5" x2="603.5" y1="655.2861" y2="655.2861"/><polygon fill="#A80036" points="593.5,651.2861,603.5,655.2861,593.5,659.2861,597.5,655.2861" style="stroke: #A80036; stroke-width: 1.0;"/><line style="stroke: #A80036; stroke-width: 1.5;" x1="615.5" x2="615.5" y1="529.3174" y2="569.3174"/><polygon fill="#A80036" points="611.5,559.3174,615.5,569.3174,619.5,559.3174,615.5,563.3174" style="stroke: #A80036; stroke-width: 1.0;"/><line style="stroke: #A80036; stroke-width: 1.5;" x1="553.5" x2="543.5" y1="699.2861" y2="699.2861"/><line style="stroke: #A80036; stroke-width: 1.5;" x1="543.5" x2="543.5" y1="699.2861" y2="721.2861"/><polygon fill="#A80036" points="539.5,711.2861,543.5,721.2861,547.5,711.2861,543.5,715.2861" style="stroke: #A80036; stroke-width: 1.0;"/><line style="stroke: #A80036; stroke-width: 1.5;" x1="677.5" x2="687.5" y1="699.2861" y2="699.2861"/><polygon fill="#A80036" points="683.5,726.2705,687.5,736.2705,691.5,726.2705,687.5,730.2705" style="stroke: #A80036; stroke-width: 1.5;"/><line style="stroke: #A80036; stroke-width: 1.5;" x1="687.5" x2="687.5" y1="699.2861" y2="773.2549"/><line style="stroke: #A80036; stroke-width: 1.5;" x1="687.5" x2="627.5" y1="773.2549" y2="773.2549"/><polygon fill="#A80036" points="637.5,769.2549,627.5,773.2549,637.5,777.2549,633.5,773.2549" style="stroke: #A80036; stroke-width: 1.0;"/><line style="stroke: #A80036; stroke-width: 1.5;" x1="543.5" x2="543.5" y1="755.2549" y2="773.2549"/><line style="stroke: #A80036; stroke-width: 1.5;" x1="543.5" x2="603.5" y1="773.2549" y2="773.2549"/><polygon fill="#A80036" points="593.5,769.2549,603.5,773.2549,593.5,777.2549,597.5,773.2549" style="stroke: #A80036; stroke-width: 1.0;"/><line style="stroke: #A80036; stroke-width: 1.5;" x1="615.5" x2="615.5" y1="667.2861" y2="687.2861"/><polygon fill="#A80036" points="611.5,677.2861,615.5,687.2861,619.5,677.2861,615.5,681.2861" style="stroke: #A80036; stroke-width: 1.0;"/><line style="stroke: #A80036; stroke-width: 1.5;" x1="463" x2="463" y1="873.2236" y2="895.7393"/><polygon fill="#A80036" points="459,885.7393,463,895.7393,467,885.7393,463,889.7393" style="stroke: #A80036; stroke-width: 1.0;"/><line style="stroke: #A80036; stroke-width: 1.5;" x1="473" x2="463" y1="817.2549" y2="817.2549"/><line style="stroke: #A80036; stroke-width: 1.5;" x1="463" x2="463" y1="817.2549" y2="839.2549"/><polygon fill="#A80036" points="459,829.2549,463,839.2549,467,829.2549,463,833.2549" style="stroke: #A80036; stroke-width: 1.0;"/><line style="stroke: #A80036; stroke-width: 1.5;" x1="758" x2="768" y1="817.2549" y2="817.2549"/><polygon fill="#A80036" points="764,865.7393,768,875.7393,772,865.7393,768,869.7393" style="stroke: #A80036; stroke-width: 1.5;"/><line style="stroke: #A80036; stroke-width: 1.5;" x1="768" x2="768" y1="817.2549" y2="920.7393"/><line style="stroke: #A80036; stroke-width: 1.5;" x1="768" x2="615.5" y1="920.7393" y2="920.7393"/><line style="stroke: #A80036; stroke-width: 1.5;" x1="615.5" x2="615.5" y1="920.7393" y2="935.7393"/><polygon fill="#A80036" points="611.5,925.7393,615.5,935.7393,619.5,925.7393,615.5,929.7393" style="stroke: #A80036; stroke-width: 1.0;"/><line style="stroke: #A80036; stroke-width: 1.5;" x1="615.5" x2="615.5" y1="785.2549" y2="805.2549"/><polygon fill="#A80036" points="611.5,795.2549,615.5,805.2549,619.5,795.2549,615.5,799.2549" style="stroke: #A80036; stroke-width: 1.0;"/><line style="stroke: #A80036; stroke-width: 1.5;" x1="615.5" x2="615.5" y1="969.708" y2="989.708"/><polygon fill="#A80036" points="611.5,979.708,615.5,989.708,619.5,979.708,615.5,983.708" style="stroke: #A80036; stroke-width: 1.0;"/><line style="stroke: #A80036; stroke-width: 1.5;" x1="548" x2="548" y1="1114.7939" y2="1137.9424"/><polygon fill="#A80036" points="544,1127.9424,548,1137.9424,552,1127.9424,548,1131.9424" style="stroke: #A80036; stroke-width: 1.0;"/><line style="stroke: #A80036; stroke-width: 1.5;" x1="558" x2="548" y1="1055.6768" y2="1055.6768"/><line style="stroke: #A80036; stroke-width: 1.5;" x1="548" x2="548" y1="1055.6768" y2="1080.8252"/><polygon fill="#A80036" points="544,1070.8252,548,1080.8252,552,1070.8252,548,1074.8252" style="stroke: #A80036; stroke-width: 1.0;"/><line style="stroke: #A80036; stroke-width: 1.5;" x1="673" x2="683" y1="1055.6768" y2="1055.6768"/><polygon fill="#A80036" points="679,1107.3096,683,1117.3096,687,1107.3096,683,1111.3096" style="stroke: #A80036; stroke-width: 1.5;"/><line style="stroke: #A80036; stroke-width: 1.5;" x1="683" x2="683" y1="1055.6768" y2="1162.9424"/><line style="stroke: #A80036; stroke-width: 1.5;" x1="683" x2="615.5" y1="1162.9424" y2="1162.9424"/><line style="stroke: #A80036; stroke-width: 1.5;" x1="615.5" x2="615.5" y1="1162.9424" y2="1177.9424"/><polygon fill="#A80036" points="611.5,1167.9424,615.5,1177.9424,619.5,1167.9424,615.5,1171.9424" style="stroke: #A80036; stroke-width: 1.0;"/><line style="stroke: #A80036; stroke-width: 1.5;" x1="615.5" x2="615.5" y1="1023.6768" y2="1043.6768"/><polygon fill="#A80036" points="611.5,1033.6768,615.5,1043.6768,619.5,1033.6768,615.5,1037.6768" style="stroke: #A80036; stroke-width: 1.0;"/><line style="stroke: #A80036; stroke-width: 1.5;" x1="615.5" x2="615.5" y1="1211.9111" y2="1231.9111"/><polygon fill="#A80036" points="611.5,1221.9111,615.5,1231.9111,619.5,1221.9111,615.5,1225.9111" style="stroke: #A80036; stroke-width: 1.0;"/></g></svg>