<?xml version="1.0" encoding="UTF-8" standalone="yes"?><svg xmlns="http://www.w3.org/2000/svg" xmlns:xlink="http://www.w3.org/1999/xlink" height="725px" style="width:651px;height:725px;" version="1.1" viewBox="0 0 651 725" width="651px"><defs><linearGradient id="gr0" x1="0%" x2="100%" y1="50%" y2="50%"><stop offset="0%" stop-color="#FFFFFF"/><stop offset="100%" stop-color="#FFFFFF"/></linearGradient><filter height="300%" id="f1" width="300%" x="-1" y="-1"><feGaussianBlur result="blurOut" stdDeviation="2.0"/><feColorMatrix in="blurOut" result="blurOut2" type="matrix" values="0 0 0 0 0 0 0 0 0 0 0 0 0 0 0 0 0 0 .4 0"/><feOffset dx="4.0" dy="4.0" in="blurOut2" result="blurOut3"/><feBlend in="SourceGraphic" in2="blurOut3" mode="normal"/></filter></defs><g><rect fill="url(#gr0)" height="725" style="stroke: none; stroke-width: 1.0;" width="651" x="0" y="0"/><text fill="#000000" font-family="sans-serif" font-size="18" lengthAdjust="spacingAndGlyphs" textLength="200" x="230.25" y="26.708">Hunspell - Spell (spell)</text><text fill="#000000" font-family="sans-serif" font-size="18" lengthAdjust="spacingAndGlyphs" textLength="0" x="333.25" y="47.6611"/><text fill="#000000" font-family="sans-serif" font-size="18" lengthAdjust="spacingAndGlyphs" textLength="202" x="229.25" y="68.6143">Calling check_word for</text><text fill="#000000" font-family="sans-serif" font-size="18" lengthAdjust="spacingAndGlyphs" textLength="225" x="217.75" y="89.5674">upper case (ALLCAP) and</text><text fill="#000000" font-family="sans-serif" font-size="18" lengthAdjust="spacingAndGlyphs" textLength="264" x="198.25" y="110.5205">initial capitalization (INITCAP)</text><ellipse cx="539.5" cy="124.7656" fill="#000000" filter="url(#f1)" rx="10" ry="10" style="stroke: none; stroke-width: 1.0;"/><rect fill="#FEFECE" filter="url(#f1)" height="33.9688" rx="12.5" ry="12.5" style="stroke: #A80036; stroke-width: 1.5;" width="54" x="512.5" y="154.7656"/><text fill="#000000" font-family="sans-serif" font-size="12" lengthAdjust="spacingAndGlyphs" textLength="34" x="522.5" y="175.9043">TODO</text><rect fill="#FEFECE" filter="url(#f1)" height="33.9688" rx="12.5" ry="12.5" style="stroke: #A80036; stroke-width: 1.5;" width="54" x="512.5" y="208.7344"/><text fill="#000000" font-family="sans-serif" font-size="12" lengthAdjust="spacingAndGlyphs" textLength="34" x="522.5" y="229.873">TODO</text><rect fill="#FEFECE" filter="url(#f1)" height="33.9688" rx="12.5" ry="12.5" style="stroke: #A80036; stroke-width: 1.5;" width="54" x="512.5" y="262.7031"/><text fill="#000000" font-family="sans-serif" font-size="12" lengthAdjust="spacingAndGlyphs" textLength="34" x="522.5" y="283.8418">TODO</text><polygon fill="#FEFECE" filter="url(#f1)" points="454.5,316.6719,624.5,316.6719,636.5,328.6719,624.5,340.6719,454.5,340.6719,442.5,328.6719,454.5,316.6719" style="stroke: #A80036; stroke-width: 1.5;"/><text fill="#000000" font-family="sans-serif" font-size="11" lengthAdjust="spacingAndGlyphs" textLength="170" x="454.5" y="332.48">cleaned word is in upper case</text><text fill="#000000" font-family="sans-serif" font-size="11" lengthAdjust="spacingAndGlyphs" textLength="20" x="422.5" y="326.0776">yes</text><text fill="#000000" font-family="sans-serif" font-size="11" lengthAdjust="spacingAndGlyphs" textLength="14" x="636.5" y="326.0776">no</text><rect fill="#FEFECE" filter="url(#f1)" height="33.9688" rx="12.5" ry="12.5" style="stroke: #A80036; stroke-width: 1.5;" width="185" x="340" y="350.6719"/><text fill="#000000" font-family="sans-serif" font-size="12" lengthAdjust="spacingAndGlyphs" textLength="165" x="350" y="371.8105">add SPELL_ORIGCAP to info</text><rect fill="#FEFECE" filter="url(#f1)" height="47.9375" rx="12.5" ry="12.5" style="stroke: #A80036; stroke-width: 1.5;" width="245" x="310" y="404.6406"/><text fill="#000000" font-family="sans-serif" font-size="12" lengthAdjust="spacingAndGlyphs" textLength="151" x="320" y="425.7793">set root value to result of</text><text fill="#000000" font-family="sans-serif" font-size="12" lengthAdjust="spacingAndGlyphs" textLength="225" x="320" y="439.748">check_word(cleaned word, info, root)</text><polygon fill="#FEFECE" filter="url(#f1)" points="361.5,472.5781,503.5,472.5781,515.5,484.5781,503.5,496.5781,361.5,496.5781,349.5,484.5781,361.5,472.5781" style="stroke: #A80036; stroke-width: 1.5;"/><text fill="#000000" font-family="sans-serif" font-size="11" lengthAdjust="spacingAndGlyphs" textLength="142" x="361.5" y="488.3862">root value does not exist</text><text fill="#000000" font-family="sans-serif" font-size="11" lengthAdjust="spacingAndGlyphs" textLength="20" x="329.5" y="481.9839">yes</text><text fill="#000000" font-family="sans-serif" font-size="11" lengthAdjust="spacingAndGlyphs" textLength="14" x="515.5" y="481.9839">no</text><polygon fill="#FEFECE" filter="url(#f1)" points="295,506.5781,384,506.5781,396,518.5781,384,530.5781,295,530.5781,283,518.5781,295,506.5781" style="stroke: #A80036; stroke-width: 1.5;"/><text fill="#000000" font-family="sans-serif" font-size="11" lengthAdjust="spacingAndGlyphs" textLength="89" x="295" y="522.3862">abbr. count &gt; 0</text><text fill="#000000" font-family="sans-serif" font-size="11" lengthAdjust="spacingAndGlyphs" textLength="20" x="263" y="515.9839">yes</text><text fill="#000000" font-family="sans-serif" font-size="11" lengthAdjust="spacingAndGlyphs" textLength="14" x="396" y="515.9839">no</text><rect fill="#FEFECE" filter="url(#f1)" height="47.9375" rx="12.5" ry="12.5" style="stroke: #A80036; stroke-width: 1.5;" width="416" x="10" y="540.5781"/><text fill="#000000" font-family="sans-serif" font-size="12" lengthAdjust="spacingAndGlyphs" textLength="151" x="20" y="561.7168">set root value to result of</text><text fill="#000000" font-family="sans-serif" font-size="12" lengthAdjust="spacingAndGlyphs" textLength="396" x="20" y="575.6855">check_word(cleaned word with period '.' added at end, info, root)</text><polygon fill="#FEFECE" filter="url(#f1)" points="339.5,594.5156,351.5,606.5156,339.5,618.5156,327.5,606.5156,339.5,594.5156" style="stroke: #A80036; stroke-width: 1.5;"/><polygon fill="#FEFECE" filter="url(#f1)" points="432.5,624.5156,444.5,636.5156,432.5,648.5156,420.5,636.5156,432.5,624.5156" style="stroke: #A80036; stroke-width: 1.5;"/><polygon fill="#FEFECE" filter="url(#f1)" points="539.5,654.5156,551.5,666.5156,539.5,678.5156,527.5,666.5156,539.5,654.5156" style="stroke: #A80036; stroke-width: 1.5;"/><ellipse cx="539.5" cy="708.5156" fill="none" filter="url(#f1)" rx="10" ry="10" style="stroke: #000000; stroke-width: 1.0;"/><ellipse cx="540" cy="709.0156" fill="#000000" filter="url(#f1)" rx="6" ry="6" style="stroke: none; stroke-width: 1.0;"/><line style="stroke: #A80036; stroke-width: 1.5;" x1="539.5" x2="539.5" y1="134.7656" y2="154.7656"/><polygon fill="#A80036" points="535.5,144.7656,539.5,154.7656,543.5,144.7656,539.5,148.7656" style="stroke: #A80036; stroke-width: 1.0;"/><line style="stroke: #A80036; stroke-width: 1.5;" x1="539.5" x2="539.5" y1="188.7344" y2="208.7344"/><polygon fill="#A80036" points="535.5,198.7344,539.5,208.7344,543.5,198.7344,539.5,202.7344" style="stroke: #A80036; stroke-width: 1.0;"/><line style="stroke: #A80036; stroke-width: 1.5;" x1="539.5" x2="539.5" y1="242.7031" y2="262.7031"/><polygon fill="#A80036" points="535.5,252.7031,539.5,262.7031,543.5,252.7031,539.5,256.7031" style="stroke: #A80036; stroke-width: 1.0;"/><line style="stroke: #A80036; stroke-width: 1.5;" x1="432.5" x2="432.5" y1="384.6406" y2="404.6406"/><polygon fill="#A80036" points="428.5,394.6406,432.5,404.6406,436.5,394.6406,432.5,398.6406" style="stroke: #A80036; stroke-width: 1.0;"/><line style="stroke: #A80036; stroke-width: 1.5;" x1="283" x2="218" y1="518.5781" y2="518.5781"/><line style="stroke: #A80036; stroke-width: 1.5;" x1="218" x2="218" y1="518.5781" y2="540.5781"/><polygon fill="#A80036" points="214,530.5781,218,540.5781,222,530.5781,218,534.5781" style="stroke: #A80036; stroke-width: 1.0;"/><line style="stroke: #A80036; stroke-width: 1.5;" x1="396" x2="461" y1="518.5781" y2="518.5781"/><polygon fill="#A80036" points="457,552.5469,461,562.5469,465,552.5469,461,556.5469" style="stroke: #A80036; stroke-width: 1.5;"/><line style="stroke: #A80036; stroke-width: 1.5;" x1="461" x2="461" y1="518.5781" y2="606.5156"/><line style="stroke: #A80036; stroke-width: 1.5;" x1="461" x2="351.5" y1="606.5156" y2="606.5156"/><polygon fill="#A80036" points="361.5,602.5156,351.5,606.5156,361.5,610.5156,357.5,606.5156" style="stroke: #A80036; stroke-width: 1.0;"/><line style="stroke: #A80036; stroke-width: 1.5;" x1="218" x2="218" y1="588.5156" y2="606.5156"/><line style="stroke: #A80036; stroke-width: 1.5;" x1="218" x2="327.5" y1="606.5156" y2="606.5156"/><polygon fill="#A80036" points="317.5,602.5156,327.5,606.5156,317.5,610.5156,321.5,606.5156" style="stroke: #A80036; stroke-width: 1.0;"/><line style="stroke: #A80036; stroke-width: 1.5;" x1="349.5" x2="339.5" y1="484.5781" y2="484.5781"/><line style="stroke: #A80036; stroke-width: 1.5;" x1="339.5" x2="339.5" y1="484.5781" y2="506.5781"/><polygon fill="#A80036" points="335.5,496.5781,339.5,506.5781,343.5,496.5781,339.5,500.5781" style="stroke: #A80036; stroke-width: 1.0;"/><line style="stroke: #A80036; stroke-width: 1.5;" x1="515.5" x2="525.5" y1="484.5781" y2="484.5781"/><polygon fill="#A80036" points="521.5,550.5469,525.5,560.5469,529.5,550.5469,525.5,554.5469" style="stroke: #A80036; stroke-width: 1.5;"/><line style="stroke: #A80036; stroke-width: 1.5;" x1="525.5" x2="525.5" y1="484.5781" y2="636.5156"/><line style="stroke: #A80036; stroke-width: 1.5;" x1="525.5" x2="444.5" y1="636.5156" y2="636.5156"/><polygon fill="#A80036" points="454.5,632.5156,444.5,636.5156,454.5,640.5156,450.5,636.5156" style="stroke: #A80036; stroke-width: 1.0;"/><line style="stroke: #A80036; stroke-width: 1.5;" x1="339.5" x2="339.5" y1="618.5156" y2="636.5156"/><line style="stroke: #A80036; stroke-width: 1.5;" x1="339.5" x2="420.5" y1="636.5156" y2="636.5156"/><polygon fill="#A80036" points="410.5,632.5156,420.5,636.5156,410.5,640.5156,414.5,636.5156" style="stroke: #A80036; stroke-width: 1.0;"/><line style="stroke: #A80036; stroke-width: 1.5;" x1="432.5" x2="432.5" y1="452.5781" y2="472.5781"/><polygon fill="#A80036" points="428.5,462.5781,432.5,472.5781,436.5,462.5781,432.5,466.5781" style="stroke: #A80036; stroke-width: 1.0;"/><line style="stroke: #A80036; stroke-width: 1.5;" x1="442.5" x2="432.5" y1="328.6719" y2="328.6719"/><line style="stroke: #A80036; stroke-width: 1.5;" x1="432.5" x2="432.5" y1="328.6719" y2="350.6719"/><polygon fill="#A80036" points="428.5,340.6719,432.5,350.6719,436.5,340.6719,432.5,344.6719" style="stroke: #A80036; stroke-width: 1.0;"/><line style="stroke: #A80036; stroke-width: 1.5;" x1="636.5" x2="646.5" y1="328.6719" y2="328.6719"/><polygon fill="#A80036" points="642.5,472.5938,646.5,482.5938,650.5,472.5938,646.5,476.5938" style="stroke: #A80036; stroke-width: 1.5;"/><line style="stroke: #A80036; stroke-width: 1.5;" x1="646.5" x2="646.5" y1="328.6719" y2="666.5156"/><line style="stroke: #A80036; stroke-width: 1.5;" x1="646.5" x2="551.5" y1="666.5156" y2="666.5156"/><polygon fill="#A80036" points="561.5,662.5156,551.5,666.5156,561.5,670.5156,557.5,666.5156" style="stroke: #A80036; stroke-width: 1.0;"/><line style="stroke: #A80036; stroke-width: 1.5;" x1="432.5" x2="432.5" y1="648.5156" y2="666.5156"/><line style="stroke: #A80036; stroke-width: 1.5;" x1="432.5" x2="527.5" y1="666.5156" y2="666.5156"/><polygon fill="#A80036" points="517.5,662.5156,527.5,666.5156,517.5,670.5156,521.5,666.5156" style="stroke: #A80036; stroke-width: 1.0;"/><line style="stroke: #A80036; stroke-width: 1.5;" x1="539.5" x2="539.5" y1="296.6719" y2="316.6719"/><polygon fill="#A80036" points="535.5,306.6719,539.5,316.6719,543.5,306.6719,539.5,310.6719" style="stroke: #A80036; stroke-width: 1.0;"/><line style="stroke: #A80036; stroke-width: 1.5;" x1="539.5" x2="539.5" y1="678.5156" y2="698.5156"/><polygon fill="#A80036" points="535.5,688.5156,539.5,698.5156,543.5,688.5156,539.5,692.5156" style="stroke: #A80036; stroke-width: 1.0;"/></g></svg>