<?xml version="1.0" encoding="UTF-8" standalone="yes"?><svg xmlns="http://www.w3.org/2000/svg" xmlns:xlink="http://www.w3.org/1999/xlink" height="605px" style="width:558px;height:605px;" version="1.1" viewBox="0 0 558 605" width="558px"><defs><linearGradient id="gr0" x1="0%" x2="100%" y1="50%" y2="50%"><stop offset="0%" stop-color="#FFFFFF"/><stop offset="100%" stop-color="#FFFFFF"/></linearGradient><filter height="300%" id="f1" width="300%" x="-1" y="-1"><feGaussianBlur result="blurOut" stdDeviation="2.0"/><feColorMatrix in="blurOut" result="blurOut2" type="matrix" values="0 0 0 0 0 0 0 0 0 0 0 0 0 0 0 0 0 0 .4 0"/><feOffset dx="4.0" dy="4.0" in="blurOut2" result="blurOut3"/><feBlend in="SourceGraphic" in2="blurOut3" mode="normal"/></filter></defs><g><rect fill="url(#gr0)" height="605" style="stroke: none; stroke-width: 1.0;" width="558" x="0" y="0"/><text fill="#000000" font-family="sans-serif" font-size="18" lengthAdjust="spacingAndGlyphs" textLength="200" x="183.5" y="26.708">Hunspell - Spell (spell)</text><text fill="#000000" font-family="sans-serif" font-size="18" lengthAdjust="spacingAndGlyphs" textLength="0" x="286.5" y="47.6611"/><text fill="#000000" font-family="sans-serif" font-size="18" lengthAdjust="spacingAndGlyphs" textLength="202" x="182.5" y="68.6143">Calling check_word for</text><text fill="#000000" font-family="sans-serif" font-size="18" lengthAdjust="spacingAndGlyphs" textLength="218" x="174.5" y="89.5674">lower case (NOCAP) and</text><text fill="#000000" font-family="sans-serif" font-size="18" lengthAdjust="spacingAndGlyphs" textLength="345" x="111" y="110.5205">camel cases (HUHCAP &amp; HUHINITCAP)</text><ellipse cx="454.25" cy="124.7656" fill="#000000" filter="url(#f1)" rx="10" ry="10" style="stroke: none; stroke-width: 1.0;"/><polygon fill="#FEFECE" filter="url(#f1)" points="392.75,154.7656,515.75,154.7656,527.75,180.375,515.75,205.9844,392.75,205.9844,380.75,180.375,392.75,154.7656" style="stroke: #A80036; stroke-width: 1.5;"/><text fill="#000000" font-family="sans-serif" font-size="11" lengthAdjust="spacingAndGlyphs" textLength="103" x="392.75" y="164.9761">cleaned word is in</text><text fill="#000000" font-family="sans-serif" font-size="11" lengthAdjust="spacingAndGlyphs" textLength="85" x="392.75" y="177.7808">- lower case or</text><text fill="#000000" font-family="sans-serif" font-size="11" lengthAdjust="spacingAndGlyphs" textLength="123" x="392.75" y="190.5854">- lower camel case or</text><text fill="#000000" font-family="sans-serif" font-size="11" lengthAdjust="spacingAndGlyphs" textLength="109" x="392.75" y="203.3901">- upper camel case</text><text fill="#000000" font-family="sans-serif" font-size="11" lengthAdjust="spacingAndGlyphs" textLength="20" x="360.75" y="177.7808">yes</text><text fill="#000000" font-family="sans-serif" font-size="11" lengthAdjust="spacingAndGlyphs" textLength="14" x="527.75" y="177.7808">no</text><polygon fill="#FEFECE" filter="url(#f1)" points="294,215.9844,417,215.9844,429,235.1914,417,254.3984,294,254.3984,282,235.1914,294,215.9844" style="stroke: #A80036; stroke-width: 1.5;"/><text fill="#000000" font-family="sans-serif" font-size="11" lengthAdjust="spacingAndGlyphs" textLength="103" x="294" y="226.1948">cleaned word is in</text><text fill="#000000" font-family="sans-serif" font-size="11" lengthAdjust="spacingAndGlyphs" textLength="123" x="294" y="238.9995">- lower camel case or</text><text fill="#000000" font-family="sans-serif" font-size="11" lengthAdjust="spacingAndGlyphs" textLength="109" x="294" y="251.8042">- upper camel case</text><text fill="#000000" font-family="sans-serif" font-size="11" lengthAdjust="spacingAndGlyphs" textLength="20" x="262" y="232.5972">yes</text><text fill="#000000" font-family="sans-serif" font-size="11" lengthAdjust="spacingAndGlyphs" textLength="14" x="429" y="232.5972">no</text><rect fill="#FEFECE" filter="url(#f1)" height="33.9688" rx="12.5" ry="12.5" style="stroke: #A80036; stroke-width: 1.5;" width="185" x="179.5" y="264.3984"/><text fill="#000000" font-family="sans-serif" font-size="12" lengthAdjust="spacingAndGlyphs" textLength="165" x="189.5" y="285.5371">add SPELL_ORIGCAP to info</text><polygon fill="#FEFECE" filter="url(#f1)" points="355.5,304.3672,367.5,316.3672,355.5,328.3672,343.5,316.3672,355.5,304.3672" style="stroke: #A80036; stroke-width: 1.5;"/><rect fill="#FEFECE" filter="url(#f1)" height="47.9375" rx="12.5" ry="12.5" style="stroke: #A80036; stroke-width: 1.5;" width="245" x="233" y="348.3672"/><text fill="#000000" font-family="sans-serif" font-size="12" lengthAdjust="spacingAndGlyphs" textLength="136" x="243" y="369.5059">set root value to result</text><text fill="#000000" font-family="sans-serif" font-size="12" lengthAdjust="spacingAndGlyphs" textLength="225" x="243" y="383.4746">check_word(cleaned word, info, root)</text><polygon fill="#FEFECE" filter="url(#f1)" points="240,416.3047,471,416.3047,483,428.3047,471,440.3047,240,440.3047,228,428.3047,240,416.3047" style="stroke: #A80036; stroke-width: 1.5;"/><text fill="#000000" font-family="sans-serif" font-size="11" lengthAdjust="spacingAndGlyphs" textLength="231" x="240" y="432.1128">abbr. count &gt; 0 and no root value exists</text><text fill="#000000" font-family="sans-serif" font-size="11" lengthAdjust="spacingAndGlyphs" textLength="20" x="208" y="425.7104">yes</text><text fill="#000000" font-family="sans-serif" font-size="11" lengthAdjust="spacingAndGlyphs" textLength="14" x="483" y="425.7104">no</text><rect fill="#FEFECE" filter="url(#f1)" height="47.9375" rx="12.5" ry="12.5" style="stroke: #A80036; stroke-width: 1.5;" width="416" x="10" y="450.3047"/><text fill="#000000" font-family="sans-serif" font-size="12" lengthAdjust="spacingAndGlyphs" textLength="136" x="20" y="471.4434">set root value to result</text><text fill="#000000" font-family="sans-serif" font-size="12" lengthAdjust="spacingAndGlyphs" textLength="396" x="20" y="485.4121">check_word(cleaned word with period '.' added at end, info, root)</text><polygon fill="#FEFECE" filter="url(#f1)" points="355.5,504.2422,367.5,516.2422,355.5,528.2422,343.5,516.2422,355.5,504.2422" style="stroke: #A80036; stroke-width: 1.5;"/><polygon fill="#FEFECE" filter="url(#f1)" points="454.25,534.2422,466.25,546.2422,454.25,558.2422,442.25,546.2422,454.25,534.2422" style="stroke: #A80036; stroke-width: 1.5;"/><ellipse cx="454.25" cy="588.2422" fill="none" filter="url(#f1)" rx="10" ry="10" style="stroke: #000000; stroke-width: 1.0;"/><ellipse cx="454.75" cy="588.7422" fill="#000000" filter="url(#f1)" rx="6" ry="6" style="stroke: none; stroke-width: 1.0;"/><line style="stroke: #A80036; stroke-width: 1.5;" x1="282" x2="272" y1="235.1914" y2="235.1914"/><line style="stroke: #A80036; stroke-width: 1.5;" x1="272" x2="272" y1="235.1914" y2="264.3984"/><polygon fill="#A80036" points="268,254.3984,272,264.3984,276,254.3984,272,258.3984" style="stroke: #A80036; stroke-width: 1.0;"/><line style="stroke: #A80036; stroke-width: 1.5;" x1="429" x2="439" y1="235.1914" y2="235.1914"/><polygon fill="#A80036" points="435,265.7793,439,275.7793,443,265.7793,439,269.7793" style="stroke: #A80036; stroke-width: 1.5;"/><line style="stroke: #A80036; stroke-width: 1.5;" x1="439" x2="439" y1="235.1914" y2="316.3672"/><line style="stroke: #A80036; stroke-width: 1.5;" x1="439" x2="367.5" y1="316.3672" y2="316.3672"/><polygon fill="#A80036" points="377.5,312.3672,367.5,316.3672,377.5,320.3672,373.5,316.3672" style="stroke: #A80036; stroke-width: 1.0;"/><line style="stroke: #A80036; stroke-width: 1.5;" x1="272" x2="272" y1="298.3672" y2="316.3672"/><line style="stroke: #A80036; stroke-width: 1.5;" x1="272" x2="343.5" y1="316.3672" y2="316.3672"/><polygon fill="#A80036" points="333.5,312.3672,343.5,316.3672,333.5,320.3672,337.5,316.3672" style="stroke: #A80036; stroke-width: 1.0;"/><line style="stroke: #A80036; stroke-width: 1.5;" x1="355.5" x2="355.5" y1="328.3672" y2="348.3672"/><polygon fill="#A80036" points="351.5,338.3672,355.5,348.3672,359.5,338.3672,355.5,342.3672" style="stroke: #A80036; stroke-width: 1.0;"/><line style="stroke: #A80036; stroke-width: 1.5;" x1="228" x2="218" y1="428.3047" y2="428.3047"/><line style="stroke: #A80036; stroke-width: 1.5;" x1="218" x2="218" y1="428.3047" y2="450.3047"/><polygon fill="#A80036" points="214,440.3047,218,450.3047,222,440.3047,218,444.3047" style="stroke: #A80036; stroke-width: 1.0;"/><line style="stroke: #A80036; stroke-width: 1.5;" x1="483" x2="493" y1="428.3047" y2="428.3047"/><polygon fill="#A80036" points="489,462.2734,493,472.2734,497,462.2734,493,466.2734" style="stroke: #A80036; stroke-width: 1.5;"/><line style="stroke: #A80036; stroke-width: 1.5;" x1="493" x2="493" y1="428.3047" y2="516.2422"/><line style="stroke: #A80036; stroke-width: 1.5;" x1="493" x2="367.5" y1="516.2422" y2="516.2422"/><polygon fill="#A80036" points="377.5,512.2422,367.5,516.2422,377.5,520.2422,373.5,516.2422" style="stroke: #A80036; stroke-width: 1.0;"/><line style="stroke: #A80036; stroke-width: 1.5;" x1="218" x2="218" y1="498.2422" y2="516.2422"/><line style="stroke: #A80036; stroke-width: 1.5;" x1="218" x2="343.5" y1="516.2422" y2="516.2422"/><polygon fill="#A80036" points="333.5,512.2422,343.5,516.2422,333.5,520.2422,337.5,516.2422" style="stroke: #A80036; stroke-width: 1.0;"/><line style="stroke: #A80036; stroke-width: 1.5;" x1="355.5" x2="355.5" y1="396.3047" y2="416.3047"/><polygon fill="#A80036" points="351.5,406.3047,355.5,416.3047,359.5,406.3047,355.5,410.3047" style="stroke: #A80036; stroke-width: 1.0;"/><line style="stroke: #A80036; stroke-width: 1.5;" x1="380.75" x2="355.5" y1="180.375" y2="180.375"/><line style="stroke: #A80036; stroke-width: 1.5;" x1="355.5" x2="355.5" y1="180.375" y2="215.9844"/><polygon fill="#A80036" points="351.5,205.9844,355.5,215.9844,359.5,205.9844,355.5,209.9844" style="stroke: #A80036; stroke-width: 1.0;"/><line style="stroke: #A80036; stroke-width: 1.5;" x1="527.75" x2="553" y1="180.375" y2="180.375"/><polygon fill="#A80036" points="549,353.3086,553,363.3086,557,353.3086,553,357.3086" style="stroke: #A80036; stroke-width: 1.5;"/><line style="stroke: #A80036; stroke-width: 1.5;" x1="553" x2="553" y1="180.375" y2="546.2422"/><line style="stroke: #A80036; stroke-width: 1.5;" x1="553" x2="466.25" y1="546.2422" y2="546.2422"/><polygon fill="#A80036" points="476.25,542.2422,466.25,546.2422,476.25,550.2422,472.25,546.2422" style="stroke: #A80036; stroke-width: 1.0;"/><line style="stroke: #A80036; stroke-width: 1.5;" x1="355.5" x2="355.5" y1="528.2422" y2="546.2422"/><line style="stroke: #A80036; stroke-width: 1.5;" x1="355.5" x2="442.25" y1="546.2422" y2="546.2422"/><polygon fill="#A80036" points="432.25,542.2422,442.25,546.2422,432.25,550.2422,436.25,546.2422" style="stroke: #A80036; stroke-width: 1.0;"/><line style="stroke: #A80036; stroke-width: 1.5;" x1="454.25" x2="454.25" y1="134.7656" y2="154.7656"/><polygon fill="#A80036" points="450.25,144.7656,454.25,154.7656,458.25,144.7656,454.25,148.7656" style="stroke: #A80036; stroke-width: 1.0;"/><line style="stroke: #A80036; stroke-width: 1.5;" x1="454.25" x2="454.25" y1="558.2422" y2="578.2422"/><polygon fill="#A80036" points="450.25,568.2422,454.25,578.2422,458.25,568.2422,454.25,572.2422" style="stroke: #A80036; stroke-width: 1.0;"/></g></svg>