<?xml version="1.0" encoding="UTF-8" standalone="no"?><svg xmlns="http://www.w3.org/2000/svg" xmlns:xlink="http://www.w3.org/1999/xlink" contentScriptType="application/ecmascript" contentStyleType="text/css" height="1376px" preserveAspectRatio="none" style="width:536px;height:1376px;" version="1.1" viewBox="0 0 536 1376" width="536px" zoomAndPan="magnify"><defs><linearGradient id="gduo73lk0qcra0" x1="0%" x2="100%" y1="50%" y2="50%"><stop offset="0%" stop-color="#FFFFFF"/><stop offset="100%" stop-color="#FFFFFF"/></linearGradient><filter height="300%" id="fduo73lk0qcra" width="300%" x="-1" y="-1"><feGaussianBlur result="blurOut" stdDeviation="2.0"/><feColorMatrix in="blurOut" result="blurOut2" type="matrix" values="0 0 0 0 0 0 0 0 0 0 0 0 0 0 0 0 0 0 .4 0"/><feOffset dx="4.0" dy="4.0" in="blurOut2" result="blurOut3"/><feBlend in="SourceGraphic" in2="blurOut3" mode="normal"/></filter><filter height="1" id="bduo73lk0qcra0" width="1" x="0" y="0"><feFlood flood-color="#87CEEB" result="flood"/><feComposite in="SourceGraphic" in2="flood" operator="over"/></filter></defs><g><rect fill="url(#gduo73lk0qcra0)" height="1376" style="stroke: none; stroke-width: 1.0;" width="536" x="0" y="0"/><text fill="#000000" font-family="Roboto Condensed" font-size="18" font-weight="bold" lengthAdjust="spacingAndGlyphs" textLength="192" x="59" y="28.8613">Nuspell - Check Spelling -</text><text fill="#000000" font-family="monospace" font-size="18" font-weight="bold" lengthAdjust="spacingAndGlyphs" textLength="220" x="255" y="29.4941">spell_priv(string s)</text><text fill="#000000" font-family="Roboto Condensed" font-size="18" font-weight="bold" lengthAdjust="spacingAndGlyphs" textLength="0" x="269" y="52.6006"/><ellipse cx="267.5" cy="67.4785" fill="#000000" filter="url(#fduo73lk0qcra)" rx="10" ry="10" style="stroke: none; stroke-width: 1.0;"/><rect fill="#FFFFFF" filter="url(#fduo73lk0qcra)" height="35.8262" rx="12.5" ry="12.5" style="stroke: #000000; stroke-width: 1.5;" width="109" x="213" y="146.7322"/><text fill="#000000" font-family="Roboto Condensed" font-size="12" lengthAdjust="spacingAndGlyphs" textLength="30" x="223" y="169.3064">return</text><text fill="#000000" font-family="monospace" font-size="12" lengthAdjust="spacingAndGlyphs" text-decoration="underline" textLength="56" x="256" y="169.7283">BAD_WORD</text><line style="stroke: #000000; stroke-width: 1.0;" x1="256" x2="312" y1="171.7283" y2="171.7283"/><ellipse cx="267.5" cy="219.1453" fill="none" filter="url(#fduo73lk0qcra)" rx="10" ry="10" style="stroke: #000000; stroke-width: 1.0;"/><ellipse cx="268" cy="219.6453" fill="#000000" filter="url(#fduo73lk0qcra)" rx="6" ry="6" style="stroke: none; stroke-width: 1.0;"/><polygon fill="#FFFFFF" filter="url(#fduo73lk0qcra)" points="138,97.4785,397,97.4785,409,109.4785,397,121.4785,138,121.4785,126,109.4785,138,97.4785" style="stroke: #000000; stroke-width: 1.5;"/><text fill="#000000" font-family="Roboto Condensed" font-size="11" lengthAdjust="spacingAndGlyphs" textLength="15" x="271.5" y="133.0049">yes</text><text fill="#000000" font-family="Roboto Condensed" font-size="11" lengthAdjust="spacingAndGlyphs" textLength="26" x="138" y="113.7512">length</text><text fill="#000000" font-family="monospace" font-size="11" font-weight="bold" lengthAdjust="spacingAndGlyphs" textLength="7" x="167" y="114.1379">s</text><text fill="#000000" font-family="Roboto Condensed" font-size="11" lengthAdjust="spacingAndGlyphs" textLength="121" x="177" y="113.7512">is greater or equal to global</text><text fill="#000000" font-family="monospace" font-size="11" lengthAdjust="spacingAndGlyphs" text-decoration="underline" textLength="91" x="301" y="114.1379">WORDMAXLENGTH</text><line style="stroke: #000000; stroke-width: 1.0;" x1="301" x2="392" y1="116.1379" y2="116.1379"/><text fill="#000000" font-family="Roboto Condensed" font-size="11" lengthAdjust="spacingAndGlyphs" textLength="5" x="392" y="113.7512">?</text><text fill="#000000" font-family="Roboto Condensed" font-size="11" lengthAdjust="spacingAndGlyphs" textLength="11" x="409" y="106.4976">no</text><rect fill="#87CEEB" filter="url(#fduo73lk0qcra)" height="35.8262" rx="12.5" ry="12.5" style="stroke: #000000; stroke-width: 1.5;" width="174" x="180.5" y="271.1453"/><text fill="#000000" font-family="Roboto Condensed" font-size="12" lengthAdjust="spacingAndGlyphs" textLength="27" x="190.5" y="293.7195">do on</text><text fill="#000000" font-family="monospace" font-size="12" font-weight="bold" lengthAdjust="spacingAndGlyphs" textLength="7" x="220.5" y="294.1414">s</text><text fill="#000000" font-family="Roboto Condensed" font-size="12" lengthAdjust="spacingAndGlyphs" textLength="114" x="230.5" y="293.7195">global input conversion</text><rect fill="#FFFFFF" filter="url(#fduo73lk0qcra)" height="523.5417" style="stroke: #000000; stroke-width: 2.0;" width="515" x="10" y="318.2654"/><path d="M218,319.2654 L218,329.7292 L208,339.7292 L10,339.7292 " fill="none" style="stroke: #000000; stroke-width: 2.0;"/><text fill="#000000" font-family="Roboto Condensed" font-size="14" lengthAdjust="spacingAndGlyphs" textLength="192" x="13" y="333.9353">handle abbreviations and numbers</text><polygon fill="#FFFFFF" filter="url(#fduo73lk0qcra)" points="52,355.4353,104,355.4353,116,367.4353,104,379.4353,52,379.4353,40,367.4353,52,355.4353" style="stroke: #000000; stroke-width: 1.5;"/><text fill="#000000" font-family="Roboto Condensed" font-size="11" lengthAdjust="spacingAndGlyphs" textLength="15" x="82" y="390.9617">yes</text><text fill="#000000" font-family="monospace" font-size="11" font-weight="bold" lengthAdjust="spacingAndGlyphs" textLength="7" x="52" y="372.0947">s</text><text fill="#000000" font-family="Roboto Condensed" font-size="11" lengthAdjust="spacingAndGlyphs" textLength="42" x="62" y="371.708">is empty?</text><rect fill="#FFFFFF" filter="url(#fduo73lk0qcra)" height="35.8262" rx="12.5" ry="12.5" style="stroke: #000000; stroke-width: 1.5;" width="116" x="20" y="412.4617"/><text fill="#000000" font-family="Roboto Condensed" font-size="12" lengthAdjust="spacingAndGlyphs" textLength="30" x="30" y="435.0359">return</text><text fill="#000000" font-family="monospace" font-size="12" lengthAdjust="spacingAndGlyphs" text-decoration="underline" textLength="63" x="63" y="435.4578">GOOD_WORD</text><line style="stroke: #000000; stroke-width: 1.0;" x1="63" x2="126" y1="437.4578" y2="437.4578"/><ellipse cx="78" cy="493.2878" fill="none" filter="url(#fduo73lk0qcra)" rx="10" ry="10" style="stroke: #000000; stroke-width: 1.0;"/><ellipse cx="78.5" cy="493.7878" fill="#000000" filter="url(#fduo73lk0qcra)" rx="6" ry="6" style="stroke: none; stroke-width: 1.0;"/><polygon fill="#FFFFFF" filter="url(#fduo73lk0qcra)" points="192,355.4353,286,355.4353,298,367.4353,286,379.4353,192,379.4353,180,367.4353,192,355.4353" style="stroke: #000000; stroke-width: 1.5;"/><text fill="#000000" font-family="Roboto Condensed" font-size="11" lengthAdjust="spacingAndGlyphs" textLength="15" x="243" y="390.9617">yes</text><text fill="#000000" font-family="Roboto Condensed" font-size="11" lengthAdjust="spacingAndGlyphs" textLength="58" x="192" y="371.708">last character</text><text fill="#000000" font-family="monospace" font-size="11" font-weight="bold" lengthAdjust="spacingAndGlyphs" textLength="7" x="253" y="372.0947">s</text><text fill="#000000" font-family="Roboto Condensed" font-size="11" lengthAdjust="spacingAndGlyphs" textLength="8" x="263" y="371.708">is</text><text fill="#000000" font-family="monospace" font-size="11" lengthAdjust="spacingAndGlyphs" text-decoration="underline" textLength="7" x="274" y="372.0947">.</text><line style="stroke: #000000; stroke-width: 1.0;" x1="274" x2="281" y1="374.0947" y2="374.0947"/><text fill="#000000" font-family="Roboto Condensed" font-size="11" lengthAdjust="spacingAndGlyphs" textLength="5" x="281" y="371.708">?</text><text fill="#000000" font-family="Roboto Condensed" font-size="11" lengthAdjust="spacingAndGlyphs" textLength="11" x="298" y="364.4543">no</text><rect fill="#FFFFFF" filter="url(#fduo73lk0qcra)" height="35.8262" rx="12.5" ry="12.5" style="stroke: #000000; stroke-width: 1.5;" width="166" x="156" y="412.4617"/><text fill="#000000" font-family="Roboto Condensed" font-size="12" lengthAdjust="spacingAndGlyphs" textLength="15" x="166" y="435.0359">set</text><text fill="#000000" font-family="monospace" font-size="12" font-weight="bold" lengthAdjust="spacingAndGlyphs" textLength="84" x="184" y="435.4578">abbreviation</text><text fill="#000000" font-family="Roboto Condensed" font-size="12" lengthAdjust="spacingAndGlyphs" textLength="10" x="271" y="435.0359">to</text><text fill="#000000" font-family="monospace" font-size="12" lengthAdjust="spacingAndGlyphs" text-decoration="underline" textLength="28" x="284" y="435.4578">TRUE</text><line style="stroke: #000000; stroke-width: 1.0;" x1="284" x2="312" y1="437.4578" y2="437.4578"/><rect fill="#FFFFFF" filter="url(#fduo73lk0qcra)" height="35.8262" rx="12.5" ry="12.5" style="stroke: #000000; stroke-width: 1.5;" width="173" x="342" y="435.708"/><text fill="#000000" font-family="Roboto Condensed" font-size="12" lengthAdjust="spacingAndGlyphs" textLength="15" x="352" y="458.2822">set</text><text fill="#000000" font-family="monospace" font-size="12" font-weight="bold" lengthAdjust="spacingAndGlyphs" textLength="84" x="370" y="458.7041">abbreviation</text><text fill="#000000" font-family="Roboto Condensed" font-size="12" lengthAdjust="spacingAndGlyphs" textLength="10" x="457" y="458.2822">to</text><text fill="#000000" font-family="monospace" font-size="12" lengthAdjust="spacingAndGlyphs" text-decoration="underline" textLength="35" x="470" y="458.7041">FALSE</text><line style="stroke: #000000; stroke-width: 1.0;" x1="470" x2="505" y1="460.7041" y2="460.7041"/><polygon fill="#FFFFFF" filter="url(#fduo73lk0qcra)" points="89.5,543.2878,220.5,543.2878,232.5,555.2878,220.5,567.2878,89.5,567.2878,77.5,555.2878,89.5,543.2878" style="stroke: #000000; stroke-width: 1.5;"/><text fill="#000000" font-family="Roboto Condensed" font-size="11" lengthAdjust="spacingAndGlyphs" textLength="15" x="159" y="578.8142">yes</text><text fill="#000000" font-family="monospace" font-size="11" font-weight="bold" lengthAdjust="spacingAndGlyphs" textLength="84" x="89.5" y="559.9473">abbreviation</text><text fill="#000000" font-family="Roboto Condensed" font-size="11" lengthAdjust="spacingAndGlyphs" textLength="8" x="176.5" y="559.5605">is</text><text fill="#000000" font-family="monospace" font-size="11" lengthAdjust="spacingAndGlyphs" text-decoration="underline" textLength="28" x="187.5" y="559.9473">TRUE</text><line style="stroke: #000000; stroke-width: 1.0;" x1="187.5" x2="215.5" y1="561.9473" y2="561.9473"/><text fill="#000000" font-family="Roboto Condensed" font-size="11" lengthAdjust="spacingAndGlyphs" textLength="5" x="215.5" y="559.5605">?</text><rect fill="#FFFFFF" filter="url(#fduo73lk0qcra)" height="35.8262" rx="12.5" ry="12.5" style="stroke: #000000; stroke-width: 1.5;" width="196" x="57" y="600.3142"/><text fill="#000000" font-family="Roboto Condensed" font-size="12" lengthAdjust="spacingAndGlyphs" textLength="62" x="67" y="622.8884">remove from</text><text fill="#000000" font-family="monospace" font-size="12" font-weight="bold" lengthAdjust="spacingAndGlyphs" textLength="7" x="132" y="623.3103">s</text><text fill="#000000" font-family="Roboto Condensed" font-size="12" lengthAdjust="spacingAndGlyphs" textLength="91" x="142" y="622.8884">trailing characters</text><text fill="#000000" font-family="monospace" font-size="12" lengthAdjust="spacingAndGlyphs" text-decoration="underline" textLength="7" x="236" y="623.3103">.</text><line style="stroke: #000000; stroke-width: 1.0;" x1="236" x2="243" y1="625.3103" y2="625.3103"/><rect fill="#FFFFFF" filter="url(#fduo73lk0qcra)" height="35.8262" rx="12.5" ry="12.5" style="stroke: #000000; stroke-width: 1.5;" width="116" x="97" y="705.394"/><text fill="#000000" font-family="Roboto Condensed" font-size="12" lengthAdjust="spacingAndGlyphs" textLength="30" x="107" y="727.9683">return</text><text fill="#000000" font-family="monospace" font-size="12" lengthAdjust="spacingAndGlyphs" text-decoration="underline" textLength="63" x="140" y="728.3901">GOOD_WORD</text><line style="stroke: #000000; stroke-width: 1.0;" x1="140" x2="203" y1="730.3901" y2="730.3901"/><ellipse cx="155" cy="777.8071" fill="none" filter="url(#fduo73lk0qcra)" rx="10" ry="10" style="stroke: #000000; stroke-width: 1.0;"/><ellipse cx="155.5" cy="778.3071" fill="#000000" filter="url(#fduo73lk0qcra)" rx="6" ry="6" style="stroke: none; stroke-width: 1.0;"/><polygon fill="#FFFFFF" filter="url(#fduo73lk0qcra)" points="129,656.1404,181,656.1404,193,668.1404,181,680.1404,129,680.1404,117,668.1404,129,656.1404" style="stroke: #000000; stroke-width: 1.5;"/><text fill="#000000" font-family="Roboto Condensed" font-size="11" lengthAdjust="spacingAndGlyphs" textLength="15" x="159" y="691.6667">yes</text><text fill="#000000" font-family="monospace" font-size="11" font-weight="bold" lengthAdjust="spacingAndGlyphs" textLength="7" x="129" y="672.7998">s</text><text fill="#000000" font-family="Roboto Condensed" font-size="11" lengthAdjust="spacingAndGlyphs" textLength="42" x="139" y="672.4131">is empty?</text><text fill="#000000" font-family="Roboto Condensed" font-size="11" lengthAdjust="spacingAndGlyphs" textLength="11" x="193" y="665.1594">no</text><polygon fill="#FFFFFF" filter="url(#fduo73lk0qcra)" points="285,543.2878,416,543.2878,428,555.2878,416,567.2878,285,567.2878,273,555.2878,285,543.2878" style="stroke: #000000; stroke-width: 1.5;"/><text fill="#000000" font-family="Roboto Condensed" font-size="11" lengthAdjust="spacingAndGlyphs" textLength="15" x="354.5" y="578.8142">yes</text><text fill="#000000" filter="url(#bduo73lk0qcra0)" font-family="monospace" font-size="11" font-style="italic" lengthAdjust="spacingAndGlyphs" textLength="84" x="285" y="559.9473">is_number(s)</text><text fill="#000000" font-family="Roboto Condensed" font-size="11" lengthAdjust="spacingAndGlyphs" textLength="8" x="372" y="559.5605">is</text><text fill="#000000" font-family="monospace" font-size="11" lengthAdjust="spacingAndGlyphs" text-decoration="underline" textLength="28" x="383" y="559.9473">TRUE</text><line style="stroke: #000000; stroke-width: 1.0;" x1="383" x2="411" y1="561.9473" y2="561.9473"/><text fill="#000000" font-family="Roboto Condensed" font-size="11" lengthAdjust="spacingAndGlyphs" textLength="5" x="411" y="559.5605">?</text><text fill="#000000" font-family="Roboto Condensed" font-size="11" lengthAdjust="spacingAndGlyphs" textLength="11" x="428" y="552.3069">no</text><rect fill="#FFFFFF" filter="url(#fduo73lk0qcra)" height="35.8262" rx="12.5" ry="12.5" style="stroke: #000000; stroke-width: 1.5;" width="116" x="292.5" y="600.3142"/><text fill="#000000" font-family="Roboto Condensed" font-size="12" lengthAdjust="spacingAndGlyphs" textLength="30" x="302.5" y="622.8884">return</text><text fill="#000000" font-family="monospace" font-size="12" lengthAdjust="spacingAndGlyphs" text-decoration="underline" textLength="63" x="335.5" y="623.3103">GOOD_WORD</text><line style="stroke: #000000; stroke-width: 1.0;" x1="335.5" x2="398.5" y1="625.3103" y2="625.3103"/><ellipse cx="350.5" cy="666.1404" fill="none" filter="url(#fduo73lk0qcra)" rx="10" ry="10" style="stroke: #000000; stroke-width: 1.0;"/><ellipse cx="351" cy="666.6404" fill="#000000" filter="url(#fduo73lk0qcra)" rx="6" ry="6" style="stroke: none; stroke-width: 1.0;"/><rect fill="#FFFFFF" filter="url(#fduo73lk0qcra)" height="472.3806" style="stroke: #000000; stroke-width: 2.0;" width="297" x="129.5" y="853.1011"/><path d="M266.5,854.1011 L266.5,864.5649 L256.5,874.5649 L129.5,874.5649 " fill="none" style="stroke: #000000; stroke-width: 2.0;"/><text fill="#000000" font-family="Roboto Condensed" font-size="14" lengthAdjust="spacingAndGlyphs" textLength="121" x="132.5" y="868.771">handle break patterns</text><rect fill="#87CEEB" filter="url(#fduo73lk0qcra)" height="35.8262" rx="12.5" ry="12.5" style="stroke: #000000; stroke-width: 1.5;" width="221" x="157" y="890.271"/><text fill="#000000" font-family="Roboto Condensed" font-size="12" lengthAdjust="spacingAndGlyphs" textLength="62" x="167" y="912.8452">remove from</text><text fill="#000000" font-family="monospace" font-size="12" font-weight="bold" lengthAdjust="spacingAndGlyphs" textLength="7" x="232" y="913.2671">s</text><text fill="#000000" font-family="Roboto Condensed" font-size="12" lengthAdjust="spacingAndGlyphs" textLength="126" x="242" y="912.8452">global ignored characters</text><rect fill="#FFFFFF" filter="url(#fduo73lk0qcra)" height="35.8262" rx="12.5" ry="12.5" style="stroke: #000000; stroke-width: 1.5;" width="76" x="229.5" y="946.0972"/><text fill="#000000" font-family="Roboto Condensed" font-size="12" lengthAdjust="spacingAndGlyphs" textLength="23" x="239.5" y="968.6714">copy</text><text fill="#000000" font-family="monospace" font-size="12" font-weight="bold" lengthAdjust="spacingAndGlyphs" textLength="7" x="265.5" y="969.0933">s</text><text fill="#000000" font-family="Roboto Condensed" font-size="12" lengthAdjust="spacingAndGlyphs" textLength="10" x="275.5" y="968.6714">to</text><text fill="#000000" font-family="monospace" font-size="12" font-weight="bold" lengthAdjust="spacingAndGlyphs" textLength="7" x="288.5" y="969.0933">c</text><rect fill="#FFFFFF" filter="url(#fduo73lk0qcra)" height="35.8262" rx="12.5" ry="12.5" style="stroke: #000000; stroke-width: 1.5;" width="173" x="181" y="1001.9233"/><text fill="#000000" font-family="Roboto Condensed" font-size="12" lengthAdjust="spacingAndGlyphs" textLength="15" x="191" y="1024.4976">set</text><text fill="#000000" font-family="monospace" font-size="12" font-weight="bold" lengthAdjust="spacingAndGlyphs" textLength="21" x="209" y="1024.9194">ret</text><text fill="#000000" font-family="Roboto Condensed" font-size="12" lengthAdjust="spacingAndGlyphs" textLength="10" x="233" y="1024.4976">to</text><text fill="#000000" filter="url(#bduo73lk0qcra0)" font-family="monospace" font-size="12" font-style="italic" lengthAdjust="spacingAndGlyphs" textLength="98" x="246" y="1024.9194">spell_break(s)</text><rect fill="#FFFFFF" filter="url(#fduo73lk0qcra)" height="35.8262" rx="12.5" ry="12.5" style="stroke: #000000; stroke-width: 1.5;" width="140" x="197.5" y="1107.0032"/><text fill="#000000" font-family="Roboto Condensed" font-size="12" lengthAdjust="spacingAndGlyphs" textLength="49" x="207.5" y="1129.5774">append to</text><text fill="#000000" font-family="monospace" font-size="12" font-weight="bold" lengthAdjust="spacingAndGlyphs" textLength="7" x="259.5" y="1129.9993">s</text><text fill="#000000" font-family="Roboto Condensed" font-size="12" lengthAdjust="spacingAndGlyphs" textLength="48" x="269.5" y="1129.5774">character</text><text fill="#000000" font-family="monospace" font-size="12" lengthAdjust="spacingAndGlyphs" text-decoration="underline" textLength="7" x="320.5" y="1129.9993">.</text><line style="stroke: #000000; stroke-width: 1.0;" x1="320.5" x2="327.5" y1="1131.9993" y2="1131.9993"/><rect fill="#FFFFFF" filter="url(#fduo73lk0qcra)" height="35.8262" rx="12.5" ry="12.5" style="stroke: #000000; stroke-width: 1.5;" width="173" x="181" y="1177.8293"/><text fill="#000000" font-family="Roboto Condensed" font-size="12" lengthAdjust="spacingAndGlyphs" textLength="15" x="191" y="1200.4036">set</text><text fill="#000000" font-family="monospace" font-size="12" font-weight="bold" lengthAdjust="spacingAndGlyphs" textLength="21" x="209" y="1200.8254">ret</text><text fill="#000000" font-family="Roboto Condensed" font-size="12" lengthAdjust="spacingAndGlyphs" textLength="10" x="233" y="1200.4036">to</text><text fill="#000000" filter="url(#bduo73lk0qcra0)" font-family="monospace" font-size="12" font-style="italic" lengthAdjust="spacingAndGlyphs" textLength="98" x="246" y="1200.8254">spell_break(s)</text><polygon fill="#FFFFFF" filter="url(#fduo73lk0qcra)" points="151.5,1057.7495,383.5,1057.7495,395.5,1069.7495,383.5,1081.7495,151.5,1081.7495,139.5,1069.7495,151.5,1057.7495" style="stroke: #000000; stroke-width: 1.5;"/><text fill="#000000" font-family="Roboto Condensed" font-size="11" lengthAdjust="spacingAndGlyphs" textLength="15" x="271.5" y="1093.2759">yes</text><text fill="#000000" font-family="monospace" font-size="11" font-weight="bold" lengthAdjust="spacingAndGlyphs" textLength="21" x="151.5" y="1074.4089">ret</text><text fill="#000000" font-family="Roboto Condensed" font-size="11" lengthAdjust="spacingAndGlyphs" textLength="25" x="175.5" y="1074.0222">is not</text><text fill="#000000" font-family="monospace" font-size="11" lengthAdjust="spacingAndGlyphs" text-decoration="underline" textLength="28" x="203.5" y="1074.4089">TRUE</text><line style="stroke: #000000; stroke-width: 1.0;" x1="203.5" x2="231.5" y1="1076.4089" y2="1076.4089"/><text fill="#000000" font-family="Roboto Condensed" font-size="11" lengthAdjust="spacingAndGlyphs" textLength="15" x="234.5" y="1074.0222">and</text><text fill="#000000" font-family="monospace" font-size="11" font-weight="bold" lengthAdjust="spacingAndGlyphs" textLength="84" x="252.5" y="1074.4089">abbreviation</text><text fill="#000000" font-family="Roboto Condensed" font-size="11" lengthAdjust="spacingAndGlyphs" textLength="8" x="339.5" y="1074.0222">is</text><text fill="#000000" font-family="monospace" font-size="11" lengthAdjust="spacingAndGlyphs" text-decoration="underline" textLength="28" x="350.5" y="1074.4089">TRUE</text><line style="stroke: #000000; stroke-width: 1.0;" x1="350.5" x2="378.5" y1="1076.4089" y2="1076.4089"/><text fill="#000000" font-family="Roboto Condensed" font-size="11" lengthAdjust="spacingAndGlyphs" textLength="5" x="378.5" y="1074.0222">?</text><text fill="#000000" font-family="Roboto Condensed" font-size="11" lengthAdjust="spacingAndGlyphs" textLength="11" x="395.5" y="1066.7686">no</text><polygon fill="#FFFFFF" filter="url(#fduo73lk0qcra)" points="267.5,1233.6555,279.5,1245.6555,267.5,1257.6555,255.5,1245.6555,267.5,1233.6555" style="stroke: #000000; stroke-width: 1.5;"/><rect fill="#FFFFFF" filter="url(#fduo73lk0qcra)" height="35.8262" rx="12.5" ry="12.5" style="stroke: #000000; stroke-width: 1.5;" width="74" x="230.5" y="1277.6555"/><text fill="#000000" font-family="Roboto Condensed" font-size="12" lengthAdjust="spacingAndGlyphs" textLength="30" x="240.5" y="1300.2297">return</text><text fill="#000000" font-family="monospace" font-size="12" font-weight="bold" lengthAdjust="spacingAndGlyphs" textLength="21" x="273.5" y="1300.6516">ret</text><ellipse cx="267.5" cy="1355.4817" fill="none" filter="url(#fduo73lk0qcra)" rx="10" ry="10" style="stroke: #000000; stroke-width: 1.0;"/><ellipse cx="268" cy="1355.9817" fill="#000000" filter="url(#fduo73lk0qcra)" rx="6" ry="6" style="stroke: none; stroke-width: 1.0;"/><line style="stroke: #000000; stroke-width: 1.5;" x1="267.5" x2="267.5" y1="182.5583" y2="209.1453"/><polygon fill="#000000" points="263.5,199.1453,267.5,209.1453,271.5,199.1453,267.5,203.1453" style="stroke: #000000; stroke-width: 1.0;"/><line style="stroke: #000000; stroke-width: 1.5;" x1="267.5" x2="267.5" y1="121.4785" y2="146.7322"/><polygon fill="#000000" points="263.5,136.7322,267.5,146.7322,271.5,136.7322,267.5,140.7322" style="stroke: #000000; stroke-width: 1.0;"/><line style="stroke: #000000; stroke-width: 1.5;" x1="409" x2="421" y1="109.4785" y2="109.4785"/><polygon fill="#000000" points="417,179.1453,421,189.1453,425,179.1453,421,183.1453" style="stroke: #000000; stroke-width: 1.5;"/><line style="stroke: #000000; stroke-width: 1.5;" x1="421" x2="421" y1="109.4785" y2="251.1453"/><line style="stroke: #000000; stroke-width: 1.5;" x1="421" x2="267.5" y1="251.1453" y2="251.1453"/><line style="stroke: #000000; stroke-width: 1.5;" x1="267.5" x2="267.5" y1="251.1453" y2="271.1453"/><polygon fill="#000000" points="263.5,261.1453,267.5,271.1453,271.5,261.1453,267.5,265.1453" style="stroke: #000000; stroke-width: 1.0;"/><line style="stroke: #000000; stroke-width: 1.5;" x1="267.5" x2="267.5" y1="77.4785" y2="97.4785"/><polygon fill="#000000" points="263.5,87.4785,267.5,97.4785,271.5,87.4785,267.5,91.4785" style="stroke: #000000; stroke-width: 1.0;"/><line style="stroke: #000000; stroke-width: 1.5;" x1="78" x2="78" y1="448.2878" y2="483.2878"/><polygon fill="#000000" points="74,473.2878,78,483.2878,82,473.2878,78,477.2878" style="stroke: #000000; stroke-width: 1.0;"/><line style="stroke: #000000; stroke-width: 1.5;" x1="78" x2="78" y1="379.4353" y2="412.4617"/><polygon fill="#000000" points="74,402.4617,78,412.4617,82,402.4617,78,406.4617" style="stroke: #000000; stroke-width: 1.0;"/><line style="stroke: #000000; stroke-width: 1.5;" x1="239" x2="239" y1="379.4353" y2="412.4617"/><polygon fill="#000000" points="235,402.4617,239,412.4617,243,402.4617,239,406.4617" style="stroke: #000000; stroke-width: 1.0;"/><line style="stroke: #000000; stroke-width: 1.5;" x1="239" x2="239" y1="448.2878" y2="523.2878"/><polygon fill="#000000" points="235,513.2878,239,523.2878,243,513.2878,239,517.2878" style="stroke: #000000; stroke-width: 1.0;"/><line style="stroke: #000000; stroke-width: 1.5;" x1="116" x2="180" y1="367.4353" y2="367.4353"/><polygon fill="#000000" points="170,363.4353,180,367.4353,170,371.4353,174,367.4353" style="stroke: #000000; stroke-width: 1.0;"/><line style="stroke: #000000; stroke-width: 1.5;" x1="267.5" x2="267.5" y1="306.9714" y2="340.4353"/><line style="stroke: #000000; stroke-width: 1.5;" x1="267.5" x2="78" y1="340.4353" y2="340.4353"/><line style="stroke: #000000; stroke-width: 1.5;" x1="78" x2="78" y1="340.4353" y2="355.4353"/><polygon fill="#000000" points="74,345.4353,78,355.4353,82,345.4353,78,349.4353" style="stroke: #000000; stroke-width: 1.0;"/><line style="stroke: #000000; stroke-width: 1.5;" x1="298" x2="428.5" y1="367.4353" y2="367.4353"/><line style="stroke: #000000; stroke-width: 1.5;" x1="428.5" x2="428.5" y1="367.4353" y2="435.708"/><polygon fill="#000000" points="424.5,425.708,428.5,435.708,432.5,425.708,428.5,429.708" style="stroke: #000000; stroke-width: 1.0;"/><line style="stroke: #000000; stroke-width: 1.5;" x1="428.5" x2="428.5" y1="471.5342" y2="523.2878"/><polygon fill="#000000" points="424.5,513.2878,428.5,523.2878,432.5,513.2878,428.5,517.2878" style="stroke: #000000; stroke-width: 1.0;"/><line style="stroke: #000000; stroke-width: 1.5;" x1="239" x2="428.5" y1="523.2878" y2="523.2878"/><line style="stroke: #000000; stroke-width: 1.5;" x1="155" x2="155" y1="741.2202" y2="767.8071"/><polygon fill="#000000" points="151,757.8071,155,767.8071,159,757.8071,155,761.8071" style="stroke: #000000; stroke-width: 1.0;"/><line style="stroke: #000000; stroke-width: 1.5;" x1="155" x2="155" y1="680.1404" y2="705.394"/><polygon fill="#000000" points="151,695.394,155,705.394,159,695.394,155,699.394" style="stroke: #000000; stroke-width: 1.0;"/><line style="stroke: #000000; stroke-width: 1.5;" x1="193" x2="223" y1="668.1404" y2="668.1404"/><polygon fill="#000000" points="219,737.8071,223,747.8071,227,737.8071,223,741.8071" style="stroke: #000000; stroke-width: 1.5;"/><line style="stroke: #000000; stroke-width: 1.5;" x1="223" x2="223" y1="668.1404" y2="809.8071"/><line style="stroke: #000000; stroke-width: 1.5;" x1="223" x2="155" y1="809.8071" y2="809.8071"/><line style="stroke: #000000; stroke-width: 1.5;" x1="155" x2="155" y1="809.8071" y2="829.8071"/><polygon fill="#000000" points="151,819.8071,155,829.8071,159,819.8071,155,823.8071" style="stroke: #000000; stroke-width: 1.0;"/><line style="stroke: #000000; stroke-width: 1.5;" x1="155" x2="155" y1="636.1404" y2="656.1404"/><polygon fill="#000000" points="151,646.1404,155,656.1404,159,646.1404,155,650.1404" style="stroke: #000000; stroke-width: 1.0;"/><line style="stroke: #000000; stroke-width: 1.5;" x1="350.5" x2="350.5" y1="636.1404" y2="656.1404"/><polygon fill="#000000" points="346.5,646.1404,350.5,656.1404,354.5,646.1404,350.5,650.1404" style="stroke: #000000; stroke-width: 1.0;"/><line style="stroke: #000000; stroke-width: 1.5;" x1="155" x2="155" y1="567.2878" y2="600.3142"/><polygon fill="#000000" points="151,590.3142,155,600.3142,159,590.3142,155,594.3142" style="stroke: #000000; stroke-width: 1.0;"/><line style="stroke: #000000; stroke-width: 1.5;" x1="350.5" x2="350.5" y1="567.2878" y2="600.3142"/><polygon fill="#000000" points="346.5,590.3142,350.5,600.3142,354.5,590.3142,350.5,594.3142" style="stroke: #000000; stroke-width: 1.0;"/><line style="stroke: #000000; stroke-width: 1.5;" x1="232.5" x2="273" y1="555.2878" y2="555.2878"/><polygon fill="#000000" points="263,551.2878,273,555.2878,263,559.2878,267,555.2878" style="stroke: #000000; stroke-width: 1.0;"/><line style="stroke: #000000; stroke-width: 1.5;" x1="267.5" x2="267.5" y1="523.2878" y2="528.2878"/><line style="stroke: #000000; stroke-width: 1.5;" x1="267.5" x2="155" y1="528.2878" y2="528.2878"/><line style="stroke: #000000; stroke-width: 1.5;" x1="155" x2="155" y1="528.2878" y2="543.2878"/><polygon fill="#000000" points="151,533.2878,155,543.2878,159,533.2878,155,537.2878" style="stroke: #000000; stroke-width: 1.0;"/><line style="stroke: #000000; stroke-width: 1.5;" x1="428" x2="463" y1="555.2878" y2="555.2878"/><line style="stroke: #000000; stroke-width: 1.5;" x1="463" x2="463" y1="555.2878" y2="829.8071"/><polygon fill="#000000" points="459,819.8071,463,829.8071,467,819.8071,463,823.8071" style="stroke: #000000; stroke-width: 1.0;"/><line style="stroke: #000000; stroke-width: 1.5;" x1="155" x2="463" y1="829.8071" y2="829.8071"/><line style="stroke: #000000; stroke-width: 1.5;" x1="267.5" x2="267.5" y1="926.0972" y2="946.0972"/><polygon fill="#000000" points="263.5,936.0972,267.5,946.0972,271.5,936.0972,267.5,940.0972" style="stroke: #000000; stroke-width: 1.0;"/><line style="stroke: #000000; stroke-width: 1.5;" x1="267.5" x2="267.5" y1="981.9233" y2="1001.9233"/><polygon fill="#000000" points="263.5,991.9233,267.5,1001.9233,271.5,991.9233,267.5,995.9233" style="stroke: #000000; stroke-width: 1.0;"/><line style="stroke: #000000; stroke-width: 1.5;" x1="267.5" x2="267.5" y1="1142.8293" y2="1177.8293"/><polygon fill="#000000" points="263.5,1167.8293,267.5,1177.8293,271.5,1167.8293,267.5,1171.8293" style="stroke: #000000; stroke-width: 1.0;"/><line style="stroke: #000000; stroke-width: 1.5;" x1="267.5" x2="267.5" y1="1081.7495" y2="1107.0032"/><polygon fill="#000000" points="263.5,1097.0032,267.5,1107.0032,271.5,1097.0032,267.5,1101.0032" style="stroke: #000000; stroke-width: 1.0;"/><line style="stroke: #000000; stroke-width: 1.5;" x1="395.5" x2="407.5" y1="1069.7495" y2="1069.7495"/><polygon fill="#000000" points="403.5,1150.3293,407.5,1160.3293,411.5,1150.3293,407.5,1154.3293" style="stroke: #000000; stroke-width: 1.5;"/><line style="stroke: #000000; stroke-width: 1.5;" x1="407.5" x2="407.5" y1="1069.7495" y2="1245.6555"/><line style="stroke: #000000; stroke-width: 1.5;" x1="407.5" x2="279.5" y1="1245.6555" y2="1245.6555"/><polygon fill="#000000" points="289.5,1241.6555,279.5,1245.6555,289.5,1249.6555,285.5,1245.6555" style="stroke: #000000; stroke-width: 1.0;"/><line style="stroke: #000000; stroke-width: 1.5;" x1="267.5" x2="267.5" y1="1213.6555" y2="1233.6555"/><polygon fill="#000000" points="263.5,1223.6555,267.5,1233.6555,271.5,1223.6555,267.5,1227.6555" style="stroke: #000000; stroke-width: 1.0;"/><line style="stroke: #000000; stroke-width: 1.5;" x1="267.5" x2="267.5" y1="1037.7495" y2="1057.7495"/><polygon fill="#000000" points="263.5,1047.7495,267.5,1057.7495,271.5,1047.7495,267.5,1051.7495" style="stroke: #000000; stroke-width: 1.0;"/><line style="stroke: #000000; stroke-width: 1.5;" x1="267.5" x2="267.5" y1="1257.6555" y2="1277.6555"/><polygon fill="#000000" points="263.5,1267.6555,267.5,1277.6555,271.5,1267.6555,267.5,1271.6555" style="stroke: #000000; stroke-width: 1.0;"/><line style="stroke: #000000; stroke-width: 1.5;" x1="267.5" x2="267.5" y1="829.8071" y2="890.271"/><polygon fill="#000000" points="263.5,880.271,267.5,890.271,271.5,880.271,267.5,884.271" style="stroke: #000000; stroke-width: 1.0;"/><line style="stroke: #000000; stroke-width: 1.5;" x1="267.5" x2="267.5" y1="1313.4817" y2="1345.4817"/><polygon fill="#000000" points="263.5,1335.4817,267.5,1345.4817,271.5,1335.4817,267.5,1339.4817" style="stroke: #000000; stroke-width: 1.0;"/><!--
@startuml
skinparam BackgroundColor White|White
skinparam ArrowColor Black
skinparam DefaultFontName Roboto Condensed
skinparam TitleFontStyle Bold

skinparam NoteBackgroundColor White
skinparam NoteBorderColor Black

skinparam UsecaseBackgroundColor White
skinparam ActorBackgroundColor White
skinparam UsecaseBorderColor Black
skinparam ActorBorderColor Black

skinparam StateBackgroundColor White
skinparam StateBorderColor Black

skinparam ActivityBackgroundColor White
skinparam ActivityDiamondBackgroundColor White
skinparam ActivityBorderColor Black
skinparam ActivityDiamondBorderColor Black

title Nuspell - Check Spelling - ""spell_priv(string s)""\n

start

if (length **""s""** is greater or equal to global __""WORDMAXLENGTH""__?) then (yes)
    :return __""BAD_WORD""__;
	stop
else (no)
endif

#skyblue:do on **""s""** global input conversion;

partition "handle abbreviations and numbers  " {
    if (**""s""** is empty?) then (yes)
        :return __""GOOD_WORD""__;
	    stop
    elseif (last character **""s""** is __"".""__?) then (yes)
        :set **""abbreviation""** to __""TRUE""__;
    else (no)
        :set **""abbreviation""** to __""FALSE""__;
    endif

    if (**""abbreviation""** is __""TRUE""__?) then (yes)
        :remove from **""s""** trailing characters __"".""__;
        if (**""s""** is empty?) then (yes)
            :return __""GOOD_WORD""__;
	        stop
        else (no)
        endif
    elseif (<back:skyblue>//""is_number(s)""//</back> is __""TRUE""__?) then (yes)
        :return __""GOOD_WORD""__;
	    stop
    else (no)
    endif
} 
partition "handle break patterns  " {
    #skyblue:remove from **""s""** global ignored characters;
    :copy **""s""** to **""c""**;
    :set **""ret""** to <back:skyblue>//""spell_break(s)""//</back>;
    if (**""ret""** is not __""TRUE""__ and **""abbreviation""** is __""TRUE""__?) then (yes)
        :append to **""s""** character __"".""__;
        :set **""ret""** to <back:skyblue>//""spell_break(s)""//</back>;
    else (no)
    endif
    :return **""ret""**;
}

stop

@enduml

PlantUML version 1.2018.06(Mon May 21 12:34:53 CEST 2018)
(GPL source distribution)
Java Runtime: OpenJDK Runtime Environment
JVM: OpenJDK 64-Bit Server VM
Java Version: 10.0.2+13-Ubuntu-1ubuntu0.18.04.1
Operating System: Linux
OS Version: 4.15.0-33-generic
Default Encoding: UTF-8
Language: en
Country: US
--></g></svg>