<?xml version="1.0" encoding="UTF-8" standalone="yes"?><svg xmlns="http://www.w3.org/2000/svg" xmlns:xlink="http://www.w3.org/1999/xlink" height="2284px" style="width:867px;height:2284px;" version="1.1" viewBox="0 0 867 2284" width="867px"><defs><linearGradient id="gr0" x1="0%" x2="100%" y1="50%" y2="50%"><stop offset="0%" stop-color="#FFFFFF"/><stop offset="100%" stop-color="#FFFFFF"/></linearGradient><filter height="300%" id="f1" width="300%" x="-1" y="-1"><feGaussianBlur result="blurOut" stdDeviation="2.0"/><feColorMatrix in="blurOut" result="blurOut2" type="matrix" values="0 0 0 0 0 0 0 0 0 0 0 0 0 0 0 0 0 0 .4 0"/><feOffset dx="4.0" dy="4.0" in="blurOut2" result="blurOut3"/><feBlend in="SourceGraphic" in2="blurOut3" mode="normal"/></filter></defs><g><rect fill="url(#gr0)" height="2284" style="stroke: none; stroke-width: 1.0;" width="867" x="0" y="0"/><text fill="#000000" font-family="sans-serif" font-size="18" lengthAdjust="spacingAndGlyphs" textLength="200" x="335.25" y="26.708">Hunspell - Spell (spell)</text><ellipse cx="605.5" cy="40.9531" fill="#000000" filter="url(#f1)" rx="10" ry="10" style="stroke: none; stroke-width: 1.0;"/><polygon fill="#FEFECE" filter="url(#f1)" points="487.5,70.9531,723.5,70.9531,735.5,82.9531,723.5,94.9531,487.5,94.9531,475.5,82.9531,487.5,70.9531" style="stroke: #A80036; stroke-width: 1.5;"/><text fill="#000000" font-family="sans-serif" font-size="11" lengthAdjust="spacingAndGlyphs" textLength="236" x="487.5" y="86.7612">length of word &gt;= maximum word length</text><text fill="#000000" font-family="sans-serif" font-size="11" lengthAdjust="spacingAndGlyphs" textLength="20" x="455.5" y="80.3589">yes</text><text fill="#000000" font-family="sans-serif" font-size="11" lengthAdjust="spacingAndGlyphs" textLength="14" x="735.5" y="80.3589">no</text><rect fill="#FEFECE" filter="url(#f1)" height="33.9688" rx="12.5" ry="12.5" style="stroke: #A80036; stroke-width: 1.5;" width="100" x="415.5" y="104.9531"/><text fill="#000000" font-family="sans-serif" font-size="12" lengthAdjust="spacingAndGlyphs" textLength="80" x="425.5" y="126.0918">return FALSE</text><ellipse cx="465.5" cy="171.4375" fill="none" filter="url(#f1)" rx="10" ry="10" style="stroke: #000000; stroke-width: 1.0;"/><ellipse cx="466" cy="171.9375" fill="#000000" filter="url(#f1)" rx="6" ry="6" style="stroke: none; stroke-width: 1.0;"/><rect fill="#FFFFFF" filter="url(#f1)" height="834.3125" style="stroke: #000000; stroke-width: 2.0;" width="723.8125" x="85.6875" y="192.2393"/><path d="M213.6875,193.2393 L213.6875,201.5361 L203.6875,211.5361 L85.6875,211.5361 " fill="#FFFFFF" style="stroke: #000000; stroke-width: 2.0;"/><text fill="#000000" font-family="sans-serif" font-size="14" lengthAdjust="spacingAndGlyphs" textLength="118" x="88.6875" y="206.2344">input conversion</text><polygon fill="#FEFECE" filter="url(#f1)" points="547,228.5361,664,228.5361,676,240.5361,664,252.5361,547,252.5361,535,240.5361,547,228.5361" style="stroke: #A80036; stroke-width: 1.5;"/><text fill="#000000" font-family="sans-serif" font-size="11" lengthAdjust="spacingAndGlyphs" textLength="117" x="547" y="244.3442">affix manager exists</text><text fill="#000000" font-family="sans-serif" font-size="11" lengthAdjust="spacingAndGlyphs" textLength="20" x="515" y="237.9419">yes</text><text fill="#000000" font-family="sans-serif" font-size="11" lengthAdjust="spacingAndGlyphs" textLength="14" x="676" y="237.9419">no</text><rect fill="#FEFECE" filter="url(#f1)" height="33.9688" rx="12.5" ry="12.5" style="stroke: #A80036; stroke-width: 1.5;" width="285" x="362.8125" y="262.5361"/><text fill="#000000" font-family="sans-serif" font-size="12" lengthAdjust="spacingAndGlyphs" textLength="265" x="372.8125" y="283.6748">get input conversion list from affix manager</text><polygon fill="#FEFECE" filter="url(#f1)" points="429.8125,331.5049,580.8125,331.5049,592.8125,343.5049,580.8125,355.5049,429.8125,355.5049,417.8125,343.5049,429.8125,331.5049" style="stroke: #A80036; stroke-width: 1.5;"/><text fill="#000000" font-family="sans-serif" font-size="11" lengthAdjust="spacingAndGlyphs" textLength="151" x="429.8125" y="347.313">input conversion list exists</text><text fill="#000000" font-family="sans-serif" font-size="11" lengthAdjust="spacingAndGlyphs" textLength="20" x="397.8125" y="340.9106">yes</text><text fill="#000000" font-family="sans-serif" font-size="11" lengthAdjust="spacingAndGlyphs" textLength="14" x="592.8125" y="340.9106">no</text><rect fill="#FEFECE" filter="url(#f1)" height="33.9688" rx="12.5" ry="12.5" style="stroke: #A80036; stroke-width: 1.5;" width="226" x="251.9375" y="365.5049"/><text fill="#000000" font-family="sans-serif" font-size="12" lengthAdjust="spacingAndGlyphs" textLength="206" x="261.9375" y="386.6436">perform input conversion on word</text><polygon fill="#FEFECE" filter="url(#f1)" points="276.4375,434.4736,453.4375,434.4736,465.4375,446.4736,453.4375,458.4736,276.4375,458.4736,264.4375,446.4736,276.4375,434.4736" style="stroke: #A80036; stroke-width: 1.5;"/><text fill="#000000" font-family="sans-serif" font-size="11" lengthAdjust="spacingAndGlyphs" textLength="177" x="276.4375" y="450.2817">input conversion changes word</text><text fill="#000000" font-family="sans-serif" font-size="11" lengthAdjust="spacingAndGlyphs" textLength="20" x="244.4375" y="443.8794">yes</text><text fill="#000000" font-family="sans-serif" font-size="11" lengthAdjust="spacingAndGlyphs" textLength="14" x="465.4375" y="443.8794">no</text><rect fill="#FEFECE" filter="url(#f1)" height="75.875" rx="12.5" ry="12.5" style="stroke: #A80036; stroke-width: 1.5;" width="231" x="125.6875" y="468.4736"/><text fill="#000000" font-family="sans-serif" font-size="12" lengthAdjust="spacingAndGlyphs" textLength="211" x="135.6875" y="489.6123">clean converted word and store in:</text><text fill="#000000" font-family="sans-serif" font-size="12" lengthAdjust="spacingAndGlyphs" textLength="89" x="135.6875" y="503.5811">- cleaned word</text><text fill="#000000" font-family="sans-serif" font-size="12" lengthAdjust="spacingAndGlyphs" textLength="118" x="135.6875" y="517.5498">- capitalization type</text><text fill="#000000" font-family="sans-serif" font-size="12" lengthAdjust="spacingAndGlyphs" textLength="79" x="135.6875" y="531.5186">- abbr. count</text><rect fill="#FEFECE" filter="url(#f1)" height="75.875" rx="12.5" ry="12.5" style="stroke: #A80036; stroke-width: 1.5;" width="224" x="376.6875" y="468.4736"/><text fill="#000000" font-family="sans-serif" font-size="12" lengthAdjust="spacingAndGlyphs" textLength="204" x="386.6875" y="489.6123">clean (original) word and store in:</text><text fill="#000000" font-family="sans-serif" font-size="12" lengthAdjust="spacingAndGlyphs" textLength="89" x="386.6875" y="503.5811">- cleaned word</text><text fill="#000000" font-family="sans-serif" font-size="12" lengthAdjust="spacingAndGlyphs" textLength="118" x="386.6875" y="517.5498">- capitalization type</text><text fill="#000000" font-family="sans-serif" font-size="12" lengthAdjust="spacingAndGlyphs" textLength="79" x="386.6875" y="531.5186">- abbr. count</text><polygon fill="#FEFECE" filter="url(#f1)" points="364.9375,550.3486,376.9375,562.3486,364.9375,574.3486,352.9375,562.3486,364.9375,550.3486" style="stroke: #A80036; stroke-width: 1.5;"/><polygon fill="#FEFECE" filter="url(#f1)" points="505.3125,580.3486,517.3125,592.3486,505.3125,604.3486,493.3125,592.3486,505.3125,580.3486" style="stroke: #A80036; stroke-width: 1.5;"/><polygon fill="#FEFECE" filter="url(#f1)" points="605.5,610.3486,617.5,622.3486,605.5,634.3486,593.5,622.3486,605.5,610.3486" style="stroke: #A80036; stroke-width: 1.5;"/><polygon fill="#FEFECE" filter="url(#f1)" points="563,669.3486,648,669.3486,660,681.3486,648,693.3486,563,693.3486,551,681.3486,563,669.3486" style="stroke: #A80036; stroke-width: 1.5;"/><text fill="#000000" font-family="sans-serif" font-size="11" lengthAdjust="spacingAndGlyphs" textLength="85" x="563" y="685.1567">client is Mozilla</text><text fill="#000000" font-family="sans-serif" font-size="11" lengthAdjust="spacingAndGlyphs" textLength="20" x="531" y="678.7544">yes</text><text fill="#000000" font-family="sans-serif" font-size="11" lengthAdjust="spacingAndGlyphs" textLength="14" x="660" y="678.7544">no</text><rect fill="#FEFECE" filter="url(#f1)" height="33.9688" rx="12.5" ry="12.5" style="stroke: #A80036; stroke-width: 1.5;" width="141" x="470.5" y="703.3486"/><text fill="#000000" font-family="sans-serif" font-size="12" lengthAdjust="spacingAndGlyphs" textLength="121" x="480.5" y="724.4873">set abbr. count to 1</text><polygon fill="#FEFECE" filter="url(#f1)" points="605.5,743.3174,617.5,755.3174,605.5,767.3174,593.5,755.3174,605.5,743.3174" style="stroke: #A80036; stroke-width: 1.5;"/><polygon fill="#FEFECE" filter="url(#f1)" points="458.5,802.3174,752.5,802.3174,764.5,814.3174,752.5,826.3174,458.5,826.3174,446.5,814.3174,458.5,802.3174" style="stroke: #A80036; stroke-width: 1.5;"/><text fill="#000000" font-family="sans-serif" font-size="11" lengthAdjust="spacingAndGlyphs" textLength="294" x="458.5" y="818.1255">cleaned word length is 0 or hash manager is empty</text><text fill="#000000" font-family="sans-serif" font-size="11" lengthAdjust="spacingAndGlyphs" textLength="20" x="426.5" y="811.7231">yes</text><text fill="#000000" font-family="sans-serif" font-size="11" lengthAdjust="spacingAndGlyphs" textLength="14" x="764.5" y="811.7231">no</text><rect fill="#FEFECE" filter="url(#f1)" height="33.9688" rx="12.5" ry="12.5" style="stroke: #A80036; stroke-width: 1.5;" width="94" x="389.5" y="836.3174"/><text fill="#000000" font-family="sans-serif" font-size="12" lengthAdjust="spacingAndGlyphs" textLength="74" x="399.5" y="857.4561">return TRUE</text><ellipse cx="436.5" cy="915.2861" fill="none" filter="url(#f1)" rx="10" ry="10" style="stroke: #000000; stroke-width: 1.0;"/><ellipse cx="437" cy="915.7861" fill="#000000" filter="url(#f1)" rx="6" ry="6" style="stroke: none; stroke-width: 1.0;"/><polygon fill="#FBFB77" filter="url(#f1)" points="396,966.2861,396,1006.5518,542,1006.5518,542,976.2861,532,966.2861,396,966.2861" style="stroke: #A80036; stroke-width: 1.0;"/><polygon fill="#FBFB77" points="396,966.2861,396,1006.5518,542,1006.5518,542,990.4189,562,986.4189,542,982.4189,542,976.2861,532,966.2861,396,966.2861" style="stroke: #A80036; stroke-width: 1.0;"/><line style="stroke: #A80036; stroke-width: 1.0;" x1="532" x2="532" y1="966.2861" y2="976.2861"/><line style="stroke: #A80036; stroke-width: 1.0;" x1="542" x2="532" y1="976.2861" y2="976.2861"/><text fill="#000000" font-family="sans-serif" font-size="13" lengthAdjust="spacingAndGlyphs" textLength="92" x="402" y="983.353">can this move</text><text fill="#000000" font-family="sans-serif" font-size="13" lengthAdjust="spacingAndGlyphs" textLength="125" x="402" y="998.4858">up to initialization?</text><rect fill="#FEFECE" filter="url(#f1)" height="33.9688" rx="12.5" ry="12.5" style="stroke: #A80036; stroke-width: 1.5;" width="87" x="562" y="969.4346"/><text fill="#000000" font-family="sans-serif" font-size="12" lengthAdjust="spacingAndGlyphs" textLength="67" x="572" y="990.5732">empty root</text><rect fill="#FFFFFF" filter="url(#f1)" height="260.5313" style="stroke: #000000; stroke-width: 2.0;" width="419" x="306.5" y="1037.3535"/><path d="M411.5,1038.3535 L411.5,1046.6504 L401.5,1056.6504 L306.5,1056.6504 " fill="#FFFFFF" style="stroke: #000000; stroke-width: 2.0;"/><text fill="#000000" font-family="sans-serif" font-size="14" lengthAdjust="spacingAndGlyphs" textLength="95" x="309.5" y="1051.3486">number state</text><rect fill="#FEFECE" filter="url(#f1)" height="33.9688" rx="12.5" ry="12.5" style="stroke: #A80036; stroke-width: 1.5;" width="168" x="521.5" y="1073.6504"/><text fill="#000000" font-family="sans-serif" font-size="12" lengthAdjust="spacingAndGlyphs" textLength="148" x="531.5" y="1094.7891">determine number state</text><polygon fill="#FEFECE" filter="url(#f1)" points="542.5,1142.6191,668.5,1142.6191,680.5,1154.6191,668.5,1166.6191,542.5,1166.6191,530.5,1154.6191,542.5,1142.6191" style="stroke: #A80036; stroke-width: 1.5;"/><text fill="#000000" font-family="sans-serif" font-size="11" lengthAdjust="spacingAndGlyphs" textLength="126" x="542.5" y="1158.4272">number state is NNUM</text><text fill="#000000" font-family="sans-serif" font-size="11" lengthAdjust="spacingAndGlyphs" textLength="20" x="510.5" y="1152.0249">yes</text><text fill="#000000" font-family="sans-serif" font-size="11" lengthAdjust="spacingAndGlyphs" textLength="14" x="680.5" y="1152.0249">no</text><polygon fill="#FBFB77" filter="url(#f1)" points="326.5,1176.6191,326.5,1216.8848,453.5,1216.8848,453.5,1186.6191,443.5,1176.6191,326.5,1176.6191" style="stroke: #A80036; stroke-width: 1.0;"/><polygon fill="#FBFB77" points="326.5,1176.6191,326.5,1216.8848,453.5,1216.8848,453.5,1200.752,473.5,1196.752,453.5,1192.752,453.5,1186.6191,443.5,1176.6191,326.5,1176.6191" style="stroke: #A80036; stroke-width: 1.0;"/><line style="stroke: #A80036; stroke-width: 1.0;" x1="443.5" x2="443.5" y1="1176.6191" y2="1186.6191"/><line style="stroke: #A80036; stroke-width: 1.0;" x1="453.5" x2="443.5" y1="1186.6191" y2="1186.6191"/><text fill="#000000" font-family="sans-serif" font-size="13" lengthAdjust="spacingAndGlyphs" textLength="89" x="332.5" y="1193.686">word consists</text><text fill="#000000" font-family="sans-serif" font-size="13" lengthAdjust="spacingAndGlyphs" textLength="106" x="332.5" y="1208.8188">of only numbers</text><rect fill="#FEFECE" filter="url(#f1)" height="33.9688" rx="12.5" ry="12.5" style="stroke: #A80036; stroke-width: 1.5;" width="94" x="473.5" y="1179.7676"/><text fill="#000000" font-family="sans-serif" font-size="12" lengthAdjust="spacingAndGlyphs" textLength="74" x="483.5" y="1200.9063">return TRUE</text><ellipse cx="520.5" cy="1261.8848" fill="none" filter="url(#f1)" rx="10" ry="10" style="stroke: #000000; stroke-width: 1.0;"/><ellipse cx="521" cy="1262.3848" fill="#000000" filter="url(#f1)" rx="6" ry="6" style="stroke: none; stroke-width: 1.0;"/><rect fill="#FFFFFF" filter="url(#f1)" height="874.9844" style="stroke: #000000; stroke-width: 2.0;" width="850.5" x="10" y="1308.6865"/><path d="M101,1309.6865 L101,1317.9834 L91,1327.9834 L10,1327.9834 " fill="#FFFFFF" style="stroke: #000000; stroke-width: 2.0;"/><text fill="#000000" font-family="sans-serif" font-size="14" lengthAdjust="spacingAndGlyphs" textLength="81" x="13" y="1322.6816">check word</text><polygon fill="#FEFECE" filter="url(#f1)" points="407.5,1344.9834,803.5,1344.9834,815.5,1356.9834,803.5,1368.9834,407.5,1368.9834,395.5,1356.9834,407.5,1344.9834" style="stroke: #A80036; stroke-width: 1.5;"/><text fill="#000000" font-family="sans-serif" font-size="11" lengthAdjust="spacingAndGlyphs" textLength="396" x="407.5" y="1360.7915">cleaned word is in lower case, lower camel case or upper camel case</text><text fill="#000000" font-family="sans-serif" font-size="11" lengthAdjust="spacingAndGlyphs" textLength="20" x="375.5" y="1354.3892">yes</text><polygon fill="#FEFECE" filter="url(#f1)" points="222,1378.9834,549,1378.9834,561,1390.9834,549,1402.9834,222,1402.9834,210,1390.9834,222,1378.9834" style="stroke: #A80036; stroke-width: 1.5;"/><text fill="#000000" font-family="sans-serif" font-size="11" lengthAdjust="spacingAndGlyphs" textLength="327" x="222" y="1394.7915">cleaned word is in lower camel case or upper camel case</text><text fill="#000000" font-family="sans-serif" font-size="11" lengthAdjust="spacingAndGlyphs" textLength="20" x="190" y="1388.3892">yes</text><text fill="#000000" font-family="sans-serif" font-size="11" lengthAdjust="spacingAndGlyphs" textLength="14" x="561" y="1388.3892">no</text><rect fill="#FEFECE" filter="url(#f1)" height="33.9688" rx="12.5" ry="12.5" style="stroke: #A80036; stroke-width: 1.5;" width="185" x="107.5" y="1412.9834"/><text fill="#000000" font-family="sans-serif" font-size="12" lengthAdjust="spacingAndGlyphs" textLength="165" x="117.5" y="1434.1221">add SPELL_ORIGCAP to info</text><polygon fill="#FEFECE" filter="url(#f1)" points="385.5,1452.9521,397.5,1464.9521,385.5,1476.9521,373.5,1464.9521,385.5,1452.9521" style="stroke: #A80036; stroke-width: 1.5;"/><rect fill="#FEFECE" filter="url(#f1)" height="47.9375" rx="12.5" ry="12.5" style="stroke: #A80036; stroke-width: 1.5;" width="245" x="263" y="1511.9521"/><text fill="#000000" font-family="sans-serif" font-size="12" lengthAdjust="spacingAndGlyphs" textLength="98" x="273" y="1533.0908">set root value to</text><text fill="#000000" font-family="sans-serif" font-size="12" lengthAdjust="spacingAndGlyphs" textLength="225" x="273" y="1547.0596">check_word(cleaned word, info, root)</text><polygon fill="#FEFECE" filter="url(#f1)" points="270,1594.8896,501,1594.8896,513,1606.8896,501,1618.8896,270,1618.8896,258,1606.8896,270,1594.8896" style="stroke: #A80036; stroke-width: 1.5;"/><text fill="#000000" font-family="sans-serif" font-size="11" lengthAdjust="spacingAndGlyphs" textLength="231" x="270" y="1610.6978">abbr. count &gt; 0 and no root value exists</text><text fill="#000000" font-family="sans-serif" font-size="11" lengthAdjust="spacingAndGlyphs" textLength="20" x="238" y="1604.2954">yes</text><text fill="#000000" font-family="sans-serif" font-size="11" lengthAdjust="spacingAndGlyphs" textLength="14" x="513" y="1604.2954">no</text><rect fill="#FEFECE" filter="url(#f1)" height="47.9375" rx="12.5" ry="12.5" style="stroke: #A80036; stroke-width: 1.5;" width="416" x="40" y="1628.8896"/><text fill="#000000" font-family="sans-serif" font-size="12" lengthAdjust="spacingAndGlyphs" textLength="98" x="50" y="1650.0283">set root value to</text><text fill="#000000" font-family="sans-serif" font-size="12" lengthAdjust="spacingAndGlyphs" textLength="396" x="50" y="1663.9971">check_word(cleaned word with period '.' added at end, info, root)</text><polygon fill="#FEFECE" filter="url(#f1)" points="385.5,1682.8271,397.5,1694.8271,385.5,1706.8271,373.5,1694.8271,385.5,1682.8271" style="stroke: #A80036; stroke-width: 1.5;"/><polygon fill="#FEFECE" filter="url(#f1)" points="605.5,1712.8271,617.5,1724.8271,605.5,1736.8271,593.5,1724.8271,605.5,1712.8271" style="stroke: #A80036; stroke-width: 1.5;"/><polygon fill="#FEFECE" filter="url(#f1)" points="520.5,1771.8271,690.5,1771.8271,702.5,1783.8271,690.5,1795.8271,520.5,1795.8271,508.5,1783.8271,520.5,1771.8271" style="stroke: #A80036; stroke-width: 1.5;"/><text fill="#000000" font-family="sans-serif" font-size="11" lengthAdjust="spacingAndGlyphs" textLength="170" x="520.5" y="1787.6353">cleaned word is in upper case</text><text fill="#000000" font-family="sans-serif" font-size="11" lengthAdjust="spacingAndGlyphs" textLength="20" x="488.5" y="1781.2329">yes</text><text fill="#000000" font-family="sans-serif" font-size="11" lengthAdjust="spacingAndGlyphs" textLength="14" x="702.5" y="1781.2329">no</text><rect fill="#FEFECE" filter="url(#f1)" height="33.9688" rx="12.5" ry="12.5" style="stroke: #A80036; stroke-width: 1.5;" width="185" x="406" y="1805.8271"/><text fill="#000000" font-family="sans-serif" font-size="12" lengthAdjust="spacingAndGlyphs" textLength="165" x="416" y="1826.9658">add SPELL_ORIGCAP to info</text><rect fill="#FEFECE" filter="url(#f1)" height="47.9375" rx="12.5" ry="12.5" style="stroke: #A80036; stroke-width: 1.5;" width="245" x="376" y="1874.7959"/><text fill="#000000" font-family="sans-serif" font-size="12" lengthAdjust="spacingAndGlyphs" textLength="98" x="386" y="1895.9346">set root value to</text><text fill="#000000" font-family="sans-serif" font-size="12" lengthAdjust="spacingAndGlyphs" textLength="225" x="386" y="1909.9033">check_word(cleaned word, info, root)</text><polygon fill="#FEFECE" filter="url(#f1)" points="427.5,1957.7334,569.5,1957.7334,581.5,1969.7334,569.5,1981.7334,427.5,1981.7334,415.5,1969.7334,427.5,1957.7334" style="stroke: #A80036; stroke-width: 1.5;"/><text fill="#000000" font-family="sans-serif" font-size="11" lengthAdjust="spacingAndGlyphs" textLength="142" x="427.5" y="1973.5415">root value does not exist</text><text fill="#000000" font-family="sans-serif" font-size="11" lengthAdjust="spacingAndGlyphs" textLength="20" x="395.5" y="1967.1392">yes</text><text fill="#000000" font-family="sans-serif" font-size="11" lengthAdjust="spacingAndGlyphs" textLength="14" x="581.5" y="1967.1392">no</text><polygon fill="#FEFECE" filter="url(#f1)" points="361,1991.7334,450,1991.7334,462,2003.7334,450,2015.7334,361,2015.7334,349,2003.7334,361,1991.7334" style="stroke: #A80036; stroke-width: 1.5;"/><text fill="#000000" font-family="sans-serif" font-size="11" lengthAdjust="spacingAndGlyphs" textLength="89" x="361" y="2007.5415">abbr. count &gt; 0</text><text fill="#000000" font-family="sans-serif" font-size="11" lengthAdjust="spacingAndGlyphs" textLength="20" x="329" y="2001.1392">yes</text><text fill="#000000" font-family="sans-serif" font-size="11" lengthAdjust="spacingAndGlyphs" textLength="14" x="462" y="2001.1392">no</text><rect fill="#FEFECE" filter="url(#f1)" height="47.9375" rx="12.5" ry="12.5" style="stroke: #A80036; stroke-width: 1.5;" width="416" x="76" y="2025.7334"/><text fill="#000000" font-family="sans-serif" font-size="12" lengthAdjust="spacingAndGlyphs" textLength="98" x="86" y="2046.8721">set root value to</text><text fill="#000000" font-family="sans-serif" font-size="12" lengthAdjust="spacingAndGlyphs" textLength="396" x="86" y="2060.8408">check_word(cleaned word with period '.' added at end, info, root)</text><polygon fill="#FEFECE" filter="url(#f1)" points="405.5,2079.6709,417.5,2091.6709,405.5,2103.6709,393.5,2091.6709,405.5,2079.6709" style="stroke: #A80036; stroke-width: 1.5;"/><polygon fill="#FEFECE" filter="url(#f1)" points="498.5,2109.6709,510.5,2121.6709,498.5,2133.6709,486.5,2121.6709,498.5,2109.6709" style="stroke: #A80036; stroke-width: 1.5;"/><polygon fill="#FEFECE" filter="url(#f1)" points="605.5,2139.6709,617.5,2151.6709,605.5,2163.6709,593.5,2151.6709,605.5,2139.6709" style="stroke: #A80036; stroke-width: 1.5;"/><rect fill="#FEFECE" filter="url(#f1)" height="33.9688" rx="12.5" ry="12.5" style="stroke: #A80036; stroke-width: 1.5;" width="100" x="555.5" y="2203.6709"/><text fill="#000000" font-family="sans-serif" font-size="12" lengthAdjust="spacingAndGlyphs" textLength="80" x="565.5" y="2224.8096">return FALSE</text><ellipse cx="605.5" cy="2267.6396" fill="none" filter="url(#f1)" rx="10" ry="10" style="stroke: #000000; stroke-width: 1.0;"/><ellipse cx="606" cy="2268.1396" fill="#000000" filter="url(#f1)" rx="6" ry="6" style="stroke: none; stroke-width: 1.0;"/><line style="stroke: #A80036; stroke-width: 1.5;" x1="465.5" x2="465.5" y1="138.9219" y2="161.4375"/><polygon fill="#A80036" points="461.5,151.4375,465.5,161.4375,469.5,151.4375,465.5,155.4375" style="stroke: #A80036; stroke-width: 1.0;"/><line style="stroke: #A80036; stroke-width: 1.5;" x1="475.5" x2="465.5" y1="82.9531" y2="82.9531"/><line style="stroke: #A80036; stroke-width: 1.5;" x1="465.5" x2="465.5" y1="82.9531" y2="104.9531"/><polygon fill="#A80036" points="461.5,94.9531,465.5,104.9531,469.5,94.9531,465.5,98.9531" style="stroke: #A80036; stroke-width: 1.0;"/><line style="stroke: #A80036; stroke-width: 1.5;" x1="735.5" x2="745.5" y1="82.9531" y2="82.9531"/><polygon fill="#A80036" points="741.5,131.4375,745.5,141.4375,749.5,131.4375,745.5,135.4375" style="stroke: #A80036; stroke-width: 1.5;"/><line style="stroke: #A80036; stroke-width: 1.5;" x1="745.5" x2="745.5" y1="82.9531" y2="186.4375"/><line style="stroke: #A80036; stroke-width: 1.5;" x1="745.5" x2="605.5" y1="186.4375" y2="186.4375"/><line style="stroke: #A80036; stroke-width: 1.5;" x1="605.5" x2="605.5" y1="186.4375" y2="228.5361"/><polygon fill="#A80036" points="601.5,218.5361,605.5,228.5361,609.5,218.5361,605.5,222.5361" style="stroke: #A80036; stroke-width: 1.0;"/><line style="stroke: #A80036; stroke-width: 1.5;" x1="605.5" x2="605.5" y1="50.9531" y2="70.9531"/><polygon fill="#A80036" points="601.5,60.9531,605.5,70.9531,609.5,60.9531,605.5,64.9531" style="stroke: #A80036; stroke-width: 1.0;"/><line style="stroke: #A80036; stroke-width: 1.5;" x1="264.4375" x2="241.1875" y1="446.4736" y2="446.4736"/><line style="stroke: #A80036; stroke-width: 1.5;" x1="241.1875" x2="241.1875" y1="446.4736" y2="468.4736"/><polygon fill="#A80036" points="237.1875,458.4736,241.1875,468.4736,245.1875,458.4736,241.1875,462.4736" style="stroke: #A80036; stroke-width: 1.0;"/><line style="stroke: #A80036; stroke-width: 1.5;" x1="465.4375" x2="488.6875" y1="446.4736" y2="446.4736"/><line style="stroke: #A80036; stroke-width: 1.5;" x1="488.6875" x2="488.6875" y1="446.4736" y2="468.4736"/><polygon fill="#A80036" points="484.6875,458.4736,488.6875,468.4736,492.6875,458.4736,488.6875,462.4736" style="stroke: #A80036; stroke-width: 1.0;"/><line style="stroke: #A80036; stroke-width: 1.5;" x1="241.1875" x2="241.1875" y1="544.3486" y2="562.3486"/><line style="stroke: #A80036; stroke-width: 1.5;" x1="241.1875" x2="352.9375" y1="562.3486" y2="562.3486"/><polygon fill="#A80036" points="342.9375,558.3486,352.9375,562.3486,342.9375,566.3486,346.9375,562.3486" style="stroke: #A80036; stroke-width: 1.0;"/><line style="stroke: #A80036; stroke-width: 1.5;" x1="488.6875" x2="488.6875" y1="544.3486" y2="562.3486"/><line style="stroke: #A80036; stroke-width: 1.5;" x1="488.6875" x2="376.9375" y1="562.3486" y2="562.3486"/><polygon fill="#A80036" points="386.9375,558.3486,376.9375,562.3486,386.9375,566.3486,382.9375,562.3486" style="stroke: #A80036; stroke-width: 1.0;"/><line style="stroke: #A80036; stroke-width: 1.5;" x1="364.9375" x2="364.9375" y1="399.4736" y2="434.4736"/><polygon fill="#A80036" points="360.9375,424.4736,364.9375,434.4736,368.9375,424.4736,364.9375,428.4736" style="stroke: #A80036; stroke-width: 1.0;"/><line style="stroke: #A80036; stroke-width: 1.5;" x1="417.8125" x2="364.9375" y1="343.5049" y2="343.5049"/><line style="stroke: #A80036; stroke-width: 1.5;" x1="364.9375" x2="364.9375" y1="343.5049" y2="365.5049"/><polygon fill="#A80036" points="360.9375,355.5049,364.9375,365.5049,368.9375,355.5049,364.9375,359.5049" style="stroke: #A80036; stroke-width: 1.0;"/><line style="stroke: #A80036; stroke-width: 1.5;" x1="592.8125" x2="645.6875" y1="343.5049" y2="343.5049"/><polygon fill="#A80036" points="641.6875,457.9268,645.6875,467.9268,649.6875,457.9268,645.6875,461.9268" style="stroke: #A80036; stroke-width: 1.5;"/><line style="stroke: #A80036; stroke-width: 1.5;" x1="645.6875" x2="645.6875" y1="343.5049" y2="592.3486"/><line style="stroke: #A80036; stroke-width: 1.5;" x1="645.6875" x2="517.3125" y1="592.3486" y2="592.3486"/><polygon fill="#A80036" points="527.3125,588.3486,517.3125,592.3486,527.3125,596.3486,523.3125,592.3486" style="stroke: #A80036; stroke-width: 1.0;"/><line style="stroke: #A80036; stroke-width: 1.5;" x1="364.9375" x2="364.9375" y1="574.3486" y2="592.3486"/><line style="stroke: #A80036; stroke-width: 1.5;" x1="364.9375" x2="493.3125" y1="592.3486" y2="592.3486"/><polygon fill="#A80036" points="483.3125,588.3486,493.3125,592.3486,483.3125,596.3486,487.3125,592.3486" style="stroke: #A80036; stroke-width: 1.0;"/><line style="stroke: #A80036; stroke-width: 1.5;" x1="505.3125" x2="505.3125" y1="296.5049" y2="331.5049"/><polygon fill="#A80036" points="501.3125,321.5049,505.3125,331.5049,509.3125,321.5049,505.3125,325.5049" style="stroke: #A80036; stroke-width: 1.0;"/><line style="stroke: #A80036; stroke-width: 1.5;" x1="535" x2="505.3125" y1="240.5361" y2="240.5361"/><line style="stroke: #A80036; stroke-width: 1.5;" x1="505.3125" x2="505.3125" y1="240.5361" y2="262.5361"/><polygon fill="#A80036" points="501.3125,252.5361,505.3125,262.5361,509.3125,252.5361,505.3125,256.5361" style="stroke: #A80036; stroke-width: 1.0;"/><line style="stroke: #A80036; stroke-width: 1.5;" x1="676" x2="705.6875" y1="240.5361" y2="240.5361"/><polygon fill="#A80036" points="701.6875,421.4424,705.6875,431.4424,709.6875,421.4424,705.6875,425.4424" style="stroke: #A80036; stroke-width: 1.5;"/><line style="stroke: #A80036; stroke-width: 1.5;" x1="705.6875" x2="705.6875" y1="240.5361" y2="622.3486"/><line style="stroke: #A80036; stroke-width: 1.5;" x1="705.6875" x2="617.5" y1="622.3486" y2="622.3486"/><polygon fill="#A80036" points="627.5,618.3486,617.5,622.3486,627.5,626.3486,623.5,622.3486" style="stroke: #A80036; stroke-width: 1.0;"/><line style="stroke: #A80036; stroke-width: 1.5;" x1="505.3125" x2="505.3125" y1="604.3486" y2="622.3486"/><line style="stroke: #A80036; stroke-width: 1.5;" x1="505.3125" x2="593.5" y1="622.3486" y2="622.3486"/><polygon fill="#A80036" points="583.5,618.3486,593.5,622.3486,583.5,626.3486,587.5,622.3486" style="stroke: #A80036; stroke-width: 1.0;"/><line style="stroke: #A80036; stroke-width: 1.5;" x1="551" x2="541" y1="681.3486" y2="681.3486"/><line style="stroke: #A80036; stroke-width: 1.5;" x1="541" x2="541" y1="681.3486" y2="703.3486"/><polygon fill="#A80036" points="537,693.3486,541,703.3486,545,693.3486,541,697.3486" style="stroke: #A80036; stroke-width: 1.0;"/><line style="stroke: #A80036; stroke-width: 1.5;" x1="660" x2="670" y1="681.3486" y2="681.3486"/><polygon fill="#A80036" points="666,708.333,670,718.333,674,708.333,670,712.333" style="stroke: #A80036; stroke-width: 1.5;"/><line style="stroke: #A80036; stroke-width: 1.5;" x1="670" x2="670" y1="681.3486" y2="755.3174"/><line style="stroke: #A80036; stroke-width: 1.5;" x1="670" x2="617.5" y1="755.3174" y2="755.3174"/><polygon fill="#A80036" points="627.5,751.3174,617.5,755.3174,627.5,759.3174,623.5,755.3174" style="stroke: #A80036; stroke-width: 1.0;"/><line style="stroke: #A80036; stroke-width: 1.5;" x1="541" x2="541" y1="737.3174" y2="755.3174"/><line style="stroke: #A80036; stroke-width: 1.5;" x1="541" x2="593.5" y1="755.3174" y2="755.3174"/><polygon fill="#A80036" points="583.5,751.3174,593.5,755.3174,583.5,759.3174,587.5,755.3174" style="stroke: #A80036; stroke-width: 1.0;"/><line style="stroke: #A80036; stroke-width: 1.5;" x1="605.5" x2="605.5" y1="634.3486" y2="669.3486"/><polygon fill="#A80036" points="601.5,659.3486,605.5,669.3486,609.5,659.3486,605.5,663.3486" style="stroke: #A80036; stroke-width: 1.0;"/><line style="stroke: #A80036; stroke-width: 1.5;" x1="436.5" x2="436.5" y1="870.2861" y2="905.2861"/><polygon fill="#A80036" points="432.5,895.2861,436.5,905.2861,440.5,895.2861,436.5,899.2861" style="stroke: #A80036; stroke-width: 1.0;"/><line style="stroke: #A80036; stroke-width: 1.5;" x1="446.5" x2="436.5" y1="814.3174" y2="814.3174"/><line style="stroke: #A80036; stroke-width: 1.5;" x1="436.5" x2="436.5" y1="814.3174" y2="836.3174"/><polygon fill="#A80036" points="432.5,826.3174,436.5,836.3174,440.5,826.3174,436.5,830.3174" style="stroke: #A80036; stroke-width: 1.0;"/><line style="stroke: #A80036; stroke-width: 1.5;" x1="764.5" x2="774.5" y1="814.3174" y2="814.3174"/><polygon fill="#A80036" points="770.5,862.8018,774.5,872.8018,778.5,862.8018,774.5,866.8018" style="stroke: #A80036; stroke-width: 1.5;"/><line style="stroke: #A80036; stroke-width: 1.5;" x1="774.5" x2="774.5" y1="814.3174" y2="931.2861"/><line style="stroke: #A80036; stroke-width: 1.5;" x1="774.5" x2="605.5" y1="931.2861" y2="931.2861"/><line style="stroke: #A80036; stroke-width: 1.5;" x1="605.5" x2="605.5" y1="931.2861" y2="969.4346"/><polygon fill="#A80036" points="601.5,959.4346,605.5,969.4346,609.5,959.4346,605.5,963.4346" style="stroke: #A80036; stroke-width: 1.0;"/><line style="stroke: #A80036; stroke-width: 1.5;" x1="605.5" x2="605.5" y1="767.3174" y2="802.3174"/><polygon fill="#A80036" points="601.5,792.3174,605.5,802.3174,609.5,792.3174,605.5,796.3174" style="stroke: #A80036; stroke-width: 1.0;"/><line style="stroke: #A80036; stroke-width: 1.5;" x1="520.5" x2="520.5" y1="1213.7363" y2="1251.8848"/><polygon fill="#A80036" points="516.5,1241.8848,520.5,1251.8848,524.5,1241.8848,520.5,1245.8848" style="stroke: #A80036; stroke-width: 1.0;"/><line style="stroke: #A80036; stroke-width: 1.5;" x1="530.5" x2="520.5" y1="1154.6191" y2="1154.6191"/><line style="stroke: #A80036; stroke-width: 1.5;" x1="520.5" x2="520.5" y1="1154.6191" y2="1179.7676"/><polygon fill="#A80036" points="516.5,1169.7676,520.5,1179.7676,524.5,1169.7676,520.5,1173.7676" style="stroke: #A80036; stroke-width: 1.0;"/><line style="stroke: #A80036; stroke-width: 1.5;" x1="680.5" x2="690.5" y1="1154.6191" y2="1154.6191"/><polygon fill="#A80036" points="686.5,1206.252,690.5,1216.252,694.5,1206.252,690.5,1210.252" style="stroke: #A80036; stroke-width: 1.5;"/><line style="stroke: #A80036; stroke-width: 1.5;" x1="690.5" x2="690.5" y1="1154.6191" y2="1277.8848"/><line style="stroke: #A80036; stroke-width: 1.5;" x1="690.5" x2="605.5" y1="1277.8848" y2="1277.8848"/><line style="stroke: #A80036; stroke-width: 1.5;" x1="605.5" x2="605.5" y1="1277.8848" y2="1344.9834"/><polygon fill="#A80036" points="601.5,1334.9834,605.5,1344.9834,609.5,1334.9834,605.5,1338.9834" style="stroke: #A80036; stroke-width: 1.0;"/><line style="stroke: #A80036; stroke-width: 1.5;" x1="605.5" x2="605.5" y1="1107.6191" y2="1142.6191"/><polygon fill="#A80036" points="601.5,1132.6191,605.5,1142.6191,609.5,1132.6191,605.5,1136.6191" style="stroke: #A80036; stroke-width: 1.0;"/><line style="stroke: #A80036; stroke-width: 1.5;" x1="605.5" x2="605.5" y1="1003.4033" y2="1073.6504"/><polygon fill="#A80036" points="601.5,1063.6504,605.5,1073.6504,609.5,1063.6504,605.5,1067.6504" style="stroke: #A80036; stroke-width: 1.0;"/><line style="stroke: #A80036; stroke-width: 1.5;" x1="210" x2="200" y1="1390.9834" y2="1390.9834"/><line style="stroke: #A80036; stroke-width: 1.5;" x1="200" x2="200" y1="1390.9834" y2="1412.9834"/><polygon fill="#A80036" points="196,1402.9834,200,1412.9834,204,1402.9834,200,1406.9834" style="stroke: #A80036; stroke-width: 1.0;"/><line style="stroke: #A80036; stroke-width: 1.5;" x1="561" x2="571" y1="1390.9834" y2="1390.9834"/><polygon fill="#A80036" points="567,1417.9678,571,1427.9678,575,1417.9678,571,1421.9678" style="stroke: #A80036; stroke-width: 1.5;"/><line style="stroke: #A80036; stroke-width: 1.5;" x1="571" x2="571" y1="1390.9834" y2="1464.9521"/><line style="stroke: #A80036; stroke-width: 1.5;" x1="571" x2="397.5" y1="1464.9521" y2="1464.9521"/><polygon fill="#A80036" points="407.5,1460.9521,397.5,1464.9521,407.5,1468.9521,403.5,1464.9521" style="stroke: #A80036; stroke-width: 1.0;"/><line style="stroke: #A80036; stroke-width: 1.5;" x1="200" x2="200" y1="1446.9521" y2="1464.9521"/><line style="stroke: #A80036; stroke-width: 1.5;" x1="200" x2="373.5" y1="1464.9521" y2="1464.9521"/><polygon fill="#A80036" points="363.5,1460.9521,373.5,1464.9521,363.5,1468.9521,367.5,1464.9521" style="stroke: #A80036; stroke-width: 1.0;"/><line style="stroke: #A80036; stroke-width: 1.5;" x1="385.5" x2="385.5" y1="1476.9521" y2="1511.9521"/><polygon fill="#A80036" points="381.5,1501.9521,385.5,1511.9521,389.5,1501.9521,385.5,1505.9521" style="stroke: #A80036; stroke-width: 1.0;"/><line style="stroke: #A80036; stroke-width: 1.5;" x1="258" x2="248" y1="1606.8896" y2="1606.8896"/><line style="stroke: #A80036; stroke-width: 1.5;" x1="248" x2="248" y1="1606.8896" y2="1628.8896"/><polygon fill="#A80036" points="244,1618.8896,248,1628.8896,252,1618.8896,248,1622.8896" style="stroke: #A80036; stroke-width: 1.0;"/><line style="stroke: #A80036; stroke-width: 1.5;" x1="513" x2="523" y1="1606.8896" y2="1606.8896"/><polygon fill="#A80036" points="519,1640.8584,523,1650.8584,527,1640.8584,523,1644.8584" style="stroke: #A80036; stroke-width: 1.5;"/><line style="stroke: #A80036; stroke-width: 1.5;" x1="523" x2="523" y1="1606.8896" y2="1694.8271"/><line style="stroke: #A80036; stroke-width: 1.5;" x1="523" x2="397.5" y1="1694.8271" y2="1694.8271"/><polygon fill="#A80036" points="407.5,1690.8271,397.5,1694.8271,407.5,1698.8271,403.5,1694.8271" style="stroke: #A80036; stroke-width: 1.0;"/><line style="stroke: #A80036; stroke-width: 1.5;" x1="248" x2="248" y1="1676.8271" y2="1694.8271"/><line style="stroke: #A80036; stroke-width: 1.5;" x1="248" x2="373.5" y1="1694.8271" y2="1694.8271"/><polygon fill="#A80036" points="363.5,1690.8271,373.5,1694.8271,363.5,1698.8271,367.5,1694.8271" style="stroke: #A80036; stroke-width: 1.0;"/><line style="stroke: #A80036; stroke-width: 1.5;" x1="385.5" x2="385.5" y1="1559.8896" y2="1594.8896"/><polygon fill="#A80036" points="381.5,1584.8896,385.5,1594.8896,389.5,1584.8896,385.5,1588.8896" style="stroke: #A80036; stroke-width: 1.0;"/><line style="stroke: #A80036; stroke-width: 1.5;" x1="395.5" x2="385.5" y1="1356.9834" y2="1356.9834"/><line style="stroke: #A80036; stroke-width: 1.5;" x1="385.5" x2="385.5" y1="1356.9834" y2="1378.9834"/><polygon fill="#A80036" points="381.5,1368.9834,385.5,1378.9834,389.5,1368.9834,385.5,1372.9834" style="stroke: #A80036; stroke-width: 1.0;"/><line style="stroke: #A80036; stroke-width: 1.5;" x1="815.5" x2="825.5" y1="1356.9834" y2="1356.9834"/><polygon fill="#A80036" points="821.5,1530.9053,825.5,1540.9053,829.5,1530.9053,825.5,1534.9053" style="stroke: #A80036; stroke-width: 1.5;"/><line style="stroke: #A80036; stroke-width: 1.5;" x1="825.5" x2="825.5" y1="1356.9834" y2="1724.8271"/><line style="stroke: #A80036; stroke-width: 1.5;" x1="825.5" x2="617.5" y1="1724.8271" y2="1724.8271"/><polygon fill="#A80036" points="627.5,1720.8271,617.5,1724.8271,627.5,1728.8271,623.5,1724.8271" style="stroke: #A80036; stroke-width: 1.0;"/><line style="stroke: #A80036; stroke-width: 1.5;" x1="385.5" x2="385.5" y1="1706.8271" y2="1724.8271"/><line style="stroke: #A80036; stroke-width: 1.5;" x1="385.5" x2="593.5" y1="1724.8271" y2="1724.8271"/><polygon fill="#A80036" points="583.5,1720.8271,593.5,1724.8271,583.5,1728.8271,587.5,1724.8271" style="stroke: #A80036; stroke-width: 1.0;"/><line style="stroke: #A80036; stroke-width: 1.5;" x1="498.5" x2="498.5" y1="1839.7959" y2="1874.7959"/><polygon fill="#A80036" points="494.5,1864.7959,498.5,1874.7959,502.5,1864.7959,498.5,1868.7959" style="stroke: #A80036; stroke-width: 1.0;"/><line style="stroke: #A80036; stroke-width: 1.5;" x1="349" x2="284" y1="2003.7334" y2="2003.7334"/><line style="stroke: #A80036; stroke-width: 1.5;" x1="284" x2="284" y1="2003.7334" y2="2025.7334"/><polygon fill="#A80036" points="280,2015.7334,284,2025.7334,288,2015.7334,284,2019.7334" style="stroke: #A80036; stroke-width: 1.0;"/><line style="stroke: #A80036; stroke-width: 1.5;" x1="462" x2="527" y1="2003.7334" y2="2003.7334"/><polygon fill="#A80036" points="523,2037.7021,527,2047.7021,531,2037.7021,527,2041.7021" style="stroke: #A80036; stroke-width: 1.5;"/><line style="stroke: #A80036; stroke-width: 1.5;" x1="527" x2="527" y1="2003.7334" y2="2091.6709"/><line style="stroke: #A80036; stroke-width: 1.5;" x1="527" x2="417.5" y1="2091.6709" y2="2091.6709"/><polygon fill="#A80036" points="427.5,2087.6709,417.5,2091.6709,427.5,2095.6709,423.5,2091.6709" style="stroke: #A80036; stroke-width: 1.0;"/><line style="stroke: #A80036; stroke-width: 1.5;" x1="284" x2="284" y1="2073.6709" y2="2091.6709"/><line style="stroke: #A80036; stroke-width: 1.5;" x1="284" x2="393.5" y1="2091.6709" y2="2091.6709"/><polygon fill="#A80036" points="383.5,2087.6709,393.5,2091.6709,383.5,2095.6709,387.5,2091.6709" style="stroke: #A80036; stroke-width: 1.0;"/><line style="stroke: #A80036; stroke-width: 1.5;" x1="415.5" x2="405.5" y1="1969.7334" y2="1969.7334"/><line style="stroke: #A80036; stroke-width: 1.5;" x1="405.5" x2="405.5" y1="1969.7334" y2="1991.7334"/><polygon fill="#A80036" points="401.5,1981.7334,405.5,1991.7334,409.5,1981.7334,405.5,1985.7334" style="stroke: #A80036; stroke-width: 1.0;"/><line style="stroke: #A80036; stroke-width: 1.5;" x1="581.5" x2="591.5" y1="1969.7334" y2="1969.7334"/><polygon fill="#A80036" points="587.5,2035.7021,591.5,2045.7021,595.5,2035.7021,591.5,2039.7021" style="stroke: #A80036; stroke-width: 1.5;"/><line style="stroke: #A80036; stroke-width: 1.5;" x1="591.5" x2="591.5" y1="1969.7334" y2="2121.6709"/><line style="stroke: #A80036; stroke-width: 1.5;" x1="591.5" x2="510.5" y1="2121.6709" y2="2121.6709"/><polygon fill="#A80036" points="520.5,2117.6709,510.5,2121.6709,520.5,2125.6709,516.5,2121.6709" style="stroke: #A80036; stroke-width: 1.0;"/><line style="stroke: #A80036; stroke-width: 1.5;" x1="405.5" x2="405.5" y1="2103.6709" y2="2121.6709"/><line style="stroke: #A80036; stroke-width: 1.5;" x1="405.5" x2="486.5" y1="2121.6709" y2="2121.6709"/><polygon fill="#A80036" points="476.5,2117.6709,486.5,2121.6709,476.5,2125.6709,480.5,2121.6709" style="stroke: #A80036; stroke-width: 1.0;"/><line style="stroke: #A80036; stroke-width: 1.5;" x1="498.5" x2="498.5" y1="1922.7334" y2="1957.7334"/><polygon fill="#A80036" points="494.5,1947.7334,498.5,1957.7334,502.5,1947.7334,498.5,1951.7334" style="stroke: #A80036; stroke-width: 1.0;"/><line style="stroke: #A80036; stroke-width: 1.5;" x1="508.5" x2="498.5" y1="1783.8271" y2="1783.8271"/><line style="stroke: #A80036; stroke-width: 1.5;" x1="498.5" x2="498.5" y1="1783.8271" y2="1805.8271"/><polygon fill="#A80036" points="494.5,1795.8271,498.5,1805.8271,502.5,1795.8271,498.5,1799.8271" style="stroke: #A80036; stroke-width: 1.0;"/><line style="stroke: #A80036; stroke-width: 1.5;" x1="702.5" x2="712.5" y1="1783.8271" y2="1783.8271"/><polygon fill="#A80036" points="708.5,1957.749,712.5,1967.749,716.5,1957.749,712.5,1961.749" style="stroke: #A80036; stroke-width: 1.5;"/><line style="stroke: #A80036; stroke-width: 1.5;" x1="712.5" x2="712.5" y1="1783.8271" y2="2151.6709"/><line style="stroke: #A80036; stroke-width: 1.5;" x1="712.5" x2="617.5" y1="2151.6709" y2="2151.6709"/><polygon fill="#A80036" points="627.5,2147.6709,617.5,2151.6709,627.5,2155.6709,623.5,2151.6709" style="stroke: #A80036; stroke-width: 1.0;"/><line style="stroke: #A80036; stroke-width: 1.5;" x1="498.5" x2="498.5" y1="2133.6709" y2="2151.6709"/><line style="stroke: #A80036; stroke-width: 1.5;" x1="498.5" x2="593.5" y1="2151.6709" y2="2151.6709"/><polygon fill="#A80036" points="583.5,2147.6709,593.5,2151.6709,583.5,2155.6709,587.5,2151.6709" style="stroke: #A80036; stroke-width: 1.0;"/><line style="stroke: #A80036; stroke-width: 1.5;" x1="605.5" x2="605.5" y1="1736.8271" y2="1771.8271"/><polygon fill="#A80036" points="601.5,1761.8271,605.5,1771.8271,609.5,1761.8271,605.5,1765.8271" style="stroke: #A80036; stroke-width: 1.0;"/><line style="stroke: #A80036; stroke-width: 1.5;" x1="605.5" x2="605.5" y1="2163.6709" y2="2203.6709"/><polygon fill="#A80036" points="601.5,2193.6709,605.5,2203.6709,609.5,2193.6709,605.5,2197.6709" style="stroke: #A80036; stroke-width: 1.0;"/><line style="stroke: #A80036; stroke-width: 1.5;" x1="605.5" x2="605.5" y1="2237.6396" y2="2257.6396"/><polygon fill="#A80036" points="601.5,2247.6396,605.5,2257.6396,609.5,2247.6396,605.5,2251.6396" style="stroke: #A80036; stroke-width: 1.0;"/></g></svg>