<?xml version="1.0" encoding="UTF-8" standalone="no"?><svg xmlns="http://www.w3.org/2000/svg" xmlns:xlink="http://www.w3.org/1999/xlink" contentScriptType="application/ecmascript" contentStyleType="text/css" height="1342px" preserveAspectRatio="none" style="width:568px;height:1342px;" version="1.1" viewBox="0 0 568 1342" width="568px" zoomAndPan="magnify"><defs><linearGradient id="g1fm949hervsmi0" x1="0%" x2="100%" y1="50%" y2="50%"><stop offset="0%" stop-color="#FFFFFF"/><stop offset="100%" stop-color="#FFFFFF"/></linearGradient><filter height="300%" id="f1fm949hervsmi" width="300%" x="-1" y="-1"><feGaussianBlur result="blurOut" stdDeviation="2.0"/><feColorMatrix in="blurOut" result="blurOut2" type="matrix" values="0 0 0 0 0 0 0 0 0 0 0 0 0 0 0 0 0 0 .4 0"/><feOffset dx="4.0" dy="4.0" in="blurOut2" result="blurOut3"/><feBlend in="SourceGraphic" in2="blurOut3" mode="normal"/></filter><filter height="1" id="b1fm949hervsmi0" width="1" x="0" y="0"><feFlood flood-color="#87CEEB" result="flood"/><feComposite in="SourceGraphic" in2="flood" operator="over"/></filter></defs><g><rect fill="url(#g1fm949hervsmi0)" height="1342" style="stroke: none; stroke-width: 1.0;" width="568" x="0" y="0"/><text fill="#000000" font-family="sans-serif" font-size="18" font-weight="bold" lengthAdjust="spacingAndGlyphs" textLength="257" x="41.5" y="26.708">Nuspell - Check Spelling -</text><text fill="#000000" font-family="monospace" font-size="18" font-weight="bold" lengthAdjust="spacingAndGlyphs" textLength="220" x="304.5" y="26.708">spell_priv(string s)</text><text fill="#000000" font-family="sans-serif" font-size="18" lengthAdjust="spacingAndGlyphs" textLength="0" x="286" y="47.6611"/><ellipse cx="283.5" cy="61.9063" fill="#000000" filter="url(#f1fm949hervsmi)" rx="10" ry="10" style="stroke: none; stroke-width: 1.0;"/><rect fill="#FFFFFF" filter="url(#f1fm949hervsmi)" height="33.9688" rx="12.5" ry="12.5" style="stroke: #000000; stroke-width: 1.5;" width="119" x="224" y="140.3086"/><text fill="#000000" font-family="sans-serif" font-size="12" lengthAdjust="spacingAndGlyphs" textLength="39" x="234" y="161.4473">return</text><text fill="#000000" font-family="monospace" font-size="12" lengthAdjust="spacingAndGlyphs" text-decoration="underline" textLength="56" x="277" y="161.4473">BAD_WORD</text><line style="stroke: #000000; stroke-width: 1.0;" x1="277" x2="333" y1="163.4473" y2="163.4473"/><ellipse cx="283.5" cy="211.793" fill="none" filter="url(#f1fm949hervsmi)" rx="10" ry="10" style="stroke: #000000; stroke-width: 1.0;"/><ellipse cx="284" cy="212.293" fill="#000000" filter="url(#f1fm949hervsmi)" rx="6" ry="6" style="stroke: none; stroke-width: 1.0;"/><polygon fill="#FFFFFF" filter="url(#f1fm949hervsmi)" points="128,91.9063,439,91.9063,451,103.9063,439,115.9063,128,115.9063,116,103.9063,128,91.9063" style="stroke: #000000; stroke-width: 1.5;"/><text fill="#000000" font-family="sans-serif" font-size="11" lengthAdjust="spacingAndGlyphs" textLength="20" x="287.5" y="126.1167">yes</text><text fill="#000000" font-family="sans-serif" font-size="11" lengthAdjust="spacingAndGlyphs" textLength="35" x="128" y="107.7144">length</text><text fill="#000000" font-family="monospace" font-size="11" font-weight="bold" lengthAdjust="spacingAndGlyphs" textLength="7" x="167" y="107.7144">s</text><text fill="#000000" font-family="sans-serif" font-size="11" lengthAdjust="spacingAndGlyphs" textLength="160" x="178" y="107.7144">is greater or equal to global</text><text fill="#000000" font-family="monospace" font-size="11" lengthAdjust="spacingAndGlyphs" text-decoration="underline" textLength="91" x="342" y="107.7144">WORDMAXLENGTH</text><line style="stroke: #000000; stroke-width: 1.0;" x1="342" x2="433" y1="109.7144" y2="109.7144"/><text fill="#000000" font-family="sans-serif" font-size="11" lengthAdjust="spacingAndGlyphs" textLength="6" x="433" y="107.7144">?</text><text fill="#000000" font-family="sans-serif" font-size="11" lengthAdjust="spacingAndGlyphs" textLength="14" x="451" y="101.312">no</text><rect fill="#87CEEB" filter="url(#f1fm949hervsmi)" height="33.9688" rx="12.5" ry="12.5" style="stroke: #000000; stroke-width: 1.5;" width="217" x="175" y="263.793"/><text fill="#000000" font-family="sans-serif" font-size="12" lengthAdjust="spacingAndGlyphs" textLength="36" x="185" y="284.9316">do on</text><text fill="#000000" font-family="monospace" font-size="12" font-weight="bold" lengthAdjust="spacingAndGlyphs" textLength="7" x="225" y="284.9316">s</text><text fill="#000000" font-family="sans-serif" font-size="12" lengthAdjust="spacingAndGlyphs" textLength="146" x="236" y="284.9316">global input conversion</text><rect fill="#FFFFFF" filter="url(#f1fm949hervsmi)" height="513.7402" style="stroke: #000000; stroke-width: 2.0;" width="547" x="10" y="308.5635"/><path d="M267,309.5635 L267,317.8604 L257,327.8604 L10,327.8604 " fill="none" style="stroke: #000000; stroke-width: 2.0;"/><text fill="#000000" font-family="sans-serif" font-size="14" lengthAdjust="spacingAndGlyphs" textLength="239" x="13" y="322.5586">handle abbreviations and numbers</text><polygon fill="#FFFFFF" filter="url(#f1fm949hervsmi)" points="50,344.0586,116,344.0586,128,356.0586,116,368.0586,50,368.0586,38,356.0586,50,344.0586" style="stroke: #000000; stroke-width: 1.5;"/><text fill="#000000" font-family="sans-serif" font-size="11" lengthAdjust="spacingAndGlyphs" textLength="20" x="87" y="378.269">yes</text><text fill="#000000" font-family="monospace" font-size="11" font-weight="bold" lengthAdjust="spacingAndGlyphs" textLength="7" x="50" y="359.8667">s</text><text fill="#000000" font-family="sans-serif" font-size="11" lengthAdjust="spacingAndGlyphs" textLength="55" x="61" y="359.8667">is empty?</text><rect fill="#FFFFFF" filter="url(#f1fm949hervsmi)" height="33.9688" rx="12.5" ry="12.5" style="stroke: #000000; stroke-width: 1.5;" width="126" x="20" y="399.769"/><text fill="#000000" font-family="sans-serif" font-size="12" lengthAdjust="spacingAndGlyphs" textLength="39" x="30" y="420.9077">return</text><text fill="#000000" font-family="monospace" font-size="12" lengthAdjust="spacingAndGlyphs" text-decoration="underline" textLength="63" x="73" y="420.9077">GOOD_WORD</text><line style="stroke: #000000; stroke-width: 1.0;" x1="73" x2="136" y1="422.9077" y2="422.9077"/><ellipse cx="83" cy="478.7378" fill="none" filter="url(#f1fm949hervsmi)" rx="10" ry="10" style="stroke: #000000; stroke-width: 1.0;"/><ellipse cx="83.5" cy="479.2378" fill="#000000" filter="url(#f1fm949hervsmi)" rx="6" ry="6" style="stroke: none; stroke-width: 1.0;"/><polygon fill="#FFFFFF" filter="url(#f1fm949hervsmi)" points="194,344.0586,315,344.0586,327,356.0586,315,368.0586,194,368.0586,182,356.0586,194,344.0586" style="stroke: #000000; stroke-width: 1.5;"/><text fill="#000000" font-family="sans-serif" font-size="11" lengthAdjust="spacingAndGlyphs" textLength="20" x="258.5" y="378.269">yes</text><text fill="#000000" font-family="sans-serif" font-size="11" lengthAdjust="spacingAndGlyphs" textLength="79" x="194" y="359.8667">last character</text><text fill="#000000" font-family="monospace" font-size="11" font-weight="bold" lengthAdjust="spacingAndGlyphs" textLength="7" x="277" y="359.8667">s</text><text fill="#000000" font-family="sans-serif" font-size="11" lengthAdjust="spacingAndGlyphs" textLength="10" x="288" y="359.8667">is</text><text fill="#000000" font-family="monospace" font-size="11" lengthAdjust="spacingAndGlyphs" text-decoration="underline" textLength="7" x="302" y="359.8667">.</text><line style="stroke: #000000; stroke-width: 1.0;" x1="302" x2="309" y1="361.8667" y2="361.8667"/><text fill="#000000" font-family="sans-serif" font-size="11" lengthAdjust="spacingAndGlyphs" textLength="6" x="309" y="359.8667">?</text><text fill="#000000" font-family="sans-serif" font-size="11" lengthAdjust="spacingAndGlyphs" textLength="14" x="327" y="353.4644">no</text><rect fill="#FFFFFF" filter="url(#f1fm949hervsmi)" height="33.9688" rx="12.5" ry="12.5" style="stroke: #000000; stroke-width: 1.5;" width="177" x="166" y="399.769"/><text fill="#000000" font-family="sans-serif" font-size="12" lengthAdjust="spacingAndGlyphs" textLength="20" x="176" y="420.9077">set</text><text fill="#000000" font-family="monospace" font-size="12" font-weight="bold" lengthAdjust="spacingAndGlyphs" textLength="84" x="200" y="420.9077">abbreviation</text><text fill="#000000" font-family="sans-serif" font-size="12" lengthAdjust="spacingAndGlyphs" textLength="13" x="288" y="420.9077">to</text><text fill="#000000" font-family="monospace" font-size="12" lengthAdjust="spacingAndGlyphs" text-decoration="underline" textLength="28" x="305" y="420.9077">TRUE</text><line style="stroke: #000000; stroke-width: 1.0;" x1="305" x2="333" y1="422.9077" y2="422.9077"/><rect fill="#FFFFFF" filter="url(#f1fm949hervsmi)" height="33.9688" rx="12.5" ry="12.5" style="stroke: #000000; stroke-width: 1.5;" width="184" x="363" y="423.8667"/><text fill="#000000" font-family="sans-serif" font-size="12" lengthAdjust="spacingAndGlyphs" textLength="20" x="373" y="445.0054">set</text><text fill="#000000" font-family="monospace" font-size="12" font-weight="bold" lengthAdjust="spacingAndGlyphs" textLength="84" x="397" y="445.0054">abbreviation</text><text fill="#000000" font-family="sans-serif" font-size="12" lengthAdjust="spacingAndGlyphs" textLength="13" x="485" y="445.0054">to</text><text fill="#000000" font-family="monospace" font-size="12" lengthAdjust="spacingAndGlyphs" text-decoration="underline" textLength="35" x="502" y="445.0054">FALSE</text><line style="stroke: #000000; stroke-width: 1.0;" x1="502" x2="537" y1="447.0054" y2="447.0054"/><polygon fill="#FFFFFF" filter="url(#f1fm949hervsmi)" points="100.5,528.7378,236.5,528.7378,248.5,540.7378,236.5,552.7378,100.5,552.7378,88.5,540.7378,100.5,528.7378" style="stroke: #000000; stroke-width: 1.5;"/><text fill="#000000" font-family="sans-serif" font-size="11" lengthAdjust="spacingAndGlyphs" textLength="20" x="172.5" y="562.9482">yes</text><text fill="#000000" font-family="monospace" font-size="11" font-weight="bold" lengthAdjust="spacingAndGlyphs" textLength="84" x="100.5" y="544.5459">abbreviation</text><text fill="#000000" font-family="sans-serif" font-size="11" lengthAdjust="spacingAndGlyphs" textLength="10" x="188.5" y="544.5459">is</text><text fill="#000000" font-family="monospace" font-size="11" lengthAdjust="spacingAndGlyphs" text-decoration="underline" textLength="28" x="202.5" y="544.5459">TRUE</text><line style="stroke: #000000; stroke-width: 1.0;" x1="202.5" x2="230.5" y1="546.5459" y2="546.5459"/><text fill="#000000" font-family="sans-serif" font-size="11" lengthAdjust="spacingAndGlyphs" textLength="6" x="230.5" y="544.5459">?</text><rect fill="#FFFFFF" filter="url(#f1fm949hervsmi)" height="33.9688" rx="12.5" ry="12.5" style="stroke: #000000; stroke-width: 1.5;" width="239" x="49" y="584.4482"/><text fill="#000000" font-family="sans-serif" font-size="12" lengthAdjust="spacingAndGlyphs" textLength="78" x="59" y="605.5869">remove from</text><text fill="#000000" font-family="monospace" font-size="12" font-weight="bold" lengthAdjust="spacingAndGlyphs" textLength="7" x="141" y="605.5869">s</text><text fill="#000000" font-family="sans-serif" font-size="12" lengthAdjust="spacingAndGlyphs" textLength="115" x="152" y="605.5869">trailing characters</text><text fill="#000000" font-family="monospace" font-size="12" lengthAdjust="spacingAndGlyphs" text-decoration="underline" textLength="7" x="271" y="605.5869">.</text><line style="stroke: #000000; stroke-width: 1.0;" x1="271" x2="278" y1="607.5869" y2="607.5869"/><rect fill="#FFFFFF" filter="url(#f1fm949hervsmi)" height="33.9688" rx="12.5" ry="12.5" style="stroke: #000000; stroke-width: 1.5;" width="126" x="105.5" y="686.8193"/><text fill="#000000" font-family="sans-serif" font-size="12" lengthAdjust="spacingAndGlyphs" textLength="39" x="115.5" y="707.958">return</text><text fill="#000000" font-family="monospace" font-size="12" lengthAdjust="spacingAndGlyphs" text-decoration="underline" textLength="63" x="158.5" y="707.958">GOOD_WORD</text><line style="stroke: #000000; stroke-width: 1.0;" x1="158.5" x2="221.5" y1="709.958" y2="709.958"/><ellipse cx="168.5" cy="758.3037" fill="none" filter="url(#f1fm949hervsmi)" rx="10" ry="10" style="stroke: #000000; stroke-width: 1.0;"/><ellipse cx="169" cy="758.8037" fill="#000000" filter="url(#f1fm949hervsmi)" rx="6" ry="6" style="stroke: none; stroke-width: 1.0;"/><polygon fill="#FFFFFF" filter="url(#f1fm949hervsmi)" points="135.5,638.417,201.5,638.417,213.5,650.417,201.5,662.417,135.5,662.417,123.5,650.417,135.5,638.417" style="stroke: #000000; stroke-width: 1.5;"/><text fill="#000000" font-family="sans-serif" font-size="11" lengthAdjust="spacingAndGlyphs" textLength="20" x="172.5" y="672.6274">yes</text><text fill="#000000" font-family="monospace" font-size="11" font-weight="bold" lengthAdjust="spacingAndGlyphs" textLength="7" x="135.5" y="654.2251">s</text><text fill="#000000" font-family="sans-serif" font-size="11" lengthAdjust="spacingAndGlyphs" textLength="55" x="146.5" y="654.2251">is empty?</text><text fill="#000000" font-family="sans-serif" font-size="11" lengthAdjust="spacingAndGlyphs" textLength="14" x="213.5" y="647.8228">no</text><polygon fill="#FFFFFF" filter="url(#f1fm949hervsmi)" points="320,528.7378,456,528.7378,468,540.7378,456,552.7378,320,552.7378,308,540.7378,320,528.7378" style="stroke: #000000; stroke-width: 1.5;"/><text fill="#000000" font-family="sans-serif" font-size="11" lengthAdjust="spacingAndGlyphs" textLength="20" x="392" y="562.9482">yes</text><text fill="#000000" filter="url(#b1fm949hervsmi0)" font-family="monospace" font-size="11" font-style="italic" lengthAdjust="spacingAndGlyphs" textLength="84" x="320" y="544.5459">is_number(s)</text><text fill="#000000" font-family="sans-serif" font-size="11" lengthAdjust="spacingAndGlyphs" textLength="10" x="408" y="544.5459">is</text><text fill="#000000" font-family="monospace" font-size="11" lengthAdjust="spacingAndGlyphs" text-decoration="underline" textLength="28" x="422" y="544.5459">TRUE</text><line style="stroke: #000000; stroke-width: 1.0;" x1="422" x2="450" y1="546.5459" y2="546.5459"/><text fill="#000000" font-family="sans-serif" font-size="11" lengthAdjust="spacingAndGlyphs" textLength="6" x="450" y="544.5459">?</text><text fill="#000000" font-family="sans-serif" font-size="11" lengthAdjust="spacingAndGlyphs" textLength="14" x="468" y="538.1436">no</text><rect fill="#FFFFFF" filter="url(#f1fm949hervsmi)" height="33.9688" rx="12.5" ry="12.5" style="stroke: #000000; stroke-width: 1.5;" width="126" x="325" y="584.4482"/><text fill="#000000" font-family="sans-serif" font-size="12" lengthAdjust="spacingAndGlyphs" textLength="39" x="335" y="605.5869">return</text><text fill="#000000" font-family="monospace" font-size="12" lengthAdjust="spacingAndGlyphs" text-decoration="underline" textLength="63" x="378" y="605.5869">GOOD_WORD</text><line style="stroke: #000000; stroke-width: 1.0;" x1="378" x2="441" y1="607.5869" y2="607.5869"/><ellipse cx="388" cy="648.417" fill="none" filter="url(#f1fm949hervsmi)" rx="10" ry="10" style="stroke: #000000; stroke-width: 1.0;"/><ellipse cx="388.5" cy="648.917" fill="#000000" filter="url(#f1fm949hervsmi)" rx="6" ry="6" style="stroke: none; stroke-width: 1.0;"/><rect fill="#FFFFFF" filter="url(#f1fm949hervsmi)" height="458.71" style="stroke: #000000; stroke-width: 2.0;" width="319" x="134.5" y="833.1055"/><path d="M304.5,834.1055 L304.5,842.4023 L294.5,852.4023 L134.5,852.4023 " fill="none" style="stroke: #000000; stroke-width: 2.0;"/><text fill="#000000" font-family="sans-serif" font-size="14" lengthAdjust="spacingAndGlyphs" textLength="152" x="137.5" y="847.1006">handle break patterns</text><rect fill="#87CEEB" filter="url(#f1fm949hervsmi)" height="33.9688" rx="12.5" ry="12.5" style="stroke: #000000; stroke-width: 1.5;" width="275" x="146" y="868.6006"/><text fill="#000000" font-family="sans-serif" font-size="12" lengthAdjust="spacingAndGlyphs" textLength="78" x="156" y="889.7393">remove from</text><text fill="#000000" font-family="monospace" font-size="12" font-weight="bold" lengthAdjust="spacingAndGlyphs" textLength="7" x="238" y="889.7393">s</text><text fill="#000000" font-family="sans-serif" font-size="12" lengthAdjust="spacingAndGlyphs" textLength="162" x="249" y="889.7393">global ignored characters</text><rect fill="#FFFFFF" filter="url(#f1fm949hervsmi)" height="33.9688" rx="12.5" ry="12.5" style="stroke: #000000; stroke-width: 1.5;" width="88" x="239.5" y="922.5693"/><text fill="#000000" font-family="sans-serif" font-size="12" lengthAdjust="spacingAndGlyphs" textLength="29" x="249.5" y="943.708">copy</text><text fill="#000000" font-family="monospace" font-size="12" font-weight="bold" lengthAdjust="spacingAndGlyphs" textLength="7" x="282.5" y="943.708">s</text><text fill="#000000" font-family="sans-serif" font-size="12" lengthAdjust="spacingAndGlyphs" textLength="13" x="293.5" y="943.708">to</text><text fill="#000000" font-family="monospace" font-size="12" font-weight="bold" lengthAdjust="spacingAndGlyphs" textLength="7" x="310.5" y="943.708">c</text><rect fill="#FFFFFF" filter="url(#f1fm949hervsmi)" height="33.9688" rx="12.5" ry="12.5" style="stroke: #000000; stroke-width: 1.5;" width="184" x="191.5" y="976.5381"/><text fill="#000000" font-family="sans-serif" font-size="12" lengthAdjust="spacingAndGlyphs" textLength="20" x="201.5" y="997.6768">set</text><text fill="#000000" font-family="monospace" font-size="12" font-weight="bold" lengthAdjust="spacingAndGlyphs" textLength="21" x="225.5" y="997.6768">ret</text><text fill="#000000" font-family="sans-serif" font-size="12" lengthAdjust="spacingAndGlyphs" textLength="13" x="250.5" y="997.6768">to</text><text fill="#000000" filter="url(#b1fm949hervsmi0)" font-family="monospace" font-size="12" font-style="italic" lengthAdjust="spacingAndGlyphs" textLength="98" x="267.5" y="997.6768">spell_break(s)</text><rect fill="#FFFFFF" filter="url(#f1fm949hervsmi)" height="33.9688" rx="12.5" ry="12.5" style="stroke: #000000; stroke-width: 1.5;" width="172" x="197.5" y="1078.9092"/><text fill="#000000" font-family="sans-serif" font-size="12" lengthAdjust="spacingAndGlyphs" textLength="65" x="207.5" y="1100.0479">append to</text><text fill="#000000" font-family="monospace" font-size="12" font-weight="bold" lengthAdjust="spacingAndGlyphs" textLength="7" x="276.5" y="1100.0479">s</text><text fill="#000000" font-family="sans-serif" font-size="12" lengthAdjust="spacingAndGlyphs" textLength="61" x="287.5" y="1100.0479">character</text><text fill="#000000" font-family="monospace" font-size="12" lengthAdjust="spacingAndGlyphs" text-decoration="underline" textLength="7" x="352.5" y="1100.0479">.</text><line style="stroke: #000000; stroke-width: 1.0;" x1="352.5" x2="359.5" y1="1102.0479" y2="1102.0479"/><rect fill="#FFFFFF" filter="url(#f1fm949hervsmi)" height="33.9688" rx="12.5" ry="12.5" style="stroke: #000000; stroke-width: 1.5;" width="184" x="191.5" y="1147.8779"/><text fill="#000000" font-family="sans-serif" font-size="12" lengthAdjust="spacingAndGlyphs" textLength="20" x="201.5" y="1169.0166">set</text><text fill="#000000" font-family="monospace" font-size="12" font-weight="bold" lengthAdjust="spacingAndGlyphs" textLength="21" x="225.5" y="1169.0166">ret</text><text fill="#000000" font-family="sans-serif" font-size="12" lengthAdjust="spacingAndGlyphs" textLength="13" x="250.5" y="1169.0166">to</text><text fill="#000000" filter="url(#b1fm949hervsmi0)" font-family="monospace" font-size="12" font-style="italic" lengthAdjust="spacingAndGlyphs" textLength="98" x="267.5" y="1169.0166">spell_break(s)</text><polygon fill="#FFFFFF" filter="url(#f1fm949hervsmi)" points="156.5,1030.5068,410.5,1030.5068,422.5,1042.5068,410.5,1054.5068,156.5,1054.5068,144.5,1042.5068,156.5,1030.5068" style="stroke: #000000; stroke-width: 1.5;"/><text fill="#000000" font-family="sans-serif" font-size="11" lengthAdjust="spacingAndGlyphs" textLength="20" x="287.5" y="1064.7173">yes</text><text fill="#000000" font-family="monospace" font-size="11" font-weight="bold" lengthAdjust="spacingAndGlyphs" textLength="21" x="156.5" y="1046.3149">ret</text><text fill="#000000" font-family="sans-serif" font-size="11" lengthAdjust="spacingAndGlyphs" textLength="32" x="181.5" y="1046.3149">is not</text><text fill="#000000" font-family="monospace" font-size="11" lengthAdjust="spacingAndGlyphs" text-decoration="underline" textLength="28" x="217.5" y="1046.3149">TRUE</text><line style="stroke: #000000; stroke-width: 1.0;" x1="217.5" x2="245.5" y1="1048.3149" y2="1048.3149"/><text fill="#000000" font-family="sans-serif" font-size="11" lengthAdjust="spacingAndGlyphs" textLength="21" x="249.5" y="1046.3149">and</text><text fill="#000000" font-family="monospace" font-size="11" font-weight="bold" lengthAdjust="spacingAndGlyphs" textLength="84" x="274.5" y="1046.3149">abbreviation</text><text fill="#000000" font-family="sans-serif" font-size="11" lengthAdjust="spacingAndGlyphs" textLength="10" x="362.5" y="1046.3149">is</text><text fill="#000000" font-family="monospace" font-size="11" lengthAdjust="spacingAndGlyphs" text-decoration="underline" textLength="28" x="376.5" y="1046.3149">TRUE</text><line style="stroke: #000000; stroke-width: 1.0;" x1="376.5" x2="404.5" y1="1048.3149" y2="1048.3149"/><text fill="#000000" font-family="sans-serif" font-size="11" lengthAdjust="spacingAndGlyphs" textLength="6" x="404.5" y="1046.3149">?</text><text fill="#000000" font-family="sans-serif" font-size="11" lengthAdjust="spacingAndGlyphs" textLength="14" x="422.5" y="1039.9126">no</text><polygon fill="#FFFFFF" filter="url(#f1fm949hervsmi)" points="283.5,1201.8467,295.5,1213.8467,283.5,1225.8467,271.5,1213.8467,283.5,1201.8467" style="stroke: #000000; stroke-width: 1.5;"/><rect fill="#FFFFFF" filter="url(#f1fm949hervsmi)" height="33.9688" rx="12.5" ry="12.5" style="stroke: #000000; stroke-width: 1.5;" width="84" x="241.5" y="1245.8467"/><text fill="#000000" font-family="sans-serif" font-size="12" lengthAdjust="spacingAndGlyphs" textLength="39" x="251.5" y="1266.9854">return</text><text fill="#000000" font-family="monospace" font-size="12" font-weight="bold" lengthAdjust="spacingAndGlyphs" textLength="21" x="294.5" y="1266.9854">ret</text><ellipse cx="283.5" cy="1321.8154" fill="none" filter="url(#f1fm949hervsmi)" rx="10" ry="10" style="stroke: #000000; stroke-width: 1.0;"/><ellipse cx="284" cy="1322.3154" fill="#000000" filter="url(#f1fm949hervsmi)" rx="6" ry="6" style="stroke: none; stroke-width: 1.0;"/><line style="stroke: #000000; stroke-width: 1.5;" x1="283.5" x2="283.5" y1="174.2773" y2="201.793"/><polygon fill="#000000" points="279.5,191.793,283.5,201.793,287.5,191.793,283.5,195.793" style="stroke: #000000; stroke-width: 1.0;"/><line style="stroke: #000000; stroke-width: 1.5;" x1="283.5" x2="283.5" y1="115.9063" y2="140.3086"/><polygon fill="#000000" points="279.5,130.3086,283.5,140.3086,287.5,130.3086,283.5,134.3086" style="stroke: #000000; stroke-width: 1.0;"/><line style="stroke: #000000; stroke-width: 1.5;" x1="451" x2="463" y1="103.9063" y2="103.9063"/><polygon fill="#000000" points="459,171.793,463,181.793,467,171.793,463,175.793" style="stroke: #000000; stroke-width: 1.5;"/><line style="stroke: #000000; stroke-width: 1.5;" x1="463" x2="463" y1="103.9063" y2="243.793"/><line style="stroke: #000000; stroke-width: 1.5;" x1="463" x2="283.5" y1="243.793" y2="243.793"/><line style="stroke: #000000; stroke-width: 1.5;" x1="283.5" x2="283.5" y1="243.793" y2="263.793"/><polygon fill="#000000" points="279.5,253.793,283.5,263.793,287.5,253.793,283.5,257.793" style="stroke: #000000; stroke-width: 1.0;"/><line style="stroke: #000000; stroke-width: 1.5;" x1="283.5" x2="283.5" y1="71.9063" y2="91.9063"/><polygon fill="#000000" points="279.5,81.9063,283.5,91.9063,287.5,81.9063,283.5,85.9063" style="stroke: #000000; stroke-width: 1.0;"/><line style="stroke: #000000; stroke-width: 1.5;" x1="83" x2="83" y1="433.7378" y2="468.7378"/><polygon fill="#000000" points="79,458.7378,83,468.7378,87,458.7378,83,462.7378" style="stroke: #000000; stroke-width: 1.0;"/><line style="stroke: #000000; stroke-width: 1.5;" x1="83" x2="83" y1="368.0586" y2="399.769"/><polygon fill="#000000" points="79,389.769,83,399.769,87,389.769,83,393.769" style="stroke: #000000; stroke-width: 1.0;"/><line style="stroke: #000000; stroke-width: 1.5;" x1="254.5" x2="254.5" y1="368.0586" y2="399.769"/><polygon fill="#000000" points="250.5,389.769,254.5,399.769,258.5,389.769,254.5,393.769" style="stroke: #000000; stroke-width: 1.0;"/><line style="stroke: #000000; stroke-width: 1.5;" x1="254.5" x2="254.5" y1="433.7378" y2="508.7378"/><polygon fill="#000000" points="250.5,498.7378,254.5,508.7378,258.5,498.7378,254.5,502.7378" style="stroke: #000000; stroke-width: 1.0;"/><line style="stroke: #000000; stroke-width: 1.5;" x1="128" x2="182" y1="356.0586" y2="356.0586"/><polygon fill="#000000" points="172,352.0586,182,356.0586,172,360.0586,176,356.0586" style="stroke: #000000; stroke-width: 1.0;"/><line style="stroke: #000000; stroke-width: 1.5;" x1="283.5" x2="283.5" y1="297.7617" y2="329.0586"/><line style="stroke: #000000; stroke-width: 1.5;" x1="283.5" x2="83" y1="329.0586" y2="329.0586"/><line style="stroke: #000000; stroke-width: 1.5;" x1="83" x2="83" y1="329.0586" y2="344.0586"/><polygon fill="#000000" points="79,334.0586,83,344.0586,87,334.0586,83,338.0586" style="stroke: #000000; stroke-width: 1.0;"/><line style="stroke: #000000; stroke-width: 1.5;" x1="327" x2="455" y1="356.0586" y2="356.0586"/><line style="stroke: #000000; stroke-width: 1.5;" x1="455" x2="455" y1="356.0586" y2="423.8667"/><polygon fill="#000000" points="451,413.8667,455,423.8667,459,413.8667,455,417.8667" style="stroke: #000000; stroke-width: 1.0;"/><line style="stroke: #000000; stroke-width: 1.5;" x1="455" x2="455" y1="457.8354" y2="508.7378"/><polygon fill="#000000" points="451,498.7378,455,508.7378,459,498.7378,455,502.7378" style="stroke: #000000; stroke-width: 1.0;"/><line style="stroke: #000000; stroke-width: 1.5;" x1="254.5" x2="455" y1="508.7378" y2="508.7378"/><line style="stroke: #000000; stroke-width: 1.5;" x1="168.5" x2="168.5" y1="720.7881" y2="748.3037"/><polygon fill="#000000" points="164.5,738.3037,168.5,748.3037,172.5,738.3037,168.5,742.3037" style="stroke: #000000; stroke-width: 1.0;"/><line style="stroke: #000000; stroke-width: 1.5;" x1="168.5" x2="168.5" y1="662.417" y2="686.8193"/><polygon fill="#000000" points="164.5,676.8193,168.5,686.8193,172.5,676.8193,168.5,680.8193" style="stroke: #000000; stroke-width: 1.0;"/><line style="stroke: #000000; stroke-width: 1.5;" x1="213.5" x2="241.5" y1="650.417" y2="650.417"/><polygon fill="#000000" points="237.5,718.3037,241.5,728.3037,245.5,718.3037,241.5,722.3037" style="stroke: #000000; stroke-width: 1.5;"/><line style="stroke: #000000; stroke-width: 1.5;" x1="241.5" x2="241.5" y1="650.417" y2="790.3037"/><line style="stroke: #000000; stroke-width: 1.5;" x1="241.5" x2="168.5" y1="790.3037" y2="790.3037"/><line style="stroke: #000000; stroke-width: 1.5;" x1="168.5" x2="168.5" y1="790.3037" y2="810.3037"/><polygon fill="#000000" points="164.5,800.3037,168.5,810.3037,172.5,800.3037,168.5,804.3037" style="stroke: #000000; stroke-width: 1.0;"/><line style="stroke: #000000; stroke-width: 1.5;" x1="168.5" x2="168.5" y1="618.417" y2="638.417"/><polygon fill="#000000" points="164.5,628.417,168.5,638.417,172.5,628.417,168.5,632.417" style="stroke: #000000; stroke-width: 1.0;"/><line style="stroke: #000000; stroke-width: 1.5;" x1="388" x2="388" y1="618.417" y2="638.417"/><polygon fill="#000000" points="384,628.417,388,638.417,392,628.417,388,632.417" style="stroke: #000000; stroke-width: 1.0;"/><line style="stroke: #000000; stroke-width: 1.5;" x1="168.5" x2="168.5" y1="552.7378" y2="584.4482"/><polygon fill="#000000" points="164.5,574.4482,168.5,584.4482,172.5,574.4482,168.5,578.4482" style="stroke: #000000; stroke-width: 1.0;"/><line style="stroke: #000000; stroke-width: 1.5;" x1="388" x2="388" y1="552.7378" y2="584.4482"/><polygon fill="#000000" points="384,574.4482,388,584.4482,392,574.4482,388,578.4482" style="stroke: #000000; stroke-width: 1.0;"/><line style="stroke: #000000; stroke-width: 1.5;" x1="248.5" x2="308" y1="540.7378" y2="540.7378"/><polygon fill="#000000" points="298,536.7378,308,540.7378,298,544.7378,302,540.7378" style="stroke: #000000; stroke-width: 1.0;"/><line style="stroke: #000000; stroke-width: 1.5;" x1="283.5" x2="283.5" y1="508.7378" y2="513.7378"/><line style="stroke: #000000; stroke-width: 1.5;" x1="283.5" x2="168.5" y1="513.7378" y2="513.7378"/><line style="stroke: #000000; stroke-width: 1.5;" x1="168.5" x2="168.5" y1="513.7378" y2="528.7378"/><polygon fill="#000000" points="164.5,518.7378,168.5,528.7378,172.5,518.7378,168.5,522.7378" style="stroke: #000000; stroke-width: 1.0;"/><line style="stroke: #000000; stroke-width: 1.5;" x1="468" x2="503" y1="540.7378" y2="540.7378"/><line style="stroke: #000000; stroke-width: 1.5;" x1="503" x2="503" y1="540.7378" y2="810.3037"/><polygon fill="#000000" points="499,800.3037,503,810.3037,507,800.3037,503,804.3037" style="stroke: #000000; stroke-width: 1.0;"/><line style="stroke: #000000; stroke-width: 1.5;" x1="168.5" x2="503" y1="810.3037" y2="810.3037"/><line style="stroke: #000000; stroke-width: 1.5;" x1="283.5" x2="283.5" y1="902.5693" y2="922.5693"/><polygon fill="#000000" points="279.5,912.5693,283.5,922.5693,287.5,912.5693,283.5,916.5693" style="stroke: #000000; stroke-width: 1.0;"/><line style="stroke: #000000; stroke-width: 1.5;" x1="283.5" x2="283.5" y1="956.5381" y2="976.5381"/><polygon fill="#000000" points="279.5,966.5381,283.5,976.5381,287.5,966.5381,283.5,970.5381" style="stroke: #000000; stroke-width: 1.0;"/><line style="stroke: #000000; stroke-width: 1.5;" x1="283.5" x2="283.5" y1="1112.8779" y2="1147.8779"/><polygon fill="#000000" points="279.5,1137.8779,283.5,1147.8779,287.5,1137.8779,283.5,1141.8779" style="stroke: #000000; stroke-width: 1.0;"/><line style="stroke: #000000; stroke-width: 1.5;" x1="283.5" x2="283.5" y1="1054.5068" y2="1078.9092"/><polygon fill="#000000" points="279.5,1068.9092,283.5,1078.9092,287.5,1068.9092,283.5,1072.9092" style="stroke: #000000; stroke-width: 1.0;"/><line style="stroke: #000000; stroke-width: 1.5;" x1="422.5" x2="434.5" y1="1042.5068" y2="1042.5068"/><polygon fill="#000000" points="430.5,1120.3779,434.5,1130.3779,438.5,1120.3779,434.5,1124.3779" style="stroke: #000000; stroke-width: 1.5;"/><line style="stroke: #000000; stroke-width: 1.5;" x1="434.5" x2="434.5" y1="1042.5068" y2="1213.8467"/><line style="stroke: #000000; stroke-width: 1.5;" x1="434.5" x2="295.5" y1="1213.8467" y2="1213.8467"/><polygon fill="#000000" points="305.5,1209.8467,295.5,1213.8467,305.5,1217.8467,301.5,1213.8467" style="stroke: #000000; stroke-width: 1.0;"/><line style="stroke: #000000; stroke-width: 1.5;" x1="283.5" x2="283.5" y1="1181.8467" y2="1201.8467"/><polygon fill="#000000" points="279.5,1191.8467,283.5,1201.8467,287.5,1191.8467,283.5,1195.8467" style="stroke: #000000; stroke-width: 1.0;"/><line style="stroke: #000000; stroke-width: 1.5;" x1="283.5" x2="283.5" y1="1010.5068" y2="1030.5068"/><polygon fill="#000000" points="279.5,1020.5068,283.5,1030.5068,287.5,1020.5068,283.5,1024.5068" style="stroke: #000000; stroke-width: 1.0;"/><line style="stroke: #000000; stroke-width: 1.5;" x1="283.5" x2="283.5" y1="1225.8467" y2="1245.8467"/><polygon fill="#000000" points="279.5,1235.8467,283.5,1245.8467,287.5,1235.8467,283.5,1239.8467" style="stroke: #000000; stroke-width: 1.0;"/><line style="stroke: #000000; stroke-width: 1.5;" x1="283.5" x2="283.5" y1="810.3037" y2="868.6006"/><polygon fill="#000000" points="279.5,858.6006,283.5,868.6006,287.5,858.6006,283.5,862.6006" style="stroke: #000000; stroke-width: 1.0;"/><line style="stroke: #000000; stroke-width: 1.5;" x1="283.5" x2="283.5" y1="1279.8154" y2="1311.8154"/><polygon fill="#000000" points="279.5,1301.8154,283.5,1311.8154,287.5,1301.8154,283.5,1305.8154" style="stroke: #000000; stroke-width: 1.0;"/><!--
@startuml
skinparam BackgroundColor White|White
skinparam ArrowColor Black

skinparam NoteBackgroundColor White
skinparam NoteBorderColor Black

skinparam ActivityBackgroundColor White
skinparam ActivityDiamondBackgroundColor White
skinparam ActivityBorderColor Black
skinparam ActivityDiamondBorderColor Black

title **Nuspell - Check Spelling - ""spell_priv(string s)""**\n

start

if (length **""s""** is greater or equal to global __""WORDMAXLENGTH""__?) then (yes)
    :return __""BAD_WORD""__;
	stop
else (no)
endif

#skyblue:do on **""s""** global input conversion;

partition "handle abbreviations and numbers  " {
    if (**""s""** is empty?) then (yes)
        :return __""GOOD_WORD""__;
	    stop
    elseif (last character **""s""** is __"".""__?) then (yes)
        :set **""abbreviation""** to __""TRUE""__;
    else (no)
        :set **""abbreviation""** to __""FALSE""__;
    endif

    if (**""abbreviation""** is __""TRUE""__?) then (yes)
        :remove from **""s""** trailing characters __"".""__;
        if (**""s""** is empty?) then (yes)
            :return __""GOOD_WORD""__;
	        stop
        else (no)
        endif
    elseif (<back:skyblue>//""is_number(s)""//</back> is __""TRUE""__?) then (yes)
        :return __""GOOD_WORD""__;
	    stop
    else (no)
    endif
} 
partition "handle break patterns  " {
    #skyblue:remove from **""s""** global ignored characters;
    :copy **""s""** to **""c""**;
    :set **""ret""** to <back:skyblue>//""spell_break(s)""//</back>;
    if (**""ret""** is not __""TRUE""__ and **""abbreviation""** is __""TRUE""__?) then (yes)
        :append to **""s""** character __"".""__;
        :set **""ret""** to <back:skyblue>//""spell_break(s)""//</back>;
    else (no)
    endif
    :return **""ret""**;
}

stop

@enduml

PlantUML version 1.2018.06(Mon May 21 12:34:53 CEST 2018)
(GPL source distribution)
Java Runtime: OpenJDK Runtime Environment
JVM: OpenJDK 64-Bit Server VM
Java Version: 10.0.2+13-Ubuntu-1ubuntu0.18.04.1
Operating System: Linux
OS Version: 4.15.0-32-generic
Default Encoding: UTF-8
Language: en
Country: US
--></g></svg>