<?xml version="1.0" encoding="UTF-8" standalone="no"?><svg xmlns="http://www.w3.org/2000/svg" xmlns:xlink="http://www.w3.org/1999/xlink" contentScriptType="application/ecmascript" contentStyleType="text/css" height="1151px" preserveAspectRatio="none" style="width:616px;height:1151px;" version="1.1" viewBox="0 0 616 1151" width="616px" zoomAndPan="magnify"><defs><linearGradient id="g7i1vvlcwiyql0" x1="0%" x2="100%" y1="50%" y2="50%"><stop offset="0%" stop-color="#FFFFFF"/><stop offset="100%" stop-color="#FFFFFF"/></linearGradient><filter height="300%" id="f7i1vvlcwiyql" width="300%" x="-1" y="-1"><feGaussianBlur result="blurOut" stdDeviation="2.0"/><feColorMatrix in="blurOut" result="blurOut2" type="matrix" values="0 0 0 0 0 0 0 0 0 0 0 0 0 0 0 0 0 0 .4 0"/><feOffset dx="4.0" dy="4.0" in="blurOut2" result="blurOut3"/><feBlend in="SourceGraphic" in2="blurOut3" mode="normal"/></filter><filter height="1" id="b7i1vvlcwiyql0" width="1" x="0" y="0"><feFlood flood-color="#87CEEB" result="flood"/><feComposite in="SourceGraphic" in2="flood" operator="over"/></filter></defs><g><rect fill="url(#g7i1vvlcwiyql0)" height="1151" style="stroke: none; stroke-width: 1.0;" width="616" x="0" y="0"/><text fill="#000000" font-family="Roboto Condensed" font-size="18" font-weight="bold" lengthAdjust="spacingAndGlyphs" textLength="192" x="12" y="28.8613">Nuspell - Check Spelling -</text><text fill="#000000" font-family="monospace" font-size="18" font-weight="bold" lengthAdjust="spacingAndGlyphs" textLength="396" x="208" y="29.4941">spell_break(string s, integer depth)</text><text fill="#000000" font-family="Roboto Condensed" font-size="18" font-weight="bold" lengthAdjust="spacingAndGlyphs" textLength="0" x="310" y="52.6006"/><ellipse cx="269.75" cy="67.4785" fill="#000000" filter="url(#f7i1vvlcwiyql)" rx="10" ry="10" style="stroke: none; stroke-width: 1.0;"/><rect fill="#FFFFFF" filter="url(#f7i1vvlcwiyql)" height="35.8262" rx="12.5" ry="12.5" style="stroke: #000000; stroke-width: 1.5;" width="180" x="179.75" y="97.4785"/><text fill="#000000" font-family="Roboto Condensed" font-size="12" lengthAdjust="spacingAndGlyphs" textLength="15" x="189.75" y="120.0527">set</text><text fill="#000000" font-family="monospace" font-size="12" font-weight="bold" lengthAdjust="spacingAndGlyphs" textLength="21" x="207.75" y="120.4746">ret</text><text fill="#000000" font-family="Roboto Condensed" font-size="12" lengthAdjust="spacingAndGlyphs" textLength="10" x="231.75" y="120.0527">to</text><text fill="#000000" filter="url(#b7i1vvlcwiyql0)" font-family="monospace" font-size="12" font-style="italic" lengthAdjust="spacingAndGlyphs" textLength="105" x="244.75" y="120.4746">spell_casing(s)</text><rect fill="#FFFFFF" filter="url(#f7i1vvlcwiyql)" height="35.8262" rx="12.5" ry="12.5" style="stroke: #000000; stroke-width: 1.5;" width="109" x="215.25" y="251.812"/><text fill="#000000" font-family="Roboto Condensed" font-size="12" lengthAdjust="spacingAndGlyphs" textLength="30" x="225.25" y="274.3862">return</text><text fill="#000000" font-family="monospace" font-size="12" lengthAdjust="spacingAndGlyphs" text-decoration="underline" textLength="56" x="258.25" y="274.8081">BAD_WORD</text><line style="stroke: #000000; stroke-width: 1.0;" x1="258.25" x2="314.25" y1="276.8081" y2="276.8081"/><ellipse cx="269.75" cy="324.2251" fill="none" filter="url(#f7i1vvlcwiyql)" rx="10" ry="10" style="stroke: #000000; stroke-width: 1.0;"/><ellipse cx="270.25" cy="324.7251" fill="#000000" filter="url(#f7i1vvlcwiyql)" rx="6" ry="6" style="stroke: none; stroke-width: 1.0;"/><polygon fill="#FFFFFF" filter="url(#f7i1vvlcwiyql)" points="157.25,202.5583,382.25,202.5583,394.25,214.5583,382.25,226.5583,157.25,226.5583,145.25,214.5583,157.25,202.5583" style="stroke: #000000; stroke-width: 1.5;"/><text fill="#000000" font-family="Roboto Condensed" font-size="11" lengthAdjust="spacingAndGlyphs" textLength="15" x="273.75" y="238.0847">yes</text><text fill="#000000" font-family="monospace" font-size="11" font-weight="bold" lengthAdjust="spacingAndGlyphs" textLength="21" x="157.25" y="219.2178">res</text><text fill="#000000" font-family="Roboto Condensed" font-size="11" lengthAdjust="spacingAndGlyphs" textLength="67" x="181.25" y="218.8311">contains global</text><text fill="#000000" font-family="monospace" font-size="11" font-style="italic" lengthAdjust="spacingAndGlyphs" textLength="126" x="251.25" y="219.2178">forbiddenword_flag</text><text fill="#000000" font-family="Roboto Condensed" font-size="11" lengthAdjust="spacingAndGlyphs" textLength="5" x="377.25" y="218.8311">?</text><text fill="#000000" font-family="Roboto Condensed" font-size="11" lengthAdjust="spacingAndGlyphs" textLength="11" x="394.25" y="211.5774">no</text><rect fill="#FFFFFF" filter="url(#f7i1vvlcwiyql)" height="35.8262" rx="12.5" ry="12.5" style="stroke: #000000; stroke-width: 1.5;" width="109" x="215.25" y="425.4788"/><text fill="#000000" font-family="Roboto Condensed" font-size="12" lengthAdjust="spacingAndGlyphs" textLength="30" x="225.25" y="448.053">return</text><text fill="#000000" font-family="monospace" font-size="12" lengthAdjust="spacingAndGlyphs" text-decoration="underline" textLength="56" x="258.25" y="448.4749">BAD_WORD</text><line style="stroke: #000000; stroke-width: 1.0;" x1="258.25" x2="314.25" y1="450.4749" y2="450.4749"/><ellipse cx="269.75" cy="497.8918" fill="none" filter="url(#f7i1vvlcwiyql)" rx="10" ry="10" style="stroke: #000000; stroke-width: 1.0;"/><ellipse cx="270.25" cy="498.3918" fill="#000000" filter="url(#f7i1vvlcwiyql)" rx="6" ry="6" style="stroke: none; stroke-width: 1.0;"/><polygon fill="#FFFFFF" filter="url(#f7i1vvlcwiyql)" points="103.75,376.2251,435.75,376.2251,447.75,388.2251,435.75,400.2251,103.75,400.2251,91.75,388.2251,103.75,376.2251" style="stroke: #000000; stroke-width: 1.5;"/><text fill="#000000" font-family="Roboto Condensed" font-size="11" lengthAdjust="spacingAndGlyphs" textLength="15" x="273.75" y="411.7515">yes</text><text fill="#000000" font-family="Roboto Condensed" font-size="11" lengthAdjust="spacingAndGlyphs" textLength="27" x="103.75" y="392.4978">global</text><text fill="#000000" font-family="monospace" font-size="11" font-style="italic" lengthAdjust="spacingAndGlyphs" textLength="77" x="133.75" y="392.8845">forbid_warn</text><text fill="#000000" font-family="Roboto Condensed" font-size="11" lengthAdjust="spacingAndGlyphs" textLength="8" x="213.75" y="392.4978">is</text><text fill="#000000" font-family="monospace" font-size="11" lengthAdjust="spacingAndGlyphs" text-decoration="underline" textLength="28" x="224.75" y="392.8845">TRUE</text><line style="stroke: #000000; stroke-width: 1.0;" x1="224.75" x2="252.75" y1="394.8845" y2="394.8845"/><text fill="#000000" font-family="Roboto Condensed" font-size="11" lengthAdjust="spacingAndGlyphs" textLength="15" x="255.75" y="392.4978">and</text><text fill="#000000" font-family="monospace" font-size="11" font-weight="bold" lengthAdjust="spacingAndGlyphs" textLength="21" x="273.75" y="392.8845">res</text><text fill="#000000" font-family="Roboto Condensed" font-size="11" lengthAdjust="spacingAndGlyphs" textLength="67" x="297.75" y="392.4978">contains global</text><text fill="#000000" font-family="monospace" font-size="11" font-style="italic" lengthAdjust="spacingAndGlyphs" textLength="63" x="367.75" y="392.8845">warn_flag</text><text fill="#000000" font-family="Roboto Condensed" font-size="11" lengthAdjust="spacingAndGlyphs" textLength="5" x="430.75" y="392.4978">?</text><text fill="#000000" font-family="Roboto Condensed" font-size="11" lengthAdjust="spacingAndGlyphs" textLength="11" x="447.75" y="385.2441">no</text><rect fill="#FFFFFF" filter="url(#f7i1vvlcwiyql)" height="35.8262" rx="12.5" ry="12.5" style="stroke: #000000; stroke-width: 1.5;" width="116" x="211.75" y="549.8918"/><text fill="#000000" font-family="Roboto Condensed" font-size="12" lengthAdjust="spacingAndGlyphs" textLength="30" x="221.75" y="572.4661">return</text><text fill="#000000" font-family="monospace" font-size="12" lengthAdjust="spacingAndGlyphs" text-decoration="underline" textLength="63" x="254.75" y="572.8879">GOOD_WORD</text><line style="stroke: #000000; stroke-width: 1.0;" x1="254.75" x2="317.75" y1="574.8879" y2="574.8879"/><ellipse cx="269.75" cy="615.718" fill="none" filter="url(#f7i1vvlcwiyql)" rx="10" ry="10" style="stroke: #000000; stroke-width: 1.0;"/><ellipse cx="270.25" cy="616.218" fill="#000000" filter="url(#f7i1vvlcwiyql)" rx="6" ry="6" style="stroke: none; stroke-width: 1.0;"/><polygon fill="#FFFFFF" filter="url(#f7i1vvlcwiyql)" points="228.25,153.3047,311.25,153.3047,323.25,165.3047,311.25,177.3047,228.25,177.3047,216.25,165.3047,228.25,153.3047" style="stroke: #000000; stroke-width: 1.5;"/><text fill="#000000" font-family="Roboto Condensed" font-size="11" lengthAdjust="spacingAndGlyphs" textLength="15" x="273.75" y="188.8311">yes</text><text fill="#000000" font-family="monospace" font-size="11" font-weight="bold" lengthAdjust="spacingAndGlyphs" textLength="21" x="228.25" y="169.9641">res</text><text fill="#000000" font-family="Roboto Condensed" font-size="11" lengthAdjust="spacingAndGlyphs" textLength="59" x="252.25" y="169.5774">is not empty?</text><text fill="#000000" font-family="Roboto Condensed" font-size="11" lengthAdjust="spacingAndGlyphs" textLength="11" x="323.25" y="162.3237">no</text><rect fill="#FFFFFF" filter="url(#f7i1vvlcwiyql)" height="35.8262" rx="12.5" ry="12.5" style="stroke: #000000; stroke-width: 1.5;" width="109" x="215.25" y="716.9717"/><text fill="#000000" font-family="Roboto Condensed" font-size="12" lengthAdjust="spacingAndGlyphs" textLength="30" x="225.25" y="739.5459">return</text><text fill="#000000" font-family="monospace" font-size="12" lengthAdjust="spacingAndGlyphs" text-decoration="underline" textLength="56" x="258.25" y="739.9678">BAD_WORD</text><line style="stroke: #000000; stroke-width: 1.0;" x1="258.25" x2="314.25" y1="741.9678" y2="741.9678"/><ellipse cx="269.75" cy="789.3848" fill="none" filter="url(#f7i1vvlcwiyql)" rx="10" ry="10" style="stroke: #000000; stroke-width: 1.0;"/><ellipse cx="270.25" cy="789.8848" fill="#000000" filter="url(#f7i1vvlcwiyql)" rx="6" ry="6" style="stroke: none; stroke-width: 1.0;"/><polygon fill="#FFFFFF" filter="url(#f7i1vvlcwiyql)" points="239.25,667.718,300.25,667.718,312.25,679.718,300.25,691.718,239.25,691.718,227.25,679.718,239.25,667.718" style="stroke: #000000; stroke-width: 1.5;"/><text fill="#000000" font-family="Roboto Condensed" font-size="11" lengthAdjust="spacingAndGlyphs" textLength="15" x="273.75" y="703.2444">yes</text><text fill="#000000" font-family="monospace" font-size="11" font-weight="bold" lengthAdjust="spacingAndGlyphs" textLength="35" x="239.25" y="684.3774">depth</text><text fill="#000000" font-family="Roboto Condensed" font-size="11" lengthAdjust="spacingAndGlyphs" textLength="8" x="277.25" y="683.9907">is</text><text fill="#000000" font-family="monospace" font-size="11" lengthAdjust="spacingAndGlyphs" text-decoration="underline" textLength="7" x="288.25" y="684.3774">9</text><line style="stroke: #000000; stroke-width: 1.0;" x1="288.25" x2="295.25" y1="686.3774" y2="686.3774"/><text fill="#000000" font-family="Roboto Condensed" font-size="11" lengthAdjust="spacingAndGlyphs" textLength="5" x="295.25" y="683.9907">?</text><text fill="#000000" font-family="Roboto Condensed" font-size="11" lengthAdjust="spacingAndGlyphs" textLength="11" x="312.25" y="676.7371">no</text><rect fill="#FFFFFF" filter="url(#f7i1vvlcwiyql)" height="35.8262" rx="12.5" ry="12.5" style="stroke: #000000; stroke-width: 1.5;" width="219" x="160.25" y="841.3848"/><text fill="#000000" font-family="Roboto Condensed" font-size="12" lengthAdjust="spacingAndGlyphs" textLength="15" x="170.25" y="863.959">set</text><text fill="#000000" font-family="monospace" font-size="12" font-weight="bold" lengthAdjust="spacingAndGlyphs" textLength="77" x="188.25" y="864.3809">break_table</text><text fill="#000000" font-family="Roboto Condensed" font-size="12" lengthAdjust="spacingAndGlyphs" textLength="101" x="268.25" y="863.959">to global break table</text><path d="M394.25,901.5515 L394.25,928.6965 L529.25,928.6965 L529.25,911.5515 L519.25,901.5515 L394.25,901.5515 " fill="#FFFFFF" filter="url(#f7i1vvlcwiyql)" style="stroke: #000000; stroke-width: 1.0;"/><path d="M519.25,901.5515 L519.25,911.5515 L529.25,911.5515 L519.25,901.5515 " fill="#FFFFFF" style="stroke: #000000; stroke-width: 1.0;"/><text fill="#000000" font-family="Roboto Condensed" font-size="13" font-style="italic" lengthAdjust="spacingAndGlyphs" textLength="114" x="400.25" y="920.1736">This will be exapanded</text><rect fill="#FFFFFF" filter="url(#f7i1vvlcwiyql)" height="35.8262" rx="12.5" ry="12.5" style="stroke: #000000; stroke-width: 1.5;" width="209" x="165.25" y="897.2109"/><text fill="#000000" font-family="Roboto Condensed" font-size="12" lengthAdjust="spacingAndGlyphs" textLength="189" x="175.25" y="919.7852">handle break pattern in start of a word</text><path d="M391.75,957.3777 L391.75,984.5227 L526.75,984.5227 L526.75,967.3777 L516.75,957.3777 L391.75,957.3777 " fill="#FFFFFF" filter="url(#f7i1vvlcwiyql)" style="stroke: #000000; stroke-width: 1.0;"/><path d="M516.75,957.3777 L516.75,967.3777 L526.75,967.3777 L516.75,957.3777 " fill="#FFFFFF" style="stroke: #000000; stroke-width: 1.0;"/><text fill="#000000" font-family="Roboto Condensed" font-size="13" font-style="italic" lengthAdjust="spacingAndGlyphs" textLength="114" x="397.75" y="975.9998">This will be exapanded</text><rect fill="#FFFFFF" filter="url(#f7i1vvlcwiyql)" height="35.8262" rx="12.5" ry="12.5" style="stroke: #000000; stroke-width: 1.5;" width="204" x="167.75" y="953.0371"/><text fill="#000000" font-family="Roboto Condensed" font-size="12" lengthAdjust="spacingAndGlyphs" textLength="184" x="177.75" y="975.6113">handle break pattern in end of a word</text><path d="M399.25,1013.2039 L399.25,1040.3489 L534.25,1040.3489 L534.25,1023.2039 L524.25,1013.2039 L399.25,1013.2039 " fill="#FFFFFF" filter="url(#f7i1vvlcwiyql)" style="stroke: #000000; stroke-width: 1.0;"/><path d="M524.25,1013.2039 L524.25,1023.2039 L534.25,1023.2039 L524.25,1013.2039 " fill="#FFFFFF" style="stroke: #000000; stroke-width: 1.0;"/><text fill="#000000" font-family="Roboto Condensed" font-size="13" font-style="italic" lengthAdjust="spacingAndGlyphs" textLength="114" x="405.25" y="1031.8259">This will be exapanded</text><rect fill="#FFFFFF" filter="url(#f7i1vvlcwiyql)" height="35.8262" rx="12.5" ry="12.5" style="stroke: #000000; stroke-width: 1.5;" width="219" x="160.25" y="1008.8633"/><text fill="#000000" font-family="Roboto Condensed" font-size="12" lengthAdjust="spacingAndGlyphs" textLength="199" x="170.25" y="1031.4375">handle break pattern in middle of a word</text><rect fill="#FFFFFF" filter="url(#f7i1vvlcwiyql)" height="35.8262" rx="12.5" ry="12.5" style="stroke: #000000; stroke-width: 1.5;" width="109" x="215.25" y="1064.6895"/><text fill="#000000" font-family="Roboto Condensed" font-size="12" lengthAdjust="spacingAndGlyphs" textLength="30" x="225.25" y="1087.2637">return</text><text fill="#000000" font-family="monospace" font-size="12" lengthAdjust="spacingAndGlyphs" text-decoration="underline" textLength="56" x="258.25" y="1087.6855">BAD_WORD</text><line style="stroke: #000000; stroke-width: 1.0;" x1="258.25" x2="314.25" y1="1089.6855" y2="1089.6855"/><ellipse cx="269.75" cy="1130.5156" fill="none" filter="url(#f7i1vvlcwiyql)" rx="10" ry="10" style="stroke: #000000; stroke-width: 1.0;"/><ellipse cx="270.25" cy="1131.0156" fill="#000000" filter="url(#f7i1vvlcwiyql)" rx="6" ry="6" style="stroke: none; stroke-width: 1.0;"/><line style="stroke: #000000; stroke-width: 1.5;" x1="269.75" x2="269.75" y1="77.4785" y2="97.4785"/><polygon fill="#000000" points="265.75,87.4785,269.75,97.4785,273.75,87.4785,269.75,91.4785" style="stroke: #000000; stroke-width: 1.0;"/><line style="stroke: #000000; stroke-width: 1.5;" x1="269.75" x2="269.75" y1="287.6382" y2="314.2251"/><polygon fill="#000000" points="265.75,304.2251,269.75,314.2251,273.75,304.2251,269.75,308.2251" style="stroke: #000000; stroke-width: 1.0;"/><line style="stroke: #000000; stroke-width: 1.5;" x1="269.75" x2="269.75" y1="226.5583" y2="251.812"/><polygon fill="#000000" points="265.75,241.812,269.75,251.812,273.75,241.812,269.75,245.812" style="stroke: #000000; stroke-width: 1.0;"/><line style="stroke: #000000; stroke-width: 1.5;" x1="394.25" x2="406.25" y1="214.5583" y2="214.5583"/><polygon fill="#000000" points="402.25,284.2251,406.25,294.2251,410.25,284.2251,406.25,288.2251" style="stroke: #000000; stroke-width: 1.5;"/><line style="stroke: #000000; stroke-width: 1.5;" x1="406.25" x2="406.25" y1="214.5583" y2="356.2251"/><line style="stroke: #000000; stroke-width: 1.5;" x1="406.25" x2="269.75" y1="356.2251" y2="356.2251"/><line style="stroke: #000000; stroke-width: 1.5;" x1="269.75" x2="269.75" y1="356.2251" y2="376.2251"/><polygon fill="#000000" points="265.75,366.2251,269.75,376.2251,273.75,366.2251,269.75,370.2251" style="stroke: #000000; stroke-width: 1.0;"/><line style="stroke: #000000; stroke-width: 1.5;" x1="269.75" x2="269.75" y1="461.3049" y2="487.8918"/><polygon fill="#000000" points="265.75,477.8918,269.75,487.8918,273.75,477.8918,269.75,481.8918" style="stroke: #000000; stroke-width: 1.0;"/><line style="stroke: #000000; stroke-width: 1.5;" x1="269.75" x2="269.75" y1="400.2251" y2="425.4788"/><polygon fill="#000000" points="265.75,415.4788,269.75,425.4788,273.75,415.4788,269.75,419.4788" style="stroke: #000000; stroke-width: 1.0;"/><line style="stroke: #000000; stroke-width: 1.5;" x1="447.75" x2="459.75" y1="388.2251" y2="388.2251"/><polygon fill="#000000" points="455.75,457.8918,459.75,467.8918,463.75,457.8918,459.75,461.8918" style="stroke: #000000; stroke-width: 1.5;"/><line style="stroke: #000000; stroke-width: 1.5;" x1="459.75" x2="459.75" y1="388.2251" y2="529.8918"/><line style="stroke: #000000; stroke-width: 1.5;" x1="459.75" x2="269.75" y1="529.8918" y2="529.8918"/><line style="stroke: #000000; stroke-width: 1.5;" x1="269.75" x2="269.75" y1="529.8918" y2="549.8918"/><polygon fill="#000000" points="265.75,539.8918,269.75,549.8918,273.75,539.8918,269.75,543.8918" style="stroke: #000000; stroke-width: 1.0;"/><line style="stroke: #000000; stroke-width: 1.5;" x1="269.75" x2="269.75" y1="585.718" y2="605.718"/><polygon fill="#000000" points="265.75,595.718,269.75,605.718,273.75,595.718,269.75,599.718" style="stroke: #000000; stroke-width: 1.0;"/><line style="stroke: #000000; stroke-width: 1.5;" x1="269.75" x2="269.75" y1="177.3047" y2="202.5583"/><polygon fill="#000000" points="265.75,192.5583,269.75,202.5583,273.75,192.5583,269.75,196.5583" style="stroke: #000000; stroke-width: 1.0;"/><line style="stroke: #000000; stroke-width: 1.5;" x1="323.25" x2="469.75" y1="165.3047" y2="165.3047"/><polygon fill="#000000" points="465.75,408.6382,469.75,418.6382,473.75,408.6382,469.75,412.6382" style="stroke: #000000; stroke-width: 1.5;"/><line style="stroke: #000000; stroke-width: 1.5;" x1="469.75" x2="469.75" y1="165.3047" y2="647.718"/><line style="stroke: #000000; stroke-width: 1.5;" x1="469.75" x2="269.75" y1="647.718" y2="647.718"/><line style="stroke: #000000; stroke-width: 1.5;" x1="269.75" x2="269.75" y1="647.718" y2="667.718"/><polygon fill="#000000" points="265.75,657.718,269.75,667.718,273.75,657.718,269.75,661.718" style="stroke: #000000; stroke-width: 1.0;"/><line style="stroke: #000000; stroke-width: 1.5;" x1="269.75" x2="269.75" y1="133.3047" y2="153.3047"/><polygon fill="#000000" points="265.75,143.3047,269.75,153.3047,273.75,143.3047,269.75,147.3047" style="stroke: #000000; stroke-width: 1.0;"/><line style="stroke: #000000; stroke-width: 1.5;" x1="269.75" x2="269.75" y1="752.7979" y2="779.3848"/><polygon fill="#000000" points="265.75,769.3848,269.75,779.3848,273.75,769.3848,269.75,773.3848" style="stroke: #000000; stroke-width: 1.0;"/><line style="stroke: #000000; stroke-width: 1.5;" x1="269.75" x2="269.75" y1="691.718" y2="716.9717"/><polygon fill="#000000" points="265.75,706.9717,269.75,716.9717,273.75,706.9717,269.75,710.9717" style="stroke: #000000; stroke-width: 1.0;"/><line style="stroke: #000000; stroke-width: 1.5;" x1="312.25" x2="334.25" y1="679.718" y2="679.718"/><polygon fill="#000000" points="330.25,749.3848,334.25,759.3848,338.25,749.3848,334.25,753.3848" style="stroke: #000000; stroke-width: 1.5;"/><line style="stroke: #000000; stroke-width: 1.5;" x1="334.25" x2="334.25" y1="679.718" y2="821.3848"/><line style="stroke: #000000; stroke-width: 1.5;" x1="334.25" x2="269.75" y1="821.3848" y2="821.3848"/><line style="stroke: #000000; stroke-width: 1.5;" x1="269.75" x2="269.75" y1="821.3848" y2="841.3848"/><polygon fill="#000000" points="265.75,831.3848,269.75,841.3848,273.75,831.3848,269.75,835.3848" style="stroke: #000000; stroke-width: 1.0;"/><line style="stroke: #000000; stroke-width: 1.5;" x1="269.75" x2="269.75" y1="877.2109" y2="897.2109"/><polygon fill="#000000" points="265.75,887.2109,269.75,897.2109,273.75,887.2109,269.75,891.2109" style="stroke: #000000; stroke-width: 1.0;"/><line style="stroke: #000000; stroke-width: 1.5;" x1="269.75" x2="269.75" y1="933.0371" y2="953.0371"/><polygon fill="#000000" points="265.75,943.0371,269.75,953.0371,273.75,943.0371,269.75,947.0371" style="stroke: #000000; stroke-width: 1.0;"/><line style="stroke: #000000; stroke-width: 1.5;" x1="269.75" x2="269.75" y1="988.8633" y2="1008.8633"/><polygon fill="#000000" points="265.75,998.8633,269.75,1008.8633,273.75,998.8633,269.75,1002.8633" style="stroke: #000000; stroke-width: 1.0;"/><line style="stroke: #000000; stroke-width: 1.5;" x1="269.75" x2="269.75" y1="1044.6895" y2="1064.6895"/><polygon fill="#000000" points="265.75,1054.6895,269.75,1064.6895,273.75,1054.6895,269.75,1058.6895" style="stroke: #000000; stroke-width: 1.0;"/><line style="stroke: #000000; stroke-width: 1.5;" x1="269.75" x2="269.75" y1="1100.5156" y2="1120.5156"/><polygon fill="#000000" points="265.75,1110.5156,269.75,1120.5156,273.75,1110.5156,269.75,1114.5156" style="stroke: #000000; stroke-width: 1.0;"/><!--
@startuml
skinparam BackgroundColor White|White
skinparam ArrowColor Black
skinparam DefaultFontName Roboto Condensed
skinparam TitleFontStyle Bold

skinparam NoteBackgroundColor White
skinparam NoteBorderColor Black

skinparam UsecaseBackgroundColor White
skinparam ActorBackgroundColor White
skinparam UsecaseBorderColor Black
skinparam ActorBorderColor Black

skinparam usecase {
	BackgroundColor<<for now out of scope>> Gray
}

skinparam StateBackgroundColor White
skinparam StateBorderColor Black

skinparam ActivityBackgroundColor White
skinparam ActivityDiamondBackgroundColor White
skinparam ActivityBorderColor Black
skinparam ActivityDiamondBorderColor Black

title Nuspell - Check Spelling - ""spell_break(string s, integer depth)""\n

start

:set **""ret""** to <back:skyblue>//""spell_casing(s)""//</back>;
if (**""res""** is not empty?) then (yes)
    if (**""res""** contains global //""forbiddenword_flag""//?) then (yes)
        :return __""BAD_WORD""__;
	    stop
    else (no)
    endif
    if (global //""forbid_warn""// is __""TRUE""__ and **""res""** contains global //""warn_flag""//?) then (yes)
        :return __""BAD_WORD""__;
	    stop
    else (no)
    endif
    :return __""GOOD_WORD""__;
    stop
else (no)
endif

if (**""depth""** is __""9""__?) then (yes)
    :return __""BAD_WORD""__;
	stop
else (no)
endif

:set **""break_table""** to global break table;

:handle break pattern in start of a word;
floating note right: //This will be exapanded//
:handle break pattern in end of a word;
floating note right: //This will be exapanded//
:handle break pattern in middle of a word;
floating note right: //This will be exapanded//

:return __""BAD_WORD""__;

stop

@enduml

PlantUML version 1.2018.06(Mon May 21 12:34:53 CEST 2018)
(GPL source distribution)
Java Runtime: OpenJDK Runtime Environment
JVM: OpenJDK 64-Bit Server VM
Java Version: 10.0.2+13-Ubuntu-1ubuntu0.18.04.2
Operating System: Linux
OS Version: 4.15.0-33-generic
Default Encoding: UTF-8
Language: en
Country: US
--></g></svg>