<?xml version="1.0" encoding="UTF-8" standalone="no"?><svg xmlns="http://www.w3.org/2000/svg" xmlns:xlink="http://www.w3.org/1999/xlink" contentScriptType="application/ecmascript" contentStyleType="text/css" height="1126px" preserveAspectRatio="none" style="width:683px;height:1126px;" version="1.1" viewBox="0 0 683 1126" width="683px" zoomAndPan="magnify"><defs><linearGradient id="gch2kzs0n9vxz0" x1="0%" x2="100%" y1="50%" y2="50%"><stop offset="0%" stop-color="#FFFFFF"/><stop offset="100%" stop-color="#FFFFFF"/></linearGradient><filter height="300%" id="fch2kzs0n9vxz" width="300%" x="-1" y="-1"><feGaussianBlur result="blurOut" stdDeviation="2.0"/><feColorMatrix in="blurOut" result="blurOut2" type="matrix" values="0 0 0 0 0 0 0 0 0 0 0 0 0 0 0 0 0 0 .4 0"/><feOffset dx="4.0" dy="4.0" in="blurOut2" result="blurOut3"/><feBlend in="SourceGraphic" in2="blurOut3" mode="normal"/></filter><filter height="1" id="bch2kzs0n9vxz0" width="1" x="0" y="0"><feFlood flood-color="#87CEEB" result="flood"/><feComposite in="SourceGraphic" in2="flood" operator="over"/></filter></defs><g><rect fill="url(#gch2kzs0n9vxz0)" height="1126" style="stroke: none; stroke-width: 1.0;" width="683" x="0" y="0"/><text fill="#000000" font-family="sans-serif" font-size="18" font-weight="bold" lengthAdjust="spacingAndGlyphs" textLength="257" x="12" y="26.708">Nuspell - Check Spelling -</text><text fill="#000000" font-family="monospace" font-size="18" font-weight="bold" lengthAdjust="spacingAndGlyphs" textLength="396" x="275" y="26.708">spell_break(string s, integer depth)</text><text fill="#000000" font-family="sans-serif" font-size="18" lengthAdjust="spacingAndGlyphs" textLength="0" x="344.5" y="47.6611"/><ellipse cx="285.5" cy="61.9063" fill="#000000" filter="url(#fch2kzs0n9vxz)" rx="10" ry="10" style="stroke: none; stroke-width: 1.0;"/><rect fill="#FFFFFF" filter="url(#fch2kzs0n9vxz)" height="33.9688" rx="12.5" ry="12.5" style="stroke: #000000; stroke-width: 1.5;" width="191" x="190" y="91.9063"/><text fill="#000000" font-family="sans-serif" font-size="12" lengthAdjust="spacingAndGlyphs" textLength="20" x="200" y="113.0449">set</text><text fill="#000000" font-family="monospace" font-size="12" font-weight="bold" lengthAdjust="spacingAndGlyphs" textLength="21" x="224" y="113.0449">ret</text><text fill="#000000" font-family="sans-serif" font-size="12" lengthAdjust="spacingAndGlyphs" textLength="13" x="249" y="113.0449">to</text><text fill="#000000" filter="url(#bch2kzs0n9vxz0)" font-family="monospace" font-size="12" font-style="italic" lengthAdjust="spacingAndGlyphs" textLength="105" x="266" y="113.0449">spell_casing(s)</text><rect fill="#FFFFFF" filter="url(#fch2kzs0n9vxz)" height="33.9688" rx="12.5" ry="12.5" style="stroke: #000000; stroke-width: 1.5;" width="119" x="226" y="242.6797"/><text fill="#000000" font-family="sans-serif" font-size="12" lengthAdjust="spacingAndGlyphs" textLength="39" x="236" y="263.8184">return</text><text fill="#000000" font-family="monospace" font-size="12" lengthAdjust="spacingAndGlyphs" text-decoration="underline" textLength="56" x="279" y="263.8184">BAD_WORD</text><line style="stroke: #000000; stroke-width: 1.0;" x1="279" x2="335" y1="265.8184" y2="265.8184"/><ellipse cx="285.5" cy="314.1641" fill="none" filter="url(#fch2kzs0n9vxz)" rx="10" ry="10" style="stroke: #000000; stroke-width: 1.0;"/><ellipse cx="286" cy="314.6641" fill="#000000" filter="url(#fch2kzs0n9vxz)" rx="6" ry="6" style="stroke: none; stroke-width: 1.0;"/><polygon fill="#FFFFFF" filter="url(#fch2kzs0n9vxz)" points="162,194.2773,409,194.2773,421,206.2773,409,218.2773,162,218.2773,150,206.2773,162,194.2773" style="stroke: #000000; stroke-width: 1.5;"/><text fill="#000000" font-family="sans-serif" font-size="11" lengthAdjust="spacingAndGlyphs" textLength="20" x="289.5" y="228.4878">yes</text><text fill="#000000" font-family="monospace" font-size="11" font-weight="bold" lengthAdjust="spacingAndGlyphs" textLength="21" x="162" y="210.0854">res</text><text fill="#000000" font-family="sans-serif" font-size="11" lengthAdjust="spacingAndGlyphs" textLength="86" x="187" y="210.0854">contains global</text><text fill="#000000" font-family="monospace" font-size="11" font-style="italic" lengthAdjust="spacingAndGlyphs" textLength="126" x="277" y="210.0854">forbiddenword_flag</text><text fill="#000000" font-family="sans-serif" font-size="11" lengthAdjust="spacingAndGlyphs" textLength="6" x="403" y="210.0854">?</text><text fill="#000000" font-family="sans-serif" font-size="11" lengthAdjust="spacingAndGlyphs" textLength="14" x="421" y="203.6831">no</text><rect fill="#FFFFFF" filter="url(#fch2kzs0n9vxz)" height="33.9688" rx="12.5" ry="12.5" style="stroke: #000000; stroke-width: 1.5;" width="119" x="226" y="414.5664"/><text fill="#000000" font-family="sans-serif" font-size="12" lengthAdjust="spacingAndGlyphs" textLength="39" x="236" y="435.7051">return</text><text fill="#000000" font-family="monospace" font-size="12" lengthAdjust="spacingAndGlyphs" text-decoration="underline" textLength="56" x="279" y="435.7051">BAD_WORD</text><line style="stroke: #000000; stroke-width: 1.0;" x1="279" x2="335" y1="437.7051" y2="437.7051"/><ellipse cx="285.5" cy="486.0508" fill="none" filter="url(#fch2kzs0n9vxz)" rx="10" ry="10" style="stroke: #000000; stroke-width: 1.0;"/><ellipse cx="286" cy="486.5508" fill="#000000" filter="url(#fch2kzs0n9vxz)" rx="6" ry="6" style="stroke: none; stroke-width: 1.0;"/><polygon fill="#FFFFFF" filter="url(#fch2kzs0n9vxz)" points="98.5,366.1641,472.5,366.1641,484.5,378.1641,472.5,390.1641,98.5,390.1641,86.5,378.1641,98.5,366.1641" style="stroke: #000000; stroke-width: 1.5;"/><text fill="#000000" font-family="sans-serif" font-size="11" lengthAdjust="spacingAndGlyphs" textLength="20" x="289.5" y="400.3745">yes</text><text fill="#000000" font-family="sans-serif" font-size="11" lengthAdjust="spacingAndGlyphs" textLength="34" x="98.5" y="381.9722">global</text><text fill="#000000" font-family="monospace" font-size="11" font-style="italic" lengthAdjust="spacingAndGlyphs" textLength="77" x="136.5" y="381.9722">forbid_warn</text><text fill="#000000" font-family="sans-serif" font-size="11" lengthAdjust="spacingAndGlyphs" textLength="10" x="217.5" y="381.9722">is</text><text fill="#000000" font-family="monospace" font-size="11" lengthAdjust="spacingAndGlyphs" text-decoration="underline" textLength="28" x="231.5" y="381.9722">TRUE</text><line style="stroke: #000000; stroke-width: 1.0;" x1="231.5" x2="259.5" y1="383.9722" y2="383.9722"/><text fill="#000000" font-family="sans-serif" font-size="11" lengthAdjust="spacingAndGlyphs" textLength="21" x="263.5" y="381.9722">and</text><text fill="#000000" font-family="monospace" font-size="11" font-weight="bold" lengthAdjust="spacingAndGlyphs" textLength="21" x="288.5" y="381.9722">res</text><text fill="#000000" font-family="sans-serif" font-size="11" lengthAdjust="spacingAndGlyphs" textLength="86" x="313.5" y="381.9722">contains global</text><text fill="#000000" font-family="monospace" font-size="11" font-style="italic" lengthAdjust="spacingAndGlyphs" textLength="63" x="403.5" y="381.9722">warn_flag</text><text fill="#000000" font-family="sans-serif" font-size="11" lengthAdjust="spacingAndGlyphs" textLength="6" x="466.5" y="381.9722">?</text><text fill="#000000" font-family="sans-serif" font-size="11" lengthAdjust="spacingAndGlyphs" textLength="14" x="484.5" y="375.5698">no</text><rect fill="#FFFFFF" filter="url(#fch2kzs0n9vxz)" height="33.9688" rx="12.5" ry="12.5" style="stroke: #000000; stroke-width: 1.5;" width="126" x="222.5" y="538.0508"/><text fill="#000000" font-family="sans-serif" font-size="12" lengthAdjust="spacingAndGlyphs" textLength="39" x="232.5" y="559.1895">return</text><text fill="#000000" font-family="monospace" font-size="12" lengthAdjust="spacingAndGlyphs" text-decoration="underline" textLength="63" x="275.5" y="559.1895">GOOD_WORD</text><line style="stroke: #000000; stroke-width: 1.0;" x1="275.5" x2="338.5" y1="561.1895" y2="561.1895"/><ellipse cx="285.5" cy="602.0195" fill="none" filter="url(#fch2kzs0n9vxz)" rx="10" ry="10" style="stroke: #000000; stroke-width: 1.0;"/><ellipse cx="286" cy="602.5195" fill="#000000" filter="url(#fch2kzs0n9vxz)" rx="6" ry="6" style="stroke: none; stroke-width: 1.0;"/><polygon fill="#FFFFFF" filter="url(#fch2kzs0n9vxz)" points="234.5,145.875,336.5,145.875,348.5,157.875,336.5,169.875,234.5,169.875,222.5,157.875,234.5,145.875" style="stroke: #000000; stroke-width: 1.5;"/><text fill="#000000" font-family="sans-serif" font-size="11" lengthAdjust="spacingAndGlyphs" textLength="20" x="289.5" y="180.0854">yes</text><text fill="#000000" font-family="monospace" font-size="11" font-weight="bold" lengthAdjust="spacingAndGlyphs" textLength="21" x="234.5" y="161.6831">res</text><text fill="#000000" font-family="sans-serif" font-size="11" lengthAdjust="spacingAndGlyphs" textLength="77" x="259.5" y="161.6831">is not empty?</text><text fill="#000000" font-family="sans-serif" font-size="11" lengthAdjust="spacingAndGlyphs" textLength="14" x="348.5" y="155.2808">no</text><rect fill="#FFFFFF" filter="url(#fch2kzs0n9vxz)" height="33.9688" rx="12.5" ry="12.5" style="stroke: #000000; stroke-width: 1.5;" width="119" x="226" y="702.4219"/><text fill="#000000" font-family="sans-serif" font-size="12" lengthAdjust="spacingAndGlyphs" textLength="39" x="236" y="723.5605">return</text><text fill="#000000" font-family="monospace" font-size="12" lengthAdjust="spacingAndGlyphs" text-decoration="underline" textLength="56" x="279" y="723.5605">BAD_WORD</text><line style="stroke: #000000; stroke-width: 1.0;" x1="279" x2="335" y1="725.5605" y2="725.5605"/><ellipse cx="285.5" cy="773.9063" fill="none" filter="url(#fch2kzs0n9vxz)" rx="10" ry="10" style="stroke: #000000; stroke-width: 1.0;"/><ellipse cx="286" cy="774.4063" fill="#000000" filter="url(#fch2kzs0n9vxz)" rx="6" ry="6" style="stroke: none; stroke-width: 1.0;"/><polygon fill="#FFFFFF" filter="url(#fch2kzs0n9vxz)" points="252.5,654.0195,318.5,654.0195,330.5,666.0195,318.5,678.0195,252.5,678.0195,240.5,666.0195,252.5,654.0195" style="stroke: #000000; stroke-width: 1.5;"/><text fill="#000000" font-family="sans-serif" font-size="11" lengthAdjust="spacingAndGlyphs" textLength="20" x="289.5" y="688.23">yes</text><text fill="#000000" font-family="monospace" font-size="11" font-weight="bold" lengthAdjust="spacingAndGlyphs" textLength="35" x="252.5" y="669.8276">depth</text><text fill="#000000" font-family="sans-serif" font-size="11" lengthAdjust="spacingAndGlyphs" textLength="10" x="291.5" y="669.8276">is</text><text fill="#000000" font-family="monospace" font-size="11" lengthAdjust="spacingAndGlyphs" text-decoration="underline" textLength="7" x="305.5" y="669.8276">9</text><line style="stroke: #000000; stroke-width: 1.0;" x1="305.5" x2="312.5" y1="671.8276" y2="671.8276"/><text fill="#000000" font-family="sans-serif" font-size="11" lengthAdjust="spacingAndGlyphs" textLength="6" x="312.5" y="669.8276">?</text><text fill="#000000" font-family="sans-serif" font-size="11" lengthAdjust="spacingAndGlyphs" textLength="14" x="330.5" y="663.4253">no</text><rect fill="#FFFFFF" filter="url(#fch2kzs0n9vxz)" height="33.9688" rx="12.5" ry="12.5" style="stroke: #000000; stroke-width: 1.5;" width="256" x="157.5" y="825.9063"/><text fill="#000000" font-family="sans-serif" font-size="12" lengthAdjust="spacingAndGlyphs" textLength="20" x="167.5" y="847.0449">set</text><text fill="#000000" font-family="monospace" font-size="12" font-weight="bold" lengthAdjust="spacingAndGlyphs" textLength="77" x="191.5" y="847.0449">break_table</text><text fill="#000000" font-family="sans-serif" font-size="12" lengthAdjust="spacingAndGlyphs" textLength="131" x="272.5" y="847.0449">to global break table</text><path d="M438,884.293 L438,909.4258 L601,909.4258 L601,894.293 L591,884.293 L438,884.293 " fill="#FFFFFF" filter="url(#fch2kzs0n9vxz)" style="stroke: #000000; stroke-width: 1.0;"/><path d="M591,884.293 L591,894.293 L601,894.293 L591,884.293 " fill="#FFFFFF" style="stroke: #000000; stroke-width: 1.0;"/><text fill="#000000" font-family="sans-serif" font-size="13" font-style="italic" lengthAdjust="spacingAndGlyphs" textLength="142" x="444" y="901.3599">This will be exapanded</text><rect fill="#FFFFFF" filter="url(#fch2kzs0n9vxz)" height="33.9688" rx="12.5" ry="12.5" style="stroke: #000000; stroke-width: 1.5;" width="265" x="153" y="879.875"/><text fill="#000000" font-family="sans-serif" font-size="12" lengthAdjust="spacingAndGlyphs" textLength="245" x="163" y="901.0137">handle break pattern in start of a word</text><path d="M435,938.2617 L435,963.3945 L598,963.3945 L598,948.2617 L588,938.2617 L435,938.2617 " fill="#FFFFFF" filter="url(#fch2kzs0n9vxz)" style="stroke: #000000; stroke-width: 1.0;"/><path d="M588,938.2617 L588,948.2617 L598,948.2617 L588,938.2617 " fill="#FFFFFF" style="stroke: #000000; stroke-width: 1.0;"/><text fill="#000000" font-family="sans-serif" font-size="13" font-style="italic" lengthAdjust="spacingAndGlyphs" textLength="142" x="441" y="955.3286">This will be exapanded</text><rect fill="#FFFFFF" filter="url(#fch2kzs0n9vxz)" height="33.9688" rx="12.5" ry="12.5" style="stroke: #000000; stroke-width: 1.5;" width="259" x="156" y="933.8438"/><text fill="#000000" font-family="sans-serif" font-size="12" lengthAdjust="spacingAndGlyphs" textLength="239" x="166" y="954.9824">handle break pattern in end of a word</text><path d="M443.5,992.2305 L443.5,1017.3633 L606.5,1017.3633 L606.5,1002.2305 L596.5,992.2305 L443.5,992.2305 " fill="#FFFFFF" filter="url(#fch2kzs0n9vxz)" style="stroke: #000000; stroke-width: 1.0;"/><path d="M596.5,992.2305 L596.5,1002.2305 L606.5,1002.2305 L596.5,992.2305 " fill="#FFFFFF" style="stroke: #000000; stroke-width: 1.0;"/><text fill="#000000" font-family="sans-serif" font-size="13" font-style="italic" lengthAdjust="spacingAndGlyphs" textLength="142" x="449.5" y="1009.2974">This will be exapanded</text><rect fill="#FFFFFF" filter="url(#fch2kzs0n9vxz)" height="33.9688" rx="12.5" ry="12.5" style="stroke: #000000; stroke-width: 1.5;" width="276" x="147.5" y="987.8125"/><text fill="#000000" font-family="sans-serif" font-size="12" lengthAdjust="spacingAndGlyphs" textLength="256" x="157.5" y="1008.9512">handle break pattern in middle of a word</text><rect fill="#FFFFFF" filter="url(#fch2kzs0n9vxz)" height="33.9688" rx="12.5" ry="12.5" style="stroke: #000000; stroke-width: 1.5;" width="119" x="226" y="1041.7813"/><text fill="#000000" font-family="sans-serif" font-size="12" lengthAdjust="spacingAndGlyphs" textLength="39" x="236" y="1062.9199">return</text><text fill="#000000" font-family="monospace" font-size="12" lengthAdjust="spacingAndGlyphs" text-decoration="underline" textLength="56" x="279" y="1062.9199">BAD_WORD</text><line style="stroke: #000000; stroke-width: 1.0;" x1="279" x2="335" y1="1064.9199" y2="1064.9199"/><ellipse cx="285.5" cy="1105.75" fill="none" filter="url(#fch2kzs0n9vxz)" rx="10" ry="10" style="stroke: #000000; stroke-width: 1.0;"/><ellipse cx="286" cy="1106.25" fill="#000000" filter="url(#fch2kzs0n9vxz)" rx="6" ry="6" style="stroke: none; stroke-width: 1.0;"/><line style="stroke: #000000; stroke-width: 1.5;" x1="285.5" x2="285.5" y1="71.9063" y2="91.9063"/><polygon fill="#000000" points="281.5,81.9063,285.5,91.9063,289.5,81.9063,285.5,85.9063" style="stroke: #000000; stroke-width: 1.0;"/><line style="stroke: #000000; stroke-width: 1.5;" x1="285.5" x2="285.5" y1="276.6484" y2="304.1641"/><polygon fill="#000000" points="281.5,294.1641,285.5,304.1641,289.5,294.1641,285.5,298.1641" style="stroke: #000000; stroke-width: 1.0;"/><line style="stroke: #000000; stroke-width: 1.5;" x1="285.5" x2="285.5" y1="218.2773" y2="242.6797"/><polygon fill="#000000" points="281.5,232.6797,285.5,242.6797,289.5,232.6797,285.5,236.6797" style="stroke: #000000; stroke-width: 1.0;"/><line style="stroke: #000000; stroke-width: 1.5;" x1="421" x2="433" y1="206.2773" y2="206.2773"/><polygon fill="#000000" points="429,274.1641,433,284.1641,437,274.1641,433,278.1641" style="stroke: #000000; stroke-width: 1.5;"/><line style="stroke: #000000; stroke-width: 1.5;" x1="433" x2="433" y1="206.2773" y2="346.1641"/><line style="stroke: #000000; stroke-width: 1.5;" x1="433" x2="285.5" y1="346.1641" y2="346.1641"/><line style="stroke: #000000; stroke-width: 1.5;" x1="285.5" x2="285.5" y1="346.1641" y2="366.1641"/><polygon fill="#000000" points="281.5,356.1641,285.5,366.1641,289.5,356.1641,285.5,360.1641" style="stroke: #000000; stroke-width: 1.0;"/><line style="stroke: #000000; stroke-width: 1.5;" x1="285.5" x2="285.5" y1="448.5352" y2="476.0508"/><polygon fill="#000000" points="281.5,466.0508,285.5,476.0508,289.5,466.0508,285.5,470.0508" style="stroke: #000000; stroke-width: 1.0;"/><line style="stroke: #000000; stroke-width: 1.5;" x1="285.5" x2="285.5" y1="390.1641" y2="414.5664"/><polygon fill="#000000" points="281.5,404.5664,285.5,414.5664,289.5,404.5664,285.5,408.5664" style="stroke: #000000; stroke-width: 1.0;"/><line style="stroke: #000000; stroke-width: 1.5;" x1="484.5" x2="496.5" y1="378.1641" y2="378.1641"/><polygon fill="#000000" points="492.5,446.0508,496.5,456.0508,500.5,446.0508,496.5,450.0508" style="stroke: #000000; stroke-width: 1.5;"/><line style="stroke: #000000; stroke-width: 1.5;" x1="496.5" x2="496.5" y1="378.1641" y2="518.0508"/><line style="stroke: #000000; stroke-width: 1.5;" x1="496.5" x2="285.5" y1="518.0508" y2="518.0508"/><line style="stroke: #000000; stroke-width: 1.5;" x1="285.5" x2="285.5" y1="518.0508" y2="538.0508"/><polygon fill="#000000" points="281.5,528.0508,285.5,538.0508,289.5,528.0508,285.5,532.0508" style="stroke: #000000; stroke-width: 1.0;"/><line style="stroke: #000000; stroke-width: 1.5;" x1="285.5" x2="285.5" y1="572.0195" y2="592.0195"/><polygon fill="#000000" points="281.5,582.0195,285.5,592.0195,289.5,582.0195,285.5,586.0195" style="stroke: #000000; stroke-width: 1.0;"/><line style="stroke: #000000; stroke-width: 1.5;" x1="285.5" x2="285.5" y1="169.875" y2="194.2773"/><polygon fill="#000000" points="281.5,184.2773,285.5,194.2773,289.5,184.2773,285.5,188.2773" style="stroke: #000000; stroke-width: 1.0;"/><line style="stroke: #000000; stroke-width: 1.5;" x1="348.5" x2="506.5" y1="157.875" y2="157.875"/><polygon fill="#000000" points="502.5,397.6484,506.5,407.6484,510.5,397.6484,506.5,401.6484" style="stroke: #000000; stroke-width: 1.5;"/><line style="stroke: #000000; stroke-width: 1.5;" x1="506.5" x2="506.5" y1="157.875" y2="634.0195"/><line style="stroke: #000000; stroke-width: 1.5;" x1="506.5" x2="285.5" y1="634.0195" y2="634.0195"/><line style="stroke: #000000; stroke-width: 1.5;" x1="285.5" x2="285.5" y1="634.0195" y2="654.0195"/><polygon fill="#000000" points="281.5,644.0195,285.5,654.0195,289.5,644.0195,285.5,648.0195" style="stroke: #000000; stroke-width: 1.0;"/><line style="stroke: #000000; stroke-width: 1.5;" x1="285.5" x2="285.5" y1="125.875" y2="145.875"/><polygon fill="#000000" points="281.5,135.875,285.5,145.875,289.5,135.875,285.5,139.875" style="stroke: #000000; stroke-width: 1.0;"/><line style="stroke: #000000; stroke-width: 1.5;" x1="285.5" x2="285.5" y1="736.3906" y2="763.9063"/><polygon fill="#000000" points="281.5,753.9063,285.5,763.9063,289.5,753.9063,285.5,757.9063" style="stroke: #000000; stroke-width: 1.0;"/><line style="stroke: #000000; stroke-width: 1.5;" x1="285.5" x2="285.5" y1="678.0195" y2="702.4219"/><polygon fill="#000000" points="281.5,692.4219,285.5,702.4219,289.5,692.4219,285.5,696.4219" style="stroke: #000000; stroke-width: 1.0;"/><line style="stroke: #000000; stroke-width: 1.5;" x1="330.5" x2="355" y1="666.0195" y2="666.0195"/><polygon fill="#000000" points="351,733.9063,355,743.9063,359,733.9063,355,737.9063" style="stroke: #000000; stroke-width: 1.5;"/><line style="stroke: #000000; stroke-width: 1.5;" x1="355" x2="355" y1="666.0195" y2="805.9063"/><line style="stroke: #000000; stroke-width: 1.5;" x1="355" x2="285.5" y1="805.9063" y2="805.9063"/><line style="stroke: #000000; stroke-width: 1.5;" x1="285.5" x2="285.5" y1="805.9063" y2="825.9063"/><polygon fill="#000000" points="281.5,815.9063,285.5,825.9063,289.5,815.9063,285.5,819.9063" style="stroke: #000000; stroke-width: 1.0;"/><line style="stroke: #000000; stroke-width: 1.5;" x1="285.5" x2="285.5" y1="859.875" y2="879.875"/><polygon fill="#000000" points="281.5,869.875,285.5,879.875,289.5,869.875,285.5,873.875" style="stroke: #000000; stroke-width: 1.0;"/><line style="stroke: #000000; stroke-width: 1.5;" x1="285.5" x2="285.5" y1="913.8438" y2="933.8438"/><polygon fill="#000000" points="281.5,923.8438,285.5,933.8438,289.5,923.8438,285.5,927.8438" style="stroke: #000000; stroke-width: 1.0;"/><line style="stroke: #000000; stroke-width: 1.5;" x1="285.5" x2="285.5" y1="967.8125" y2="987.8125"/><polygon fill="#000000" points="281.5,977.8125,285.5,987.8125,289.5,977.8125,285.5,981.8125" style="stroke: #000000; stroke-width: 1.0;"/><line style="stroke: #000000; stroke-width: 1.5;" x1="285.5" x2="285.5" y1="1021.7813" y2="1041.7813"/><polygon fill="#000000" points="281.5,1031.7813,285.5,1041.7813,289.5,1031.7813,285.5,1035.7813" style="stroke: #000000; stroke-width: 1.0;"/><line style="stroke: #000000; stroke-width: 1.5;" x1="285.5" x2="285.5" y1="1075.75" y2="1095.75"/><polygon fill="#000000" points="281.5,1085.75,285.5,1095.75,289.5,1085.75,285.5,1089.75" style="stroke: #000000; stroke-width: 1.0;"/><!--
@startuml
skinparam BackgroundColor White|White
skinparam ArrowColor Black

skinparam NoteBackgroundColor White
skinparam NoteBorderColor Black

skinparam ActivityBackgroundColor White
skinparam ActivityDiamondBackgroundColor White
skinparam ActivityBorderColor Black
skinparam ActivityDiamondBorderColor Black

title **Nuspell - Check Spelling - ""spell_break(string s, integer depth)""**\n

start

:set **""ret""** to <back:skyblue>//""spell_casing(s)""//</back>;
if (**""res""** is not empty?) then (yes)
    if (**""res""** contains global //""forbiddenword_flag""//?) then (yes)
        :return __""BAD_WORD""__;
	    stop
    else (no)
    endif
    if (global //""forbid_warn""// is __""TRUE""__ and **""res""** contains global //""warn_flag""//?) then (yes)
        :return __""BAD_WORD""__;
	    stop
    else (no)
    endif
    :return __""GOOD_WORD""__;
    stop
else (no)
endif

if (**""depth""** is __""9""__?) then (yes)
    :return __""BAD_WORD""__;
	stop
else (no)
endif

:set **""break_table""** to global break table;

:handle break pattern in start of a word;
floating note right: //This will be exapanded//
:handle break pattern in end of a word;
floating note right: //This will be exapanded//
:handle break pattern in middle of a word;
floating note right: //This will be exapanded//

:return __""BAD_WORD""__;

stop

@enduml

PlantUML version 1.2018.06(Mon May 21 12:34:53 CEST 2018)
(GPL source distribution)
Java Runtime: OpenJDK Runtime Environment
JVM: OpenJDK 64-Bit Server VM
Java Version: 10.0.2+13-Ubuntu-1ubuntu0.18.04.1
Operating System: Linux
OS Version: 4.15.0-32-generic
Default Encoding: UTF-8
Language: en
Country: US
--></g></svg>