<?xml version="1.0" encoding="UTF-8" standalone="no"?><svg xmlns="http://www.w3.org/2000/svg" xmlns:xlink="http://www.w3.org/1999/xlink" contentScriptType="application/ecmascript" contentStyleType="text/css" height="2299px" preserveAspectRatio="none" style="width:757px;height:2299px;" version="1.1" viewBox="0 0 757 2299" width="757px" zoomAndPan="magnify"><defs><linearGradient id="g1t2we1aoii7w40" x1="0%" x2="100%" y1="50%" y2="50%"><stop offset="0%" stop-color="#FFFFFF"/><stop offset="100%" stop-color="#FFFFFF"/></linearGradient><filter height="300%" id="f1t2we1aoii7w4" width="300%" x="-1" y="-1"><feGaussianBlur result="blurOut" stdDeviation="2.0"/><feColorMatrix in="blurOut" result="blurOut2" type="matrix" values="0 0 0 0 0 0 0 0 0 0 0 0 0 0 0 0 0 0 .4 0"/><feOffset dx="4.0" dy="4.0" in="blurOut2" result="blurOut3"/><feBlend in="SourceGraphic" in2="blurOut3" mode="normal"/></filter></defs><g><rect fill="url(#g1t2we1aoii7w40)" height="2299" style="stroke: none; stroke-width: 1.0;" width="757" x="0" y="0"/><text fill="#000000" font-family="sans-serif" font-size="18" lengthAdjust="spacingAndGlyphs" textLength="482" x="136.5" y="26.708">Hunspell - Check Spelling - bool spell(word, info, root)</text><path d="M241,30.9531 L241,56.0859 L416,56.0859 L416,40.9531 L406,30.9531 L241,30.9531 " fill="#FBFB77" filter="url(#f1t2we1aoii7w4)" style="stroke: #A80036; stroke-width: 1.0;"/><path d="M406,30.9531 L406,40.9531 L416,40.9531 L406,30.9531 " fill="#FBFB77" style="stroke: #A80036; stroke-width: 1.0;"/><text fill="#000000" font-family="sans-serif" font-size="13" lengthAdjust="spacingAndGlyphs" textLength="154" x="247" y="48.02">Return FALSE is implied.</text><ellipse cx="446" cy="43.5195" fill="#000000" filter="url(#f1t2we1aoii7w4)" rx="10" ry="10" style="stroke: none; stroke-width: 1.0;"/><rect fill="#FFFFFF" filter="url(#f1t2we1aoii7w4)" height="137.1743" style="stroke: #000000; stroke-width: 2.0;" width="290" x="332" y="64.3213"/><path d="M421,65.3213 L421,73.6182 L411,83.6182 L332,83.6182 " fill="none" style="stroke: #000000; stroke-width: 2.0;"/><text fill="#000000" font-family="sans-serif" font-size="14" lengthAdjust="spacingAndGlyphs" textLength="79" x="335" y="78.3164">initialazition</text><rect fill="#FEFECE" filter="url(#f1t2we1aoii7w4)" height="33.9688" rx="12.5" ry="12.5" style="stroke: #A80036; stroke-width: 1.5;" width="170" x="361" y="99.8164"/><text fill="#000000" font-family="sans-serif" font-size="12" lengthAdjust="spacingAndGlyphs" textLength="150" x="371" y="120.9551">reset I/O parameter info</text><polygon fill="#FEFECE" filter="url(#f1t2we1aoii7w4)" points="354,153.7852,538,153.7852,550,165.7852,538,177.7852,354,177.7852,342,165.7852,354,153.7852" style="stroke: #A80036; stroke-width: 1.5;"/><text fill="#000000" font-family="sans-serif" font-size="11" lengthAdjust="spacingAndGlyphs" textLength="14" x="450" y="187.9956">no</text><text fill="#000000" font-family="sans-serif" font-size="11" lengthAdjust="spacingAndGlyphs" textLength="184" x="354" y="169.5933">word length exceeds maximum?</text><text fill="#000000" font-family="sans-serif" font-size="11" lengthAdjust="spacingAndGlyphs" textLength="20" x="550" y="163.1909">yes</text><ellipse cx="590" cy="165.7852" fill="none" filter="url(#f1t2we1aoii7w4)" rx="10" ry="10" style="stroke: #000000; stroke-width: 1.0;"/><ellipse cx="590.5" cy="166.2852" fill="#000000" filter="url(#f1t2we1aoii7w4)" rx="6" ry="6" style="stroke: none; stroke-width: 1.0;"/><rect fill="#FFFFFF" filter="url(#f1t2we1aoii7w4)" height="719.9365" style="stroke: #000000; stroke-width: 2.0;" width="501" x="193.75" y="212.2974"/><path d="M318.75,213.2974 L318.75,221.5942 L308.75,231.5942 L193.75,231.5942 " fill="none" style="stroke: #000000; stroke-width: 2.0;"/><text fill="#000000" font-family="sans-serif" font-size="14" lengthAdjust="spacingAndGlyphs" textLength="115" x="196.75" y="226.2925">input conversion</text><rect fill="#FEFECE" filter="url(#f1t2we1aoii7w4)" height="33.9688" rx="12.5" ry="12.5" style="stroke: #A80036; stroke-width: 1.5;" width="231" x="330.5" y="296.1948"/><text fill="#000000" font-family="sans-serif" font-size="12" lengthAdjust="spacingAndGlyphs" textLength="211" x="340.5" y="317.3335">perform input conversion on word</text><polygon fill="#FEFECE" filter="url(#f1t2we1aoii7w4)" points="369,247.7925,523,247.7925,535,259.7925,523,271.7925,369,271.7925,357,259.7925,369,247.7925" style="stroke: #A80036; stroke-width: 1.5;"/><text fill="#000000" font-family="sans-serif" font-size="11" lengthAdjust="spacingAndGlyphs" textLength="20" x="450" y="282.0029">yes</text><text fill="#000000" font-family="sans-serif" font-size="11" lengthAdjust="spacingAndGlyphs" textLength="154" x="369" y="263.6006">input conversion available?</text><text fill="#000000" font-family="sans-serif" font-size="11" lengthAdjust="spacingAndGlyphs" textLength="14" x="535" y="257.1982">no</text><polygon fill="#FEFECE" filter="url(#f1t2we1aoii7w4)" points="446,350.1636,458,362.1636,446,374.1636,434,362.1636,446,350.1636" style="stroke: #A80036; stroke-width: 1.5;"/><polygon fill="#FEFECE" filter="url(#f1t2we1aoii7w4)" points="354,394.1636,538,394.1636,550,406.1636,538,418.1636,354,418.1636,342,406.1636,354,394.1636" style="stroke: #A80036; stroke-width: 1.5;"/><text fill="#000000" font-family="sans-serif" font-size="11" lengthAdjust="spacingAndGlyphs" textLength="184" x="354" y="409.9717">input conversion changed word?</text><text fill="#000000" font-family="sans-serif" font-size="11" lengthAdjust="spacingAndGlyphs" textLength="20" x="322" y="403.5693">yes</text><text fill="#000000" font-family="sans-serif" font-size="11" lengthAdjust="spacingAndGlyphs" textLength="14" x="550" y="403.5693">no</text><rect fill="#FEFECE" filter="url(#f1t2we1aoii7w4)" height="89.8438" rx="12.5" ry="12.5" style="stroke: #A80036; stroke-width: 1.5;" width="224" x="213.75" y="428.1636"/><text fill="#000000" font-family="sans-serif" font-size="12" lengthAdjust="spacingAndGlyphs" textLength="204" x="223.75" y="449.3022">clean converted word and store:</text><text fill="#000000" font-family="sans-serif" font-size="12" lengthAdjust="spacingAndGlyphs" textLength="136" x="223.75" y="463.271">- cleaned word length</text><text fill="#000000" font-family="sans-serif" font-size="12" lengthAdjust="spacingAndGlyphs" textLength="92" x="223.75" y="477.2397">- cleaned word</text><text fill="#000000" font-family="sans-serif" font-size="12" lengthAdjust="spacingAndGlyphs" textLength="185" x="223.75" y="491.2085">- capitalization type "captype"</text><text fill="#000000" font-family="sans-serif" font-size="12" lengthAdjust="spacingAndGlyphs" textLength="170" x="223.75" y="505.1772">- abbreviation count "abbv"</text><rect fill="#FEFECE" filter="url(#f1t2we1aoii7w4)" height="89.8438" rx="12.5" ry="12.5" style="stroke: #A80036; stroke-width: 1.5;" width="217" x="457.75" y="428.1636"/><text fill="#000000" font-family="sans-serif" font-size="12" lengthAdjust="spacingAndGlyphs" textLength="197" x="467.75" y="449.3022">clean (original) word and store:</text><text fill="#000000" font-family="sans-serif" font-size="12" lengthAdjust="spacingAndGlyphs" textLength="136" x="467.75" y="463.271">- cleaned word length</text><text fill="#000000" font-family="sans-serif" font-size="12" lengthAdjust="spacingAndGlyphs" textLength="92" x="467.75" y="477.2397">- cleaned word</text><text fill="#000000" font-family="sans-serif" font-size="12" lengthAdjust="spacingAndGlyphs" textLength="185" x="467.75" y="491.2085">- capitalization type "captype"</text><text fill="#000000" font-family="sans-serif" font-size="12" lengthAdjust="spacingAndGlyphs" textLength="170" x="467.75" y="505.1772">- abbreviation count "abbv"</text><polygon fill="#FEFECE" filter="url(#f1t2we1aoii7w4)" points="446,524.0073,458,536.0073,446,548.0073,434,536.0073,446,524.0073" style="stroke: #A80036; stroke-width: 1.5;"/><rect fill="#FEFECE" filter="url(#f1t2we1aoii7w4)" height="33.9688" rx="12.5" ry="12.5" style="stroke: #A80036; stroke-width: 1.5;" width="191" x="350.5" y="616.4097"/><text fill="#000000" font-family="sans-serif" font-size="12" lengthAdjust="spacingAndGlyphs" textLength="171" x="360.5" y="637.5483">set abbreviation count to 1</text><polygon fill="#FEFECE" filter="url(#f1t2we1aoii7w4)" points="403.5,568.0073,488.5,568.0073,500.5,580.0073,488.5,592.0073,403.5,592.0073,391.5,580.0073,403.5,568.0073" style="stroke: #A80036; stroke-width: 1.5;"/><text fill="#000000" font-family="sans-serif" font-size="11" lengthAdjust="spacingAndGlyphs" textLength="20" x="450" y="602.2178">yes</text><text fill="#000000" font-family="sans-serif" font-size="11" lengthAdjust="spacingAndGlyphs" textLength="85" x="403.5" y="583.8154">client is Mozilla</text><text fill="#000000" font-family="sans-serif" font-size="11" lengthAdjust="spacingAndGlyphs" textLength="14" x="500.5" y="577.4131">no</text><polygon fill="#FEFECE" filter="url(#f1t2we1aoii7w4)" points="446,670.3784,458,682.3784,446,694.3784,434,682.3784,446,670.3784" style="stroke: #A80036; stroke-width: 1.5;"/><rect fill="#FEFECE" filter="url(#f1t2we1aoii7w4)" height="33.9688" rx="12.5" ry="12.5" style="stroke: #A80036; stroke-width: 1.5;" width="95" x="398.5" y="762.7808"/><text fill="#000000" font-family="sans-serif" font-size="12" lengthAdjust="spacingAndGlyphs" textLength="75" x="408.5" y="783.9194">return TRUE</text><ellipse cx="446" cy="834.2651" fill="none" filter="url(#f1t2we1aoii7w4)" rx="10" ry="10" style="stroke: #000000; stroke-width: 1.0;"/><ellipse cx="446.5" cy="834.7651" fill="#000000" filter="url(#f1t2we1aoii7w4)" rx="6" ry="6" style="stroke: none; stroke-width: 1.0;"/><polygon fill="#FEFECE" filter="url(#f1t2we1aoii7w4)" points="293,714.3784,599,714.3784,611,726.3784,599,738.3784,293,738.3784,281,726.3784,293,714.3784" style="stroke: #A80036; stroke-width: 1.5;"/><text fill="#000000" font-family="sans-serif" font-size="11" lengthAdjust="spacingAndGlyphs" textLength="20" x="450" y="748.5889">yes</text><text fill="#000000" font-family="sans-serif" font-size="11" lengthAdjust="spacingAndGlyphs" textLength="306" x="293" y="730.1865">cleaned word length is 0 OR hash manager is empty?</text><text fill="#000000" font-family="sans-serif" font-size="11" lengthAdjust="spacingAndGlyphs" textLength="14" x="611" y="723.7842">no</text><rect fill="#FEFECE" filter="url(#f1t2we1aoii7w4)" height="33.9688" rx="12.5" ry="12.5" style="stroke: #A80036; stroke-width: 1.5;" width="83" x="404.5" y="886.2651"/><text fill="#000000" font-family="sans-serif" font-size="12" lengthAdjust="spacingAndGlyphs" textLength="63" x="414.5" y="907.4038">reset root</text><rect fill="#FFFFFF" filter="url(#f1t2we1aoii7w4)" height="253.3506" style="stroke: #000000; stroke-width: 2.0;" width="302" x="295" y="943.0356"/><path d="M535,944.0356 L535,952.3325 L525,962.3325 L295,962.3325 " fill="none" style="stroke: #000000; stroke-width: 2.0;"/><text fill="#000000" font-family="sans-serif" font-size="14" lengthAdjust="spacingAndGlyphs" textLength="230" x="298" y="957.0308">numbers and numeric separators</text><rect fill="#FEFECE" filter="url(#f1t2we1aoii7w4)" height="33.9688" rx="12.5" ry="12.5" style="stroke: #A80036; stroke-width: 1.5;" width="282" x="305" y="978.5308"/><text fill="#000000" font-family="sans-serif" font-size="12" lengthAdjust="spacingAndGlyphs" textLength="262" x="315" y="999.6694">determine number state for cleaned word</text><rect fill="#FEFECE" filter="url(#f1t2we1aoii7w4)" height="33.9688" rx="12.5" ry="12.5" style="stroke: #A80036; stroke-width: 1.5;" width="95" x="398.5" y="1080.9019"/><text fill="#000000" font-family="sans-serif" font-size="12" lengthAdjust="spacingAndGlyphs" textLength="75" x="408.5" y="1102.0405">return TRUE</text><ellipse cx="446" cy="1152.3862" fill="none" filter="url(#f1t2we1aoii7w4)" rx="10" ry="10" style="stroke: #000000; stroke-width: 1.0;"/><ellipse cx="446.5" cy="1152.8862" fill="#000000" filter="url(#f1t2we1aoii7w4)" rx="6" ry="6" style="stroke: none; stroke-width: 1.0;"/><polygon fill="#FEFECE" filter="url(#f1t2we1aoii7w4)" points="368.5,1032.4995,523.5,1032.4995,535.5,1044.4995,523.5,1056.4995,368.5,1056.4995,356.5,1044.4995,368.5,1032.4995" style="stroke: #A80036; stroke-width: 1.5;"/><text fill="#000000" font-family="sans-serif" font-size="11" lengthAdjust="spacingAndGlyphs" textLength="20" x="450" y="1066.71">yes</text><text fill="#000000" font-family="sans-serif" font-size="11" lengthAdjust="spacingAndGlyphs" textLength="155" x="368.5" y="1048.3076">cleaned word is a number?</text><text fill="#000000" font-family="sans-serif" font-size="11" lengthAdjust="spacingAndGlyphs" textLength="14" x="535.5" y="1041.9053">no</text><rect fill="#FFFFFF" filter="url(#f1t2we1aoii7w4)" height="438.2061" style="stroke: #000000; stroke-width: 2.0;" width="736" x="10" y="1207.188"/><path d="M143,1208.188 L143,1216.4849 L133,1226.4849 L10,1226.4849 " fill="none" style="stroke: #000000; stroke-width: 2.0;"/><text fill="#000000" font-family="sans-serif" font-size="14" lengthAdjust="spacingAndGlyphs" textLength="123" x="13" y="1221.1831">capitalization type</text><polygon fill="#FEFECE" filter="url(#f1t2we1aoii7w4)" points="276.5,1242.6831,615.5,1242.6831,627.5,1254.6831,615.5,1266.6831,276.5,1266.6831,264.5,1254.6831,276.5,1242.6831" style="stroke: #A80036; stroke-width: 1.5;"/><text fill="#000000" font-family="sans-serif" font-size="11" lengthAdjust="spacingAndGlyphs" textLength="339" x="276.5" y="1258.4912">captype is camel case, pascal case OR lower/neutral case?</text><text fill="#000000" font-family="sans-serif" font-size="11" lengthAdjust="spacingAndGlyphs" textLength="20" x="244.5" y="1252.0889">yes</text><text fill="#000000" font-family="sans-serif" font-size="11" lengthAdjust="spacingAndGlyphs" textLength="14" x="627.5" y="1252.0889">no</text><rect fill="#FEFECE" filter="url(#f1t2we1aoii7w4)" height="33.9688" rx="12.5" ry="12.5" style="stroke: #A80036; stroke-width: 1.5;" width="187" x="161" y="1325.0854"/><text fill="#000000" font-family="sans-serif" font-size="12" lengthAdjust="spacingAndGlyphs" textLength="167" x="171" y="1346.2241">add SPELL_ORIGCAP to info</text><polygon fill="#FEFECE" filter="url(#f1t2we1aoii7w4)" points="142,1276.6831,367,1276.6831,379,1288.6831,367,1300.6831,142,1300.6831,130,1288.6831,142,1276.6831" style="stroke: #A80036; stroke-width: 1.5;"/><text fill="#000000" font-family="sans-serif" font-size="11" lengthAdjust="spacingAndGlyphs" textLength="20" x="258.5" y="1310.8936">yes</text><text fill="#000000" font-family="sans-serif" font-size="11" lengthAdjust="spacingAndGlyphs" textLength="225" x="142" y="1292.4912">captype is camel case OR pascal case?</text><text fill="#000000" font-family="sans-serif" font-size="11" lengthAdjust="spacingAndGlyphs" textLength="14" x="379" y="1286.0889">no</text><polygon fill="#FEFECE" filter="url(#f1t2we1aoii7w4)" points="254.5,1379.0542,266.5,1391.0542,254.5,1403.0542,242.5,1391.0542,254.5,1379.0542" style="stroke: #A80036; stroke-width: 1.5;"/><rect fill="#87CEEB" filter="url(#f1t2we1aoii7w4)" height="33.9688" rx="12.5" ry="12.5" style="stroke: #A80036; stroke-width: 1.5;" width="296" x="106.5" y="1423.0542"/><text fill="#000000" font-family="sans-serif" font-size="12" lengthAdjust="spacingAndGlyphs" textLength="276" x="116.5" y="1444.1929">root = check_word(cleaned word, info, root)</text><rect fill="#87CEEB" filter="url(#f1t2we1aoii7w4)" height="33.9688" rx="12.5" ry="12.5" style="stroke: #A80036; stroke-width: 1.5;" width="429" x="40" y="1525.4253"/><text fill="#000000" font-family="sans-serif" font-size="12" lengthAdjust="spacingAndGlyphs" textLength="409" x="50" y="1546.564">root = check_word(cleaned word period added at end, info, root)</text><polygon fill="#FEFECE" filter="url(#f1t2we1aoii7w4)" points="190,1477.0229,319,1477.0229,331,1489.0229,319,1501.0229,190,1501.0229,178,1489.0229,190,1477.0229" style="stroke: #A80036; stroke-width: 1.5;"/><text fill="#000000" font-family="sans-serif" font-size="11" lengthAdjust="spacingAndGlyphs" textLength="20" x="258.5" y="1511.2334">yes</text><text fill="#000000" font-family="sans-serif" font-size="11" lengthAdjust="spacingAndGlyphs" textLength="129" x="190" y="1492.8311">abbv &gt; 0 AND no root?</text><text fill="#000000" font-family="sans-serif" font-size="11" lengthAdjust="spacingAndGlyphs" textLength="14" x="331" y="1486.4287">no</text><polygon fill="#FEFECE" filter="url(#f1t2we1aoii7w4)" points="254.5,1579.394,266.5,1591.394,254.5,1603.394,242.5,1591.394,254.5,1579.394" style="stroke: #A80036; stroke-width: 1.5;"/><rect fill="#87CEEB" filter="url(#f1t2we1aoii7w4)" height="47.9375" rx="12.5" ry="12.5" style="stroke: #A80036; stroke-width: 1.5;" width="177" x="549" y="1276.6831"/><text fill="#000000" font-family="sans-serif" font-size="12" lengthAdjust="spacingAndGlyphs" textLength="103" x="559" y="1297.8218">Check Spelling A</text><text fill="#000000" font-family="sans-serif" font-size="12" lengthAdjust="spacingAndGlyphs" textLength="157" x="559" y="1311.7905">spell upper or capitalized</text><polygon fill="#FEFECE" filter="url(#f1t2we1aoii7w4)" points="446,1609.394,458,1621.394,446,1633.394,434,1621.394,446,1609.394" style="stroke: #A80036; stroke-width: 1.5;"/><rect fill="#FFFFFF" filter="url(#f1t2we1aoii7w4)" height="485.9165" style="stroke: #000000; stroke-width: 2.0;" width="366" x="303.5" y="1656.1958"/><path d="M425.5,1657.1958 L425.5,1665.4927 L415.5,1675.4927 L303.5,1675.4927 " fill="none" style="stroke: #000000; stroke-width: 2.0;"/><text fill="#000000" font-family="sans-serif" font-size="14" lengthAdjust="spacingAndGlyphs" textLength="112" x="306.5" y="1670.1909">forbidden words</text><rect fill="#FEFECE" filter="url(#f1t2we1aoii7w4)" height="33.9688" rx="12.5" ry="12.5" style="stroke: #A80036; stroke-width: 1.5;" width="170" x="361" y="1788.4956"/><text fill="#000000" font-family="sans-serif" font-size="12" lengthAdjust="spacingAndGlyphs" textLength="150" x="371" y="1809.6343">add SPELL_WARN to info</text><polygon fill="#FEFECE" filter="url(#f1t2we1aoii7w4)" points="350.5,1842.4644,541.5,1842.4644,553.5,1854.4644,541.5,1866.4644,350.5,1866.4644,338.5,1854.4644,350.5,1842.4644" style="stroke: #A80036; stroke-width: 1.5;"/><text fill="#000000" font-family="sans-serif" font-size="11" lengthAdjust="spacingAndGlyphs" textLength="14" x="450" y="1876.6748">no</text><text fill="#000000" font-family="sans-serif" font-size="11" lengthAdjust="spacingAndGlyphs" textLength="191" x="350.5" y="1858.2725">generic setting forbids warnings?</text><text fill="#000000" font-family="sans-serif" font-size="11" lengthAdjust="spacingAndGlyphs" textLength="20" x="553.5" y="1851.8701">yes</text><ellipse cx="593.5" cy="1854.4644" fill="none" filter="url(#f1t2we1aoii7w4)" rx="10" ry="10" style="stroke: #000000; stroke-width: 1.0;"/><ellipse cx="594" cy="1854.9644" fill="#000000" filter="url(#f1t2we1aoii7w4)" rx="6" ry="6" style="stroke: none; stroke-width: 1.0;"/><rect fill="#FEFECE" filter="url(#f1t2we1aoii7w4)" height="33.9688" rx="12.5" ry="12.5" style="stroke: #A80036; stroke-width: 1.5;" width="95" x="398.5" y="1918.1748"/><text fill="#000000" font-family="sans-serif" font-size="12" lengthAdjust="spacingAndGlyphs" textLength="75" x="408.5" y="1939.3135">return TRUE</text><ellipse cx="446" cy="1982.1436" fill="none" filter="url(#f1t2we1aoii7w4)" rx="10" ry="10" style="stroke: #000000; stroke-width: 1.0;"/><ellipse cx="446.5" cy="1982.6436" fill="#000000" filter="url(#f1t2we1aoii7w4)" rx="6" ry="6" style="stroke: none; stroke-width: 1.0;"/><polygon fill="#FEFECE" filter="url(#f1t2we1aoii7w4)" points="335.5,1740.0933,556.5,1740.0933,568.5,1752.0933,556.5,1764.0933,335.5,1764.0933,323.5,1752.0933,335.5,1740.0933" style="stroke: #A80036; stroke-width: 1.5;"/><text fill="#000000" font-family="sans-serif" font-size="11" lengthAdjust="spacingAndGlyphs" textLength="20" x="450" y="1774.3037">yes</text><text fill="#000000" font-family="sans-serif" font-size="11" lengthAdjust="spacingAndGlyphs" textLength="221" x="335.5" y="1755.9014">warning flag is present in root's flags?</text><text fill="#000000" font-family="sans-serif" font-size="11" lengthAdjust="spacingAndGlyphs" textLength="14" x="568.5" y="1749.499">no</text><rect fill="#FEFECE" filter="url(#f1t2we1aoii7w4)" height="33.9688" rx="12.5" ry="12.5" style="stroke: #A80036; stroke-width: 1.5;" width="95" x="398.5" y="2034.1436"/><text fill="#000000" font-family="sans-serif" font-size="12" lengthAdjust="spacingAndGlyphs" textLength="75" x="408.5" y="2055.2822">return TRUE</text><ellipse cx="446" cy="2098.1123" fill="none" filter="url(#f1t2we1aoii7w4)" rx="10" ry="10" style="stroke: #000000; stroke-width: 1.0;"/><ellipse cx="446.5" cy="2098.6123" fill="#000000" filter="url(#f1t2we1aoii7w4)" rx="6" ry="6" style="stroke: none; stroke-width: 1.0;"/><polygon fill="#FEFECE" filter="url(#f1t2we1aoii7w4)" points="431.5,1691.6909,460.5,1691.6909,472.5,1703.6909,460.5,1715.6909,431.5,1715.6909,419.5,1703.6909,431.5,1691.6909" style="stroke: #A80036; stroke-width: 1.5;"/><text fill="#000000" font-family="sans-serif" font-size="11" lengthAdjust="spacingAndGlyphs" textLength="20" x="450" y="1725.9014">yes</text><text fill="#000000" font-family="sans-serif" font-size="11" lengthAdjust="spacingAndGlyphs" textLength="29" x="431.5" y="1707.499">root?</text><text fill="#000000" font-family="sans-serif" font-size="11" lengthAdjust="spacingAndGlyphs" textLength="14" x="472.5" y="1701.0967">no</text><rect fill="#FFFFFF" filter="url(#f1t2we1aoii7w4)" height="95.4326" style="stroke: #000000; stroke-width: 2.0;" width="254" x="319" y="2152.9141"/><path d="M563,2153.9141 L563,2162.2109 L553,2172.2109 L319,2172.2109 " fill="none" style="stroke: #000000; stroke-width: 2.0;"/><text fill="#000000" font-family="sans-serif" font-size="14" lengthAdjust="spacingAndGlyphs" textLength="234" x="322" y="2166.9092">recursive breaking at break points</text><rect fill="#87CEEB" filter="url(#f1t2we1aoii7w4)" height="47.9375" rx="12.5" ry="12.5" style="stroke: #A80036; stroke-width: 1.5;" width="147" x="372.5" y="2188.4092"/><text fill="#000000" font-family="sans-serif" font-size="12" lengthAdjust="spacingAndGlyphs" textLength="103" x="382.5" y="2209.5479">Check Spelling B</text><text fill="#000000" font-family="sans-serif" font-size="12" lengthAdjust="spacingAndGlyphs" textLength="127" x="382.5" y="2223.5166">recurse breakpoints</text><ellipse cx="446" cy="2278.3467" fill="none" filter="url(#f1t2we1aoii7w4)" rx="10" ry="10" style="stroke: #000000; stroke-width: 1.0;"/><ellipse cx="446.5" cy="2278.8467" fill="#000000" filter="url(#f1t2we1aoii7w4)" rx="6" ry="6" style="stroke: none; stroke-width: 1.0;"/><line style="stroke: #A80036; stroke-width: 1.5;" x1="446" x2="446" y1="177.7852" y2="247.7925"/><polygon fill="#A80036" points="442,237.7925,446,247.7925,450,237.7925,446,241.7925" style="stroke: #A80036; stroke-width: 1.0;"/><line style="stroke: #A80036; stroke-width: 1.5;" x1="550" x2="580" y1="165.7852" y2="165.7852"/><polygon fill="#A80036" points="570,161.7852,580,165.7852,570,169.7852,574,165.7852" style="stroke: #A80036; stroke-width: 1.0;"/><line style="stroke: #A80036; stroke-width: 1.5;" x1="446" x2="446" y1="133.7852" y2="153.7852"/><polygon fill="#A80036" points="442,143.7852,446,153.7852,450,143.7852,446,147.7852" style="stroke: #A80036; stroke-width: 1.0;"/><line style="stroke: #A80036; stroke-width: 1.5;" x1="446" x2="446" y1="53.5195" y2="99.8164"/><polygon fill="#A80036" points="442,89.8164,446,99.8164,450,89.8164,446,93.8164" style="stroke: #A80036; stroke-width: 1.0;"/><line style="stroke: #A80036; stroke-width: 1.5;" x1="446" x2="446" y1="271.7925" y2="296.1948"/><polygon fill="#A80036" points="442,286.1948,446,296.1948,450,286.1948,446,290.1948" style="stroke: #A80036; stroke-width: 1.0;"/><line style="stroke: #A80036; stroke-width: 1.5;" x1="535" x2="571.5" y1="259.7925" y2="259.7925"/><polygon fill="#A80036" points="567.5,303.1792,571.5,313.1792,575.5,303.1792,571.5,307.1792" style="stroke: #A80036; stroke-width: 1.5;"/><line style="stroke: #A80036; stroke-width: 1.5;" x1="571.5" x2="571.5" y1="259.7925" y2="362.1636"/><line style="stroke: #A80036; stroke-width: 1.5;" x1="571.5" x2="458" y1="362.1636" y2="362.1636"/><polygon fill="#A80036" points="468,358.1636,458,362.1636,468,366.1636,464,362.1636" style="stroke: #A80036; stroke-width: 1.0;"/><line style="stroke: #A80036; stroke-width: 1.5;" x1="446" x2="446" y1="330.1636" y2="350.1636"/><polygon fill="#A80036" points="442,340.1636,446,350.1636,450,340.1636,446,344.1636" style="stroke: #A80036; stroke-width: 1.0;"/><line style="stroke: #A80036; stroke-width: 1.5;" x1="342" x2="325.75" y1="406.1636" y2="406.1636"/><line style="stroke: #A80036; stroke-width: 1.5;" x1="325.75" x2="325.75" y1="406.1636" y2="428.1636"/><polygon fill="#A80036" points="321.75,418.1636,325.75,428.1636,329.75,418.1636,325.75,422.1636" style="stroke: #A80036; stroke-width: 1.0;"/><line style="stroke: #A80036; stroke-width: 1.5;" x1="550" x2="566.25" y1="406.1636" y2="406.1636"/><line style="stroke: #A80036; stroke-width: 1.5;" x1="566.25" x2="566.25" y1="406.1636" y2="428.1636"/><polygon fill="#A80036" points="562.25,418.1636,566.25,428.1636,570.25,418.1636,566.25,422.1636" style="stroke: #A80036; stroke-width: 1.0;"/><line style="stroke: #A80036; stroke-width: 1.5;" x1="325.75" x2="325.75" y1="518.0073" y2="536.0073"/><line style="stroke: #A80036; stroke-width: 1.5;" x1="325.75" x2="434" y1="536.0073" y2="536.0073"/><polygon fill="#A80036" points="424,532.0073,434,536.0073,424,540.0073,428,536.0073" style="stroke: #A80036; stroke-width: 1.0;"/><line style="stroke: #A80036; stroke-width: 1.5;" x1="566.25" x2="566.25" y1="518.0073" y2="536.0073"/><line style="stroke: #A80036; stroke-width: 1.5;" x1="566.25" x2="458" y1="536.0073" y2="536.0073"/><polygon fill="#A80036" points="468,532.0073,458,536.0073,468,540.0073,464,536.0073" style="stroke: #A80036; stroke-width: 1.0;"/><line style="stroke: #A80036; stroke-width: 1.5;" x1="446" x2="446" y1="374.1636" y2="394.1636"/><polygon fill="#A80036" points="442,384.1636,446,394.1636,450,384.1636,446,388.1636" style="stroke: #A80036; stroke-width: 1.0;"/><line style="stroke: #A80036; stroke-width: 1.5;" x1="446" x2="446" y1="592.0073" y2="616.4097"/><polygon fill="#A80036" points="442,606.4097,446,616.4097,450,606.4097,446,610.4097" style="stroke: #A80036; stroke-width: 1.0;"/><line style="stroke: #A80036; stroke-width: 1.5;" x1="500.5" x2="551.5" y1="580.0073" y2="580.0073"/><polygon fill="#A80036" points="547.5,623.394,551.5,633.394,555.5,623.394,551.5,627.394" style="stroke: #A80036; stroke-width: 1.5;"/><line style="stroke: #A80036; stroke-width: 1.5;" x1="551.5" x2="551.5" y1="580.0073" y2="682.3784"/><line style="stroke: #A80036; stroke-width: 1.5;" x1="551.5" x2="458" y1="682.3784" y2="682.3784"/><polygon fill="#A80036" points="468,678.3784,458,682.3784,468,686.3784,464,682.3784" style="stroke: #A80036; stroke-width: 1.0;"/><line style="stroke: #A80036; stroke-width: 1.5;" x1="446" x2="446" y1="650.3784" y2="670.3784"/><polygon fill="#A80036" points="442,660.3784,446,670.3784,450,660.3784,446,664.3784" style="stroke: #A80036; stroke-width: 1.0;"/><line style="stroke: #A80036; stroke-width: 1.5;" x1="446" x2="446" y1="548.0073" y2="568.0073"/><polygon fill="#A80036" points="442,558.0073,446,568.0073,450,558.0073,446,562.0073" style="stroke: #A80036; stroke-width: 1.0;"/><line style="stroke: #A80036; stroke-width: 1.5;" x1="446" x2="446" y1="796.7495" y2="824.2651"/><polygon fill="#A80036" points="442,814.2651,446,824.2651,450,814.2651,446,818.2651" style="stroke: #A80036; stroke-width: 1.0;"/><line style="stroke: #A80036; stroke-width: 1.5;" x1="446" x2="446" y1="738.3784" y2="762.7808"/><polygon fill="#A80036" points="442,752.7808,446,762.7808,450,752.7808,446,756.7808" style="stroke: #A80036; stroke-width: 1.0;"/><line style="stroke: #A80036; stroke-width: 1.5;" x1="611" x2="623" y1="726.3784" y2="726.3784"/><polygon fill="#A80036" points="619,794.2651,623,804.2651,627,794.2651,623,798.2651" style="stroke: #A80036; stroke-width: 1.5;"/><line style="stroke: #A80036; stroke-width: 1.5;" x1="623" x2="623" y1="726.3784" y2="866.2651"/><line style="stroke: #A80036; stroke-width: 1.5;" x1="623" x2="446" y1="866.2651" y2="866.2651"/><line style="stroke: #A80036; stroke-width: 1.5;" x1="446" x2="446" y1="866.2651" y2="886.2651"/><polygon fill="#A80036" points="442,876.2651,446,886.2651,450,876.2651,446,880.2651" style="stroke: #A80036; stroke-width: 1.0;"/><line style="stroke: #A80036; stroke-width: 1.5;" x1="446" x2="446" y1="694.3784" y2="714.3784"/><polygon fill="#A80036" points="442,704.3784,446,714.3784,450,704.3784,446,708.3784" style="stroke: #A80036; stroke-width: 1.0;"/><line style="stroke: #A80036; stroke-width: 1.5;" x1="446" x2="446" y1="1114.8706" y2="1142.3862"/><polygon fill="#A80036" points="442,1132.3862,446,1142.3862,450,1132.3862,446,1136.3862" style="stroke: #A80036; stroke-width: 1.0;"/><line style="stroke: #A80036; stroke-width: 1.5;" x1="446" x2="446" y1="1056.4995" y2="1080.9019"/><polygon fill="#A80036" points="442,1070.9019,446,1080.9019,450,1070.9019,446,1074.9019" style="stroke: #A80036; stroke-width: 1.0;"/><line style="stroke: #A80036; stroke-width: 1.5;" x1="535.5" x2="547.5" y1="1044.4995" y2="1044.4995"/><polygon fill="#A80036" points="543.5,1112.3862,547.5,1122.3862,551.5,1112.3862,547.5,1116.3862" style="stroke: #A80036; stroke-width: 1.5;"/><line style="stroke: #A80036; stroke-width: 1.5;" x1="547.5" x2="547.5" y1="1044.4995" y2="1184.3862"/><line style="stroke: #A80036; stroke-width: 1.5;" x1="547.5" x2="446" y1="1184.3862" y2="1184.3862"/><line style="stroke: #A80036; stroke-width: 1.5;" x1="446" x2="446" y1="1184.3862" y2="1242.6831"/><polygon fill="#A80036" points="442,1232.6831,446,1242.6831,450,1232.6831,446,1236.6831" style="stroke: #A80036; stroke-width: 1.0;"/><line style="stroke: #A80036; stroke-width: 1.5;" x1="446" x2="446" y1="1012.4995" y2="1032.4995"/><polygon fill="#A80036" points="442,1022.4995,446,1032.4995,450,1022.4995,446,1026.4995" style="stroke: #A80036; stroke-width: 1.0;"/><line style="stroke: #A80036; stroke-width: 1.5;" x1="446" x2="446" y1="920.2339" y2="978.5308"/><polygon fill="#A80036" points="442,968.5308,446,978.5308,450,968.5308,446,972.5308" style="stroke: #A80036; stroke-width: 1.0;"/><line style="stroke: #A80036; stroke-width: 1.5;" x1="254.5" x2="254.5" y1="1300.6831" y2="1325.0854"/><polygon fill="#A80036" points="250.5,1315.0854,254.5,1325.0854,258.5,1315.0854,254.5,1319.0854" style="stroke: #A80036; stroke-width: 1.0;"/><line style="stroke: #A80036; stroke-width: 1.5;" x1="379" x2="391" y1="1288.6831" y2="1288.6831"/><polygon fill="#A80036" points="387,1332.0698,391,1342.0698,395,1332.0698,391,1336.0698" style="stroke: #A80036; stroke-width: 1.5;"/><line style="stroke: #A80036; stroke-width: 1.5;" x1="391" x2="391" y1="1288.6831" y2="1391.0542"/><line style="stroke: #A80036; stroke-width: 1.5;" x1="391" x2="266.5" y1="1391.0542" y2="1391.0542"/><polygon fill="#A80036" points="276.5,1387.0542,266.5,1391.0542,276.5,1395.0542,272.5,1391.0542" style="stroke: #A80036; stroke-width: 1.0;"/><line style="stroke: #A80036; stroke-width: 1.5;" x1="254.5" x2="254.5" y1="1359.0542" y2="1379.0542"/><polygon fill="#A80036" points="250.5,1369.0542,254.5,1379.0542,258.5,1369.0542,254.5,1373.0542" style="stroke: #A80036; stroke-width: 1.0;"/><line style="stroke: #A80036; stroke-width: 1.5;" x1="254.5" x2="254.5" y1="1403.0542" y2="1423.0542"/><polygon fill="#A80036" points="250.5,1413.0542,254.5,1423.0542,258.5,1413.0542,254.5,1417.0542" style="stroke: #A80036; stroke-width: 1.0;"/><line style="stroke: #A80036; stroke-width: 1.5;" x1="254.5" x2="254.5" y1="1501.0229" y2="1525.4253"/><polygon fill="#A80036" points="250.5,1515.4253,254.5,1525.4253,258.5,1515.4253,254.5,1519.4253" style="stroke: #A80036; stroke-width: 1.0;"/><line style="stroke: #A80036; stroke-width: 1.5;" x1="331" x2="479" y1="1489.0229" y2="1489.0229"/><polygon fill="#A80036" points="475,1532.4097,479,1542.4097,483,1532.4097,479,1536.4097" style="stroke: #A80036; stroke-width: 1.5;"/><line style="stroke: #A80036; stroke-width: 1.5;" x1="479" x2="479" y1="1489.0229" y2="1591.394"/><line style="stroke: #A80036; stroke-width: 1.5;" x1="479" x2="266.5" y1="1591.394" y2="1591.394"/><polygon fill="#A80036" points="276.5,1587.394,266.5,1591.394,276.5,1595.394,272.5,1591.394" style="stroke: #A80036; stroke-width: 1.0;"/><line style="stroke: #A80036; stroke-width: 1.5;" x1="254.5" x2="254.5" y1="1559.394" y2="1579.394"/><polygon fill="#A80036" points="250.5,1569.394,254.5,1579.394,258.5,1569.394,254.5,1573.394" style="stroke: #A80036; stroke-width: 1.0;"/><line style="stroke: #A80036; stroke-width: 1.5;" x1="254.5" x2="254.5" y1="1457.0229" y2="1477.0229"/><polygon fill="#A80036" points="250.5,1467.0229,254.5,1477.0229,258.5,1467.0229,254.5,1471.0229" style="stroke: #A80036; stroke-width: 1.0;"/><line style="stroke: #A80036; stroke-width: 1.5;" x1="264.5" x2="254.5" y1="1254.6831" y2="1254.6831"/><line style="stroke: #A80036; stroke-width: 1.5;" x1="254.5" x2="254.5" y1="1254.6831" y2="1276.6831"/><polygon fill="#A80036" points="250.5,1266.6831,254.5,1276.6831,258.5,1266.6831,254.5,1270.6831" style="stroke: #A80036; stroke-width: 1.0;"/><line style="stroke: #A80036; stroke-width: 1.5;" x1="627.5" x2="637.5" y1="1254.6831" y2="1254.6831"/><line style="stroke: #A80036; stroke-width: 1.5;" x1="637.5" x2="637.5" y1="1254.6831" y2="1276.6831"/><polygon fill="#A80036" points="633.5,1266.6831,637.5,1276.6831,641.5,1266.6831,637.5,1270.6831" style="stroke: #A80036; stroke-width: 1.0;"/><line style="stroke: #A80036; stroke-width: 1.5;" x1="254.5" x2="254.5" y1="1603.394" y2="1621.394"/><line style="stroke: #A80036; stroke-width: 1.5;" x1="254.5" x2="434" y1="1621.394" y2="1621.394"/><polygon fill="#A80036" points="424,1617.394,434,1621.394,424,1625.394,428,1621.394" style="stroke: #A80036; stroke-width: 1.0;"/><line style="stroke: #A80036; stroke-width: 1.5;" x1="637.5" x2="637.5" y1="1324.6206" y2="1621.394"/><line style="stroke: #A80036; stroke-width: 1.5;" x1="637.5" x2="458" y1="1621.394" y2="1621.394"/><polygon fill="#A80036" points="468,1617.394,458,1621.394,468,1625.394,464,1621.394" style="stroke: #A80036; stroke-width: 1.0;"/><line style="stroke: #A80036; stroke-width: 1.5;" x1="446" x2="446" y1="1866.4644" y2="1918.1748"/><polygon fill="#A80036" points="442,1908.1748,446,1918.1748,450,1908.1748,446,1912.1748" style="stroke: #A80036; stroke-width: 1.0;"/><line style="stroke: #A80036; stroke-width: 1.5;" x1="553.5" x2="583.5" y1="1854.4644" y2="1854.4644"/><polygon fill="#A80036" points="573.5,1850.4644,583.5,1854.4644,573.5,1858.4644,577.5,1854.4644" style="stroke: #A80036; stroke-width: 1.0;"/><line style="stroke: #A80036; stroke-width: 1.5;" x1="446" x2="446" y1="1822.4644" y2="1842.4644"/><polygon fill="#A80036" points="442,1832.4644,446,1842.4644,450,1832.4644,446,1836.4644" style="stroke: #A80036; stroke-width: 1.0;"/><line style="stroke: #A80036; stroke-width: 1.5;" x1="446" x2="446" y1="1952.1436" y2="1972.1436"/><polygon fill="#A80036" points="442,1962.1436,446,1972.1436,450,1962.1436,446,1966.1436" style="stroke: #A80036; stroke-width: 1.0;"/><line style="stroke: #A80036; stroke-width: 1.5;" x1="446" x2="446" y1="1764.0933" y2="1788.4956"/><polygon fill="#A80036" points="442,1778.4956,446,1788.4956,450,1778.4956,446,1782.4956" style="stroke: #A80036; stroke-width: 1.0;"/><line style="stroke: #A80036; stroke-width: 1.5;" x1="568.5" x2="625.5" y1="1752.0933" y2="1752.0933"/><polygon fill="#A80036" points="621.5,1888.1748,625.5,1898.1748,629.5,1888.1748,625.5,1892.1748" style="stroke: #A80036; stroke-width: 1.5;"/><line style="stroke: #A80036; stroke-width: 1.5;" x1="625.5" x2="625.5" y1="1752.0933" y2="2014.1436"/><line style="stroke: #A80036; stroke-width: 1.5;" x1="625.5" x2="446" y1="2014.1436" y2="2014.1436"/><line style="stroke: #A80036; stroke-width: 1.5;" x1="446" x2="446" y1="2014.1436" y2="2034.1436"/><polygon fill="#A80036" points="442,2024.1436,446,2034.1436,450,2024.1436,446,2028.1436" style="stroke: #A80036; stroke-width: 1.0;"/><line style="stroke: #A80036; stroke-width: 1.5;" x1="446" x2="446" y1="2068.1123" y2="2088.1123"/><polygon fill="#A80036" points="442,2078.1123,446,2088.1123,450,2078.1123,446,2082.1123" style="stroke: #A80036; stroke-width: 1.0;"/><line style="stroke: #A80036; stroke-width: 1.5;" x1="446" x2="446" y1="1715.6909" y2="1740.0933"/><polygon fill="#A80036" points="442,1730.0933,446,1740.0933,450,1730.0933,446,1734.0933" style="stroke: #A80036; stroke-width: 1.0;"/><line style="stroke: #A80036; stroke-width: 1.5;" x1="472.5" x2="647.5" y1="1703.6909" y2="1703.6909"/><polygon fill="#A80036" points="643.5,1914.2568,647.5,1924.2568,651.5,1914.2568,647.5,1918.2568" style="stroke: #A80036; stroke-width: 1.5;"/><line style="stroke: #A80036; stroke-width: 1.5;" x1="647.5" x2="647.5" y1="1703.6909" y2="2130.1123"/><line style="stroke: #A80036; stroke-width: 1.5;" x1="647.5" x2="446" y1="2130.1123" y2="2130.1123"/><line style="stroke: #A80036; stroke-width: 1.5;" x1="446" x2="446" y1="2130.1123" y2="2188.4092"/><polygon fill="#A80036" points="442,2178.4092,446,2188.4092,450,2178.4092,446,2182.4092" style="stroke: #A80036; stroke-width: 1.0;"/><line style="stroke: #A80036; stroke-width: 1.5;" x1="446" x2="446" y1="1633.394" y2="1691.6909"/><polygon fill="#A80036" points="442,1681.6909,446,1691.6909,450,1681.6909,446,1685.6909" style="stroke: #A80036; stroke-width: 1.0;"/><line style="stroke: #A80036; stroke-width: 1.5;" x1="446" x2="446" y1="2236.3467" y2="2268.3467"/><polygon fill="#A80036" points="442,2258.3467,446,2268.3467,450,2258.3467,446,2262.3467" style="stroke: #A80036; stroke-width: 1.0;"/><!--
@startuml
skinparam backgroundcolor White|White

title Hunspell - Check Spelling - bool spell(word, info, root)

start
floating note: Return FALSE is implied.

partition "initialazition" {
	:reset I/O parameter info;
	if (word length exceeds maximum?) then (yes)
		stop
	else (no)
	endif
}

partition "input conversion" {
	if (input conversion available?) then (yes)
		:perform input conversion on word;
	else (no)
	endif
	if (input conversion changed word?) then (yes)
		:clean converted word and store:\n- cleaned word length\n- cleaned word\n- capitalization type "captype"\n- abbreviation count "abbv";
	else (no)
		:clean (original) word and store:\n- cleaned word length\n- cleaned word\n- capitalization type "captype"\n- abbreviation count "abbv";
	endif

	if (client is Mozilla) then (yes)
		:set abbreviation count to 1;
	else (no)
	endif

	if (cleaned word length is 0 OR hash manager is empty?) then (yes)
		:return TRUE;
		stop
	else (no)
	endif
	:reset root;
}

partition "numbers and numeric separators" {
	:determine number state for cleaned word;
	if (cleaned word is a number?) then (yes)
		:return TRUE;
		stop
	else (no)
	endif
}

partition "capitalization type" {
	if (captype is camel case, pascal case OR lower/neutral case?) then(yes)
		if (captype is camel case OR pascal case?) then(yes)
			:add SPELL_ORIGCAP to info;
		else (no)
		endif
		#skyblue:root = check_word(cleaned word, info, root);
		if (abbv > 0 AND no root?) then (yes)
			#skyblue:root = check_word(cleaned word period added at end, info, root);
		else (no)
		endif
	else (no)
		#skyblue:Check Spelling A\nspell upper or capitalized;
	endif
}

partition "forbidden words" {
	if (root?) then (yes)
		if (warning flag is present in root's flags?) then (yes)
			:add SPELL_WARN to info;
			if (generic setting forbids warnings?) then (yes)
				stop
			else (no)
			endif
			:return TRUE;
			stop
		else (no)
		endif
		:return TRUE;
		stop
	else (no)
	endif
}

partition "recursive breaking at break points" {
	#skyblue:Check Spelling B\nrecurse breakpoints;
}

stop

@enduml

PlantUML version 1.2018.06(Mon May 21 12:34:53 CEST 2018)
(GPL source distribution)
Java Runtime: OpenJDK Runtime Environment
JVM: OpenJDK 64-Bit Server VM
Java Version: 10.0.2+13-Ubuntu-1ubuntu0.18.04.2
Operating System: Linux
OS Version: 4.15.0-33-generic
Default Encoding: UTF-8
Language: en
Country: US
--></g></svg>