<?xml version="1.0" encoding="UTF-8" standalone="yes"?><svg xmlns="http://www.w3.org/2000/svg" xmlns:xlink="http://www.w3.org/1999/xlink" height="1842px" style="width:745px;height:1842px;" version="1.1" viewBox="0 0 745 1842" width="745px"><defs><linearGradient id="gr0" x1="0%" x2="100%" y1="50%" y2="50%"><stop offset="0%" stop-color="#FFFFFF"/><stop offset="100%" stop-color="#FFFFFF"/></linearGradient><filter height="300%" id="f1" width="300%" x="-1" y="-1"><feGaussianBlur result="blurOut" stdDeviation="2.0"/><feColorMatrix in="blurOut" result="blurOut2" type="matrix" values="0 0 0 0 0 0 0 0 0 0 0 0 0 0 0 0 0 0 .4 0"/><feOffset dx="4.0" dy="4.0" in="blurOut2" result="blurOut3"/><feBlend in="SourceGraphic" in2="blurOut3" mode="normal"/></filter></defs><g><rect fill="url(#gr0)" height="1842" style="stroke: none; stroke-width: 1.0;" width="745" x="0" y="0"/><text fill="#000000" font-family="sans-serif" font-size="18" lengthAdjust="spacingAndGlyphs" textLength="200" x="274" y="26.708">Hunspell - Spell (spell)</text><ellipse cx="480.5" cy="40.9531" fill="#000000" filter="url(#f1)" rx="10" ry="10" style="stroke: none; stroke-width: 1.0;"/><rect fill="#FFFFFF" filter="url(#f1)" height="185.2656" style="stroke: #000000; stroke-width: 2.0;" width="385" x="270.5" y="61.7549"/><path d="M347.5,62.7549 L347.5,71.0518 L337.5,81.0518 L270.5,81.0518 " fill="#FFFFFF" style="stroke: #000000; stroke-width: 2.0;"/><text fill="#000000" font-family="sans-serif" font-size="14" lengthAdjust="spacingAndGlyphs" textLength="67" x="273.5" y="75.75">limitation</text><polygon fill="#FEFECE" filter="url(#f1)" points="362.5,98.0518,598.5,98.0518,610.5,110.0518,598.5,122.0518,362.5,122.0518,350.5,110.0518,362.5,98.0518" style="stroke: #A80036; stroke-width: 1.5;"/><text fill="#000000" font-family="sans-serif" font-size="11" lengthAdjust="spacingAndGlyphs" textLength="236" x="362.5" y="113.8599">length of word &gt;= maximum word length</text><text fill="#000000" font-family="sans-serif" font-size="11" lengthAdjust="spacingAndGlyphs" textLength="20" x="330.5" y="107.4575">yes</text><text fill="#000000" font-family="sans-serif" font-size="11" lengthAdjust="spacingAndGlyphs" textLength="14" x="610.5" y="107.4575">no</text><rect fill="#FEFECE" filter="url(#f1)" height="33.9688" rx="12.5" ry="12.5" style="stroke: #A80036; stroke-width: 1.5;" width="100" x="290.5" y="132.0518"/><text fill="#000000" font-family="sans-serif" font-size="12" lengthAdjust="spacingAndGlyphs" textLength="80" x="300.5" y="153.1904">return FALSE</text><ellipse cx="340.5" cy="211.0205" fill="none" filter="url(#f1)" rx="10" ry="10" style="stroke: #000000; stroke-width: 1.0;"/><ellipse cx="341" cy="211.5205" fill="#000000" filter="url(#f1)" rx="6" ry="6" style="stroke: none; stroke-width: 1.0;"/><rect fill="#FFFFFF" filter="url(#f1)" height="848.2813" style="stroke: #000000; stroke-width: 2.0;" width="576.75" x="151.25" y="257.8223"/><path d="M279.25,258.8223 L279.25,267.1191 L269.25,277.1191 L151.25,277.1191 " fill="#FFFFFF" style="stroke: #000000; stroke-width: 2.0;"/><text fill="#000000" font-family="sans-serif" font-size="14" lengthAdjust="spacingAndGlyphs" textLength="118" x="154.25" y="271.8174">input conversion</text><polygon fill="#FEFECE" filter="url(#f1)" points="422,294.1191,539,294.1191,551,306.1191,539,318.1191,422,318.1191,410,306.1191,422,294.1191" style="stroke: #A80036; stroke-width: 1.5;"/><text fill="#000000" font-family="sans-serif" font-size="11" lengthAdjust="spacingAndGlyphs" textLength="117" x="422" y="309.9272">affix manager exists</text><text fill="#000000" font-family="sans-serif" font-size="11" lengthAdjust="spacingAndGlyphs" textLength="20" x="390" y="303.5249">yes</text><text fill="#000000" font-family="sans-serif" font-size="11" lengthAdjust="spacingAndGlyphs" textLength="14" x="551" y="303.5249">no</text><rect fill="#FEFECE" filter="url(#f1)" height="33.9688" rx="12.5" ry="12.5" style="stroke: #A80036; stroke-width: 1.5;" width="285" x="249.25" y="328.1191"/><text fill="#000000" font-family="sans-serif" font-size="12" lengthAdjust="spacingAndGlyphs" textLength="265" x="259.25" y="349.2578">get input conversion list from affix manager</text><polygon fill="#FEFECE" filter="url(#f1)" points="316.25,397.0879,467.25,397.0879,479.25,409.0879,467.25,421.0879,316.25,421.0879,304.25,409.0879,316.25,397.0879" style="stroke: #A80036; stroke-width: 1.5;"/><text fill="#000000" font-family="sans-serif" font-size="11" lengthAdjust="spacingAndGlyphs" textLength="151" x="316.25" y="412.896">input conversion list exists</text><text fill="#000000" font-family="sans-serif" font-size="11" lengthAdjust="spacingAndGlyphs" textLength="20" x="284.25" y="406.4937">yes</text><text fill="#000000" font-family="sans-serif" font-size="11" lengthAdjust="spacingAndGlyphs" textLength="14" x="479.25" y="406.4937">no</text><rect fill="#FEFECE" filter="url(#f1)" height="33.9688" rx="12.5" ry="12.5" style="stroke: #A80036; stroke-width: 1.5;" width="226" x="181.25" y="431.0879"/><text fill="#000000" font-family="sans-serif" font-size="12" lengthAdjust="spacingAndGlyphs" textLength="206" x="191.25" y="452.2266">perform input conversion on word</text><polygon fill="#FEFECE" filter="url(#f1)" points="391.75,471.0566,403.75,483.0566,391.75,495.0566,379.75,483.0566,391.75,471.0566" style="stroke: #A80036; stroke-width: 1.5;"/><polygon fill="#FEFECE" filter="url(#f1)" points="480.5,501.0566,492.5,513.0566,480.5,525.0566,468.5,513.0566,480.5,501.0566" style="stroke: #A80036; stroke-width: 1.5;"/><polygon fill="#FEFECE" filter="url(#f1)" points="379.5,560.0566,581.5,560.0566,593.5,572.0566,581.5,584.0566,379.5,584.0566,367.5,572.0566,379.5,560.0566" style="stroke: #A80036; stroke-width: 1.5;"/><text fill="#000000" font-family="sans-serif" font-size="11" lengthAdjust="spacingAndGlyphs" textLength="202" x="379.5" y="575.8647">input conversion has changed word</text><text fill="#000000" font-family="sans-serif" font-size="11" lengthAdjust="spacingAndGlyphs" textLength="20" x="347.5" y="569.4624">yes</text><text fill="#000000" font-family="sans-serif" font-size="11" lengthAdjust="spacingAndGlyphs" textLength="14" x="593.5" y="569.4624">no</text><rect fill="#FEFECE" filter="url(#f1)" height="89.8438" rx="12.5" ry="12.5" style="stroke: #A80036; stroke-width: 1.5;" width="216" x="249.5" y="594.0566"/><text fill="#000000" font-family="sans-serif" font-size="12" lengthAdjust="spacingAndGlyphs" textLength="196" x="259.5" y="615.1953">clean converted word and store:</text><text fill="#000000" font-family="sans-serif" font-size="12" lengthAdjust="spacingAndGlyphs" textLength="132" x="259.5" y="629.1641">- cleaned word length</text><text fill="#000000" font-family="sans-serif" font-size="12" lengthAdjust="spacingAndGlyphs" textLength="89" x="259.5" y="643.1328">- cleaned word</text><text fill="#000000" font-family="sans-serif" font-size="12" lengthAdjust="spacingAndGlyphs" textLength="118" x="259.5" y="657.1016">- capitalization type</text><text fill="#000000" font-family="sans-serif" font-size="12" lengthAdjust="spacingAndGlyphs" textLength="79" x="259.5" y="671.0703">- abbr. count</text><rect fill="#FEFECE" filter="url(#f1)" height="89.8438" rx="12.5" ry="12.5" style="stroke: #A80036; stroke-width: 1.5;" width="209" x="499" y="594.0566"/><text fill="#000000" font-family="sans-serif" font-size="12" lengthAdjust="spacingAndGlyphs" textLength="189" x="509" y="615.1953">clean (original) word and store:</text><text fill="#000000" font-family="sans-serif" font-size="12" lengthAdjust="spacingAndGlyphs" textLength="132" x="509" y="629.1641">- cleaned word length</text><text fill="#000000" font-family="sans-serif" font-size="12" lengthAdjust="spacingAndGlyphs" textLength="89" x="509" y="643.1328">- cleaned word</text><text fill="#000000" font-family="sans-serif" font-size="12" lengthAdjust="spacingAndGlyphs" textLength="118" x="509" y="657.1016">- capitalization type</text><text fill="#000000" font-family="sans-serif" font-size="12" lengthAdjust="spacingAndGlyphs" textLength="79" x="509" y="671.0703">- abbr. count</text><polygon fill="#FEFECE" filter="url(#f1)" points="480.5,689.9004,492.5,701.9004,480.5,713.9004,468.5,701.9004,480.5,689.9004" style="stroke: #A80036; stroke-width: 1.5;"/><polygon fill="#FEFECE" filter="url(#f1)" points="438,748.9004,523,748.9004,535,760.9004,523,772.9004,438,772.9004,426,760.9004,438,748.9004" style="stroke: #A80036; stroke-width: 1.5;"/><text fill="#000000" font-family="sans-serif" font-size="11" lengthAdjust="spacingAndGlyphs" textLength="85" x="438" y="764.7085">client is Mozilla</text><text fill="#000000" font-family="sans-serif" font-size="11" lengthAdjust="spacingAndGlyphs" textLength="20" x="406" y="758.3062">yes</text><text fill="#000000" font-family="sans-serif" font-size="11" lengthAdjust="spacingAndGlyphs" textLength="14" x="535" y="758.3062">no</text><rect fill="#FEFECE" filter="url(#f1)" height="33.9688" rx="12.5" ry="12.5" style="stroke: #A80036; stroke-width: 1.5;" width="141" x="345.5" y="782.9004"/><text fill="#000000" font-family="sans-serif" font-size="12" lengthAdjust="spacingAndGlyphs" textLength="121" x="355.5" y="804.0391">set abbr. count to 1</text><polygon fill="#FEFECE" filter="url(#f1)" points="480.5,822.8691,492.5,834.8691,480.5,846.8691,468.5,834.8691,480.5,822.8691" style="stroke: #A80036; stroke-width: 1.5;"/><polygon fill="#FEFECE" filter="url(#f1)" points="333.5,881.8691,627.5,881.8691,639.5,893.8691,627.5,905.8691,333.5,905.8691,321.5,893.8691,333.5,881.8691" style="stroke: #A80036; stroke-width: 1.5;"/><text fill="#000000" font-family="sans-serif" font-size="11" lengthAdjust="spacingAndGlyphs" textLength="294" x="333.5" y="897.6772">cleaned word length is 0 or hash manager is empty</text><text fill="#000000" font-family="sans-serif" font-size="11" lengthAdjust="spacingAndGlyphs" textLength="20" x="301.5" y="891.2749">yes</text><text fill="#000000" font-family="sans-serif" font-size="11" lengthAdjust="spacingAndGlyphs" textLength="14" x="639.5" y="891.2749">no</text><rect fill="#FEFECE" filter="url(#f1)" height="33.9688" rx="12.5" ry="12.5" style="stroke: #A80036; stroke-width: 1.5;" width="94" x="264.5" y="915.8691"/><text fill="#000000" font-family="sans-serif" font-size="12" lengthAdjust="spacingAndGlyphs" textLength="74" x="274.5" y="937.0078">return TRUE</text><ellipse cx="311.5" cy="994.8379" fill="none" filter="url(#f1)" rx="10" ry="10" style="stroke: #000000; stroke-width: 1.0;"/><ellipse cx="312" cy="995.3379" fill="#000000" filter="url(#f1)" rx="6" ry="6" style="stroke: none; stroke-width: 1.0;"/><polygon fill="#FBFB77" filter="url(#f1)" points="271,1045.8379,271,1086.1035,417,1086.1035,417,1055.8379,407,1045.8379,271,1045.8379" style="stroke: #A80036; stroke-width: 1.0;"/><polygon fill="#FBFB77" points="271,1045.8379,271,1086.1035,417,1086.1035,417,1069.9707,437,1065.9707,417,1061.9707,417,1055.8379,407,1045.8379,271,1045.8379" style="stroke: #A80036; stroke-width: 1.0;"/><line style="stroke: #A80036; stroke-width: 1.0;" x1="407" x2="407" y1="1045.8379" y2="1055.8379"/><line style="stroke: #A80036; stroke-width: 1.0;" x1="417" x2="407" y1="1055.8379" y2="1055.8379"/><text fill="#000000" font-family="sans-serif" font-size="13" lengthAdjust="spacingAndGlyphs" textLength="92" x="277" y="1062.9048">can this move</text><text fill="#000000" font-family="sans-serif" font-size="13" lengthAdjust="spacingAndGlyphs" textLength="125" x="277" y="1078.0376">up to initialization?</text><rect fill="#FEFECE" filter="url(#f1)" height="33.9688" rx="12.5" ry="12.5" style="stroke: #A80036; stroke-width: 1.5;" width="87" x="437" y="1048.9863"/><text fill="#000000" font-family="sans-serif" font-size="12" lengthAdjust="spacingAndGlyphs" textLength="67" x="447" y="1070.125">empty root</text><rect fill="#FFFFFF" filter="url(#f1)" height="260.5313" style="stroke: #000000; stroke-width: 2.0;" width="419" x="181.5" y="1116.9053"/><path d="M286.5,1117.9053 L286.5,1126.2021 L276.5,1136.2021 L181.5,1136.2021 " fill="#FFFFFF" style="stroke: #000000; stroke-width: 2.0;"/><text fill="#000000" font-family="sans-serif" font-size="14" lengthAdjust="spacingAndGlyphs" textLength="95" x="184.5" y="1130.9004">number state</text><rect fill="#FEFECE" filter="url(#f1)" height="33.9688" rx="12.5" ry="12.5" style="stroke: #A80036; stroke-width: 1.5;" width="168" x="396.5" y="1153.2021"/><text fill="#000000" font-family="sans-serif" font-size="12" lengthAdjust="spacingAndGlyphs" textLength="148" x="406.5" y="1174.3408">determine number state</text><polygon fill="#FEFECE" filter="url(#f1)" points="417.5,1222.1709,543.5,1222.1709,555.5,1234.1709,543.5,1246.1709,417.5,1246.1709,405.5,1234.1709,417.5,1222.1709" style="stroke: #A80036; stroke-width: 1.5;"/><text fill="#000000" font-family="sans-serif" font-size="11" lengthAdjust="spacingAndGlyphs" textLength="126" x="417.5" y="1237.979">number state is NNUM</text><text fill="#000000" font-family="sans-serif" font-size="11" lengthAdjust="spacingAndGlyphs" textLength="20" x="385.5" y="1231.5767">yes</text><text fill="#000000" font-family="sans-serif" font-size="11" lengthAdjust="spacingAndGlyphs" textLength="14" x="555.5" y="1231.5767">no</text><polygon fill="#FBFB77" filter="url(#f1)" points="201.5,1256.1709,201.5,1296.4365,328.5,1296.4365,328.5,1266.1709,318.5,1256.1709,201.5,1256.1709" style="stroke: #A80036; stroke-width: 1.0;"/><polygon fill="#FBFB77" points="201.5,1256.1709,201.5,1296.4365,328.5,1296.4365,328.5,1280.3037,348.5,1276.3037,328.5,1272.3037,328.5,1266.1709,318.5,1256.1709,201.5,1256.1709" style="stroke: #A80036; stroke-width: 1.0;"/><line style="stroke: #A80036; stroke-width: 1.0;" x1="318.5" x2="318.5" y1="1256.1709" y2="1266.1709"/><line style="stroke: #A80036; stroke-width: 1.0;" x1="328.5" x2="318.5" y1="1266.1709" y2="1266.1709"/><text fill="#000000" font-family="sans-serif" font-size="13" lengthAdjust="spacingAndGlyphs" textLength="89" x="207.5" y="1273.2378">word consists</text><text fill="#000000" font-family="sans-serif" font-size="13" lengthAdjust="spacingAndGlyphs" textLength="106" x="207.5" y="1288.3706">of only numbers</text><rect fill="#FEFECE" filter="url(#f1)" height="33.9688" rx="12.5" ry="12.5" style="stroke: #A80036; stroke-width: 1.5;" width="94" x="348.5" y="1259.3193"/><text fill="#000000" font-family="sans-serif" font-size="12" lengthAdjust="spacingAndGlyphs" textLength="74" x="358.5" y="1280.458">return TRUE</text><ellipse cx="395.5" cy="1341.4365" fill="none" filter="url(#f1)" rx="10" ry="10" style="stroke: #000000; stroke-width: 1.0;"/><ellipse cx="396" cy="1341.9365" fill="#000000" filter="url(#f1)" rx="6" ry="6" style="stroke: none; stroke-width: 1.0;"/><rect fill="#FFFFFF" filter="url(#f1)" height="104.2344" style="stroke: #000000; stroke-width: 2.0;" width="524" x="108.5" y="1388.2383"/><path d="M199.5,1389.2383 L199.5,1397.5352 L189.5,1407.5352 L108.5,1407.5352 " fill="#FFFFFF" style="stroke: #000000; stroke-width: 2.0;"/><text fill="#000000" font-family="sans-serif" font-size="14" lengthAdjust="spacingAndGlyphs" textLength="81" x="111.5" y="1402.2334">check word</text><polygon fill="#FBFB77" filter="url(#f1)" points="118.5,1435.9375,118.5,1461.0703,318.5,1461.0703,318.5,1445.9375,308.5,1435.9375,118.5,1435.9375" style="stroke: #A80036; stroke-width: 1.0;"/><polygon fill="#FBFB77" points="118.5,1435.9375,118.5,1461.0703,318.5,1461.0703,318.5,1453.9375,338.5,1448.5039,318.5,1445.9375,318.5,1445.9375,308.5,1435.9375,118.5,1435.9375" style="stroke: #A80036; stroke-width: 1.0;"/><line style="stroke: #A80036; stroke-width: 1.0;" x1="308.5" x2="308.5" y1="1435.9375" y2="1445.9375"/><line style="stroke: #A80036; stroke-width: 1.0;" x1="318.5" x2="308.5" y1="1445.9375" y2="1445.9375"/><text fill="#000000" font-family="sans-serif" font-size="13" lengthAdjust="spacingAndGlyphs" textLength="179" x="124.5" y="1453.0044">see other activity diagrams</text><rect fill="#FEFECE" filter="url(#f1)" height="47.9375" rx="12.5" ry="12.5" style="stroke: #A80036; stroke-width: 1.5;" width="284" x="338.5" y="1424.5352"/><text fill="#000000" font-family="sans-serif" font-size="12" lengthAdjust="spacingAndGlyphs" textLength="227" x="348.5" y="1445.6738">set root value to result of check_word</text><text fill="#000000" font-family="sans-serif" font-size="12" lengthAdjust="spacingAndGlyphs" textLength="264" x="348.5" y="1459.6426">according depending on cleaned word case</text><rect fill="#FFFFFF" filter="url(#f1)" height="90.2656" style="stroke: #000000; stroke-width: 2.0;" width="235" x="363" y="1503.2744"/><path d="M488,1504.2744 L488,1512.5713 L478,1522.5713 L363,1522.5713 " fill="#FFFFFF" style="stroke: #000000; stroke-width: 2.0;"/><text fill="#000000" font-family="sans-serif" font-size="14" lengthAdjust="spacingAndGlyphs" textLength="115" x="366" y="1517.2695">forbidden words</text><rect fill="#FEFECE" filter="url(#f1)" height="33.9688" rx="12.5" ry="12.5" style="stroke: #A80036; stroke-width: 1.5;" width="215" x="373" y="1539.5713"/><text fill="#000000" font-family="sans-serif" font-size="12" lengthAdjust="spacingAndGlyphs" textLength="195" x="383" y="1560.71">TODO deal with forbidden words</text><rect fill="#FFFFFF" filter="url(#f1)" height="90.2656" style="stroke: #000000; stroke-width: 2.0;" width="728" x="10" y="1604.3418"/><path d="M53,1605.3418 L53,1613.6387 L43,1623.6387 L10,1623.6387 " fill="#FFFFFF" style="stroke: #000000; stroke-width: 2.0;"/><text fill="#000000" font-family="sans-serif" font-size="14" lengthAdjust="spacingAndGlyphs" textLength="33" x="13" y="1618.3369">spell</text><polygon fill="#FBFB77" filter="url(#f1)" points="20,1645.0566,20,1670.1895,213,1670.1895,213,1655.0566,203,1645.0566,20,1645.0566" style="stroke: #A80036; stroke-width: 1.0;"/><polygon fill="#FBFB77" points="20,1645.0566,20,1670.1895,213,1670.1895,213,1663.0566,233,1657.623,213,1655.0566,213,1655.0566,203,1645.0566,20,1645.0566" style="stroke: #A80036; stroke-width: 1.0;"/><line style="stroke: #A80036; stroke-width: 1.0;" x1="203" x2="203" y1="1645.0566" y2="1655.0566"/><line style="stroke: #A80036; stroke-width: 1.0;" x1="213" x2="203" y1="1655.0566" y2="1655.0566"/><text fill="#000000" font-family="sans-serif" font-size="13" lengthAdjust="spacingAndGlyphs" textLength="172" x="26" y="1662.1235">see other activity diagram</text><rect fill="#FEFECE" filter="url(#f1)" height="33.9688" rx="12.5" ry="12.5" style="stroke: #A80036; stroke-width: 1.5;" width="495" x="233" y="1640.6387"/><text fill="#000000" font-family="sans-serif" font-size="12" lengthAdjust="spacingAndGlyphs" textLength="475" x="243" y="1661.7773">return result recursive call to this spell algorithm depending on break patterns</text><rect fill="#FFFFFF" filter="url(#f1)" height="90.2656" style="stroke: #000000; stroke-width: 2.0;" width="120" x="420.5" y="1705.4092"/><path d="M480.5,1706.4092 L480.5,1714.7061 L470.5,1724.7061 L420.5,1724.7061 " fill="#FFFFFF" style="stroke: #000000; stroke-width: 2.0;"/><text fill="#000000" font-family="sans-serif" font-size="14" lengthAdjust="spacingAndGlyphs" textLength="50" x="423.5" y="1719.4043">default</text><rect fill="#FEFECE" filter="url(#f1)" height="33.9688" rx="12.5" ry="12.5" style="stroke: #A80036; stroke-width: 1.5;" width="100" x="430.5" y="1741.7061"/><text fill="#000000" font-family="sans-serif" font-size="12" lengthAdjust="spacingAndGlyphs" textLength="80" x="440.5" y="1762.8447">return FALSE</text><ellipse cx="480.5" cy="1825.6748" fill="none" filter="url(#f1)" rx="10" ry="10" style="stroke: #000000; stroke-width: 1.0;"/><ellipse cx="481" cy="1826.1748" fill="#000000" filter="url(#f1)" rx="6" ry="6" style="stroke: none; stroke-width: 1.0;"/><line style="stroke: #A80036; stroke-width: 1.5;" x1="340.5" x2="340.5" y1="166.0205" y2="201.0205"/><polygon fill="#A80036" points="336.5,191.0205,340.5,201.0205,344.5,191.0205,340.5,195.0205" style="stroke: #A80036; stroke-width: 1.0;"/><line style="stroke: #A80036; stroke-width: 1.5;" x1="350.5" x2="340.5" y1="110.0518" y2="110.0518"/><line style="stroke: #A80036; stroke-width: 1.5;" x1="340.5" x2="340.5" y1="110.0518" y2="132.0518"/><polygon fill="#A80036" points="336.5,122.0518,340.5,132.0518,344.5,122.0518,340.5,126.0518" style="stroke: #A80036; stroke-width: 1.0;"/><line style="stroke: #A80036; stroke-width: 1.5;" x1="610.5" x2="620.5" y1="110.0518" y2="110.0518"/><polygon fill="#A80036" points="616.5,158.5361,620.5,168.5361,624.5,158.5361,620.5,162.5361" style="stroke: #A80036; stroke-width: 1.5;"/><line style="stroke: #A80036; stroke-width: 1.5;" x1="620.5" x2="620.5" y1="110.0518" y2="227.0205"/><line style="stroke: #A80036; stroke-width: 1.5;" x1="620.5" x2="480.5" y1="227.0205" y2="227.0205"/><line style="stroke: #A80036; stroke-width: 1.5;" x1="480.5" x2="480.5" y1="227.0205" y2="294.1191"/><polygon fill="#A80036" points="476.5,284.1191,480.5,294.1191,484.5,284.1191,480.5,288.1191" style="stroke: #A80036; stroke-width: 1.0;"/><line style="stroke: #A80036; stroke-width: 1.5;" x1="480.5" x2="480.5" y1="50.9531" y2="98.0518"/><polygon fill="#A80036" points="476.5,88.0518,480.5,98.0518,484.5,88.0518,480.5,92.0518" style="stroke: #A80036; stroke-width: 1.0;"/><line style="stroke: #A80036; stroke-width: 1.5;" x1="304.25" x2="294.25" y1="409.0879" y2="409.0879"/><line style="stroke: #A80036; stroke-width: 1.5;" x1="294.25" x2="294.25" y1="409.0879" y2="431.0879"/><polygon fill="#A80036" points="290.25,421.0879,294.25,431.0879,298.25,421.0879,294.25,425.0879" style="stroke: #A80036; stroke-width: 1.0;"/><line style="stroke: #A80036; stroke-width: 1.5;" x1="479.25" x2="489.25" y1="409.0879" y2="409.0879"/><polygon fill="#A80036" points="485.25,436.0723,489.25,446.0723,493.25,436.0723,489.25,440.0723" style="stroke: #A80036; stroke-width: 1.5;"/><line style="stroke: #A80036; stroke-width: 1.5;" x1="489.25" x2="489.25" y1="409.0879" y2="483.0566"/><line style="stroke: #A80036; stroke-width: 1.5;" x1="489.25" x2="403.75" y1="483.0566" y2="483.0566"/><polygon fill="#A80036" points="413.75,479.0566,403.75,483.0566,413.75,487.0566,409.75,483.0566" style="stroke: #A80036; stroke-width: 1.0;"/><line style="stroke: #A80036; stroke-width: 1.5;" x1="294.25" x2="294.25" y1="465.0566" y2="483.0566"/><line style="stroke: #A80036; stroke-width: 1.5;" x1="294.25" x2="379.75" y1="483.0566" y2="483.0566"/><polygon fill="#A80036" points="369.75,479.0566,379.75,483.0566,369.75,487.0566,373.75,483.0566" style="stroke: #A80036; stroke-width: 1.0;"/><line style="stroke: #A80036; stroke-width: 1.5;" x1="391.75" x2="391.75" y1="362.0879" y2="397.0879"/><polygon fill="#A80036" points="387.75,387.0879,391.75,397.0879,395.75,387.0879,391.75,391.0879" style="stroke: #A80036; stroke-width: 1.0;"/><line style="stroke: #A80036; stroke-width: 1.5;" x1="410" x2="391.75" y1="306.1191" y2="306.1191"/><line style="stroke: #A80036; stroke-width: 1.5;" x1="391.75" x2="391.75" y1="306.1191" y2="328.1191"/><polygon fill="#A80036" points="387.75,318.1191,391.75,328.1191,395.75,318.1191,391.75,322.1191" style="stroke: #A80036; stroke-width: 1.0;"/><line style="stroke: #A80036; stroke-width: 1.5;" x1="551" x2="569.25" y1="306.1191" y2="306.1191"/><polygon fill="#A80036" points="565.25,399.5879,569.25,409.5879,573.25,399.5879,569.25,403.5879" style="stroke: #A80036; stroke-width: 1.5;"/><line style="stroke: #A80036; stroke-width: 1.5;" x1="569.25" x2="569.25" y1="306.1191" y2="513.0566"/><line style="stroke: #A80036; stroke-width: 1.5;" x1="569.25" x2="492.5" y1="513.0566" y2="513.0566"/><polygon fill="#A80036" points="502.5,509.0566,492.5,513.0566,502.5,517.0566,498.5,513.0566" style="stroke: #A80036; stroke-width: 1.0;"/><line style="stroke: #A80036; stroke-width: 1.5;" x1="391.75" x2="391.75" y1="495.0566" y2="513.0566"/><line style="stroke: #A80036; stroke-width: 1.5;" x1="391.75" x2="468.5" y1="513.0566" y2="513.0566"/><polygon fill="#A80036" points="458.5,509.0566,468.5,513.0566,458.5,517.0566,462.5,513.0566" style="stroke: #A80036; stroke-width: 1.0;"/><line style="stroke: #A80036; stroke-width: 1.5;" x1="367.5" x2="357.5" y1="572.0566" y2="572.0566"/><line style="stroke: #A80036; stroke-width: 1.5;" x1="357.5" x2="357.5" y1="572.0566" y2="594.0566"/><polygon fill="#A80036" points="353.5,584.0566,357.5,594.0566,361.5,584.0566,357.5,588.0566" style="stroke: #A80036; stroke-width: 1.0;"/><line style="stroke: #A80036; stroke-width: 1.5;" x1="593.5" x2="603.5" y1="572.0566" y2="572.0566"/><line style="stroke: #A80036; stroke-width: 1.5;" x1="603.5" x2="603.5" y1="572.0566" y2="594.0566"/><polygon fill="#A80036" points="599.5,584.0566,603.5,594.0566,607.5,584.0566,603.5,588.0566" style="stroke: #A80036; stroke-width: 1.0;"/><line style="stroke: #A80036; stroke-width: 1.5;" x1="357.5" x2="357.5" y1="683.9004" y2="701.9004"/><line style="stroke: #A80036; stroke-width: 1.5;" x1="357.5" x2="468.5" y1="701.9004" y2="701.9004"/><polygon fill="#A80036" points="458.5,697.9004,468.5,701.9004,458.5,705.9004,462.5,701.9004" style="stroke: #A80036; stroke-width: 1.0;"/><line style="stroke: #A80036; stroke-width: 1.5;" x1="603.5" x2="603.5" y1="683.9004" y2="701.9004"/><line style="stroke: #A80036; stroke-width: 1.5;" x1="603.5" x2="492.5" y1="701.9004" y2="701.9004"/><polygon fill="#A80036" points="502.5,697.9004,492.5,701.9004,502.5,705.9004,498.5,701.9004" style="stroke: #A80036; stroke-width: 1.0;"/><line style="stroke: #A80036; stroke-width: 1.5;" x1="480.5" x2="480.5" y1="525.0566" y2="560.0566"/><polygon fill="#A80036" points="476.5,550.0566,480.5,560.0566,484.5,550.0566,480.5,554.0566" style="stroke: #A80036; stroke-width: 1.0;"/><line style="stroke: #A80036; stroke-width: 1.5;" x1="426" x2="416" y1="760.9004" y2="760.9004"/><line style="stroke: #A80036; stroke-width: 1.5;" x1="416" x2="416" y1="760.9004" y2="782.9004"/><polygon fill="#A80036" points="412,772.9004,416,782.9004,420,772.9004,416,776.9004" style="stroke: #A80036; stroke-width: 1.0;"/><line style="stroke: #A80036; stroke-width: 1.5;" x1="535" x2="545" y1="760.9004" y2="760.9004"/><polygon fill="#A80036" points="541,787.8848,545,797.8848,549,787.8848,545,791.8848" style="stroke: #A80036; stroke-width: 1.5;"/><line style="stroke: #A80036; stroke-width: 1.5;" x1="545" x2="545" y1="760.9004" y2="834.8691"/><line style="stroke: #A80036; stroke-width: 1.5;" x1="545" x2="492.5" y1="834.8691" y2="834.8691"/><polygon fill="#A80036" points="502.5,830.8691,492.5,834.8691,502.5,838.8691,498.5,834.8691" style="stroke: #A80036; stroke-width: 1.0;"/><line style="stroke: #A80036; stroke-width: 1.5;" x1="416" x2="416" y1="816.8691" y2="834.8691"/><line style="stroke: #A80036; stroke-width: 1.5;" x1="416" x2="468.5" y1="834.8691" y2="834.8691"/><polygon fill="#A80036" points="458.5,830.8691,468.5,834.8691,458.5,838.8691,462.5,834.8691" style="stroke: #A80036; stroke-width: 1.0;"/><line style="stroke: #A80036; stroke-width: 1.5;" x1="480.5" x2="480.5" y1="713.9004" y2="748.9004"/><polygon fill="#A80036" points="476.5,738.9004,480.5,748.9004,484.5,738.9004,480.5,742.9004" style="stroke: #A80036; stroke-width: 1.0;"/><line style="stroke: #A80036; stroke-width: 1.5;" x1="311.5" x2="311.5" y1="949.8379" y2="984.8379"/><polygon fill="#A80036" points="307.5,974.8379,311.5,984.8379,315.5,974.8379,311.5,978.8379" style="stroke: #A80036; stroke-width: 1.0;"/><line style="stroke: #A80036; stroke-width: 1.5;" x1="321.5" x2="311.5" y1="893.8691" y2="893.8691"/><line style="stroke: #A80036; stroke-width: 1.5;" x1="311.5" x2="311.5" y1="893.8691" y2="915.8691"/><polygon fill="#A80036" points="307.5,905.8691,311.5,915.8691,315.5,905.8691,311.5,909.8691" style="stroke: #A80036; stroke-width: 1.0;"/><line style="stroke: #A80036; stroke-width: 1.5;" x1="639.5" x2="649.5" y1="893.8691" y2="893.8691"/><polygon fill="#A80036" points="645.5,942.3535,649.5,952.3535,653.5,942.3535,649.5,946.3535" style="stroke: #A80036; stroke-width: 1.5;"/><line style="stroke: #A80036; stroke-width: 1.5;" x1="649.5" x2="649.5" y1="893.8691" y2="1010.8379"/><line style="stroke: #A80036; stroke-width: 1.5;" x1="649.5" x2="480.5" y1="1010.8379" y2="1010.8379"/><line style="stroke: #A80036; stroke-width: 1.5;" x1="480.5" x2="480.5" y1="1010.8379" y2="1048.9863"/><polygon fill="#A80036" points="476.5,1038.9863,480.5,1048.9863,484.5,1038.9863,480.5,1042.9863" style="stroke: #A80036; stroke-width: 1.0;"/><line style="stroke: #A80036; stroke-width: 1.5;" x1="480.5" x2="480.5" y1="846.8691" y2="881.8691"/><polygon fill="#A80036" points="476.5,871.8691,480.5,881.8691,484.5,871.8691,480.5,875.8691" style="stroke: #A80036; stroke-width: 1.0;"/><line style="stroke: #A80036; stroke-width: 1.5;" x1="395.5" x2="395.5" y1="1293.2881" y2="1331.4365"/><polygon fill="#A80036" points="391.5,1321.4365,395.5,1331.4365,399.5,1321.4365,395.5,1325.4365" style="stroke: #A80036; stroke-width: 1.0;"/><line style="stroke: #A80036; stroke-width: 1.5;" x1="405.5" x2="395.5" y1="1234.1709" y2="1234.1709"/><line style="stroke: #A80036; stroke-width: 1.5;" x1="395.5" x2="395.5" y1="1234.1709" y2="1259.3193"/><polygon fill="#A80036" points="391.5,1249.3193,395.5,1259.3193,399.5,1249.3193,395.5,1253.3193" style="stroke: #A80036; stroke-width: 1.0;"/><line style="stroke: #A80036; stroke-width: 1.5;" x1="555.5" x2="565.5" y1="1234.1709" y2="1234.1709"/><polygon fill="#A80036" points="561.5,1285.8037,565.5,1295.8037,569.5,1285.8037,565.5,1289.8037" style="stroke: #A80036; stroke-width: 1.5;"/><line style="stroke: #A80036; stroke-width: 1.5;" x1="565.5" x2="565.5" y1="1234.1709" y2="1357.4365"/><line style="stroke: #A80036; stroke-width: 1.5;" x1="565.5" x2="480.5" y1="1357.4365" y2="1357.4365"/><line style="stroke: #A80036; stroke-width: 1.5;" x1="480.5" x2="480.5" y1="1357.4365" y2="1424.5352"/><polygon fill="#A80036" points="476.5,1414.5352,480.5,1424.5352,484.5,1414.5352,480.5,1418.5352" style="stroke: #A80036; stroke-width: 1.0;"/><line style="stroke: #A80036; stroke-width: 1.5;" x1="480.5" x2="480.5" y1="1187.1709" y2="1222.1709"/><polygon fill="#A80036" points="476.5,1212.1709,480.5,1222.1709,484.5,1212.1709,480.5,1216.1709" style="stroke: #A80036; stroke-width: 1.0;"/><line style="stroke: #A80036; stroke-width: 1.5;" x1="480.5" x2="480.5" y1="1082.9551" y2="1153.2021"/><polygon fill="#A80036" points="476.5,1143.2021,480.5,1153.2021,484.5,1143.2021,480.5,1147.2021" style="stroke: #A80036; stroke-width: 1.0;"/><line style="stroke: #A80036; stroke-width: 1.5;" x1="480.5" x2="480.5" y1="1472.4727" y2="1539.5713"/><polygon fill="#A80036" points="476.5,1529.5713,480.5,1539.5713,484.5,1529.5713,480.5,1533.5713" style="stroke: #A80036; stroke-width: 1.0;"/><line style="stroke: #A80036; stroke-width: 1.5;" x1="480.5" x2="480.5" y1="1573.54" y2="1640.6387"/><polygon fill="#A80036" points="476.5,1630.6387,480.5,1640.6387,484.5,1630.6387,480.5,1634.6387" style="stroke: #A80036; stroke-width: 1.0;"/><line style="stroke: #A80036; stroke-width: 1.5;" x1="480.5" x2="480.5" y1="1674.6074" y2="1741.7061"/><polygon fill="#A80036" points="476.5,1731.7061,480.5,1741.7061,484.5,1731.7061,480.5,1735.7061" style="stroke: #A80036; stroke-width: 1.0;"/><line style="stroke: #A80036; stroke-width: 1.5;" x1="480.5" x2="480.5" y1="1775.6748" y2="1815.6748"/><polygon fill="#A80036" points="476.5,1805.6748,480.5,1815.6748,484.5,1805.6748,480.5,1809.6748" style="stroke: #A80036; stroke-width: 1.0;"/></g></svg>