<?xml version="1.0" encoding="UTF-8" standalone="no"?><svg xmlns="http://www.w3.org/2000/svg" xmlns:xlink="http://www.w3.org/1999/xlink" contentScriptType="application/ecmascript" contentStyleType="text/css" height="1507px" preserveAspectRatio="none" style="width:699px;height:1507px;" version="1.1" viewBox="0 0 699 1507" width="699px" zoomAndPan="magnify"><defs><linearGradient id="g1hv9ynvt3ux7u0" x1="0%" x2="100%" y1="50%" y2="50%"><stop offset="0%" stop-color="#FFFFFF"/><stop offset="100%" stop-color="#FFFFFF"/></linearGradient><filter height="300%" id="f1hv9ynvt3ux7u" width="300%" x="-1" y="-1"><feGaussianBlur result="blurOut" stdDeviation="2.0"/><feColorMatrix in="blurOut" result="blurOut2" type="matrix" values="0 0 0 0 0 0 0 0 0 0 0 0 0 0 0 0 0 0 .4 0"/><feOffset dx="4.0" dy="4.0" in="blurOut2" result="blurOut3"/><feBlend in="SourceGraphic" in2="blurOut3" mode="normal"/></filter></defs><g><rect fill="url(#g1hv9ynvt3ux7u0)" height="1507" style="stroke: none; stroke-width: 1.0;" width="699" x="0" y="0"/><text fill="#000000" font-family="sans-serif" font-size="18" lengthAdjust="spacingAndGlyphs" textLength="417" x="140.25" y="26.708">Hunspell - AffixMgr::suffix_check_twosfx(word)</text><text fill="#000000" font-family="sans-serif" font-size="18" lengthAdjust="spacingAndGlyphs" textLength="311" x="193.25" y="47.6611">"check word for two-level suffixes"</text><text fill="#000000" font-family="sans-serif" font-size="18" lengthAdjust="spacingAndGlyphs" textLength="0" x="351.75" y="68.6143"/><path d="M22,72.8594 L22,128.2578 L344,128.2578 L344,82.8594 L334,72.8594 L22,72.8594 " fill="#FBFB77" filter="url(#f1hv9ynvt3ux7u)" style="stroke: #A80036; stroke-width: 1.0;"/><path d="M334,72.8594 L334,82.8594 L344,82.8594 L334,72.8594 " fill="#FBFB77" style="stroke: #A80036; stroke-width: 1.0;"/><text fill="#000000" font-family="sans-serif" font-size="13" lengthAdjust="spacingAndGlyphs" textLength="301" x="28" y="89.9263">When called from affix_check(word) default is</text><text fill="#000000" font-family="sans-serif" font-size="13" lengthAdjust="spacingAndGlyphs" textLength="261" x="28" y="105.0591">always used for needflag, sfxopts, ppfx.</text><text fill="#000000" font-family="sans-serif" font-size="13" lengthAdjust="spacingAndGlyphs" textLength="153" x="28" y="120.1919">Return NULL is implied.</text><ellipse cx="374" cy="100.5586" fill="#000000" filter="url(#f1hv9ynvt3ux7u)" rx="10" ry="10" style="stroke: none; stroke-width: 1.0;"/><rect fill="#C0C0C0" filter="url(#f1hv9ynvt3ux7u)" height="33.9688" rx="12.5" ry="12.5" style="stroke: #A80036; stroke-width: 1.5;" width="236" x="256" y="141.6919"/><text fill="#000000" font-family="sans-serif" font-size="12" lengthAdjust="spacingAndGlyphs" textLength="216" x="266" y="162.8306">do not reset any compound helpers</text><rect fill="#FF6347" filter="url(#f1hv9ynvt3ux7u)" height="33.9688" rx="12.5" ry="12.5" style="stroke: #A80036; stroke-width: 1.5;" width="258" x="245" y="314.1875"/><text fill="#000000" font-family="sans-serif" font-size="12" lengthAdjust="spacingAndGlyphs" textLength="238" x="255" y="335.3262">root = SuffixEntry::check_twosfx(word)</text><rect fill="#C0C0C0" filter="url(#f1hv9ynvt3ux7u)" height="33.9688" rx="12.5" ry="12.5" style="stroke: #A80036; stroke-width: 1.5;" width="224" x="262" y="416.5586"/><text fill="#000000" font-family="sans-serif" font-size="12" lengthAdjust="spacingAndGlyphs" textLength="204" x="272" y="437.6973">do not set any compound helpers</text><rect fill="#FEFECE" filter="url(#f1hv9ynvt3ux7u)" height="33.9688" rx="12.5" ry="12.5" style="stroke: #A80036; stroke-width: 1.5;" width="86" x="331" y="470.5273"/><text fill="#000000" font-family="sans-serif" font-size="12" lengthAdjust="spacingAndGlyphs" textLength="66" x="341" y="491.666">return root</text><ellipse cx="374" cy="534.4961" fill="none" filter="url(#f1hv9ynvt3ux7u)" rx="10" ry="10" style="stroke: #000000; stroke-width: 1.0;"/><ellipse cx="374.5" cy="534.9961" fill="#000000" filter="url(#f1hv9ynvt3ux7u)" rx="6" ry="6" style="stroke: none; stroke-width: 1.0;"/><polygon fill="#FEFECE" filter="url(#f1hv9ynvt3ux7u)" points="359.5,368.1563,388.5,368.1563,400.5,380.1563,388.5,392.1563,359.5,392.1563,347.5,380.1563,359.5,368.1563" style="stroke: #A80036; stroke-width: 1.5;"/><text fill="#000000" font-family="sans-serif" font-size="11" lengthAdjust="spacingAndGlyphs" textLength="20" x="378" y="402.3667">yes</text><text fill="#000000" font-family="sans-serif" font-size="11" lengthAdjust="spacingAndGlyphs" textLength="29" x="359.5" y="383.9644">root?</text><text fill="#000000" font-family="sans-serif" font-size="11" lengthAdjust="spacingAndGlyphs" textLength="14" x="400.5" y="377.562">no</text><polygon fill="#FEFECE" filter="url(#f1hv9ynvt3ux7u)" points="132.5,251.3711,615.5,251.3711,627.5,270.5781,615.5,289.7852,132.5,289.7852,120.5,270.5781,132.5,251.3711" style="stroke: #A80036; stroke-width: 1.5;"/><text fill="#000000" font-family="sans-serif" font-size="11" lengthAdjust="spacingAndGlyphs" textLength="20" x="378" y="299.9956">yes</text><text fill="#000000" font-family="sans-serif" font-size="11" lengthAdjust="spacingAndGlyphs" textLength="0" x="136.5" y="261.5815"/><text fill="#000000" font-family="sans-serif" font-size="11" lengthAdjust="spacingAndGlyphs" textLength="483" x="132.5" y="274.3862">the flag of the suffix entry under consideration is in the generic continutation classes</text><text fill="#000000" font-family="sans-serif" font-size="11" lengthAdjust="spacingAndGlyphs" textLength="14" x="627.5" y="267.9839">no</text><polygon fill="#FEFECE" filter="url(#f1hv9ynvt3ux7u)" points="374,586.4961,386,598.4961,374,610.4961,362,598.4961,374,586.4961" style="stroke: #A80036; stroke-width: 1.5;"/><polygon fill="#FEFECE" filter="url(#f1hv9ynvt3ux7u)" points="293.5,195.6606,454.5,195.6606,466.5,207.6606,454.5,219.6606,293.5,219.6606,281.5,207.6606,293.5,195.6606" style="stroke: #A80036; stroke-width: 1.5;"/><text fill="#000000" font-family="sans-serif" font-size="11" lengthAdjust="spacingAndGlyphs" textLength="20" x="378" y="229.8711">yes</text><text fill="#000000" font-family="sans-serif" font-size="11" lengthAdjust="spacingAndGlyphs" textLength="161" x="293.5" y="211.4688">iterate zero-length prefixes?</text><text fill="#000000" font-family="sans-serif" font-size="11" lengthAdjust="spacingAndGlyphs" textLength="14" x="267.5" y="205.0664">no</text><path d="M10,676.332 L10,701.4648 L256,701.4648 L256,686.332 L246,676.332 L10,676.332 " fill="#FBFB77" filter="url(#f1hv9ynvt3ux7u)" style="stroke: #A80036; stroke-width: 1.0;"/><path d="M246,676.332 L246,686.332 L256,686.332 L246,676.332 " fill="#FBFB77" style="stroke: #A80036; stroke-width: 1.0;"/><text fill="#000000" font-family="sans-serif" font-size="13" lengthAdjust="spacingAndGlyphs" textLength="225" x="16" y="693.3989">TODO Figure out what triggers this</text><polygon fill="#FEFECE" filter="url(#f1hv9ynvt3ux7u)" points="288,652.4961,460,652.4961,472,664.4961,460,676.4961,288,676.4961,276,664.4961,288,652.4961" style="stroke: #A80036; stroke-width: 1.5;"/><text fill="#000000" font-family="sans-serif" font-size="11" lengthAdjust="spacingAndGlyphs" textLength="14" x="378" y="686.7065">no</text><text fill="#000000" font-family="sans-serif" font-size="11" lengthAdjust="spacingAndGlyphs" textLength="172" x="288" y="668.3042">length of word is 0? "full strip"</text><text fill="#000000" font-family="sans-serif" font-size="11" lengthAdjust="spacingAndGlyphs" textLength="20" x="472" y="661.9019">yes</text><ellipse cx="512" cy="664.4961" fill="none" filter="url(#f1hv9ynvt3ux7u)" rx="10" ry="10" style="stroke: #000000; stroke-width: 1.0;"/><ellipse cx="512.5" cy="664.9961" fill="#000000" filter="url(#f1hv9ynvt3ux7u)" rx="6" ry="6" style="stroke: none; stroke-width: 1.0;"/><path d="M60.5,701.4648 L60.5,771.9961 L191.5,771.9961 L191.5,711.4648 L181.5,701.4648 L60.5,701.4648 " fill="#FBFB77" filter="url(#f1hv9ynvt3ux7u)" style="stroke: #A80036; stroke-width: 1.0;"/><path d="M181.5,701.4648 L181.5,711.4648 L191.5,711.4648 L181.5,701.4648 " fill="#FBFB77" style="stroke: #A80036; stroke-width: 1.0;"/><text fill="#000000" font-family="sans-serif" font-size="13" lengthAdjust="spacingAndGlyphs" textLength="107" x="66.5" y="718.5317">TODO Figure out</text><text fill="#000000" font-family="sans-serif" font-size="13" lengthAdjust="spacingAndGlyphs" textLength="99" x="66.5" y="733.6646">what this does,</text><text fill="#000000" font-family="sans-serif" font-size="13" lengthAdjust="spacingAndGlyphs" textLength="105" x="66.5" y="748.7974">probably to skip</text><text fill="#000000" font-family="sans-serif" font-size="13" lengthAdjust="spacingAndGlyphs" textLength="110" x="66.5" y="763.9302">unimportant part</text><rect fill="#FEFECE" filter="url(#f1hv9ynvt3ux7u)" height="33.9688" rx="12.5" ry="12.5" style="stroke: #A80036; stroke-width: 1.5;" width="325" x="211.5" y="719.7461"/><text fill="#000000" font-family="sans-serif" font-size="12" lengthAdjust="spacingAndGlyphs" textLength="305" x="221.5" y="740.8848">iterator starts at (word + len - 1) instead of (word)</text><rect fill="#FF6347" filter="url(#f1hv9ynvt3ux7u)" height="33.9688" rx="12.5" ry="12.5" style="stroke: #A80036; stroke-width: 1.5;" width="258" x="245" y="971.8677"/><text fill="#000000" font-family="sans-serif" font-size="12" lengthAdjust="spacingAndGlyphs" textLength="238" x="255" y="993.0063">root = SuffixEntry::check_twosfx(word)</text><rect fill="#C0C0C0" filter="url(#f1hv9ynvt3ux7u)" height="33.9688" rx="12.5" ry="12.5" style="stroke: #A80036; stroke-width: 1.5;" width="192" x="278" y="1074.2388"/><text fill="#000000" font-family="sans-serif" font-size="12" lengthAdjust="spacingAndGlyphs" textLength="172" x="288" y="1095.3774">set compound helper sfxflag</text><rect fill="#C0C0C0" filter="url(#f1hv9ynvt3ux7u)" height="33.9688" rx="12.5" ry="12.5" style="stroke: #A80036; stroke-width: 1.5;" width="359" x="194.5" y="1191.0239"/><text fill="#000000" font-family="sans-serif" font-size="12" lengthAdjust="spacingAndGlyphs" textLength="339" x="204.5" y="1212.1626">set compound helper sfxappend to SuffixEntry.getKey()</text><polygon fill="#FEFECE" filter="url(#f1hv9ynvt3ux7u)" points="189,1128.2075,559,1128.2075,571,1147.4146,559,1166.6216,189,1166.6216,177,1147.4146,189,1128.2075" style="stroke: #A80036; stroke-width: 1.5;"/><text fill="#000000" font-family="sans-serif" font-size="11" lengthAdjust="spacingAndGlyphs" textLength="20" x="378" y="1176.832">yes</text><text fill="#000000" font-family="sans-serif" font-size="11" lengthAdjust="spacingAndGlyphs" textLength="0" x="193" y="1138.418"/><text fill="#000000" font-family="sans-serif" font-size="11" lengthAdjust="spacingAndGlyphs" textLength="370" x="189" y="1151.2227">the suffix entry under consideration has no continuation classes?</text><text fill="#000000" font-family="sans-serif" font-size="11" lengthAdjust="spacingAndGlyphs" textLength="14" x="571" y="1144.8203">no</text><polygon fill="#FEFECE" filter="url(#f1hv9ynvt3ux7u)" points="374,1245.3013,386,1257.3013,374,1269.3013,362,1257.3013,374,1245.3013" style="stroke: #A80036; stroke-width: 1.5;"/><rect fill="#FEFECE" filter="url(#f1hv9ynvt3ux7u)" height="33.9688" rx="12.5" ry="12.5" style="stroke: #A80036; stroke-width: 1.5;" width="86" x="331" y="1289.3013"/><text fill="#000000" font-family="sans-serif" font-size="12" lengthAdjust="spacingAndGlyphs" textLength="66" x="341" y="1310.4399">return root</text><ellipse cx="374" cy="1353.27" fill="none" filter="url(#f1hv9ynvt3ux7u)" rx="10" ry="10" style="stroke: #000000; stroke-width: 1.0;"/><ellipse cx="374.5" cy="1353.77" fill="#000000" filter="url(#f1hv9ynvt3ux7u)" rx="6" ry="6" style="stroke: none; stroke-width: 1.0;"/><polygon fill="#FEFECE" filter="url(#f1hv9ynvt3ux7u)" points="359.5,1025.8364,388.5,1025.8364,400.5,1037.8364,388.5,1049.8364,359.5,1049.8364,347.5,1037.8364,359.5,1025.8364" style="stroke: #A80036; stroke-width: 1.5;"/><text fill="#000000" font-family="sans-serif" font-size="11" lengthAdjust="spacingAndGlyphs" textLength="20" x="378" y="1060.0469">yes</text><text fill="#000000" font-family="sans-serif" font-size="11" lengthAdjust="spacingAndGlyphs" textLength="29" x="359.5" y="1041.6445">root?</text><text fill="#000000" font-family="sans-serif" font-size="11" lengthAdjust="spacingAndGlyphs" textLength="14" x="400.5" y="1035.2422">no</text><polygon fill="#FEFECE" filter="url(#f1hv9ynvt3ux7u)" points="132.5,909.0513,615.5,909.0513,627.5,928.2583,615.5,947.4653,132.5,947.4653,120.5,928.2583,132.5,909.0513" style="stroke: #A80036; stroke-width: 1.5;"/><text fill="#000000" font-family="sans-serif" font-size="11" lengthAdjust="spacingAndGlyphs" textLength="20" x="378" y="957.6758">yes</text><text fill="#000000" font-family="sans-serif" font-size="11" lengthAdjust="spacingAndGlyphs" textLength="0" x="136.5" y="919.2617"/><text fill="#000000" font-family="sans-serif" font-size="11" lengthAdjust="spacingAndGlyphs" textLength="483" x="132.5" y="932.0664">the flag of the suffix entry under consideration is in the generic continutation classes</text><text fill="#000000" font-family="sans-serif" font-size="11" lengthAdjust="spacingAndGlyphs" textLength="14" x="627.5" y="925.6641">no</text><polygon fill="#FEFECE" filter="url(#f1hv9ynvt3ux7u)" points="374,1405.27,386,1417.27,374,1429.27,362,1417.27,374,1405.27" style="stroke: #A80036; stroke-width: 1.5;"/><polygon fill="#FEFECE" filter="url(#f1hv9ynvt3ux7u)" points="225.5,846.2349,522.5,846.2349,534.5,865.4419,522.5,884.6489,225.5,884.6489,213.5,865.4419,225.5,846.2349" style="stroke: #A80036; stroke-width: 1.5;"/><text fill="#000000" font-family="sans-serif" font-size="11" lengthAdjust="spacingAndGlyphs" textLength="20" x="378" y="894.8594">yes</text><text fill="#000000" font-family="sans-serif" font-size="11" lengthAdjust="spacingAndGlyphs" textLength="0" x="229.5" y="856.4453"/><text fill="#000000" font-family="sans-serif" font-size="11" lengthAdjust="spacingAndGlyphs" textLength="297" x="225.5" y="869.25">is SuffixEntry.getKey() a revsubset of word + len - 1</text><text fill="#000000" font-family="sans-serif" font-size="11" lengthAdjust="spacingAndGlyphs" textLength="14" x="534.5" y="862.8477">no</text><polygon fill="#FEFECE" filter="url(#f1hv9ynvt3ux7u)" points="374,1449.27,386,1461.27,374,1473.27,362,1461.27,374,1449.27" style="stroke: #A80036; stroke-width: 1.5;"/><polygon fill="#FEFECE" filter="url(#f1hv9ynvt3ux7u)" points="281,785.4302,467,785.4302,479,797.4302,467,809.4302,281,809.4302,269,797.4302,281,785.4302" style="stroke: #A80036; stroke-width: 1.5;"/><text fill="#000000" font-family="sans-serif" font-size="11" lengthAdjust="spacingAndGlyphs" textLength="20" x="378" y="819.6406">yes</text><text fill="#000000" font-family="sans-serif" font-size="11" lengthAdjust="spacingAndGlyphs" textLength="186" x="281" y="801.2383">iterate non-zero-length prefixes?</text><text fill="#000000" font-family="sans-serif" font-size="11" lengthAdjust="spacingAndGlyphs" textLength="14" x="255" y="794.8359">no</text><ellipse cx="100.5" cy="843.4302" fill="none" filter="url(#f1hv9ynvt3ux7u)" rx="10" ry="10" style="stroke: #000000; stroke-width: 1.0;"/><ellipse cx="101" cy="843.9302" fill="#000000" filter="url(#f1hv9ynvt3ux7u)" rx="6" ry="6" style="stroke: none; stroke-width: 1.0;"/><line style="stroke: #A80036; stroke-width: 1.5;" x1="374" x2="374" y1="110.5586" y2="141.6919"/><polygon fill="#A80036" points="370,131.6919,374,141.6919,378,131.6919,374,135.6919" style="stroke: #A80036; stroke-width: 1.0;"/><line style="stroke: #A80036; stroke-width: 1.5;" x1="374" x2="374" y1="450.5273" y2="470.5273"/><polygon fill="#A80036" points="370,460.5273,374,470.5273,378,460.5273,374,464.5273" style="stroke: #A80036; stroke-width: 1.0;"/><line style="stroke: #A80036; stroke-width: 1.5;" x1="374" x2="374" y1="504.4961" y2="524.4961"/><polygon fill="#A80036" points="370,514.4961,374,524.4961,378,514.4961,374,518.4961" style="stroke: #A80036; stroke-width: 1.0;"/><line style="stroke: #A80036; stroke-width: 1.5;" x1="374" x2="374" y1="392.1563" y2="416.5586"/><polygon fill="#A80036" points="370,406.5586,374,416.5586,378,406.5586,374,410.5586" style="stroke: #A80036; stroke-width: 1.0;"/><line style="stroke: #A80036; stroke-width: 1.5;" x1="400.5" x2="496" y1="380.1563" y2="380.1563"/><polygon fill="#A80036" points="492,467.5273,496,477.5273,500,467.5273,496,471.5273" style="stroke: #A80036; stroke-width: 1.5;"/><line style="stroke: #A80036; stroke-width: 1.5;" x1="496" x2="496" y1="380.1563" y2="566.4961"/><line style="stroke: #A80036; stroke-width: 1.5;" x1="496" x2="374" y1="566.4961" y2="566.4961"/><line style="stroke: #A80036; stroke-width: 1.5;" x1="374" x2="374" y1="566.4961" y2="586.4961"/><polygon fill="#A80036" points="370,576.4961,374,586.4961,378,576.4961,374,580.4961" style="stroke: #A80036; stroke-width: 1.0;"/><line style="stroke: #A80036; stroke-width: 1.5;" x1="374" x2="374" y1="348.1563" y2="368.1563"/><polygon fill="#A80036" points="370,358.1563,374,368.1563,378,358.1563,374,362.1563" style="stroke: #A80036; stroke-width: 1.0;"/><line style="stroke: #A80036; stroke-width: 1.5;" x1="374" x2="374" y1="289.7852" y2="314.1875"/><polygon fill="#A80036" points="370,304.1875,374,314.1875,378,304.1875,374,308.1875" style="stroke: #A80036; stroke-width: 1.0;"/><line style="stroke: #A80036; stroke-width: 1.5;" x1="627.5" x2="639.5" y1="270.5781" y2="270.5781"/><polygon fill="#A80036" points="635.5,438.4395,639.5,448.4395,643.5,438.4395,639.5,442.4395" style="stroke: #A80036; stroke-width: 1.5;"/><line style="stroke: #A80036; stroke-width: 1.5;" x1="639.5" x2="639.5" y1="270.5781" y2="598.4961"/><line style="stroke: #A80036; stroke-width: 1.5;" x1="639.5" x2="386" y1="598.4961" y2="598.4961"/><polygon fill="#A80036" points="396,594.4961,386,598.4961,396,602.4961,392,598.4961" style="stroke: #A80036; stroke-width: 1.0;"/><line style="stroke: #A80036; stroke-width: 1.5;" x1="374" x2="374" y1="219.6606" y2="251.3711"/><polygon fill="#A80036" points="370,241.3711,374,251.3711,378,241.3711,374,245.3711" style="stroke: #A80036; stroke-width: 1.0;"/><line style="stroke: #A80036; stroke-width: 1.5;" x1="374" x2="374" y1="610.4961" y2="620.4961"/><line style="stroke: #A80036; stroke-width: 1.5;" x1="374" x2="651.5" y1="620.4961" y2="620.4961"/><polygon fill="#A80036" points="647.5,436.4336,651.5,426.4336,655.5,436.4336,651.5,432.4336" style="stroke: #A80036; stroke-width: 1.5;"/><line style="stroke: #A80036; stroke-width: 1.5;" x1="651.5" x2="651.5" y1="207.6606" y2="620.4961"/><line style="stroke: #A80036; stroke-width: 1.5;" x1="651.5" x2="466.5" y1="207.6606" y2="207.6606"/><polygon fill="#A80036" points="476.5,203.6606,466.5,207.6606,476.5,211.6606,472.5,207.6606" style="stroke: #A80036; stroke-width: 1.0;"/><line style="stroke: #A80036; stroke-width: 1.5;" x1="281.5" x2="108.5" y1="207.6606" y2="207.6606"/><polygon fill="#A80036" points="104.5,422.4336,108.5,432.4336,112.5,422.4336,108.5,426.4336" style="stroke: #A80036; stroke-width: 1.5;"/><line style="stroke: #A80036; stroke-width: 1.5;" x1="108.5" x2="108.5" y1="207.6606" y2="632.4961"/><line style="stroke: #A80036; stroke-width: 1.5;" x1="108.5" x2="374" y1="632.4961" y2="632.4961"/><line style="stroke: #A80036; stroke-width: 1.5;" x1="374" x2="374" y1="632.4961" y2="652.4961"/><polygon fill="#A80036" points="370,642.4961,374,652.4961,378,642.4961,374,646.4961" style="stroke: #A80036; stroke-width: 1.0;"/><line style="stroke: #A80036; stroke-width: 1.5;" x1="374" x2="374" y1="175.6606" y2="195.6606"/><polygon fill="#A80036" points="370,185.6606,374,195.6606,378,185.6606,374,189.6606" style="stroke: #A80036; stroke-width: 1.0;"/><line style="stroke: #A80036; stroke-width: 1.5;" x1="374" x2="374" y1="676.4961" y2="719.7461"/><polygon fill="#A80036" points="370,709.7461,374,719.7461,378,709.7461,374,713.7461" style="stroke: #A80036; stroke-width: 1.0;"/><line style="stroke: #A80036; stroke-width: 1.5;" x1="472" x2="502" y1="664.4961" y2="664.4961"/><polygon fill="#A80036" points="492,660.4961,502,664.4961,492,668.4961,496,664.4961" style="stroke: #A80036; stroke-width: 1.0;"/><line style="stroke: #A80036; stroke-width: 1.5;" x1="374" x2="374" y1="1166.6216" y2="1191.0239"/><polygon fill="#A80036" points="370,1181.0239,374,1191.0239,378,1181.0239,374,1185.0239" style="stroke: #A80036; stroke-width: 1.0;"/><line style="stroke: #A80036; stroke-width: 1.5;" x1="571" x2="583" y1="1147.4146" y2="1147.4146"/><polygon fill="#A80036" points="579,1194.4048,583,1204.4048,587,1194.4048,583,1198.4048" style="stroke: #A80036; stroke-width: 1.5;"/><line style="stroke: #A80036; stroke-width: 1.5;" x1="583" x2="583" y1="1147.4146" y2="1257.3013"/><line style="stroke: #A80036; stroke-width: 1.5;" x1="583" x2="386" y1="1257.3013" y2="1257.3013"/><polygon fill="#A80036" points="396,1253.3013,386,1257.3013,396,1261.3013,392,1257.3013" style="stroke: #A80036; stroke-width: 1.0;"/><line style="stroke: #A80036; stroke-width: 1.5;" x1="374" x2="374" y1="1224.9927" y2="1245.3013"/><polygon fill="#A80036" points="370,1235.3013,374,1245.3013,378,1235.3013,374,1239.3013" style="stroke: #A80036; stroke-width: 1.0;"/><line style="stroke: #A80036; stroke-width: 1.5;" x1="374" x2="374" y1="1108.2075" y2="1128.2075"/><polygon fill="#A80036" points="370,1118.2075,374,1128.2075,378,1118.2075,374,1122.2075" style="stroke: #A80036; stroke-width: 1.0;"/><line style="stroke: #A80036; stroke-width: 1.5;" x1="374" x2="374" y1="1269.3013" y2="1289.3013"/><polygon fill="#A80036" points="370,1279.3013,374,1289.3013,378,1279.3013,374,1283.3013" style="stroke: #A80036; stroke-width: 1.0;"/><line style="stroke: #A80036; stroke-width: 1.5;" x1="374" x2="374" y1="1323.27" y2="1343.27"/><polygon fill="#A80036" points="370,1333.27,374,1343.27,378,1333.27,374,1337.27" style="stroke: #A80036; stroke-width: 1.0;"/><line style="stroke: #A80036; stroke-width: 1.5;" x1="374" x2="374" y1="1049.8364" y2="1074.2388"/><polygon fill="#A80036" points="370,1064.2388,374,1074.2388,378,1064.2388,374,1068.2388" style="stroke: #A80036; stroke-width: 1.0;"/><line style="stroke: #A80036; stroke-width: 1.5;" x1="400.5" x2="593" y1="1037.8364" y2="1037.8364"/><polygon fill="#A80036" points="589,1215.3013,593,1225.3013,597,1215.3013,593,1219.3013" style="stroke: #A80036; stroke-width: 1.5;"/><line style="stroke: #A80036; stroke-width: 1.5;" x1="593" x2="593" y1="1037.8364" y2="1385.27"/><line style="stroke: #A80036; stroke-width: 1.5;" x1="593" x2="374" y1="1385.27" y2="1385.27"/><line style="stroke: #A80036; stroke-width: 1.5;" x1="374" x2="374" y1="1385.27" y2="1405.27"/><polygon fill="#A80036" points="370,1395.27,374,1405.27,378,1395.27,374,1399.27" style="stroke: #A80036; stroke-width: 1.0;"/><line style="stroke: #A80036; stroke-width: 1.5;" x1="374" x2="374" y1="1005.8364" y2="1025.8364"/><polygon fill="#A80036" points="370,1015.8364,374,1025.8364,378,1015.8364,374,1019.8364" style="stroke: #A80036; stroke-width: 1.0;"/><line style="stroke: #A80036; stroke-width: 1.5;" x1="374" x2="374" y1="947.4653" y2="971.8677"/><polygon fill="#A80036" points="370,961.8677,374,971.8677,378,961.8677,374,965.8677" style="stroke: #A80036; stroke-width: 1.0;"/><line style="stroke: #A80036; stroke-width: 1.5;" x1="627.5" x2="639.5" y1="928.2583" y2="928.2583"/><polygon fill="#A80036" points="635.5,1171.2134,639.5,1181.2134,643.5,1171.2134,639.5,1175.2134" style="stroke: #A80036; stroke-width: 1.5;"/><line style="stroke: #A80036; stroke-width: 1.5;" x1="639.5" x2="639.5" y1="928.2583" y2="1417.27"/><line style="stroke: #A80036; stroke-width: 1.5;" x1="639.5" x2="386" y1="1417.27" y2="1417.27"/><polygon fill="#A80036" points="396,1413.27,386,1417.27,396,1421.27,392,1417.27" style="stroke: #A80036; stroke-width: 1.0;"/><line style="stroke: #A80036; stroke-width: 1.5;" x1="374" x2="374" y1="884.6489" y2="909.0513"/><polygon fill="#A80036" points="370,899.0513,374,909.0513,378,899.0513,374,903.0513" style="stroke: #A80036; stroke-width: 1.0;"/><line style="stroke: #A80036; stroke-width: 1.5;" x1="534.5" x2="649.5" y1="865.4419" y2="865.4419"/><polygon fill="#A80036" points="645.5,1164.0063,649.5,1174.0063,653.5,1164.0063,649.5,1168.0063" style="stroke: #A80036; stroke-width: 1.5;"/><line style="stroke: #A80036; stroke-width: 1.5;" x1="649.5" x2="649.5" y1="865.4419" y2="1461.27"/><line style="stroke: #A80036; stroke-width: 1.5;" x1="649.5" x2="386" y1="1461.27" y2="1461.27"/><polygon fill="#A80036" points="396,1457.27,386,1461.27,396,1465.27,392,1461.27" style="stroke: #A80036; stroke-width: 1.0;"/><line style="stroke: #A80036; stroke-width: 1.5;" x1="374" x2="374" y1="1429.27" y2="1449.27"/><polygon fill="#A80036" points="370,1439.27,374,1449.27,378,1439.27,374,1443.27" style="stroke: #A80036; stroke-width: 1.0;"/><line style="stroke: #A80036; stroke-width: 1.5;" x1="374" x2="374" y1="809.4302" y2="846.2349"/><polygon fill="#A80036" points="370,836.2349,374,846.2349,378,836.2349,374,840.2349" style="stroke: #A80036; stroke-width: 1.0;"/><line style="stroke: #A80036; stroke-width: 1.5;" x1="374" x2="374" y1="1473.27" y2="1483.27"/><line style="stroke: #A80036; stroke-width: 1.5;" x1="374" x2="673.5" y1="1483.27" y2="1483.27"/><polygon fill="#A80036" points="669.5,1162.0005,673.5,1152.0005,677.5,1162.0005,673.5,1158.0005" style="stroke: #A80036; stroke-width: 1.5;"/><line style="stroke: #A80036; stroke-width: 1.5;" x1="673.5" x2="673.5" y1="797.4302" y2="1483.27"/><line style="stroke: #A80036; stroke-width: 1.5;" x1="673.5" x2="479" y1="797.4302" y2="797.4302"/><polygon fill="#A80036" points="489,793.4302,479,797.4302,489,801.4302,485,797.4302" style="stroke: #A80036; stroke-width: 1.0;"/><line style="stroke: #A80036; stroke-width: 1.5;" x1="269" x2="100.5" y1="797.4302" y2="797.4302"/><line style="stroke: #A80036; stroke-width: 1.5;" x1="100.5" x2="100.5" y1="797.4302" y2="833.4302"/><polygon fill="#A80036" points="96.5,823.4302,100.5,833.4302,104.5,823.4302,100.5,827.4302" style="stroke: #A80036; stroke-width: 1.0;"/><line style="stroke: #A80036; stroke-width: 1.5;" x1="374" x2="374" y1="753.7148" y2="785.4302"/><polygon fill="#A80036" points="370,775.4302,374,785.4302,378,775.4302,374,779.4302" style="stroke: #A80036; stroke-width: 1.0;"/><!--
@startuml
skinparam backgroundcolor White|White

title Hunspell - AffixMgr::suffix_check_twosfx(word)\n"check word for two-level suffixes"\n

start
floating note: When called from affix_check(word) default is\nalways used for needflag, sfxopts, ppfx.\nReturn NULL is implied.

#silver:do not reset any compound helpers;
while (iterate zero-length prefixes?) is (yes)
	if (
the flag of the suffix entry under consideration is in the generic continutation classes
	) then (yes)
		#tomato:root = SuffixEntry::check_twosfx(word);
		if (root?) then (yes)
			#silver:do not set any compound helpers;
			:return root;
			stop
		else (no)
		endif
	else (no)
	endif
endwhile (no)

if (length of word is 0? "full strip") then (yes)
	floating note: TODO Figure out what triggers this
	stop
else (no)
endif

:iterator starts at (word + len - 1) instead of (word);
floating note: TODO Figure out\nwhat this does,\nprobably to skip\nunimportant part
while (iterate non-zero-length prefixes?) is (yes)
	if (
is SuffixEntry.getKey() a revsubset of word + len - 1
	) then (yes)
		if (
the flag of the suffix entry under consideration is in the generic continutation classes
		) then (yes)
			#tomato:root = SuffixEntry::check_twosfx(word);
			if (root?) then (yes)
				#silver:set compound helper sfxflag;
				if (
the suffix entry under consideration has no continuation classes?
				) then (yes)
					#silver:set compound helper sfxappend to SuffixEntry.getKey();
				else (no)
				endif
				:return root;
				stop
			else (no)
			endif
		else (no)
		endif
	else (no)
	endif
endwhile (no)

stop


@enduml

PlantUML version 1.2018.01(Sun Jan 28 19:08:22 CET 2018)
(GPL source distribution)
Java Runtime: OpenJDK Runtime Environment
JVM: OpenJDK 64-Bit Server VM
Java Version: 1.8.0_151-8u151-b12-0ubuntu0.17.10.2-b12
Operating System: Linux
OS Version: 4.13.0-36-generic
Default Encoding: UTF-8
Language: en
Country: US
--></g></svg>