<?xml version="1.0" encoding="UTF-8" standalone="no"?><svg xmlns="http://www.w3.org/2000/svg" xmlns:xlink="http://www.w3.org/1999/xlink" contentScriptType="application/ecmascript" contentStyleType="text/css" height="1530px" preserveAspectRatio="none" style="width:692px;height:1530px;" version="1.1" viewBox="0 0 692 1530" width="692px" zoomAndPan="magnify"><defs><linearGradient id="g1hv9ynvt3ux7u0" x1="0%" x2="100%" y1="50%" y2="50%"><stop offset="0%" stop-color="#FFFFFF"/><stop offset="100%" stop-color="#FFFFFF"/></linearGradient><filter height="300%" id="f1hv9ynvt3ux7u" width="300%" x="-1" y="-1"><feGaussianBlur result="blurOut" stdDeviation="2.0"/><feColorMatrix in="blurOut" result="blurOut2" type="matrix" values="0 0 0 0 0 0 0 0 0 0 0 0 0 0 0 0 0 0 .4 0"/><feOffset dx="4.0" dy="4.0" in="blurOut2" result="blurOut3"/><feBlend in="SourceGraphic" in2="blurOut3" mode="normal"/></filter></defs><g><rect fill="url(#g1hv9ynvt3ux7u0)" height="1530" style="stroke: none; stroke-width: 1.0;" width="692" x="0" y="0"/><text fill="#000000" font-family="sans-serif" font-size="18" lengthAdjust="spacingAndGlyphs" textLength="416" x="137.25" y="26.708">Hunspell - AffixMgr::suffix_check_twosfx(word)</text><text fill="#000000" font-family="sans-serif" font-size="18" lengthAdjust="spacingAndGlyphs" textLength="311" x="189.75" y="47.6611">"check word for two-level suffixes"</text><text fill="#000000" font-family="sans-serif" font-size="18" lengthAdjust="spacingAndGlyphs" textLength="0" x="348.25" y="68.6143"/><path d="M32,72.8594 L32,128.2578 L339,128.2578 L339,82.8594 L329,72.8594 L32,72.8594 " fill="#FBFB77" filter="url(#f1hv9ynvt3ux7u)" style="stroke: #A80036; stroke-width: 1.0;"/><path d="M329,72.8594 L329,82.8594 L339,82.8594 L329,72.8594 " fill="#FBFB77" style="stroke: #A80036; stroke-width: 1.0;"/><text fill="#000000" font-family="sans-serif" font-size="13" lengthAdjust="spacingAndGlyphs" textLength="286" x="38" y="89.9263">When called from affix_check(word) default is</text><text fill="#000000" font-family="sans-serif" font-size="13" lengthAdjust="spacingAndGlyphs" textLength="250" x="38" y="105.0591">always used for needflag, sfxopts, ppfx.</text><text fill="#000000" font-family="sans-serif" font-size="13" lengthAdjust="spacingAndGlyphs" textLength="148" x="38" y="120.1919">Return NULL is implied.</text><ellipse cx="369" cy="100.5586" fill="#000000" filter="url(#f1hv9ynvt3ux7u)" rx="10" ry="10" style="stroke: none; stroke-width: 1.0;"/><rect fill="#C0C0C0" filter="url(#f1hv9ynvt3ux7u)" height="33.9688" rx="12.5" ry="12.5" style="stroke: #A80036; stroke-width: 1.5;" width="245" x="246.5" y="148.2578"/><text fill="#000000" font-family="sans-serif" font-size="12" lengthAdjust="spacingAndGlyphs" textLength="225" x="256.5" y="169.3965">do not reset any compound helpers</text><rect fill="#FF6347" filter="url(#f1hv9ynvt3ux7u)" height="33.9688" rx="12.5" ry="12.5" style="stroke: #A80036; stroke-width: 1.5;" width="259" x="239.5" y="320.7534"/><text fill="#000000" font-family="sans-serif" font-size="12" lengthAdjust="spacingAndGlyphs" textLength="239" x="249.5" y="341.8921">root = SuffixEntry::check_twosfx(word)</text><rect fill="#C0C0C0" filter="url(#f1hv9ynvt3ux7u)" height="33.9688" rx="12.5" ry="12.5" style="stroke: #A80036; stroke-width: 1.5;" width="232" x="253" y="423.1245"/><text fill="#000000" font-family="sans-serif" font-size="12" lengthAdjust="spacingAndGlyphs" textLength="212" x="263" y="444.2632">do not set any compound helpers</text><rect fill="#FEFECE" filter="url(#f1hv9ynvt3ux7u)" height="33.9688" rx="12.5" ry="12.5" style="stroke: #A80036; stroke-width: 1.5;" width="89" x="324.5" y="477.0933"/><text fill="#000000" font-family="sans-serif" font-size="12" lengthAdjust="spacingAndGlyphs" textLength="69" x="334.5" y="498.2319">return root</text><ellipse cx="369" cy="541.062" fill="none" filter="url(#f1hv9ynvt3ux7u)" rx="10" ry="10" style="stroke: #000000; stroke-width: 1.0;"/><ellipse cx="369.5" cy="541.562" fill="#000000" filter="url(#f1hv9ynvt3ux7u)" rx="6" ry="6" style="stroke: none; stroke-width: 1.0;"/><polygon fill="#FEFECE" filter="url(#f1hv9ynvt3ux7u)" points="354.5,374.7222,383.5,374.7222,395.5,386.7222,383.5,398.7222,354.5,398.7222,342.5,386.7222,354.5,374.7222" style="stroke: #A80036; stroke-width: 1.5;"/><text fill="#000000" font-family="sans-serif" font-size="11" lengthAdjust="spacingAndGlyphs" textLength="20" x="373" y="408.9326">yes</text><text fill="#000000" font-family="sans-serif" font-size="11" lengthAdjust="spacingAndGlyphs" textLength="29" x="354.5" y="390.5303">root?</text><text fill="#000000" font-family="sans-serif" font-size="11" lengthAdjust="spacingAndGlyphs" textLength="14" x="395.5" y="384.1279">no</text><polygon fill="#FEFECE" filter="url(#f1hv9ynvt3ux7u)" points="125.5,257.937,612.5,257.937,624.5,277.144,612.5,296.3511,125.5,296.3511,113.5,277.144,125.5,257.937" style="stroke: #A80036; stroke-width: 1.5;"/><text fill="#000000" font-family="sans-serif" font-size="11" lengthAdjust="spacingAndGlyphs" textLength="20" x="373" y="306.5615">yes</text><text fill="#000000" font-family="sans-serif" font-size="11" lengthAdjust="spacingAndGlyphs" textLength="0" x="129.5" y="268.1475"/><text fill="#000000" font-family="sans-serif" font-size="11" lengthAdjust="spacingAndGlyphs" textLength="487" x="125.5" y="280.9521">the flag of the suffix entry under consideration is in the generic continutation classes</text><text fill="#000000" font-family="sans-serif" font-size="11" lengthAdjust="spacingAndGlyphs" textLength="14" x="624.5" y="274.5498">no</text><polygon fill="#FEFECE" filter="url(#f1hv9ynvt3ux7u)" points="369,593.062,381,605.062,369,617.062,357,605.062,369,593.062" style="stroke: #A80036; stroke-width: 1.5;"/><polygon fill="#FEFECE" filter="url(#f1hv9ynvt3ux7u)" points="289,202.2266,449,202.2266,461,214.2266,449,226.2266,289,226.2266,277,214.2266,289,202.2266" style="stroke: #A80036; stroke-width: 1.5;"/><text fill="#000000" font-family="sans-serif" font-size="11" lengthAdjust="spacingAndGlyphs" textLength="20" x="373" y="236.437">yes</text><text fill="#000000" font-family="sans-serif" font-size="11" lengthAdjust="spacingAndGlyphs" textLength="160" x="289" y="218.0347">iterate zero-length prefixes?</text><text fill="#000000" font-family="sans-serif" font-size="11" lengthAdjust="spacingAndGlyphs" textLength="14" x="263" y="211.6323">no</text><path d="M10,682.8979 L10,708.0308 L250,708.0308 L250,692.8979 L240,682.8979 L10,682.8979 " fill="#FBFB77" filter="url(#f1hv9ynvt3ux7u)" style="stroke: #A80036; stroke-width: 1.0;"/><path d="M240,682.8979 L240,692.8979 L250,692.8979 L240,682.8979 " fill="#FBFB77" style="stroke: #A80036; stroke-width: 1.0;"/><text fill="#000000" font-family="sans-serif" font-size="13" lengthAdjust="spacingAndGlyphs" textLength="219" x="16" y="699.9648">TODO Figure out what triggers this</text><polygon fill="#FEFECE" filter="url(#f1hv9ynvt3ux7u)" points="282,659.062,456,659.062,468,671.062,456,683.062,282,683.062,270,671.062,282,659.062" style="stroke: #A80036; stroke-width: 1.5;"/><text fill="#000000" font-family="sans-serif" font-size="11" lengthAdjust="spacingAndGlyphs" textLength="14" x="373" y="693.2725">no</text><text fill="#000000" font-family="sans-serif" font-size="11" lengthAdjust="spacingAndGlyphs" textLength="174" x="282" y="674.8701">length of word is 0? "full strip"</text><text fill="#000000" font-family="sans-serif" font-size="11" lengthAdjust="spacingAndGlyphs" textLength="20" x="468" y="668.4678">yes</text><ellipse cx="508" cy="671.062" fill="none" filter="url(#f1hv9ynvt3ux7u)" rx="10" ry="10" style="stroke: #000000; stroke-width: 1.0;"/><ellipse cx="508.5" cy="671.562" fill="#000000" filter="url(#f1hv9ynvt3ux7u)" rx="6" ry="6" style="stroke: none; stroke-width: 1.0;"/><path d="M50.5,718.0308 L50.5,788.562 L180.5,788.562 L180.5,728.0308 L170.5,718.0308 L50.5,718.0308 " fill="#FBFB77" filter="url(#f1hv9ynvt3ux7u)" style="stroke: #A80036; stroke-width: 1.0;"/><path d="M170.5,718.0308 L170.5,728.0308 L180.5,728.0308 L170.5,718.0308 " fill="#FBFB77" style="stroke: #A80036; stroke-width: 1.0;"/><text fill="#000000" font-family="sans-serif" font-size="13" lengthAdjust="spacingAndGlyphs" textLength="105" x="56.5" y="735.0977">TODO Figure out</text><text fill="#000000" font-family="sans-serif" font-size="13" lengthAdjust="spacingAndGlyphs" textLength="96" x="56.5" y="750.2305">what this does,</text><text fill="#000000" font-family="sans-serif" font-size="13" lengthAdjust="spacingAndGlyphs" textLength="101" x="56.5" y="765.3633">probably to skip</text><text fill="#000000" font-family="sans-serif" font-size="13" lengthAdjust="spacingAndGlyphs" textLength="109" x="56.5" y="780.4961">unimportant part</text><rect fill="#FEFECE" filter="url(#f1hv9ynvt3ux7u)" height="33.9688" rx="12.5" ry="12.5" style="stroke: #A80036; stroke-width: 1.5;" width="337" x="200.5" y="736.312"/><text fill="#000000" font-family="sans-serif" font-size="12" lengthAdjust="spacingAndGlyphs" textLength="317" x="210.5" y="757.4507">iterator starts at (word + len - 1) instead of (word)</text><rect fill="#FF6347" filter="url(#f1hv9ynvt3ux7u)" height="33.9688" rx="12.5" ry="12.5" style="stroke: #A80036; stroke-width: 1.5;" width="259" x="239.5" y="994.9995"/><text fill="#000000" font-family="sans-serif" font-size="12" lengthAdjust="spacingAndGlyphs" textLength="239" x="249.5" y="1016.1382">root = SuffixEntry::check_twosfx(word)</text><rect fill="#C0C0C0" filter="url(#f1hv9ynvt3ux7u)" height="33.9688" rx="12.5" ry="12.5" style="stroke: #A80036; stroke-width: 1.5;" width="198" x="270" y="1097.3706"/><text fill="#000000" font-family="sans-serif" font-size="12" lengthAdjust="spacingAndGlyphs" textLength="178" x="280" y="1118.5093">set compound helper sfxflag</text><rect fill="#C0C0C0" filter="url(#f1hv9ynvt3ux7u)" height="33.9688" rx="12.5" ry="12.5" style="stroke: #A80036; stroke-width: 1.5;" width="365" x="186.5" y="1214.1558"/><text fill="#000000" font-family="sans-serif" font-size="12" lengthAdjust="spacingAndGlyphs" textLength="345" x="196.5" y="1235.2944">set compound helper sfxappend to SuffixEntry.getKey()</text><polygon fill="#FEFECE" filter="url(#f1hv9ynvt3ux7u)" points="182,1151.3394,556,1151.3394,568,1170.5464,556,1189.7534,182,1189.7534,170,1170.5464,182,1151.3394" style="stroke: #A80036; stroke-width: 1.5;"/><text fill="#000000" font-family="sans-serif" font-size="11" lengthAdjust="spacingAndGlyphs" textLength="20" x="373" y="1199.9639">yes</text><text fill="#000000" font-family="sans-serif" font-size="11" lengthAdjust="spacingAndGlyphs" textLength="0" x="186" y="1161.5498"/><text fill="#000000" font-family="sans-serif" font-size="11" lengthAdjust="spacingAndGlyphs" textLength="374" x="182" y="1174.3545">the suffix entry under consideration has no continuation classes?</text><text fill="#000000" font-family="sans-serif" font-size="11" lengthAdjust="spacingAndGlyphs" textLength="14" x="568" y="1167.9521">no</text><polygon fill="#FEFECE" filter="url(#f1hv9ynvt3ux7u)" points="369,1268.4331,381,1280.4331,369,1292.4331,357,1280.4331,369,1268.4331" style="stroke: #A80036; stroke-width: 1.5;"/><rect fill="#FEFECE" filter="url(#f1hv9ynvt3ux7u)" height="33.9688" rx="12.5" ry="12.5" style="stroke: #A80036; stroke-width: 1.5;" width="89" x="324.5" y="1312.4331"/><text fill="#000000" font-family="sans-serif" font-size="12" lengthAdjust="spacingAndGlyphs" textLength="69" x="334.5" y="1333.5718">return root</text><ellipse cx="369" cy="1376.4019" fill="none" filter="url(#f1hv9ynvt3ux7u)" rx="10" ry="10" style="stroke: #000000; stroke-width: 1.0;"/><ellipse cx="369.5" cy="1376.9019" fill="#000000" filter="url(#f1hv9ynvt3ux7u)" rx="6" ry="6" style="stroke: none; stroke-width: 1.0;"/><polygon fill="#FEFECE" filter="url(#f1hv9ynvt3ux7u)" points="354.5,1048.9683,383.5,1048.9683,395.5,1060.9683,383.5,1072.9683,354.5,1072.9683,342.5,1060.9683,354.5,1048.9683" style="stroke: #A80036; stroke-width: 1.5;"/><text fill="#000000" font-family="sans-serif" font-size="11" lengthAdjust="spacingAndGlyphs" textLength="20" x="373" y="1083.1787">yes</text><text fill="#000000" font-family="sans-serif" font-size="11" lengthAdjust="spacingAndGlyphs" textLength="29" x="354.5" y="1064.7764">root?</text><text fill="#000000" font-family="sans-serif" font-size="11" lengthAdjust="spacingAndGlyphs" textLength="14" x="395.5" y="1058.374">no</text><polygon fill="#FEFECE" filter="url(#f1hv9ynvt3ux7u)" points="125.5,932.1831,612.5,932.1831,624.5,951.3901,612.5,970.5972,125.5,970.5972,113.5,951.3901,125.5,932.1831" style="stroke: #A80036; stroke-width: 1.5;"/><text fill="#000000" font-family="sans-serif" font-size="11" lengthAdjust="spacingAndGlyphs" textLength="20" x="373" y="980.8076">yes</text><text fill="#000000" font-family="sans-serif" font-size="11" lengthAdjust="spacingAndGlyphs" textLength="0" x="129.5" y="942.3936"/><text fill="#000000" font-family="sans-serif" font-size="11" lengthAdjust="spacingAndGlyphs" textLength="487" x="125.5" y="955.1982">the flag of the suffix entry under consideration is in the generic continutation classes</text><text fill="#000000" font-family="sans-serif" font-size="11" lengthAdjust="spacingAndGlyphs" textLength="14" x="624.5" y="948.7959">no</text><polygon fill="#FEFECE" filter="url(#f1hv9ynvt3ux7u)" points="369,1428.4019,381,1440.4019,369,1452.4019,357,1440.4019,369,1428.4019" style="stroke: #A80036; stroke-width: 1.5;"/><polygon fill="#FEFECE" filter="url(#f1hv9ynvt3ux7u)" points="220.5,869.3667,517.5,869.3667,529.5,888.5737,517.5,907.7808,220.5,907.7808,208.5,888.5737,220.5,869.3667" style="stroke: #A80036; stroke-width: 1.5;"/><text fill="#000000" font-family="sans-serif" font-size="11" lengthAdjust="spacingAndGlyphs" textLength="20" x="373" y="917.9912">yes</text><text fill="#000000" font-family="sans-serif" font-size="11" lengthAdjust="spacingAndGlyphs" textLength="0" x="224.5" y="879.5771"/><text fill="#000000" font-family="sans-serif" font-size="11" lengthAdjust="spacingAndGlyphs" textLength="297" x="220.5" y="892.3818">is SuffixEntry.getKey() a revsubset of word + len - 1</text><text fill="#000000" font-family="sans-serif" font-size="11" lengthAdjust="spacingAndGlyphs" textLength="14" x="529.5" y="885.9795">no</text><polygon fill="#FEFECE" filter="url(#f1hv9ynvt3ux7u)" points="369,1472.4019,381,1484.4019,369,1496.4019,357,1484.4019,369,1472.4019" style="stroke: #A80036; stroke-width: 1.5;"/><polygon fill="#FEFECE" filter="url(#f1hv9ynvt3ux7u)" points="276.5,808.562,461.5,808.562,473.5,820.562,461.5,832.562,276.5,832.562,264.5,820.562,276.5,808.562" style="stroke: #A80036; stroke-width: 1.5;"/><text fill="#000000" font-family="sans-serif" font-size="11" lengthAdjust="spacingAndGlyphs" textLength="20" x="373" y="842.7725">yes</text><text fill="#000000" font-family="sans-serif" font-size="11" lengthAdjust="spacingAndGlyphs" textLength="185" x="276.5" y="824.3701">iterate non-zero-length prefixes?</text><text fill="#000000" font-family="sans-serif" font-size="11" lengthAdjust="spacingAndGlyphs" textLength="14" x="250.5" y="817.9678">no</text><ellipse cx="81.5" cy="866.562" fill="none" filter="url(#f1hv9ynvt3ux7u)" rx="10" ry="10" style="stroke: #000000; stroke-width: 1.0;"/><ellipse cx="82" cy="867.062" fill="#000000" filter="url(#f1hv9ynvt3ux7u)" rx="6" ry="6" style="stroke: none; stroke-width: 1.0;"/><line style="stroke: #A80036; stroke-width: 1.5;" x1="369" x2="369" y1="110.5586" y2="148.2578"/><polygon fill="#A80036" points="365,138.2578,369,148.2578,373,138.2578,369,142.2578" style="stroke: #A80036; stroke-width: 1.0;"/><line style="stroke: #A80036; stroke-width: 1.5;" x1="369" x2="369" y1="457.0933" y2="477.0933"/><polygon fill="#A80036" points="365,467.0933,369,477.0933,373,467.0933,369,471.0933" style="stroke: #A80036; stroke-width: 1.0;"/><line style="stroke: #A80036; stroke-width: 1.5;" x1="369" x2="369" y1="511.062" y2="531.062"/><polygon fill="#A80036" points="365,521.062,369,531.062,373,521.062,369,525.062" style="stroke: #A80036; stroke-width: 1.0;"/><line style="stroke: #A80036; stroke-width: 1.5;" x1="369" x2="369" y1="398.7222" y2="423.1245"/><polygon fill="#A80036" points="365,413.1245,369,423.1245,373,413.1245,369,417.1245" style="stroke: #A80036; stroke-width: 1.0;"/><line style="stroke: #A80036; stroke-width: 1.5;" x1="395.5" x2="495" y1="386.7222" y2="386.7222"/><polygon fill="#A80036" points="491,474.0933,495,484.0933,499,474.0933,495,478.0933" style="stroke: #A80036; stroke-width: 1.5;"/><line style="stroke: #A80036; stroke-width: 1.5;" x1="495" x2="495" y1="386.7222" y2="573.062"/><line style="stroke: #A80036; stroke-width: 1.5;" x1="495" x2="369" y1="573.062" y2="573.062"/><line style="stroke: #A80036; stroke-width: 1.5;" x1="369" x2="369" y1="573.062" y2="593.062"/><polygon fill="#A80036" points="365,583.062,369,593.062,373,583.062,369,587.062" style="stroke: #A80036; stroke-width: 1.0;"/><line style="stroke: #A80036; stroke-width: 1.5;" x1="369" x2="369" y1="354.7222" y2="374.7222"/><polygon fill="#A80036" points="365,364.7222,369,374.7222,373,364.7222,369,368.7222" style="stroke: #A80036; stroke-width: 1.0;"/><line style="stroke: #A80036; stroke-width: 1.5;" x1="369" x2="369" y1="296.3511" y2="320.7534"/><polygon fill="#A80036" points="365,310.7534,369,320.7534,373,310.7534,369,314.7534" style="stroke: #A80036; stroke-width: 1.0;"/><line style="stroke: #A80036; stroke-width: 1.5;" x1="624.5" x2="636.5" y1="277.144" y2="277.144"/><polygon fill="#A80036" points="632.5,445.0054,636.5,455.0054,640.5,445.0054,636.5,449.0054" style="stroke: #A80036; stroke-width: 1.5;"/><line style="stroke: #A80036; stroke-width: 1.5;" x1="636.5" x2="636.5" y1="277.144" y2="605.062"/><line style="stroke: #A80036; stroke-width: 1.5;" x1="636.5" x2="381" y1="605.062" y2="605.062"/><polygon fill="#A80036" points="391,601.062,381,605.062,391,609.062,387,605.062" style="stroke: #A80036; stroke-width: 1.0;"/><line style="stroke: #A80036; stroke-width: 1.5;" x1="369" x2="369" y1="226.2266" y2="257.937"/><polygon fill="#A80036" points="365,247.937,369,257.937,373,247.937,369,251.937" style="stroke: #A80036; stroke-width: 1.0;"/><line style="stroke: #A80036; stroke-width: 1.5;" x1="369" x2="369" y1="617.062" y2="627.062"/><line style="stroke: #A80036; stroke-width: 1.5;" x1="369" x2="648.5" y1="627.062" y2="627.062"/><polygon fill="#A80036" points="644.5,442.9995,648.5,432.9995,652.5,442.9995,648.5,438.9995" style="stroke: #A80036; stroke-width: 1.5;"/><line style="stroke: #A80036; stroke-width: 1.5;" x1="648.5" x2="648.5" y1="214.2266" y2="627.062"/><line style="stroke: #A80036; stroke-width: 1.5;" x1="648.5" x2="461" y1="214.2266" y2="214.2266"/><polygon fill="#A80036" points="471,210.2266,461,214.2266,471,218.2266,467,214.2266" style="stroke: #A80036; stroke-width: 1.0;"/><line style="stroke: #A80036; stroke-width: 1.5;" x1="277" x2="101.5" y1="214.2266" y2="214.2266"/><polygon fill="#A80036" points="97.5,428.9995,101.5,438.9995,105.5,428.9995,101.5,432.9995" style="stroke: #A80036; stroke-width: 1.5;"/><line style="stroke: #A80036; stroke-width: 1.5;" x1="101.5" x2="101.5" y1="214.2266" y2="639.062"/><line style="stroke: #A80036; stroke-width: 1.5;" x1="101.5" x2="369" y1="639.062" y2="639.062"/><line style="stroke: #A80036; stroke-width: 1.5;" x1="369" x2="369" y1="639.062" y2="659.062"/><polygon fill="#A80036" points="365,649.062,369,659.062,373,649.062,369,653.062" style="stroke: #A80036; stroke-width: 1.0;"/><line style="stroke: #A80036; stroke-width: 1.5;" x1="369" x2="369" y1="182.2266" y2="202.2266"/><polygon fill="#A80036" points="365,192.2266,369,202.2266,373,192.2266,369,196.2266" style="stroke: #A80036; stroke-width: 1.0;"/><line style="stroke: #A80036; stroke-width: 1.5;" x1="369" x2="369" y1="683.062" y2="736.312"/><polygon fill="#A80036" points="365,726.312,369,736.312,373,726.312,369,730.312" style="stroke: #A80036; stroke-width: 1.0;"/><line style="stroke: #A80036; stroke-width: 1.5;" x1="468" x2="498" y1="671.062" y2="671.062"/><polygon fill="#A80036" points="488,667.062,498,671.062,488,675.062,492,671.062" style="stroke: #A80036; stroke-width: 1.0;"/><line style="stroke: #A80036; stroke-width: 1.5;" x1="369" x2="369" y1="1189.7534" y2="1214.1558"/><polygon fill="#A80036" points="365,1204.1558,369,1214.1558,373,1204.1558,369,1208.1558" style="stroke: #A80036; stroke-width: 1.0;"/><line style="stroke: #A80036; stroke-width: 1.5;" x1="568" x2="580" y1="1170.5464" y2="1170.5464"/><polygon fill="#A80036" points="576,1217.5366,580,1227.5366,584,1217.5366,580,1221.5366" style="stroke: #A80036; stroke-width: 1.5;"/><line style="stroke: #A80036; stroke-width: 1.5;" x1="580" x2="580" y1="1170.5464" y2="1280.4331"/><line style="stroke: #A80036; stroke-width: 1.5;" x1="580" x2="381" y1="1280.4331" y2="1280.4331"/><polygon fill="#A80036" points="391,1276.4331,381,1280.4331,391,1284.4331,387,1280.4331" style="stroke: #A80036; stroke-width: 1.0;"/><line style="stroke: #A80036; stroke-width: 1.5;" x1="369" x2="369" y1="1248.1245" y2="1268.4331"/><polygon fill="#A80036" points="365,1258.4331,369,1268.4331,373,1258.4331,369,1262.4331" style="stroke: #A80036; stroke-width: 1.0;"/><line style="stroke: #A80036; stroke-width: 1.5;" x1="369" x2="369" y1="1131.3394" y2="1151.3394"/><polygon fill="#A80036" points="365,1141.3394,369,1151.3394,373,1141.3394,369,1145.3394" style="stroke: #A80036; stroke-width: 1.0;"/><line style="stroke: #A80036; stroke-width: 1.5;" x1="369" x2="369" y1="1292.4331" y2="1312.4331"/><polygon fill="#A80036" points="365,1302.4331,369,1312.4331,373,1302.4331,369,1306.4331" style="stroke: #A80036; stroke-width: 1.0;"/><line style="stroke: #A80036; stroke-width: 1.5;" x1="369" x2="369" y1="1346.4019" y2="1366.4019"/><polygon fill="#A80036" points="365,1356.4019,369,1366.4019,373,1356.4019,369,1360.4019" style="stroke: #A80036; stroke-width: 1.0;"/><line style="stroke: #A80036; stroke-width: 1.5;" x1="369" x2="369" y1="1072.9683" y2="1097.3706"/><polygon fill="#A80036" points="365,1087.3706,369,1097.3706,373,1087.3706,369,1091.3706" style="stroke: #A80036; stroke-width: 1.0;"/><line style="stroke: #A80036; stroke-width: 1.5;" x1="395.5" x2="590" y1="1060.9683" y2="1060.9683"/><polygon fill="#A80036" points="586,1238.4331,590,1248.4331,594,1238.4331,590,1242.4331" style="stroke: #A80036; stroke-width: 1.5;"/><line style="stroke: #A80036; stroke-width: 1.5;" x1="590" x2="590" y1="1060.9683" y2="1408.4019"/><line style="stroke: #A80036; stroke-width: 1.5;" x1="590" x2="369" y1="1408.4019" y2="1408.4019"/><line style="stroke: #A80036; stroke-width: 1.5;" x1="369" x2="369" y1="1408.4019" y2="1428.4019"/><polygon fill="#A80036" points="365,1418.4019,369,1428.4019,373,1418.4019,369,1422.4019" style="stroke: #A80036; stroke-width: 1.0;"/><line style="stroke: #A80036; stroke-width: 1.5;" x1="369" x2="369" y1="1028.9683" y2="1048.9683"/><polygon fill="#A80036" points="365,1038.9683,369,1048.9683,373,1038.9683,369,1042.9683" style="stroke: #A80036; stroke-width: 1.0;"/><line style="stroke: #A80036; stroke-width: 1.5;" x1="369" x2="369" y1="970.5972" y2="994.9995"/><polygon fill="#A80036" points="365,984.9995,369,994.9995,373,984.9995,369,988.9995" style="stroke: #A80036; stroke-width: 1.0;"/><line style="stroke: #A80036; stroke-width: 1.5;" x1="624.5" x2="636.5" y1="951.3901" y2="951.3901"/><polygon fill="#A80036" points="632.5,1194.3452,636.5,1204.3452,640.5,1194.3452,636.5,1198.3452" style="stroke: #A80036; stroke-width: 1.5;"/><line style="stroke: #A80036; stroke-width: 1.5;" x1="636.5" x2="636.5" y1="951.3901" y2="1440.4019"/><line style="stroke: #A80036; stroke-width: 1.5;" x1="636.5" x2="381" y1="1440.4019" y2="1440.4019"/><polygon fill="#A80036" points="391,1436.4019,381,1440.4019,391,1444.4019,387,1440.4019" style="stroke: #A80036; stroke-width: 1.0;"/><line style="stroke: #A80036; stroke-width: 1.5;" x1="369" x2="369" y1="907.7808" y2="932.1831"/><polygon fill="#A80036" points="365,922.1831,369,932.1831,373,922.1831,369,926.1831" style="stroke: #A80036; stroke-width: 1.0;"/><line style="stroke: #A80036; stroke-width: 1.5;" x1="529.5" x2="646.5" y1="888.5737" y2="888.5737"/><polygon fill="#A80036" points="642.5,1187.1382,646.5,1197.1382,650.5,1187.1382,646.5,1191.1382" style="stroke: #A80036; stroke-width: 1.5;"/><line style="stroke: #A80036; stroke-width: 1.5;" x1="646.5" x2="646.5" y1="888.5737" y2="1484.4019"/><line style="stroke: #A80036; stroke-width: 1.5;" x1="646.5" x2="381" y1="1484.4019" y2="1484.4019"/><polygon fill="#A80036" points="391,1480.4019,381,1484.4019,391,1488.4019,387,1484.4019" style="stroke: #A80036; stroke-width: 1.0;"/><line style="stroke: #A80036; stroke-width: 1.5;" x1="369" x2="369" y1="1452.4019" y2="1472.4019"/><polygon fill="#A80036" points="365,1462.4019,369,1472.4019,373,1462.4019,369,1466.4019" style="stroke: #A80036; stroke-width: 1.0;"/><line style="stroke: #A80036; stroke-width: 1.5;" x1="369" x2="369" y1="832.562" y2="869.3667"/><polygon fill="#A80036" points="365,859.3667,369,869.3667,373,859.3667,369,863.3667" style="stroke: #A80036; stroke-width: 1.0;"/><line style="stroke: #A80036; stroke-width: 1.5;" x1="369" x2="369" y1="1496.4019" y2="1506.4019"/><line style="stroke: #A80036; stroke-width: 1.5;" x1="369" x2="666.5" y1="1506.4019" y2="1506.4019"/><polygon fill="#A80036" points="662.5,1185.1323,666.5,1175.1323,670.5,1185.1323,666.5,1181.1323" style="stroke: #A80036; stroke-width: 1.5;"/><line style="stroke: #A80036; stroke-width: 1.5;" x1="666.5" x2="666.5" y1="820.562" y2="1506.4019"/><line style="stroke: #A80036; stroke-width: 1.5;" x1="666.5" x2="473.5" y1="820.562" y2="820.562"/><polygon fill="#A80036" points="483.5,816.562,473.5,820.562,483.5,824.562,479.5,820.562" style="stroke: #A80036; stroke-width: 1.0;"/><line style="stroke: #A80036; stroke-width: 1.5;" x1="264.5" x2="81.5" y1="820.562" y2="820.562"/><line style="stroke: #A80036; stroke-width: 1.5;" x1="81.5" x2="81.5" y1="820.562" y2="856.562"/><polygon fill="#A80036" points="77.5,846.562,81.5,856.562,85.5,846.562,81.5,850.562" style="stroke: #A80036; stroke-width: 1.0;"/><line style="stroke: #A80036; stroke-width: 1.5;" x1="369" x2="369" y1="770.2808" y2="808.562"/><polygon fill="#A80036" points="365,798.562,369,808.562,373,798.562,369,802.562" style="stroke: #A80036; stroke-width: 1.0;"/><!--
@startuml
skinparam backgroundcolor White|White

title Hunspell - AffixMgr::suffix_check_twosfx(word)\n"check word for two-level suffixes"\n

start
floating note: When called from affix_check(word) default is\nalways used for needflag, sfxopts, ppfx.\nReturn NULL is implied.

#silver:do not reset any compound helpers;
while (iterate zero-length prefixes?) is (yes)
	if (
the flag of the suffix entry under consideration is in the generic continutation classes
	) then (yes)
		#tomato:root = SuffixEntry::check_twosfx(word);
		if (root?) then (yes)
			#silver:do not set any compound helpers;
			:return root;
			stop
		else (no)
		endif
	else (no)
	endif
endwhile (no)

if (length of word is 0? "full strip") then (yes)
	floating note: TODO Figure out what triggers this
	stop
else (no)
endif

:iterator starts at (word + len - 1) instead of (word);
floating note: TODO Figure out\nwhat this does,\nprobably to skip\nunimportant part
while (iterate non-zero-length prefixes?) is (yes)
	if (
is SuffixEntry.getKey() a revsubset of word + len - 1
	) then (yes)
		if (
the flag of the suffix entry under consideration is in the generic continutation classes
		) then (yes)
			#tomato:root = SuffixEntry::check_twosfx(word);
			if (root?) then (yes)
				#silver:set compound helper sfxflag;
				if (
the suffix entry under consideration has no continuation classes?
				) then (yes)
					#silver:set compound helper sfxappend to SuffixEntry.getKey();
				else (no)
				endif
				:return root;
				stop
			else (no)
			endif
		else (no)
		endif
	else (no)
	endif
endwhile (no)

stop


@enduml

PlantUML version 1.2018.12beta1(Unknown compile time)
(GPL source distribution)
Java Runtime: OpenJDK Runtime Environment
JVM: OpenJDK 64-Bit Server VM
Java Version: 10.0.2+13-Ubuntu-1ubuntu0.18.04.2
Operating System: Linux
OS Version: 4.15.0-34-generic
Default Encoding: UTF-8
Language: en
Country: US
--></g></svg>