<?xml version="1.0" encoding="UTF-8" standalone="no"?><svg xmlns="http://www.w3.org/2000/svg" xmlns:xlink="http://www.w3.org/1999/xlink" contentScriptType="application/ecmascript" contentStyleType="text/css" height="1507px" preserveAspectRatio="none" style="width:696px;height:1507px;" version="1.1" viewBox="0 0 696 1507" width="696px" zoomAndPan="magnify"><defs><linearGradient id="g1hv9ynvt3ux7u0" x1="0%" x2="100%" y1="50%" y2="50%"><stop offset="0%" stop-color="#FFFFFF"/><stop offset="100%" stop-color="#FFFFFF"/></linearGradient><filter height="300%" id="f1hv9ynvt3ux7u" width="300%" x="-1" y="-1"><feGaussianBlur result="blurOut" stdDeviation="2.0"/><feColorMatrix in="blurOut" result="blurOut2" type="matrix" values="0 0 0 0 0 0 0 0 0 0 0 0 0 0 0 0 0 0 .4 0"/><feOffset dx="4.0" dy="4.0" in="blurOut2" result="blurOut3"/><feBlend in="SourceGraphic" in2="blurOut3" mode="normal"/></filter></defs><g><rect fill="url(#g1hv9ynvt3ux7u0)" height="1507" style="stroke: none; stroke-width: 1.0;" width="696" x="0" y="0"/><text fill="#000000" font-family="sans-serif" font-size="18" lengthAdjust="spacingAndGlyphs" textLength="416" x="139.25" y="26.708">Hunspell - AffixMgr::suffix_check_twosfx(word)</text><text fill="#000000" font-family="sans-serif" font-size="18" lengthAdjust="spacingAndGlyphs" textLength="311" x="191.75" y="47.6611">"check word for two-level suffixes"</text><text fill="#000000" font-family="sans-serif" font-size="18" lengthAdjust="spacingAndGlyphs" textLength="0" x="350.25" y="68.6143"/><path d="M32,72.8594 L32,128.2578 L339,128.2578 L339,82.8594 L329,72.8594 L32,72.8594 " fill="#FBFB77" filter="url(#f1hv9ynvt3ux7u)" style="stroke: #A80036; stroke-width: 1.0;"/><path d="M329,72.8594 L329,82.8594 L339,82.8594 L329,72.8594 " fill="#FBFB77" style="stroke: #A80036; stroke-width: 1.0;"/><text fill="#000000" font-family="sans-serif" font-size="13" lengthAdjust="spacingAndGlyphs" textLength="286" x="38" y="89.9263">When called from affix_check(word) default is</text><text fill="#000000" font-family="sans-serif" font-size="13" lengthAdjust="spacingAndGlyphs" textLength="250" x="38" y="105.0591">always used for needflag, sfxopts, ppfx.</text><text fill="#000000" font-family="sans-serif" font-size="13" lengthAdjust="spacingAndGlyphs" textLength="148" x="38" y="120.1919">Return NULL is implied.</text><ellipse cx="369" cy="100.5586" fill="#000000" filter="url(#f1hv9ynvt3ux7u)" rx="10" ry="10" style="stroke: none; stroke-width: 1.0;"/><rect fill="#C0C0C0" filter="url(#f1hv9ynvt3ux7u)" height="33.9688" rx="12.5" ry="12.5" style="stroke: #A80036; stroke-width: 1.5;" width="245" x="246.5" y="141.6919"/><text fill="#000000" font-family="sans-serif" font-size="12" lengthAdjust="spacingAndGlyphs" textLength="225" x="256.5" y="162.8306">do not reset any compound helpers</text><rect fill="#FF6347" filter="url(#f1hv9ynvt3ux7u)" height="33.9688" rx="12.5" ry="12.5" style="stroke: #A80036; stroke-width: 1.5;" width="259" x="239.5" y="314.1875"/><text fill="#000000" font-family="sans-serif" font-size="12" lengthAdjust="spacingAndGlyphs" textLength="239" x="249.5" y="335.3262">root = SuffixEntry::check_twosfx(word)</text><rect fill="#C0C0C0" filter="url(#f1hv9ynvt3ux7u)" height="33.9688" rx="12.5" ry="12.5" style="stroke: #A80036; stroke-width: 1.5;" width="232" x="253" y="416.5586"/><text fill="#000000" font-family="sans-serif" font-size="12" lengthAdjust="spacingAndGlyphs" textLength="212" x="263" y="437.6973">do not set any compound helpers</text><rect fill="#FEFECE" filter="url(#f1hv9ynvt3ux7u)" height="33.9688" rx="12.5" ry="12.5" style="stroke: #A80036; stroke-width: 1.5;" width="89" x="324.5" y="470.5273"/><text fill="#000000" font-family="sans-serif" font-size="12" lengthAdjust="spacingAndGlyphs" textLength="69" x="334.5" y="491.666">return root</text><ellipse cx="369" cy="534.4961" fill="none" filter="url(#f1hv9ynvt3ux7u)" rx="10" ry="10" style="stroke: #000000; stroke-width: 1.0;"/><ellipse cx="369.5" cy="534.9961" fill="#000000" filter="url(#f1hv9ynvt3ux7u)" rx="6" ry="6" style="stroke: none; stroke-width: 1.0;"/><polygon fill="#FEFECE" filter="url(#f1hv9ynvt3ux7u)" points="354.5,368.1563,383.5,368.1563,395.5,380.1563,383.5,392.1563,354.5,392.1563,342.5,380.1563,354.5,368.1563" style="stroke: #A80036; stroke-width: 1.5;"/><text fill="#000000" font-family="sans-serif" font-size="11" lengthAdjust="spacingAndGlyphs" textLength="20" x="373" y="402.3667">yes</text><text fill="#000000" font-family="sans-serif" font-size="11" lengthAdjust="spacingAndGlyphs" textLength="29" x="354.5" y="383.9644">root?</text><text fill="#000000" font-family="sans-serif" font-size="11" lengthAdjust="spacingAndGlyphs" textLength="14" x="395.5" y="377.562">no</text><polygon fill="#FEFECE" filter="url(#f1hv9ynvt3ux7u)" points="125.5,251.3711,612.5,251.3711,624.5,270.5781,612.5,289.7852,125.5,289.7852,113.5,270.5781,125.5,251.3711" style="stroke: #A80036; stroke-width: 1.5;"/><text fill="#000000" font-family="sans-serif" font-size="11" lengthAdjust="spacingAndGlyphs" textLength="20" x="373" y="299.9956">yes</text><text fill="#000000" font-family="sans-serif" font-size="11" lengthAdjust="spacingAndGlyphs" textLength="0" x="129.5" y="261.5815"/><text fill="#000000" font-family="sans-serif" font-size="11" lengthAdjust="spacingAndGlyphs" textLength="487" x="125.5" y="274.3862">the flag of the suffix entry under consideration is in the generic continutation classes</text><text fill="#000000" font-family="sans-serif" font-size="11" lengthAdjust="spacingAndGlyphs" textLength="14" x="624.5" y="267.9839">no</text><polygon fill="#FEFECE" filter="url(#f1hv9ynvt3ux7u)" points="369,586.4961,381,598.4961,369,610.4961,357,598.4961,369,586.4961" style="stroke: #A80036; stroke-width: 1.5;"/><polygon fill="#FEFECE" filter="url(#f1hv9ynvt3ux7u)" points="289,195.6606,449,195.6606,461,207.6606,449,219.6606,289,219.6606,277,207.6606,289,195.6606" style="stroke: #A80036; stroke-width: 1.5;"/><text fill="#000000" font-family="sans-serif" font-size="11" lengthAdjust="spacingAndGlyphs" textLength="20" x="373" y="229.8711">yes</text><text fill="#000000" font-family="sans-serif" font-size="11" lengthAdjust="spacingAndGlyphs" textLength="160" x="289" y="211.4688">iterate zero-length prefixes?</text><text fill="#000000" font-family="sans-serif" font-size="11" lengthAdjust="spacingAndGlyphs" textLength="14" x="263" y="205.0664">no</text><path d="M10,676.332 L10,701.4648 L250,701.4648 L250,686.332 L240,676.332 L10,676.332 " fill="#FBFB77" filter="url(#f1hv9ynvt3ux7u)" style="stroke: #A80036; stroke-width: 1.0;"/><path d="M240,676.332 L240,686.332 L250,686.332 L240,676.332 " fill="#FBFB77" style="stroke: #A80036; stroke-width: 1.0;"/><text fill="#000000" font-family="sans-serif" font-size="13" lengthAdjust="spacingAndGlyphs" textLength="219" x="16" y="693.3989">TODO Figure out what triggers this</text><polygon fill="#FEFECE" filter="url(#f1hv9ynvt3ux7u)" points="282,652.4961,456,652.4961,468,664.4961,456,676.4961,282,676.4961,270,664.4961,282,652.4961" style="stroke: #A80036; stroke-width: 1.5;"/><text fill="#000000" font-family="sans-serif" font-size="11" lengthAdjust="spacingAndGlyphs" textLength="14" x="373" y="686.7065">no</text><text fill="#000000" font-family="sans-serif" font-size="11" lengthAdjust="spacingAndGlyphs" textLength="174" x="282" y="668.3042">length of word is 0? "full strip"</text><text fill="#000000" font-family="sans-serif" font-size="11" lengthAdjust="spacingAndGlyphs" textLength="20" x="468" y="661.9019">yes</text><ellipse cx="508" cy="664.4961" fill="none" filter="url(#f1hv9ynvt3ux7u)" rx="10" ry="10" style="stroke: #000000; stroke-width: 1.0;"/><ellipse cx="508.5" cy="664.9961" fill="#000000" filter="url(#f1hv9ynvt3ux7u)" rx="6" ry="6" style="stroke: none; stroke-width: 1.0;"/><path d="M50.5,701.4648 L50.5,771.9961 L180.5,771.9961 L180.5,711.4648 L170.5,701.4648 L50.5,701.4648 " fill="#FBFB77" filter="url(#f1hv9ynvt3ux7u)" style="stroke: #A80036; stroke-width: 1.0;"/><path d="M170.5,701.4648 L170.5,711.4648 L180.5,711.4648 L170.5,701.4648 " fill="#FBFB77" style="stroke: #A80036; stroke-width: 1.0;"/><text fill="#000000" font-family="sans-serif" font-size="13" lengthAdjust="spacingAndGlyphs" textLength="105" x="56.5" y="718.5317">TODO Figure out</text><text fill="#000000" font-family="sans-serif" font-size="13" lengthAdjust="spacingAndGlyphs" textLength="96" x="56.5" y="733.6646">what this does,</text><text fill="#000000" font-family="sans-serif" font-size="13" lengthAdjust="spacingAndGlyphs" textLength="101" x="56.5" y="748.7974">probably to skip</text><text fill="#000000" font-family="sans-serif" font-size="13" lengthAdjust="spacingAndGlyphs" textLength="109" x="56.5" y="763.9302">unimportant part</text><rect fill="#FEFECE" filter="url(#f1hv9ynvt3ux7u)" height="33.9688" rx="12.5" ry="12.5" style="stroke: #A80036; stroke-width: 1.5;" width="337" x="200.5" y="719.7461"/><text fill="#000000" font-family="sans-serif" font-size="12" lengthAdjust="spacingAndGlyphs" textLength="317" x="210.5" y="740.8848">iterator starts at (word + len - 1) instead of (word)</text><rect fill="#FF6347" filter="url(#f1hv9ynvt3ux7u)" height="33.9688" rx="12.5" ry="12.5" style="stroke: #A80036; stroke-width: 1.5;" width="259" x="239.5" y="971.8677"/><text fill="#000000" font-family="sans-serif" font-size="12" lengthAdjust="spacingAndGlyphs" textLength="239" x="249.5" y="993.0063">root = SuffixEntry::check_twosfx(word)</text><rect fill="#C0C0C0" filter="url(#f1hv9ynvt3ux7u)" height="33.9688" rx="12.5" ry="12.5" style="stroke: #A80036; stroke-width: 1.5;" width="198" x="270" y="1074.2388"/><text fill="#000000" font-family="sans-serif" font-size="12" lengthAdjust="spacingAndGlyphs" textLength="178" x="280" y="1095.3774">set compound helper sfxflag</text><rect fill="#C0C0C0" filter="url(#f1hv9ynvt3ux7u)" height="33.9688" rx="12.5" ry="12.5" style="stroke: #A80036; stroke-width: 1.5;" width="365" x="186.5" y="1191.0239"/><text fill="#000000" font-family="sans-serif" font-size="12" lengthAdjust="spacingAndGlyphs" textLength="345" x="196.5" y="1212.1626">set compound helper sfxappend to SuffixEntry.getKey()</text><polygon fill="#FEFECE" filter="url(#f1hv9ynvt3ux7u)" points="182,1128.2075,556,1128.2075,568,1147.4146,556,1166.6216,182,1166.6216,170,1147.4146,182,1128.2075" style="stroke: #A80036; stroke-width: 1.5;"/><text fill="#000000" font-family="sans-serif" font-size="11" lengthAdjust="spacingAndGlyphs" textLength="20" x="373" y="1176.832">yes</text><text fill="#000000" font-family="sans-serif" font-size="11" lengthAdjust="spacingAndGlyphs" textLength="0" x="186" y="1138.418"/><text fill="#000000" font-family="sans-serif" font-size="11" lengthAdjust="spacingAndGlyphs" textLength="374" x="182" y="1151.2227">the suffix entry under consideration has no continuation classes?</text><text fill="#000000" font-family="sans-serif" font-size="11" lengthAdjust="spacingAndGlyphs" textLength="14" x="568" y="1144.8203">no</text><polygon fill="#FEFECE" filter="url(#f1hv9ynvt3ux7u)" points="369,1245.3013,381,1257.3013,369,1269.3013,357,1257.3013,369,1245.3013" style="stroke: #A80036; stroke-width: 1.5;"/><rect fill="#FEFECE" filter="url(#f1hv9ynvt3ux7u)" height="33.9688" rx="12.5" ry="12.5" style="stroke: #A80036; stroke-width: 1.5;" width="89" x="324.5" y="1289.3013"/><text fill="#000000" font-family="sans-serif" font-size="12" lengthAdjust="spacingAndGlyphs" textLength="69" x="334.5" y="1310.4399">return root</text><ellipse cx="369" cy="1353.27" fill="none" filter="url(#f1hv9ynvt3ux7u)" rx="10" ry="10" style="stroke: #000000; stroke-width: 1.0;"/><ellipse cx="369.5" cy="1353.77" fill="#000000" filter="url(#f1hv9ynvt3ux7u)" rx="6" ry="6" style="stroke: none; stroke-width: 1.0;"/><polygon fill="#FEFECE" filter="url(#f1hv9ynvt3ux7u)" points="354.5,1025.8364,383.5,1025.8364,395.5,1037.8364,383.5,1049.8364,354.5,1049.8364,342.5,1037.8364,354.5,1025.8364" style="stroke: #A80036; stroke-width: 1.5;"/><text fill="#000000" font-family="sans-serif" font-size="11" lengthAdjust="spacingAndGlyphs" textLength="20" x="373" y="1060.0469">yes</text><text fill="#000000" font-family="sans-serif" font-size="11" lengthAdjust="spacingAndGlyphs" textLength="29" x="354.5" y="1041.6445">root?</text><text fill="#000000" font-family="sans-serif" font-size="11" lengthAdjust="spacingAndGlyphs" textLength="14" x="395.5" y="1035.2422">no</text><polygon fill="#FEFECE" filter="url(#f1hv9ynvt3ux7u)" points="125.5,909.0513,612.5,909.0513,624.5,928.2583,612.5,947.4653,125.5,947.4653,113.5,928.2583,125.5,909.0513" style="stroke: #A80036; stroke-width: 1.5;"/><text fill="#000000" font-family="sans-serif" font-size="11" lengthAdjust="spacingAndGlyphs" textLength="20" x="373" y="957.6758">yes</text><text fill="#000000" font-family="sans-serif" font-size="11" lengthAdjust="spacingAndGlyphs" textLength="0" x="129.5" y="919.2617"/><text fill="#000000" font-family="sans-serif" font-size="11" lengthAdjust="spacingAndGlyphs" textLength="487" x="125.5" y="932.0664">the flag of the suffix entry under consideration is in the generic continutation classes</text><text fill="#000000" font-family="sans-serif" font-size="11" lengthAdjust="spacingAndGlyphs" textLength="14" x="624.5" y="925.6641">no</text><polygon fill="#FEFECE" filter="url(#f1hv9ynvt3ux7u)" points="369,1405.27,381,1417.27,369,1429.27,357,1417.27,369,1405.27" style="stroke: #A80036; stroke-width: 1.5;"/><polygon fill="#FEFECE" filter="url(#f1hv9ynvt3ux7u)" points="220.5,846.2349,517.5,846.2349,529.5,865.4419,517.5,884.6489,220.5,884.6489,208.5,865.4419,220.5,846.2349" style="stroke: #A80036; stroke-width: 1.5;"/><text fill="#000000" font-family="sans-serif" font-size="11" lengthAdjust="spacingAndGlyphs" textLength="20" x="373" y="894.8594">yes</text><text fill="#000000" font-family="sans-serif" font-size="11" lengthAdjust="spacingAndGlyphs" textLength="0" x="224.5" y="856.4453"/><text fill="#000000" font-family="sans-serif" font-size="11" lengthAdjust="spacingAndGlyphs" textLength="297" x="220.5" y="869.25">is SuffixEntry.getKey() a revsubset of word + len - 1</text><text fill="#000000" font-family="sans-serif" font-size="11" lengthAdjust="spacingAndGlyphs" textLength="14" x="529.5" y="862.8477">no</text><polygon fill="#FEFECE" filter="url(#f1hv9ynvt3ux7u)" points="369,1449.27,381,1461.27,369,1473.27,357,1461.27,369,1449.27" style="stroke: #A80036; stroke-width: 1.5;"/><polygon fill="#FEFECE" filter="url(#f1hv9ynvt3ux7u)" points="276.5,785.4302,461.5,785.4302,473.5,797.4302,461.5,809.4302,276.5,809.4302,264.5,797.4302,276.5,785.4302" style="stroke: #A80036; stroke-width: 1.5;"/><text fill="#000000" font-family="sans-serif" font-size="11" lengthAdjust="spacingAndGlyphs" textLength="20" x="373" y="819.6406">yes</text><text fill="#000000" font-family="sans-serif" font-size="11" lengthAdjust="spacingAndGlyphs" textLength="185" x="276.5" y="801.2383">iterate non-zero-length prefixes?</text><text fill="#000000" font-family="sans-serif" font-size="11" lengthAdjust="spacingAndGlyphs" textLength="14" x="250.5" y="794.8359">no</text><ellipse cx="93.5" cy="843.4302" fill="none" filter="url(#f1hv9ynvt3ux7u)" rx="10" ry="10" style="stroke: #000000; stroke-width: 1.0;"/><ellipse cx="94" cy="843.9302" fill="#000000" filter="url(#f1hv9ynvt3ux7u)" rx="6" ry="6" style="stroke: none; stroke-width: 1.0;"/><line style="stroke: #A80036; stroke-width: 1.5;" x1="369" x2="369" y1="110.5586" y2="141.6919"/><polygon fill="#A80036" points="365,131.6919,369,141.6919,373,131.6919,369,135.6919" style="stroke: #A80036; stroke-width: 1.0;"/><line style="stroke: #A80036; stroke-width: 1.5;" x1="369" x2="369" y1="450.5273" y2="470.5273"/><polygon fill="#A80036" points="365,460.5273,369,470.5273,373,460.5273,369,464.5273" style="stroke: #A80036; stroke-width: 1.0;"/><line style="stroke: #A80036; stroke-width: 1.5;" x1="369" x2="369" y1="504.4961" y2="524.4961"/><polygon fill="#A80036" points="365,514.4961,369,524.4961,373,514.4961,369,518.4961" style="stroke: #A80036; stroke-width: 1.0;"/><line style="stroke: #A80036; stroke-width: 1.5;" x1="369" x2="369" y1="392.1563" y2="416.5586"/><polygon fill="#A80036" points="365,406.5586,369,416.5586,373,406.5586,369,410.5586" style="stroke: #A80036; stroke-width: 1.0;"/><line style="stroke: #A80036; stroke-width: 1.5;" x1="395.5" x2="495" y1="380.1563" y2="380.1563"/><polygon fill="#A80036" points="491,467.5273,495,477.5273,499,467.5273,495,471.5273" style="stroke: #A80036; stroke-width: 1.5;"/><line style="stroke: #A80036; stroke-width: 1.5;" x1="495" x2="495" y1="380.1563" y2="566.4961"/><line style="stroke: #A80036; stroke-width: 1.5;" x1="495" x2="369" y1="566.4961" y2="566.4961"/><line style="stroke: #A80036; stroke-width: 1.5;" x1="369" x2="369" y1="566.4961" y2="586.4961"/><polygon fill="#A80036" points="365,576.4961,369,586.4961,373,576.4961,369,580.4961" style="stroke: #A80036; stroke-width: 1.0;"/><line style="stroke: #A80036; stroke-width: 1.5;" x1="369" x2="369" y1="348.1563" y2="368.1563"/><polygon fill="#A80036" points="365,358.1563,369,368.1563,373,358.1563,369,362.1563" style="stroke: #A80036; stroke-width: 1.0;"/><line style="stroke: #A80036; stroke-width: 1.5;" x1="369" x2="369" y1="289.7852" y2="314.1875"/><polygon fill="#A80036" points="365,304.1875,369,314.1875,373,304.1875,369,308.1875" style="stroke: #A80036; stroke-width: 1.0;"/><line style="stroke: #A80036; stroke-width: 1.5;" x1="624.5" x2="636.5" y1="270.5781" y2="270.5781"/><polygon fill="#A80036" points="632.5,438.4395,636.5,448.4395,640.5,438.4395,636.5,442.4395" style="stroke: #A80036; stroke-width: 1.5;"/><line style="stroke: #A80036; stroke-width: 1.5;" x1="636.5" x2="636.5" y1="270.5781" y2="598.4961"/><line style="stroke: #A80036; stroke-width: 1.5;" x1="636.5" x2="381" y1="598.4961" y2="598.4961"/><polygon fill="#A80036" points="391,594.4961,381,598.4961,391,602.4961,387,598.4961" style="stroke: #A80036; stroke-width: 1.0;"/><line style="stroke: #A80036; stroke-width: 1.5;" x1="369" x2="369" y1="219.6606" y2="251.3711"/><polygon fill="#A80036" points="365,241.3711,369,251.3711,373,241.3711,369,245.3711" style="stroke: #A80036; stroke-width: 1.0;"/><line style="stroke: #A80036; stroke-width: 1.5;" x1="369" x2="369" y1="610.4961" y2="620.4961"/><line style="stroke: #A80036; stroke-width: 1.5;" x1="369" x2="648.5" y1="620.4961" y2="620.4961"/><polygon fill="#A80036" points="644.5,436.4336,648.5,426.4336,652.5,436.4336,648.5,432.4336" style="stroke: #A80036; stroke-width: 1.5;"/><line style="stroke: #A80036; stroke-width: 1.5;" x1="648.5" x2="648.5" y1="207.6606" y2="620.4961"/><line style="stroke: #A80036; stroke-width: 1.5;" x1="648.5" x2="461" y1="207.6606" y2="207.6606"/><polygon fill="#A80036" points="471,203.6606,461,207.6606,471,211.6606,467,207.6606" style="stroke: #A80036; stroke-width: 1.0;"/><line style="stroke: #A80036; stroke-width: 1.5;" x1="277" x2="101.5" y1="207.6606" y2="207.6606"/><polygon fill="#A80036" points="97.5,422.4336,101.5,432.4336,105.5,422.4336,101.5,426.4336" style="stroke: #A80036; stroke-width: 1.5;"/><line style="stroke: #A80036; stroke-width: 1.5;" x1="101.5" x2="101.5" y1="207.6606" y2="632.4961"/><line style="stroke: #A80036; stroke-width: 1.5;" x1="101.5" x2="369" y1="632.4961" y2="632.4961"/><line style="stroke: #A80036; stroke-width: 1.5;" x1="369" x2="369" y1="632.4961" y2="652.4961"/><polygon fill="#A80036" points="365,642.4961,369,652.4961,373,642.4961,369,646.4961" style="stroke: #A80036; stroke-width: 1.0;"/><line style="stroke: #A80036; stroke-width: 1.5;" x1="369" x2="369" y1="175.6606" y2="195.6606"/><polygon fill="#A80036" points="365,185.6606,369,195.6606,373,185.6606,369,189.6606" style="stroke: #A80036; stroke-width: 1.0;"/><line style="stroke: #A80036; stroke-width: 1.5;" x1="369" x2="369" y1="676.4961" y2="719.7461"/><polygon fill="#A80036" points="365,709.7461,369,719.7461,373,709.7461,369,713.7461" style="stroke: #A80036; stroke-width: 1.0;"/><line style="stroke: #A80036; stroke-width: 1.5;" x1="468" x2="498" y1="664.4961" y2="664.4961"/><polygon fill="#A80036" points="488,660.4961,498,664.4961,488,668.4961,492,664.4961" style="stroke: #A80036; stroke-width: 1.0;"/><line style="stroke: #A80036; stroke-width: 1.5;" x1="369" x2="369" y1="1166.6216" y2="1191.0239"/><polygon fill="#A80036" points="365,1181.0239,369,1191.0239,373,1181.0239,369,1185.0239" style="stroke: #A80036; stroke-width: 1.0;"/><line style="stroke: #A80036; stroke-width: 1.5;" x1="568" x2="580" y1="1147.4146" y2="1147.4146"/><polygon fill="#A80036" points="576,1194.4048,580,1204.4048,584,1194.4048,580,1198.4048" style="stroke: #A80036; stroke-width: 1.5;"/><line style="stroke: #A80036; stroke-width: 1.5;" x1="580" x2="580" y1="1147.4146" y2="1257.3013"/><line style="stroke: #A80036; stroke-width: 1.5;" x1="580" x2="381" y1="1257.3013" y2="1257.3013"/><polygon fill="#A80036" points="391,1253.3013,381,1257.3013,391,1261.3013,387,1257.3013" style="stroke: #A80036; stroke-width: 1.0;"/><line style="stroke: #A80036; stroke-width: 1.5;" x1="369" x2="369" y1="1224.9927" y2="1245.3013"/><polygon fill="#A80036" points="365,1235.3013,369,1245.3013,373,1235.3013,369,1239.3013" style="stroke: #A80036; stroke-width: 1.0;"/><line style="stroke: #A80036; stroke-width: 1.5;" x1="369" x2="369" y1="1108.2075" y2="1128.2075"/><polygon fill="#A80036" points="365,1118.2075,369,1128.2075,373,1118.2075,369,1122.2075" style="stroke: #A80036; stroke-width: 1.0;"/><line style="stroke: #A80036; stroke-width: 1.5;" x1="369" x2="369" y1="1269.3013" y2="1289.3013"/><polygon fill="#A80036" points="365,1279.3013,369,1289.3013,373,1279.3013,369,1283.3013" style="stroke: #A80036; stroke-width: 1.0;"/><line style="stroke: #A80036; stroke-width: 1.5;" x1="369" x2="369" y1="1323.27" y2="1343.27"/><polygon fill="#A80036" points="365,1333.27,369,1343.27,373,1333.27,369,1337.27" style="stroke: #A80036; stroke-width: 1.0;"/><line style="stroke: #A80036; stroke-width: 1.5;" x1="369" x2="369" y1="1049.8364" y2="1074.2388"/><polygon fill="#A80036" points="365,1064.2388,369,1074.2388,373,1064.2388,369,1068.2388" style="stroke: #A80036; stroke-width: 1.0;"/><line style="stroke: #A80036; stroke-width: 1.5;" x1="395.5" x2="590" y1="1037.8364" y2="1037.8364"/><polygon fill="#A80036" points="586,1215.3013,590,1225.3013,594,1215.3013,590,1219.3013" style="stroke: #A80036; stroke-width: 1.5;"/><line style="stroke: #A80036; stroke-width: 1.5;" x1="590" x2="590" y1="1037.8364" y2="1385.27"/><line style="stroke: #A80036; stroke-width: 1.5;" x1="590" x2="369" y1="1385.27" y2="1385.27"/><line style="stroke: #A80036; stroke-width: 1.5;" x1="369" x2="369" y1="1385.27" y2="1405.27"/><polygon fill="#A80036" points="365,1395.27,369,1405.27,373,1395.27,369,1399.27" style="stroke: #A80036; stroke-width: 1.0;"/><line style="stroke: #A80036; stroke-width: 1.5;" x1="369" x2="369" y1="1005.8364" y2="1025.8364"/><polygon fill="#A80036" points="365,1015.8364,369,1025.8364,373,1015.8364,369,1019.8364" style="stroke: #A80036; stroke-width: 1.0;"/><line style="stroke: #A80036; stroke-width: 1.5;" x1="369" x2="369" y1="947.4653" y2="971.8677"/><polygon fill="#A80036" points="365,961.8677,369,971.8677,373,961.8677,369,965.8677" style="stroke: #A80036; stroke-width: 1.0;"/><line style="stroke: #A80036; stroke-width: 1.5;" x1="624.5" x2="636.5" y1="928.2583" y2="928.2583"/><polygon fill="#A80036" points="632.5,1171.2134,636.5,1181.2134,640.5,1171.2134,636.5,1175.2134" style="stroke: #A80036; stroke-width: 1.5;"/><line style="stroke: #A80036; stroke-width: 1.5;" x1="636.5" x2="636.5" y1="928.2583" y2="1417.27"/><line style="stroke: #A80036; stroke-width: 1.5;" x1="636.5" x2="381" y1="1417.27" y2="1417.27"/><polygon fill="#A80036" points="391,1413.27,381,1417.27,391,1421.27,387,1417.27" style="stroke: #A80036; stroke-width: 1.0;"/><line style="stroke: #A80036; stroke-width: 1.5;" x1="369" x2="369" y1="884.6489" y2="909.0513"/><polygon fill="#A80036" points="365,899.0513,369,909.0513,373,899.0513,369,903.0513" style="stroke: #A80036; stroke-width: 1.0;"/><line style="stroke: #A80036; stroke-width: 1.5;" x1="529.5" x2="646.5" y1="865.4419" y2="865.4419"/><polygon fill="#A80036" points="642.5,1164.0063,646.5,1174.0063,650.5,1164.0063,646.5,1168.0063" style="stroke: #A80036; stroke-width: 1.5;"/><line style="stroke: #A80036; stroke-width: 1.5;" x1="646.5" x2="646.5" y1="865.4419" y2="1461.27"/><line style="stroke: #A80036; stroke-width: 1.5;" x1="646.5" x2="381" y1="1461.27" y2="1461.27"/><polygon fill="#A80036" points="391,1457.27,381,1461.27,391,1465.27,387,1461.27" style="stroke: #A80036; stroke-width: 1.0;"/><line style="stroke: #A80036; stroke-width: 1.5;" x1="369" x2="369" y1="1429.27" y2="1449.27"/><polygon fill="#A80036" points="365,1439.27,369,1449.27,373,1439.27,369,1443.27" style="stroke: #A80036; stroke-width: 1.0;"/><line style="stroke: #A80036; stroke-width: 1.5;" x1="369" x2="369" y1="809.4302" y2="846.2349"/><polygon fill="#A80036" points="365,836.2349,369,846.2349,373,836.2349,369,840.2349" style="stroke: #A80036; stroke-width: 1.0;"/><line style="stroke: #A80036; stroke-width: 1.5;" x1="369" x2="369" y1="1473.27" y2="1483.27"/><line style="stroke: #A80036; stroke-width: 1.5;" x1="369" x2="670.5" y1="1483.27" y2="1483.27"/><polygon fill="#A80036" points="666.5,1162.0005,670.5,1152.0005,674.5,1162.0005,670.5,1158.0005" style="stroke: #A80036; stroke-width: 1.5;"/><line style="stroke: #A80036; stroke-width: 1.5;" x1="670.5" x2="670.5" y1="797.4302" y2="1483.27"/><line style="stroke: #A80036; stroke-width: 1.5;" x1="670.5" x2="473.5" y1="797.4302" y2="797.4302"/><polygon fill="#A80036" points="483.5,793.4302,473.5,797.4302,483.5,801.4302,479.5,797.4302" style="stroke: #A80036; stroke-width: 1.0;"/><line style="stroke: #A80036; stroke-width: 1.5;" x1="264.5" x2="93.5" y1="797.4302" y2="797.4302"/><line style="stroke: #A80036; stroke-width: 1.5;" x1="93.5" x2="93.5" y1="797.4302" y2="833.4302"/><polygon fill="#A80036" points="89.5,823.4302,93.5,833.4302,97.5,823.4302,93.5,827.4302" style="stroke: #A80036; stroke-width: 1.0;"/><line style="stroke: #A80036; stroke-width: 1.5;" x1="369" x2="369" y1="753.7148" y2="785.4302"/><polygon fill="#A80036" points="365,775.4302,369,785.4302,373,775.4302,369,779.4302" style="stroke: #A80036; stroke-width: 1.0;"/><!--
@startuml
skinparam backgroundcolor White|White

title Hunspell - AffixMgr::suffix_check_twosfx(word)\n"check word for two-level suffixes"\n

start
floating note: When called from affix_check(word) default is\nalways used for needflag, sfxopts, ppfx.\nReturn NULL is implied.

#silver:do not reset any compound helpers;
while (iterate zero-length prefixes?) is (yes)
	if (
the flag of the suffix entry under consideration is in the generic continutation classes
	) then (yes)
		#tomato:root = SuffixEntry::check_twosfx(word);
		if (root?) then (yes)
			#silver:do not set any compound helpers;
			:return root;
			stop
		else (no)
		endif
	else (no)
	endif
endwhile (no)

if (length of word is 0? "full strip") then (yes)
	floating note: TODO Figure out what triggers this
	stop
else (no)
endif

:iterator starts at (word + len - 1) instead of (word);
floating note: TODO Figure out\nwhat this does,\nprobably to skip\nunimportant part
while (iterate non-zero-length prefixes?) is (yes)
	if (
is SuffixEntry.getKey() a revsubset of word + len - 1
	) then (yes)
		if (
the flag of the suffix entry under consideration is in the generic continutation classes
		) then (yes)
			#tomato:root = SuffixEntry::check_twosfx(word);
			if (root?) then (yes)
				#silver:set compound helper sfxflag;
				if (
the suffix entry under consideration has no continuation classes?
				) then (yes)
					#silver:set compound helper sfxappend to SuffixEntry.getKey();
				else (no)
				endif
				:return root;
				stop
			else (no)
			endif
		else (no)
		endif
	else (no)
	endif
endwhile (no)

stop


@enduml

PlantUML version 1.2018.06(Mon May 21 12:34:53 CEST 2018)
(GPL source distribution)
Java Runtime: OpenJDK Runtime Environment
JVM: OpenJDK 64-Bit Server VM
Java Version: 10.0.2+13-Ubuntu-1ubuntu0.18.04.1
Operating System: Linux
OS Version: 4.15.0-33-generic
Default Encoding: UTF-8
Language: en
Country: US
--></g></svg>