<?xml version="1.0" encoding="UTF-8" standalone="no"?><svg xmlns="http://www.w3.org/2000/svg" xmlns:xlink="http://www.w3.org/1999/xlink" contentScriptType="application/ecmascript" contentStyleType="text/css" height="2064px" preserveAspectRatio="none" style="width:1143px;height:2064px;" version="1.1" viewBox="0 0 1143 2064" width="1143px" zoomAndPan="magnify"><defs><linearGradient id="gm35gjbvfjenu0" x1="0%" x2="100%" y1="50%" y2="50%"><stop offset="0%" stop-color="#FFFFFF"/><stop offset="100%" stop-color="#FFFFFF"/></linearGradient><filter height="300%" id="fm35gjbvfjenu" width="300%" x="-1" y="-1"><feGaussianBlur result="blurOut" stdDeviation="2.0"/><feColorMatrix in="blurOut" result="blurOut2" type="matrix" values="0 0 0 0 0 0 0 0 0 0 0 0 0 0 0 0 0 0 .4 0"/><feOffset dx="4.0" dy="4.0" in="blurOut2" result="blurOut3"/><feBlend in="SourceGraphic" in2="blurOut3" mode="normal"/></filter></defs><g><rect fill="url(#gm35gjbvfjenu0)" height="2064" style="stroke: none; stroke-width: 1.0;" width="1143" x="0" y="0"/><text fill="#000000" font-family="sans-serif" font-size="18" lengthAdjust="spacingAndGlyphs" textLength="349" x="396.25" y="26.708">Hunspell - AffixMgr::suffix_check(word)</text><text fill="#000000" font-family="sans-serif" font-size="18" lengthAdjust="spacingAndGlyphs" textLength="222" x="459.75" y="47.6611">"check word for suffixes"</text><text fill="#000000" font-family="sans-serif" font-size="18" lengthAdjust="spacingAndGlyphs" textLength="0" x="573.75" y="68.6143"/><path d="M212.5,72.8594 L212.5,128.2578 L637.5,128.2578 L637.5,82.8594 L627.5,72.8594 L212.5,72.8594 " fill="#FBFB77" filter="url(#fm35gjbvfjenu)" style="stroke: #A80036; stroke-width: 1.0;"/><path d="M627.5,72.8594 L627.5,82.8594 L637.5,82.8594 L627.5,72.8594 " fill="#FBFB77" style="stroke: #A80036; stroke-width: 1.0;"/><text fill="#000000" font-family="sans-serif" font-size="13" lengthAdjust="spacingAndGlyphs" textLength="301" x="218.5" y="89.9263">When called from affix_check(word) default is</text><text fill="#000000" font-family="sans-serif" font-size="13" lengthAdjust="spacingAndGlyphs" textLength="404" x="218.5" y="105.0591">always used for in_compound, needflag, sfxopts, ppfx, cclass.</text><text fill="#000000" font-family="sans-serif" font-size="13" lengthAdjust="spacingAndGlyphs" textLength="153" x="218.5" y="120.1919">Return NULL is implied.</text><ellipse cx="667.5" cy="100.5586" fill="#000000" filter="url(#fm35gjbvfjenu)" rx="10" ry="10" style="stroke: none; stroke-width: 1.0;"/><rect fill="#C0C0C0" filter="url(#fm35gjbvfjenu)" height="33.9688" rx="12.5" ry="12.5" style="stroke: #A80036; stroke-width: 1.5;" width="236" x="549.5" y="141.6919"/><text fill="#000000" font-family="sans-serif" font-size="12" lengthAdjust="spacingAndGlyphs" textLength="216" x="559.5" y="162.8306">do not reset any compound helpers</text><rect fill="#FF6347" filter="url(#fm35gjbvfjenu)" height="33.9688" rx="12.5" ry="12.5" style="stroke: #A80036; stroke-width: 1.5;" width="458" x="438.5" y="620.293"/><text fill="#000000" font-family="sans-serif" font-size="12" lengthAdjust="spacingAndGlyphs" textLength="438" x="448.5" y="641.4316">root = SuffixEntry::checkword(word,(in_compound?0:onlyincompound))</text><rect fill="#C0C0C0" filter="url(#fm35gjbvfjenu)" height="33.9688" rx="12.5" ry="12.5" style="stroke: #A80036; stroke-width: 1.5;" width="170" x="582.5" y="722.6641"/><text fill="#000000" font-family="sans-serif" font-size="12" lengthAdjust="spacingAndGlyphs" textLength="150" x="592.5" y="743.8027">set compound helper sfx</text><rect fill="#FEFECE" filter="url(#fm35gjbvfjenu)" height="33.9688" rx="12.5" ry="12.5" style="stroke: #A80036; stroke-width: 1.5;" width="86" x="624.5" y="776.6328"/><text fill="#000000" font-family="sans-serif" font-size="12" lengthAdjust="spacingAndGlyphs" textLength="66" x="634.5" y="797.7715">return root</text><ellipse cx="667.5" cy="840.6016" fill="none" filter="url(#fm35gjbvfjenu)" rx="10" ry="10" style="stroke: #000000; stroke-width: 1.0;"/><ellipse cx="668" cy="841.1016" fill="#000000" filter="url(#fm35gjbvfjenu)" rx="6" ry="6" style="stroke: none; stroke-width: 1.0;"/><polygon fill="#FEFECE" filter="url(#fm35gjbvfjenu)" points="653,674.2617,682,674.2617,694,686.2617,682,698.2617,653,698.2617,641,686.2617,653,674.2617" style="stroke: #A80036; stroke-width: 1.5;"/><text fill="#000000" font-family="sans-serif" font-size="11" lengthAdjust="spacingAndGlyphs" textLength="20" x="671.5" y="708.4722">yes</text><text fill="#000000" font-family="sans-serif" font-size="11" lengthAdjust="spacingAndGlyphs" textLength="29" x="653" y="690.0698">root?</text><text fill="#000000" font-family="sans-serif" font-size="11" lengthAdjust="spacingAndGlyphs" textLength="14" x="694" y="683.6675">no</text><polygon fill="#FEFECE" filter="url(#fm35gjbvfjenu)" points="280,339.7969,1055,339.7969,1067,467.8438,1055,595.8906,280,595.8906,268,467.8438,280,339.7969" style="stroke: #A80036; stroke-width: 1.5;"/><text fill="#000000" font-family="sans-serif" font-size="11" lengthAdjust="spacingAndGlyphs" textLength="20" x="671.5" y="606.1011">yes</text><text fill="#000000" font-family="sans-serif" font-size="11" lengthAdjust="spacingAndGlyphs" textLength="0" x="284" y="350.0073"/><text fill="#000000" font-family="sans-serif" font-size="11" lengthAdjust="spacingAndGlyphs" textLength="759" x="296" y="362.812">1.a this method was not called from compounding related to the beginning part "suffixes are not allowed in beginning of compounds"</text><text fill="#000000" font-family="sans-serif" font-size="11" lengthAdjust="spacingAndGlyphs" textLength="17" x="296" y="375.6167">OR</text><text fill="#000000" font-family="sans-serif" font-size="11" lengthAdjust="spacingAndGlyphs" textLength="627" x="296" y="388.4214">1.b continuation classes of the suffix entry under consideration does contain generic compoundpermitflag flag</text><text fill="#000000" font-family="sans-serif" font-size="11" lengthAdjust="spacingAndGlyphs" textLength="24" x="280" y="401.2261">AND</text><text fill="#000000" font-family="sans-serif" font-size="11" lengthAdjust="spacingAndGlyphs" textLength="210" x="296" y="414.0308">2.a there is no generic circumfix flag</text><text fill="#000000" font-family="sans-serif" font-size="11" lengthAdjust="spacingAndGlyphs" textLength="17" x="296" y="426.8354">OR</text><text fill="#000000" font-family="sans-serif" font-size="11" lengthAdjust="spacingAndGlyphs" textLength="721" x="296" y="439.6401">2.b continuation classes of the provided prefix entry and suffix entry under consideration do not contain generic circumfix flag</text><text fill="#000000" font-family="sans-serif" font-size="11" lengthAdjust="spacingAndGlyphs" textLength="17" x="296" y="452.4448">OR</text><text fill="#000000" font-family="sans-serif" font-size="11" lengthAdjust="spacingAndGlyphs" textLength="727" x="296" y="465.2495">2.c continuation classes of the provided prefix entry and suffix entry under consideration do both contain generic circumfix flag</text><text fill="#000000" font-family="sans-serif" font-size="11" lengthAdjust="spacingAndGlyphs" textLength="24" x="280" y="478.0542">AND</text><text fill="#000000" font-family="sans-serif" font-size="11" lengthAdjust="spacingAndGlyphs" textLength="737" x="296" y="490.8589">3 the continuation classes of the suffix entry under consideration does not contain generic onlyincompound flag "fogemorpheme"</text><text fill="#000000" font-family="sans-serif" font-size="11" lengthAdjust="spacingAndGlyphs" textLength="24" x="280" y="503.6636">AND</text><text fill="#000000" font-family="sans-serif" font-size="11" lengthAdjust="spacingAndGlyphs" textLength="195" x="296" y="516.4683">"needaffix on prefix or first suffix"</text><text fill="#000000" font-family="sans-serif" font-size="11" lengthAdjust="spacingAndGlyphs" textLength="276" x="296" y="529.2729">4.a continuation class is provided to this method</text><text fill="#000000" font-family="sans-serif" font-size="11" lengthAdjust="spacingAndGlyphs" textLength="17" x="296" y="542.0776">OR</text><text fill="#000000" font-family="sans-serif" font-size="11" lengthAdjust="spacingAndGlyphs" textLength="524" x="296" y="554.8823">4.b continuation classes of the provided prefix entry does not contain generic needaffix flag</text><text fill="#000000" font-family="sans-serif" font-size="11" lengthAdjust="spacingAndGlyphs" textLength="17" x="296" y="567.687">OR</text><text fill="#000000" font-family="sans-serif" font-size="11" lengthAdjust="spacingAndGlyphs" textLength="584" x="296" y="580.4917">4.c continuation classes of the suffix entry under consideration does not contain generic needaffix flag</text><text fill="#000000" font-family="sans-serif" font-size="11" lengthAdjust="spacingAndGlyphs" textLength="14" x="1067" y="465.2495">no</text><polygon fill="#FEFECE" filter="url(#fm35gjbvfjenu)" points="667.5,892.6016,679.5,904.6016,667.5,916.6016,655.5,904.6016,667.5,892.6016" style="stroke: #A80036; stroke-width: 1.5;"/><polygon fill="#FEFECE" filter="url(#fm35gjbvfjenu)" points="494.5,251.3711,840.5,251.3711,852.5,283.3828,840.5,315.3945,494.5,315.3945,482.5,283.3828,494.5,251.3711" style="stroke: #A80036; stroke-width: 1.5;"/><text fill="#000000" font-family="sans-serif" font-size="11" lengthAdjust="spacingAndGlyphs" textLength="20" x="671.5" y="325.605">yes</text><text fill="#000000" font-family="sans-serif" font-size="11" lengthAdjust="spacingAndGlyphs" textLength="0" x="498.5" y="261.5815"/><text fill="#000000" font-family="sans-serif" font-size="11" lengthAdjust="spacingAndGlyphs" textLength="295" x="494.5" y="274.3862">no continuation classes are provided to this method</text><text fill="#000000" font-family="sans-serif" font-size="11" lengthAdjust="spacingAndGlyphs" textLength="17" x="494.5" y="287.1909">OR</text><text fill="#000000" font-family="sans-serif" font-size="11" lengthAdjust="spacingAndGlyphs" textLength="346" x="494.5" y="299.9956">the suffix entry under consideration has continuation classes</text><text fill="#000000" font-family="sans-serif" font-size="11" lengthAdjust="spacingAndGlyphs" textLength="14" x="852.5" y="280.7886">no</text><polygon fill="#FEFECE" filter="url(#fm35gjbvfjenu)" points="667.5,936.6016,679.5,948.6016,667.5,960.6016,655.5,948.6016,667.5,936.6016" style="stroke: #A80036; stroke-width: 1.5;"/><polygon fill="#FEFECE" filter="url(#fm35gjbvfjenu)" points="588,195.6606,747,195.6606,759,207.6606,747,219.6606,588,219.6606,576,207.6606,588,195.6606" style="stroke: #A80036; stroke-width: 1.5;"/><text fill="#000000" font-family="sans-serif" font-size="11" lengthAdjust="spacingAndGlyphs" textLength="20" x="671.5" y="229.8711">yes</text><text fill="#000000" font-family="sans-serif" font-size="11" lengthAdjust="spacingAndGlyphs" textLength="159" x="588" y="211.4688">iterate zero-length suffixes?</text><text fill="#000000" font-family="sans-serif" font-size="11" lengthAdjust="spacingAndGlyphs" textLength="14" x="562" y="205.0664">no</text><path d="M303.5,1026.4375 L303.5,1051.5703 L549.5,1051.5703 L549.5,1036.4375 L539.5,1026.4375 L303.5,1026.4375 " fill="#FBFB77" filter="url(#fm35gjbvfjenu)" style="stroke: #A80036; stroke-width: 1.0;"/><path d="M539.5,1026.4375 L539.5,1036.4375 L549.5,1036.4375 L539.5,1026.4375 " fill="#FBFB77" style="stroke: #A80036; stroke-width: 1.0;"/><text fill="#000000" font-family="sans-serif" font-size="13" lengthAdjust="spacingAndGlyphs" textLength="225" x="309.5" y="1043.5044">TODO Figure out what triggers this</text><polygon fill="#FEFECE" filter="url(#fm35gjbvfjenu)" points="581.5,1002.6016,753.5,1002.6016,765.5,1014.6016,753.5,1026.6016,581.5,1026.6016,569.5,1014.6016,581.5,1002.6016" style="stroke: #A80036; stroke-width: 1.5;"/><text fill="#000000" font-family="sans-serif" font-size="11" lengthAdjust="spacingAndGlyphs" textLength="14" x="671.5" y="1036.812">no</text><text fill="#000000" font-family="sans-serif" font-size="11" lengthAdjust="spacingAndGlyphs" textLength="172" x="581.5" y="1018.4097">length of word is 0? "full strip"</text><text fill="#000000" font-family="sans-serif" font-size="11" lengthAdjust="spacingAndGlyphs" textLength="20" x="765.5" y="1012.0073">yes</text><ellipse cx="805.5" cy="1014.6016" fill="none" filter="url(#fm35gjbvfjenu)" rx="10" ry="10" style="stroke: #000000; stroke-width: 1.0;"/><ellipse cx="806" cy="1015.1016" fill="#000000" filter="url(#fm35gjbvfjenu)" rx="6" ry="6" style="stroke: none; stroke-width: 1.0;"/><path d="M354,1051.5703 L354,1122.1016 L485,1122.1016 L485,1061.5703 L475,1051.5703 L354,1051.5703 " fill="#FBFB77" filter="url(#fm35gjbvfjenu)" style="stroke: #A80036; stroke-width: 1.0;"/><path d="M475,1051.5703 L475,1061.5703 L485,1061.5703 L475,1051.5703 " fill="#FBFB77" style="stroke: #A80036; stroke-width: 1.0;"/><text fill="#000000" font-family="sans-serif" font-size="13" lengthAdjust="spacingAndGlyphs" textLength="107" x="360" y="1068.6372">TODO Figure out</text><text fill="#000000" font-family="sans-serif" font-size="13" lengthAdjust="spacingAndGlyphs" textLength="99" x="360" y="1083.77">what this does,</text><text fill="#000000" font-family="sans-serif" font-size="13" lengthAdjust="spacingAndGlyphs" textLength="105" x="360" y="1098.9028">probably to skip</text><text fill="#000000" font-family="sans-serif" font-size="13" lengthAdjust="spacingAndGlyphs" textLength="110" x="360" y="1114.0356">unimportant part</text><rect fill="#FEFECE" filter="url(#fm35gjbvfjenu)" height="33.9688" rx="12.5" ry="12.5" style="stroke: #A80036; stroke-width: 1.5;" width="325" x="505" y="1069.8516"/><text fill="#000000" font-family="sans-serif" font-size="12" lengthAdjust="spacingAndGlyphs" textLength="305" x="515" y="1090.9902">iterator starts at (word + len - 1) instead of (word)</text><path d="M34,1591.2544 L34,1661.7856 L211,1661.7856 L211,1601.2544 L201,1591.2544 L34,1591.2544 " fill="#FBFB77" filter="url(#fm35gjbvfjenu)" style="stroke: #A80036; stroke-width: 1.0;"/><path d="M201,1591.2544 L201,1601.2544 L211,1601.2544 L201,1591.2544 " fill="#FBFB77" style="stroke: #A80036; stroke-width: 1.0;"/><text fill="#000000" font-family="sans-serif" font-size="13" lengthAdjust="spacingAndGlyphs" textLength="155" x="40" y="1608.3213">getKey() returns rappnd</text><text fill="#000000" font-family="sans-serif" font-size="13" lengthAdjust="spacingAndGlyphs" textLength="145" x="40" y="1623.4541">being reverse append,</text><text fill="#000000" font-family="sans-serif" font-size="13" lengthAdjust="spacingAndGlyphs" textLength="156" x="40" y="1638.5869">revsubset is tested with</text><text fill="#000000" font-family="sans-serif" font-size="13" lengthAdjust="spacingAndGlyphs" textLength="143" x="40" y="1653.7197">AffixMgr::isRevSubset</text><rect fill="#FF6347" filter="url(#fm35gjbvfjenu)" height="33.9688" rx="12.5" ry="12.5" style="stroke: #A80036; stroke-width: 1.5;" width="458" x="438.5" y="1421.5942"/><text fill="#000000" font-family="sans-serif" font-size="12" lengthAdjust="spacingAndGlyphs" textLength="438" x="448.5" y="1442.7329">root = SuffixEntry::checkword(word,(in_compound?0:onlyincompound))</text><rect fill="#C0C0C0" filter="url(#fm35gjbvfjenu)" height="33.9688" rx="12.5" ry="12.5" style="stroke: #A80036; stroke-width: 1.5;" width="217" x="559" y="1523.9653"/><text fill="#000000" font-family="sans-serif" font-size="12" lengthAdjust="spacingAndGlyphs" textLength="197" x="569" y="1545.104">set compound helper sfx, sfxflag</text><polygon fill="#FEFECE" filter="url(#fm35gjbvfjenu)" points="482.5,1577.9341,852.5,1577.9341,864.5,1597.1411,852.5,1616.3481,482.5,1616.3481,470.5,1597.1411,482.5,1577.9341" style="stroke: #A80036; stroke-width: 1.5;"/><text fill="#000000" font-family="sans-serif" font-size="11" lengthAdjust="spacingAndGlyphs" textLength="0" x="486.5" y="1588.1445"/><text fill="#000000" font-family="sans-serif" font-size="11" lengthAdjust="spacingAndGlyphs" textLength="370" x="482.5" y="1600.9492">the suffix entry under consideration has no continuation classes?</text><text fill="#000000" font-family="sans-serif" font-size="11" lengthAdjust="spacingAndGlyphs" textLength="20" x="450.5" y="1594.5469">yes</text><text fill="#000000" font-family="sans-serif" font-size="11" lengthAdjust="spacingAndGlyphs" textLength="14" x="864.5" y="1594.5469">no</text><rect fill="#C0C0C0" filter="url(#fm35gjbvfjenu)" height="33.9688" rx="12.5" ry="12.5" style="stroke: #A80036; stroke-width: 1.5;" width="359" x="281" y="1626.3481"/><text fill="#000000" font-family="sans-serif" font-size="12" lengthAdjust="spacingAndGlyphs" textLength="339" x="291" y="1647.4868">set compound helper sfxappend to SuffixEntry.getKey()</text><rect fill="#EE82EE" filter="url(#fm35gjbvfjenu)" height="33.9688" rx="12.5" ry="12.5" style="stroke: #A80036; stroke-width: 1.5;" width="201" x="774" y="1674.7505"/><text fill="#000000" font-family="sans-serif" font-size="12" lengthAdjust="spacingAndGlyphs" textLength="181" x="784" y="1695.8892">set compound helper sfxextra</text><polygon fill="#FEFECE" filter="url(#fm35gjbvfjenu)" points="765.5,1626.3481,983.5,1626.3481,995.5,1638.3481,983.5,1650.3481,765.5,1650.3481,753.5,1638.3481,765.5,1626.3481" style="stroke: #A80036; stroke-width: 1.5;"/><text fill="#000000" font-family="sans-serif" font-size="11" lengthAdjust="spacingAndGlyphs" textLength="20" x="878.5" y="1660.5586">yes</text><text fill="#000000" font-family="sans-serif" font-size="11" lengthAdjust="spacingAndGlyphs" textLength="218" x="765.5" y="1642.1563">TODO: SOME HUNGARIAN CONDITION?</text><text fill="#000000" font-family="sans-serif" font-size="11" lengthAdjust="spacingAndGlyphs" textLength="14" x="995.5" y="1635.7539">no</text><polygon fill="#FEFECE" filter="url(#fm35gjbvfjenu)" points="874.5,1728.7192,886.5,1740.7192,874.5,1752.7192,862.5,1740.7192,874.5,1728.7192" style="stroke: #A80036; stroke-width: 1.5;"/><polygon fill="#FEFECE" filter="url(#fm35gjbvfjenu)" points="667.5,1758.7192,679.5,1770.7192,667.5,1782.7192,655.5,1770.7192,667.5,1758.7192" style="stroke: #A80036; stroke-width: 1.5;"/><rect fill="#FEFECE" filter="url(#fm35gjbvfjenu)" height="33.9688" rx="12.5" ry="12.5" style="stroke: #A80036; stroke-width: 1.5;" width="86" x="624.5" y="1802.7192"/><text fill="#000000" font-family="sans-serif" font-size="12" lengthAdjust="spacingAndGlyphs" textLength="66" x="634.5" y="1823.8579">return root</text><ellipse cx="667.5" cy="1866.688" fill="none" filter="url(#fm35gjbvfjenu)" rx="10" ry="10" style="stroke: #000000; stroke-width: 1.0;"/><ellipse cx="668" cy="1867.188" fill="#000000" filter="url(#fm35gjbvfjenu)" rx="6" ry="6" style="stroke: none; stroke-width: 1.0;"/><polygon fill="#FEFECE" filter="url(#fm35gjbvfjenu)" points="653,1475.563,682,1475.563,694,1487.563,682,1499.563,653,1499.563,641,1487.563,653,1475.563" style="stroke: #A80036; stroke-width: 1.5;"/><text fill="#000000" font-family="sans-serif" font-size="11" lengthAdjust="spacingAndGlyphs" textLength="20" x="671.5" y="1509.7734">yes</text><text fill="#000000" font-family="sans-serif" font-size="11" lengthAdjust="spacingAndGlyphs" textLength="29" x="653" y="1491.3711">root?</text><text fill="#000000" font-family="sans-serif" font-size="11" lengthAdjust="spacingAndGlyphs" textLength="14" x="694" y="1484.9688">no</text><polygon fill="#FEFECE" filter="url(#fm35gjbvfjenu)" points="366,1307.5591,969,1307.5591,981,1352.3755,969,1397.1919,366,1397.1919,354,1352.3755,366,1307.5591" style="stroke: #A80036; stroke-width: 1.5;"/><text fill="#000000" font-family="sans-serif" font-size="11" lengthAdjust="spacingAndGlyphs" textLength="20" x="671.5" y="1407.4023">yes</text><text fill="#000000" font-family="sans-serif" font-size="11" lengthAdjust="spacingAndGlyphs" textLength="0" x="370" y="1317.7695"/><text fill="#000000" font-family="sans-serif" font-size="11" lengthAdjust="spacingAndGlyphs" textLength="396" x="366" y="1330.5742">this method was not called from compounding related to the end part</text><text fill="#000000" font-family="sans-serif" font-size="11" lengthAdjust="spacingAndGlyphs" textLength="17" x="366" y="1343.3789">OR</text><text fill="#000000" font-family="sans-serif" font-size="11" lengthAdjust="spacingAndGlyphs" textLength="147" x="366" y="1356.1836">prefix entry was provided</text><text fill="#000000" font-family="sans-serif" font-size="11" lengthAdjust="spacingAndGlyphs" textLength="17" x="366" y="1368.9883">OR</text><text fill="#000000" font-family="sans-serif" font-size="11" lengthAdjust="spacingAndGlyphs" textLength="603" x="366" y="1381.793">continuation classes of the suffix entry under consideration does not contain generic onlyincompound flag</text><text fill="#000000" font-family="sans-serif" font-size="11" lengthAdjust="spacingAndGlyphs" textLength="14" x="981" y="1349.7813">no</text><polygon fill="#FEFECE" filter="url(#fm35gjbvfjenu)" points="667.5,1918.688,679.5,1930.688,667.5,1942.688,655.5,1930.688,667.5,1918.688" style="stroke: #A80036; stroke-width: 1.5;"/><polygon fill="#FEFECE" filter="url(#fm35gjbvfjenu)" points="583.5,1259.1567,751.5,1259.1567,763.5,1271.1567,751.5,1283.1567,583.5,1283.1567,571.5,1271.1567,583.5,1259.1567" style="stroke: #A80036; stroke-width: 1.5;"/><text fill="#000000" font-family="sans-serif" font-size="11" lengthAdjust="spacingAndGlyphs" textLength="20" x="671.5" y="1293.3672">yes</text><text fill="#000000" font-family="sans-serif" font-size="11" lengthAdjust="spacingAndGlyphs" textLength="168" x="583.5" y="1274.9648">SAME CONDITIONS AS ABOVE</text><text fill="#000000" font-family="sans-serif" font-size="11" lengthAdjust="spacingAndGlyphs" textLength="14" x="763.5" y="1268.5625">no</text><polygon fill="#FEFECE" filter="url(#fm35gjbvfjenu)" points="667.5,1962.688,679.5,1974.688,667.5,1986.688,655.5,1974.688,667.5,1962.688" style="stroke: #A80036; stroke-width: 1.5;"/><polygon fill="#FEFECE" filter="url(#fm35gjbvfjenu)" points="542.5,1196.3403,792.5,1196.3403,804.5,1215.5474,792.5,1234.7544,542.5,1234.7544,530.5,1215.5474,542.5,1196.3403" style="stroke: #A80036; stroke-width: 1.5;"/><text fill="#000000" font-family="sans-serif" font-size="11" lengthAdjust="spacingAndGlyphs" textLength="20" x="671.5" y="1244.9648">yes</text><text fill="#000000" font-family="sans-serif" font-size="11" lengthAdjust="spacingAndGlyphs" textLength="0" x="546.5" y="1206.5508"/><text fill="#000000" font-family="sans-serif" font-size="11" lengthAdjust="spacingAndGlyphs" textLength="250" x="542.5" y="1219.3555">is SuffixEntry.getKey() a revsubset of word?</text><text fill="#000000" font-family="sans-serif" font-size="11" lengthAdjust="spacingAndGlyphs" textLength="14" x="804.5" y="1212.9531">no</text><polygon fill="#FEFECE" filter="url(#fm35gjbvfjenu)" points="667.5,2006.688,679.5,2018.688,667.5,2030.688,655.5,2018.688,667.5,2006.688" style="stroke: #A80036; stroke-width: 1.5;"/><polygon fill="#FEFECE" filter="url(#fm35gjbvfjenu)" points="575.5,1135.5356,759.5,1135.5356,771.5,1147.5356,759.5,1159.5356,575.5,1159.5356,563.5,1147.5356,575.5,1135.5356" style="stroke: #A80036; stroke-width: 1.5;"/><text fill="#000000" font-family="sans-serif" font-size="11" lengthAdjust="spacingAndGlyphs" textLength="20" x="671.5" y="1169.7461">yes</text><text fill="#000000" font-family="sans-serif" font-size="11" lengthAdjust="spacingAndGlyphs" textLength="184" x="575.5" y="1151.3438">iterate non-zero-length suffixes?</text><text fill="#000000" font-family="sans-serif" font-size="11" lengthAdjust="spacingAndGlyphs" textLength="14" x="549.5" y="1144.9414">no</text><ellipse cx="24" cy="1193.5356" fill="none" filter="url(#fm35gjbvfjenu)" rx="10" ry="10" style="stroke: #000000; stroke-width: 1.0;"/><ellipse cx="24.5" cy="1194.0356" fill="#000000" filter="url(#fm35gjbvfjenu)" rx="6" ry="6" style="stroke: none; stroke-width: 1.0;"/><line style="stroke: #A80036; stroke-width: 1.5;" x1="667.5" x2="667.5" y1="110.5586" y2="141.6919"/><polygon fill="#A80036" points="663.5,131.6919,667.5,141.6919,671.5,131.6919,667.5,135.6919" style="stroke: #A80036; stroke-width: 1.0;"/><line style="stroke: #A80036; stroke-width: 1.5;" x1="667.5" x2="667.5" y1="756.6328" y2="776.6328"/><polygon fill="#A80036" points="663.5,766.6328,667.5,776.6328,671.5,766.6328,667.5,770.6328" style="stroke: #A80036; stroke-width: 1.0;"/><line style="stroke: #A80036; stroke-width: 1.5;" x1="667.5" x2="667.5" y1="810.6016" y2="830.6016"/><polygon fill="#A80036" points="663.5,820.6016,667.5,830.6016,671.5,820.6016,667.5,824.6016" style="stroke: #A80036; stroke-width: 1.0;"/><line style="stroke: #A80036; stroke-width: 1.5;" x1="667.5" x2="667.5" y1="698.2617" y2="722.6641"/><polygon fill="#A80036" points="663.5,712.6641,667.5,722.6641,671.5,712.6641,667.5,716.6641" style="stroke: #A80036; stroke-width: 1.0;"/><line style="stroke: #A80036; stroke-width: 1.5;" x1="694" x2="762.5" y1="686.2617" y2="686.2617"/><polygon fill="#A80036" points="758.5,773.6328,762.5,783.6328,766.5,773.6328,762.5,777.6328" style="stroke: #A80036; stroke-width: 1.5;"/><line style="stroke: #A80036; stroke-width: 1.5;" x1="762.5" x2="762.5" y1="686.2617" y2="872.6016"/><line style="stroke: #A80036; stroke-width: 1.5;" x1="762.5" x2="667.5" y1="872.6016" y2="872.6016"/><line style="stroke: #A80036; stroke-width: 1.5;" x1="667.5" x2="667.5" y1="872.6016" y2="892.6016"/><polygon fill="#A80036" points="663.5,882.6016,667.5,892.6016,671.5,882.6016,667.5,886.6016" style="stroke: #A80036; stroke-width: 1.0;"/><line style="stroke: #A80036; stroke-width: 1.5;" x1="667.5" x2="667.5" y1="654.2617" y2="674.2617"/><polygon fill="#A80036" points="663.5,664.2617,667.5,674.2617,671.5,664.2617,667.5,668.2617" style="stroke: #A80036; stroke-width: 1.0;"/><line style="stroke: #A80036; stroke-width: 1.5;" x1="667.5" x2="667.5" y1="595.8906" y2="620.293"/><polygon fill="#A80036" points="663.5,610.293,667.5,620.293,671.5,610.293,667.5,614.293" style="stroke: #A80036; stroke-width: 1.0;"/><line style="stroke: #A80036; stroke-width: 1.5;" x1="1067" x2="1079" y1="467.8438" y2="467.8438"/><polygon fill="#A80036" points="1075,690.125,1079,700.125,1083,690.125,1079,694.125" style="stroke: #A80036; stroke-width: 1.5;"/><line style="stroke: #A80036; stroke-width: 1.5;" x1="1079" x2="1079" y1="467.8438" y2="904.6016"/><line style="stroke: #A80036; stroke-width: 1.5;" x1="1079" x2="679.5" y1="904.6016" y2="904.6016"/><polygon fill="#A80036" points="689.5,900.6016,679.5,904.6016,689.5,908.6016,685.5,904.6016" style="stroke: #A80036; stroke-width: 1.0;"/><line style="stroke: #A80036; stroke-width: 1.5;" x1="667.5" x2="667.5" y1="315.3945" y2="339.7969"/><polygon fill="#A80036" points="663.5,329.7969,667.5,339.7969,671.5,329.7969,667.5,333.7969" style="stroke: #A80036; stroke-width: 1.0;"/><line style="stroke: #A80036; stroke-width: 1.5;" x1="852.5" x2="1089" y1="283.3828" y2="283.3828"/><polygon fill="#A80036" points="1085,637.0957,1089,647.0957,1093,637.0957,1089,641.0957" style="stroke: #A80036; stroke-width: 1.5;"/><line style="stroke: #A80036; stroke-width: 1.5;" x1="1089" x2="1089" y1="283.3828" y2="948.6016"/><line style="stroke: #A80036; stroke-width: 1.5;" x1="1089" x2="679.5" y1="948.6016" y2="948.6016"/><polygon fill="#A80036" points="689.5,944.6016,679.5,948.6016,689.5,952.6016,685.5,948.6016" style="stroke: #A80036; stroke-width: 1.0;"/><line style="stroke: #A80036; stroke-width: 1.5;" x1="667.5" x2="667.5" y1="916.6016" y2="936.6016"/><polygon fill="#A80036" points="663.5,926.6016,667.5,936.6016,671.5,926.6016,667.5,930.6016" style="stroke: #A80036; stroke-width: 1.0;"/><line style="stroke: #A80036; stroke-width: 1.5;" x1="667.5" x2="667.5" y1="219.6606" y2="251.3711"/><polygon fill="#A80036" points="663.5,241.3711,667.5,251.3711,671.5,241.3711,667.5,245.3711" style="stroke: #A80036; stroke-width: 1.0;"/><line style="stroke: #A80036; stroke-width: 1.5;" x1="667.5" x2="667.5" y1="960.6016" y2="970.6016"/><line style="stroke: #A80036; stroke-width: 1.5;" x1="667.5" x2="1113" y1="970.6016" y2="970.6016"/><polygon fill="#A80036" points="1109,628.6875,1113,618.6875,1117,628.6875,1113,624.6875" style="stroke: #A80036; stroke-width: 1.5;"/><line style="stroke: #A80036; stroke-width: 1.5;" x1="1113" x2="1113" y1="207.6606" y2="970.6016"/><line style="stroke: #A80036; stroke-width: 1.5;" x1="1113" x2="759" y1="207.6606" y2="207.6606"/><polygon fill="#A80036" points="769,203.6606,759,207.6606,769,211.6606,765,207.6606" style="stroke: #A80036; stroke-width: 1.0;"/><line style="stroke: #A80036; stroke-width: 1.5;" x1="576" x2="246" y1="207.6606" y2="207.6606"/><polygon fill="#A80036" points="242,614.6875,246,624.6875,250,614.6875,246,618.6875" style="stroke: #A80036; stroke-width: 1.5;"/><line style="stroke: #A80036; stroke-width: 1.5;" x1="246" x2="246" y1="207.6606" y2="982.6016"/><line style="stroke: #A80036; stroke-width: 1.5;" x1="246" x2="667.5" y1="982.6016" y2="982.6016"/><line style="stroke: #A80036; stroke-width: 1.5;" x1="667.5" x2="667.5" y1="982.6016" y2="1002.6016"/><polygon fill="#A80036" points="663.5,992.6016,667.5,1002.6016,671.5,992.6016,667.5,996.6016" style="stroke: #A80036; stroke-width: 1.0;"/><line style="stroke: #A80036; stroke-width: 1.5;" x1="667.5" x2="667.5" y1="175.6606" y2="195.6606"/><polygon fill="#A80036" points="663.5,185.6606,667.5,195.6606,671.5,185.6606,667.5,189.6606" style="stroke: #A80036; stroke-width: 1.0;"/><line style="stroke: #A80036; stroke-width: 1.5;" x1="667.5" x2="667.5" y1="1026.6016" y2="1069.8516"/><polygon fill="#A80036" points="663.5,1059.8516,667.5,1069.8516,671.5,1059.8516,667.5,1063.8516" style="stroke: #A80036; stroke-width: 1.0;"/><line style="stroke: #A80036; stroke-width: 1.5;" x1="765.5" x2="795.5" y1="1014.6016" y2="1014.6016"/><polygon fill="#A80036" points="785.5,1010.6016,795.5,1014.6016,785.5,1018.6016,789.5,1014.6016" style="stroke: #A80036; stroke-width: 1.0;"/><line style="stroke: #A80036; stroke-width: 1.5;" x1="874.5" x2="874.5" y1="1650.3481" y2="1674.7505"/><polygon fill="#A80036" points="870.5,1664.7505,874.5,1674.7505,878.5,1664.7505,874.5,1668.7505" style="stroke: #A80036; stroke-width: 1.0;"/><line style="stroke: #A80036; stroke-width: 1.5;" x1="995.5" x2="1007.5" y1="1638.3481" y2="1638.3481"/><polygon fill="#A80036" points="1003.5,1681.7349,1007.5,1691.7349,1011.5,1681.7349,1007.5,1685.7349" style="stroke: #A80036; stroke-width: 1.5;"/><line style="stroke: #A80036; stroke-width: 1.5;" x1="1007.5" x2="1007.5" y1="1638.3481" y2="1740.7192"/><line style="stroke: #A80036; stroke-width: 1.5;" x1="1007.5" x2="886.5" y1="1740.7192" y2="1740.7192"/><polygon fill="#A80036" points="896.5,1736.7192,886.5,1740.7192,896.5,1744.7192,892.5,1740.7192" style="stroke: #A80036; stroke-width: 1.0;"/><line style="stroke: #A80036; stroke-width: 1.5;" x1="874.5" x2="874.5" y1="1708.7192" y2="1728.7192"/><polygon fill="#A80036" points="870.5,1718.7192,874.5,1728.7192,878.5,1718.7192,874.5,1722.7192" style="stroke: #A80036; stroke-width: 1.0;"/><line style="stroke: #A80036; stroke-width: 1.5;" x1="470.5" x2="460.5" y1="1597.1411" y2="1597.1411"/><line style="stroke: #A80036; stroke-width: 1.5;" x1="460.5" x2="460.5" y1="1597.1411" y2="1626.3481"/><polygon fill="#A80036" points="456.5,1616.3481,460.5,1626.3481,464.5,1616.3481,460.5,1620.3481" style="stroke: #A80036; stroke-width: 1.0;"/><line style="stroke: #A80036; stroke-width: 1.5;" x1="864.5" x2="874.5" y1="1597.1411" y2="1597.1411"/><line style="stroke: #A80036; stroke-width: 1.5;" x1="874.5" x2="874.5" y1="1597.1411" y2="1626.3481"/><polygon fill="#A80036" points="870.5,1616.3481,874.5,1626.3481,878.5,1616.3481,874.5,1620.3481" style="stroke: #A80036; stroke-width: 1.0;"/><line style="stroke: #A80036; stroke-width: 1.5;" x1="460.5" x2="460.5" y1="1660.3169" y2="1770.7192"/><line style="stroke: #A80036; stroke-width: 1.5;" x1="460.5" x2="655.5" y1="1770.7192" y2="1770.7192"/><polygon fill="#A80036" points="645.5,1766.7192,655.5,1770.7192,645.5,1774.7192,649.5,1770.7192" style="stroke: #A80036; stroke-width: 1.0;"/><line style="stroke: #A80036; stroke-width: 1.5;" x1="874.5" x2="874.5" y1="1752.7192" y2="1770.7192"/><line style="stroke: #A80036; stroke-width: 1.5;" x1="874.5" x2="679.5" y1="1770.7192" y2="1770.7192"/><polygon fill="#A80036" points="689.5,1766.7192,679.5,1770.7192,689.5,1774.7192,685.5,1770.7192" style="stroke: #A80036; stroke-width: 1.0;"/><line style="stroke: #A80036; stroke-width: 1.5;" x1="667.5" x2="667.5" y1="1557.9341" y2="1577.9341"/><polygon fill="#A80036" points="663.5,1567.9341,667.5,1577.9341,671.5,1567.9341,667.5,1571.9341" style="stroke: #A80036; stroke-width: 1.0;"/><line style="stroke: #A80036; stroke-width: 1.5;" x1="667.5" x2="667.5" y1="1782.7192" y2="1802.7192"/><polygon fill="#A80036" points="663.5,1792.7192,667.5,1802.7192,671.5,1792.7192,667.5,1796.7192" style="stroke: #A80036; stroke-width: 1.0;"/><line style="stroke: #A80036; stroke-width: 1.5;" x1="667.5" x2="667.5" y1="1836.688" y2="1856.688"/><polygon fill="#A80036" points="663.5,1846.688,667.5,1856.688,671.5,1846.688,667.5,1850.688" style="stroke: #A80036; stroke-width: 1.0;"/><line style="stroke: #A80036; stroke-width: 1.5;" x1="667.5" x2="667.5" y1="1499.563" y2="1523.9653"/><polygon fill="#A80036" points="663.5,1513.9653,667.5,1523.9653,671.5,1513.9653,667.5,1517.9653" style="stroke: #A80036; stroke-width: 1.0;"/><line style="stroke: #A80036; stroke-width: 1.5;" x1="694" x2="1027.5" y1="1487.563" y2="1487.563"/><polygon fill="#A80036" points="1023.5,1697.0278,1027.5,1707.0278,1031.5,1697.0278,1027.5,1701.0278" style="stroke: #A80036; stroke-width: 1.5;"/><line style="stroke: #A80036; stroke-width: 1.5;" x1="1027.5" x2="1027.5" y1="1487.563" y2="1898.688"/><line style="stroke: #A80036; stroke-width: 1.5;" x1="1027.5" x2="667.5" y1="1898.688" y2="1898.688"/><line style="stroke: #A80036; stroke-width: 1.5;" x1="667.5" x2="667.5" y1="1898.688" y2="1918.688"/><polygon fill="#A80036" points="663.5,1908.688,667.5,1918.688,671.5,1908.688,667.5,1912.688" style="stroke: #A80036; stroke-width: 1.0;"/><line style="stroke: #A80036; stroke-width: 1.5;" x1="667.5" x2="667.5" y1="1455.563" y2="1475.563"/><polygon fill="#A80036" points="663.5,1465.563,667.5,1475.563,671.5,1465.563,667.5,1469.563" style="stroke: #A80036; stroke-width: 1.0;"/><line style="stroke: #A80036; stroke-width: 1.5;" x1="667.5" x2="667.5" y1="1397.1919" y2="1421.5942"/><polygon fill="#A80036" points="663.5,1411.5942,667.5,1421.5942,671.5,1411.5942,667.5,1415.5942" style="stroke: #A80036; stroke-width: 1.0;"/><line style="stroke: #A80036; stroke-width: 1.5;" x1="981" x2="1049.5" y1="1352.3755" y2="1352.3755"/><polygon fill="#A80036" points="1045.5,1640.1353,1049.5,1650.1353,1053.5,1640.1353,1049.5,1644.1353" style="stroke: #A80036; stroke-width: 1.5;"/><line style="stroke: #A80036; stroke-width: 1.5;" x1="1049.5" x2="1049.5" y1="1352.3755" y2="1930.688"/><line style="stroke: #A80036; stroke-width: 1.5;" x1="1049.5" x2="679.5" y1="1930.688" y2="1930.688"/><polygon fill="#A80036" points="689.5,1926.688,679.5,1930.688,689.5,1934.688,685.5,1930.688" style="stroke: #A80036; stroke-width: 1.0;"/><line style="stroke: #A80036; stroke-width: 1.5;" x1="667.5" x2="667.5" y1="1283.1567" y2="1307.5591"/><polygon fill="#A80036" points="663.5,1297.5591,667.5,1307.5591,671.5,1297.5591,667.5,1301.5591" style="stroke: #A80036; stroke-width: 1.0;"/><line style="stroke: #A80036; stroke-width: 1.5;" x1="763.5" x2="1071.5" y1="1271.1567" y2="1271.1567"/><polygon fill="#A80036" points="1067.5,1623.7271,1071.5,1633.7271,1075.5,1623.7271,1071.5,1627.7271" style="stroke: #A80036; stroke-width: 1.5;"/><line style="stroke: #A80036; stroke-width: 1.5;" x1="1071.5" x2="1071.5" y1="1271.1567" y2="1974.688"/><line style="stroke: #A80036; stroke-width: 1.5;" x1="1071.5" x2="679.5" y1="1974.688" y2="1974.688"/><polygon fill="#A80036" points="689.5,1970.688,679.5,1974.688,689.5,1978.688,685.5,1974.688" style="stroke: #A80036; stroke-width: 1.0;"/><line style="stroke: #A80036; stroke-width: 1.5;" x1="667.5" x2="667.5" y1="1942.688" y2="1962.688"/><polygon fill="#A80036" points="663.5,1952.688,667.5,1962.688,671.5,1952.688,667.5,1956.688" style="stroke: #A80036; stroke-width: 1.0;"/><line style="stroke: #A80036; stroke-width: 1.5;" x1="667.5" x2="667.5" y1="1234.7544" y2="1259.1567"/><polygon fill="#A80036" points="663.5,1249.1567,667.5,1259.1567,671.5,1249.1567,667.5,1253.1567" style="stroke: #A80036; stroke-width: 1.0;"/><line style="stroke: #A80036; stroke-width: 1.5;" x1="804.5" x2="1093.5" y1="1215.5474" y2="1215.5474"/><polygon fill="#A80036" points="1089.5,1620.1235,1093.5,1630.1235,1097.5,1620.1235,1093.5,1624.1235" style="stroke: #A80036; stroke-width: 1.5;"/><line style="stroke: #A80036; stroke-width: 1.5;" x1="1093.5" x2="1093.5" y1="1215.5474" y2="2018.688"/><line style="stroke: #A80036; stroke-width: 1.5;" x1="1093.5" x2="679.5" y1="2018.688" y2="2018.688"/><polygon fill="#A80036" points="689.5,2014.688,679.5,2018.688,689.5,2022.688,685.5,2018.688" style="stroke: #A80036; stroke-width: 1.0;"/><line style="stroke: #A80036; stroke-width: 1.5;" x1="667.5" x2="667.5" y1="1986.688" y2="2006.688"/><polygon fill="#A80036" points="663.5,1996.688,667.5,2006.688,671.5,1996.688,667.5,2000.688" style="stroke: #A80036; stroke-width: 1.0;"/><line style="stroke: #A80036; stroke-width: 1.5;" x1="667.5" x2="667.5" y1="1159.5356" y2="1196.3403"/><polygon fill="#A80036" points="663.5,1186.3403,667.5,1196.3403,671.5,1186.3403,667.5,1190.3403" style="stroke: #A80036; stroke-width: 1.0;"/><line style="stroke: #A80036; stroke-width: 1.5;" x1="667.5" x2="667.5" y1="2030.688" y2="2040.688"/><line style="stroke: #A80036; stroke-width: 1.5;" x1="667.5" x2="1117.5" y1="2040.688" y2="2040.688"/><polygon fill="#A80036" points="1113.5,1618.1177,1117.5,1608.1177,1121.5,1618.1177,1117.5,1614.1177" style="stroke: #A80036; stroke-width: 1.5;"/><line style="stroke: #A80036; stroke-width: 1.5;" x1="1117.5" x2="1117.5" y1="1147.5356" y2="2040.688"/><line style="stroke: #A80036; stroke-width: 1.5;" x1="1117.5" x2="771.5" y1="1147.5356" y2="1147.5356"/><polygon fill="#A80036" points="781.5,1143.5356,771.5,1147.5356,781.5,1151.5356,777.5,1147.5356" style="stroke: #A80036; stroke-width: 1.0;"/><line style="stroke: #A80036; stroke-width: 1.5;" x1="563.5" x2="24" y1="1147.5356" y2="1147.5356"/><line style="stroke: #A80036; stroke-width: 1.5;" x1="24" x2="24" y1="1147.5356" y2="1183.5356"/><polygon fill="#A80036" points="20,1173.5356,24,1183.5356,28,1173.5356,24,1177.5356" style="stroke: #A80036; stroke-width: 1.0;"/><line style="stroke: #A80036; stroke-width: 1.5;" x1="667.5" x2="667.5" y1="1103.8203" y2="1135.5356"/><polygon fill="#A80036" points="663.5,1125.5356,667.5,1135.5356,671.5,1125.5356,667.5,1129.5356" style="stroke: #A80036; stroke-width: 1.0;"/><!--
@startuml
skinparam backgroundcolor White|White

title Hunspell - AffixMgr::suffix_check(word)\n"check word for suffixes"\n

start
floating note: When called from affix_check(word) default is\nalways used for in_compound, needflag, sfxopts, ppfx, cclass.\nReturn NULL is implied.

#silver:do not reset any compound helpers;
while (iterate zero-length suffixes?) is (yes)
	if (
no continuation classes are provided to this method
OR
the suffix entry under consideration has continuation classes
	) then (yes)
		if (
    1.a this method was not called from compounding related to the beginning part "suffixes are not allowed in beginning of compounds"
    OR
    1.b continuation classes of the suffix entry under consideration does contain generic compoundpermitflag flag
AND
    2.a there is no generic circumfix flag
    OR
    2.b continuation classes of the provided prefix entry and suffix entry under consideration do not contain generic circumfix flag
    OR
    2.c continuation classes of the provided prefix entry and suffix entry under consideration do both contain generic circumfix flag	
AND
    3 the continuation classes of the suffix entry under consideration does not contain generic onlyincompound flag "fogemorpheme"
AND
    "needaffix on prefix or first suffix"
    4.a continuation class is provided to this method
    OR
    4.b continuation classes of the provided prefix entry does not contain generic needaffix flag
    OR
    4.c continuation classes of the suffix entry under consideration does not contain generic needaffix flag
		) then (yes)
			#tomato:root = SuffixEntry::checkword(word,(in_compound?0:onlyincompound));
			if (root?) then (yes)
				#silver:set compound helper sfx;
				:return root;
				stop
			else (no)
			endif
		else (no)
		endif
	else (no)
	endif
endwhile (no)

if (length of word is 0? "full strip") then (yes)
	floating note: TODO Figure out what triggers this
	stop
else (no)
endif

:iterator starts at (word + len - 1) instead of (word);
floating note: TODO Figure out\nwhat this does,\nprobably to skip\nunimportant part
while (iterate non-zero-length suffixes?) is (yes)
	if (
is SuffixEntry.getKey() a revsubset of word?
	) then (yes)
		floating note: getKey() returns rappnd\nbeing reverse append,\nrevsubset is tested with\nAffixMgr::isRevSubset
		if (SAME CONDITIONS AS ABOVE) then (yes)
			if (
this method was not called from compounding related to the end part
OR
prefix entry was provided
OR
continuation classes of the suffix entry under consideration does not contain generic onlyincompound flag
			) then (yes)
				#tomato:root = SuffixEntry::checkword(word,(in_compound?0:onlyincompound));
				if (root?) then (yes)
					#silver:set compound helper sfx, sfxflag;
					if (
the suffix entry under consideration has no continuation classes?
					) then (yes)
						#silver:set compound helper sfxappend to SuffixEntry.getKey();
					else (no)
						if (TODO: SOME HUNGARIAN CONDITION?) then (yes)
							#violet:set compound helper sfxextra;
						else (no)
						endif
					endif
					:return root;
					stop
				else (no)
				endif
			else (no)
			endif
		else (no)
		endif
	else (no)
	endif
endwhile (no)

stop

@enduml

PlantUML version 1.2018.01(Sun Jan 28 19:08:22 CET 2018)
(GPL source distribution)
Java Runtime: OpenJDK Runtime Environment
JVM: OpenJDK 64-Bit Server VM
Java Version: 1.8.0_151-8u151-b12-0ubuntu0.17.10.2-b12
Operating System: Linux
OS Version: 4.13.0-36-generic
Default Encoding: UTF-8
Language: en
Country: US
--></g></svg>