<?xml version="1.0" encoding="UTF-8" standalone="no"?><svg xmlns="http://www.w3.org/2000/svg" xmlns:xlink="http://www.w3.org/1999/xlink" contentScriptType="application/ecmascript" contentStyleType="text/css" height="1761px" preserveAspectRatio="none" style="width:1246px;height:1761px;" version="1.1" viewBox="0 0 1246 1761" width="1246px" zoomAndPan="magnify"><defs><linearGradient id="g18a4900gsforw0" x1="0%" x2="100%" y1="50%" y2="50%"><stop offset="0%" stop-color="#FFFFFF"/><stop offset="100%" stop-color="#FFFFFF"/></linearGradient><filter height="300%" id="f18a4900gsforw" width="300%" x="-1" y="-1"><feGaussianBlur result="blurOut" stdDeviation="2.0"/><feColorMatrix in="blurOut" result="blurOut2" type="matrix" values="0 0 0 0 0 0 0 0 0 0 0 0 0 0 0 0 0 0 .4 0"/><feOffset dx="4.0" dy="4.0" in="blurOut2" result="blurOut3"/><feBlend in="SourceGraphic" in2="blurOut3" mode="normal"/></filter></defs><g><rect fill="url(#g18a4900gsforw0)" height="1761" style="stroke: none; stroke-width: 1.0;" width="1246" x="0" y="0"/><text fill="#000000" font-family="sans-serif" font-size="18" lengthAdjust="spacingAndGlyphs" textLength="417" x="413.75" y="26.708">Hunspell - AffixMgr::suffix_check_twosfx(word)</text><text fill="#000000" font-family="sans-serif" font-size="18" lengthAdjust="spacingAndGlyphs" textLength="311" x="466.75" y="47.6611">"check word for two-level suffixes"</text><text fill="#000000" font-family="sans-serif" font-size="18" lengthAdjust="spacingAndGlyphs" textLength="0" x="625.25" y="68.6143"/><path d="M425,72.8594 L425,113.125 L745,113.125 L745,82.8594 L735,72.8594 L425,72.8594 " fill="#FBFB77" filter="url(#f18a4900gsforw)" style="stroke: #A80036; stroke-width: 1.0;"/><path d="M735,72.8594 L735,82.8594 L745,82.8594 L735,72.8594 " fill="#FBFB77" style="stroke: #A80036; stroke-width: 1.0;"/><text fill="#000000" font-family="sans-serif" font-size="13" lengthAdjust="spacingAndGlyphs" textLength="299" x="431" y="89.9263">when called from affix_check(word) default is</text><text fill="#000000" font-family="sans-serif" font-size="13" lengthAdjust="spacingAndGlyphs" textLength="291" x="431" y="105.0591">always used for in_compound, needflag, etc.</text><ellipse cx="775" cy="92.9922" fill="#000000" filter="url(#f18a4900gsforw)" rx="10" ry="10" style="stroke: none; stroke-width: 1.0;"/><rect fill="#C0C0C0" filter="url(#f18a4900gsforw)" height="33.9688" rx="12.5" ry="12.5" style="stroke: #A80036; stroke-width: 1.5;" width="241" x="654.5" y="126.5591"/><text fill="#000000" font-family="sans-serif" font-size="12" lengthAdjust="spacingAndGlyphs" textLength="221" x="664.5" y="147.6978">do not reset any compound pointers</text><rect fill="#FF6347" filter="url(#f18a4900gsforw)" height="33.9688" rx="12.5" ry="12.5" style="stroke: #A80036; stroke-width: 1.5;" width="458" x="546" y="605.1602"/><text fill="#000000" font-family="sans-serif" font-size="12" lengthAdjust="spacingAndGlyphs" textLength="438" x="556" y="626.2988">root = SuffixEntry::checkword(word,(in_compound?0:onlyincompound))</text><rect fill="#C0C0C0" filter="url(#f18a4900gsforw)" height="33.9688" rx="12.5" ry="12.5" style="stroke: #A80036; stroke-width: 1.5;" width="170" x="690" y="707.5313"/><text fill="#000000" font-family="sans-serif" font-size="12" lengthAdjust="spacingAndGlyphs" textLength="150" x="700" y="728.6699">set compound helper sfx</text><rect fill="#FEFECE" filter="url(#f18a4900gsforw)" height="33.9688" rx="12.5" ry="12.5" style="stroke: #A80036; stroke-width: 1.5;" width="86" x="732" y="761.5"/><text fill="#000000" font-family="sans-serif" font-size="12" lengthAdjust="spacingAndGlyphs" textLength="66" x="742" y="782.6387">return root</text><ellipse cx="775" cy="825.4688" fill="none" filter="url(#f18a4900gsforw)" rx="10" ry="10" style="stroke: #000000; stroke-width: 1.0;"/><ellipse cx="775.5" cy="825.9688" fill="#000000" filter="url(#f18a4900gsforw)" rx="6" ry="6" style="stroke: none; stroke-width: 1.0;"/><polygon fill="#FEFECE" filter="url(#f18a4900gsforw)" points="760.5,659.1289,789.5,659.1289,801.5,671.1289,789.5,683.1289,760.5,683.1289,748.5,671.1289,760.5,659.1289" style="stroke: #A80036; stroke-width: 1.5;"/><text fill="#000000" font-family="sans-serif" font-size="11" lengthAdjust="spacingAndGlyphs" textLength="20" x="779" y="693.3394">yes</text><text fill="#000000" font-family="sans-serif" font-size="11" lengthAdjust="spacingAndGlyphs" textLength="29" x="760.5" y="674.937">root?</text><text fill="#000000" font-family="sans-serif" font-size="11" lengthAdjust="spacingAndGlyphs" textLength="14" x="801.5" y="668.5347">no</text><polygon fill="#FEFECE" filter="url(#f18a4900gsforw)" points="387.5,324.6641,1162.5,324.6641,1174.5,452.7109,1162.5,580.7578,387.5,580.7578,375.5,452.7109,387.5,324.6641" style="stroke: #A80036; stroke-width: 1.5;"/><text fill="#000000" font-family="sans-serif" font-size="11" lengthAdjust="spacingAndGlyphs" textLength="20" x="779" y="590.9683">yes</text><text fill="#000000" font-family="sans-serif" font-size="11" lengthAdjust="spacingAndGlyphs" textLength="0" x="391.5" y="334.8745"/><text fill="#000000" font-family="sans-serif" font-size="11" lengthAdjust="spacingAndGlyphs" textLength="759" x="403.5" y="347.6792">1.a this method was not called from compounding related to the beginning part "suffixes are not allowed in beginning of compounds"</text><text fill="#000000" font-family="sans-serif" font-size="11" lengthAdjust="spacingAndGlyphs" textLength="17" x="403.5" y="360.4839">OR</text><text fill="#000000" font-family="sans-serif" font-size="11" lengthAdjust="spacingAndGlyphs" textLength="627" x="403.5" y="373.2886">1.b continuation classes of the suffix entry under consideration does contain generic compoundpermitflag flag</text><text fill="#000000" font-family="sans-serif" font-size="11" lengthAdjust="spacingAndGlyphs" textLength="24" x="387.5" y="386.0933">AND</text><text fill="#000000" font-family="sans-serif" font-size="11" lengthAdjust="spacingAndGlyphs" textLength="210" x="403.5" y="398.8979">2.a there is no generic circumfix flag</text><text fill="#000000" font-family="sans-serif" font-size="11" lengthAdjust="spacingAndGlyphs" textLength="17" x="403.5" y="411.7026">OR</text><text fill="#000000" font-family="sans-serif" font-size="11" lengthAdjust="spacingAndGlyphs" textLength="721" x="403.5" y="424.5073">2.b continuation classes of the provided prefix entry and suffix entry under consideration do not contain generic circumfix flag</text><text fill="#000000" font-family="sans-serif" font-size="11" lengthAdjust="spacingAndGlyphs" textLength="17" x="403.5" y="437.312">OR</text><text fill="#000000" font-family="sans-serif" font-size="11" lengthAdjust="spacingAndGlyphs" textLength="727" x="403.5" y="450.1167">2.c continuation classes of the provided prefix entry and suffix entry under consideration do both contain generic circumfix flag</text><text fill="#000000" font-family="sans-serif" font-size="11" lengthAdjust="spacingAndGlyphs" textLength="24" x="387.5" y="462.9214">AND</text><text fill="#000000" font-family="sans-serif" font-size="11" lengthAdjust="spacingAndGlyphs" textLength="737" x="403.5" y="475.7261">3 the continuation classes of the suffix entry under consideration does not contain generic onlyincompound flag "fogemorpheme"</text><text fill="#000000" font-family="sans-serif" font-size="11" lengthAdjust="spacingAndGlyphs" textLength="24" x="387.5" y="488.5308">AND</text><text fill="#000000" font-family="sans-serif" font-size="11" lengthAdjust="spacingAndGlyphs" textLength="195" x="403.5" y="501.3354">"needaffix on prefix or first suffix"</text><text fill="#000000" font-family="sans-serif" font-size="11" lengthAdjust="spacingAndGlyphs" textLength="299" x="403.5" y="514.1401">4.a continuation classes are provided to this method</text><text fill="#000000" font-family="sans-serif" font-size="11" lengthAdjust="spacingAndGlyphs" textLength="17" x="403.5" y="526.9448">OR</text><text fill="#000000" font-family="sans-serif" font-size="11" lengthAdjust="spacingAndGlyphs" textLength="524" x="403.5" y="539.7495">4.b continuation classes of the provided prefix entry does not contain generic needaffix flag</text><text fill="#000000" font-family="sans-serif" font-size="11" lengthAdjust="spacingAndGlyphs" textLength="17" x="403.5" y="552.5542">OR</text><text fill="#000000" font-family="sans-serif" font-size="11" lengthAdjust="spacingAndGlyphs" textLength="584" x="403.5" y="565.3589">4.c continuation classes of the suffix entry under consideration does not contain generic needaffix flag</text><text fill="#000000" font-family="sans-serif" font-size="11" lengthAdjust="spacingAndGlyphs" textLength="14" x="1174.5" y="450.1167">no</text><polygon fill="#FEFECE" filter="url(#f18a4900gsforw)" points="775,877.4688,787,889.4688,775,901.4688,763,889.4688,775,877.4688" style="stroke: #A80036; stroke-width: 1.5;"/><polygon fill="#FEFECE" filter="url(#f18a4900gsforw)" points="602,236.2383,948,236.2383,960,268.25,948,300.2617,602,300.2617,590,268.25,602,236.2383" style="stroke: #A80036; stroke-width: 1.5;"/><text fill="#000000" font-family="sans-serif" font-size="11" lengthAdjust="spacingAndGlyphs" textLength="20" x="779" y="310.4722">yes</text><text fill="#000000" font-family="sans-serif" font-size="11" lengthAdjust="spacingAndGlyphs" textLength="0" x="606" y="246.4487"/><text fill="#000000" font-family="sans-serif" font-size="11" lengthAdjust="spacingAndGlyphs" textLength="295" x="602" y="259.2534">no continuation classes are provided to this method</text><text fill="#000000" font-family="sans-serif" font-size="11" lengthAdjust="spacingAndGlyphs" textLength="17" x="602" y="272.0581">OR</text><text fill="#000000" font-family="sans-serif" font-size="11" lengthAdjust="spacingAndGlyphs" textLength="346" x="602" y="284.8628">the suffix entry under consideration has continuation classes</text><text fill="#000000" font-family="sans-serif" font-size="11" lengthAdjust="spacingAndGlyphs" textLength="14" x="960" y="265.6558">no</text><polygon fill="#FEFECE" filter="url(#f18a4900gsforw)" points="775,921.4688,787,933.4688,775,945.4688,763,933.4688,775,921.4688" style="stroke: #A80036; stroke-width: 1.5;"/><polygon fill="#FEFECE" filter="url(#f18a4900gsforw)" points="695.5,180.5278,854.5,180.5278,866.5,192.5278,854.5,204.5278,695.5,204.5278,683.5,192.5278,695.5,180.5278" style="stroke: #A80036; stroke-width: 1.5;"/><text fill="#000000" font-family="sans-serif" font-size="11" lengthAdjust="spacingAndGlyphs" textLength="20" x="779" y="214.7383">yes</text><text fill="#000000" font-family="sans-serif" font-size="11" lengthAdjust="spacingAndGlyphs" textLength="159" x="695.5" y="196.3359">iterate zero-length suffixes?</text><text fill="#000000" font-family="sans-serif" font-size="11" lengthAdjust="spacingAndGlyphs" textLength="14" x="669.5" y="189.9336">no</text><rect fill="#FEFECE" filter="url(#f18a4900gsforw)" height="33.9688" rx="12.5" ry="12.5" style="stroke: #A80036; stroke-width: 1.5;" width="94" x="728" y="1035.8711"/><text fill="#000000" font-family="sans-serif" font-size="12" lengthAdjust="spacingAndGlyphs" textLength="74" x="738" y="1057.0098">return NULL</text><polygon fill="#FEFECE" filter="url(#f18a4900gsforw)" points="689,987.4688,861,987.4688,873,999.4688,861,1011.4688,689,1011.4688,677,999.4688,689,987.4688" style="stroke: #A80036; stroke-width: 1.5;"/><text fill="#000000" font-family="sans-serif" font-size="11" lengthAdjust="spacingAndGlyphs" textLength="20" x="779" y="1021.6792">yes</text><text fill="#000000" font-family="sans-serif" font-size="11" lengthAdjust="spacingAndGlyphs" textLength="172" x="689" y="1003.2769">length of word is 0? "full strip"</text><text fill="#000000" font-family="sans-serif" font-size="11" lengthAdjust="spacingAndGlyphs" textLength="14" x="873" y="996.8745">no</text><polygon fill="#FEFECE" filter="url(#f18a4900gsforw)" points="775,1089.8398,787,1101.8398,775,1113.8398,763,1101.8398,775,1089.8398" style="stroke: #A80036; stroke-width: 1.5;"/><rect fill="#FEFECE" filter="url(#f18a4900gsforw)" height="33.9688" rx="12.5" ry="12.5" style="stroke: #A80036; stroke-width: 1.5;" width="433" x="558.5" y="1133.8398"/><text fill="#000000" font-family="sans-serif" font-size="12" lengthAdjust="spacingAndGlyphs" textLength="413" x="568.5" y="1154.9785">TODO unsigned char sp = *((const unsigned char*)(word + len - 1))</text><path d="M36,1408.4292 L36,1478.9604 L213,1478.9604 L213,1418.4292 L203,1408.4292 L36,1408.4292 " fill="#FBFB77" filter="url(#f18a4900gsforw)" style="stroke: #A80036; stroke-width: 1.0;"/><path d="M203,1408.4292 L203,1418.4292 L213,1418.4292 L203,1408.4292 " fill="#FBFB77" style="stroke: #A80036; stroke-width: 1.0;"/><text fill="#000000" font-family="sans-serif" font-size="13" lengthAdjust="spacingAndGlyphs" textLength="155" x="42" y="1425.4961">getKey() returns rappnd</text><text fill="#000000" font-family="sans-serif" font-size="13" lengthAdjust="spacingAndGlyphs" textLength="145" x="42" y="1440.6289">being reverse append,</text><text fill="#000000" font-family="sans-serif" font-size="13" lengthAdjust="spacingAndGlyphs" textLength="156" x="42" y="1455.7617">revsubset is tested with</text><text fill="#000000" font-family="sans-serif" font-size="13" lengthAdjust="spacingAndGlyphs" textLength="143" x="42" y="1470.8945">AffixMgr::isRevSubset</text><rect fill="#FF6347" filter="url(#f18a4900gsforw)" height="33.9688" rx="12.5" ry="12.5" style="stroke: #A80036; stroke-width: 1.5;" width="458" x="546" y="1340.3237"/><text fill="#000000" font-family="sans-serif" font-size="12" lengthAdjust="spacingAndGlyphs" textLength="438" x="556" y="1361.4624">root = SuffixEntry::checkword(word,(in_compound?0:onlyincompound))</text><path d="M253,1465.6128 L253,1490.7456 L702,1490.7456 L702,1475.6128 L692,1465.6128 L253,1465.6128 " fill="#FBFB77" filter="url(#f18a4900gsforw)" style="stroke: #A80036; stroke-width: 1.0;"/><path d="M692,1465.6128 L692,1475.6128 L702,1475.6128 L692,1465.6128 " fill="#FBFB77" style="stroke: #A80036; stroke-width: 1.0;"/><text fill="#000000" font-family="sans-serif" font-size="13" lengthAdjust="spacingAndGlyphs" textLength="428" x="259" y="1482.6797">sfxappnd is the previous suffix for counting syllables of the suffix</text><rect fill="#FEFECE" filter="url(#f18a4900gsforw)" height="33.9688" rx="12.5" ry="12.5" style="stroke: #A80036; stroke-width: 1.5;" width="86" x="732" y="1442.6948"/><text fill="#000000" font-family="sans-serif" font-size="12" lengthAdjust="spacingAndGlyphs" textLength="66" x="742" y="1463.8335">return root</text><ellipse cx="775" cy="1514.1797" fill="none" filter="url(#f18a4900gsforw)" rx="10" ry="10" style="stroke: #000000; stroke-width: 1.0;"/><ellipse cx="775.5" cy="1514.6797" fill="#000000" filter="url(#f18a4900gsforw)" rx="6" ry="6" style="stroke: none; stroke-width: 1.0;"/><polygon fill="#FEFECE" filter="url(#f18a4900gsforw)" points="760.5,1394.2925,789.5,1394.2925,801.5,1406.2925,789.5,1418.2925,760.5,1418.2925,748.5,1406.2925,760.5,1394.2925" style="stroke: #A80036; stroke-width: 1.5;"/><text fill="#000000" font-family="sans-serif" font-size="11" lengthAdjust="spacingAndGlyphs" textLength="20" x="779" y="1428.5029">yes</text><text fill="#000000" font-family="sans-serif" font-size="11" lengthAdjust="spacingAndGlyphs" textLength="29" x="760.5" y="1410.1006">root?</text><text fill="#000000" font-family="sans-serif" font-size="11" lengthAdjust="spacingAndGlyphs" textLength="14" x="801.5" y="1403.6982">no</text><polygon fill="#FEFECE" filter="url(#f18a4900gsforw)" points="691,1291.9214,859,1291.9214,871,1303.9214,859,1315.9214,691,1315.9214,679,1303.9214,691,1291.9214" style="stroke: #A80036; stroke-width: 1.5;"/><text fill="#000000" font-family="sans-serif" font-size="11" lengthAdjust="spacingAndGlyphs" textLength="20" x="779" y="1326.1318">yes</text><text fill="#000000" font-family="sans-serif" font-size="11" lengthAdjust="spacingAndGlyphs" textLength="168" x="691" y="1307.7295">SAME CONDITIONS AS ABOVE</text><text fill="#000000" font-family="sans-serif" font-size="11" lengthAdjust="spacingAndGlyphs" textLength="14" x="871" y="1301.3271">no</text><polygon fill="#FEFECE" filter="url(#f18a4900gsforw)" points="775,1566.1797,787,1578.1797,775,1590.1797,763,1578.1797,775,1566.1797" style="stroke: #A80036; stroke-width: 1.5;"/><polygon fill="#FEFECE" filter="url(#f18a4900gsforw)" points="650,1243.519,900,1243.519,912,1255.519,900,1267.519,650,1267.519,638,1255.519,650,1243.519" style="stroke: #A80036; stroke-width: 1.5;"/><text fill="#000000" font-family="sans-serif" font-size="11" lengthAdjust="spacingAndGlyphs" textLength="20" x="779" y="1277.7295">yes</text><text fill="#000000" font-family="sans-serif" font-size="11" lengthAdjust="spacingAndGlyphs" textLength="250" x="650" y="1259.3271">is SuffixEntry.getKey() a revsubset of word?</text><text fill="#000000" font-family="sans-serif" font-size="11" lengthAdjust="spacingAndGlyphs" textLength="14" x="912" y="1252.9248">no</text><polygon fill="#FEFECE" filter="url(#f18a4900gsforw)" points="775,1610.1797,787,1622.1797,775,1634.1797,763,1622.1797,775,1610.1797" style="stroke: #A80036; stroke-width: 1.5;"/><polygon fill="#FEFECE" filter="url(#f18a4900gsforw)" points="683,1187.8086,867,1187.8086,879,1199.8086,867,1211.8086,683,1211.8086,671,1199.8086,683,1187.8086" style="stroke: #A80036; stroke-width: 1.5;"/><text fill="#000000" font-family="sans-serif" font-size="11" lengthAdjust="spacingAndGlyphs" textLength="20" x="779" y="1222.019">yes</text><text fill="#000000" font-family="sans-serif" font-size="11" lengthAdjust="spacingAndGlyphs" textLength="184" x="683" y="1203.6167">iterate non-zero-length suffixes?</text><text fill="#000000" font-family="sans-serif" font-size="11" lengthAdjust="spacingAndGlyphs" textLength="14" x="657" y="1197.2144">no</text><rect fill="#FEFECE" filter="url(#f18a4900gsforw)" height="33.9688" rx="12.5" ry="12.5" style="stroke: #A80036; stroke-width: 1.5;" width="94" x="728" y="1676.1797"/><text fill="#000000" font-family="sans-serif" font-size="12" lengthAdjust="spacingAndGlyphs" textLength="74" x="738" y="1697.3184">return NULL</text><ellipse cx="775" cy="1740.1484" fill="none" filter="url(#f18a4900gsforw)" rx="10" ry="10" style="stroke: #000000; stroke-width: 1.0;"/><ellipse cx="775.5" cy="1740.6484" fill="#000000" filter="url(#f18a4900gsforw)" rx="6" ry="6" style="stroke: none; stroke-width: 1.0;"/><line style="stroke: #A80036; stroke-width: 1.5;" x1="775" x2="775" y1="102.9922" y2="126.5591"/><polygon fill="#A80036" points="771,116.5591,775,126.5591,779,116.5591,775,120.5591" style="stroke: #A80036; stroke-width: 1.0;"/><line style="stroke: #A80036; stroke-width: 1.5;" x1="775" x2="775" y1="741.5" y2="761.5"/><polygon fill="#A80036" points="771,751.5,775,761.5,779,751.5,775,755.5" style="stroke: #A80036; stroke-width: 1.0;"/><line style="stroke: #A80036; stroke-width: 1.5;" x1="775" x2="775" y1="795.4688" y2="815.4688"/><polygon fill="#A80036" points="771,805.4688,775,815.4688,779,805.4688,775,809.4688" style="stroke: #A80036; stroke-width: 1.0;"/><line style="stroke: #A80036; stroke-width: 1.5;" x1="775" x2="775" y1="683.1289" y2="707.5313"/><polygon fill="#A80036" points="771,697.5313,775,707.5313,779,697.5313,775,701.5313" style="stroke: #A80036; stroke-width: 1.0;"/><line style="stroke: #A80036; stroke-width: 1.5;" x1="801.5" x2="870" y1="671.1289" y2="671.1289"/><polygon fill="#A80036" points="866,758.5,870,768.5,874,758.5,870,762.5" style="stroke: #A80036; stroke-width: 1.5;"/><line style="stroke: #A80036; stroke-width: 1.5;" x1="870" x2="870" y1="671.1289" y2="857.4688"/><line style="stroke: #A80036; stroke-width: 1.5;" x1="870" x2="775" y1="857.4688" y2="857.4688"/><line style="stroke: #A80036; stroke-width: 1.5;" x1="775" x2="775" y1="857.4688" y2="877.4688"/><polygon fill="#A80036" points="771,867.4688,775,877.4688,779,867.4688,775,871.4688" style="stroke: #A80036; stroke-width: 1.0;"/><line style="stroke: #A80036; stroke-width: 1.5;" x1="775" x2="775" y1="639.1289" y2="659.1289"/><polygon fill="#A80036" points="771,649.1289,775,659.1289,779,649.1289,775,653.1289" style="stroke: #A80036; stroke-width: 1.0;"/><line style="stroke: #A80036; stroke-width: 1.5;" x1="775" x2="775" y1="580.7578" y2="605.1602"/><polygon fill="#A80036" points="771,595.1602,775,605.1602,779,595.1602,775,599.1602" style="stroke: #A80036; stroke-width: 1.0;"/><line style="stroke: #A80036; stroke-width: 1.5;" x1="1174.5" x2="1186.5" y1="452.7109" y2="452.7109"/><polygon fill="#A80036" points="1182.5,674.9922,1186.5,684.9922,1190.5,674.9922,1186.5,678.9922" style="stroke: #A80036; stroke-width: 1.5;"/><line style="stroke: #A80036; stroke-width: 1.5;" x1="1186.5" x2="1186.5" y1="452.7109" y2="889.4688"/><line style="stroke: #A80036; stroke-width: 1.5;" x1="1186.5" x2="787" y1="889.4688" y2="889.4688"/><polygon fill="#A80036" points="797,885.4688,787,889.4688,797,893.4688,793,889.4688" style="stroke: #A80036; stroke-width: 1.0;"/><line style="stroke: #A80036; stroke-width: 1.5;" x1="775" x2="775" y1="300.2617" y2="324.6641"/><polygon fill="#A80036" points="771,314.6641,775,324.6641,779,314.6641,775,318.6641" style="stroke: #A80036; stroke-width: 1.0;"/><line style="stroke: #A80036; stroke-width: 1.5;" x1="960" x2="1196.5" y1="268.25" y2="268.25"/><polygon fill="#A80036" points="1192.5,621.9629,1196.5,631.9629,1200.5,621.9629,1196.5,625.9629" style="stroke: #A80036; stroke-width: 1.5;"/><line style="stroke: #A80036; stroke-width: 1.5;" x1="1196.5" x2="1196.5" y1="268.25" y2="933.4688"/><line style="stroke: #A80036; stroke-width: 1.5;" x1="1196.5" x2="787" y1="933.4688" y2="933.4688"/><polygon fill="#A80036" points="797,929.4688,787,933.4688,797,937.4688,793,933.4688" style="stroke: #A80036; stroke-width: 1.0;"/><line style="stroke: #A80036; stroke-width: 1.5;" x1="775" x2="775" y1="901.4688" y2="921.4688"/><polygon fill="#A80036" points="771,911.4688,775,921.4688,779,911.4688,775,915.4688" style="stroke: #A80036; stroke-width: 1.0;"/><line style="stroke: #A80036; stroke-width: 1.5;" x1="775" x2="775" y1="204.5278" y2="236.2383"/><polygon fill="#A80036" points="771,226.2383,775,236.2383,779,226.2383,775,230.2383" style="stroke: #A80036; stroke-width: 1.0;"/><line style="stroke: #A80036; stroke-width: 1.5;" x1="775" x2="775" y1="945.4688" y2="955.4688"/><line style="stroke: #A80036; stroke-width: 1.5;" x1="775" x2="1220.5" y1="955.4688" y2="955.4688"/><polygon fill="#A80036" points="1216.5,613.5547,1220.5,603.5547,1224.5,613.5547,1220.5,609.5547" style="stroke: #A80036; stroke-width: 1.5;"/><line style="stroke: #A80036; stroke-width: 1.5;" x1="1220.5" x2="1220.5" y1="192.5278" y2="955.4688"/><line style="stroke: #A80036; stroke-width: 1.5;" x1="1220.5" x2="866.5" y1="192.5278" y2="192.5278"/><polygon fill="#A80036" points="876.5,188.5278,866.5,192.5278,876.5,196.5278,872.5,192.5278" style="stroke: #A80036; stroke-width: 1.0;"/><line style="stroke: #A80036; stroke-width: 1.5;" x1="683.5" x2="353.5" y1="192.5278" y2="192.5278"/><polygon fill="#A80036" points="349.5,599.5547,353.5,609.5547,357.5,599.5547,353.5,603.5547" style="stroke: #A80036; stroke-width: 1.5;"/><line style="stroke: #A80036; stroke-width: 1.5;" x1="353.5" x2="353.5" y1="192.5278" y2="967.4688"/><line style="stroke: #A80036; stroke-width: 1.5;" x1="353.5" x2="775" y1="967.4688" y2="967.4688"/><line style="stroke: #A80036; stroke-width: 1.5;" x1="775" x2="775" y1="967.4688" y2="987.4688"/><polygon fill="#A80036" points="771,977.4688,775,987.4688,779,977.4688,775,981.4688" style="stroke: #A80036; stroke-width: 1.0;"/><line style="stroke: #A80036; stroke-width: 1.5;" x1="775" x2="775" y1="160.5278" y2="180.5278"/><polygon fill="#A80036" points="771,170.5278,775,180.5278,779,170.5278,775,174.5278" style="stroke: #A80036; stroke-width: 1.0;"/><line style="stroke: #A80036; stroke-width: 1.5;" x1="775" x2="775" y1="1011.4688" y2="1035.8711"/><polygon fill="#A80036" points="771,1025.8711,775,1035.8711,779,1025.8711,775,1029.8711" style="stroke: #A80036; stroke-width: 1.0;"/><line style="stroke: #A80036; stroke-width: 1.5;" x1="873" x2="885" y1="999.4688" y2="999.4688"/><polygon fill="#A80036" points="881,1042.8555,885,1052.8555,889,1042.8555,885,1046.8555" style="stroke: #A80036; stroke-width: 1.5;"/><line style="stroke: #A80036; stroke-width: 1.5;" x1="885" x2="885" y1="999.4688" y2="1101.8398"/><line style="stroke: #A80036; stroke-width: 1.5;" x1="885" x2="787" y1="1101.8398" y2="1101.8398"/><polygon fill="#A80036" points="797,1097.8398,787,1101.8398,797,1105.8398,793,1101.8398" style="stroke: #A80036; stroke-width: 1.0;"/><line style="stroke: #A80036; stroke-width: 1.5;" x1="775" x2="775" y1="1069.8398" y2="1089.8398"/><polygon fill="#A80036" points="771,1079.8398,775,1089.8398,779,1079.8398,775,1083.8398" style="stroke: #A80036; stroke-width: 1.0;"/><line style="stroke: #A80036; stroke-width: 1.5;" x1="775" x2="775" y1="1113.8398" y2="1133.8398"/><polygon fill="#A80036" points="771,1123.8398,775,1133.8398,779,1123.8398,775,1127.8398" style="stroke: #A80036; stroke-width: 1.0;"/><line style="stroke: #A80036; stroke-width: 1.5;" x1="775" x2="775" y1="1476.6636" y2="1504.1797"/><polygon fill="#A80036" points="771,1494.1797,775,1504.1797,779,1494.1797,775,1498.1797" style="stroke: #A80036; stroke-width: 1.0;"/><line style="stroke: #A80036; stroke-width: 1.5;" x1="775" x2="775" y1="1418.2925" y2="1442.6948"/><polygon fill="#A80036" points="771,1432.6948,775,1442.6948,779,1432.6948,775,1436.6948" style="stroke: #A80036; stroke-width: 1.0;"/><line style="stroke: #A80036; stroke-width: 1.5;" x1="801.5" x2="828" y1="1406.2925" y2="1406.2925"/><polygon fill="#A80036" points="824,1474.1792,828,1484.1792,832,1474.1792,828,1478.1792" style="stroke: #A80036; stroke-width: 1.5;"/><line style="stroke: #A80036; stroke-width: 1.5;" x1="828" x2="828" y1="1406.2925" y2="1546.1797"/><line style="stroke: #A80036; stroke-width: 1.5;" x1="828" x2="775" y1="1546.1797" y2="1546.1797"/><line style="stroke: #A80036; stroke-width: 1.5;" x1="775" x2="775" y1="1546.1797" y2="1566.1797"/><polygon fill="#A80036" points="771,1556.1797,775,1566.1797,779,1556.1797,775,1560.1797" style="stroke: #A80036; stroke-width: 1.0;"/><line style="stroke: #A80036; stroke-width: 1.5;" x1="775" x2="775" y1="1374.2925" y2="1394.2925"/><polygon fill="#A80036" points="771,1384.2925,775,1394.2925,779,1384.2925,775,1388.2925" style="stroke: #A80036; stroke-width: 1.0;"/><line style="stroke: #A80036; stroke-width: 1.5;" x1="775" x2="775" y1="1315.9214" y2="1340.3237"/><polygon fill="#A80036" points="771,1330.3237,775,1340.3237,779,1330.3237,775,1334.3237" style="stroke: #A80036; stroke-width: 1.0;"/><line style="stroke: #A80036; stroke-width: 1.5;" x1="871" x2="1014" y1="1303.9214" y2="1303.9214"/><polygon fill="#A80036" points="1010,1433.6948,1014,1443.6948,1018,1433.6948,1014,1437.6948" style="stroke: #A80036; stroke-width: 1.5;"/><line style="stroke: #A80036; stroke-width: 1.5;" x1="1014" x2="1014" y1="1303.9214" y2="1578.1797"/><line style="stroke: #A80036; stroke-width: 1.5;" x1="1014" x2="787" y1="1578.1797" y2="1578.1797"/><polygon fill="#A80036" points="797,1574.1797,787,1578.1797,797,1582.1797,793,1578.1797" style="stroke: #A80036; stroke-width: 1.0;"/><line style="stroke: #A80036; stroke-width: 1.5;" x1="775" x2="775" y1="1267.519" y2="1291.9214"/><polygon fill="#A80036" points="771,1281.9214,775,1291.9214,779,1281.9214,775,1285.9214" style="stroke: #A80036; stroke-width: 1.0;"/><line style="stroke: #A80036; stroke-width: 1.5;" x1="912" x2="1036" y1="1255.519" y2="1255.519"/><polygon fill="#A80036" points="1032,1433.6948,1036,1443.6948,1040,1433.6948,1036,1437.6948" style="stroke: #A80036; stroke-width: 1.5;"/><line style="stroke: #A80036; stroke-width: 1.5;" x1="1036" x2="1036" y1="1255.519" y2="1622.1797"/><line style="stroke: #A80036; stroke-width: 1.5;" x1="1036" x2="787" y1="1622.1797" y2="1622.1797"/><polygon fill="#A80036" points="797,1618.1797,787,1622.1797,797,1626.1797,793,1622.1797" style="stroke: #A80036; stroke-width: 1.0;"/><line style="stroke: #A80036; stroke-width: 1.5;" x1="775" x2="775" y1="1590.1797" y2="1610.1797"/><polygon fill="#A80036" points="771,1600.1797,775,1610.1797,779,1600.1797,775,1604.1797" style="stroke: #A80036; stroke-width: 1.0;"/><line style="stroke: #A80036; stroke-width: 1.5;" x1="775" x2="775" y1="1211.8086" y2="1243.519"/><polygon fill="#A80036" points="771,1233.519,775,1243.519,779,1233.519,775,1237.519" style="stroke: #A80036; stroke-width: 1.0;"/><line style="stroke: #A80036; stroke-width: 1.5;" x1="775" x2="775" y1="1634.1797" y2="1644.1797"/><line style="stroke: #A80036; stroke-width: 1.5;" x1="775" x2="1060" y1="1644.1797" y2="1644.1797"/><polygon fill="#A80036" points="1056,1435.2925,1060,1425.2925,1064,1435.2925,1060,1431.2925" style="stroke: #A80036; stroke-width: 1.5;"/><line style="stroke: #A80036; stroke-width: 1.5;" x1="1060" x2="1060" y1="1199.8086" y2="1644.1797"/><line style="stroke: #A80036; stroke-width: 1.5;" x1="1060" x2="879" y1="1199.8086" y2="1199.8086"/><polygon fill="#A80036" points="889,1195.8086,879,1199.8086,889,1203.8086,885,1199.8086" style="stroke: #A80036; stroke-width: 1.0;"/><line style="stroke: #A80036; stroke-width: 1.5;" x1="671" x2="24" y1="1199.8086" y2="1199.8086"/><polygon fill="#A80036" points="20,1421.2925,24,1431.2925,28,1421.2925,24,1425.2925" style="stroke: #A80036; stroke-width: 1.5;"/><line style="stroke: #A80036; stroke-width: 1.5;" x1="24" x2="24" y1="1199.8086" y2="1656.1797"/><line style="stroke: #A80036; stroke-width: 1.5;" x1="24" x2="775" y1="1656.1797" y2="1656.1797"/><line style="stroke: #A80036; stroke-width: 1.5;" x1="775" x2="775" y1="1656.1797" y2="1676.1797"/><polygon fill="#A80036" points="771,1666.1797,775,1676.1797,779,1666.1797,775,1670.1797" style="stroke: #A80036; stroke-width: 1.0;"/><line style="stroke: #A80036; stroke-width: 1.5;" x1="775" x2="775" y1="1167.8086" y2="1187.8086"/><polygon fill="#A80036" points="771,1177.8086,775,1187.8086,779,1177.8086,775,1181.8086" style="stroke: #A80036; stroke-width: 1.0;"/><line style="stroke: #A80036; stroke-width: 1.5;" x1="775" x2="775" y1="1710.1484" y2="1730.1484"/><polygon fill="#A80036" points="771,1720.1484,775,1730.1484,779,1720.1484,775,1724.1484" style="stroke: #A80036; stroke-width: 1.0;"/><!--
@startuml
skinparam backgroundcolor White|White

title Hunspell - AffixMgr::suffix_check_twosfx(word)\n"check word for two-level suffixes"\n

start
floating note: when called from affix_check(word) default is\nalways used for in_compound, needflag, etc.

#silver:do not reset any compound pointers;
while (iterate zero-length suffixes?) is (yes)
	if (
no continuation classes are provided to this method
OR
the suffix entry under consideration has continuation classes
	) then (yes)
		if (
    1.a this method was not called from compounding related to the beginning part "suffixes are not allowed in beginning of compounds"
    OR
    1.b continuation classes of the suffix entry under consideration does contain generic compoundpermitflag flag
AND
    2.a there is no generic circumfix flag
    OR
    2.b continuation classes of the provided prefix entry and suffix entry under consideration do not contain generic circumfix flag
    OR
    2.c continuation classes of the provided prefix entry and suffix entry under consideration do both contain generic circumfix flag	
AND
    3 the continuation classes of the suffix entry under consideration does not contain generic onlyincompound flag "fogemorpheme"
AND
    "needaffix on prefix or first suffix"
    4.a continuation classes are provided to this method
    OR
    4.b continuation classes of the provided prefix entry does not contain generic needaffix flag
    OR
    4.c continuation classes of the suffix entry under consideration does not contain generic needaffix flag
		) then (yes)
			#tomato:root = SuffixEntry::checkword(word,(in_compound?0:onlyincompound));
			if (root?) then (yes)
				#silver:set compound helper sfx;
				:return root;
				stop
			else (no)
			endif
		else (no)
		endif
	else (no)
	endif
endwhile (no)

if (length of word is 0? "full strip") then (yes)
	:return NULL;
else (no)
endif

:TODO unsigned char sp = *((const unsigned char*)(word + len - 1));
while (iterate non-zero-length suffixes?) is (yes)
	if (is SuffixEntry.getKey() a revsubset of word?) then (yes)
		floating note: getKey() returns rappnd\nbeing reverse append,\nrevsubset is tested with\nAffixMgr::isRevSubset
		if (SAME CONDITIONS AS ABOVE) then (yes)
			#tomato:root = SuffixEntry::checkword(word,(in_compound?0:onlyincompound));
			if (root?) then (yes)
				floating note: sfxappnd is the previous suffix for counting syllables of the suffix

				:return root;
				stop
			else (no)
			endif
		else (no)
		endif
	else (no)
	endif
endwhile (no)

:return NULL;
stop

@enduml

PlantUML version 1.2018.01(Sun Jan 28 19:08:22 CET 2018)
(GPL source distribution)
Java Runtime: OpenJDK Runtime Environment
JVM: OpenJDK 64-Bit Server VM
Java Version: 1.8.0_151-8u151-b12-0ubuntu0.17.10.2-b12
Operating System: Linux
OS Version: 4.13.0-36-generic
Default Encoding: UTF-8
Language: en
Country: US
--></g></svg>