<?xml version="1.0" encoding="UTF-8" standalone="no"?><svg xmlns="http://www.w3.org/2000/svg" xmlns:xlink="http://www.w3.org/1999/xlink" contentScriptType="application/ecmascript" contentStyleType="text/css" height="2087px" preserveAspectRatio="none" style="width:1144px;height:2087px;" version="1.1" viewBox="0 0 1144 2087" width="1144px" zoomAndPan="magnify"><defs><linearGradient id="gm35gjbvfjenu0" x1="0%" x2="100%" y1="50%" y2="50%"><stop offset="0%" stop-color="#FFFFFF"/><stop offset="100%" stop-color="#FFFFFF"/></linearGradient><filter height="300%" id="fm35gjbvfjenu" width="300%" x="-1" y="-1"><feGaussianBlur result="blurOut" stdDeviation="2.0"/><feColorMatrix in="blurOut" result="blurOut2" type="matrix" values="0 0 0 0 0 0 0 0 0 0 0 0 0 0 0 0 0 0 .4 0"/><feOffset dx="4.0" dy="4.0" in="blurOut2" result="blurOut3"/><feBlend in="SourceGraphic" in2="blurOut3" mode="normal"/></filter></defs><g><rect fill="url(#gm35gjbvfjenu0)" height="2087" style="stroke: none; stroke-width: 1.0;" width="1144" x="0" y="0"/><text fill="#000000" font-family="sans-serif" font-size="18" lengthAdjust="spacingAndGlyphs" textLength="348" x="397.25" y="26.708">Hunspell - AffixMgr::suffix_check(word)</text><text fill="#000000" font-family="sans-serif" font-size="18" lengthAdjust="spacingAndGlyphs" textLength="221" x="460.75" y="47.6611">"check word for suffixes"</text><text fill="#000000" font-family="sans-serif" font-size="18" lengthAdjust="spacingAndGlyphs" textLength="0" x="574.25" y="68.6143"/><path d="M228,72.8594 L228,128.2578 L640,128.2578 L640,82.8594 L630,72.8594 L228,72.8594 " fill="#FBFB77" filter="url(#fm35gjbvfjenu)" style="stroke: #A80036; stroke-width: 1.0;"/><path d="M630,72.8594 L630,82.8594 L640,82.8594 L630,72.8594 " fill="#FBFB77" style="stroke: #A80036; stroke-width: 1.0;"/><text fill="#000000" font-family="sans-serif" font-size="13" lengthAdjust="spacingAndGlyphs" textLength="286" x="234" y="89.9263">When called from affix_check(word) default is</text><text fill="#000000" font-family="sans-serif" font-size="13" lengthAdjust="spacingAndGlyphs" textLength="391" x="234" y="105.0591">always used for in_compound, needflag, sfxopts, ppfx, cclass.</text><text fill="#000000" font-family="sans-serif" font-size="13" lengthAdjust="spacingAndGlyphs" textLength="148" x="234" y="120.1919">Return NULL is implied.</text><ellipse cx="670" cy="100.5586" fill="#000000" filter="url(#fm35gjbvfjenu)" rx="10" ry="10" style="stroke: none; stroke-width: 1.0;"/><rect fill="#C0C0C0" filter="url(#fm35gjbvfjenu)" height="33.9688" rx="12.5" ry="12.5" style="stroke: #A80036; stroke-width: 1.5;" width="245" x="547.5" y="148.2578"/><text fill="#000000" font-family="sans-serif" font-size="12" lengthAdjust="spacingAndGlyphs" textLength="225" x="557.5" y="169.3965">do not reset any compound helpers</text><rect fill="#FF6347" filter="url(#fm35gjbvfjenu)" height="33.9688" rx="12.5" ry="12.5" style="stroke: #A80036; stroke-width: 1.5;" width="461" x="439.5" y="626.8589"/><text fill="#000000" font-family="sans-serif" font-size="12" lengthAdjust="spacingAndGlyphs" textLength="441" x="449.5" y="647.9976">root = SuffixEntry::checkword(word,(in_compound?0:onlyincompound))</text><rect fill="#C0C0C0" filter="url(#fm35gjbvfjenu)" height="33.9688" rx="12.5" ry="12.5" style="stroke: #A80036; stroke-width: 1.5;" width="175" x="582.5" y="729.23"/><text fill="#000000" font-family="sans-serif" font-size="12" lengthAdjust="spacingAndGlyphs" textLength="155" x="592.5" y="750.3687">set compound helper sfx</text><rect fill="#FEFECE" filter="url(#fm35gjbvfjenu)" height="33.9688" rx="12.5" ry="12.5" style="stroke: #A80036; stroke-width: 1.5;" width="89" x="625.5" y="783.1987"/><text fill="#000000" font-family="sans-serif" font-size="12" lengthAdjust="spacingAndGlyphs" textLength="69" x="635.5" y="804.3374">return root</text><ellipse cx="670" cy="847.1675" fill="none" filter="url(#fm35gjbvfjenu)" rx="10" ry="10" style="stroke: #000000; stroke-width: 1.0;"/><ellipse cx="670.5" cy="847.6675" fill="#000000" filter="url(#fm35gjbvfjenu)" rx="6" ry="6" style="stroke: none; stroke-width: 1.0;"/><polygon fill="#FEFECE" filter="url(#fm35gjbvfjenu)" points="655.5,680.8276,684.5,680.8276,696.5,692.8276,684.5,704.8276,655.5,704.8276,643.5,692.8276,655.5,680.8276" style="stroke: #A80036; stroke-width: 1.5;"/><text fill="#000000" font-family="sans-serif" font-size="11" lengthAdjust="spacingAndGlyphs" textLength="20" x="674" y="715.0381">yes</text><text fill="#000000" font-family="sans-serif" font-size="11" lengthAdjust="spacingAndGlyphs" textLength="29" x="655.5" y="696.6357">root?</text><text fill="#000000" font-family="sans-serif" font-size="11" lengthAdjust="spacingAndGlyphs" textLength="14" x="696.5" y="690.2334">no</text><polygon fill="#FEFECE" filter="url(#fm35gjbvfjenu)" points="280.5,346.3628,1059.5,346.3628,1071.5,474.4097,1059.5,602.4565,280.5,602.4565,268.5,474.4097,280.5,346.3628" style="stroke: #A80036; stroke-width: 1.5;"/><text fill="#000000" font-family="sans-serif" font-size="11" lengthAdjust="spacingAndGlyphs" textLength="20" x="674" y="612.667">yes</text><text fill="#000000" font-family="sans-serif" font-size="11" lengthAdjust="spacingAndGlyphs" textLength="0" x="284.5" y="356.5732"/><text fill="#000000" font-family="sans-serif" font-size="11" lengthAdjust="spacingAndGlyphs" textLength="763" x="296.5" y="369.3779">1.a this method was not called from compounding related to the beginning part "suffixes are not allowed in beginning of compounds"</text><text fill="#000000" font-family="sans-serif" font-size="11" lengthAdjust="spacingAndGlyphs" textLength="16" x="296.5" y="382.1826">OR</text><text fill="#000000" font-family="sans-serif" font-size="11" lengthAdjust="spacingAndGlyphs" textLength="631" x="296.5" y="394.9873">1.b continuation classes of the suffix entry under consideration does contain generic compoundpermitflag flag</text><text fill="#000000" font-family="sans-serif" font-size="11" lengthAdjust="spacingAndGlyphs" textLength="23" x="280.5" y="407.792">AND</text><text fill="#000000" font-family="sans-serif" font-size="11" lengthAdjust="spacingAndGlyphs" textLength="210" x="296.5" y="420.5967">2.a there is no generic circumfix flag</text><text fill="#000000" font-family="sans-serif" font-size="11" lengthAdjust="spacingAndGlyphs" textLength="16" x="296.5" y="433.4014">OR</text><text fill="#000000" font-family="sans-serif" font-size="11" lengthAdjust="spacingAndGlyphs" textLength="720" x="296.5" y="446.2061">2.b continuation classes of the provided prefix entry and suffix entry under consideration do not contain generic circumfix flag</text><text fill="#000000" font-family="sans-serif" font-size="11" lengthAdjust="spacingAndGlyphs" textLength="16" x="296.5" y="459.0107">OR</text><text fill="#000000" font-family="sans-serif" font-size="11" lengthAdjust="spacingAndGlyphs" textLength="726" x="296.5" y="471.8154">2.c continuation classes of the provided prefix entry and suffix entry under consideration do both contain generic circumfix flag</text><text fill="#000000" font-family="sans-serif" font-size="11" lengthAdjust="spacingAndGlyphs" textLength="23" x="280.5" y="484.6201">AND</text><text fill="#000000" font-family="sans-serif" font-size="11" lengthAdjust="spacingAndGlyphs" textLength="740" x="296.5" y="497.4248">3 the continuation classes of the suffix entry under consideration does not contain generic onlyincompound flag "fogemorpheme"</text><text fill="#000000" font-family="sans-serif" font-size="11" lengthAdjust="spacingAndGlyphs" textLength="23" x="280.5" y="510.2295">AND</text><text fill="#000000" font-family="sans-serif" font-size="11" lengthAdjust="spacingAndGlyphs" textLength="194" x="296.5" y="523.0342">"needaffix on prefix or first suffix"</text><text fill="#000000" font-family="sans-serif" font-size="11" lengthAdjust="spacingAndGlyphs" textLength="279" x="296.5" y="535.8389">4.a continuation class is provided to this method</text><text fill="#000000" font-family="sans-serif" font-size="11" lengthAdjust="spacingAndGlyphs" textLength="16" x="296.5" y="548.6436">OR</text><text fill="#000000" font-family="sans-serif" font-size="11" lengthAdjust="spacingAndGlyphs" textLength="524" x="296.5" y="561.4482">4.b continuation classes of the provided prefix entry does not contain generic needaffix flag</text><text fill="#000000" font-family="sans-serif" font-size="11" lengthAdjust="spacingAndGlyphs" textLength="16" x="296.5" y="574.2529">OR</text><text fill="#000000" font-family="sans-serif" font-size="11" lengthAdjust="spacingAndGlyphs" textLength="587" x="296.5" y="587.0576">4.c continuation classes of the suffix entry under consideration does not contain generic needaffix flag</text><text fill="#000000" font-family="sans-serif" font-size="11" lengthAdjust="spacingAndGlyphs" textLength="14" x="1071.5" y="471.8154">no</text><polygon fill="#FEFECE" filter="url(#fm35gjbvfjenu)" points="670,899.1675,682,911.1675,670,923.1675,658,911.1675,670,899.1675" style="stroke: #A80036; stroke-width: 1.5;"/><polygon fill="#FEFECE" filter="url(#fm35gjbvfjenu)" points="495,257.937,845,257.937,857,289.9487,845,321.9604,495,321.9604,483,289.9487,495,257.937" style="stroke: #A80036; stroke-width: 1.5;"/><text fill="#000000" font-family="sans-serif" font-size="11" lengthAdjust="spacingAndGlyphs" textLength="20" x="674" y="332.1709">yes</text><text fill="#000000" font-family="sans-serif" font-size="11" lengthAdjust="spacingAndGlyphs" textLength="0" x="499" y="268.1475"/><text fill="#000000" font-family="sans-serif" font-size="11" lengthAdjust="spacingAndGlyphs" textLength="298" x="495" y="280.9521">no continuation classes are provided to this method</text><text fill="#000000" font-family="sans-serif" font-size="11" lengthAdjust="spacingAndGlyphs" textLength="16" x="495" y="293.7568">OR</text><text fill="#000000" font-family="sans-serif" font-size="11" lengthAdjust="spacingAndGlyphs" textLength="350" x="495" y="306.5615">the suffix entry under consideration has continuation classes</text><text fill="#000000" font-family="sans-serif" font-size="11" lengthAdjust="spacingAndGlyphs" textLength="14" x="857" y="287.3545">no</text><polygon fill="#FEFECE" filter="url(#fm35gjbvfjenu)" points="670,943.1675,682,955.1675,670,967.1675,658,955.1675,670,943.1675" style="stroke: #A80036; stroke-width: 1.5;"/><polygon fill="#FEFECE" filter="url(#fm35gjbvfjenu)" points="590.5,202.2266,749.5,202.2266,761.5,214.2266,749.5,226.2266,590.5,226.2266,578.5,214.2266,590.5,202.2266" style="stroke: #A80036; stroke-width: 1.5;"/><text fill="#000000" font-family="sans-serif" font-size="11" lengthAdjust="spacingAndGlyphs" textLength="20" x="674" y="236.437">yes</text><text fill="#000000" font-family="sans-serif" font-size="11" lengthAdjust="spacingAndGlyphs" textLength="159" x="590.5" y="218.0347">iterate zero-length suffixes?</text><text fill="#000000" font-family="sans-serif" font-size="11" lengthAdjust="spacingAndGlyphs" textLength="14" x="564.5" y="211.6323">no</text><path d="M311,1033.0034 L311,1058.1362 L551,1058.1362 L551,1043.0034 L541,1033.0034 L311,1033.0034 " fill="#FBFB77" filter="url(#fm35gjbvfjenu)" style="stroke: #A80036; stroke-width: 1.0;"/><path d="M541,1033.0034 L541,1043.0034 L551,1043.0034 L541,1033.0034 " fill="#FBFB77" style="stroke: #A80036; stroke-width: 1.0;"/><text fill="#000000" font-family="sans-serif" font-size="13" lengthAdjust="spacingAndGlyphs" textLength="219" x="317" y="1050.0703">TODO Figure out what triggers this</text><polygon fill="#FEFECE" filter="url(#fm35gjbvfjenu)" points="583,1009.1675,757,1009.1675,769,1021.1675,757,1033.1675,583,1033.1675,571,1021.1675,583,1009.1675" style="stroke: #A80036; stroke-width: 1.5;"/><text fill="#000000" font-family="sans-serif" font-size="11" lengthAdjust="spacingAndGlyphs" textLength="14" x="674" y="1043.3779">no</text><text fill="#000000" font-family="sans-serif" font-size="11" lengthAdjust="spacingAndGlyphs" textLength="174" x="583" y="1024.9756">length of word is 0? "full strip"</text><text fill="#000000" font-family="sans-serif" font-size="11" lengthAdjust="spacingAndGlyphs" textLength="20" x="769" y="1018.5732">yes</text><ellipse cx="809" cy="1021.1675" fill="none" filter="url(#fm35gjbvfjenu)" rx="10" ry="10" style="stroke: #000000; stroke-width: 1.0;"/><ellipse cx="809.5" cy="1021.6675" fill="#000000" filter="url(#fm35gjbvfjenu)" rx="6" ry="6" style="stroke: none; stroke-width: 1.0;"/><path d="M351.5,1068.1362 L351.5,1138.6675 L481.5,1138.6675 L481.5,1078.1362 L471.5,1068.1362 L351.5,1068.1362 " fill="#FBFB77" filter="url(#fm35gjbvfjenu)" style="stroke: #A80036; stroke-width: 1.0;"/><path d="M471.5,1068.1362 L471.5,1078.1362 L481.5,1078.1362 L471.5,1068.1362 " fill="#FBFB77" style="stroke: #A80036; stroke-width: 1.0;"/><text fill="#000000" font-family="sans-serif" font-size="13" lengthAdjust="spacingAndGlyphs" textLength="105" x="357.5" y="1085.2031">TODO Figure out</text><text fill="#000000" font-family="sans-serif" font-size="13" lengthAdjust="spacingAndGlyphs" textLength="96" x="357.5" y="1100.3359">what this does,</text><text fill="#000000" font-family="sans-serif" font-size="13" lengthAdjust="spacingAndGlyphs" textLength="101" x="357.5" y="1115.4688">probably to skip</text><text fill="#000000" font-family="sans-serif" font-size="13" lengthAdjust="spacingAndGlyphs" textLength="109" x="357.5" y="1130.6016">unimportant part</text><rect fill="#FEFECE" filter="url(#fm35gjbvfjenu)" height="33.9688" rx="12.5" ry="12.5" style="stroke: #A80036; stroke-width: 1.5;" width="337" x="501.5" y="1086.4175"/><text fill="#000000" font-family="sans-serif" font-size="12" lengthAdjust="spacingAndGlyphs" textLength="317" x="511.5" y="1107.5562">iterator starts at (word + len - 1) instead of (word)</text><path d="M44,1614.3862 L44,1684.9175 L218,1684.9175 L218,1624.3862 L208,1614.3862 L44,1614.3862 " fill="#FBFB77" filter="url(#fm35gjbvfjenu)" style="stroke: #A80036; stroke-width: 1.0;"/><path d="M208,1614.3862 L208,1624.3862 L218,1624.3862 L208,1614.3862 " fill="#FBFB77" style="stroke: #A80036; stroke-width: 1.0;"/><text fill="#000000" font-family="sans-serif" font-size="13" lengthAdjust="spacingAndGlyphs" textLength="153" x="50" y="1631.4531">getKey() returns rappnd</text><text fill="#000000" font-family="sans-serif" font-size="13" lengthAdjust="spacingAndGlyphs" textLength="143" x="50" y="1646.5859">being reverse append,</text><text fill="#000000" font-family="sans-serif" font-size="13" lengthAdjust="spacingAndGlyphs" textLength="151" x="50" y="1661.7188">revsubset is tested with</text><text fill="#000000" font-family="sans-serif" font-size="13" lengthAdjust="spacingAndGlyphs" textLength="137" x="50" y="1676.8516">AffixMgr::isRevSubset</text><rect fill="#FF6347" filter="url(#fm35gjbvfjenu)" height="33.9688" rx="12.5" ry="12.5" style="stroke: #A80036; stroke-width: 1.5;" width="461" x="439.5" y="1444.7261"/><text fill="#000000" font-family="sans-serif" font-size="12" lengthAdjust="spacingAndGlyphs" textLength="441" x="449.5" y="1465.8647">root = SuffixEntry::checkword(word,(in_compound?0:onlyincompound))</text><rect fill="#C0C0C0" filter="url(#fm35gjbvfjenu)" height="33.9688" rx="12.5" ry="12.5" style="stroke: #A80036; stroke-width: 1.5;" width="223" x="558.5" y="1547.0972"/><text fill="#000000" font-family="sans-serif" font-size="12" lengthAdjust="spacingAndGlyphs" textLength="203" x="568.5" y="1568.2358">set compound helper sfx, sfxflag</text><polygon fill="#FEFECE" filter="url(#fm35gjbvfjenu)" points="483,1601.0659,857,1601.0659,869,1620.2729,857,1639.48,483,1639.48,471,1620.2729,483,1601.0659" style="stroke: #A80036; stroke-width: 1.5;"/><text fill="#000000" font-family="sans-serif" font-size="11" lengthAdjust="spacingAndGlyphs" textLength="0" x="487" y="1611.2764"/><text fill="#000000" font-family="sans-serif" font-size="11" lengthAdjust="spacingAndGlyphs" textLength="374" x="483" y="1624.0811">the suffix entry under consideration has no continuation classes?</text><text fill="#000000" font-family="sans-serif" font-size="11" lengthAdjust="spacingAndGlyphs" textLength="20" x="451" y="1617.6787">yes</text><text fill="#000000" font-family="sans-serif" font-size="11" lengthAdjust="spacingAndGlyphs" textLength="14" x="869" y="1617.6787">no</text><rect fill="#C0C0C0" filter="url(#fm35gjbvfjenu)" height="33.9688" rx="12.5" ry="12.5" style="stroke: #A80036; stroke-width: 1.5;" width="365" x="278.5" y="1649.48"/><text fill="#000000" font-family="sans-serif" font-size="12" lengthAdjust="spacingAndGlyphs" textLength="345" x="288.5" y="1670.6187">set compound helper sfxappend to SuffixEntry.getKey()</text><rect fill="#EE82EE" filter="url(#fm35gjbvfjenu)" height="33.9688" rx="12.5" ry="12.5" style="stroke: #A80036; stroke-width: 1.5;" width="207" x="775.5" y="1697.8823"/><text fill="#000000" font-family="sans-serif" font-size="12" lengthAdjust="spacingAndGlyphs" textLength="187" x="785.5" y="1719.021">set compound helper sfxextra</text><polygon fill="#FEFECE" filter="url(#fm35gjbvfjenu)" points="771,1649.48,987,1649.48,999,1661.48,987,1673.48,771,1673.48,759,1661.48,771,1649.48" style="stroke: #A80036; stroke-width: 1.5;"/><text fill="#000000" font-family="sans-serif" font-size="11" lengthAdjust="spacingAndGlyphs" textLength="20" x="883" y="1683.6904">yes</text><text fill="#000000" font-family="sans-serif" font-size="11" lengthAdjust="spacingAndGlyphs" textLength="216" x="771" y="1665.2881">TODO: SOME HUNGARIAN CONDITION?</text><text fill="#000000" font-family="sans-serif" font-size="11" lengthAdjust="spacingAndGlyphs" textLength="14" x="999" y="1658.8857">no</text><polygon fill="#FEFECE" filter="url(#fm35gjbvfjenu)" points="879,1751.8511,891,1763.8511,879,1775.8511,867,1763.8511,879,1751.8511" style="stroke: #A80036; stroke-width: 1.5;"/><polygon fill="#FEFECE" filter="url(#fm35gjbvfjenu)" points="670,1781.8511,682,1793.8511,670,1805.8511,658,1793.8511,670,1781.8511" style="stroke: #A80036; stroke-width: 1.5;"/><rect fill="#FEFECE" filter="url(#fm35gjbvfjenu)" height="33.9688" rx="12.5" ry="12.5" style="stroke: #A80036; stroke-width: 1.5;" width="89" x="625.5" y="1825.8511"/><text fill="#000000" font-family="sans-serif" font-size="12" lengthAdjust="spacingAndGlyphs" textLength="69" x="635.5" y="1846.9897">return root</text><ellipse cx="670" cy="1889.8198" fill="none" filter="url(#fm35gjbvfjenu)" rx="10" ry="10" style="stroke: #000000; stroke-width: 1.0;"/><ellipse cx="670.5" cy="1890.3198" fill="#000000" filter="url(#fm35gjbvfjenu)" rx="6" ry="6" style="stroke: none; stroke-width: 1.0;"/><polygon fill="#FEFECE" filter="url(#fm35gjbvfjenu)" points="655.5,1498.6948,684.5,1498.6948,696.5,1510.6948,684.5,1522.6948,655.5,1522.6948,643.5,1510.6948,655.5,1498.6948" style="stroke: #A80036; stroke-width: 1.5;"/><text fill="#000000" font-family="sans-serif" font-size="11" lengthAdjust="spacingAndGlyphs" textLength="20" x="674" y="1532.9053">yes</text><text fill="#000000" font-family="sans-serif" font-size="11" lengthAdjust="spacingAndGlyphs" textLength="29" x="655.5" y="1514.5029">root?</text><text fill="#000000" font-family="sans-serif" font-size="11" lengthAdjust="spacingAndGlyphs" textLength="14" x="696.5" y="1508.1006">no</text><polygon fill="#FEFECE" filter="url(#fm35gjbvfjenu)" points="367,1330.6909,973,1330.6909,985,1375.5073,973,1420.3237,367,1420.3237,355,1375.5073,367,1330.6909" style="stroke: #A80036; stroke-width: 1.5;"/><text fill="#000000" font-family="sans-serif" font-size="11" lengthAdjust="spacingAndGlyphs" textLength="20" x="674" y="1430.5342">yes</text><text fill="#000000" font-family="sans-serif" font-size="11" lengthAdjust="spacingAndGlyphs" textLength="0" x="371" y="1340.9014"/><text fill="#000000" font-family="sans-serif" font-size="11" lengthAdjust="spacingAndGlyphs" textLength="398" x="367" y="1353.7061">this method was not called from compounding related to the end part</text><text fill="#000000" font-family="sans-serif" font-size="11" lengthAdjust="spacingAndGlyphs" textLength="16" x="367" y="1366.5107">OR</text><text fill="#000000" font-family="sans-serif" font-size="11" lengthAdjust="spacingAndGlyphs" textLength="145" x="367" y="1379.3154">prefix entry was provided</text><text fill="#000000" font-family="sans-serif" font-size="11" lengthAdjust="spacingAndGlyphs" textLength="16" x="367" y="1392.1201">OR</text><text fill="#000000" font-family="sans-serif" font-size="11" lengthAdjust="spacingAndGlyphs" textLength="606" x="367" y="1404.9248">continuation classes of the suffix entry under consideration does not contain generic onlyincompound flag</text><text fill="#000000" font-family="sans-serif" font-size="11" lengthAdjust="spacingAndGlyphs" textLength="14" x="985" y="1372.9131">no</text><polygon fill="#FEFECE" filter="url(#fm35gjbvfjenu)" points="670,1941.8198,682,1953.8198,670,1965.8198,658,1953.8198,670,1941.8198" style="stroke: #A80036; stroke-width: 1.5;"/><polygon fill="#FEFECE" filter="url(#fm35gjbvfjenu)" points="586.5,1282.2886,753.5,1282.2886,765.5,1294.2886,753.5,1306.2886,586.5,1306.2886,574.5,1294.2886,586.5,1282.2886" style="stroke: #A80036; stroke-width: 1.5;"/><text fill="#000000" font-family="sans-serif" font-size="11" lengthAdjust="spacingAndGlyphs" textLength="20" x="674" y="1316.499">yes</text><text fill="#000000" font-family="sans-serif" font-size="11" lengthAdjust="spacingAndGlyphs" textLength="167" x="586.5" y="1298.0967">SAME CONDITIONS AS ABOVE</text><text fill="#000000" font-family="sans-serif" font-size="11" lengthAdjust="spacingAndGlyphs" textLength="14" x="765.5" y="1291.6943">no</text><polygon fill="#FEFECE" filter="url(#fm35gjbvfjenu)" points="670,1985.8198,682,1997.8198,670,2009.8198,658,1997.8198,670,1985.8198" style="stroke: #A80036; stroke-width: 1.5;"/><polygon fill="#FEFECE" filter="url(#fm35gjbvfjenu)" points="545,1219.4722,795,1219.4722,807,1238.6792,795,1257.8862,545,1257.8862,533,1238.6792,545,1219.4722" style="stroke: #A80036; stroke-width: 1.5;"/><text fill="#000000" font-family="sans-serif" font-size="11" lengthAdjust="spacingAndGlyphs" textLength="20" x="674" y="1268.0967">yes</text><text fill="#000000" font-family="sans-serif" font-size="11" lengthAdjust="spacingAndGlyphs" textLength="0" x="549" y="1229.6826"/><text fill="#000000" font-family="sans-serif" font-size="11" lengthAdjust="spacingAndGlyphs" textLength="250" x="545" y="1242.4873">is SuffixEntry.getKey() a revsubset of word?</text><text fill="#000000" font-family="sans-serif" font-size="11" lengthAdjust="spacingAndGlyphs" textLength="14" x="807" y="1236.085">no</text><polygon fill="#FEFECE" filter="url(#fm35gjbvfjenu)" points="670,2029.8198,682,2041.8198,670,2053.8198,658,2041.8198,670,2029.8198" style="stroke: #A80036; stroke-width: 1.5;"/><polygon fill="#FEFECE" filter="url(#fm35gjbvfjenu)" points="578,1158.6675,762,1158.6675,774,1170.6675,762,1182.6675,578,1182.6675,566,1170.6675,578,1158.6675" style="stroke: #A80036; stroke-width: 1.5;"/><text fill="#000000" font-family="sans-serif" font-size="11" lengthAdjust="spacingAndGlyphs" textLength="20" x="674" y="1192.8779">yes</text><text fill="#000000" font-family="sans-serif" font-size="11" lengthAdjust="spacingAndGlyphs" textLength="184" x="578" y="1174.4756">iterate non-zero-length suffixes?</text><text fill="#000000" font-family="sans-serif" font-size="11" lengthAdjust="spacingAndGlyphs" textLength="14" x="552" y="1168.0732">no</text><ellipse cx="24" cy="1216.6675" fill="none" filter="url(#fm35gjbvfjenu)" rx="10" ry="10" style="stroke: #000000; stroke-width: 1.0;"/><ellipse cx="24.5" cy="1217.1675" fill="#000000" filter="url(#fm35gjbvfjenu)" rx="6" ry="6" style="stroke: none; stroke-width: 1.0;"/><line style="stroke: #A80036; stroke-width: 1.5;" x1="670" x2="670" y1="110.5586" y2="148.2578"/><polygon fill="#A80036" points="666,138.2578,670,148.2578,674,138.2578,670,142.2578" style="stroke: #A80036; stroke-width: 1.0;"/><line style="stroke: #A80036; stroke-width: 1.5;" x1="670" x2="670" y1="763.1987" y2="783.1987"/><polygon fill="#A80036" points="666,773.1987,670,783.1987,674,773.1987,670,777.1987" style="stroke: #A80036; stroke-width: 1.0;"/><line style="stroke: #A80036; stroke-width: 1.5;" x1="670" x2="670" y1="817.1675" y2="837.1675"/><polygon fill="#A80036" points="666,827.1675,670,837.1675,674,827.1675,670,831.1675" style="stroke: #A80036; stroke-width: 1.0;"/><line style="stroke: #A80036; stroke-width: 1.5;" x1="670" x2="670" y1="704.8276" y2="729.23"/><polygon fill="#A80036" points="666,719.23,670,729.23,674,719.23,670,723.23" style="stroke: #A80036; stroke-width: 1.0;"/><line style="stroke: #A80036; stroke-width: 1.5;" x1="696.5" x2="767.5" y1="692.8276" y2="692.8276"/><polygon fill="#A80036" points="763.5,780.1987,767.5,790.1987,771.5,780.1987,767.5,784.1987" style="stroke: #A80036; stroke-width: 1.5;"/><line style="stroke: #A80036; stroke-width: 1.5;" x1="767.5" x2="767.5" y1="692.8276" y2="879.1675"/><line style="stroke: #A80036; stroke-width: 1.5;" x1="767.5" x2="670" y1="879.1675" y2="879.1675"/><line style="stroke: #A80036; stroke-width: 1.5;" x1="670" x2="670" y1="879.1675" y2="899.1675"/><polygon fill="#A80036" points="666,889.1675,670,899.1675,674,889.1675,670,893.1675" style="stroke: #A80036; stroke-width: 1.0;"/><line style="stroke: #A80036; stroke-width: 1.5;" x1="670" x2="670" y1="660.8276" y2="680.8276"/><polygon fill="#A80036" points="666,670.8276,670,680.8276,674,670.8276,670,674.8276" style="stroke: #A80036; stroke-width: 1.0;"/><line style="stroke: #A80036; stroke-width: 1.5;" x1="670" x2="670" y1="602.4565" y2="626.8589"/><polygon fill="#A80036" points="666,616.8589,670,626.8589,674,616.8589,670,620.8589" style="stroke: #A80036; stroke-width: 1.0;"/><line style="stroke: #A80036; stroke-width: 1.5;" x1="1071.5" x2="1083.5" y1="474.4097" y2="474.4097"/><polygon fill="#A80036" points="1079.5,696.6909,1083.5,706.6909,1087.5,696.6909,1083.5,700.6909" style="stroke: #A80036; stroke-width: 1.5;"/><line style="stroke: #A80036; stroke-width: 1.5;" x1="1083.5" x2="1083.5" y1="474.4097" y2="911.1675"/><line style="stroke: #A80036; stroke-width: 1.5;" x1="1083.5" x2="682" y1="911.1675" y2="911.1675"/><polygon fill="#A80036" points="692,907.1675,682,911.1675,692,915.1675,688,911.1675" style="stroke: #A80036; stroke-width: 1.0;"/><line style="stroke: #A80036; stroke-width: 1.5;" x1="670" x2="670" y1="321.9604" y2="346.3628"/><polygon fill="#A80036" points="666,336.3628,670,346.3628,674,336.3628,670,340.3628" style="stroke: #A80036; stroke-width: 1.0;"/><line style="stroke: #A80036; stroke-width: 1.5;" x1="857" x2="1093.5" y1="289.9487" y2="289.9487"/><polygon fill="#A80036" points="1089.5,643.6616,1093.5,653.6616,1097.5,643.6616,1093.5,647.6616" style="stroke: #A80036; stroke-width: 1.5;"/><line style="stroke: #A80036; stroke-width: 1.5;" x1="1093.5" x2="1093.5" y1="289.9487" y2="955.1675"/><line style="stroke: #A80036; stroke-width: 1.5;" x1="1093.5" x2="682" y1="955.1675" y2="955.1675"/><polygon fill="#A80036" points="692,951.1675,682,955.1675,692,959.1675,688,955.1675" style="stroke: #A80036; stroke-width: 1.0;"/><line style="stroke: #A80036; stroke-width: 1.5;" x1="670" x2="670" y1="923.1675" y2="943.1675"/><polygon fill="#A80036" points="666,933.1675,670,943.1675,674,933.1675,670,937.1675" style="stroke: #A80036; stroke-width: 1.0;"/><line style="stroke: #A80036; stroke-width: 1.5;" x1="670" x2="670" y1="226.2266" y2="257.937"/><polygon fill="#A80036" points="666,247.937,670,257.937,674,247.937,670,251.937" style="stroke: #A80036; stroke-width: 1.0;"/><line style="stroke: #A80036; stroke-width: 1.5;" x1="670" x2="670" y1="967.1675" y2="977.1675"/><line style="stroke: #A80036; stroke-width: 1.5;" x1="670" x2="1115" y1="977.1675" y2="977.1675"/><polygon fill="#A80036" points="1111,635.2534,1115,625.2534,1119,635.2534,1115,631.2534" style="stroke: #A80036; stroke-width: 1.5;"/><line style="stroke: #A80036; stroke-width: 1.5;" x1="1115" x2="1115" y1="214.2266" y2="977.1675"/><line style="stroke: #A80036; stroke-width: 1.5;" x1="1115" x2="761.5" y1="214.2266" y2="214.2266"/><polygon fill="#A80036" points="771.5,210.2266,761.5,214.2266,771.5,218.2266,767.5,214.2266" style="stroke: #A80036; stroke-width: 1.0;"/><line style="stroke: #A80036; stroke-width: 1.5;" x1="578.5" x2="246.5" y1="214.2266" y2="214.2266"/><polygon fill="#A80036" points="242.5,621.2534,246.5,631.2534,250.5,621.2534,246.5,625.2534" style="stroke: #A80036; stroke-width: 1.5;"/><line style="stroke: #A80036; stroke-width: 1.5;" x1="246.5" x2="246.5" y1="214.2266" y2="989.1675"/><line style="stroke: #A80036; stroke-width: 1.5;" x1="246.5" x2="670" y1="989.1675" y2="989.1675"/><line style="stroke: #A80036; stroke-width: 1.5;" x1="670" x2="670" y1="989.1675" y2="1009.1675"/><polygon fill="#A80036" points="666,999.1675,670,1009.1675,674,999.1675,670,1003.1675" style="stroke: #A80036; stroke-width: 1.0;"/><line style="stroke: #A80036; stroke-width: 1.5;" x1="670" x2="670" y1="182.2266" y2="202.2266"/><polygon fill="#A80036" points="666,192.2266,670,202.2266,674,192.2266,670,196.2266" style="stroke: #A80036; stroke-width: 1.0;"/><line style="stroke: #A80036; stroke-width: 1.5;" x1="670" x2="670" y1="1033.1675" y2="1086.4175"/><polygon fill="#A80036" points="666,1076.4175,670,1086.4175,674,1076.4175,670,1080.4175" style="stroke: #A80036; stroke-width: 1.0;"/><line style="stroke: #A80036; stroke-width: 1.5;" x1="769" x2="799" y1="1021.1675" y2="1021.1675"/><polygon fill="#A80036" points="789,1017.1675,799,1021.1675,789,1025.1675,793,1021.1675" style="stroke: #A80036; stroke-width: 1.0;"/><line style="stroke: #A80036; stroke-width: 1.5;" x1="879" x2="879" y1="1673.48" y2="1697.8823"/><polygon fill="#A80036" points="875,1687.8823,879,1697.8823,883,1687.8823,879,1691.8823" style="stroke: #A80036; stroke-width: 1.0;"/><line style="stroke: #A80036; stroke-width: 1.5;" x1="999" x2="1011" y1="1661.48" y2="1661.48"/><polygon fill="#A80036" points="1007,1704.8667,1011,1714.8667,1015,1704.8667,1011,1708.8667" style="stroke: #A80036; stroke-width: 1.5;"/><line style="stroke: #A80036; stroke-width: 1.5;" x1="1011" x2="1011" y1="1661.48" y2="1763.8511"/><line style="stroke: #A80036; stroke-width: 1.5;" x1="1011" x2="891" y1="1763.8511" y2="1763.8511"/><polygon fill="#A80036" points="901,1759.8511,891,1763.8511,901,1767.8511,897,1763.8511" style="stroke: #A80036; stroke-width: 1.0;"/><line style="stroke: #A80036; stroke-width: 1.5;" x1="879" x2="879" y1="1731.8511" y2="1751.8511"/><polygon fill="#A80036" points="875,1741.8511,879,1751.8511,883,1741.8511,879,1745.8511" style="stroke: #A80036; stroke-width: 1.0;"/><line style="stroke: #A80036; stroke-width: 1.5;" x1="471" x2="461" y1="1620.2729" y2="1620.2729"/><line style="stroke: #A80036; stroke-width: 1.5;" x1="461" x2="461" y1="1620.2729" y2="1649.48"/><polygon fill="#A80036" points="457,1639.48,461,1649.48,465,1639.48,461,1643.48" style="stroke: #A80036; stroke-width: 1.0;"/><line style="stroke: #A80036; stroke-width: 1.5;" x1="869" x2="879" y1="1620.2729" y2="1620.2729"/><line style="stroke: #A80036; stroke-width: 1.5;" x1="879" x2="879" y1="1620.2729" y2="1649.48"/><polygon fill="#A80036" points="875,1639.48,879,1649.48,883,1639.48,879,1643.48" style="stroke: #A80036; stroke-width: 1.0;"/><line style="stroke: #A80036; stroke-width: 1.5;" x1="461" x2="461" y1="1683.4487" y2="1793.8511"/><line style="stroke: #A80036; stroke-width: 1.5;" x1="461" x2="658" y1="1793.8511" y2="1793.8511"/><polygon fill="#A80036" points="648,1789.8511,658,1793.8511,648,1797.8511,652,1793.8511" style="stroke: #A80036; stroke-width: 1.0;"/><line style="stroke: #A80036; stroke-width: 1.5;" x1="879" x2="879" y1="1775.8511" y2="1793.8511"/><line style="stroke: #A80036; stroke-width: 1.5;" x1="879" x2="682" y1="1793.8511" y2="1793.8511"/><polygon fill="#A80036" points="692,1789.8511,682,1793.8511,692,1797.8511,688,1793.8511" style="stroke: #A80036; stroke-width: 1.0;"/><line style="stroke: #A80036; stroke-width: 1.5;" x1="670" x2="670" y1="1581.0659" y2="1601.0659"/><polygon fill="#A80036" points="666,1591.0659,670,1601.0659,674,1591.0659,670,1595.0659" style="stroke: #A80036; stroke-width: 1.0;"/><line style="stroke: #A80036; stroke-width: 1.5;" x1="670" x2="670" y1="1805.8511" y2="1825.8511"/><polygon fill="#A80036" points="666,1815.8511,670,1825.8511,674,1815.8511,670,1819.8511" style="stroke: #A80036; stroke-width: 1.0;"/><line style="stroke: #A80036; stroke-width: 1.5;" x1="670" x2="670" y1="1859.8198" y2="1879.8198"/><polygon fill="#A80036" points="666,1869.8198,670,1879.8198,674,1869.8198,670,1873.8198" style="stroke: #A80036; stroke-width: 1.0;"/><line style="stroke: #A80036; stroke-width: 1.5;" x1="670" x2="670" y1="1522.6948" y2="1547.0972"/><polygon fill="#A80036" points="666,1537.0972,670,1547.0972,674,1537.0972,670,1541.0972" style="stroke: #A80036; stroke-width: 1.0;"/><line style="stroke: #A80036; stroke-width: 1.5;" x1="696.5" x2="1031" y1="1510.6948" y2="1510.6948"/><polygon fill="#A80036" points="1027,1720.1597,1031,1730.1597,1035,1720.1597,1031,1724.1597" style="stroke: #A80036; stroke-width: 1.5;"/><line style="stroke: #A80036; stroke-width: 1.5;" x1="1031" x2="1031" y1="1510.6948" y2="1921.8198"/><line style="stroke: #A80036; stroke-width: 1.5;" x1="1031" x2="670" y1="1921.8198" y2="1921.8198"/><line style="stroke: #A80036; stroke-width: 1.5;" x1="670" x2="670" y1="1921.8198" y2="1941.8198"/><polygon fill="#A80036" points="666,1931.8198,670,1941.8198,674,1931.8198,670,1935.8198" style="stroke: #A80036; stroke-width: 1.0;"/><line style="stroke: #A80036; stroke-width: 1.5;" x1="670" x2="670" y1="1478.6948" y2="1498.6948"/><polygon fill="#A80036" points="666,1488.6948,670,1498.6948,674,1488.6948,670,1492.6948" style="stroke: #A80036; stroke-width: 1.0;"/><line style="stroke: #A80036; stroke-width: 1.5;" x1="670" x2="670" y1="1420.3237" y2="1444.7261"/><polygon fill="#A80036" points="666,1434.7261,670,1444.7261,674,1434.7261,670,1438.7261" style="stroke: #A80036; stroke-width: 1.0;"/><line style="stroke: #A80036; stroke-width: 1.5;" x1="985" x2="1053" y1="1375.5073" y2="1375.5073"/><polygon fill="#A80036" points="1049,1663.2671,1053,1673.2671,1057,1663.2671,1053,1667.2671" style="stroke: #A80036; stroke-width: 1.5;"/><line style="stroke: #A80036; stroke-width: 1.5;" x1="1053" x2="1053" y1="1375.5073" y2="1953.8198"/><line style="stroke: #A80036; stroke-width: 1.5;" x1="1053" x2="682" y1="1953.8198" y2="1953.8198"/><polygon fill="#A80036" points="692,1949.8198,682,1953.8198,692,1957.8198,688,1953.8198" style="stroke: #A80036; stroke-width: 1.0;"/><line style="stroke: #A80036; stroke-width: 1.5;" x1="670" x2="670" y1="1306.2886" y2="1330.6909"/><polygon fill="#A80036" points="666,1320.6909,670,1330.6909,674,1320.6909,670,1324.6909" style="stroke: #A80036; stroke-width: 1.0;"/><line style="stroke: #A80036; stroke-width: 1.5;" x1="765.5" x2="1075" y1="1294.2886" y2="1294.2886"/><polygon fill="#A80036" points="1071,1646.8589,1075,1656.8589,1079,1646.8589,1075,1650.8589" style="stroke: #A80036; stroke-width: 1.5;"/><line style="stroke: #A80036; stroke-width: 1.5;" x1="1075" x2="1075" y1="1294.2886" y2="1997.8198"/><line style="stroke: #A80036; stroke-width: 1.5;" x1="1075" x2="682" y1="1997.8198" y2="1997.8198"/><polygon fill="#A80036" points="692,1993.8198,682,1997.8198,692,2001.8198,688,1997.8198" style="stroke: #A80036; stroke-width: 1.0;"/><line style="stroke: #A80036; stroke-width: 1.5;" x1="670" x2="670" y1="1965.8198" y2="1985.8198"/><polygon fill="#A80036" points="666,1975.8198,670,1985.8198,674,1975.8198,670,1979.8198" style="stroke: #A80036; stroke-width: 1.0;"/><line style="stroke: #A80036; stroke-width: 1.5;" x1="670" x2="670" y1="1257.8862" y2="1282.2886"/><polygon fill="#A80036" points="666,1272.2886,670,1282.2886,674,1272.2886,670,1276.2886" style="stroke: #A80036; stroke-width: 1.0;"/><line style="stroke: #A80036; stroke-width: 1.5;" x1="807" x2="1097" y1="1238.6792" y2="1238.6792"/><polygon fill="#A80036" points="1093,1643.2554,1097,1653.2554,1101,1643.2554,1097,1647.2554" style="stroke: #A80036; stroke-width: 1.5;"/><line style="stroke: #A80036; stroke-width: 1.5;" x1="1097" x2="1097" y1="1238.6792" y2="2041.8198"/><line style="stroke: #A80036; stroke-width: 1.5;" x1="1097" x2="682" y1="2041.8198" y2="2041.8198"/><polygon fill="#A80036" points="692,2037.8198,682,2041.8198,692,2045.8198,688,2041.8198" style="stroke: #A80036; stroke-width: 1.0;"/><line style="stroke: #A80036; stroke-width: 1.5;" x1="670" x2="670" y1="2009.8198" y2="2029.8198"/><polygon fill="#A80036" points="666,2019.8198,670,2029.8198,674,2019.8198,670,2023.8198" style="stroke: #A80036; stroke-width: 1.0;"/><line style="stroke: #A80036; stroke-width: 1.5;" x1="670" x2="670" y1="1182.6675" y2="1219.4722"/><polygon fill="#A80036" points="666,1209.4722,670,1219.4722,674,1209.4722,670,1213.4722" style="stroke: #A80036; stroke-width: 1.0;"/><line style="stroke: #A80036; stroke-width: 1.5;" x1="670" x2="670" y1="2053.8198" y2="2063.8198"/><line style="stroke: #A80036; stroke-width: 1.5;" x1="670" x2="1118.5" y1="2063.8198" y2="2063.8198"/><polygon fill="#A80036" points="1114.5,1641.2495,1118.5,1631.2495,1122.5,1641.2495,1118.5,1637.2495" style="stroke: #A80036; stroke-width: 1.5;"/><line style="stroke: #A80036; stroke-width: 1.5;" x1="1118.5" x2="1118.5" y1="1170.6675" y2="2063.8198"/><line style="stroke: #A80036; stroke-width: 1.5;" x1="1118.5" x2="774" y1="1170.6675" y2="1170.6675"/><polygon fill="#A80036" points="784,1166.6675,774,1170.6675,784,1174.6675,780,1170.6675" style="stroke: #A80036; stroke-width: 1.0;"/><line style="stroke: #A80036; stroke-width: 1.5;" x1="566" x2="24" y1="1170.6675" y2="1170.6675"/><line style="stroke: #A80036; stroke-width: 1.5;" x1="24" x2="24" y1="1170.6675" y2="1206.6675"/><polygon fill="#A80036" points="20,1196.6675,24,1206.6675,28,1196.6675,24,1200.6675" style="stroke: #A80036; stroke-width: 1.0;"/><line style="stroke: #A80036; stroke-width: 1.5;" x1="670" x2="670" y1="1120.3862" y2="1158.6675"/><polygon fill="#A80036" points="666,1148.6675,670,1158.6675,674,1148.6675,670,1152.6675" style="stroke: #A80036; stroke-width: 1.0;"/><!--
@startuml
skinparam backgroundcolor White|White

title Hunspell - AffixMgr::suffix_check(word)\n"check word for suffixes"\n

start
floating note: When called from affix_check(word) default is\nalways used for in_compound, needflag, sfxopts, ppfx, cclass.\nReturn NULL is implied.

#silver:do not reset any compound helpers;
while (iterate zero-length suffixes?) is (yes)
	if (
no continuation classes are provided to this method
OR
the suffix entry under consideration has continuation classes
	) then (yes)
		if (
    1.a this method was not called from compounding related to the beginning part "suffixes are not allowed in beginning of compounds"
    OR
    1.b continuation classes of the suffix entry under consideration does contain generic compoundpermitflag flag
AND
    2.a there is no generic circumfix flag
    OR
    2.b continuation classes of the provided prefix entry and suffix entry under consideration do not contain generic circumfix flag
    OR
    2.c continuation classes of the provided prefix entry and suffix entry under consideration do both contain generic circumfix flag	
AND
    3 the continuation classes of the suffix entry under consideration does not contain generic onlyincompound flag "fogemorpheme"
AND
    "needaffix on prefix or first suffix"
    4.a continuation class is provided to this method
    OR
    4.b continuation classes of the provided prefix entry does not contain generic needaffix flag
    OR
    4.c continuation classes of the suffix entry under consideration does not contain generic needaffix flag
		) then (yes)
			#tomato:root = SuffixEntry::checkword(word,(in_compound?0:onlyincompound));
			if (root?) then (yes)
				#silver:set compound helper sfx;
				:return root;
				stop
			else (no)
			endif
		else (no)
		endif
	else (no)
	endif
endwhile (no)

if (length of word is 0? "full strip") then (yes)
	floating note: TODO Figure out what triggers this
	stop
else (no)
endif

:iterator starts at (word + len - 1) instead of (word);
floating note: TODO Figure out\nwhat this does,\nprobably to skip\nunimportant part
while (iterate non-zero-length suffixes?) is (yes)
	if (
is SuffixEntry.getKey() a revsubset of word?
	) then (yes)
		floating note: getKey() returns rappnd\nbeing reverse append,\nrevsubset is tested with\nAffixMgr::isRevSubset
		if (SAME CONDITIONS AS ABOVE) then (yes)
			if (
this method was not called from compounding related to the end part
OR
prefix entry was provided
OR
continuation classes of the suffix entry under consideration does not contain generic onlyincompound flag
			) then (yes)
				#tomato:root = SuffixEntry::checkword(word,(in_compound?0:onlyincompound));
				if (root?) then (yes)
					#silver:set compound helper sfx, sfxflag;
					if (
the suffix entry under consideration has no continuation classes?
					) then (yes)
						#silver:set compound helper sfxappend to SuffixEntry.getKey();
					else (no)
						if (TODO: SOME HUNGARIAN CONDITION?) then (yes)
							#violet:set compound helper sfxextra;
						else (no)
						endif
					endif
					:return root;
					stop
				else (no)
				endif
			else (no)
			endif
		else (no)
		endif
	else (no)
	endif
endwhile (no)

stop

@enduml

PlantUML version 1.2018.12beta1(Unknown compile time)
(GPL source distribution)
Java Runtime: OpenJDK Runtime Environment
JVM: OpenJDK 64-Bit Server VM
Java Version: 10.0.2+13-Ubuntu-1ubuntu0.18.04.2
Operating System: Linux
OS Version: 4.15.0-34-generic
Default Encoding: UTF-8
Language: en
Country: US
--></g></svg>