<?xml version="1.0" encoding="UTF-8" standalone="no"?><svg xmlns="http://www.w3.org/2000/svg" xmlns:xlink="http://www.w3.org/1999/xlink" contentScriptType="application/ecmascript" contentStyleType="text/css" height="400px" preserveAspectRatio="none" style="width:275px;height:400px;" version="1.1" viewBox="0 0 275 400" width="275px" zoomAndPan="magnify"><defs><linearGradient id="g2mea92sggo4x0" x1="0%" x2="100%" y1="50%" y2="50%"><stop offset="0%" stop-color="#FFFFFF"/><stop offset="100%" stop-color="#FFFFFF"/></linearGradient><filter height="300%" id="f2mea92sggo4x" width="300%" x="-1" y="-1"><feGaussianBlur result="blurOut" stdDeviation="2.0"/><feColorMatrix in="blurOut" result="blurOut2" type="matrix" values="0 0 0 0 0 0 0 0 0 0 0 0 0 0 0 0 0 0 .4 0"/><feOffset dx="4.0" dy="4.0" in="blurOut2" result="blurOut3"/><feBlend in="SourceGraphic" in2="blurOut3" mode="normal"/></filter></defs><g><rect fill="url(#g2mea92sggo4x0)" height="400" style="stroke: none; stroke-width: 1.0;" width="275" x="0" y="0"/><text fill="#000000" font-family="sans-serif" font-size="18" lengthAdjust="spacingAndGlyphs" textLength="179" x="47" y="26.708">Hunspell - Top-level</text><ellipse cx="132.5" cy="40.9531" fill="#000000" filter="url(#f2mea92sggo4x)" rx="10" ry="10" style="stroke: none; stroke-width: 1.0;"/><rect fill="#FEFECE" filter="url(#f2mea92sggo4x)" height="33.9688" rx="12.5" ry="12.5" style="stroke: #A80036; stroke-width: 1.5;" width="112" x="76.5" y="70.9531"/><text fill="#000000" font-family="sans-serif" font-size="12" lengthAdjust="spacingAndGlyphs" textLength="92" x="86.5" y="92.0918">load dictionary</text><rect fill="#FEFECE" filter="url(#f2mea92sggo4x)" height="33.9688" rx="12.5" ry="12.5" style="stroke: #A80036; stroke-width: 1.5;" width="143" x="61" y="185.7266"/><text fill="#000000" font-family="sans-serif" font-size="12" lengthAdjust="spacingAndGlyphs" textLength="123" x="71" y="206.8652">check spelling word</text><rect fill="#FEFECE" filter="url(#f2mea92sggo4x)" height="33.9688" rx="12.5" ry="12.5" style="stroke: #A80036; stroke-width: 1.5;" width="177" x="44" y="288.0977"/><text fill="#000000" font-family="sans-serif" font-size="12" lengthAdjust="spacingAndGlyphs" textLength="157" x="54" y="309.2363">get suggestions for word</text><polygon fill="#FEFECE" filter="url(#f2mea92sggo4x)" points="75.5,239.6953,189.5,239.6953,201.5,251.6953,189.5,263.6953,75.5,263.6953,63.5,251.6953,75.5,239.6953" style="stroke: #A80036; stroke-width: 1.5;"/><text fill="#000000" font-family="sans-serif" font-size="11" lengthAdjust="spacingAndGlyphs" textLength="20" x="136.5" y="273.9058">yes</text><text fill="#000000" font-family="sans-serif" font-size="11" lengthAdjust="spacingAndGlyphs" textLength="114" x="75.5" y="255.5034">word is misspelled?</text><polygon fill="#FEFECE" filter="url(#f2mea92sggo4x)" points="132.5,342.0664,144.5,354.0664,132.5,366.0664,120.5,354.0664,132.5,342.0664" style="stroke: #A80036; stroke-width: 1.5;"/><polygon fill="#FEFECE" filter="url(#f2mea92sggo4x)" points="83.5,124.9219,181.5,124.9219,193.5,136.9219,181.5,148.9219,83.5,148.9219,71.5,136.9219,83.5,124.9219" style="stroke: #A80036; stroke-width: 1.5;"/><text fill="#000000" font-family="sans-serif" font-size="11" lengthAdjust="spacingAndGlyphs" textLength="20" x="136.5" y="159.1323">yes</text><text fill="#000000" font-family="sans-serif" font-size="11" lengthAdjust="spacingAndGlyphs" textLength="98" x="83.5" y="140.73">input has words?</text><text fill="#000000" font-family="sans-serif" font-size="11" lengthAdjust="spacingAndGlyphs" textLength="14" x="57.5" y="134.3276">no</text><ellipse cx="24" cy="182.9219" fill="none" filter="url(#f2mea92sggo4x)" rx="10" ry="10" style="stroke: #000000; stroke-width: 1.0;"/><ellipse cx="24.5" cy="183.4219" fill="#000000" filter="url(#f2mea92sggo4x)" rx="6" ry="6" style="stroke: none; stroke-width: 1.0;"/><line style="stroke: #A80036; stroke-width: 1.5;" x1="132.5" x2="132.5" y1="50.9531" y2="70.9531"/><polygon fill="#A80036" points="128.5,60.9531,132.5,70.9531,136.5,60.9531,132.5,64.9531" style="stroke: #A80036; stroke-width: 1.0;"/><line style="stroke: #A80036; stroke-width: 1.5;" x1="132.5" x2="132.5" y1="263.6953" y2="288.0977"/><polygon fill="#A80036" points="128.5,278.0977,132.5,288.0977,136.5,278.0977,132.5,282.0977" style="stroke: #A80036; stroke-width: 1.0;"/><line style="stroke: #A80036; stroke-width: 1.5;" x1="201.5" x2="231" y1="251.6953" y2="251.6953"/><polygon fill="#A80036" points="227,295.082,231,305.082,235,295.082,231,299.082" style="stroke: #A80036; stroke-width: 1.5;"/><line style="stroke: #A80036; stroke-width: 1.5;" x1="231" x2="231" y1="251.6953" y2="354.0664"/><line style="stroke: #A80036; stroke-width: 1.5;" x1="231" x2="144.5" y1="354.0664" y2="354.0664"/><polygon fill="#A80036" points="154.5,350.0664,144.5,354.0664,154.5,358.0664,150.5,354.0664" style="stroke: #A80036; stroke-width: 1.0;"/><line style="stroke: #A80036; stroke-width: 1.5;" x1="132.5" x2="132.5" y1="322.0664" y2="342.0664"/><polygon fill="#A80036" points="128.5,332.0664,132.5,342.0664,136.5,332.0664,132.5,336.0664" style="stroke: #A80036; stroke-width: 1.0;"/><line style="stroke: #A80036; stroke-width: 1.5;" x1="132.5" x2="132.5" y1="219.6953" y2="239.6953"/><polygon fill="#A80036" points="128.5,229.6953,132.5,239.6953,136.5,229.6953,132.5,233.6953" style="stroke: #A80036; stroke-width: 1.0;"/><line style="stroke: #A80036; stroke-width: 1.5;" x1="132.5" x2="132.5" y1="148.9219" y2="185.7266"/><polygon fill="#A80036" points="128.5,175.7266,132.5,185.7266,136.5,175.7266,132.5,179.7266" style="stroke: #A80036; stroke-width: 1.0;"/><line style="stroke: #A80036; stroke-width: 1.5;" x1="132.5" x2="132.5" y1="366.0664" y2="376.0664"/><line style="stroke: #A80036; stroke-width: 1.5;" x1="132.5" x2="249" y1="376.0664" y2="376.0664"/><polygon fill="#A80036" points="245,262.1953,249,252.1953,253,262.1953,249,258.1953" style="stroke: #A80036; stroke-width: 1.5;"/><line style="stroke: #A80036; stroke-width: 1.5;" x1="249" x2="249" y1="136.9219" y2="376.0664"/><line style="stroke: #A80036; stroke-width: 1.5;" x1="249" x2="193.5" y1="136.9219" y2="136.9219"/><polygon fill="#A80036" points="203.5,132.9219,193.5,136.9219,203.5,140.9219,199.5,136.9219" style="stroke: #A80036; stroke-width: 1.0;"/><line style="stroke: #A80036; stroke-width: 1.5;" x1="71.5" x2="24" y1="136.9219" y2="136.9219"/><line style="stroke: #A80036; stroke-width: 1.5;" x1="24" x2="24" y1="136.9219" y2="172.9219"/><polygon fill="#A80036" points="20,162.9219,24,172.9219,28,162.9219,24,166.9219" style="stroke: #A80036; stroke-width: 1.0;"/><line style="stroke: #A80036; stroke-width: 1.5;" x1="132.5" x2="132.5" y1="104.9219" y2="124.9219"/><polygon fill="#A80036" points="128.5,114.9219,132.5,124.9219,136.5,114.9219,132.5,118.9219" style="stroke: #A80036; stroke-width: 1.0;"/><!--
@startuml
skinparam backgroundcolor White|White

title Hunspell - Top-level

start
:load dictionary;
while (input has words?) is (yes)
	:check spelling word;
	if (word is misspelled?) then (yes)
		:get suggestions for word;
	endif
endwhile (no)
stop

@enduml

PlantUML version 1.2018.12beta1(Unknown compile time)
(GPL source distribution)
Java Runtime: OpenJDK Runtime Environment
JVM: OpenJDK 64-Bit Server VM
Java Version: 10.0.2+13-Ubuntu-1ubuntu0.18.04.2
Operating System: Linux
OS Version: 4.15.0-34-generic
Default Encoding: UTF-8
Language: en
Country: US
--></g></svg>