<?xml version="1.0" encoding="UTF-8" standalone="yes"?><svg xmlns="http://www.w3.org/2000/svg" xmlns:xlink="http://www.w3.org/1999/xlink" height="411px" style="width:343px;height:411px;" version="1.1" viewBox="0 0 343 411" width="343px"><defs><filter height="300%" id="f1" width="300%" x="-1" y="-1"><feGaussianBlur result="blurOut" stdDeviation="2.0"/><feColorMatrix in="blurOut" result="blurOut2" type="matrix" values="0 0 0 0 0 0 0 0 0 0 0 0 0 0 0 0 0 0 .4 0"/><feOffset dx="4.0" dy="4.0" in="blurOut2" result="blurOut3"/><feBlend in="SourceGraphic" in2="blurOut3" mode="normal"/></filter></defs><g><text fill="#000000" font-family="Roboto Slab" font-size="20" font-weight="bold" lengthAdjust="spacingAndGlyphs" textLength="226" x="63.25" y="28.5645">Hunspell - Top-level</text><ellipse cx="224" cy="43.2813" fill="#000000" filter="url(#f1)" rx="10" ry="10" style="stroke: none; stroke-width: 1.0;"/><rect fill="#2A7AE2" filter="url(#f1)" height="36.2969" rx="12.5" ry="12.5" style="stroke: #000000; stroke-width: 1.5;" width="139" x="154.5" y="73.2813"/><text fill="#FFFFFF" font-family="Roboto Slab" font-size="14" font-weight="bold" lengthAdjust="spacingAndGlyphs" textLength="119" x="164.5" y="96.2764">load dictionary</text><rect fill="#2A7AE2" filter="url(#f1)" height="36.2969" rx="12.5" ry="12.5" style="stroke: #000000; stroke-width: 1.5;" width="178" x="135" y="186.2168"/><text fill="#FFFFFF" font-family="Roboto Slab" font-size="14" font-weight="bold" lengthAdjust="spacingAndGlyphs" textLength="158" x="145" y="209.2119">check spelling word</text><polygon fill="#2A7AE2" filter="url(#f1)" points="168.5,242.5137,279.5,242.5137,291.5,254.5137,279.5,266.5137,168.5,266.5137,156.5,254.5137,168.5,242.5137" style="stroke: #000000; stroke-width: 1.5;"/><text fill="#000000" font-family="sans-serif" font-size="11" lengthAdjust="spacingAndGlyphs" textLength="111" x="168.5" y="258.3218">word is misspelled?</text><text fill="#000000" font-family="Roboto Slab" font-size="12" font-weight="bold" lengthAdjust="spacingAndGlyphs" textLength="23" x="133.5" y="251.6836">yes</text><rect fill="#2A7AE2" filter="url(#f1)" height="36.2969" rx="12.5" ry="12.5" style="stroke: #000000; stroke-width: 1.5;" width="221" x="36" y="276.5137"/><text fill="#FFFFFF" font-family="Roboto Slab" font-size="14" font-weight="bold" lengthAdjust="spacingAndGlyphs" textLength="201" x="46" y="299.5088">get suggestions for word</text><polygon fill="#2A7AE2" filter="url(#f1)" points="224,318.8105,236,330.8105,224,342.8105,212,330.8105,224,318.8105" style="stroke: #000000; stroke-width: 1.5;"/><polygon fill="#2A7AE2" filter="url(#f1)" points="176,129.5781,272,129.5781,284,141.5781,272,153.5781,176,153.5781,164,141.5781,176,129.5781" style="stroke: #000000; stroke-width: 1.5;"/><text fill="#000000" font-family="Roboto Slab" font-size="12" font-weight="bold" lengthAdjust="spacingAndGlyphs" textLength="23" x="228" y="164.7168">yes</text><text fill="#000000" font-family="sans-serif" font-size="11" lengthAdjust="spacingAndGlyphs" textLength="96" x="176" y="145.3862">input has words?</text><text fill="#000000" font-family="Roboto Slab" font-size="12" font-weight="bold" lengthAdjust="spacingAndGlyphs" textLength="17" x="147" y="138.748">no</text><ellipse cx="224" cy="394.8105" fill="none" filter="url(#f1)" rx="10" ry="10" style="stroke: #000000; stroke-width: 1.0;"/><ellipse cx="224.5" cy="395.3105" fill="#000000" filter="url(#f1)" rx="6" ry="6" style="stroke: none; stroke-width: 1.0;"/><line style="stroke: #000000; stroke-width: 1.5;" x1="224" x2="224" y1="53.2813" y2="73.2813"/><polygon fill="#000000" points="220,63.2813,224,73.2813,228,63.2813,224,67.2813" style="stroke: #000000; stroke-width: 1.0;"/><line style="stroke: #000000; stroke-width: 1.5;" x1="156.5" x2="146.5" y1="254.5137" y2="254.5137"/><line style="stroke: #000000; stroke-width: 1.5;" x1="146.5" x2="146.5" y1="254.5137" y2="276.5137"/><polygon fill="#000000" points="142.5,266.5137,146.5,276.5137,150.5,266.5137,146.5,270.5137" style="stroke: #000000; stroke-width: 1.0;"/><line style="stroke: #000000; stroke-width: 1.5;" x1="291.5" x2="301.5" y1="254.5137" y2="254.5137"/><polygon fill="#000000" points="297.5,282.6621,301.5,292.6621,305.5,282.6621,301.5,286.6621" style="stroke: #000000; stroke-width: 1.5;"/><line style="stroke: #000000; stroke-width: 1.5;" x1="301.5" x2="301.5" y1="254.5137" y2="330.8105"/><line style="stroke: #000000; stroke-width: 1.5;" x1="301.5" x2="236" y1="330.8105" y2="330.8105"/><polygon fill="#000000" points="246,326.8105,236,330.8105,246,334.8105,242,330.8105" style="stroke: #000000; stroke-width: 1.0;"/><line style="stroke: #000000; stroke-width: 1.5;" x1="146.5" x2="146.5" y1="312.8105" y2="330.8105"/><line style="stroke: #000000; stroke-width: 1.5;" x1="146.5" x2="212" y1="330.8105" y2="330.8105"/><polygon fill="#000000" points="202,326.8105,212,330.8105,202,334.8105,206,330.8105" style="stroke: #000000; stroke-width: 1.0;"/><line style="stroke: #000000; stroke-width: 1.5;" x1="224" x2="224" y1="222.5137" y2="242.5137"/><polygon fill="#000000" points="220,232.5137,224,242.5137,228,232.5137,224,236.5137" style="stroke: #000000; stroke-width: 1.0;"/><line style="stroke: #000000; stroke-width: 1.5;" x1="224" x2="224" y1="153.5781" y2="186.2168"/><polygon fill="#000000" points="220,176.2168,224,186.2168,228,176.2168,224,180.2168" style="stroke: #000000; stroke-width: 1.0;"/><line style="stroke: #000000; stroke-width: 1.5;" x1="224" x2="224" y1="342.8105" y2="352.8105"/><line style="stroke: #000000; stroke-width: 1.5;" x1="224" x2="338.5" y1="352.8105" y2="352.8105"/><polygon fill="#000000" points="334.5,248.0293,338.5,238.0293,342.5,248.0293,338.5,244.0293" style="stroke: #000000; stroke-width: 1.5;"/><line style="stroke: #000000; stroke-width: 1.5;" x1="338.5" x2="338.5" y1="141.5781" y2="352.8105"/><line style="stroke: #000000; stroke-width: 1.5;" x1="338.5" x2="284" y1="141.5781" y2="141.5781"/><polygon fill="#000000" points="294,137.5781,284,141.5781,294,145.5781,290,141.5781" style="stroke: #000000; stroke-width: 1.0;"/><line style="stroke: #000000; stroke-width: 1.5;" x1="164" x2="14" y1="141.5781" y2="141.5781"/><polygon fill="#000000" points="10,234.0293,14,244.0293,18,234.0293,14,238.0293" style="stroke: #000000; stroke-width: 1.5;"/><line style="stroke: #000000; stroke-width: 1.5;" x1="14" x2="14" y1="141.5781" y2="364.8105"/><line style="stroke: #000000; stroke-width: 1.5;" x1="14" x2="224" y1="364.8105" y2="364.8105"/><line style="stroke: #000000; stroke-width: 1.5;" x1="224" x2="224" y1="364.8105" y2="384.8105"/><polygon fill="#000000" points="220,374.8105,224,384.8105,228,374.8105,224,378.8105" style="stroke: #000000; stroke-width: 1.0;"/><line style="stroke: #000000; stroke-width: 1.5;" x1="224" x2="224" y1="109.5781" y2="129.5781"/><polygon fill="#000000" points="220,119.5781,224,129.5781,228,119.5781,224,123.5781" style="stroke: #000000; stroke-width: 1.0;"/></g></svg>