<?xml version="1.0" encoding="UTF-8" standalone="yes"?><svg xmlns="http://www.w3.org/2000/svg" xmlns:xlink="http://www.w3.org/1999/xlink" height="401px" style="width:318px;height:401px;" version="1.1" viewBox="0 0 318 401" width="318px"><defs><filter height="300%" id="f1" width="300%" x="-1" y="-1"><feGaussianBlur result="blurOut" stdDeviation="2.0"/><feColorMatrix in="blurOut" result="blurOut2" type="matrix" values="0 0 0 0 0 0 0 0 0 0 0 0 0 0 0 0 0 0 .4 0"/><feOffset dx="4.0" dy="4.0" in="blurOut2" result="blurOut3"/><feBlend in="SourceGraphic" in2="blurOut3" mode="normal"/></filter></defs><g><text fill="#000000" font-family="sans-serif" font-size="18" lengthAdjust="spacingAndGlyphs" textLength="179" x="74" y="26.708">Hunspell - Top-level</text><ellipse cx="198.5" cy="40.9531" fill="#000000" filter="url(#f1)" rx="10" ry="10" style="stroke: none; stroke-width: 1.0;"/><rect fill="#FEFECE" filter="url(#f1)" height="33.9688" rx="12.5" ry="12.5" style="stroke: #A80036; stroke-width: 1.5;" width="109" x="144" y="70.9531"/><text fill="#000000" font-family="sans-serif" font-size="12" lengthAdjust="spacingAndGlyphs" textLength="89" x="154" y="92.0918">load dictionary</text><rect fill="#FEFECE" filter="url(#f1)" height="33.9688" rx="12.5" ry="12.5" style="stroke: #A80036; stroke-width: 1.5;" width="140" x="128.5" y="180.6323"/><text fill="#000000" font-family="sans-serif" font-size="12" lengthAdjust="spacingAndGlyphs" textLength="120" x="138.5" y="201.771">check spelling word</text><polygon fill="#FEFECE" filter="url(#f1)" points="143,234.6011,254,234.6011,266,246.6011,254,258.6011,143,258.6011,131,246.6011,143,234.6011" style="stroke: #A80036; stroke-width: 1.5;"/><text fill="#000000" font-family="sans-serif" font-size="11" lengthAdjust="spacingAndGlyphs" textLength="111" x="143" y="250.4092">word is misspelled?</text><text fill="#000000" font-family="sans-serif" font-size="11" lengthAdjust="spacingAndGlyphs" textLength="20" x="111" y="244.0068">yes</text><rect fill="#FEFECE" filter="url(#f1)" height="33.9688" rx="12.5" ry="12.5" style="stroke: #A80036; stroke-width: 1.5;" width="170" x="36" y="268.6011"/><text fill="#000000" font-family="sans-serif" font-size="12" lengthAdjust="spacingAndGlyphs" textLength="150" x="46" y="289.7397">get suggestions for word</text><polygon fill="#FEFECE" filter="url(#f1)" points="198.5,308.5698,210.5,320.5698,198.5,332.5698,186.5,320.5698,198.5,308.5698" style="stroke: #A80036; stroke-width: 1.5;"/><polygon fill="#FEFECE" filter="url(#f1)" points="150.5,124.9219,246.5,124.9219,258.5,136.9219,246.5,148.9219,150.5,148.9219,138.5,136.9219,150.5,124.9219" style="stroke: #A80036; stroke-width: 1.5;"/><text fill="#000000" font-family="sans-serif" font-size="11" lengthAdjust="spacingAndGlyphs" textLength="20" x="202.5" y="159.1323">yes</text><text fill="#000000" font-family="sans-serif" font-size="11" lengthAdjust="spacingAndGlyphs" textLength="96" x="150.5" y="140.73">input has words?</text><text fill="#000000" font-family="sans-serif" font-size="11" lengthAdjust="spacingAndGlyphs" textLength="14" x="124.5" y="134.3276">no</text><ellipse cx="198.5" cy="384.5698" fill="none" filter="url(#f1)" rx="10" ry="10" style="stroke: #000000; stroke-width: 1.0;"/><ellipse cx="199" cy="385.0698" fill="#000000" filter="url(#f1)" rx="6" ry="6" style="stroke: none; stroke-width: 1.0;"/><line style="stroke: #A80036; stroke-width: 1.5;" x1="198.5" x2="198.5" y1="50.9531" y2="70.9531"/><polygon fill="#A80036" points="194.5,60.9531,198.5,70.9531,202.5,60.9531,198.5,64.9531" style="stroke: #A80036; stroke-width: 1.0;"/><line style="stroke: #A80036; stroke-width: 1.5;" x1="131" x2="121" y1="246.6011" y2="246.6011"/><line style="stroke: #A80036; stroke-width: 1.5;" x1="121" x2="121" y1="246.6011" y2="268.6011"/><polygon fill="#A80036" points="117,258.6011,121,268.6011,125,258.6011,121,262.6011" style="stroke: #A80036; stroke-width: 1.0;"/><line style="stroke: #A80036; stroke-width: 1.5;" x1="266" x2="276" y1="246.6011" y2="246.6011"/><polygon fill="#A80036" points="272,273.5854,276,283.5854,280,273.5854,276,277.5854" style="stroke: #A80036; stroke-width: 1.5;"/><line style="stroke: #A80036; stroke-width: 1.5;" x1="276" x2="276" y1="246.6011" y2="320.5698"/><line style="stroke: #A80036; stroke-width: 1.5;" x1="276" x2="210.5" y1="320.5698" y2="320.5698"/><polygon fill="#A80036" points="220.5,316.5698,210.5,320.5698,220.5,324.5698,216.5,320.5698" style="stroke: #A80036; stroke-width: 1.0;"/><line style="stroke: #A80036; stroke-width: 1.5;" x1="121" x2="121" y1="302.5698" y2="320.5698"/><line style="stroke: #A80036; stroke-width: 1.5;" x1="121" x2="186.5" y1="320.5698" y2="320.5698"/><polygon fill="#A80036" points="176.5,316.5698,186.5,320.5698,176.5,324.5698,180.5,320.5698" style="stroke: #A80036; stroke-width: 1.0;"/><line style="stroke: #A80036; stroke-width: 1.5;" x1="198.5" x2="198.5" y1="214.6011" y2="234.6011"/><polygon fill="#A80036" points="194.5,224.6011,198.5,234.6011,202.5,224.6011,198.5,228.6011" style="stroke: #A80036; stroke-width: 1.0;"/><line style="stroke: #A80036; stroke-width: 1.5;" x1="198.5" x2="198.5" y1="148.9219" y2="180.6323"/><polygon fill="#A80036" points="194.5,170.6323,198.5,180.6323,202.5,170.6323,198.5,174.6323" style="stroke: #A80036; stroke-width: 1.0;"/><line style="stroke: #A80036; stroke-width: 1.5;" x1="198.5" x2="198.5" y1="332.5698" y2="342.5698"/><line style="stroke: #A80036; stroke-width: 1.5;" x1="198.5" x2="313" y1="342.5698" y2="342.5698"/><polygon fill="#A80036" points="309,240.6987,313,230.6987,317,240.6987,313,236.6987" style="stroke: #A80036; stroke-width: 1.5;"/><line style="stroke: #A80036; stroke-width: 1.5;" x1="313" x2="313" y1="136.9219" y2="342.5698"/><line style="stroke: #A80036; stroke-width: 1.5;" x1="313" x2="258.5" y1="136.9219" y2="136.9219"/><polygon fill="#A80036" points="268.5,132.9219,258.5,136.9219,268.5,140.9219,264.5,136.9219" style="stroke: #A80036; stroke-width: 1.0;"/><line style="stroke: #A80036; stroke-width: 1.5;" x1="138.5" x2="14" y1="136.9219" y2="136.9219"/><polygon fill="#A80036" points="10,226.6987,14,236.6987,18,226.6987,14,230.6987" style="stroke: #A80036; stroke-width: 1.5;"/><line style="stroke: #A80036; stroke-width: 1.5;" x1="14" x2="14" y1="136.9219" y2="354.5698"/><line style="stroke: #A80036; stroke-width: 1.5;" x1="14" x2="198.5" y1="354.5698" y2="354.5698"/><line style="stroke: #A80036; stroke-width: 1.5;" x1="198.5" x2="198.5" y1="354.5698" y2="374.5698"/><polygon fill="#A80036" points="194.5,364.5698,198.5,374.5698,202.5,364.5698,198.5,368.5698" style="stroke: #A80036; stroke-width: 1.0;"/><line style="stroke: #A80036; stroke-width: 1.5;" x1="198.5" x2="198.5" y1="104.9219" y2="124.9219"/><polygon fill="#A80036" points="194.5,114.9219,198.5,124.9219,202.5,114.9219,198.5,118.9219" style="stroke: #A80036; stroke-width: 1.0;"/></g></svg>