<?xml version="1.0" encoding="UTF-8" standalone="no"?><svg xmlns="http://www.w3.org/2000/svg" xmlns:xlink="http://www.w3.org/1999/xlink" contentScriptType="application/ecmascript" contentStyleType="text/css" height="690px" preserveAspectRatio="none" style="width:1910px;height:690px;" version="1.1" viewBox="0 0 1910 690" width="1910px" zoomAndPan="magnify"><defs><linearGradient id="g1u843fgqgo2tw0" x1="0%" x2="100%" y1="50%" y2="50%"><stop offset="0%" stop-color="#FFFFFF"/><stop offset="100%" stop-color="#FFFFFF"/></linearGradient><filter height="300%" id="f1u843fgqgo2tw" width="300%" x="-1" y="-1"><feGaussianBlur result="blurOut" stdDeviation="2.0"/><feColorMatrix in="blurOut" result="blurOut2" type="matrix" values="0 0 0 0 0 0 0 0 0 0 0 0 0 0 0 0 0 0 .4 0"/><feOffset dx="4.0" dy="4.0" in="blurOut2" result="blurOut3"/><feBlend in="SourceGraphic" in2="blurOut3" mode="normal"/></filter></defs><g><rect fill="url(#g1u843fgqgo2tw0)" height="690" style="stroke: none; stroke-width: 1.0;" width="1910" x="0" y="0"/><text fill="#000000" font-family="Roboto Condensed" font-size="18" font-weight="bold" lengthAdjust="spacingAndGlyphs" textLength="261" x="831.5" y="18.8613">Nuspell - Command-line Arguments</text><!--cluster wm--><rect fill="#FFFFFF" filter="url(#f1u843fgqgo2tw)" height="483" rx="12.5" ry="12.5" style="stroke: #000000; stroke-width: 1.5;" width="640" x="497" y="196.7393"/><rect fill="url(#g1u843fgqgo2tw0)" height="448.5361" rx="12.5" ry="12.5" style="stroke: url(#g1u843fgqgo2tw0); stroke-width: 1.0;" width="634" x="500" y="228.2031"/><line style="stroke: #000000; stroke-width: 1.5;" x1="497" x2="1137" y1="225.2031" y2="225.2031"/><text fill="#000000" font-family="Roboto Condensed" font-size="14" lengthAdjust="spacingAndGlyphs" textLength="70" x="782" y="215.4092">Word Modes</text><!--cluster im--><rect fill="#FFFFFF" filter="url(#f1u843fgqgo2tw)" height="559" rx="12.5" ry="12.5" style="stroke: #000000; stroke-width: 1.5;" width="470" x="14" y="39.7393"/><rect fill="url(#g1u843fgqgo2tw0)" height="524.5361" rx="12.5" ry="12.5" style="stroke: url(#g1u843fgqgo2tw0); stroke-width: 1.0;" width="464" x="17" y="71.2031"/><line style="stroke: #000000; stroke-width: 1.5;" x1="14" x2="484" y1="68.2031" y2="68.2031"/><text fill="#000000" font-family="Roboto Condensed" font-size="14" lengthAdjust="spacingAndGlyphs" textLength="106" x="196" y="58.4092">Information Modes</text><!--cluster cm--><rect fill="#FFFFFF" filter="url(#f1u843fgqgo2tw)" height="559" rx="12.5" ry="12.5" style="stroke: #000000; stroke-width: 1.5;" width="742" x="1156" y="39.7393"/><rect fill="url(#g1u843fgqgo2tw0)" height="524.5361" rx="12.5" ry="12.5" style="stroke: url(#g1u843fgqgo2tw0); stroke-width: 1.0;" width="736" x="1159" y="71.2031"/><line style="stroke: #000000; stroke-width: 1.5;" x1="1156" x2="1898" y1="68.2031" y2="68.2031"/><text fill="#000000" font-family="Roboto Condensed" font-size="14" lengthAdjust="spacingAndGlyphs" textLength="107" x="1473.5" y="58.4092">Correctness Modes</text><rect fill="#FFFFFF" filter="url(#f1u843fgqgo2tw)" height="54.29" rx="12.5" ry="12.5" style="stroke: #000000; stroke-width: 1.5;" width="115" x="906.5" y="225.7393"/><line style="stroke: #000000; stroke-width: 1.5;" x1="906.5" x2="1021.5" y1="254.2031" y2="254.2031"/><text fill="#000000" font-family="Roboto Condensed" font-size="14" lengthAdjust="spacingAndGlyphs" textLength="92" x="918" y="245.4092">DEFAULT_MODE</text><text fill="#000000" font-family="Roboto Condensed" font-size="12" lengthAdjust="spacingAndGlyphs" textLength="95" x="911.5" y="271.7773">split on whitespace</text><ellipse cx="926" cy="661.7393" fill="none" filter="url(#f1u843fgqgo2tw)" rx="10" ry="10" style="stroke: #000000; stroke-width: 1.0;"/><ellipse cx="926.5" cy="662.2393" fill="#000000" rx="6" ry="6" style="stroke: none; stroke-width: 1.0;"/><rect fill="#FFFFFF" filter="url(#f1u843fgqgo2tw)" height="54.29" rx="12.5" ry="12.5" style="stroke: #000000; stroke-width: 1.5;" width="140" x="505" y="455.7393"/><line style="stroke: #000000; stroke-width: 1.5;" x1="505" x2="645" y1="484.2031" y2="484.2031"/><text fill="#000000" font-family="Roboto Condensed" font-size="14" lengthAdjust="spacingAndGlyphs" textLength="96" x="527" y="475.4092">SEGMENT_MODE</text><text fill="#000000" font-family="Roboto Condensed" font-size="12" lengthAdjust="spacingAndGlyphs" textLength="120" x="510" y="501.7773">Boost text segmentation</text><rect fill="#FFFFFF" filter="url(#f1u843fgqgo2tw)" height="54.29" rx="12.5" ry="12.5" style="stroke: #000000; stroke-width: 1.5;" width="129" x="999.5" y="455.7393"/><line style="stroke: #000000; stroke-width: 1.5;" x1="999.5" x2="1128.5" y1="484.2031" y2="484.2031"/><text fill="#000000" font-family="Roboto Condensed" font-size="14" lengthAdjust="spacingAndGlyphs" textLength="109" x="1009.5" y="475.4092">NOSUGGEST_MODE</text><text fill="#000000" font-family="Roboto Condensed" font-size="12" lengthAdjust="spacingAndGlyphs" textLength="53" x="1004.5" y="501.7773">no suggest</text><rect fill="#FFFFFF" filter="url(#f1u843fgqgo2tw)" height="54.29" rx="12.5" ry="12.5" style="stroke: #000000; stroke-width: 1.5;" width="107" x="680.5" y="225.7393"/><line style="stroke: #000000; stroke-width: 1.5;" x1="680.5" x2="787.5" y1="254.2031" y2="254.2031"/><text fill="#000000" font-family="Roboto Condensed" font-size="14" lengthAdjust="spacingAndGlyphs" textLength="76" x="696" y="245.4092">ERROR_MODE</text><text fill="#000000" font-family="Roboto Condensed" font-size="12" lengthAdjust="spacingAndGlyphs" textLength="87" x="685.5" y="271.7773">return exit code 1</text><rect fill="#FFFFFF" filter="url(#f1u843fgqgo2tw)" height="54.29" rx="12.5" ry="12.5" style="stroke: #000000; stroke-width: 1.5;" width="198" x="692" y="455.7393"/><line style="stroke: #000000; stroke-width: 1.5;" x1="692" x2="890" y1="484.2031" y2="484.2031"/><text fill="#000000" font-family="Roboto Condensed" font-size="14" lengthAdjust="spacingAndGlyphs" textLength="171" x="705.5" y="475.4092">SEGMENT_NOSUGGEST_MODE</text><text fill="#000000" font-family="Roboto Condensed" font-size="12" lengthAdjust="spacingAndGlyphs" textLength="178" x="697" y="501.7773">Boost text segmentation, no suggest</text><rect fill="#FFFFFF" filter="url(#f1u843fgqgo2tw)" height="54.29" rx="12.5" ry="12.5" style="stroke: #000000; stroke-width: 1.5;" width="172" x="177" y="68.7393"/><line style="stroke: #000000; stroke-width: 1.5;" x1="177" x2="349" y1="97.2031" y2="97.2031"/><text fill="#000000" font-family="Roboto Condensed" font-size="14" lengthAdjust="spacingAndGlyphs" textLength="152" x="187" y="88.4092">LIST_DICTIONARIES_MODE</text><text fill="#000000" font-family="Roboto Condensed" font-size="12" lengthAdjust="spacingAndGlyphs" textLength="115" x="182" y="114.7773">print found dictionaries</text><ellipse cx="290" cy="580.7393" fill="none" filter="url(#f1u843fgqgo2tw)" rx="10" ry="10" style="stroke: #000000; stroke-width: 1.0;"/><ellipse cx="290.5" cy="581.2393" fill="#000000" rx="6" ry="6" style="stroke: none; stroke-width: 1.0;"/><rect fill="#FFFFFF" filter="url(#f1u843fgqgo2tw)" height="54.29" rx="12.5" ry="12.5" style="stroke: #000000; stroke-width: 1.5;" width="91" x="384.5" y="68.7393"/><line style="stroke: #000000; stroke-width: 1.5;" x1="384.5" x2="475.5" y1="97.2031" y2="97.2031"/><text fill="#000000" font-family="Roboto Condensed" font-size="14" lengthAdjust="spacingAndGlyphs" textLength="71" x="394.5" y="88.4092">HELP_MODE</text><text fill="#000000" font-family="Roboto Condensed" font-size="12" lengthAdjust="spacingAndGlyphs" textLength="69" x="389.5" y="114.7773">print help info</text><rect fill="#FFFFFF" filter="url(#f1u843fgqgo2tw)" height="54.29" rx="12.5" ry="12.5" style="stroke: #000000; stroke-width: 1.5;" width="110" x="32" y="68.7393"/><line style="stroke: #000000; stroke-width: 1.5;" x1="32" x2="142" y1="97.2031" y2="97.2031"/><text fill="#000000" font-family="Roboto Condensed" font-size="14" lengthAdjust="spacingAndGlyphs" textLength="90" x="42" y="88.4092">VERSION_MODE</text><text fill="#000000" font-family="Roboto Condensed" font-size="12" lengthAdjust="spacingAndGlyphs" textLength="83" x="37" y="114.7773">print version info</text><rect fill="#FFFFFF" filter="url(#f1u843fgqgo2tw)" height="54.29" rx="12.5" ry="12.5" style="stroke: #000000; stroke-width: 1.5;" width="107" x="167.5" y="340.7393"/><line style="stroke: #000000; stroke-width: 1.5;" x1="167.5" x2="274.5" y1="369.2031" y2="369.2031"/><text fill="#000000" font-family="Roboto Condensed" font-size="14" lengthAdjust="spacingAndGlyphs" textLength="76" x="183" y="360.4092">ERROR_MODE</text><text fill="#000000" font-family="Roboto Condensed" font-size="12" lengthAdjust="spacingAndGlyphs" textLength="87" x="172.5" y="386.7773">return exit code 1</text><rect fill="#FFFFFF" filter="url(#f1u843fgqgo2tw)" height="54.29" rx="12.5" ry="12.5" style="stroke: #000000; stroke-width: 1.5;" width="173" x="1221.5" y="340.7393"/><line style="stroke: #000000; stroke-width: 1.5;" x1="1221.5" x2="1394.5" y1="369.2031" y2="369.2031"/><text fill="#000000" font-family="Roboto Condensed" font-size="14" lengthAdjust="spacingAndGlyphs" textLength="153" x="1231.5" y="360.4092">MISSPELLED_LINES_MODE</text><text fill="#000000" font-family="Roboto Condensed" font-size="12" lengthAdjust="spacingAndGlyphs" textLength="97" x="1226.5" y="386.7773">print incorrent lines</text><ellipse cx="1539" cy="580.7393" fill="none" filter="url(#f1u843fgqgo2tw)" rx="10" ry="10" style="stroke: #000000; stroke-width: 1.0;"/><ellipse cx="1539.5" cy="581.2393" fill="#000000" rx="6" ry="6" style="stroke: none; stroke-width: 1.0;"/><rect fill="#FFFFFF" filter="url(#f1u843fgqgo2tw)" height="54.29" rx="12.5" ry="12.5" style="stroke: #000000; stroke-width: 1.5;" width="107" x="1485.5" y="340.7393"/><line style="stroke: #000000; stroke-width: 1.5;" x1="1485.5" x2="1592.5" y1="369.2031" y2="369.2031"/><text fill="#000000" font-family="Roboto Condensed" font-size="14" lengthAdjust="spacingAndGlyphs" textLength="76" x="1501" y="360.4092">ERROR_MODE</text><text fill="#000000" font-family="Roboto Condensed" font-size="12" lengthAdjust="spacingAndGlyphs" textLength="87" x="1490.5" y="386.7773">return exit code 1</text><rect fill="#FFFFFF" filter="url(#f1u843fgqgo2tw)" height="54.29" rx="12.5" ry="12.5" style="stroke: #000000; stroke-width: 1.5;" width="180" x="1164" y="68.7393"/><line style="stroke: #000000; stroke-width: 1.5;" x1="1164" x2="1344" y1="97.2031" y2="97.2031"/><text fill="#000000" font-family="Roboto Condensed" font-size="14" lengthAdjust="spacingAndGlyphs" textLength="160" x="1174" y="88.4092">MISSPELLED_WORDS_MODE</text><text fill="#000000" font-family="Roboto Condensed" font-size="12" lengthAdjust="spacingAndGlyphs" textLength="103" x="1169" y="114.7773">print incorrent words</text><rect fill="#FFFFFF" filter="url(#f1u843fgqgo2tw)" height="54.29" rx="12.5" ry="12.5" style="stroke: #000000; stroke-width: 1.5;" width="152" x="1683" y="340.7393"/><line style="stroke: #000000; stroke-width: 1.5;" x1="1683" x2="1835" y1="369.2031" y2="369.2031"/><text fill="#000000" font-family="Roboto Condensed" font-size="14" lengthAdjust="spacingAndGlyphs" textLength="132" x="1693" y="360.4092">CORRECT_LINES_MODE</text><text fill="#000000" font-family="Roboto Condensed" font-size="12" lengthAdjust="spacingAndGlyphs" textLength="88" x="1688" y="386.7773">print correct lines</text><rect fill="#FFFFFF" filter="url(#f1u843fgqgo2tw)" height="54.29" rx="12.5" ry="12.5" style="stroke: #000000; stroke-width: 1.5;" width="159" x="1642.5" y="68.7393"/><line style="stroke: #000000; stroke-width: 1.5;" x1="1642.5" x2="1801.5" y1="97.2031" y2="97.2031"/><text fill="#000000" font-family="Roboto Condensed" font-size="14" lengthAdjust="spacingAndGlyphs" textLength="139" x="1652.5" y="88.4092">CORRECT_WORDS_MODE</text><text fill="#000000" font-family="Roboto Condensed" font-size="12" lengthAdjust="spacingAndGlyphs" textLength="94" x="1647.5" y="114.7773">print correct words</text><rect fill="#FFFFFF" filter="url(#f1u843fgqgo2tw)" height="54.29" rx="12.5" ry="12.5" style="stroke: #000000; stroke-width: 1.5;" width="113" x="1425.5" y="68.7393"/><line style="stroke: #000000; stroke-width: 1.5;" x1="1425.5" x2="1538.5" y1="97.2031" y2="97.2031"/><text fill="#000000" font-family="Roboto Condensed" font-size="14" lengthAdjust="spacingAndGlyphs" textLength="74" x="1445" y="88.4092">LINES_MODE</text><text fill="#000000" font-family="Roboto Condensed" font-size="12" lengthAdjust="spacingAndGlyphs" textLength="93" x="1430.5" y="114.7773">intermediate mode</text><ellipse cx="964" cy="95.7393" fill="#000000" filter="url(#f1u843fgqgo2tw)" rx="10" ry="10" style="stroke: none; stroke-width: 1.0;"/><!--link DEFAULT_MODE to *end*wm--><path d="M963.6276,280.157 C963.3433,303.4556 963,337.7903 963,367.7393 C963,367.7393 963,367.7393 963,580.7393 C963,607.0796 946.6117,634.2365 935.6488,649.4564 " fill="none" id="DEFAULT_MODE-*end*wm" style="stroke: #000000; stroke-width: 1.0;"/><polygon fill="#000000" points="932.4449,653.7824,941.0158,648.9306,935.4208,649.7644,934.587,644.1693,932.4449,653.7824" style="stroke: #000000; stroke-width: 1.0;"/><!--link DEFAULT_MODE to DEFAULT_MODE--><path d="M1021.8125,242.2393 C1041.0833,242.2393 1056.5,245.7393 1056.5,252.7393 C1056.5,259.083 1043.8385,262.5523 1027.1213,263.147 " fill="none" id="DEFAULT_MODE-DEFAULT_MODE" style="stroke: #000000; stroke-width: 1.0;"/><polygon fill="#000000" points="1021.8125,263.2393,1030.8807,267.082,1026.8117,263.1523,1030.7415,259.0833,1021.8125,263.2393" style="stroke: #000000; stroke-width: 1.0;"/><rect fill="none" height="6" style="stroke: #C82930; stroke-width: 1.0;" width="6" x="1064.5" y="250.3843"/><text fill="#000000" font-family="Roboto Condensed" font-size="13" lengthAdjust="spacingAndGlyphs" textLength="29" x="1074.5" y="249.3613">d or -i</text><text fill="#000000" font-family="Roboto Condensed" font-size="13" lengthAdjust="spacingAndGlyphs" textLength="65" x="1074.5" y="266.5063">with operand</text><!--link DEFAULT_MODE to SEGMENT_MODE--><path d="M918.2329,279.7996 C844.8819,323.169 701.5276,407.9287 625.3646,452.9608 " fill="none" id="DEFAULT_MODE-SEGMENT_MODE" style="stroke: #000000; stroke-width: 1.0;"/><polygon fill="#000000" points="620.8941,455.604,630.6771,454.4667,625.1981,453.0592,626.6055,447.5803,620.8941,455.604" style="stroke: #000000; stroke-width: 1.0;"/><text fill="#000000" font-family="Roboto Condensed" font-size="13" lengthAdjust="spacingAndGlyphs" textLength="10" x="815" y="372.8613">-S</text><!--link DEFAULT_MODE to NOSUGGEST_MODE--><path d="M975.864,280.0265 C994.4333,322.7358 1030.2802,405.1838 1050.0554,450.6667 " fill="none" id="DEFAULT_MODE-NOSUGGEST_MODE" style="stroke: #000000; stroke-width: 1.0;"/><polygon fill="#000000" points="1052.1514,455.4876,1052.2309,445.639,1050.1577,450.9022,1044.8944,448.829,1052.1514,455.4876" style="stroke: #000000; stroke-width: 1.0;"/><text fill="#000000" font-family="Roboto Condensed" font-size="13" lengthAdjust="spacingAndGlyphs" textLength="10" x="1026" y="372.8613">-U</text><!--link e1 to DEFAULT_MODE--><path d="M792.708,252.7393 C827.5603,252.7393 871.5689,252.7393 906.2512,252.7393 " fill="none" id="e1-DEFAULT_MODE" style="stroke: #000000; stroke-width: 1.0;"/><polygon fill="#000000" points="787.6345,252.7393,796.6345,256.7393,792.6345,252.7393,796.6345,248.7393,787.6345,252.7393" style="stroke: #000000; stroke-width: 1.0;"/><text fill="#000000" font-family="Roboto Condensed" font-size="13" lengthAdjust="spacingAndGlyphs" textLength="29" x="806" y="228.3613">d or -i</text><text fill="#000000" font-family="Roboto Condensed" font-size="13" lengthAdjust="spacingAndGlyphs" textLength="82" x="806" y="245.5063">without operand</text><!--link NOSUGGEST_MODE to *end*wm--><path d="M1049.0177,509.8659 C1032.2461,539.0451 1003.2895,586.0544 972,621.7393 C961.7139,633.4703 948.0201,644.9552 938.2543,652.5872 " fill="none" id="NOSUGGEST_MODE-*end*wm" style="stroke: #000000; stroke-width: 1.0;"/><polygon fill="#000000" points="934.0701,655.8097,943.6412,653.4873,938.0315,652.7588,938.7599,647.1491,934.0701,655.8097" style="stroke: #000000; stroke-width: 1.0;"/><!--link SEGMENT_NOSUGGEST_MODE to NOSUGGEST_MODE--><path d="M895.4579,482.7393 C930.3567,482.7393 968.2172,482.7393 999.1974,482.7393 " fill="none" id="SEGMENT_NOSUGGEST_MODE-NOSUGGEST_MODE" style="stroke: #000000; stroke-width: 1.0;"/><polygon fill="#000000" points="890.3315,482.7393,899.3315,486.7393,895.3315,482.7393,899.3315,478.7393,890.3315,482.7393" style="stroke: #000000; stroke-width: 1.0;"/><text fill="#000000" font-family="Roboto Condensed" font-size="13" lengthAdjust="spacingAndGlyphs" textLength="10" x="939.75" y="475.3613">-S</text><!--link SEGMENT_MODE to *end*wm--><path d="M628.3093,509.9255 C711.021,552.1062 865.6171,630.9457 912.3045,654.755 " fill="none" id="SEGMENT_MODE-*end*wm" style="stroke: #000000; stroke-width: 1.0;"/><polygon fill="#000000" points="916.9694,657.134,910.769,649.4818,912.5152,654.8624,907.1346,656.6086,916.9694,657.134" style="stroke: #000000; stroke-width: 1.0;"/><!--link SEGMENT_MODE to SEGMENT_NOSUGGEST_MODE--><path d="M645.129,482.7393 C658.4041,482.7393 672.5532,482.7393 686.6204,482.7393 " fill="none" id="SEGMENT_MODE-SEGMENT_NOSUGGEST_MODE" style="stroke: #000000; stroke-width: 1.0;"/><polygon fill="#000000" points="691.7976,482.7393,682.7976,478.7393,686.7976,482.7393,682.7976,486.7393,691.7976,482.7393" style="stroke: #000000; stroke-width: 1.0;"/><text fill="#000000" font-family="Roboto Condensed" font-size="13" lengthAdjust="spacingAndGlyphs" textLength="10" x="663.5" y="475.3613">-U</text><!--link SEGMENT_NOSUGGEST_MODE to *end*wm--><path d="M811.5036,509.9255 C841.1902,549.2879 894.9536,620.574 916.5979,649.2728 " fill="none" id="SEGMENT_NOSUGGEST_MODE-*end*wm" style="stroke: #000000; stroke-width: 1.0;"/><polygon fill="#000000" points="919.7873,653.5018,917.5616,643.9077,916.7766,649.5098,911.1745,648.7248,919.7873,653.5018" style="stroke: #000000; stroke-width: 1.0;"/><!--link e1 to *end*wm--><path d="M754.7248,279.7499 C777.2429,308.7549 814.6152,355.907 849,394.7393 C874.0042,422.9777 892.3471,421.4231 908,455.7393 C937.9812,521.4679 931.95,611.1509 927.9974,646.5143 " fill="none" id="e1-*end*wm" style="stroke: #000000; stroke-width: 1.0;"/><polygon fill="#000000" points="927.3867,651.7115,932.4098,643.2398,927.9703,646.7456,924.4645,642.3061,927.3867,651.7115" style="stroke: #000000; stroke-width: 1.0;"/><!--link LIST_DICTIONARIES_MODE to *end*im--><path d="M277.6215,122.7534 C287.6589,142.6236 300.3293,170.6091 307,196.7393 C313.1809,220.9507 312,227.7514 312,252.7393 C312,252.7393 312,252.7393 312,482.7393 C312,513.023 301.8748,547.3204 295.3625,566.2481 " fill="none" id="LIST_DICTIONARIES_MODE-*end*im" style="stroke: #000000; stroke-width: 1.0;"/><polygon fill="#000000" points="293.6329,571.163,300.3937,564.0012,295.2927,566.4465,292.8474,561.3455,293.6329,571.163" style="stroke: #000000; stroke-width: 1.0;"/><!--link HELP_MODE to *end*im--><path d="M434.8278,122.9486 C440.339,159.2094 447.1293,225.1471 435,279.7393 C408.283,399.9892 326.1082,527.869 298.8725,567.9676 " fill="none" id="HELP_MODE-*end*im" style="stroke: #000000; stroke-width: 1.0;"/><polygon fill="#000000" points="295.8308,572.4161,304.2126,567.2444,298.6529,568.2886,297.6087,562.729,295.8308,572.4161" style="stroke: #000000; stroke-width: 1.0;"/><!--link VERSION_MODE to *end*im--><path d="M68.4885,122.7397 C49.5869,152.9901 23,204.1722 23,252.7393 C23,252.7393 23,252.7393 23,482.7393 C23,536.7927 218.2862,570.0686 274.8315,578.5707 " fill="none" id="VERSION_MODE-*end*im" style="stroke: #000000; stroke-width: 1.0;"/><polygon fill="#000000" points="279.8593,579.316,271.5433,574.0393,274.9134,578.5827,270.37,581.9528,279.8593,579.316" style="stroke: #000000; stroke-width: 1.0;"/><!--link LIST_DICTIONARIES_MODE to e2--><path d="M258.6078,123.1671 C255.3669,143.477 250.867,171.8278 247,196.7393 C239.5234,244.904 231.0754,300.7362 225.8936,335.1497 " fill="none" id="LIST_DICTIONARIES_MODE-e2" style="stroke: #000000; stroke-width: 1.0;"/><polygon fill="#000000" points="225.0906,340.4845,230.3855,332.18,225.8347,335.5401,222.4746,330.9894,225.0906,340.4845" style="stroke: #000000; stroke-width: 1.0;"/><text fill="#000000" font-family="Roboto Condensed" font-size="13" lengthAdjust="spacingAndGlyphs" textLength="27" x="248" y="249.3613">other</text><text fill="#000000" font-family="Roboto Condensed" font-size="13" lengthAdjust="spacingAndGlyphs" textLength="54" x="248" y="266.5063">arguments</text><!--link HELP_MODE to e2--><path d="M414.995,122.9127 C393.9626,159.9888 353.5,227.7554 311,279.7393 C294.4116,300.0295 273.6135,320.6221 256.1906,336.7806 " fill="none" id="HELP_MODE-e2" style="stroke: #000000; stroke-width: 1.0;"/><polygon fill="#000000" points="252.2987,340.3687,261.627,337.2091,255.9748,336.9795,256.2044,331.3273,252.2987,340.3687" style="stroke: #000000; stroke-width: 1.0;"/><text fill="#000000" font-family="Roboto Condensed" font-size="13" lengthAdjust="spacingAndGlyphs" textLength="27" x="372" y="249.3613">other</text><text fill="#000000" font-family="Roboto Condensed" font-size="13" lengthAdjust="spacingAndGlyphs" textLength="54" x="372" y="266.5063">arguments</text><!--link VERSION_MODE to e2--><path d="M98.5073,122.9102 C114.049,159.1285 143.0331,225.0192 171,279.7393 C180.7217,298.7608 192.4858,319.5616 202.1601,336.1622 " fill="none" id="VERSION_MODE-e2" style="stroke: #000000; stroke-width: 1.0;"/><polygon fill="#000000" points="204.8299,340.728,203.74,330.9396,202.3061,336.4117,196.834,334.9777,204.8299,340.728" style="stroke: #000000; stroke-width: 1.0;"/><text fill="#000000" font-family="Roboto Condensed" font-size="13" lengthAdjust="spacingAndGlyphs" textLength="27" x="172" y="249.3613">other</text><text fill="#000000" font-family="Roboto Condensed" font-size="13" lengthAdjust="spacingAndGlyphs" textLength="54" x="172" y="266.5063">arguments</text><!--link e2 to *end*im--><path d="M229.8793,395.1493 C244.658,440.7706 273.8065,530.7507 285.2392,566.0428 " fill="none" id="e2-*end*im" style="stroke: #000000; stroke-width: 1.0;"/><polygon fill="#000000" points="286.7936,570.8412,287.8251,561.0465,285.2526,566.0846,280.2145,563.5121,286.7936,570.8412" style="stroke: #000000; stroke-width: 1.0;"/><!--link MISSPELLED_LINES_MODE to *end*cm--><path d="M1337.7263,395.1493 C1389.2478,442.6561 1492.9354,538.2642 1527.4957,570.1314 " fill="none" id="MISSPELLED_LINES_MODE-*end*cm" style="stroke: #000000; stroke-width: 1.0;"/><polygon fill="#000000" points="1531.3595,573.6941,1527.4543,564.6525,1527.6836,570.3047,1522.0314,570.534,1531.3595,573.6941" style="stroke: #000000; stroke-width: 1.0;"/><!--link MISSPELLED_LINES_MODE to e3--><path d="M1394.6731,367.7393 C1423.238,367.7393 1454.3159,367.7393 1480.2917,367.7393 " fill="none" id="MISSPELLED_LINES_MODE-e3" style="stroke: #000000; stroke-width: 1.0;"/><polygon fill="#000000" points="1485.4165,367.7393,1476.4165,363.7393,1480.4165,367.7393,1476.4165,371.7393,1485.4165,367.7393" style="stroke: #000000; stroke-width: 1.0;"/><text fill="#000000" font-family="Roboto Condensed" font-size="13" lengthAdjust="spacingAndGlyphs" textLength="27" x="1413" y="343.3613">other</text><text fill="#000000" font-family="Roboto Condensed" font-size="13" lengthAdjust="spacingAndGlyphs" textLength="54" x="1413" y="360.5063">arguments</text><!--link MISSPELLED_WORDS_MODE to *end*cm--><path d="M1227.0555,122.8952 C1200.8605,152.2884 1165,201.825 1165,252.7393 C1165,252.7393 1165,252.7393 1165,482.7393 C1165,558.2975 1454.2523,576.7524 1524.001,580.1041 " fill="none" id="MISSPELLED_WORDS_MODE-*end*cm" style="stroke: #000000; stroke-width: 1.0;"/><polygon fill="#000000" points="1528.9964,580.3361,1520.1917,575.9228,1524.0018,580.1041,1519.8205,583.9141,1528.9964,580.3361" style="stroke: #000000; stroke-width: 1.0;"/><!--link MISSPELLED_WORDS_MODE to MISSPELLED_LINES_MODE--><path d="M1251.817,122.7917 C1249.6684,159.1574 1248.5276,225.5076 1263,279.7393 C1268.2574,299.4401 1278.3296,319.8119 1287.6142,335.9871 " fill="none" id="MISSPELLED_WORDS_MODE-MISSPELLED_LINES_MODE" style="stroke: #000000; stroke-width: 1.0;"/><polygon fill="#000000" points="1290.2073,340.434,1289.129,330.6443,1287.6886,336.1147,1282.2182,334.6742,1290.2073,340.434" style="stroke: #000000; stroke-width: 1.0;"/><text fill="#000000" font-family="Roboto Condensed" font-size="13" lengthAdjust="spacingAndGlyphs" textLength="9" x="1264" y="257.8613">-L</text><!--link MISSPELLED_WORDS_MODE to e3--><path d="M1260.3375,122.9276 C1271.3875,168.3042 1295.0965,256.7695 1317,279.7393 C1360.4285,325.2819 1430.4025,347.755 1480.1759,358.5047 " fill="none" id="MISSPELLED_WORDS_MODE-e3" style="stroke: #000000; stroke-width: 1.0;"/><polygon fill="#000000" points="1485.2307,359.5712,1477.2506,353.799,1480.3385,358.5387,1475.5987,361.6266,1485.2307,359.5712" style="stroke: #000000; stroke-width: 1.0;"/><text fill="#000000" font-family="Roboto Condensed" font-size="13" lengthAdjust="spacingAndGlyphs" textLength="27" x="1318" y="249.3613">other</text><text fill="#000000" font-family="Roboto Condensed" font-size="13" lengthAdjust="spacingAndGlyphs" textLength="54" x="1318" y="266.5063">arguments</text><!--link CORRECT_LINES_MODE to *end*cm--><path d="M1730.6892,395.1493 C1681.6211,442.6561 1582.871,538.2642 1549.9565,570.1314 " fill="none" id="CORRECT_LINES_MODE-*end*cm" style="stroke: #000000; stroke-width: 1.0;"/><polygon fill="#000000" points="1546.2767,573.6941,1555.5251,570.3077,1549.869,570.2162,1549.9605,564.5601,1546.2767,573.6941" style="stroke: #000000; stroke-width: 1.0;"/><!--link e3 to CORRECT_LINES_MODE--><path d="M1597.6874,367.7393 C1623.7837,367.7393 1654.8458,367.7393 1682.7125,367.7393 " fill="none" id="e3-CORRECT_LINES_MODE" style="stroke: #000000; stroke-width: 1.0;"/><polygon fill="#000000" points="1592.5367,367.7393,1601.5367,371.7393,1597.5367,367.7393,1601.5367,363.7393,1592.5367,367.7393" style="stroke: #000000; stroke-width: 1.0;"/><text fill="#000000" font-family="Roboto Condensed" font-size="13" lengthAdjust="spacingAndGlyphs" textLength="27" x="1610.75" y="343.3613">other</text><text fill="#000000" font-family="Roboto Condensed" font-size="13" lengthAdjust="spacingAndGlyphs" textLength="54" x="1610.75" y="360.5063">arguments</text><!--link CORRECT_WORDS_MODE to *end*cm--><path d="M1783.2364,122.9831 C1830.8981,148.8252 1889,192.6508 1889,252.7393 C1889,252.7393 1889,252.7393 1889,482.7393 C1889,553.3211 1621.7224,575.3819 1554.2994,579.824 " fill="none" id="CORRECT_WORDS_MODE-*end*cm" style="stroke: #000000; stroke-width: 1.0;"/><polygon fill="#000000" points="1549.0974,580.1576,1558.3349,583.5734,1554.0871,579.8376,1557.823,575.5898,1549.0974,580.1576" style="stroke: #000000; stroke-width: 1.0;"/><!--link CORRECT_WORDS_MODE to CORRECT_LINES_MODE--><path d="M1747.6507,122.8308 C1755.0735,131.8078 1762.6164,142.2095 1768,152.7393 C1777.2274,170.787 1777.3095,176.6489 1780,196.7393 C1784.8964,233.3018 1784.3108,243.1032 1780,279.7393 C1777.7877,298.5412 1773.0034,319.1458 1768.5594,335.6876 " fill="none" id="CORRECT_WORDS_MODE-CORRECT_LINES_MODE" style="stroke: #000000; stroke-width: 1.0;"/><polygon fill="#000000" points="1767.1944,340.6844,1773.4249,333.0567,1768.5121,335.8611,1765.7077,330.9483,1767.1944,340.6844" style="stroke: #000000; stroke-width: 1.0;"/><text fill="#000000" font-family="Roboto Condensed" font-size="13" lengthAdjust="spacingAndGlyphs" textLength="9" x="1784" y="257.8613">-L</text><!--link CORRECT_WORDS_MODE to e3--><path d="M1703.7842,122.8141 C1669.7539,173.3947 1596.6943,281.9861 1560.3869,335.9511 " fill="none" id="CORRECT_WORDS_MODE-e3" style="stroke: #000000; stroke-width: 1.0;"/><polygon fill="#000000" points="1557.4137,340.3703,1565.7564,335.1359,1560.2048,336.2218,1559.1189,330.6701,1557.4137,340.3703" style="stroke: #000000; stroke-width: 1.0;"/><text fill="#000000" font-family="Roboto Condensed" font-size="13" lengthAdjust="spacingAndGlyphs" textLength="27" x="1654" y="249.3613">other</text><text fill="#000000" font-family="Roboto Condensed" font-size="13" lengthAdjust="spacingAndGlyphs" textLength="54" x="1654" y="266.5063">arguments</text><!--link LINES_MODE to MISSPELLED_LINES_MODE--><path d="M1469.1415,122.8782 C1451.2808,159.6253 1417.068,226.7068 1381,279.7393 C1367.5187,299.5615 1350.5113,320.2653 1336.3049,336.6077 " fill="none" id="LINES_MODE-MISSPELLED_LINES_MODE" style="stroke: #000000; stroke-width: 1.0;"/><polygon fill="#000000" points="1332.7572,340.6654,1341.6923,336.5225,1336.0482,336.9011,1335.6695,331.2569,1332.7572,340.6654" style="stroke: #000000; stroke-width: 1.0;"/><text fill="#000000" font-family="Roboto Condensed" font-size="13" lengthAdjust="spacingAndGlyphs" textLength="6" x="1431" y="257.8613">-l</text><!--link LINES_MODE to CORRECT_LINES_MODE--><path d="M1538.7536,105.218 C1592.51,117.1972 1671.5744,143.1204 1717,196.7393 C1750.3365,236.0887 1757.9754,297.8372 1759.3086,335.3743 " fill="none" id="LINES_MODE-CORRECT_LINES_MODE" style="stroke: #000000; stroke-width: 1.0;"/><polygon fill="#000000" points="1759.4619,340.7314,1763.2026,331.6205,1759.3188,335.7334,1755.2059,331.8496,1759.4619,340.7314" style="stroke: #000000; stroke-width: 1.0;"/><text fill="#000000" font-family="Roboto Condensed" font-size="13" lengthAdjust="spacingAndGlyphs" textLength="11" x="1753" y="257.8613">-G</text><!--link LINES_MODE to e3--><path d="M1487.6738,122.8141 C1498.2308,173.1916 1520.8471,281.1148 1532.2017,335.2982 " fill="none" id="LINES_MODE-e3" style="stroke: #000000; stroke-width: 1.0;"/><polygon fill="#000000" points="1533.2646,340.3703,1535.3333,330.7411,1532.2389,335.4766,1527.5034,332.3822,1533.2646,340.3703" style="stroke: #000000; stroke-width: 1.0;"/><text fill="#000000" font-family="Roboto Condensed" font-size="13" lengthAdjust="spacingAndGlyphs" textLength="40" x="1521" y="249.3613">missing</text><text fill="#000000" font-family="Roboto Condensed" font-size="13" lengthAdjust="spacingAndGlyphs" textLength="34" x="1521" y="266.5063">-G or -l</text><!--link e3 to *end*cm--><path d="M1539,395.1493 C1539,440.3703 1539,529.1751 1539,565.1013 " fill="none" id="e3-*end*cm" style="stroke: #000000; stroke-width: 1.0;"/><polygon fill="#000000" points="1539,570.3984,1543,561.3984,1539,565.3984,1535,561.3984,1539,570.3984" style="stroke: #000000; stroke-width: 1.0;"/><!--link *start to DEFAULT_MODE--><path d="M964,106.0405 C964,128.8631 964,184.4932 964,220.3131 " fill="none" id="*start-DEFAULT_MODE" style="stroke: #000000; stroke-width: 1.0;"/><polygon fill="#000000" points="964,225.448,968,216.448,964,220.448,960,216.448,964,225.448" style="stroke: #000000; stroke-width: 1.0;"/><!--link LIST_DICTIONARIES_MODE to DEFAULT_MODE--><path d="M354.1623,120.1086 C358.4914,121.0447 362.7869,121.9281 367,122.7393 C470.8257,142.7312 498.8492,134.5165 603,152.7393 C675.2254,165.3762 692.2328,173.7169 764,188.7393 C782.172,192.5431 787.0855,191.8648 805,196.7393 C839.1698,206.0369 876.5597,219.056 906.492,230.2014 " fill="none" id="LIST_DICTIONARIES_MODE-DEFAULT_MODE" style="stroke: #000000; stroke-width: 1.0;"/><polygon fill="#000000" points="349.0678,118.9867,356.9968,124.8288,353.9508,120.0621,358.7175,117.016,349.0678,118.9867" style="stroke: #000000; stroke-width: 1.0;"/><text fill="#000000" font-family="Roboto Condensed" font-size="13" lengthAdjust="spacingAndGlyphs" textLength="10" x="765" y="175.8613">-D</text><!--link HELP_MODE to DEFAULT_MODE--><path d="M481.0011,98.402 C551.0282,103.2916 680.0909,116.7558 784,152.7393 C835.5153,170.5789 889.5302,202.6505 924.7857,225.6674 " fill="none" id="HELP_MODE-DEFAULT_MODE" style="stroke: #000000; stroke-width: 1.0;"/><polygon fill="#000000" points="475.6497,98.0371,484.3566,102.6403,480.6381,98.3773,484.9011,94.6588,475.6497,98.0371" style="stroke: #000000; stroke-width: 1.0;"/><text fill="#000000" font-family="Roboto Condensed" font-size="13" lengthAdjust="spacingAndGlyphs" textLength="9" x="862" y="167.3613">-h</text><text fill="#000000" font-family="Roboto Condensed" font-size="13" lengthAdjust="spacingAndGlyphs" textLength="27" x="862" y="184.5063">--help</text><!--link VERSION_MODE to DEFAULT_MODE--><path d="M146.8651,119.1639 C150.9447,120.458 155.0161,121.6658 159,122.7393 C328.7435,168.478 374.0706,171.2866 549,188.7393 C605.6355,194.3898 749.0539,186.2732 805,196.7393 C839.5206,203.1972 876.6147,215.9055 906.2845,227.5855 " fill="none" id="VERSION_MODE-DEFAULT_MODE" style="stroke: #000000; stroke-width: 1.0;"/><polygon fill="#000000" points="142.0768,117.6081,149.4002,124.1935,146.8321,119.1532,151.8724,116.5851,142.0768,117.6081" style="stroke: #000000; stroke-width: 1.0;"/><text fill="#000000" font-family="Roboto Condensed" font-size="13" lengthAdjust="spacingAndGlyphs" textLength="9" x="550" y="167.3613">-v</text><text fill="#000000" font-family="Roboto Condensed" font-size="13" lengthAdjust="spacingAndGlyphs" textLength="44" x="550" y="184.5063">--version</text><!--link CORRECT_WORDS_MODE to DEFAULT_MODE--><path d="M1637.1071,110.0909 C1489.0403,135.2094 1194.8034,185.5429 1148,196.7393 C1105.1332,206.9939 1057.5528,221.5621 1021.5168,233.2692 " fill="none" id="CORRECT_WORDS_MODE-DEFAULT_MODE" style="stroke: #000000; stroke-width: 1.0;"/><polygon fill="#000000" points="1642.3119,109.2081,1632.7697,106.7694,1637.3823,110.0442,1634.1076,114.6568,1642.3119,109.2081" style="stroke: #000000; stroke-width: 1.0;"/><text fill="#000000" font-family="Roboto Condensed" font-size="13" lengthAdjust="spacingAndGlyphs" textLength="11" x="1378" y="175.8613">-G</text><!--link MISSPELLED_WORDS_MODE to DEFAULT_MODE--><path d="M1158.4074,106.434 C1118.2736,114.4226 1072.725,128.3748 1037,152.7393 C1010.1852,171.027 989.6057,202.5325 977.235,225.3003 " fill="none" id="MISSPELLED_WORDS_MODE-DEFAULT_MODE" style="stroke: #000000; stroke-width: 1.0;"/><polygon fill="#000000" points="1163.7791,105.3936,1154.1827,103.1781,1158.8703,106.3444,1155.704,111.0321,1163.7791,105.3936" style="stroke: #000000; stroke-width: 1.0;"/><text fill="#000000" font-family="Roboto Condensed" font-size="13" lengthAdjust="spacingAndGlyphs" textLength="6" x="1038" y="175.8613">-l</text><!--link LINES_MODE to DEFAULT_MODE--><path d="M1420.2834,111.0189 C1401.6404,115.257 1381.0608,119.5618 1362,122.7393 C1241.162,142.8834 1199.494,101.9782 1088,152.7393 C1066.5313,162.5136 1067.1116,173.626 1049,188.7393 C1033.9661,201.2844 1016.8091,214.4133 1001.8647,225.4916 " fill="none" id="LINES_MODE-DEFAULT_MODE" style="stroke: #000000; stroke-width: 1.0;"/><polygon fill="#000000" points="1425.4874,109.8263,1415.8213,107.938,1420.6138,110.9433,1417.6085,115.7358,1425.4874,109.8263" style="stroke: #000000; stroke-width: 1.0;"/><text fill="#000000" font-family="Roboto Condensed" font-size="13" lengthAdjust="spacingAndGlyphs" textLength="9" x="1089" y="175.8613">-L</text><!--
@startuml
skinparam BackgroundColor White|White
skinparam ArrowColor Black
skinparam DefaultFontName Roboto Condensed
skinparam TitleFontStyle Bold

skinparam NoteBackgroundColor White
skinparam NoteBorderColor Black

skinparam UsecaseBackgroundColor White
skinparam ActorBackgroundColor White
skinparam UsecaseBorderColor Black
skinparam ActorBorderColor Black

skinparam usecase {
	BackgroundColor<<for now out of scope>> Gray
}

skinparam StateBackgroundColor White
skinparam StateBorderColor Black

skinparam ActivityBackgroundColor White
skinparam ActivityDiamondBackgroundColor White
skinparam ActivityBorderColor Black
skinparam ActivityDiamondBorderColor Black

skinparam ClassBackgroundColor White
skinparam ClassBorderColor Black
hide empty members

title Nuspell - Command-line Arguments

state "Word Modes" as wm {
	DEFAULT_MODE : split on whitespace
	DEFAULT_MODE - -> [*]
	DEFAULT_MODE - -> DEFAULT_MODE : -d or -i\lwith operand
	DEFAULT_MODE -down-> SEGMENT_MODE : -S
	DEFAULT_MODE -down-> NOSUGGEST_MODE : -U
	DEFAULT_MODE -left-> e1 : -d or -i\lwithout operand
	NOSUGGEST_MODE : no suggest
	NOSUGGEST_MODE - -> [*]
	NOSUGGEST_MODE -left-> SEGMENT_NOSUGGEST_MODE : -S
	SEGMENT_MODE : Boost text segmentation
	SEGMENT_MODE - -> [*]
	SEGMENT_MODE -right-> SEGMENT_NOSUGGEST_MODE : -U
	SEGMENT_NOSUGGEST_MODE : Boost text segmentation, no suggest
	SEGMENT_NOSUGGEST_MODE - -> [*]
	state "ERROR_MODE" as e1
	e1 : return exit code 1
	e1 - -> [*]
}

state "Information Modes" as im {
	LIST_DICTIONARIES_MODE - -> [*]
	HELP_MODE : print help info
	HELP_MODE - -> [*]
	VERSION_MODE : print version info
	VERSION_MODE - -> [*]
	LIST_DICTIONARIES_MODE : print found dictionaries
	LIST_DICTIONARIES_MODE - -> e2 : other\larguments
	HELP_MODE - -> e2 : other\larguments
	VERSION_MODE - -> e2 : other\larguments
	state "ERROR_MODE" as e2
	e2 : return exit code 1
	e2 - -> [*]
}

state "Correctness Modes" as cm {
	MISSPELLED_LINES_MODE : print incorrent lines
	MISSPELLED_LINES_MODE - -> [*]
	MISSPELLED_LINES_MODE -right-> e3 : other\larguments
	MISSPELLED_WORDS_MODE : print incorrent words
	MISSPELLED_WORDS_MODE - -> [*]
	MISSPELLED_WORDS_MODE - -> MISSPELLED_LINES_MODE : -L
	MISSPELLED_WORDS_MODE - -> e3 : other\larguments
	CORRECT_LINES_MODE : print correct lines
	CORRECT_LINES_MODE - -> [*]
	CORRECT_LINES_MODE -left-> e3 : other\larguments
	CORRECT_WORDS_MODE : print correct words
	CORRECT_WORDS_MODE - -> [*]
	CORRECT_WORDS_MODE - -> CORRECT_LINES_MODE : -L
	CORRECT_WORDS_MODE - -> e3 : other\larguments
	LINES_MODE : intermediate mode
	LINES_MODE - -> MISSPELLED_LINES_MODE : -l
	LINES_MODE - -> CORRECT_LINES_MODE : -G
	LINES_MODE - -> e3 : missing\l-G or -l
	state "ERROR_MODE" as e3
	e3 : return exit code 1
	e3 - -> [*]
}

[*] - -> DEFAULT_MODE

DEFAULT_MODE -up-> LIST_DICTIONARIES_MODE : -D
DEFAULT_MODE -up-> HELP_MODE : -h\l- -help
DEFAULT_MODE -up-> VERSION_MODE : -v\l- -version

DEFAULT_MODE -up-> CORRECT_WORDS_MODE : -G
DEFAULT_MODE -up-> MISSPELLED_WORDS_MODE : -l
DEFAULT_MODE -up-> LINES_MODE : -L

@enduml

PlantUML version 1.2018.12beta6(Unknown compile time)
(GPL source distribution)
Java Runtime: OpenJDK Runtime Environment
JVM: OpenJDK 64-Bit Server VM
Java Version: 10.0.2+13-Ubuntu-1ubuntu0.18.04.2
Operating System: Linux
OS Version: 4.15.0-36-generic
Default Encoding: UTF-8
Language: en
Country: US
--></g></svg>