<?xml version="1.0" encoding="UTF-8" standalone="no"?><svg xmlns="http://www.w3.org/2000/svg" xmlns:xlink="http://www.w3.org/1999/xlink" contentScriptType="application/ecmascript" contentStyleType="text/css" height="690px" preserveAspectRatio="none" style="width:1907px;height:690px;" version="1.1" viewBox="0 0 1907 690" width="1907px" zoomAndPan="magnify"><defs><linearGradient id="g1dohlj0zevxaw0" x1="0%" x2="100%" y1="50%" y2="50%"><stop offset="0%" stop-color="#FFFFFF"/><stop offset="100%" stop-color="#FFFFFF"/></linearGradient><filter height="300%" id="f1dohlj0zevxaw" width="300%" x="-1" y="-1"><feGaussianBlur result="blurOut" stdDeviation="2.0"/><feColorMatrix in="blurOut" result="blurOut2" type="matrix" values="0 0 0 0 0 0 0 0 0 0 0 0 0 0 0 0 0 0 .4 0"/><feOffset dx="4.0" dy="4.0" in="blurOut2" result="blurOut3"/><feBlend in="SourceGraphic" in2="blurOut3" mode="normal"/></filter></defs><g><rect fill="url(#g1dohlj0zevxaw0)" height="690" style="stroke: none; stroke-width: 1.0;" width="1907" x="0" y="0"/><text fill="#000000" font-family="Roboto Condensed" font-size="18" font-weight="bold" lengthAdjust="spacingAndGlyphs" textLength="261" x="830" y="18.8613">Nuspell - Command-line Arguments</text><!--cluster wm--><rect fill="#FFFFFF" filter="url(#f1dohlj0zevxaw)" height="483" rx="12.5" ry="12.5" style="stroke: #000000; stroke-width: 1.5;" width="640" x="497" y="196.7393"/><rect fill="url(#g1dohlj0zevxaw0)" height="448.5361" rx="12.5" ry="12.5" style="stroke: url(#g1dohlj0zevxaw0); stroke-width: 1.0;" width="634" x="500" y="228.2031"/><line style="stroke: #000000; stroke-width: 1.5;" x1="497" x2="1137" y1="225.2031" y2="225.2031"/><text fill="#000000" font-family="Roboto Condensed" font-size="14" lengthAdjust="spacingAndGlyphs" textLength="70" x="782" y="215.4092">Word Modes</text><!--cluster im--><rect fill="#FFFFFF" filter="url(#f1dohlj0zevxaw)" height="559" rx="12.5" ry="12.5" style="stroke: #000000; stroke-width: 1.5;" width="470" x="14" y="39.7393"/><rect fill="url(#g1dohlj0zevxaw0)" height="524.5361" rx="12.5" ry="12.5" style="stroke: url(#g1dohlj0zevxaw0); stroke-width: 1.0;" width="464" x="17" y="71.2031"/><line style="stroke: #000000; stroke-width: 1.5;" x1="14" x2="484" y1="68.2031" y2="68.2031"/><text fill="#000000" font-family="Roboto Condensed" font-size="14" lengthAdjust="spacingAndGlyphs" textLength="106" x="196" y="58.4092">Information Modes</text><!--cluster cm--><rect fill="#FFFFFF" filter="url(#f1dohlj0zevxaw)" height="559" rx="12.5" ry="12.5" style="stroke: #000000; stroke-width: 1.5;" width="742" x="1153" y="39.7393"/><rect fill="url(#g1dohlj0zevxaw0)" height="524.5361" rx="12.5" ry="12.5" style="stroke: url(#g1dohlj0zevxaw0); stroke-width: 1.0;" width="736" x="1156" y="71.2031"/><line style="stroke: #000000; stroke-width: 1.5;" x1="1153" x2="1895" y1="68.2031" y2="68.2031"/><text fill="#000000" font-family="Roboto Condensed" font-size="14" lengthAdjust="spacingAndGlyphs" textLength="107" x="1470.5" y="58.4092">Correctness Modes</text><rect fill="#FFFFFF" filter="url(#f1dohlj0zevxaw)" height="54.29" rx="12.5" ry="12.5" style="stroke: #000000; stroke-width: 1.5;" width="115" x="909.5" y="225.7393"/><line style="stroke: #000000; stroke-width: 1.5;" x1="909.5" x2="1024.5" y1="254.2031" y2="254.2031"/><text fill="#000000" font-family="Roboto Condensed" font-size="14" lengthAdjust="spacingAndGlyphs" textLength="92" x="921" y="245.4092">DEFAULT_MODE</text><text fill="#000000" font-family="Roboto Condensed" font-size="12" lengthAdjust="spacingAndGlyphs" textLength="95" x="914.5" y="271.7773">split on whitespace</text><ellipse cx="926" cy="661.7393" fill="none" filter="url(#f1dohlj0zevxaw)" rx="10" ry="10" style="stroke: #000000; stroke-width: 1.0;"/><ellipse cx="926.5" cy="662.2393" fill="#000000" rx="6" ry="6" style="stroke: none; stroke-width: 1.0;"/><rect fill="#FFFFFF" filter="url(#f1dohlj0zevxaw)" height="54.29" rx="12.5" ry="12.5" style="stroke: #000000; stroke-width: 1.5;" width="140" x="505" y="455.7393"/><line style="stroke: #000000; stroke-width: 1.5;" x1="505" x2="645" y1="484.2031" y2="484.2031"/><text fill="#000000" font-family="Roboto Condensed" font-size="14" lengthAdjust="spacingAndGlyphs" textLength="96" x="527" y="475.4092">SEGMENT_MODE</text><text fill="#000000" font-family="Roboto Condensed" font-size="12" lengthAdjust="spacingAndGlyphs" textLength="120" x="510" y="501.7773">Boost text segmentation</text><rect fill="#FFFFFF" filter="url(#f1dohlj0zevxaw)" height="54.29" rx="12.5" ry="12.5" style="stroke: #000000; stroke-width: 1.5;" width="129" x="999.5" y="455.7393"/><line style="stroke: #000000; stroke-width: 1.5;" x1="999.5" x2="1128.5" y1="484.2031" y2="484.2031"/><text fill="#000000" font-family="Roboto Condensed" font-size="14" lengthAdjust="spacingAndGlyphs" textLength="109" x="1009.5" y="475.4092">NOSUGGEST_MODE</text><text fill="#000000" font-family="Roboto Condensed" font-size="12" lengthAdjust="spacingAndGlyphs" textLength="53" x="1004.5" y="501.7773">no suggest</text><rect fill="#FFFFFF" filter="url(#f1dohlj0zevxaw)" height="54.29" rx="12.5" ry="12.5" style="stroke: #000000; stroke-width: 1.5;" width="107" x="648.5" y="225.7393"/><line style="stroke: #000000; stroke-width: 1.5;" x1="648.5" x2="755.5" y1="254.2031" y2="254.2031"/><text fill="#000000" font-family="Roboto Condensed" font-size="14" lengthAdjust="spacingAndGlyphs" textLength="76" x="664" y="245.4092">ERROR_MODE</text><text fill="#000000" font-family="Roboto Condensed" font-size="12" lengthAdjust="spacingAndGlyphs" textLength="87" x="653.5" y="271.7773">return exit code 1</text><rect fill="#FFFFFF" filter="url(#f1dohlj0zevxaw)" height="54.29" rx="12.5" ry="12.5" style="stroke: #000000; stroke-width: 1.5;" width="198" x="692" y="455.7393"/><line style="stroke: #000000; stroke-width: 1.5;" x1="692" x2="890" y1="484.2031" y2="484.2031"/><text fill="#000000" font-family="Roboto Condensed" font-size="14" lengthAdjust="spacingAndGlyphs" textLength="171" x="705.5" y="475.4092">SEGMENT_NOSUGGEST_MODE</text><text fill="#000000" font-family="Roboto Condensed" font-size="12" lengthAdjust="spacingAndGlyphs" textLength="178" x="697" y="501.7773">Boost text segmentation, no suggest</text><rect fill="#FFFFFF" filter="url(#f1dohlj0zevxaw)" height="54.29" rx="12.5" ry="12.5" style="stroke: #000000; stroke-width: 1.5;" width="172" x="177" y="68.7393"/><line style="stroke: #000000; stroke-width: 1.5;" x1="177" x2="349" y1="97.2031" y2="97.2031"/><text fill="#000000" font-family="Roboto Condensed" font-size="14" lengthAdjust="spacingAndGlyphs" textLength="152" x="187" y="88.4092">LIST_DICTIONARIES_MODE</text><text fill="#000000" font-family="Roboto Condensed" font-size="12" lengthAdjust="spacingAndGlyphs" textLength="115" x="182" y="114.7773">print found dictionaries</text><ellipse cx="290" cy="580.7393" fill="none" filter="url(#f1dohlj0zevxaw)" rx="10" ry="10" style="stroke: #000000; stroke-width: 1.0;"/><ellipse cx="290.5" cy="581.2393" fill="#000000" rx="6" ry="6" style="stroke: none; stroke-width: 1.0;"/><rect fill="#FFFFFF" filter="url(#f1dohlj0zevxaw)" height="54.29" rx="12.5" ry="12.5" style="stroke: #000000; stroke-width: 1.5;" width="91" x="384.5" y="68.7393"/><line style="stroke: #000000; stroke-width: 1.5;" x1="384.5" x2="475.5" y1="97.2031" y2="97.2031"/><text fill="#000000" font-family="Roboto Condensed" font-size="14" lengthAdjust="spacingAndGlyphs" textLength="71" x="394.5" y="88.4092">HELP_MODE</text><text fill="#000000" font-family="Roboto Condensed" font-size="12" lengthAdjust="spacingAndGlyphs" textLength="69" x="389.5" y="114.7773">print help info</text><rect fill="#FFFFFF" filter="url(#f1dohlj0zevxaw)" height="54.29" rx="12.5" ry="12.5" style="stroke: #000000; stroke-width: 1.5;" width="110" x="32" y="68.7393"/><line style="stroke: #000000; stroke-width: 1.5;" x1="32" x2="142" y1="97.2031" y2="97.2031"/><text fill="#000000" font-family="Roboto Condensed" font-size="14" lengthAdjust="spacingAndGlyphs" textLength="90" x="42" y="88.4092">VERSION_MODE</text><text fill="#000000" font-family="Roboto Condensed" font-size="12" lengthAdjust="spacingAndGlyphs" textLength="83" x="37" y="114.7773">print version info</text><rect fill="#FFFFFF" filter="url(#f1dohlj0zevxaw)" height="54.29" rx="12.5" ry="12.5" style="stroke: #000000; stroke-width: 1.5;" width="107" x="167.5" y="340.7393"/><line style="stroke: #000000; stroke-width: 1.5;" x1="167.5" x2="274.5" y1="369.2031" y2="369.2031"/><text fill="#000000" font-family="Roboto Condensed" font-size="14" lengthAdjust="spacingAndGlyphs" textLength="76" x="183" y="360.4092">ERROR_MODE</text><text fill="#000000" font-family="Roboto Condensed" font-size="12" lengthAdjust="spacingAndGlyphs" textLength="87" x="172.5" y="386.7773">return exit code 1</text><rect fill="#FFFFFF" filter="url(#f1dohlj0zevxaw)" height="54.29" rx="12.5" ry="12.5" style="stroke: #000000; stroke-width: 1.5;" width="173" x="1218.5" y="340.7393"/><line style="stroke: #000000; stroke-width: 1.5;" x1="1218.5" x2="1391.5" y1="369.2031" y2="369.2031"/><text fill="#000000" font-family="Roboto Condensed" font-size="14" lengthAdjust="spacingAndGlyphs" textLength="153" x="1228.5" y="360.4092">MISSPELLED_LINES_MODE</text><text fill="#000000" font-family="Roboto Condensed" font-size="12" lengthAdjust="spacingAndGlyphs" textLength="97" x="1223.5" y="386.7773">print incorrent lines</text><ellipse cx="1536" cy="580.7393" fill="none" filter="url(#f1dohlj0zevxaw)" rx="10" ry="10" style="stroke: #000000; stroke-width: 1.0;"/><ellipse cx="1536.5" cy="581.2393" fill="#000000" rx="6" ry="6" style="stroke: none; stroke-width: 1.0;"/><rect fill="#FFFFFF" filter="url(#f1dohlj0zevxaw)" height="54.29" rx="12.5" ry="12.5" style="stroke: #000000; stroke-width: 1.5;" width="107" x="1482.5" y="340.7393"/><line style="stroke: #000000; stroke-width: 1.5;" x1="1482.5" x2="1589.5" y1="369.2031" y2="369.2031"/><text fill="#000000" font-family="Roboto Condensed" font-size="14" lengthAdjust="spacingAndGlyphs" textLength="76" x="1498" y="360.4092">ERROR_MODE</text><text fill="#000000" font-family="Roboto Condensed" font-size="12" lengthAdjust="spacingAndGlyphs" textLength="87" x="1487.5" y="386.7773">return exit code 1</text><rect fill="#FFFFFF" filter="url(#f1dohlj0zevxaw)" height="54.29" rx="12.5" ry="12.5" style="stroke: #000000; stroke-width: 1.5;" width="180" x="1161" y="68.7393"/><line style="stroke: #000000; stroke-width: 1.5;" x1="1161" x2="1341" y1="97.2031" y2="97.2031"/><text fill="#000000" font-family="Roboto Condensed" font-size="14" lengthAdjust="spacingAndGlyphs" textLength="160" x="1171" y="88.4092">MISSPELLED_WORDS_MODE</text><text fill="#000000" font-family="Roboto Condensed" font-size="12" lengthAdjust="spacingAndGlyphs" textLength="103" x="1166" y="114.7773">print incorrent words</text><rect fill="#FFFFFF" filter="url(#f1dohlj0zevxaw)" height="54.29" rx="12.5" ry="12.5" style="stroke: #000000; stroke-width: 1.5;" width="152" x="1680" y="340.7393"/><line style="stroke: #000000; stroke-width: 1.5;" x1="1680" x2="1832" y1="369.2031" y2="369.2031"/><text fill="#000000" font-family="Roboto Condensed" font-size="14" lengthAdjust="spacingAndGlyphs" textLength="132" x="1690" y="360.4092">CORRECT_LINES_MODE</text><text fill="#000000" font-family="Roboto Condensed" font-size="12" lengthAdjust="spacingAndGlyphs" textLength="88" x="1685" y="386.7773">print correct lines</text><rect fill="#FFFFFF" filter="url(#f1dohlj0zevxaw)" height="54.29" rx="12.5" ry="12.5" style="stroke: #000000; stroke-width: 1.5;" width="159" x="1639.5" y="68.7393"/><line style="stroke: #000000; stroke-width: 1.5;" x1="1639.5" x2="1798.5" y1="97.2031" y2="97.2031"/><text fill="#000000" font-family="Roboto Condensed" font-size="14" lengthAdjust="spacingAndGlyphs" textLength="139" x="1649.5" y="88.4092">CORRECT_WORDS_MODE</text><text fill="#000000" font-family="Roboto Condensed" font-size="12" lengthAdjust="spacingAndGlyphs" textLength="94" x="1644.5" y="114.7773">print correct words</text><rect fill="#FFFFFF" filter="url(#f1dohlj0zevxaw)" height="54.29" rx="12.5" ry="12.5" style="stroke: #000000; stroke-width: 1.5;" width="113" x="1422.5" y="68.7393"/><line style="stroke: #000000; stroke-width: 1.5;" x1="1422.5" x2="1535.5" y1="97.2031" y2="97.2031"/><text fill="#000000" font-family="Roboto Condensed" font-size="14" lengthAdjust="spacingAndGlyphs" textLength="74" x="1442" y="88.4092">LINES_MODE</text><text fill="#000000" font-family="Roboto Condensed" font-size="12" lengthAdjust="spacingAndGlyphs" textLength="93" x="1427.5" y="114.7773">intermediate mode</text><ellipse cx="967" cy="95.7393" fill="#000000" filter="url(#f1dohlj0zevxaw)" rx="10" ry="10" style="stroke: none; stroke-width: 1.0;"/><!--link DEFAULT_MODE to *end*wm--><path d="M965.9064,279.7422 C963.1568,340.9196 954.7156,494.6536 935,621.7393 C933.6878,630.1976 931.6226,639.5354 929.8013,647.0603 " fill="none" id="DEFAULT_MODE-*end*wm" style="stroke: #000000; stroke-width: 1.0;"/><polygon fill="#000000" points="928.5916,651.947,934.6372,644.172,929.7932,647.0935,926.8717,642.2494,928.5916,651.947" style="stroke: #000000; stroke-width: 1.0;"/><!--link DEFAULT_MODE to DEFAULT_MODE--><path d="M1024.8125,242.2393 C1044.0833,242.2393 1059.5,245.7393 1059.5,252.7393 C1059.5,259.083 1046.8385,262.5523 1030.1213,263.147 " fill="none" id="DEFAULT_MODE-DEFAULT_MODE" style="stroke: #000000; stroke-width: 1.0;"/><polygon fill="#000000" points="1024.8125,263.2393,1033.8807,267.082,1029.8117,263.1523,1033.7415,259.0833,1024.8125,263.2393" style="stroke: #000000; stroke-width: 1.0;"/><text fill="#000000" font-family="Roboto Condensed" font-size="13" lengthAdjust="spacingAndGlyphs" textLength="32" x="1065.5" y="249.3613">-d or -i</text><text fill="#000000" font-family="Roboto Condensed" font-size="13" lengthAdjust="spacingAndGlyphs" textLength="65" x="1065.5" y="266.5063">with operand</text><!--link DEFAULT_MODE to SEGMENT_MODE--><path d="M920.8799,279.7996 C846.9633,323.169 702.5034,407.9287 625.753,452.9608 " fill="none" id="DEFAULT_MODE-SEGMENT_MODE" style="stroke: #000000; stroke-width: 1.0;"/><polygon fill="#000000" points="621.248,455.604,631.0347,454.4994,625.5605,453.0736,626.9862,447.5994,621.248,455.604" style="stroke: #000000; stroke-width: 1.0;"/><text fill="#000000" font-family="Roboto Condensed" font-size="13" lengthAdjust="spacingAndGlyphs" textLength="10" x="817" y="372.8613">-S</text><!--link DEFAULT_MODE to NOSUGGEST_MODE--><path d="M978.5081,280.0265 C996.5203,322.7358 1031.2918,405.1838 1050.4737,450.6667 " fill="none" id="DEFAULT_MODE-NOSUGGEST_MODE" style="stroke: #000000; stroke-width: 1.0;"/><polygon fill="#000000" points="1052.5069,455.4876,1052.6951,445.6405,1050.5639,450.8805,1045.3239,448.7493,1052.5069,455.4876" style="stroke: #000000; stroke-width: 1.0;"/><text fill="#000000" font-family="Roboto Condensed" font-size="13" lengthAdjust="spacingAndGlyphs" textLength="10" x="1027" y="372.8613">-U</text><!--link e1 to DEFAULT_MODE--><path d="M760.6693,252.7393 C804.921,252.7393 865.3116,252.7393 909.3203,252.7393 " fill="none" id="e1-DEFAULT_MODE" style="stroke: #000000; stroke-width: 1.0;"/><polygon fill="#000000" points="755.6267,252.7393,764.6267,256.7393,760.6267,252.7393,764.6267,248.7393,755.6267,252.7393" style="stroke: #000000; stroke-width: 1.0;"/><text fill="#000000" font-family="Roboto Condensed" font-size="13" lengthAdjust="spacingAndGlyphs" textLength="117" x="774" y="245.3613">-d or -i without operand</text><!--link NOSUGGEST_MODE to *end*wm--><path d="M1049.0177,509.8659 C1032.2461,539.0451 1003.2895,586.0544 972,621.7393 C961.7139,633.4703 948.0201,644.9552 938.2543,652.5872 " fill="none" id="NOSUGGEST_MODE-*end*wm" style="stroke: #000000; stroke-width: 1.0;"/><polygon fill="#000000" points="934.0701,655.8097,943.6412,653.4873,938.0315,652.7588,938.7599,647.1491,934.0701,655.8097" style="stroke: #000000; stroke-width: 1.0;"/><!--link SEGMENT_NOSUGGEST_MODE to NOSUGGEST_MODE--><path d="M895.4579,482.7393 C930.3567,482.7393 968.2172,482.7393 999.1974,482.7393 " fill="none" id="SEGMENT_NOSUGGEST_MODE-NOSUGGEST_MODE" style="stroke: #000000; stroke-width: 1.0;"/><polygon fill="#000000" points="890.3315,482.7393,899.3315,486.7393,895.3315,482.7393,899.3315,478.7393,890.3315,482.7393" style="stroke: #000000; stroke-width: 1.0;"/><text fill="#000000" font-family="Roboto Condensed" font-size="13" lengthAdjust="spacingAndGlyphs" textLength="10" x="939.75" y="475.3613">-S</text><!--link SEGMENT_MODE to *end*wm--><path d="M628.3093,509.9255 C711.021,552.1062 865.6171,630.9457 912.3045,654.755 " fill="none" id="SEGMENT_MODE-*end*wm" style="stroke: #000000; stroke-width: 1.0;"/><polygon fill="#000000" points="916.9694,657.134,910.769,649.4818,912.5152,654.8624,907.1346,656.6086,916.9694,657.134" style="stroke: #000000; stroke-width: 1.0;"/><!--link SEGMENT_MODE to SEGMENT_NOSUGGEST_MODE--><path d="M645.129,482.7393 C658.4041,482.7393 672.5532,482.7393 686.6204,482.7393 " fill="none" id="SEGMENT_MODE-SEGMENT_NOSUGGEST_MODE" style="stroke: #000000; stroke-width: 1.0;"/><polygon fill="#000000" points="691.7976,482.7393,682.7976,478.7393,686.7976,482.7393,682.7976,486.7393,691.7976,482.7393" style="stroke: #000000; stroke-width: 1.0;"/><text fill="#000000" font-family="Roboto Condensed" font-size="13" lengthAdjust="spacingAndGlyphs" textLength="10" x="663.5" y="475.3613">-U</text><!--link SEGMENT_NOSUGGEST_MODE to *end*wm--><path d="M811.5036,509.9255 C841.1902,549.2879 894.9536,620.574 916.5979,649.2728 " fill="none" id="SEGMENT_NOSUGGEST_MODE-*end*wm" style="stroke: #000000; stroke-width: 1.0;"/><polygon fill="#000000" points="919.7873,653.5018,917.5616,643.9077,916.7766,649.5098,911.1745,648.7248,919.7873,653.5018" style="stroke: #000000; stroke-width: 1.0;"/><!--link e1 to *end*wm--><path d="M730.6269,279.9381 C785.9916,332.6784 902.7876,444.6659 908,455.7393 C923.9129,489.5452 925.8486,604.5698 926.0163,646.3845 " fill="none" id="e1-*end*wm" style="stroke: #000000; stroke-width: 1.0;"/><polygon fill="#000000" points="926.0293,651.56,930.0064,642.5498,926.0166,646.56,922.0064,642.5702,926.0293,651.56" style="stroke: #000000; stroke-width: 1.0;"/><!--link LIST_DICTIONARIES_MODE to *end*im--><path d="M277.6215,122.7534 C287.6589,142.6236 300.3293,170.6091 307,196.7393 C313.1809,220.9507 312,227.7514 312,252.7393 C312,252.7393 312,252.7393 312,482.7393 C312,513.023 301.8748,547.3204 295.3625,566.2481 " fill="none" id="LIST_DICTIONARIES_MODE-*end*im" style="stroke: #000000; stroke-width: 1.0;"/><polygon fill="#000000" points="293.6329,571.163,300.3937,564.0012,295.2927,566.4465,292.8474,561.3455,293.6329,571.163" style="stroke: #000000; stroke-width: 1.0;"/><!--link HELP_MODE to *end*im--><path d="M434.8278,122.9486 C440.339,159.2094 447.1293,225.1471 435,279.7393 C408.283,399.9892 326.1082,527.869 298.8725,567.9676 " fill="none" id="HELP_MODE-*end*im" style="stroke: #000000; stroke-width: 1.0;"/><polygon fill="#000000" points="295.8308,572.4161,304.2126,567.2444,298.6529,568.2886,297.6087,562.729,295.8308,572.4161" style="stroke: #000000; stroke-width: 1.0;"/><!--link VERSION_MODE to *end*im--><path d="M68.4885,122.7397 C49.5869,152.9901 23,204.1722 23,252.7393 C23,252.7393 23,252.7393 23,482.7393 C23,536.7927 218.2862,570.0686 274.8315,578.5707 " fill="none" id="VERSION_MODE-*end*im" style="stroke: #000000; stroke-width: 1.0;"/><polygon fill="#000000" points="279.8593,579.316,271.5433,574.0393,274.9134,578.5827,270.37,581.9528,279.8593,579.316" style="stroke: #000000; stroke-width: 1.0;"/><!--link LIST_DICTIONARIES_MODE to e2--><path d="M258.6078,123.1671 C255.3669,143.477 250.867,171.8278 247,196.7393 C239.5234,244.904 231.0754,300.7362 225.8936,335.1497 " fill="none" id="LIST_DICTIONARIES_MODE-e2" style="stroke: #000000; stroke-width: 1.0;"/><polygon fill="#000000" points="225.0906,340.4845,230.3855,332.18,225.8347,335.5401,222.4746,330.9894,225.0906,340.4845" style="stroke: #000000; stroke-width: 1.0;"/><text fill="#000000" font-family="Roboto Condensed" font-size="13" lengthAdjust="spacingAndGlyphs" textLength="27" x="248" y="249.3613">other</text><text fill="#000000" font-family="Roboto Condensed" font-size="13" lengthAdjust="spacingAndGlyphs" textLength="54" x="248" y="266.5063">arguments</text><!--link HELP_MODE to e2--><path d="M414.995,122.9127 C393.9626,159.9888 353.5,227.7554 311,279.7393 C294.4116,300.0295 273.6135,320.6221 256.1906,336.7806 " fill="none" id="HELP_MODE-e2" style="stroke: #000000; stroke-width: 1.0;"/><polygon fill="#000000" points="252.2987,340.3687,261.627,337.2091,255.9748,336.9795,256.2044,331.3273,252.2987,340.3687" style="stroke: #000000; stroke-width: 1.0;"/><text fill="#000000" font-family="Roboto Condensed" font-size="13" lengthAdjust="spacingAndGlyphs" textLength="27" x="372" y="249.3613">other</text><text fill="#000000" font-family="Roboto Condensed" font-size="13" lengthAdjust="spacingAndGlyphs" textLength="54" x="372" y="266.5063">arguments</text><!--link VERSION_MODE to e2--><path d="M98.5073,122.9102 C114.049,159.1285 143.0331,225.0192 171,279.7393 C180.7217,298.7608 192.4858,319.5616 202.1601,336.1622 " fill="none" id="VERSION_MODE-e2" style="stroke: #000000; stroke-width: 1.0;"/><polygon fill="#000000" points="204.8299,340.728,203.74,330.9396,202.3061,336.4117,196.834,334.9777,204.8299,340.728" style="stroke: #000000; stroke-width: 1.0;"/><text fill="#000000" font-family="Roboto Condensed" font-size="13" lengthAdjust="spacingAndGlyphs" textLength="27" x="172" y="249.3613">other</text><text fill="#000000" font-family="Roboto Condensed" font-size="13" lengthAdjust="spacingAndGlyphs" textLength="54" x="172" y="266.5063">arguments</text><!--link e2 to *end*im--><path d="M229.8793,395.1493 C244.658,440.7706 273.8065,530.7507 285.2392,566.0428 " fill="none" id="e2-*end*im" style="stroke: #000000; stroke-width: 1.0;"/><polygon fill="#000000" points="286.7936,570.8412,287.8251,561.0465,285.2526,566.0846,280.2145,563.5121,286.7936,570.8412" style="stroke: #000000; stroke-width: 1.0;"/><!--link MISSPELLED_LINES_MODE to *end*cm--><path d="M1334.7263,395.1493 C1386.2478,442.6561 1489.9354,538.2642 1524.4957,570.1314 " fill="none" id="MISSPELLED_LINES_MODE-*end*cm" style="stroke: #000000; stroke-width: 1.0;"/><polygon fill="#000000" points="1528.3595,573.6941,1524.4543,564.6525,1524.6836,570.3047,1519.0314,570.534,1528.3595,573.6941" style="stroke: #000000; stroke-width: 1.0;"/><!--link MISSPELLED_LINES_MODE to e3--><path d="M1391.6731,367.7393 C1420.238,367.7393 1451.3159,367.7393 1477.2917,367.7393 " fill="none" id="MISSPELLED_LINES_MODE-e3" style="stroke: #000000; stroke-width: 1.0;"/><polygon fill="#000000" points="1482.4165,367.7393,1473.4165,363.7393,1477.4165,367.7393,1473.4165,371.7393,1482.4165,367.7393" style="stroke: #000000; stroke-width: 1.0;"/><text fill="#000000" font-family="Roboto Condensed" font-size="13" lengthAdjust="spacingAndGlyphs" textLength="27" x="1410" y="343.3613">other</text><text fill="#000000" font-family="Roboto Condensed" font-size="13" lengthAdjust="spacingAndGlyphs" textLength="54" x="1410" y="360.5063">arguments</text><!--link MISSPELLED_WORDS_MODE to *end*cm--><path d="M1235.4424,122.9456 C1206.1822,178.0529 1150.2706,305.2215 1201,394.7393 C1272.5037,520.9157 1465.177,567.0806 1520.7834,578.003 " fill="none" id="MISSPELLED_WORDS_MODE-*end*cm" style="stroke: #000000; stroke-width: 1.0;"/><polygon fill="#000000" points="1526.0171,579.0054,1517.9302,573.3837,1521.1064,578.0648,1516.4253,581.2409,1526.0171,579.0054" style="stroke: #000000; stroke-width: 1.0;"/><!--link MISSPELLED_WORDS_MODE to MISSPELLED_LINES_MODE--><path d="M1248.817,122.7917 C1246.6684,159.1574 1245.5276,225.5076 1260,279.7393 C1265.2574,299.4401 1275.3296,319.8119 1284.6142,335.9871 " fill="none" id="MISSPELLED_WORDS_MODE-MISSPELLED_LINES_MODE" style="stroke: #000000; stroke-width: 1.0;"/><polygon fill="#000000" points="1287.2073,340.434,1286.129,330.6443,1284.6886,336.1147,1279.2182,334.6742,1287.2073,340.434" style="stroke: #000000; stroke-width: 1.0;"/><text fill="#000000" font-family="Roboto Condensed" font-size="13" lengthAdjust="spacingAndGlyphs" textLength="9" x="1261" y="257.8613">-L</text><!--link MISSPELLED_WORDS_MODE to e3--><path d="M1257.3375,122.9276 C1268.3875,168.3042 1292.0965,256.7695 1314,279.7393 C1357.4285,325.2819 1427.4025,347.755 1477.1759,358.5047 " fill="none" id="MISSPELLED_WORDS_MODE-e3" style="stroke: #000000; stroke-width: 1.0;"/><polygon fill="#000000" points="1482.2307,359.5712,1474.2506,353.799,1477.3385,358.5387,1472.5987,361.6266,1482.2307,359.5712" style="stroke: #000000; stroke-width: 1.0;"/><text fill="#000000" font-family="Roboto Condensed" font-size="13" lengthAdjust="spacingAndGlyphs" textLength="27" x="1315" y="249.3613">other</text><text fill="#000000" font-family="Roboto Condensed" font-size="13" lengthAdjust="spacingAndGlyphs" textLength="54" x="1315" y="266.5063">arguments</text><!--link CORRECT_LINES_MODE to *end*cm--><path d="M1727.6892,395.1493 C1678.6211,442.6561 1579.871,538.2642 1546.9565,570.1314 " fill="none" id="CORRECT_LINES_MODE-*end*cm" style="stroke: #000000; stroke-width: 1.0;"/><polygon fill="#000000" points="1543.2767,573.6941,1552.5251,570.3077,1546.869,570.2162,1546.9605,564.5601,1543.2767,573.6941" style="stroke: #000000; stroke-width: 1.0;"/><!--link e3 to CORRECT_LINES_MODE--><path d="M1594.6874,367.7393 C1620.7837,367.7393 1651.8458,367.7393 1679.7125,367.7393 " fill="none" id="e3-CORRECT_LINES_MODE" style="stroke: #000000; stroke-width: 1.0;"/><polygon fill="#000000" points="1589.5367,367.7393,1598.5367,371.7393,1594.5367,367.7393,1598.5367,363.7393,1589.5367,367.7393" style="stroke: #000000; stroke-width: 1.0;"/><text fill="#000000" font-family="Roboto Condensed" font-size="13" lengthAdjust="spacingAndGlyphs" textLength="27" x="1607.75" y="343.3613">other</text><text fill="#000000" font-family="Roboto Condensed" font-size="13" lengthAdjust="spacingAndGlyphs" textLength="54" x="1607.75" y="360.5063">arguments</text><!--link CORRECT_WORDS_MODE to *end*cm--><path d="M1780.2364,122.9831 C1827.8981,148.8252 1886,192.6508 1886,252.7393 C1886,252.7393 1886,252.7393 1886,482.7393 C1886,553.3211 1618.7224,575.3819 1551.2994,579.824 " fill="none" id="CORRECT_WORDS_MODE-*end*cm" style="stroke: #000000; stroke-width: 1.0;"/><polygon fill="#000000" points="1546.0974,580.1576,1555.3349,583.5734,1551.0871,579.8376,1554.823,575.5898,1546.0974,580.1576" style="stroke: #000000; stroke-width: 1.0;"/><!--link CORRECT_WORDS_MODE to CORRECT_LINES_MODE--><path d="M1744.6507,122.8308 C1752.0735,131.8078 1759.6164,142.2095 1765,152.7393 C1774.2274,170.787 1774.3095,176.6489 1777,196.7393 C1781.8964,233.3018 1781.3108,243.1032 1777,279.7393 C1774.7877,298.5412 1770.0034,319.1458 1765.5594,335.6876 " fill="none" id="CORRECT_WORDS_MODE-CORRECT_LINES_MODE" style="stroke: #000000; stroke-width: 1.0;"/><polygon fill="#000000" points="1764.1944,340.6844,1770.4249,333.0567,1765.5121,335.8611,1762.7077,330.9483,1764.1944,340.6844" style="stroke: #000000; stroke-width: 1.0;"/><text fill="#000000" font-family="Roboto Condensed" font-size="13" lengthAdjust="spacingAndGlyphs" textLength="9" x="1781" y="257.8613">-L</text><!--link CORRECT_WORDS_MODE to e3--><path d="M1700.7842,122.8141 C1666.7539,173.3947 1593.6943,281.9861 1557.3869,335.9511 " fill="none" id="CORRECT_WORDS_MODE-e3" style="stroke: #000000; stroke-width: 1.0;"/><polygon fill="#000000" points="1554.4137,340.3703,1562.7564,335.1359,1557.2048,336.2218,1556.1189,330.6701,1554.4137,340.3703" style="stroke: #000000; stroke-width: 1.0;"/><text fill="#000000" font-family="Roboto Condensed" font-size="13" lengthAdjust="spacingAndGlyphs" textLength="27" x="1651" y="249.3613">other</text><text fill="#000000" font-family="Roboto Condensed" font-size="13" lengthAdjust="spacingAndGlyphs" textLength="54" x="1651" y="266.5063">arguments</text><!--link LINES_MODE to MISSPELLED_LINES_MODE--><path d="M1466.1415,122.8782 C1448.2808,159.6253 1414.068,226.7068 1378,279.7393 C1364.5187,299.5615 1347.5113,320.2653 1333.3049,336.6077 " fill="none" id="LINES_MODE-MISSPELLED_LINES_MODE" style="stroke: #000000; stroke-width: 1.0;"/><polygon fill="#000000" points="1329.7572,340.6654,1338.6923,336.5225,1333.0482,336.9011,1332.6695,331.2569,1329.7572,340.6654" style="stroke: #000000; stroke-width: 1.0;"/><text fill="#000000" font-family="Roboto Condensed" font-size="13" lengthAdjust="spacingAndGlyphs" textLength="6" x="1428" y="257.8613">-l</text><!--link LINES_MODE to CORRECT_LINES_MODE--><path d="M1535.7536,105.218 C1589.51,117.1972 1668.5744,143.1204 1714,196.7393 C1747.3365,236.0887 1754.9754,297.8372 1756.3086,335.3743 " fill="none" id="LINES_MODE-CORRECT_LINES_MODE" style="stroke: #000000; stroke-width: 1.0;"/><polygon fill="#000000" points="1756.4619,340.7314,1760.2026,331.6205,1756.3188,335.7334,1752.2059,331.8496,1756.4619,340.7314" style="stroke: #000000; stroke-width: 1.0;"/><text fill="#000000" font-family="Roboto Condensed" font-size="13" lengthAdjust="spacingAndGlyphs" textLength="11" x="1750" y="257.8613">-G</text><!--link LINES_MODE to e3--><path d="M1484.6738,122.8141 C1495.2308,173.1916 1517.8471,281.1148 1529.2017,335.2982 " fill="none" id="LINES_MODE-e3" style="stroke: #000000; stroke-width: 1.0;"/><polygon fill="#000000" points="1530.2646,340.3703,1532.3333,330.7411,1529.2389,335.4766,1524.5034,332.3822,1530.2646,340.3703" style="stroke: #000000; stroke-width: 1.0;"/><text fill="#000000" font-family="Roboto Condensed" font-size="13" lengthAdjust="spacingAndGlyphs" textLength="40" x="1518" y="249.3613">missing</text><text fill="#000000" font-family="Roboto Condensed" font-size="13" lengthAdjust="spacingAndGlyphs" textLength="34" x="1518" y="266.5063">-G or -l</text><!--link e3 to *end*cm--><path d="M1536,395.1493 C1536,440.3703 1536,529.1751 1536,565.1013 " fill="none" id="e3-*end*cm" style="stroke: #000000; stroke-width: 1.0;"/><polygon fill="#000000" points="1536,570.3984,1540,561.3984,1536,565.3984,1532,561.3984,1536,570.3984" style="stroke: #000000; stroke-width: 1.0;"/><!--link *start to DEFAULT_MODE--><path d="M967,106.0405 C967,128.8631 967,184.4932 967,220.3131 " fill="none" id="*start-DEFAULT_MODE" style="stroke: #000000; stroke-width: 1.0;"/><polygon fill="#000000" points="967,225.448,971,216.448,967,220.448,963,216.448,967,225.448" style="stroke: #000000; stroke-width: 1.0;"/><!--link LIST_DICTIONARIES_MODE to DEFAULT_MODE--><path d="M354.164,120.1002 C358.4926,121.0385 362.7876,121.9247 367,122.7393 C469.5111,142.5637 497.4401,133.1689 600,152.7393 C677.9306,167.61 696.4335,175.9574 773,196.7393 C819.011,209.2278 870.8873,224.2519 909.4114,235.593 " fill="none" id="LIST_DICTIONARIES_MODE-DEFAULT_MODE" style="stroke: #000000; stroke-width: 1.0;"/><polygon fill="#000000" points="349.0699,118.9759,356.9962,124.8217,353.9524,120.0536,358.7205,117.0098,349.0699,118.9759" style="stroke: #000000; stroke-width: 1.0;"/><text fill="#000000" font-family="Roboto Condensed" font-size="13" lengthAdjust="spacingAndGlyphs" textLength="10" x="744" y="175.8613">-D</text><!--link HELP_MODE to DEFAULT_MODE--><path d="M481.1409,98.3164 C551.6937,103.1133 682.064,116.4777 787,152.7393 C838.5271,170.5449 892.5397,202.6231 927.7915,225.6508 " fill="none" id="HELP_MODE-DEFAULT_MODE" style="stroke: #000000; stroke-width: 1.0;"/><polygon fill="#000000" points="475.7501,97.9586,484.4654,102.5458,480.7391,98.2897,484.9953,94.5634,475.7501,97.9586" style="stroke: #000000; stroke-width: 1.0;"/><text fill="#000000" font-family="Roboto Condensed" font-size="13" lengthAdjust="spacingAndGlyphs" textLength="9" x="865" y="167.3613">-h</text><text fill="#000000" font-family="Roboto Condensed" font-size="13" lengthAdjust="spacingAndGlyphs" textLength="27" x="865" y="184.5063">--help</text><!--link VERSION_MODE to DEFAULT_MODE--><path d="M146.8667,119.158 C150.9459,120.4535 155.0168,121.6633 159,122.7393 C327.4453,168.2434 372.4248,170.9602 546,188.7393 C646.4261,199.0258 673.3079,180.8429 773,196.7393 C819.7348,204.1914 871.1287,219.357 909.2713,232.0284 " fill="none" id="VERSION_MODE-DEFAULT_MODE" style="stroke: #000000; stroke-width: 1.0;"/><polygon fill="#000000" points="142.0788,117.6007,149.4,124.1886,146.8335,119.1474,151.8747,116.581,142.0788,117.6007" style="stroke: #000000; stroke-width: 1.0;"/><text fill="#000000" font-family="Roboto Condensed" font-size="13" lengthAdjust="spacingAndGlyphs" textLength="9" x="547" y="167.3613">-v</text><text fill="#000000" font-family="Roboto Condensed" font-size="13" lengthAdjust="spacingAndGlyphs" textLength="44" x="547" y="184.5063">--version</text><!--link CORRECT_WORDS_MODE to DEFAULT_MODE--><path d="M1634.0966,110.0475 C1486.0131,135.0969 1191.7505,185.324 1145,196.7393 C1104.2445,206.6908 1059.173,220.9042 1024.5812,232.5212 " fill="none" id="CORRECT_WORDS_MODE-DEFAULT_MODE" style="stroke: #000000; stroke-width: 1.0;"/><polygon fill="#000000" points="1639.3021,109.1672,1629.7611,106.7241,1634.3721,110.001,1631.0952,114.6121,1639.3021,109.1672" style="stroke: #000000; stroke-width: 1.0;"/><text fill="#000000" font-family="Roboto Condensed" font-size="13" lengthAdjust="spacingAndGlyphs" textLength="11" x="1375" y="175.8613">-G</text><!--link MISSPELLED_WORDS_MODE to DEFAULT_MODE--><path d="M1155.7006,113.6415 C1106.7081,124.2105 1053.139,138.3137 1033,152.7393 C1007.4648,171.0302 989.0907,202.5351 978.314,225.302 " fill="none" id="MISSPELLED_WORDS_MODE-DEFAULT_MODE" style="stroke: #000000; stroke-width: 1.0;"/><polygon fill="#000000" points="1160.7306,112.5652,1151.0928,110.537,1155.8413,113.6114,1152.7669,118.3599,1160.7306,112.5652" style="stroke: #000000; stroke-width: 1.0;"/><text fill="#000000" font-family="Roboto Condensed" font-size="13" lengthAdjust="spacingAndGlyphs" textLength="6" x="1034" y="175.8613">-l</text><!--link LINES_MODE to DEFAULT_MODE--><path d="M1417.2865,111.0375 C1398.6436,115.2762 1378.0633,119.5766 1359,122.7393 C1236.4028,143.0786 1193.8071,100.6019 1081,152.7393 C1059.882,162.4996 1060.3495,173.2399 1043,188.7393 C1029.2356,201.0359 1013.7003,214.234 1000.2791,225.4318 " fill="none" id="LINES_MODE-DEFAULT_MODE" style="stroke: #000000; stroke-width: 1.0;"/><polygon fill="#000000" points="1422.4905,109.8446,1412.8242,107.9568,1417.6169,110.9618,1414.6119,115.7545,1422.4905,109.8446" style="stroke: #000000; stroke-width: 1.0;"/><text fill="#000000" font-family="Roboto Condensed" font-size="13" lengthAdjust="spacingAndGlyphs" textLength="9" x="1082" y="175.8613">-L</text><!--
@startuml
skinparam BackgroundColor White|White
skinparam ArrowColor Black
skinparam DefaultFontName Roboto Condensed
skinparam TitleFontStyle Bold

skinparam NoteBackgroundColor White
skinparam NoteBorderColor Black

skinparam UsecaseBackgroundColor White
skinparam ActorBackgroundColor White
skinparam UsecaseBorderColor Black
skinparam ActorBorderColor Black

skinparam usecase {
	BackgroundColor<<for now out of scope>> Gray
}

skinparam StateBackgroundColor White
skinparam StateBorderColor Black

skinparam ActivityBackgroundColor White
skinparam ActivityDiamondBackgroundColor White
skinparam ActivityBorderColor Black
skinparam ActivityDiamondBorderColor Black

skinparam ClassBackgroundColor White
skinparam ClassBorderColor Black
hide empty members

title Nuspell - Command-line Arguments

state "Word Modes" as wm {
	DEFAULT_MODE : split on whitespace
	DEFAULT_MODE - -> [*]
	DEFAULT_MODE - -> DEFAULT_MODE : -d or -i\lwith operand
	DEFAULT_MODE -down-> SEGMENT_MODE : -S
	DEFAULT_MODE -down-> NOSUGGEST_MODE : -U
	DEFAULT_MODE -left-> e1 : -d or -i without operand
	NOSUGGEST_MODE : no suggest
	NOSUGGEST_MODE - -> [*]
	NOSUGGEST_MODE -left-> SEGMENT_NOSUGGEST_MODE : -S
	SEGMENT_MODE : Boost text segmentation
	SEGMENT_MODE - -> [*]
	SEGMENT_MODE -right-> SEGMENT_NOSUGGEST_MODE : -U
	SEGMENT_NOSUGGEST_MODE : Boost text segmentation, no suggest
	SEGMENT_NOSUGGEST_MODE - -> [*]
	state "ERROR_MODE" as e1
	e1 : return exit code 1
	e1 - -> [*]
}

state "Information Modes" as im {
	LIST_DICTIONARIES_MODE - -> [*]
	HELP_MODE : print help info
	HELP_MODE - -> [*]
	VERSION_MODE : print version info
	VERSION_MODE - -> [*]
	LIST_DICTIONARIES_MODE : print found dictionaries
	LIST_DICTIONARIES_MODE - -> e2 : other\larguments
	HELP_MODE - -> e2 : other\larguments
	VERSION_MODE - -> e2 : other\larguments
	state "ERROR_MODE" as e2
	e2 : return exit code 1
	e2 - -> [*]
}

state "Correctness Modes" as cm {
	MISSPELLED_LINES_MODE : print incorrent lines
	MISSPELLED_LINES_MODE - -> [*]
	MISSPELLED_LINES_MODE -right-> e3 : other\larguments
	MISSPELLED_WORDS_MODE : print incorrent words
	MISSPELLED_WORDS_MODE - -> [*]
	MISSPELLED_WORDS_MODE - -> MISSPELLED_LINES_MODE : -L
	MISSPELLED_WORDS_MODE - -> e3 : other\larguments
	CORRECT_LINES_MODE : print correct lines
	CORRECT_LINES_MODE - -> [*]
	CORRECT_LINES_MODE -left-> e3 : other\larguments
	CORRECT_WORDS_MODE : print correct words
	CORRECT_WORDS_MODE - -> [*]
	CORRECT_WORDS_MODE - -> CORRECT_LINES_MODE : -L
	CORRECT_WORDS_MODE - -> e3 : other\larguments
	LINES_MODE : intermediate mode
	LINES_MODE - -> MISSPELLED_LINES_MODE : -l
	LINES_MODE - -> CORRECT_LINES_MODE : -G
	LINES_MODE - -> e3 : missing\l-G or -l
	state "ERROR_MODE" as e3
	e3 : return exit code 1
	e3 - -> [*]
}

[*] - -> DEFAULT_MODE

DEFAULT_MODE -up-> LIST_DICTIONARIES_MODE : -D
DEFAULT_MODE -up-> HELP_MODE : -h\l- -help
DEFAULT_MODE -up-> VERSION_MODE : -v\l- -version

DEFAULT_MODE -up-> CORRECT_WORDS_MODE : -G
DEFAULT_MODE -up-> MISSPELLED_WORDS_MODE : -l
DEFAULT_MODE -up-> LINES_MODE : -L

@enduml

PlantUML version 1.2018.11(Sat Sep 22 18:43:53 CEST 2018)
(GPL source distribution)
Java Runtime: OpenJDK Runtime Environment
JVM: OpenJDK 64-Bit Server VM
Java Version: 10.0.2+13-Ubuntu-1ubuntu0.18.04.2
Operating System: Linux
OS Version: 4.15.0-34-generic
Default Encoding: UTF-8
Language: en
Country: US
--></g></svg>