<?xml version="1.0" encoding="UTF-8" standalone="no"?><svg xmlns="http://www.w3.org/2000/svg" xmlns:xlink="http://www.w3.org/1999/xlink" contentScriptType="application/ecmascript" contentStyleType="text/css" height="408px" preserveAspectRatio="none" style="width:1460px;height:408px;" version="1.1" viewBox="0 0 1460 408" width="1460px" zoomAndPan="magnify"><defs><linearGradient id="g18j0tqa91qujm0" x1="0%" x2="100%" y1="50%" y2="50%"><stop offset="0%" stop-color="#FFFFFF"/><stop offset="100%" stop-color="#FFFFFF"/></linearGradient><filter height="300%" id="f18j0tqa91qujm" width="300%" x="-1" y="-1"><feGaussianBlur result="blurOut" stdDeviation="2.0"/><feColorMatrix in="blurOut" result="blurOut2" type="matrix" values="0 0 0 0 0 0 0 0 0 0 0 0 0 0 0 0 0 0 .4 0"/><feOffset dx="4.0" dy="4.0" in="blurOut2" result="blurOut3"/><feBlend in="SourceGraphic" in2="blurOut3" mode="normal"/></filter></defs><g><rect fill="url(#g18j0tqa91qujm0)" height="408" style="stroke: none; stroke-width: 1.0;" width="1460" x="0" y="0"/><text fill="#000000" font-family="sans-serif" font-size="18" lengthAdjust="spacingAndGlyphs" textLength="355" x="555.5" y="16.708">Hunspell - Capitalization Type (captype)</text><ellipse cx="718.5" cy="38.9531" fill="#000000" filter="url(#f18j0tqa91qujm)" rx="10" ry="10" style="stroke: none; stroke-width: 1.0;"/><rect fill="#FEFECE" filter="url(#f18j0tqa91qujm)" height="64.2344" rx="12.5" ry="12.5" style="stroke: #A80036; stroke-width: 1.5;" width="299" x="569" y="144.4531"/><line style="stroke: #A80036; stroke-width: 1.5;" x1="569" x2="868" y1="170.75" y2="170.75"/><text fill="#000000" font-family="sans-serif" font-size="14" lengthAdjust="spacingAndGlyphs" textLength="49" x="694" y="162.4482">NOCAP</text><text fill="#000000" font-family="sans-serif" font-size="12" lengthAdjust="spacingAndGlyphs" textLength="273" x="574" y="186.8887">book size=4,firstcap=0,ncap=0,nneutral=0</text><text fill="#000000" font-family="sans-serif" font-size="12" lengthAdjust="spacingAndGlyphs" textLength="279" x="574" y="200.8574">john's size=6,firstcap=0,ncap=0,nneutral=1</text><path d="M219,140.9531 L219,211.4844 A0,0 0 0 0 219,211.4844 L534,211.4844 A0,0 0 0 0 534,211.4844 L534,180.4531 L568.708,176.4531 L534,172.4531 L534,150.9531 L524,140.9531 L219,140.9531 A0,0 0 0 0 219,140.9531 " fill="#FBFB77" filter="url(#f18j0tqa91qujm)" style="stroke: #A80036; stroke-width: 1.0;"/><path d="M524,140.9531 L524,150.9531 L534,150.9531 L524,140.9531 " fill="#FBFB77" style="stroke: #A80036; stroke-width: 1.0;"/><text fill="#000000" font-family="sans-serif" font-size="13" lengthAdjust="spacingAndGlyphs" textLength="107" x="225" y="158.02">size: word length</text><text fill="#000000" font-family="sans-serif" font-size="13" lengthAdjust="spacingAndGlyphs" textLength="179" x="225" y="173.1528">firstcap: position first capital</text><text fill="#000000" font-family="sans-serif" font-size="13" lengthAdjust="spacingAndGlyphs" textLength="158" x="225" y="188.2856">ncap: number of capitals</text><text fill="#000000" font-family="sans-serif" font-size="13" lengthAdjust="spacingAndGlyphs" textLength="294" x="225" y="203.4185">nneutral: number of capital neutral characters</text><rect fill="#FEFECE" filter="url(#f18j0tqa91qujm)" height="64.2344" rx="12.5" ry="12.5" style="stroke: #A80036; stroke-width: 1.5;" width="299" x="6" y="325.9531"/><line style="stroke: #A80036; stroke-width: 1.5;" x1="6" x2="305" y1="352.25" y2="352.25"/><text fill="#000000" font-family="sans-serif" font-size="14" lengthAdjust="spacingAndGlyphs" textLength="53" x="129" y="343.9482">INITCAP</text><text fill="#000000" font-family="sans-serif" font-size="12" lengthAdjust="spacingAndGlyphs" textLength="273" x="11" y="368.3887">Book size=4,firstcap=1,ncap=1,nneutral=0</text><text fill="#000000" font-family="sans-serif" font-size="12" lengthAdjust="spacingAndGlyphs" textLength="279" x="11" y="382.3574">John's size=6,firstcap=1,ncap=1,nneutral=1</text><rect fill="#FEFECE" filter="url(#f18j0tqa91qujm)" height="78.2031" rx="12.5" ry="12.5" style="stroke: #A80036; stroke-width: 1.5;" width="384" x="340.5" y="318.9531"/><line style="stroke: #A80036; stroke-width: 1.5;" x1="340.5" x2="724.5" y1="345.25" y2="345.25"/><text fill="#000000" font-family="sans-serif" font-size="14" lengthAdjust="spacingAndGlyphs" textLength="51" x="507" y="336.9482">ALLCAP</text><text fill="#000000" font-family="sans-serif" font-size="12" lengthAdjust="spacingAndGlyphs" textLength="286" x="345.5" y="361.3887">UNICEF size=6,firstcap=1,ncap=6,nneutral=0</text><text fill="#000000" font-family="sans-serif" font-size="12" lengthAdjust="spacingAndGlyphs" textLength="297" x="345.5" y="375.3574">UNICEF'S size=8,firstcap=1,ncap=7,nneutral=1</text><text fill="#000000" font-family="sans-serif" font-size="12" lengthAdjust="spacingAndGlyphs" textLength="364" x="345.5" y="389.3262">OPENOFFICE.ORG size=14,firstcap=1,ncap=13,nneutral=1</text><rect fill="#FEFECE" filter="url(#f18j0tqa91qujm)" height="64.2344" rx="12.5" ry="12.5" style="stroke: #A80036; stroke-width: 1.5;" width="290" x="759.5" y="325.9531"/><line style="stroke: #A80036; stroke-width: 1.5;" x1="759.5" x2="1049.5" y1="352.25" y2="352.25"/><text fill="#000000" font-family="sans-serif" font-size="14" lengthAdjust="spacingAndGlyphs" textLength="58" x="875.5" y="343.9482">HUHCAP</text><text fill="#000000" font-family="sans-serif" font-size="12" lengthAdjust="spacingAndGlyphs" textLength="269" x="764.5" y="368.3887">iPod size=4,firstcap=0,ncap=1,nneutral=0</text><text fill="#000000" font-family="sans-serif" font-size="12" lengthAdjust="spacingAndGlyphs" textLength="270" x="764.5" y="382.3574">iPoD size=4,firstcap=0,ncap=2,nneutral=0</text><rect fill="#FEFECE" filter="url(#f18j0tqa91qujm)" height="64.2344" rx="12.5" ry="12.5" style="stroke: #A80036; stroke-width: 1.5;" width="363" x="1085" y="325.9531"/><line style="stroke: #A80036; stroke-width: 1.5;" x1="1085" x2="1448" y1="352.25" y2="352.25"/><text fill="#000000" font-family="sans-serif" font-size="14" lengthAdjust="spacingAndGlyphs" textLength="83" x="1225" y="343.9482">HUHINITCAP</text><text fill="#000000" font-family="sans-serif" font-size="12" lengthAdjust="spacingAndGlyphs" textLength="343" x="1090" y="368.3887">OpenOffice.org size=14,firstcap=1,ncap=2,nneutral=1</text><text fill="#000000" font-family="sans-serif" font-size="12" lengthAdjust="spacingAndGlyphs" textLength="296" x="1090" y="382.3574">UNICEF's size=8,firstcap=1,ncap=6,nneutral=1</text><!--link *start to NOCAP--><path d="M718.5,49.2879 C718.5,68.1217 718.5,108.8826 718.5,139.2084 " fill="none" id="*start-NOCAP" style="stroke: #A80036; stroke-width: 1.0;"/><polygon fill="#A80036" points="718.5,144.3605,722.5,135.3605,718.5,139.3605,714.5,135.3605,718.5,144.3605" style="stroke: #A80036; stroke-width: 1.0;"/><text fill="#000000" font-family="sans-serif" font-size="13" lengthAdjust="spacingAndGlyphs" textLength="233" x="719.5" y="92.02">default after skipping leading spaces</text><text fill="#000000" font-family="sans-serif" font-size="13" lengthAdjust="spacingAndGlyphs" textLength="179" x="719.5" y="107.1528">and omitting trailing periods</text><!--link NOCAP to NOCAP--><path d="M868.3516,163.0681 C889.119,165.2727 903,169.7343 903,176.4531 C903,182.5945 891.4022,186.85 873.5487,189.2197 " fill="none" id="NOCAP-NOCAP" style="stroke: #A80036; stroke-width: 1.0;"/><polygon fill="#A80036" points="868.3516,189.8381,877.7612,192.7466,873.3166,189.2473,876.8159,184.8026,868.3516,189.8381" style="stroke: #A80036; stroke-width: 1.0;"/><text fill="#000000" font-family="sans-serif" font-size="13" lengthAdjust="spacingAndGlyphs" textLength="81" x="909" y="166.02">empty string</text><text fill="#000000" font-family="sans-serif" font-size="13" lengthAdjust="spacingAndGlyphs" textLength="13" x="909" y="181.1528">or</text><text fill="#000000" font-family="sans-serif" font-size="13" lengthAdjust="spacingAndGlyphs" textLength="69" x="909" y="196.2856">ncap == 0</text><!--link NOCAP to INITCAP--><path d="M619.1429,208.4839 C518.1512,241.0416 362.3462,291.27 259.6585,324.3745 " fill="none" id="NOCAP-INITCAP" style="stroke: #A80036; stroke-width: 1.0;"/><polygon fill="#A80036" points="254.8091,325.9378,264.6023,326.9834,259.5679,324.4037,262.1477,319.3693,254.8091,325.9378" style="stroke: #A80036; stroke-width: 1.0;"/><text fill="#000000" font-family="sans-serif" font-size="13" lengthAdjust="spacingAndGlyphs" textLength="69" x="505.5" y="255.02">ncap == 1</text><text fill="#000000" font-family="sans-serif" font-size="13" lengthAdjust="spacingAndGlyphs" textLength="24" x="505.5" y="270.1528">and</text><text fill="#000000" font-family="sans-serif" font-size="13" lengthAdjust="spacingAndGlyphs" textLength="74" x="505.5" y="285.2856">firstcap &gt; 0</text><!--link NOCAP to ALLCAP--><path d="M685.6751,208.4839 C655.2865,238.1372 609.8759,282.4492 576.3838,315.131 " fill="none" id="NOCAP-ALLCAP" style="stroke: #A80036; stroke-width: 1.0;"/><polygon fill="#A80036" points="572.7715,318.6559,582.0065,315.2332,576.3501,315.1639,576.4193,309.5075,572.7715,318.6559" style="stroke: #A80036; stroke-width: 1.0;"/><text fill="#000000" font-family="sans-serif" font-size="13" lengthAdjust="spacingAndGlyphs" textLength="86" x="649.5" y="255.02">ncap == size</text><text fill="#000000" font-family="sans-serif" font-size="13" lengthAdjust="spacingAndGlyphs" textLength="13" x="649.5" y="270.1528">or</text><text fill="#000000" font-family="sans-serif" font-size="13" lengthAdjust="spacingAndGlyphs" textLength="158" x="649.5" y="285.2856">ncap + nneutral == size</text><!--link NOCAP to HUHCAP--><path d="M773.5484,208.6101 C788.248,218.4029 803.6144,229.8161 816.5,241.9531 C841.7045,265.6933 865.1305,297.238 881.4655,321.439 " fill="none" id="NOCAP-HUHCAP" style="stroke: #A80036; stroke-width: 1.0;"/><polygon fill="#A80036" points="884.4319,325.8688,882.7477,316.165,881.6498,321.7143,876.1005,320.6164,884.4319,325.8688" style="stroke: #A80036; stroke-width: 1.0;"/><text fill="#000000" font-family="sans-serif" font-size="13" lengthAdjust="spacingAndGlyphs" textLength="58" x="857.5" y="255.02">ncap &gt; 1</text><text fill="#000000" font-family="sans-serif" font-size="13" lengthAdjust="spacingAndGlyphs" textLength="24" x="857.5" y="270.1528">and</text><text fill="#000000" font-family="sans-serif" font-size="13" lengthAdjust="spacingAndGlyphs" textLength="74" x="857.5" y="285.2856">firstcap &gt; 0</text><!--link NOCAP to HUHINITCAP--><path d="M831.5224,208.4965 C866.5734,218.783 905.2469,230.49 940.5,241.9531 C1020.3988,267.9334 1110.2956,300.1481 1175.4198,324.0314 " fill="none" id="NOCAP-HUHINITCAP" style="stroke: #A80036; stroke-width: 1.0;"/><polygon fill="#A80036" points="1180.4586,325.8808,1173.3878,319.0249,1175.7647,324.1581,1170.6315,326.535,1180.4586,325.8808" style="stroke: #A80036; stroke-width: 1.0;"/><text fill="#000000" font-family="sans-serif" font-size="13" lengthAdjust="spacingAndGlyphs" textLength="34" x="1076.5" y="270.02">other</text><!--
@startuml
skinparam backgroundcolor White|White

title Hunspell - Capitalization Type (captype)

[*] - -> NOCAP : default after skipping leading spaces\land omitting trailing periods

note left : size: word length\nfirstcap: position first capital\nncap: number of capitals\nnneutral: number of capital neutral characters

NOCAP - -> NOCAP : empty string\lor\lncap == 0
NOCAP - -> INITCAP : ncap == 1\land\lfirstcap > 0
NOCAP - -> ALLCAP : ncap == size\lor\lncap + nneutral == size
NOCAP - -> HUHCAP : ncap > 1\land\lfirstcap > 0
NOCAP - -> HUHINITCAP : other

NOCAP : book size=4,firstcap=0,ncap=0,nneutral=0\njohn's size=6,firstcap=0,ncap=0,nneutral=1

INITCAP : Book size=4,firstcap=1,ncap=1,nneutral=0\nJohn's size=6,firstcap=1,ncap=1,nneutral=1

ALLCAP : UNICEF size=6,firstcap=1,ncap=6,nneutral=0\nUNICEF'S size=8,firstcap=1,ncap=7,nneutral=1\nOPENOFFICE.ORG size=14,firstcap=1,ncap=13,nneutral=1

HUHINITCAP : OpenOffice.org size=14,firstcap=1,ncap=2,nneutral=1\nUNICEF's size=8,firstcap=1,ncap=6,nneutral=1

HUHCAP : iPod size=4,firstcap=0,ncap=1,nneutral=0\niPoD size=4,firstcap=0,ncap=2,nneutral=0

@enduml

PlantUML version 1.2018.12beta1(Unknown compile time)
(GPL source distribution)
Java Runtime: OpenJDK Runtime Environment
JVM: OpenJDK 64-Bit Server VM
Java Version: 10.0.2+13-Ubuntu-1ubuntu0.18.04.2
Operating System: Linux
OS Version: 4.15.0-34-generic
Default Encoding: UTF-8
Language: en
Country: US
--></g></svg>