<?xml version="1.0" encoding="UTF-8" standalone="yes"?><svg xmlns="http://www.w3.org/2000/svg" xmlns:xlink="http://www.w3.org/1999/xlink" height="406px" style="width:1426px;height:406px;" version="1.1" viewBox="0 0 1426 406" width="1426px"><defs><filter height="300%" id="f1" width="300%" x="-1" y="-1"><feGaussianBlur result="blurOut" stdDeviation="2.0"/><feColorMatrix in="blurOut" result="blurOut2" type="matrix" values="0 0 0 0 0 0 0 0 0 0 0 0 0 0 0 0 0 0 .4 0"/><feOffset dx="4.0" dy="4.0" in="blurOut2" result="blurOut3"/><feBlend in="SourceGraphic" in2="blurOut3" mode="normal"/></filter></defs><g><text fill="#000000" font-family="sans-serif" font-size="18" lengthAdjust="spacingAndGlyphs" textLength="360" x="537.5" y="16.708">Hunspell - Capitalization Type (captype)</text><ellipse cx="704" cy="38.9531" fill="#000000" filter="url(#f1)" rx="10" ry="10" style="stroke: none; stroke-width: 1.0;"/><rect fill="#FEFECE" filter="url(#f1)" height="64.2344" rx="12.5" ry="12.5" style="stroke: #A80036; stroke-width: 1.5;" width="291" x="558.5" y="144.4531"/><line style="stroke: #A80036; stroke-width: 1.5;" x1="558.5" x2="849.5" y1="170.75" y2="170.75"/><text fill="#000000" font-family="sans-serif" font-size="14" lengthAdjust="spacingAndGlyphs" textLength="49" x="679.5" y="162.4482">NOCAP</text><text fill="#000000" font-family="sans-serif" font-size="12" lengthAdjust="spacingAndGlyphs" textLength="265" x="563.5" y="186.8887">book size=4,firstcap=0,ncap=0,nneutral=0</text><text fill="#000000" font-family="sans-serif" font-size="12" lengthAdjust="spacingAndGlyphs" textLength="271" x="563.5" y="200.8574">john's size=6,firstcap=0,ncap=0,nneutral=1</text><polygon fill="#FBFB77" filter="url(#f1)" points="169,140.9531,169,211.4844,489,211.4844,489,150.9531,479,140.9531,169,140.9531" style="stroke: #A80036; stroke-width: 1.0;"/><polygon fill="#FBFB77" points="169,140.9531,169,211.4844,489,211.4844,489,180.4531,558.31,176.4531,489,172.4531,489,150.9531,479,140.9531,169,140.9531" style="stroke: #A80036; stroke-width: 1.0;"/><line style="stroke: #A80036; stroke-width: 1.0;" x1="479" x2="479" y1="140.9531" y2="150.9531"/><line style="stroke: #A80036; stroke-width: 1.0;" x1="489" x2="479" y1="150.9531" y2="150.9531"/><text fill="#000000" font-family="sans-serif" font-size="13" lengthAdjust="spacingAndGlyphs" textLength="111" x="175" y="158.02">size: word length</text><text fill="#000000" font-family="sans-serif" font-size="13" lengthAdjust="spacingAndGlyphs" textLength="187" x="175" y="173.1528">firstcap: position first capital</text><text fill="#000000" font-family="sans-serif" font-size="13" lengthAdjust="spacingAndGlyphs" textLength="161" x="175" y="188.2856">ncap: number of capitals</text><text fill="#000000" font-family="sans-serif" font-size="13" lengthAdjust="spacingAndGlyphs" textLength="299" x="175" y="203.4185">nneutral: number of capital neutral characters</text><rect fill="#FEFECE" filter="url(#f1)" height="64.2344" rx="12.5" ry="12.5" style="stroke: #A80036; stroke-width: 1.5;" width="292" x="6" y="325.9531"/><line style="stroke: #A80036; stroke-width: 1.5;" x1="6" x2="298" y1="352.25" y2="352.25"/><text fill="#000000" font-family="sans-serif" font-size="14" lengthAdjust="spacingAndGlyphs" textLength="55" x="124.5" y="343.9482">INITCAP</text><text fill="#000000" font-family="sans-serif" font-size="12" lengthAdjust="spacingAndGlyphs" textLength="265" x="11" y="368.3887">Book size=4,firstcap=1,ncap=1,nneutral=0</text><text fill="#000000" font-family="sans-serif" font-size="12" lengthAdjust="spacingAndGlyphs" textLength="272" x="11" y="382.3574">John's size=6,firstcap=1,ncap=1,nneutral=1</text><rect fill="#FEFECE" filter="url(#f1)" height="78.2031" rx="12.5" ry="12.5" style="stroke: #A80036; stroke-width: 1.5;" width="378" x="333" y="318.9531"/><line style="stroke: #A80036; stroke-width: 1.5;" x1="333" x2="711" y1="345.25" y2="345.25"/><text fill="#000000" font-family="sans-serif" font-size="14" lengthAdjust="spacingAndGlyphs" textLength="54" x="495" y="336.9482">ALLCAP</text><text fill="#000000" font-family="sans-serif" font-size="12" lengthAdjust="spacingAndGlyphs" textLength="281" x="338" y="361.3887">UNICEF size=6,firstcap=1,ncap=6,nneutral=0</text><text fill="#000000" font-family="sans-serif" font-size="12" lengthAdjust="spacingAndGlyphs" textLength="292" x="338" y="375.3574">UNICEF'S size=8,firstcap=1,ncap=7,nneutral=1</text><text fill="#000000" font-family="sans-serif" font-size="12" lengthAdjust="spacingAndGlyphs" textLength="358" x="338" y="389.3262">OPENOFFICE.ORG size=14,firstcap=1,ncap=13,nneutral=1</text><rect fill="#FEFECE" filter="url(#f1)" height="64.2344" rx="12.5" ry="12.5" style="stroke: #A80036; stroke-width: 1.5;" width="282" x="746" y="325.9531"/><line style="stroke: #A80036; stroke-width: 1.5;" x1="746" x2="1028" y1="352.25" y2="352.25"/><text fill="#000000" font-family="sans-serif" font-size="14" lengthAdjust="spacingAndGlyphs" textLength="60" x="857" y="343.9482">HUHCAP</text><text fill="#000000" font-family="sans-serif" font-size="12" lengthAdjust="spacingAndGlyphs" textLength="261" x="751" y="368.3887">iPod size=4,firstcap=0,ncap=1,nneutral=0</text><text fill="#000000" font-family="sans-serif" font-size="12" lengthAdjust="spacingAndGlyphs" textLength="262" x="751" y="382.3574">iPoD size=4,firstcap=0,ncap=2,nneutral=0</text><rect fill="#FEFECE" filter="url(#f1)" height="64.2344" rx="12.5" ry="12.5" style="stroke: #A80036; stroke-width: 1.5;" width="354" x="1063" y="325.9531"/><line style="stroke: #A80036; stroke-width: 1.5;" x1="1063" x2="1417" y1="352.25" y2="352.25"/><text fill="#000000" font-family="sans-serif" font-size="14" lengthAdjust="spacingAndGlyphs" textLength="87" x="1196.5" y="343.9482">HUHINITCAP</text><text fill="#000000" font-family="sans-serif" font-size="12" lengthAdjust="spacingAndGlyphs" textLength="334" x="1068" y="368.3887">OpenOffice.org size=14,firstcap=1,ncap=2,nneutral=1</text><text fill="#000000" font-family="sans-serif" font-size="12" lengthAdjust="spacingAndGlyphs" textLength="290" x="1068" y="382.3574">UNICEF's size=8,firstcap=1,ncap=6,nneutral=1</text><path d="M704,49.2661 C704,67.4661 704,108.6261 704,139.0131 " fill="none" style="stroke: #A80036; stroke-width: 1.0;"/><polygon fill="#A80036" points="704,144.1721,708,135.1721,704,139.1721,700,135.1721,704,144.1721" style="stroke: #A80036; stroke-width: 1.0;"/><text fill="#000000" font-family="sans-serif" font-size="13" lengthAdjust="spacingAndGlyphs" textLength="241" x="705" y="92.02">default after skipping leading spaces</text><text fill="#000000" font-family="sans-serif" font-size="13" lengthAdjust="spacingAndGlyphs" textLength="185" x="705" y="107.1528">and omitting trailing periods</text><path d="M849.534,162.9551 C870.442,165.1181 884.5,169.6171 884.5,176.4531 C884.5,182.7011 872.754,186.9981 854.768,189.3421 " fill="none" style="stroke: #A80036; stroke-width: 1.0;"/><polygon fill="#A80036" points="849.534,189.9511,858.9356,192.8853,854.5006,189.3739,858.012,184.9388,849.534,189.9511" style="stroke: #A80036; stroke-width: 1.0;"/><text fill="#000000" font-family="sans-serif" font-size="13" lengthAdjust="spacingAndGlyphs" textLength="83" x="890.5" y="166.02">empty string</text><text fill="#000000" font-family="sans-serif" font-size="13" lengthAdjust="spacingAndGlyphs" textLength="13" x="890.5" y="181.1528">or</text><text fill="#000000" font-family="sans-serif" font-size="13" lengthAdjust="spacingAndGlyphs" textLength="69" x="890.5" y="196.2856">ncap == 0</text><path d="M608.479,208.5151 C509,240.8631 353.818,291.3251 252.52,324.2657 " fill="none" style="stroke: #A80036; stroke-width: 1.0;"/><polygon fill="#A80036" points="247.738,325.8209,257.5337,326.8427,252.4931,324.2752,255.0605,319.2345,247.738,325.8209" style="stroke: #A80036; stroke-width: 1.0;"/><text fill="#000000" font-family="sans-serif" font-size="13" lengthAdjust="spacingAndGlyphs" textLength="69" x="495" y="255.02">ncap == 1</text><text fill="#000000" font-family="sans-serif" font-size="13" lengthAdjust="spacingAndGlyphs" textLength="24" x="495" y="270.1528">and</text><text fill="#000000" font-family="sans-serif" font-size="13" lengthAdjust="spacingAndGlyphs" textLength="76" x="495" y="285.2856">firstcap &gt; 0</text><path d="M672.298,208.7201 C642.449,238.1591 597.523,282.4671 564.563,314.9748 " fill="none" style="stroke: #A80036; stroke-width: 1.0;"/><polygon fill="#A80036" points="560.604,318.8789,569.8212,315.4085,564.1644,315.3685,564.2045,309.7118,560.604,318.8789" style="stroke: #A80036; stroke-width: 1.0;"/><text fill="#000000" font-family="sans-serif" font-size="13" lengthAdjust="spacingAndGlyphs" textLength="87" x="636" y="255.02">ncap == size</text><text fill="#000000" font-family="sans-serif" font-size="13" lengthAdjust="spacingAndGlyphs" textLength="13" x="636" y="270.1528">or</text><text fill="#000000" font-family="sans-serif" font-size="13" lengthAdjust="spacingAndGlyphs" textLength="160" x="636" y="285.2856">ncap + nneutral == size</text><path d="M761.041,208.5341 C776.192,218.1741 791.954,229.5571 805,241.9531 C829.684,265.4071 851.715,297.2514 866.709,321.4842 " fill="none" style="stroke: #A80036; stroke-width: 1.0;"/><polygon fill="#A80036" points="869.426,325.9166,868.1329,316.153,866.813,321.6537,861.3123,320.3339,869.426,325.9166" style="stroke: #A80036; stroke-width: 1.0;"/><text fill="#000000" font-family="sans-serif" font-size="13" lengthAdjust="spacingAndGlyphs" textLength="58" x="847" y="255.02">ncap &gt; 1</text><text fill="#000000" font-family="sans-serif" font-size="13" lengthAdjust="spacingAndGlyphs" textLength="24" x="847" y="270.1528">and</text><text fill="#000000" font-family="sans-serif" font-size="13" lengthAdjust="spacingAndGlyphs" textLength="76" x="847" y="285.2856">firstcap &gt; 0</text><path d="M820.837,208.5291 C856.687,218.5931 896.132,230.2051 932,241.9531 C1009.18,267.2331 1095.72,299.9393 1157.37,324.0061 " fill="none" style="stroke: #A80036; stroke-width: 1.0;"/><polygon fill="#A80036" points="1162.14,325.8692,1155.2246,318.8566,1157.4859,324.0418,1152.3007,326.3031,1162.14,325.8692" style="stroke: #A80036; stroke-width: 1.0;"/><text fill="#000000" font-family="sans-serif" font-size="13" lengthAdjust="spacingAndGlyphs" textLength="34" x="1061" y="270.02">other</text></g></svg>