<?xml version="1.0" encoding="UTF-8" standalone="no"?><svg xmlns="http://www.w3.org/2000/svg" xmlns:xlink="http://www.w3.org/1999/xlink" contentScriptType="application/ecmascript" contentStyleType="text/css" height="618px" preserveAspectRatio="none" style="width:1486px;height:618px;" version="1.1" viewBox="0 0 1486 618" width="1486px" zoomAndPan="magnify"><defs><linearGradient id="ghypkrvifuohf0" x1="0%" x2="100%" y1="50%" y2="50%"><stop offset="0%" stop-color="#FFFFFF"/><stop offset="100%" stop-color="#FFFFFF"/></linearGradient><filter height="300%" id="fhypkrvifuohf" width="300%" x="-1" y="-1"><feGaussianBlur result="blurOut" stdDeviation="2.0"/><feColorMatrix in="blurOut" result="blurOut2" type="matrix" values="0 0 0 0 0 0 0 0 0 0 0 0 0 0 0 0 0 0 .4 0"/><feOffset dx="4.0" dy="4.0" in="blurOut2" result="blurOut3"/><feBlend in="SourceGraphic" in2="blurOut3" mode="normal"/></filter></defs><g><rect fill="url(#ghypkrvifuohf0)" height="618" style="stroke: none; stroke-width: 1.0;" width="1486" x="0" y="0"/><text fill="#000000" font-family="Roboto Condensed" font-size="18" font-weight="bold" lengthAdjust="spacingAndGlyphs" textLength="261" x="616" y="18.8613">Nuspell - Command-line Arguments</text><ellipse cx="689.8675" cy="41.7393" fill="#000000" filter="url(#fhypkrvifuohf)" rx="10" ry="10" style="stroke: none; stroke-width: 1.0;"/><rect fill="#FFFFFF" filter="url(#fhypkrvifuohf)" height="50" rx="12.5" ry="12.5" style="stroke: #000000; stroke-width: 1.5;" width="112" x="633.8675" y="112.7393"/><line style="stroke: #000000; stroke-width: 1.5;" x1="633.8675" x2="745.8675" y1="141.2031" y2="141.2031"/><text fill="#000000" font-family="Roboto Condensed" font-size="14" lengthAdjust="spacingAndGlyphs" textLength="92" x="643.8675" y="132.4092">DEFAULT_MODE</text><ellipse cx="589.8675" cy="597.7393" fill="none" filter="url(#fhypkrvifuohf)" rx="10" ry="10" style="stroke: #000000; stroke-width: 1.0;"/><ellipse cx="590.3675" cy="598.2393" fill="#000000" rx="6" ry="6" style="stroke: none; stroke-width: 1.0;"/><rect fill="#FFFFFF" filter="url(#fhypkrvifuohf)" height="50" rx="12.5" ry="12.5" style="stroke: #000000; stroke-width: 1.5;" width="135" x="64.3675" y="285.7393"/><line style="stroke: #000000; stroke-width: 1.5;" x1="64.3675" x2="199.3675" y1="314.2031" y2="314.2031"/><text fill="#000000" font-family="Roboto Condensed" font-size="14" lengthAdjust="spacingAndGlyphs" textLength="115" x="74.3675" y="305.4092">NO_SUGGEST_MODE</text><rect fill="#FFFFFF" filter="url(#fhypkrvifuohf)" height="50" rx="12.5" ry="12.5" style="stroke: #000000; stroke-width: 1.5;" width="222" x="136.8675" y="474.7393"/><line style="stroke: #000000; stroke-width: 1.5;" x1="136.8675" x2="358.8675" y1="503.2031" y2="503.2031"/><text fill="#000000" font-family="Roboto Condensed" font-size="14" lengthAdjust="spacingAndGlyphs" textLength="202" x="146.8675" y="494.4092">CRUDE_PARSE_NO_SUGGEST_MODE</text><rect fill="#FFFFFF" filter="url(#fhypkrvifuohf)" height="50" rx="12.5" ry="12.5" style="stroke: #000000; stroke-width: 1.5;" width="141" x="234.3675" y="285.7393"/><line style="stroke: #000000; stroke-width: 1.5;" x1="234.3675" x2="375.3675" y1="314.2031" y2="314.2031"/><text fill="#000000" font-family="Roboto Condensed" font-size="14" lengthAdjust="spacingAndGlyphs" textLength="121" x="244.3675" y="305.4092">CRUDE_PARSE_MODE</text><rect fill="#FFFFFF" filter="url(#fhypkrvifuohf)" height="50" rx="12.5" ry="12.5" style="stroke: #000000; stroke-width: 1.5;" width="172" x="359.8675" y="392.7393"/><line style="stroke: #000000; stroke-width: 1.5;" x1="359.8675" x2="531.8675" y1="421.2031" y2="421.2031"/><text fill="#000000" font-family="Roboto Condensed" font-size="14" lengthAdjust="spacingAndGlyphs" textLength="152" x="369.8675" y="412.4092">LIST_DICTIONARIES_MODE</text><rect fill="#FFFFFF" filter="url(#fhypkrvifuohf)" height="50" rx="12.5" ry="12.5" style="stroke: #000000; stroke-width: 1.5;" width="159" x="482.3675" y="285.7393"/><line style="stroke: #000000; stroke-width: 1.5;" x1="482.3675" x2="641.3675" y1="314.2031" y2="314.2031"/><text fill="#000000" font-family="Roboto Condensed" font-size="14" lengthAdjust="spacingAndGlyphs" textLength="139" x="492.3675" y="305.4092">CORRECT_WORDS_MODE</text><rect fill="#FFFFFF" filter="url(#fhypkrvifuohf)" height="50" rx="12.5" ry="12.5" style="stroke: #000000; stroke-width: 1.5;" width="152" x="678.8675" y="474.7393"/><line style="stroke: #000000; stroke-width: 1.5;" x1="678.8675" x2="830.8675" y1="503.2031" y2="503.2031"/><text fill="#000000" font-family="Roboto Condensed" font-size="14" lengthAdjust="spacingAndGlyphs" textLength="132" x="688.8675" y="494.4092">CORRECT_LINES_MODE</text><rect fill="#FFFFFF" filter="url(#fhypkrvifuohf)" height="50" rx="12.5" ry="12.5" style="stroke: #000000; stroke-width: 1.5;" width="180" x="676.8675" y="285.7393"/><line style="stroke: #000000; stroke-width: 1.5;" x1="676.8675" x2="856.8675" y1="314.2031" y2="314.2031"/><text fill="#000000" font-family="Roboto Condensed" font-size="14" lengthAdjust="spacingAndGlyphs" textLength="160" x="686.8675" y="305.4092">MISSPELLED_WORDS_MODE</text><rect fill="#FFFFFF" filter="url(#fhypkrvifuohf)" height="50" rx="12.5" ry="12.5" style="stroke: #000000; stroke-width: 1.5;" width="173" x="866.3675" y="474.7393"/><line style="stroke: #000000; stroke-width: 1.5;" x1="866.3675" x2="1039.3675" y1="503.2031" y2="503.2031"/><text fill="#000000" font-family="Roboto Condensed" font-size="14" lengthAdjust="spacingAndGlyphs" textLength="153" x="876.3675" y="494.4092">MISSPELLED_LINES_MODE</text><rect fill="#FFFFFF" filter="url(#fhypkrvifuohf)" height="54.29" rx="12.5" ry="12.5" style="stroke: #000000; stroke-width: 1.5;" width="124" x="891.8675" y="283.7393"/><line style="stroke: #000000; stroke-width: 1.5;" x1="891.8675" x2="1015.8675" y1="312.2031" y2="312.2031"/><text fill="#000000" font-family="Roboto Condensed" font-size="14" lengthAdjust="spacingAndGlyphs" textLength="74" x="916.8675" y="303.4092">LINES_MODE</text><text fill="#000000" font-family="Roboto Condensed" font-size="12" lengthAdjust="spacingAndGlyphs" textLength="104" x="896.8675" y="329.7773">is intermediate mode</text><rect fill="#FFFFFF" filter="url(#fhypkrvifuohf)" height="54.29" rx="12.5" ry="12.5" style="stroke: #000000; stroke-width: 1.5;" width="125" x="1074.3675" y="472.7393"/><line style="stroke: #000000; stroke-width: 1.5;" x1="1074.3675" x2="1199.3675" y1="501.2031" y2="501.2031"/><text fill="#000000" font-family="Roboto Condensed" font-size="14" lengthAdjust="spacingAndGlyphs" textLength="76" x="1098.8675" y="492.4092">ERROR_MODE</text><text fill="#000000" font-family="Roboto Condensed" font-size="12" lengthAdjust="spacingAndGlyphs" textLength="105" x="1079.3675" y="518.7773">returns exit code of 1</text><rect fill="#FFFFFF" filter="url(#fhypkrvifuohf)" height="50" rx="12.5" ry="12.5" style="stroke: #000000; stroke-width: 1.5;" width="91" x="1232.3675" y="392.7393"/><line style="stroke: #000000; stroke-width: 1.5;" x1="1232.3675" x2="1323.3675" y1="421.2031" y2="421.2031"/><text fill="#000000" font-family="Roboto Condensed" font-size="14" lengthAdjust="spacingAndGlyphs" textLength="71" x="1242.3675" y="412.4092">HELP_MODE</text><rect fill="#FFFFFF" filter="url(#fhypkrvifuohf)" height="50" rx="12.5" ry="12.5" style="stroke: #000000; stroke-width: 1.5;" width="110" x="1364.8675" y="392.7393"/><line style="stroke: #000000; stroke-width: 1.5;" x1="1364.8675" x2="1474.8675" y1="421.2031" y2="421.2031"/><text fill="#000000" font-family="Roboto Condensed" font-size="14" lengthAdjust="spacingAndGlyphs" textLength="90" x="1374.8675" y="412.4092">VERSION_MODE</text><!--link *start to DEFAULT_MODE--><path d="M689.8675,52.013 C689.8675,65.1001 689.8675,88.2948 689.8675,107.26 " fill="none" id="*start-DEFAULT_MODE" style="stroke: #000000; stroke-width: 1.0;"/><polygon fill="#000000" points="689.8675,112.4851,693.8675,103.4851,689.8675,107.4851,685.8675,103.4851,689.8675,112.4851" style="stroke: #000000; stroke-width: 1.0;"/><!--link DEFAULT_MODE to DEFAULT_MODE--><path d="M746.2975,127.6149 C765.4629,127.5618 780.8675,130.9366 780.8675,137.7393 C780.8675,143.9043 768.2159,147.2539 751.579,147.7882 " fill="none" id="DEFAULT_MODE-DEFAULT_MODE" style="stroke: #000000; stroke-width: 1.0;"/><polygon fill="#000000" points="746.2975,147.8637,755.3538,151.7344,751.297,147.7921,755.2393,143.7352,746.2975,147.8637" style="stroke: #000000; stroke-width: 1.0;"/><text fill="#000000" font-family="Roboto Condensed" font-size="13" lengthAdjust="spacingAndGlyphs" textLength="77" x="786.8675" y="134.3613">-d with operand</text><text fill="#000000" font-family="Roboto Condensed" font-size="13" lengthAdjust="spacingAndGlyphs" textLength="74" x="786.8675" y="151.5063">-i with operand</text><!--link DEFAULT_MODE to *end--><path d="M633.6758,138.9095 C489.8903,143.2723 115.1328,163.7203 46.8675,258.7393 C-23.4387,356.5991 2.4265,441.7726 87.8675,526.7393 C123.447,562.1213 493.9313,590.8032 574.4708,596.6488 " fill="none" id="DEFAULT_MODE-*end" style="stroke: #000000; stroke-width: 1.0;"/><polygon fill="#000000" points="579.76,597.03,571.0708,592.3933,574.7729,596.6705,570.4957,600.3726,579.76,597.03" style="stroke: #000000; stroke-width: 1.0;"/><!--link DEFAULT_MODE to NO_SUGGEST_MODE--><path d="M633.5925,143.3296 C545.1606,152.5873 377.9562,172.1345 321.8675,192.7393 C263.5516,214.1623 203.9137,254.8987 167.3848,282.4394 " fill="none" id="DEFAULT_MODE-NO_SUGGEST_MODE" style="stroke: #000000; stroke-width: 1.0;"/><polygon fill="#000000" points="163.0462,285.7304,172.6341,283.4781,167.0298,282.7086,167.7993,277.1043,163.0462,285.7304" style="stroke: #000000; stroke-width: 1.0;"/><text fill="#000000" font-family="Roboto Condensed" font-size="13" lengthAdjust="spacingAndGlyphs" textLength="10" x="322.8675" y="215.8613">-U</text><!--link NO_SUGGEST_MODE to *end--><path d="M120.2912,335.9692 C101.8656,380.3482 72.4309,472.7781 118.8675,526.7393 C149.4854,562.3185 496.2912,590.6363 574.3352,596.5858 " fill="none" id="NO_SUGGEST_MODE-*end" style="stroke: #000000; stroke-width: 1.0;"/><polygon fill="#000000" points="579.4819,596.9753,570.8095,592.3073,574.4962,596.5978,570.2056,600.2845,579.4819,596.9753" style="stroke: #000000; stroke-width: 1.0;"/><!--link NO_SUGGEST_MODE to CRUDE_PARSE_NO_SUGGEST_MODE--><path d="M147.2714,335.837 C168.5913,370.5738 207.0249,433.1941 229.7133,470.1604 " fill="none" id="NO_SUGGEST_MODE-CRUDE_PARSE_NO_SUGGEST_MODE" style="stroke: #000000; stroke-width: 1.0;"/><polygon fill="#000000" points="232.3999,474.5378,231.101,464.7749,229.7844,470.2764,224.2829,468.9598,232.3999,474.5378" style="stroke: #000000; stroke-width: 1.0;"/><text fill="#000000" font-family="Roboto Condensed" font-size="13" lengthAdjust="spacingAndGlyphs" textLength="10" x="211.8675" y="422.8613">-C</text><!--link DEFAULT_MODE to CRUDE_PARSE_MODE--><path d="M633.7361,141.8448 C554.5346,148.5746 415.0321,164.1522 373.8675,192.7393 C343.4064,213.8932 324.4226,253.1922 314.2547,280.6004 " fill="none" id="DEFAULT_MODE-CRUDE_PARSE_MODE" style="stroke: #000000; stroke-width: 1.0;"/><polygon fill="#000000" points="312.458,285.5727,319.2786,278.4678,314.1573,280.8703,311.7548,275.7489,312.458,285.5727" style="stroke: #000000; stroke-width: 1.0;"/><text fill="#000000" font-family="Roboto Condensed" font-size="13" lengthAdjust="spacingAndGlyphs" textLength="10" x="374.8675" y="215.8613">-C</text><!--link CRUDE_PARSE_MODE to *end--><path d="M310.9991,335.7547 C318.76,363.819 334.1755,409.7263 358.8675,442.7393 C419.218,523.4273 534.626,575.5462 575.2673,592.0707 " fill="none" id="CRUDE_PARSE_MODE-*end" style="stroke: #000000; stroke-width: 1.0;"/><polygon fill="#000000" points="580.2775,594.0806,573.4138,587.0173,575.637,592.219,570.4353,594.4422,580.2775,594.0806" style="stroke: #000000; stroke-width: 1.0;"/><!--link CRUDE_PARSE_MODE to CRUDE_PARSE_NO_SUGGEST_MODE--><path d="M297.2983,335.837 C286.8648,370.4326 268.0901,432.6854 256.9245,469.7084 " fill="none" id="CRUDE_PARSE_MODE-CRUDE_PARSE_NO_SUGGEST_MODE" style="stroke: #000000; stroke-width: 1.0;"/><polygon fill="#000000" points="255.468,474.5378,261.8963,467.0761,256.9117,469.7507,254.2371,464.7661,255.468,474.5378" style="stroke: #000000; stroke-width: 1.0;"/><text fill="#000000" font-family="Roboto Condensed" font-size="13" lengthAdjust="spacingAndGlyphs" textLength="10" x="280.8675" y="422.8613">-U</text><!--link CRUDE_PARSE_NO_SUGGEST_MODE to *end--><path d="M300.3414,524.7762 C325.7242,536.1107 356.9055,548.9151 385.8675,557.7393 C455.0143,578.8072 540.8322,591.3933 574.9112,595.8738 " fill="none" id="CRUDE_PARSE_NO_SUGGEST_MODE-*end" style="stroke: #000000; stroke-width: 1.0;"/><polygon fill="#000000" points="579.9259,596.5233,571.5144,591.4,574.9673,595.8808,570.4866,599.3337,579.9259,596.5233" style="stroke: #000000; stroke-width: 1.0;"/><!--link DEFAULT_MODE to LIST_DICTIONARIES_MODE--><path d="M633.5431,151.8998 C580.7878,168.3105 504.3296,200.8292 464.8675,258.7393 C438.7137,297.1196 438.6037,353.1204 441.6838,387.3987 " fill="none" id="DEFAULT_MODE-LIST_DICTIONARIES_MODE" style="stroke: #000000; stroke-width: 1.0;"/><polygon fill="#000000" points="442.2021,392.7076,445.3084,383.3614,441.7161,387.7312,437.3462,384.139,442.2021,392.7076" style="stroke: #000000; stroke-width: 1.0;"/><text fill="#000000" font-family="Roboto Condensed" font-size="13" lengthAdjust="spacingAndGlyphs" textLength="10" x="538.8675" y="215.8613">-D</text><!--link LIST_DICTIONARIES_MODE to *end--><path d="M456.4383,442.7659 C469.9674,472.6709 495.6786,523.0136 528.8675,557.7393 C542.739,572.2531 562.823,584.1306 576.1056,591.0711 " fill="none" id="LIST_DICTIONARIES_MODE-*end" style="stroke: #000000; stroke-width: 1.0;"/><polygon fill="#000000" points="580.6673,593.4005,574.471,585.745,576.2143,591.1265,570.8327,592.8698,580.6673,593.4005" style="stroke: #000000; stroke-width: 1.0;"/><!--link DEFAULT_MODE to CORRECT_WORDS_MODE--><path d="M671.2552,162.895 C648.0301,194.2852 608.3752,247.8812 583.7284,281.1929 " fill="none" id="DEFAULT_MODE-CORRECT_WORDS_MODE" style="stroke: #000000; stroke-width: 1.0;"/><polygon fill="#000000" points="580.5023,285.5533,589.071,280.6975,583.4763,281.5339,582.6399,275.9392,580.5023,285.5533" style="stroke: #000000; stroke-width: 1.0;"/><text fill="#000000" font-family="Roboto Condensed" font-size="13" lengthAdjust="spacingAndGlyphs" textLength="11" x="649.8675" y="215.8613">-G</text><!--link CORRECT_WORDS_MODE to CORRECT_LINES_MODE--><path d="M587.4964,335.837 C623.1126,370.715 687.4342,433.7036 725.1217,470.61 " fill="none" id="CORRECT_WORDS_MODE-CORRECT_LINES_MODE" style="stroke: #000000; stroke-width: 1.0;"/><polygon fill="#000000" points="729.1326,474.5378,725.5011,465.3829,725.5603,471.0394,719.9037,471.0986,729.1326,474.5378" style="stroke: #000000; stroke-width: 1.0;"/><text fill="#000000" font-family="Roboto Condensed" font-size="13" lengthAdjust="spacingAndGlyphs" textLength="9" x="693.8675" y="422.8613">-L</text><!--link CORRECT_WORDS_MODE to *end--><path d="M564.3278,335.9571 C569.9829,393.9224 583.7729,535.2701 588.3575,582.2622 " fill="none" id="CORRECT_WORDS_MODE-*end" style="stroke: #000000; stroke-width: 1.0;"/><polygon fill="#000000" points="588.8698,587.5133,591.9769,578.1673,588.3842,582.5369,584.0147,578.9442,588.8698,587.5133" style="stroke: #000000; stroke-width: 1.0;"/><!--link CORRECT_LINES_MODE to *end--><path d="M712.3759,524.9767 C676.211,546.4565 626.5122,575.9746 603.0931,589.8841 " fill="none" id="CORRECT_LINES_MODE-*end" style="stroke: #000000; stroke-width: 1.0;"/><polygon fill="#000000" points="598.7715,592.4509,608.5522,591.294,603.0704,589.8975,604.4669,584.4158,598.7715,592.4509" style="stroke: #000000; stroke-width: 1.0;"/><!--link DEFAULT_MODE to MISSPELLED_WORDS_MODE--><path d="M701.064,162.895 C714.9783,194.1571 738.6956,247.4441 753.5348,280.784 " fill="none" id="DEFAULT_MODE-MISSPELLED_WORDS_MODE" style="stroke: #000000; stroke-width: 1.0;"/><polygon fill="#000000" points="755.6575,285.5533,755.6522,275.7044,753.6244,280.9853,748.3435,278.9574,755.6575,285.5533" style="stroke: #000000; stroke-width: 1.0;"/><text fill="#000000" font-family="Roboto Condensed" font-size="13" lengthAdjust="spacingAndGlyphs" textLength="6" x="729.8675" y="215.8613">-l</text><!--link MISSPELLED_WORDS_MODE to MISSPELLED_LINES_MODE--><path d="M768.0661,335.8192 C770.7586,365.02 779.3892,413.0302 806.8675,442.7393 C821.5777,458.6437 841.2596,470.1687 861.3981,478.4999 " fill="none" id="MISSPELLED_WORDS_MODE-MISSPELLED_LINES_MODE" style="stroke: #000000; stroke-width: 1.0;"/><polygon fill="#000000" points="866.248,480.4427,859.3808,473.3828,861.6065,478.5834,856.406,480.8092,866.248,480.4427" style="stroke: #000000; stroke-width: 1.0;"/><text fill="#000000" font-family="Roboto Condensed" font-size="13" lengthAdjust="spacingAndGlyphs" textLength="9" x="807.8675" y="422.8613">-L</text><!--link MISSPELLED_LINES_MODE to *end--><path d="M865.92,523.2127 C777.6395,547.046 647.9535,582.0577 604.5942,593.7635 " fill="none" id="MISSPELLED_LINES_MODE-*end" style="stroke: #000000; stroke-width: 1.0;"/><polygon fill="#000000" points="599.743,595.0732,609.4745,596.589,604.5702,593.7699,607.3892,588.8655,599.743,595.0732" style="stroke: #000000; stroke-width: 1.0;"/><!--link MISSPELLED_WORDS_MODE to *end--><path d="M749.6603,335.9559 C728.2641,367.5533 690.8972,423.5371 660.8675,472.7393 C636.4687,512.7156 609.6901,561.2495 597.1304,584.3155 " fill="none" id="MISSPELLED_WORDS_MODE-*end" style="stroke: #000000; stroke-width: 1.0;"/><polygon fill="#000000" points="594.672,588.8387,602.4843,582.8413,597.0597,584.4456,595.4554,579.021,594.672,588.8387" style="stroke: #000000; stroke-width: 1.0;"/><!--link DEFAULT_MODE to LINES_MODE--><path d="M728.2554,162.895 C775.9656,194.1597 857.2916,247.4528 908.1679,280.7922 " fill="none" id="DEFAULT_MODE-LINES_MODE" style="stroke: #000000; stroke-width: 1.0;"/><polygon fill="#000000" points="912.385,283.5557,907.0497,275.2771,908.2029,280.8151,902.6649,281.9684,912.385,283.5557" style="stroke: #000000; stroke-width: 1.0;"/><text fill="#000000" font-family="Roboto Condensed" font-size="13" lengthAdjust="spacingAndGlyphs" textLength="9" x="822.8675" y="215.8613">-L</text><!--link LINES_MODE to CORRECT_LINES_MODE--><path d="M927.9346,337.9258 C901.7512,365.0725 859.8603,407.6871 821.8675,442.7393 C811.4708,452.3313 799.8265,462.4441 789.1984,471.4452 " fill="none" id="LINES_MODE-CORRECT_LINES_MODE" style="stroke: #000000; stroke-width: 1.0;"/><polygon fill="#000000" points="785.3329,474.7081,794.7905,471.9595,789.1537,471.4829,789.6303,465.8462,785.3329,474.7081" style="stroke: #000000; stroke-width: 1.0;"/><text fill="#000000" font-family="Roboto Condensed" font-size="13" lengthAdjust="spacingAndGlyphs" textLength="11" x="874.8675" y="422.8613">-G</text><!--link LINES_MODE to MISSPELLED_LINES_MODE--><path d="M953.7242,337.8184 C953.54,372.6468 953.2208,432.9695 953.0284,469.3366 " fill="none" id="LINES_MODE-MISSPELLED_LINES_MODE" style="stroke: #000000; stroke-width: 1.0;"/><polygon fill="#000000" points="953.0009,474.5225,957.0484,465.5437,953.0273,469.5225,949.0485,465.5014,953.0009,474.5225" style="stroke: #000000; stroke-width: 1.0;"/><text fill="#000000" font-family="Roboto Condensed" font-size="13" lengthAdjust="spacingAndGlyphs" textLength="6" x="954.8675" y="422.8613">-l</text><!--link LINES_MODE to ERROR_MODE--><path d="M957.7258,337.8515 C963.2095,367.1468 975.8946,413.5426 1003.8675,442.7393 C1013.8481,453.1565 1041.6446,465.6998 1069.2618,476.3646 " fill="none" id="LINES_MODE-ERROR_MODE" style="stroke: #000000; stroke-width: 1.0;"/><polygon fill="#000000" points="1074.0495,478.1959,1067.0724,471.2446,1069.3795,476.4096,1064.2144,478.7166,1074.0495,478.1959" style="stroke: #000000; stroke-width: 1.0;"/><text fill="#000000" font-family="Roboto Condensed" font-size="13" lengthAdjust="spacingAndGlyphs" textLength="54" x="1004.8675" y="414.3613">missing -G</text><text fill="#000000" font-family="Roboto Condensed" font-size="13" lengthAdjust="spacingAndGlyphs" textLength="49" x="1004.8675" y="431.5063">missing -l</text><!--link DEFAULT_MODE to HELP_MODE--><path d="M746.0491,139.3321 C886.5373,144.6755 1246.5874,167.2139 1312.8675,258.7393 C1339.9781,296.176 1325.7907,318.3604 1312.8675,362.7393 C1310.2777,371.633 1305.7664,380.4616 1300.8271,388.3576 " fill="none" id="DEFAULT_MODE-HELP_MODE" style="stroke: #000000; stroke-width: 1.0;"/><polygon fill="#000000" points="1298.0484,392.6428,1306.3011,387.2675,1300.7687,388.4475,1299.5887,382.9151,1298.0484,392.6428" style="stroke: #000000; stroke-width: 1.0;"/><text fill="#000000" font-family="Roboto Condensed" font-size="13" lengthAdjust="spacingAndGlyphs" textLength="9" x="1276.8675" y="207.3613">-h</text><text fill="#000000" font-family="Roboto Condensed" font-size="13" lengthAdjust="spacingAndGlyphs" textLength="27" x="1276.8675" y="224.5063">--help</text><!--link HELP_MODE to *end--><path d="M1271.0676,443.1689 C1262.78,468.808 1246.1236,507.2914 1216.8675,526.7393 C1164.2039,561.7473 696.4622,591.3641 605.2487,596.8352 " fill="none" id="HELP_MODE-*end" style="stroke: #000000; stroke-width: 1.0;"/><polygon fill="#000000" points="600.2522,597.1332,609.4745,600.5899,605.2433,596.8353,608.9979,592.6041,600.2522,597.1332" style="stroke: #000000; stroke-width: 1.0;"/><!--link DEFAULT_MODE to VERSION_MODE--><path d="M746.0428,139.626 C890.419,144.9039 1266.395,161.5171 1312.8675,192.7393 C1380.035,237.8653 1406.175,337.1916 1415.3818,387.4052 " fill="none" id="DEFAULT_MODE-VERSION_MODE" style="stroke: #000000; stroke-width: 1.0;"/><polygon fill="#000000" points="1416.2715,392.4008,1418.6315,382.8388,1415.3948,387.4782,1410.7554,384.2416,1416.2715,392.4008" style="stroke: #000000; stroke-width: 1.0;"/><text fill="#000000" font-family="Roboto Condensed" font-size="13" lengthAdjust="spacingAndGlyphs" textLength="9" x="1351.8675" y="207.3613">-v</text><text fill="#000000" font-family="Roboto Condensed" font-size="13" lengthAdjust="spacingAndGlyphs" textLength="44" x="1351.8675" y="224.5063">--version</text><!--link VERSION_MODE to *end--><path d="M1392.1126,442.8995 C1362.7019,468.1295 1313.8285,506.1108 1264.8675,526.7393 C1139.8916,579.3948 693.9487,594.7612 605.2672,597.3252 " fill="none" id="VERSION_MODE-*end" style="stroke: #000000; stroke-width: 1.0;"/><polygon fill="#000000" points="600.173,597.4696,609.2829,601.2126,605.171,597.3277,609.0559,593.2158,600.173,597.4696" style="stroke: #000000; stroke-width: 1.0;"/><!--link DEFAULT_MODE to ERROR_MODE--><path d="M745.9429,143.6244 C820.3576,154.2185 951.7625,182.9893 1032.8675,258.7393 C1049.0964,273.8967 1100.9056,405.6919 1124.7037,467.7182 " fill="none" id="DEFAULT_MODE-ERROR_MODE" style="stroke: #000000; stroke-width: 1.0;"/><polygon fill="#000000" points="1126.5055,472.4206,1127.0202,462.5852,1124.7164,467.7516,1119.5499,465.4478,1126.5055,472.4206" style="stroke: #000000; stroke-width: 1.0;"/><text fill="#000000" font-family="Roboto Condensed" font-size="13" lengthAdjust="spacingAndGlyphs" textLength="177" x="1082.8675" y="273.3613">arguments -d or -i without operand,</text><text fill="#000000" font-family="Roboto Condensed" font-size="13" lengthAdjust="spacingAndGlyphs" textLength="116" x="1082.8675" y="290.5063">unsupported operands,</text><text fill="#000000" font-family="Roboto Condensed" font-size="13" lengthAdjust="spacingAndGlyphs" textLength="182" x="1082.8675" y="307.6514">invalid (combination of) arguments,</text><text fill="#000000" font-family="Roboto Condensed" font-size="13" lengthAdjust="spacingAndGlyphs" textLength="217" x="1082.8675" y="324.7964">arguments out of scope -1 -H -m -O -P -t -X,</text><text fill="#000000" font-family="Roboto Condensed" font-size="13" lengthAdjust="spacingAndGlyphs" textLength="216" x="1082.8675" y="341.9414">arguments to be implemented -a -m -r -s -w</text><text fill="#000000" font-family="Roboto Condensed" font-size="13" lengthAdjust="spacingAndGlyphs" textLength="164" x="1088.8675" y="359.0864">-vv -check-apostrophe -check-url</text><!--link ERROR_MODE to *end--><path d="M1074.2858,522.0131 C1068.4358,523.7456 1062.5654,525.3559 1056.8675,526.7393 C882.0042,569.1955 663.8163,591.0319 605.0354,596.4053 " fill="none" id="ERROR_MODE-*end" style="stroke: #000000; stroke-width: 1.0;"/><polygon fill="#000000" points="599.8514,596.874,609.1751,600.0472,604.8311,596.4237,608.4546,592.0797,599.8514,596.874" style="stroke: #000000; stroke-width: 1.0;"/><!--
@startuml
skinparam BackgroundColor White|White
skinparam ArrowColor Black
skinparam DefaultFontName Roboto Condensed
skinparam TitleFontStyle Bold

skinparam NoteBackgroundColor White
skinparam NoteBorderColor Black

skinparam UsecaseBackgroundColor White
skinparam ActorBackgroundColor White
skinparam UsecaseBorderColor Black
skinparam ActorBorderColor Black

skinparam usecase {
	BackgroundColor<<for now out of scope>> Gray
}

skinparam StateBackgroundColor White
skinparam StateBorderColor Black

skinparam ActivityBackgroundColor White
skinparam ActivityDiamondBackgroundColor White
skinparam ActivityBorderColor Black
skinparam ActivityDiamondBorderColor Black

title Nuspell - Command-line Arguments

[*] - -> DEFAULT_MODE

DEFAULT_MODE - -> DEFAULT_MODE : -d with operand\l-i with operand
DEFAULT_MODE - -> [*]

DEFAULT_MODE - -> NO_SUGGEST_MODE : -U
NO_SUGGEST_MODE - -> [*]
NO_SUGGEST_MODE - -> CRUDE_PARSE_NO_SUGGEST_MODE : -C

DEFAULT_MODE - -> CRUDE_PARSE_MODE : -C
CRUDE_PARSE_MODE - -> [*]
CRUDE_PARSE_MODE - -> CRUDE_PARSE_NO_SUGGEST_MODE : -U
CRUDE_PARSE_NO_SUGGEST_MODE - -> [*]

DEFAULT_MODE - -> LIST_DICTIONARIES_MODE : -D
LIST_DICTIONARIES_MODE - -> [*]

DEFAULT_MODE - -> CORRECT_WORDS_MODE : -G
CORRECT_WORDS_MODE - -> CORRECT_LINES_MODE : -L
CORRECT_WORDS_MODE - -> [*]
CORRECT_LINES_MODE - -> [*]

DEFAULT_MODE - -> MISSPELLED_WORDS_MODE : -l
MISSPELLED_WORDS_MODE - -> MISSPELLED_LINES_MODE : -L
MISSPELLED_LINES_MODE - -> [*]
MISSPELLED_WORDS_MODE - -> [*]

DEFAULT_MODE - -> LINES_MODE : -L
LINES_MODE : is intermediate mode
LINES_MODE - -> CORRECT_LINES_MODE : -G
LINES_MODE - -> MISSPELLED_LINES_MODE : -l
LINES_MODE - -> ERROR_MODE : missing -G\lmissing -l

DEFAULT_MODE - -> HELP_MODE : -h\l- -help
HELP_MODE - -> [*]

DEFAULT_MODE - -> VERSION_MODE : -v\l- -version
VERSION_MODE - -> [*]

DEFAULT_MODE - -> ERROR_MODE : arguments -d or -i without operand,\lunsupported operands,\linvalid (combination of) arguments,\larguments out of scope -1 -H -m -O -P -t -X,\larguments to be implemented -a -m -r -s -w\l  -vv -check-apostrophe -check-url
ERROR_MODE - -> [*]
ERROR_MODE : returns exit code of 1

@enduml

PlantUML version 1.2018.06(Mon May 21 12:34:53 CEST 2018)
(GPL source distribution)
Java Runtime: OpenJDK Runtime Environment
JVM: OpenJDK 64-Bit Server VM
Java Version: 10.0.2+13-Ubuntu-1ubuntu0.18.04.2
Operating System: Linux
OS Version: 4.15.0-33-generic
Default Encoding: UTF-8
Language: en
Country: US
--></g></svg>