<?xml version="1.0" encoding="UTF-8" standalone="yes"?><svg xmlns="http://www.w3.org/2000/svg" xmlns:xlink="http://www.w3.org/1999/xlink" height="568px" style="width:1358px;height:568px;" version="1.1" viewBox="0 0 1358 568" width="1358px"><defs><linearGradient id="gr0" x1="0%" x2="100%" y1="50%" y2="50%"><stop offset="0%" stop-color="#FFFFFF"/><stop offset="100%" stop-color="#FFFFFF"/></linearGradient><filter height="300%" id="f1" width="300%" x="-1" y="-1"><feGaussianBlur result="blurOut" stdDeviation="2.0"/><feColorMatrix in="blurOut" result="blurOut2" type="matrix" values="0 0 0 0 0 0 0 0 0 0 0 0 0 0 0 0 0 0 .4 0"/><feOffset dx="4.0" dy="4.0" in="blurOut2" result="blurOut3"/><feBlend in="SourceGraphic" in2="blurOut3" mode="normal"/></filter></defs><g><rect fill="url(#gr0)" height="568" style="stroke: none; stroke-width: 1.0;" width="1358" x="0" y="0"/><text fill="#000000" font-family="sans-serif" font-size="18" lengthAdjust="spacingAndGlyphs" textLength="331" x="518" y="16.708">Hunspell - Command-line Arguments</text><ellipse cx="573.943" cy="38.9531" fill="#000000" filter="url(#f1)" rx="10" ry="10" style="stroke: none; stroke-width: 1.0;"/><rect fill="#FEFECE" filter="url(#f1)" height="50" rx="12.5" ry="12.5" style="stroke: #A80036; stroke-width: 1.5;" width="135" x="506.443" y="113.4531"/><line style="stroke: #A80036; stroke-width: 1.5;" x1="506.443" x2="641.443" y1="139.75" y2="139.75"/><text fill="#000000" font-family="sans-serif" font-size="14" lengthAdjust="spacingAndGlyphs" textLength="115" x="516.443" y="131.4482">DEFAULT_MODE</text><ellipse cx="530.943" cy="551.9531" fill="none" filter="url(#f1)" rx="10" ry="10" style="stroke: #000000; stroke-width: 1.0;"/><ellipse cx="531.443" cy="552.4531" fill="#000000" rx="6" ry="6" style="stroke: none; stroke-width: 1.0;"/><rect fill="#FEFECE" filter="url(#f1)" height="50" rx="12.5" ry="12.5" style="stroke: #A80036; stroke-width: 1.5;" width="99" x="14.4432" y="350.9531"/><line style="stroke: #A80036; stroke-width: 1.5;" x1="14.4432" x2="113.4432" y1="377.25" y2="377.25"/><text fill="#000000" font-family="sans-serif" font-size="14" lengthAdjust="spacingAndGlyphs" textLength="79" x="24.4432" y="368.9482">PIPE_MODE</text><rect fill="#FEFECE" filter="url(#f1)" height="50" rx="12.5" ry="12.5" style="stroke: #A80036; stroke-width: 1.5;" width="208" x="118.943" y="350.9531"/><line style="stroke: #A80036; stroke-width: 1.5;" x1="118.943" x2="326.943" y1="377.25" y2="377.25"/><text fill="#000000" font-family="sans-serif" font-size="14" lengthAdjust="spacingAndGlyphs" textLength="188" x="128.943" y="368.9482">LIST_DICTIONARIES_MODE</text><rect fill="#FEFECE" filter="url(#f1)" height="50" rx="12.5" ry="12.5" style="stroke: #A80036; stroke-width: 1.5;" width="201" x="263.443" y="264.9531"/><line style="stroke: #A80036; stroke-width: 1.5;" x1="263.443" x2="464.443" y1="291.25" y2="291.25"/><text fill="#000000" font-family="sans-serif" font-size="14" lengthAdjust="spacingAndGlyphs" textLength="181" x="273.443" y="282.9482">CORRECT_WORDS_MODE</text><rect fill="#FEFECE" filter="url(#f1)" height="50" rx="12.5" ry="12.5" style="stroke: #A80036; stroke-width: 1.5;" width="186" x="346.943" y="430.9531"/><line style="stroke: #A80036; stroke-width: 1.5;" x1="346.943" x2="532.943" y1="457.25" y2="457.25"/><text fill="#000000" font-family="sans-serif" font-size="14" lengthAdjust="spacingAndGlyphs" textLength="166" x="356.943" y="448.9482">CORRECT_LINES_MODE</text><rect fill="#FEFECE" filter="url(#f1)" height="50" rx="12.5" ry="12.5" style="stroke: #A80036; stroke-width: 1.5;" width="219" x="683.443" y="264.9531"/><line style="stroke: #A80036; stroke-width: 1.5;" x1="683.443" x2="902.443" y1="291.25" y2="291.25"/><text fill="#000000" font-family="sans-serif" font-size="14" lengthAdjust="spacingAndGlyphs" textLength="199" x="693.443" y="282.9482">MISSPELLED_WORDS_MODE</text><rect fill="#FEFECE" filter="url(#f1)" height="50" rx="12.5" ry="12.5" style="stroke: #A80036; stroke-width: 1.5;" width="204" x="567.943" y="430.9531"/><line style="stroke: #A80036; stroke-width: 1.5;" x1="567.943" x2="771.943" y1="457.25" y2="457.25"/><text fill="#000000" font-family="sans-serif" font-size="14" lengthAdjust="spacingAndGlyphs" textLength="184" x="577.943" y="448.9482">MISSPELLED_LINES_MODE</text><rect fill="#FEFECE" filter="url(#f1)" height="50.2656" rx="12.5" ry="12.5" style="stroke: #A80036; stroke-width: 1.5;" width="148" x="499.943" y="264.9531"/><line style="stroke: #A80036; stroke-width: 1.5;" x1="499.943" x2="647.943" y1="291.25" y2="291.25"/><text fill="#000000" font-family="sans-serif" font-size="14" lengthAdjust="spacingAndGlyphs" textLength="90" x="528.943" y="282.9482">LINES_MODE</text><text fill="#000000" font-family="sans-serif" font-size="12" lengthAdjust="spacingAndGlyphs" textLength="128" x="504.943" y="307.3887">is intermediate mode</text><rect fill="#FEFECE" filter="url(#f1)" height="50.2656" rx="12.5" ry="12.5" style="stroke: #A80036; stroke-width: 1.5;" width="150" x="806.943" y="430.9531"/><line style="stroke: #A80036; stroke-width: 1.5;" x1="806.943" x2="956.943" y1="457.25" y2="457.25"/><text fill="#000000" font-family="sans-serif" font-size="14" lengthAdjust="spacingAndGlyphs" textLength="100" x="831.943" y="448.9482">ERROR_MODE</text><text fill="#000000" font-family="sans-serif" font-size="12" lengthAdjust="spacingAndGlyphs" textLength="130" x="811.943" y="473.3887">returns exit code of 1</text><rect fill="#FEFECE" filter="url(#f1)" height="50" rx="12.5" ry="12.5" style="stroke: #A80036; stroke-width: 1.5;" width="106" x="1060.94" y="350.9531"/><line style="stroke: #A80036; stroke-width: 1.5;" x1="1060.94" x2="1166.94" y1="377.25" y2="377.25"/><text fill="#000000" font-family="sans-serif" font-size="14" lengthAdjust="spacingAndGlyphs" textLength="86" x="1070.94" y="368.9482">HELP_MODE</text><rect fill="#FEFECE" filter="url(#f1)" height="50" rx="12.5" ry="12.5" style="stroke: #A80036; stroke-width: 1.5;" width="133" x="1216.44" y="350.9531"/><line style="stroke: #A80036; stroke-width: 1.5;" x1="1216.44" x2="1349.44" y1="377.25" y2="377.25"/><text fill="#000000" font-family="sans-serif" font-size="14" lengthAdjust="spacingAndGlyphs" textLength="113" x="1226.44" y="368.9482">VERSION_MODE</text><path d="M573.943,49.3021 C573.943,62.6901 573.943,87.9211 573.943,107.9701 " fill="none" style="stroke: #A80036; stroke-width: 1.0;"/><polygon fill="#A80036" points="573.943,113.2091,577.943,104.2091,573.943,108.2091,569.943,104.2091,573.943,113.2091" style="stroke: #A80036; stroke-width: 1.0;"/><path d="M641.469,127.6111 C661.177,127.9851 676.443,131.5991 676.443,138.4531 C676.443,144.6641 663.905,148.2151 646.886,149.1051 " fill="none" style="stroke: #A80036; stroke-width: 1.0;"/><polygon fill="#A80036" points="641.469,149.2951,650.604,152.9764,646.4659,149.1194,650.3229,144.9813,641.469,149.2951" style="stroke: #A80036; stroke-width: 1.0;"/><text fill="#000000" font-family="sans-serif" font-size="13" lengthAdjust="spacingAndGlyphs" textLength="102" x="682.443" y="128.02">-d with operand</text><text fill="#000000" font-family="sans-serif" font-size="13" lengthAdjust="spacingAndGlyphs" textLength="98" x="682.443" y="143.1528">-i with operand</text><text fill="#000000" font-family="sans-serif" font-size="13" lengthAdjust="spacingAndGlyphs" textLength="10" x="682.443" y="158.2856">-r</text><path d="M506.409,141.8061 C430.28,146.2831 303.845,159.2731 201.943,196.9531 C100.3142,234.5321 53.5776,250.5071 12.9432,350.9531 C-15.2261,420.5861 52.8223,449.3021 120.943,480.9531 C263.396,547.1418 459.79,551.3884 515.6,551.17 " fill="none" style="stroke: #A80036; stroke-width: 1.0;"/><polygon fill="#A80036" points="520.845,551.134,511.8178,547.1958,515.8451,551.1683,511.8726,555.1956,520.845,551.134" style="stroke: #A80036; stroke-width: 1.0;"/><path d="M506.182,140.8821 C439.551,144.7191 336.544,157.2951 256.943,196.9531 C183.725,233.4311 118.316,306.2391 85.7488,346.5161 " fill="none" style="stroke: #A80036; stroke-width: 1.0;"/><polygon fill="#A80036" points="82.3209,350.7851,91.0743,346.2708,85.451,346.8861,84.8357,341.2628,82.3209,350.7851" style="stroke: #A80036; stroke-width: 1.0;"/><text fill="#000000" font-family="sans-serif" font-size="13" lengthAdjust="spacingAndGlyphs" textLength="13" x="257.943" y="217.52">-a</text><path d="M90.1694,401.0321 C125.742,432.1911 192.609,485.6008 259.943,511.9531 C352.081,548.0127 473.552,551.2163 515.738,551.1542 " fill="none" style="stroke: #A80036; stroke-width: 1.0;"/><polygon fill="#A80036" points="520.931,551.1288,511.9117,547.1726,515.9311,551.1531,511.9505,555.1725,520.931,551.1288" style="stroke: #A80036; stroke-width: 1.0;"/><path d="M506.121,144.9191 C430.963,154.7481 311.709,182.2191 245.943,258.9531 C225.487,282.8211 221.273,319.6331 221.189,345.3671 " fill="none" style="stroke: #A80036; stroke-width: 1.0;"/><polygon fill="#A80036" points="221.23,350.6821,225.1605,341.6515,221.1914,345.6823,217.1607,341.7132,221.23,350.6821" style="stroke: #A80036; stroke-width: 1.0;"/><text fill="#000000" font-family="sans-serif" font-size="13" lengthAdjust="spacingAndGlyphs" textLength="15" x="325.943" y="217.52">-D</text><path d="M223.701,401.1281 C226.058,431.8851 235.013,484.3215 267.943,511.9531 C305.983,543.8726 465.861,549.6865 515.903,550.7292 " fill="none" style="stroke: #A80036; stroke-width: 1.0;"/><polygon fill="#A80036" points="520.925,550.8252,512.0032,546.6537,515.9259,550.7295,511.8501,554.6522,520.925,550.8252" style="stroke: #A80036; stroke-width: 1.0;"/><path d="M540.203,163.4731 C502.504,190.3111 441.601,233.6681 402.17,261.7391 " fill="none" style="stroke: #A80036; stroke-width: 1.0;"/><polygon fill="#A80036" points="397.948,264.7451,407.5995,262.7833,402.021,261.845,402.9593,256.2665,397.948,264.7451" style="stroke: #A80036; stroke-width: 1.0;"/><text fill="#000000" font-family="sans-serif" font-size="13" lengthAdjust="spacingAndGlyphs" textLength="15" x="488.943" y="217.52">-G</text><path d="M375.157,315.1521 C388.836,344.6691 411.936,394.5161 426.539,426.0281 " fill="none" style="stroke: #A80036; stroke-width: 1.0;"/><polygon fill="#A80036" points="428.807,430.9221,428.653,421.0745,426.7051,426.3854,421.3942,424.4375,428.807,430.9221" style="stroke: #A80036; stroke-width: 1.0;"/><text fill="#000000" font-family="sans-serif" font-size="13" lengthAdjust="spacingAndGlyphs" textLength="12" x="414.943" y="380.52">-L</text><path d="M355.217,315.0191 C339.598,359.9831 310.173,454.5841 328.943,480.9531 C373.049,542.9163 475.977,550.5327 515.295,551.1053 " fill="none" style="stroke: #A80036; stroke-width: 1.0;"/><polygon fill="#A80036" points="520.62,551.1443,511.65,547.0776,515.6201,551.1072,511.5905,555.0774,520.62,551.1443" style="stroke: #A80036; stroke-width: 1.0;"/><path d="M463.378,481.1604 C481.862,500.254 506.757,525.9693 520.585,540.2538 " fill="none" style="stroke: #A80036; stroke-width: 1.0;"/><polygon fill="#A80036" points="524.178,543.9646,520.7908,534.7166,520.6998,540.3727,515.0437,540.2817,524.178,543.9646" style="stroke: #A80036; stroke-width: 1.0;"/><path d="M609.129,163.4731 C648.523,190.3651 712.214,233.8431 753.327,261.9091 " fill="none" style="stroke: #A80036; stroke-width: 1.0;"/><polygon fill="#A80036" points="757.481,264.7451,752.3033,256.3671,753.3516,261.926,747.7927,262.9742,757.481,264.7451" style="stroke: #A80036; stroke-width: 1.0;"/><text fill="#000000" font-family="sans-serif" font-size="13" lengthAdjust="spacingAndGlyphs" textLength="9" x="704.943" y="217.52">-l</text><path d="M786.739,315.2901 C779.777,339.0381 766.665,375.2451 745.943,400.9531 C737.783,411.0771 727.26,420.1641 716.661,427.8691 " fill="none" style="stroke: #A80036; stroke-width: 1.0;"/><polygon fill="#A80036" points="712.441,430.8641,722.0957,428.9184,716.5188,427.9708,717.4664,422.3939,712.441,430.8641" style="stroke: #A80036; stroke-width: 1.0;"/><text fill="#000000" font-family="sans-serif" font-size="13" lengthAdjust="spacingAndGlyphs" textLength="12" x="774.943" y="380.52">-L</text><path d="M634.147,481.1604 C604.234,501.3895 563.33,529.0514 543.181,542.6773 " fill="none" style="stroke: #A80036; stroke-width: 1.0;"/><polygon fill="#A80036" points="538.979,545.5188,548.6753,543.7921,543.1213,542.7185,544.1949,537.1645,538.979,545.5188" style="stroke: #A80036; stroke-width: 1.0;"/><path d="M846.003,315.0571 C916.704,350.3821 1027.06,418.7791 973.943,480.9531 C917.007,547.5919 617.597,551.1602 546.226,551.0519 " fill="none" style="stroke: #A80036; stroke-width: 1.0;"/><polygon fill="#A80036" points="541.121,551.037,550.1095,555.0627,546.121,551.0513,550.1324,547.0628,541.121,551.037" style="stroke: #A80036; stroke-width: 1.0;"/><path d="M573.943,163.4731 C573.943,189.5811 573.943,231.3231 573.943,259.4161 " fill="none" style="stroke: #A80036; stroke-width: 1.0;"/><polygon fill="#A80036" points="573.943,264.4961,577.943,255.4961,573.943,259.4961,569.943,255.4961,573.943,264.4961" style="stroke: #A80036; stroke-width: 1.0;"/><text fill="#000000" font-family="sans-serif" font-size="13" lengthAdjust="spacingAndGlyphs" textLength="12" x="574.943" y="217.52">-L</text><path d="M554.171,315.1521 C529.855,344.9121 488.653,395.3381 462.944,426.8021 " fill="none" style="stroke: #A80036; stroke-width: 1.0;"/><polygon fill="#A80036" points="459.578,430.9221,468.3698,426.4831,462.7414,427.05,462.1744,421.4217,459.578,430.9221" style="stroke: #A80036; stroke-width: 1.0;"/><text fill="#000000" font-family="sans-serif" font-size="13" lengthAdjust="spacingAndGlyphs" textLength="15" x="523.943" y="380.52">-G</text><path d="M578.731,315.2081 C584.138,338.5661 594.532,374.1961 611.943,400.9531 C618.069,410.3681 626.187,419.2691 634.402,427.0281 " fill="none" style="stroke: #A80036; stroke-width: 1.0;"/><polygon fill="#A80036" points="638.435,430.7421,634.5236,421.7032,634.7568,427.3553,629.1047,427.5884,638.435,430.7421" style="stroke: #A80036; stroke-width: 1.0;"/><text fill="#000000" font-family="sans-serif" font-size="13" lengthAdjust="spacingAndGlyphs" textLength="9" x="612.943" y="380.52">-l</text><path d="M595.947,315.1811 C605.611,325.9961 616.999,338.9771 626.943,350.9531 C644.947,372.6351 642.274,385.6551 665.943,400.9531 C713.201,431.4971 734.367,417.2561 788.943,430.9531 C793.128,432.0031 797.417,433.0861 801.746,434.1851 " fill="none" style="stroke: #A80036; stroke-width: 1.0;"/><polygon fill="#A80036" points="806.843,435.4811,799.1071,429.3855,801.9974,434.2483,797.1346,437.1385,806.843,435.4811" style="stroke: #A80036; stroke-width: 1.0;"/><text fill="#000000" font-family="sans-serif" font-size="13" lengthAdjust="spacingAndGlyphs" textLength="70" x="666.943" y="373.02">missing -G</text><text fill="#000000" font-family="sans-serif" font-size="13" lengthAdjust="spacingAndGlyphs" textLength="64" x="666.943" y="388.1528">missing -l</text><path d="M641.707,141.8761 C784.688,148.6481 1109.03,173.3281 1168.94,258.9531 C1184.74,281.5301 1179.6,295.5441 1168.94,320.9531 C1164.85,330.7091 1158.04,339.5891 1150.58,347.2041 " fill="none" style="stroke: #A80036; stroke-width: 1.0;"/><polygon fill="#A80036" points="1146.87,350.8401,1156.0963,347.3939,1150.4397,347.3391,1150.4945,341.6825,1146.87,350.8401" style="stroke: #A80036; stroke-width: 1.0;"/><text fill="#000000" font-family="sans-serif" font-size="13" lengthAdjust="spacingAndGlyphs" textLength="13" x="1134.94" y="210.02">-h</text><text fill="#000000" font-family="sans-serif" font-size="13" lengthAdjust="spacingAndGlyphs" textLength="38" x="1134.94" y="225.1528">--help</text><path d="M1107.58,401.0951 C1097.88,432.5871 1076.14,486.6397 1035.94,511.9531 C993.524,538.6647 626.004,548.7333 546.195,550.6147 " fill="none" style="stroke: #A80036; stroke-width: 1.0;"/><polygon fill="#A80036" points="540.954,550.7361,550.0442,554.5268,545.9527,550.6204,549.859,546.5289,540.954,550.7361" style="stroke: #A80036; stroke-width: 1.0;"/><path d="M641.548,142.3421 C790.514,149.2071 1137.38,168.1091 1181.94,196.9531 C1235.4,231.5551 1263.51,304.9451 1275.56,345.8571 " fill="none" style="stroke: #A80036; stroke-width: 1.0;"/><polygon fill="#A80036" points="1276.95,350.6801,1278.2968,340.9238,1275.5632,345.8763,1270.6107,343.1427,1276.95,350.6801" style="stroke: #A80036; stroke-width: 1.0;"/><text fill="#000000" font-family="sans-serif" font-size="13" lengthAdjust="spacingAndGlyphs" textLength="13" x="1217.94" y="210.02">-v</text><text fill="#000000" font-family="sans-serif" font-size="13" lengthAdjust="spacingAndGlyphs" textLength="58" x="1217.94" y="225.1528">--version</text><path d="M1253.76,401.1731 C1213.49,433.0181 1137.28,487.7505 1061.94,511.9531 C962.234,543.9852 623.011,549.867 546.403,550.7955 " fill="none" style="stroke: #A80036; stroke-width: 1.0;"/><polygon fill="#A80036" points="540.959,550.8584,550.0052,554.7527,545.9587,550.7999,549.9115,546.7533,540.959,550.8584" style="stroke: #A80036; stroke-width: 1.0;"/><path d="M641.475,140.9051 C722.905,146.7261 856.694,170.1931 919.943,258.9531 C955.895,309.4061 923.122,384.9501 900.064,425.9551 " fill="none" style="stroke: #A80036; stroke-width: 1.0;"/><polygon fill="#A80036" points="897.305,430.7801,905.2438,424.9513,899.7862,426.4392,898.2983,420.9815,897.305,430.7801" style="stroke: #A80036; stroke-width: 1.0;"/><text fill="#000000" font-family="sans-serif" font-size="13" lengthAdjust="spacingAndGlyphs" textLength="127" x="936.943" y="272.02">-d without operand,</text><text fill="#000000" font-family="sans-serif" font-size="13" lengthAdjust="spacingAndGlyphs" textLength="123" x="936.943" y="287.1528">-i without operand,</text><text fill="#000000" font-family="sans-serif" font-size="13" lengthAdjust="spacingAndGlyphs" textLength="169" x="936.943" y="302.2856">any unregonized operand,</text><text fill="#000000" font-family="sans-serif" font-size="13" lengthAdjust="spacingAndGlyphs" textLength="186" x="936.943" y="317.4185">out-of-scope -1 -H -O -P -t -X</text><path d="M806.645,477.1185 C721.475,499.9275 588.957,535.4168 545.373,547.0887 " fill="none" style="stroke: #A80036; stroke-width: 1.0;"/><polygon fill="#A80036" points="540.508,548.3916,550.2362,549.9284,545.338,547.0987,548.1676,542.2005,540.508,548.3916" style="stroke: #A80036; stroke-width: 1.0;"/></g></svg>