<?xml version="1.0" encoding="UTF-8" standalone="yes"?><svg xmlns="http://www.w3.org/2000/svg" xmlns:xlink="http://www.w3.org/1999/xlink" height="549px" style="width:1363px;height:549px;" version="1.1" viewBox="0 0 1363 549" width="1363px"><defs><filter height="300%" id="f1" width="300%" x="-1" y="-1"><feGaussianBlur result="blurOut" stdDeviation="2.0"/><feColorMatrix in="blurOut" result="blurOut2" type="matrix" values="0 0 0 0 0 0 0 0 0 0 0 0 0 0 0 0 0 0 .4 0"/><feOffset dx="4.0" dy="4.0" in="blurOut2" result="blurOut3"/><feBlend in="SourceGraphic" in2="blurOut3" mode="normal"/></filter></defs><g><text fill="#000000" font-family="sans-serif" font-size="18" lengthAdjust="spacingAndGlyphs" textLength="331" x="520.5" y="16.708">Hunspell - Command-line Arguments</text><ellipse cx="578.676" cy="38.9531" fill="#000000" filter="url(#f1)" rx="10" ry="10" style="stroke: none; stroke-width: 1.0;"/><rect fill="#FEFECE" filter="url(#f1)" height="50" rx="12.5" ry="12.5" style="stroke: #A80036; stroke-width: 1.5;" width="135" x="511.176" y="109.9531"/><line style="stroke: #A80036; stroke-width: 1.5;" x1="511.176" x2="646.176" y1="136.25" y2="136.25"/><text fill="#000000" font-family="sans-serif" font-size="14" lengthAdjust="spacingAndGlyphs" textLength="115" x="521.176" y="127.9482">DEFAULT_MODE</text><ellipse cx="535.676" cy="532.9531" fill="none" filter="url(#f1)" rx="10" ry="10" style="stroke: #000000; stroke-width: 1.0;"/><ellipse cx="536.176" cy="533.4531" fill="#000000" rx="6" ry="6" style="stroke: none; stroke-width: 1.0;"/><rect fill="#FEFECE" filter="url(#f1)" height="50" rx="12.5" ry="12.5" style="stroke: #A80036; stroke-width: 1.5;" width="99" x="19.1764" y="331.9531"/><line style="stroke: #A80036; stroke-width: 1.5;" x1="19.1764" x2="118.1764" y1="358.25" y2="358.25"/><text fill="#000000" font-family="sans-serif" font-size="14" lengthAdjust="spacingAndGlyphs" textLength="79" x="29.1764" y="349.9482">PIPE_MODE</text><rect fill="#FEFECE" filter="url(#f1)" height="50" rx="12.5" ry="12.5" style="stroke: #A80036; stroke-width: 1.5;" width="208" x="123.676" y="331.9531"/><line style="stroke: #A80036; stroke-width: 1.5;" x1="123.676" x2="331.676" y1="358.25" y2="358.25"/><text fill="#000000" font-family="sans-serif" font-size="14" lengthAdjust="spacingAndGlyphs" textLength="188" x="133.676" y="349.9482">LIST_DICTIONARIES_MODE</text><rect fill="#FEFECE" filter="url(#f1)" height="50" rx="12.5" ry="12.5" style="stroke: #A80036; stroke-width: 1.5;" width="201" x="268.176" y="251.9531"/><line style="stroke: #A80036; stroke-width: 1.5;" x1="268.176" x2="469.176" y1="278.25" y2="278.25"/><text fill="#000000" font-family="sans-serif" font-size="14" lengthAdjust="spacingAndGlyphs" textLength="181" x="278.176" y="269.9482">CORRECT_WORDS_MODE</text><rect fill="#FEFECE" filter="url(#f1)" height="50" rx="12.5" ry="12.5" style="stroke: #A80036; stroke-width: 1.5;" width="186" x="351.676" y="411.9531"/><line style="stroke: #A80036; stroke-width: 1.5;" x1="351.676" x2="537.676" y1="438.25" y2="438.25"/><text fill="#000000" font-family="sans-serif" font-size="14" lengthAdjust="spacingAndGlyphs" textLength="166" x="361.676" y="429.9482">CORRECT_LINES_MODE</text><rect fill="#FEFECE" filter="url(#f1)" height="50" rx="12.5" ry="12.5" style="stroke: #A80036; stroke-width: 1.5;" width="219" x="688.176" y="251.9531"/><line style="stroke: #A80036; stroke-width: 1.5;" x1="688.176" x2="907.176" y1="278.25" y2="278.25"/><text fill="#000000" font-family="sans-serif" font-size="14" lengthAdjust="spacingAndGlyphs" textLength="199" x="698.176" y="269.9482">MISSPELLED_WORDS_MODE</text><rect fill="#FEFECE" filter="url(#f1)" height="50" rx="12.5" ry="12.5" style="stroke: #A80036; stroke-width: 1.5;" width="204" x="572.676" y="411.9531"/><line style="stroke: #A80036; stroke-width: 1.5;" x1="572.676" x2="776.676" y1="438.25" y2="438.25"/><text fill="#000000" font-family="sans-serif" font-size="14" lengthAdjust="spacingAndGlyphs" textLength="184" x="582.676" y="429.9482">MISSPELLED_LINES_MODE</text><rect fill="#FEFECE" filter="url(#f1)" height="50.2656" rx="12.5" ry="12.5" style="stroke: #A80036; stroke-width: 1.5;" width="148" x="504.676" y="251.9531"/><line style="stroke: #A80036; stroke-width: 1.5;" x1="504.676" x2="652.676" y1="278.25" y2="278.25"/><text fill="#000000" font-family="sans-serif" font-size="14" lengthAdjust="spacingAndGlyphs" textLength="90" x="533.676" y="269.9482">LINES_MODE</text><text fill="#000000" font-family="sans-serif" font-size="12" lengthAdjust="spacingAndGlyphs" textLength="128" x="509.676" y="294.3887">is intermediate mode</text><rect fill="#FEFECE" filter="url(#f1)" height="50.2656" rx="12.5" ry="12.5" style="stroke: #A80036; stroke-width: 1.5;" width="150" x="811.676" y="411.9531"/><line style="stroke: #A80036; stroke-width: 1.5;" x1="811.676" x2="961.676" y1="438.25" y2="438.25"/><text fill="#000000" font-family="sans-serif" font-size="14" lengthAdjust="spacingAndGlyphs" textLength="100" x="836.676" y="429.9482">ERROR_MODE</text><text fill="#000000" font-family="sans-serif" font-size="12" lengthAdjust="spacingAndGlyphs" textLength="130" x="816.676" y="454.3887">returns exit code of 1</text><rect fill="#FEFECE" filter="url(#f1)" height="50" rx="12.5" ry="12.5" style="stroke: #A80036; stroke-width: 1.5;" width="106" x="1065.68" y="331.9531"/><line style="stroke: #A80036; stroke-width: 1.5;" x1="1065.68" x2="1171.68" y1="358.25" y2="358.25"/><text fill="#000000" font-family="sans-serif" font-size="14" lengthAdjust="spacingAndGlyphs" textLength="86" x="1075.68" y="349.9482">HELP_MODE</text><rect fill="#FEFECE" filter="url(#f1)" height="50" rx="12.5" ry="12.5" style="stroke: #A80036; stroke-width: 1.5;" width="133" x="1221.18" y="331.9531"/><line style="stroke: #A80036; stroke-width: 1.5;" x1="1221.18" x2="1354.18" y1="358.25" y2="358.25"/><text fill="#000000" font-family="sans-serif" font-size="14" lengthAdjust="spacingAndGlyphs" textLength="113" x="1231.18" y="349.9482">VERSION_MODE</text><path d="M578.676,48.9661 C578.676,61.6511 578.676,85.3621 578.676,104.5231 " fill="none" style="stroke: #A80036; stroke-width: 1.0;"/><polygon fill="#A80036" points="578.676,109.7931,582.676,100.7931,578.676,104.7931,574.676,100.7931,578.676,109.7931" style="stroke: #A80036; stroke-width: 1.0;"/><path d="M646.202,124.8581 C665.91,125.2071 681.176,128.5721 681.176,134.9531 C681.176,140.7361 668.639,144.0411 651.619,144.8701 " fill="none" style="stroke: #A80036; stroke-width: 1.0;"/><polygon fill="#A80036" points="646.202,145.0481,655.3286,148.7502,651.1993,144.8838,655.0657,140.7546,646.202,145.0481" style="stroke: #A80036; stroke-width: 1.0;"/><text fill="#000000" font-family="sans-serif" font-size="13" lengthAdjust="spacingAndGlyphs" textLength="102" x="687.176" y="139.52">-d with operand</text><path d="M511.071,136.7721 C434.206,139.7071 306.112,150.7501 203.676,189.9531 C106.543,227.1271 61.0515,237.4261 17.6764,331.9531 C-75.5497,535.1203 425.101,534.3252 520.266,532.372 " fill="none" style="stroke: #A80036; stroke-width: 1.0;"/><polygon fill="#A80036" points="525.463,532.2555,516.3761,528.4571,520.4642,532.367,516.5544,536.4551,525.463,532.2555" style="stroke: #A80036; stroke-width: 1.0;"/><path d="M511.149,137.1691 C444.97,140.6851 342.671,152.4381 262.676,189.9531 C191.62,223.2761 126.057,289.9061 92.3757,327.8341 " fill="none" style="stroke: #A80036; stroke-width: 1.0;"/><polygon fill="#A80036" points="88.8222,331.8621,97.7753,327.7582,92.1295,328.1122,91.7754,322.4665,88.8222,331.8621" style="stroke: #A80036; stroke-width: 1.0;"/><text fill="#000000" font-family="sans-serif" font-size="13" lengthAdjust="spacingAndGlyphs" textLength="13" x="263.676" y="210.52">-a</text><path d="M94.9026,382.0321 C130.476,413.1911 197.342,466.6008 264.676,492.9531 C356.814,529.0127 478.285,532.2163 520.472,532.1542 " fill="none" style="stroke: #A80036; stroke-width: 1.0;"/><polygon fill="#A80036" points="525.664,532.1288,516.6447,528.1726,520.6641,532.1531,516.6835,536.1725,525.664,532.1288" style="stroke: #A80036; stroke-width: 1.0;"/><path d="M510.871,140.9541 C436.015,150.2161 317.31,176.6291 250.676,251.9531 C232.679,272.2981 227.763,303.5361 226.841,326.4681 " fill="none" style="stroke: #A80036; stroke-width: 1.0;"/><polygon fill="#A80036" points="226.697,331.5201,230.9525,322.6381,226.8398,326.5222,222.9557,322.4095,226.697,331.5201" style="stroke: #A80036; stroke-width: 1.0;"/><text fill="#000000" font-family="sans-serif" font-size="13" lengthAdjust="spacingAndGlyphs" textLength="15" x="331.676" y="210.52">-D</text><path d="M228.434,382.1281 C230.792,412.8851 239.746,465.3215 272.676,492.9531 C310.717,524.8726 470.594,530.6865 520.636,531.7292 " fill="none" style="stroke: #A80036; stroke-width: 1.0;"/><polygon fill="#A80036" points="525.658,531.8252,516.7362,527.6537,520.6589,531.7295,516.5831,535.6522,525.658,531.8252" style="stroke: #A80036; stroke-width: 1.0;"/><path d="M542.576,160.0201 C505.614,184.6611 448.258,222.8991 409.624,248.6541 " fill="none" style="stroke: #A80036; stroke-width: 1.0;"/><polygon fill="#A80036" points="405.008,251.7321,414.7154,250.0688,409.1685,248.959,410.2783,243.412,405.008,251.7321" style="stroke: #A80036; stroke-width: 1.0;"/><text fill="#000000" font-family="sans-serif" font-size="13" lengthAdjust="spacingAndGlyphs" textLength="15" x="493.676" y="210.52">-G</text><path d="M380.385,302.2941 C393.981,330.5601 416.385,377.1361 430.832,407.1701 " fill="none" style="stroke: #A80036; stroke-width: 1.0;"/><polygon fill="#A80036" points="433.079,411.8431,432.7827,401.9987,430.9118,407.3372,425.5733,405.4663,433.079,411.8431" style="stroke: #A80036; stroke-width: 1.0;"/><text fill="#000000" font-family="sans-serif" font-size="13" lengthAdjust="spacingAndGlyphs" textLength="12" x="419.676" y="361.52">-L</text><path d="M359.692,302.2781 C344.163,346.2101 315.621,436.5881 333.676,461.9531 C377.782,523.9163 480.711,531.5327 520.028,532.1053 " fill="none" style="stroke: #A80036; stroke-width: 1.0;"/><polygon fill="#A80036" points="525.353,532.1443,516.383,528.0776,520.3531,532.1072,516.3235,536.0774,525.353,532.1443" style="stroke: #A80036; stroke-width: 1.0;"/><path d="M468.111,462.1604 C486.595,481.254 511.49,506.9693 525.319,521.2538 " fill="none" style="stroke: #A80036; stroke-width: 1.0;"/><polygon fill="#A80036" points="528.911,524.9646,525.5256,515.7159,525.4335,521.372,519.7774,521.2799,528.911,524.9646" style="stroke: #A80036; stroke-width: 1.0;"/><path d="M616.324,160.0201 C655.027,184.7611 715.171,223.2101 755.464,248.9681 " fill="none" style="stroke: #A80036; stroke-width: 1.0;"/><polygon fill="#A80036" points="759.787,251.7321,754.3581,243.5146,755.5741,249.0392,750.0495,250.2553,759.787,251.7321" style="stroke: #A80036; stroke-width: 1.0;"/><text fill="#000000" font-family="sans-serif" font-size="13" lengthAdjust="spacingAndGlyphs" textLength="9" x="709.676" y="210.52">-l</text><path d="M790.757,302.2391 C783.477,324.6911 770.321,358.0901 750.676,381.9531 C742.412,391.9921 731.85,401.0481 721.247,408.7501 " fill="none" style="stroke: #A80036; stroke-width: 1.0;"/><polygon fill="#A80036" points="717.027,411.7441,726.6813,409.7961,721.1041,408.8498,722.0504,403.2727,717.027,411.7441" style="stroke: #A80036; stroke-width: 1.0;"/><text fill="#000000" font-family="sans-serif" font-size="13" lengthAdjust="spacingAndGlyphs" textLength="12" x="780.676" y="361.52">-L</text><path d="M638.88,462.1604 C608.967,482.3895 568.063,510.0514 547.914,523.6773 " fill="none" style="stroke: #A80036; stroke-width: 1.0;"/><polygon fill="#A80036" points="543.712,526.5188,553.4083,524.7921,547.8543,523.7185,548.9279,518.1645,543.712,526.5188" style="stroke: #A80036; stroke-width: 1.0;"/><path d="M852.573,302.0441 C923.045,336.2261 1030.42,401.3971 978.676,461.9531 C921.741,528.5919 622.33,532.1602 550.96,532.0519 " fill="none" style="stroke: #A80036; stroke-width: 1.0;"/><polygon fill="#A80036" points="545.854,532.037,554.8425,536.0627,550.854,532.0513,554.8654,528.0628,545.854,532.037" style="stroke: #A80036; stroke-width: 1.0;"/><path d="M578.676,160.0201 C578.676,183.9601 578.676,220.7331 578.676,246.4261 " fill="none" style="stroke: #A80036; stroke-width: 1.0;"/><polygon fill="#A80036" points="578.676,251.7321,582.676,242.7321,578.676,246.7321,574.676,242.7321,578.676,251.7321" style="stroke: #A80036; stroke-width: 1.0;"/><text fill="#000000" font-family="sans-serif" font-size="13" lengthAdjust="spacingAndGlyphs" textLength="12" x="579.676" y="210.52">-L</text><path d="M558.033,302.2941 C533.863,330.7921 493.908,377.9041 468.461,407.9091 " fill="none" style="stroke: #A80036; stroke-width: 1.0;"/><polygon fill="#A80036" points="465.124,411.8431,473.9955,407.5656,468.3577,408.0296,467.8938,402.3918,465.124,411.8431" style="stroke: #A80036; stroke-width: 1.0;"/><text fill="#000000" font-family="sans-serif" font-size="13" lengthAdjust="spacingAndGlyphs" textLength="15" x="532.676" y="361.52">-G</text><path d="M584.063,302.1491 C589.749,324.2351 600.206,357.1241 616.676,381.9531 C622.951,391.4121 631.205,400.3821 639.511,408.1961 " fill="none" style="stroke: #A80036; stroke-width: 1.0;"/><polygon fill="#A80036" points="643.584,411.9371,639.6617,402.903,639.9017,408.5548,634.2499,408.7947,643.584,411.9371" style="stroke: #A80036; stroke-width: 1.0;"/><text fill="#000000" font-family="sans-serif" font-size="13" lengthAdjust="spacingAndGlyphs" textLength="9" x="617.676" y="361.52">-l</text><path d="M603.556,302.1231 C612.642,311.2531 622.849,321.8731 631.676,331.9531 C650.244,353.1551 647.007,366.6551 670.676,381.9531 C717.934,412.4971 739.1,398.2561 793.676,411.9531 C797.861,413.0031 802.15,414.0861 806.479,415.1851 " fill="none" style="stroke: #A80036; stroke-width: 1.0;"/><polygon fill="#A80036" points="811.576,416.4811,803.8401,410.3855,806.7304,415.2483,801.8676,418.1385,811.576,416.4811" style="stroke: #A80036; stroke-width: 1.0;"/><text fill="#000000" font-family="sans-serif" font-size="13" lengthAdjust="spacingAndGlyphs" textLength="70" x="671.676" y="354.02">missing -G</text><text fill="#000000" font-family="sans-serif" font-size="13" lengthAdjust="spacingAndGlyphs" textLength="64" x="671.676" y="369.1528">missing -l</text><path d="M646.181,137.9281 C789.043,143.7651 1113.79,166.3701 1173.68,251.9531 C1186.42,270.1611 1182.27,281.4621 1173.68,301.9531 C1169.58,311.7091 1162.77,320.5891 1155.31,328.2041 " fill="none" style="stroke: #A80036; stroke-width: 1.0;"/><polygon fill="#A80036" points="1151.61,331.8401,1160.8363,328.3939,1155.1797,328.3391,1155.2345,322.6825,1151.61,331.8401" style="stroke: #A80036; stroke-width: 1.0;"/><text fill="#000000" font-family="sans-serif" font-size="13" lengthAdjust="spacingAndGlyphs" textLength="13" x="1139.68" y="203.02">-h</text><text fill="#000000" font-family="sans-serif" font-size="13" lengthAdjust="spacingAndGlyphs" textLength="38" x="1139.68" y="218.1528">--help</text><path d="M1112.31,382.0951 C1102.62,413.5871 1080.88,467.6397 1040.68,492.9531 C998.257,519.6647 630.738,529.7333 550.928,531.6147 " fill="none" style="stroke: #A80036; stroke-width: 1.0;"/><polygon fill="#A80036" points="545.687,531.7361,554.7772,535.5268,550.6857,531.6204,554.592,527.5289,545.687,531.7361" style="stroke: #A80036; stroke-width: 1.0;"/><path d="M646.212,138.5341 C795.033,144.7081 1141.63,161.9351 1186.68,189.9531 C1237.12,221.3261 1265.96,288.0831 1279.04,326.7001 " fill="none" style="stroke: #A80036; stroke-width: 1.0;"/><polygon fill="#A80036" points="1280.71,331.7261,1281.6772,321.9249,1279.1378,326.9797,1274.083,324.4403,1280.71,331.7261" style="stroke: #A80036; stroke-width: 1.0;"/><text fill="#000000" font-family="sans-serif" font-size="13" lengthAdjust="spacingAndGlyphs" textLength="13" x="1224.68" y="203.02">-v</text><text fill="#000000" font-family="sans-serif" font-size="13" lengthAdjust="spacingAndGlyphs" textLength="58" x="1224.68" y="218.1528">--version</text><path d="M1258.49,382.1731 C1218.22,414.0181 1142.01,468.7505 1066.68,492.9531 C966.967,524.9852 627.745,530.867 551.136,531.7955 " fill="none" style="stroke: #A80036; stroke-width: 1.0;"/><polygon fill="#A80036" points="545.692,531.8584,554.7371,535.7553,550.6917,531.8013,554.6457,527.7558,545.692,531.8584" style="stroke: #A80036; stroke-width: 1.0;"/><path d="M646.498,136.7181 C727.893,141.7311 861.314,163.8811 924.676,251.9531 C958.267,298.6421 927.554,368.3101 905.186,407.1501 " fill="none" style="stroke: #A80036; stroke-width: 1.0;"/><polygon fill="#A80036" points="902.504,411.7301,910.5021,405.9829,905.0295,407.4148,903.5976,401.9422,902.504,411.7301" style="stroke: #A80036; stroke-width: 1.0;"/><text fill="#000000" font-family="sans-serif" font-size="13" lengthAdjust="spacingAndGlyphs" textLength="127" x="940.676" y="266.52">-d without operand,</text><text fill="#000000" font-family="sans-serif" font-size="13" lengthAdjust="spacingAndGlyphs" textLength="169" x="940.676" y="281.6528">any unregonized operand,</text><text fill="#000000" font-family="sans-serif" font-size="13" lengthAdjust="spacingAndGlyphs" textLength="186" x="940.676" y="296.7856">out-of-scope -1 -H -O -P -t -X</text><path d="M811.378,458.1185 C726.208,480.9275 593.69,516.4168 550.106,528.0887 " fill="none" style="stroke: #A80036; stroke-width: 1.0;"/><polygon fill="#A80036" points="545.241,529.3916,554.9696,530.9257,550.0706,528.0974,552.8989,523.1984,545.241,529.3916" style="stroke: #A80036; stroke-width: 1.0;"/></g></svg>