<?xml version="1.0" encoding="UTF-8" standalone="no"?><svg xmlns="http://www.w3.org/2000/svg" xmlns:xlink="http://www.w3.org/1999/xlink" contentScriptType="application/ecmascript" contentStyleType="text/css" height="595px" preserveAspectRatio="none" style="width:1505px;height:595px;" version="1.1" viewBox="0 0 1505 595" width="1505px" zoomAndPan="magnify"><defs><linearGradient id="g1nj291c959rt0" x1="0%" x2="100%" y1="50%" y2="50%"><stop offset="0%" stop-color="#FFFFFF"/><stop offset="100%" stop-color="#FFFFFF"/></linearGradient><filter height="300%" id="f1nj291c959rt" width="300%" x="-1" y="-1"><feGaussianBlur result="blurOut" stdDeviation="2.0"/><feColorMatrix in="blurOut" result="blurOut2" type="matrix" values="0 0 0 0 0 0 0 0 0 0 0 0 0 0 0 0 0 0 .4 0"/><feOffset dx="4.0" dy="4.0" in="blurOut2" result="blurOut3"/><feBlend in="SourceGraphic" in2="blurOut3" mode="normal"/></filter></defs><g><rect fill="url(#g1nj291c959rt0)" height="595" style="stroke: none; stroke-width: 1.0;" width="1505" x="0" y="0"/><text fill="#000000" font-family="sans-serif" font-size="18" lengthAdjust="spacingAndGlyphs" textLength="326" x="592.5" y="16.708">Hunspell - Command-line Arguments</text><ellipse cx="636.9618" cy="38.9531" fill="#000000" filter="url(#f1nj291c959rt)" rx="10" ry="10" style="stroke: none; stroke-width: 1.0;"/><rect fill="#FEFECE" filter="url(#f1nj291c959rt)" height="50" rx="12.5" ry="12.5" style="stroke: #A80036; stroke-width: 1.5;" width="133" x="570.4618" y="109.9531"/><line style="stroke: #A80036; stroke-width: 1.5;" x1="570.4618" x2="703.4618" y1="136.25" y2="136.25"/><text fill="#000000" font-family="sans-serif" font-size="14" lengthAdjust="spacingAndGlyphs" textLength="113" x="580.4618" y="127.9482">DEFAULT_MODE</text><ellipse cx="601.9618" cy="574.9531" fill="none" filter="url(#f1nj291c959rt)" rx="10" ry="10" style="stroke: #000000; stroke-width: 1.0;"/><ellipse cx="602.4618" cy="575.4531" fill="#000000" rx="6" ry="6" style="stroke: none; stroke-width: 1.0;"/><rect fill="#FEFECE" filter="url(#f1nj291c959rt)" height="50" rx="12.5" ry="12.5" style="stroke: #A80036; stroke-width: 1.5;" width="166" x="13.9618" y="373.9531"/><line style="stroke: #A80036; stroke-width: 1.5;" x1="13.9618" x2="179.9618" y1="400.25" y2="400.25"/><text fill="#000000" font-family="sans-serif" font-size="14" lengthAdjust="spacingAndGlyphs" textLength="146" x="23.9618" y="391.9482">NO_SUGGEST_MODE</text><rect fill="#FEFECE" filter="url(#f1nj291c959rt)" height="50" rx="12.5" ry="12.5" style="stroke: #A80036; stroke-width: 1.5;" width="202" x="184.9618" y="373.9531"/><line style="stroke: #A80036; stroke-width: 1.5;" x1="184.9618" x2="386.9618" y1="400.25" y2="400.25"/><text fill="#000000" font-family="sans-serif" font-size="14" lengthAdjust="spacingAndGlyphs" textLength="182" x="194.9618" y="391.9482">LIST_DICTIONARIES_MODE</text><rect fill="#FEFECE" filter="url(#f1nj291c959rt)" height="50" rx="12.5" ry="12.5" style="stroke: #A80036; stroke-width: 1.5;" width="200" x="324.9618" y="272.9531"/><line style="stroke: #A80036; stroke-width: 1.5;" x1="324.9618" x2="524.9618" y1="299.25" y2="299.25"/><text fill="#000000" font-family="sans-serif" font-size="14" lengthAdjust="spacingAndGlyphs" textLength="180" x="334.9618" y="290.9482">CORRECT_WORDS_MODE</text><rect fill="#FEFECE" filter="url(#f1nj291c959rt)" height="50" rx="12.5" ry="12.5" style="stroke: #A80036; stroke-width: 1.5;" width="184" x="409.9618" y="453.9531"/><line style="stroke: #A80036; stroke-width: 1.5;" x1="409.9618" x2="593.9618" y1="480.25" y2="480.25"/><text fill="#000000" font-family="sans-serif" font-size="14" lengthAdjust="spacingAndGlyphs" textLength="164" x="419.9618" y="471.9482">CORRECT_LINES_MODE</text><rect fill="#FEFECE" filter="url(#f1nj291c959rt)" height="50" rx="12.5" ry="12.5" style="stroke: #A80036; stroke-width: 1.5;" width="216" x="748.9618" y="272.9531"/><line style="stroke: #A80036; stroke-width: 1.5;" x1="748.9618" x2="964.9618" y1="299.25" y2="299.25"/><text fill="#000000" font-family="sans-serif" font-size="14" lengthAdjust="spacingAndGlyphs" textLength="196" x="758.9618" y="290.9482">MISSPELLED_WORDS_MODE</text><rect fill="#FEFECE" filter="url(#f1nj291c959rt)" height="50" rx="12.5" ry="12.5" style="stroke: #A80036; stroke-width: 1.5;" width="200" x="628.9618" y="453.9531"/><line style="stroke: #A80036; stroke-width: 1.5;" x1="628.9618" x2="828.9618" y1="480.25" y2="480.25"/><text fill="#000000" font-family="sans-serif" font-size="14" lengthAdjust="spacingAndGlyphs" textLength="180" x="638.9618" y="471.9482">MISSPELLED_LINES_MODE</text><rect fill="#FEFECE" filter="url(#f1nj291c959rt)" height="50.2656" rx="12.5" ry="12.5" style="stroke: #A80036; stroke-width: 1.5;" width="153" x="560.4618" y="272.9531"/><line style="stroke: #A80036; stroke-width: 1.5;" x1="560.4618" x2="713.4618" y1="299.25" y2="299.25"/><text fill="#000000" font-family="sans-serif" font-size="14" lengthAdjust="spacingAndGlyphs" textLength="88" x="592.9618" y="290.9482">LINES_MODE</text><text fill="#000000" font-family="sans-serif" font-size="12" lengthAdjust="spacingAndGlyphs" textLength="133" x="565.4618" y="315.3887">is intermediate mode</text><rect fill="#FEFECE" filter="url(#f1nj291c959rt)" height="50.2656" rx="12.5" ry="12.5" style="stroke: #A80036; stroke-width: 1.5;" width="155" x="864.4618" y="453.9531"/><line style="stroke: #A80036; stroke-width: 1.5;" x1="864.4618" x2="1019.4618" y1="480.25" y2="480.25"/><text fill="#000000" font-family="sans-serif" font-size="14" lengthAdjust="spacingAndGlyphs" textLength="100" x="891.9618" y="471.9482">ERROR_MODE</text><text fill="#000000" font-family="sans-serif" font-size="12" lengthAdjust="spacingAndGlyphs" textLength="135" x="869.4618" y="496.3887">returns exit code of 1</text><rect fill="#FEFECE" filter="url(#f1nj291c959rt)" height="50" rx="12.5" ry="12.5" style="stroke: #A80036; stroke-width: 1.5;" width="105" x="1160.4618" y="373.9531"/><line style="stroke: #A80036; stroke-width: 1.5;" x1="1160.4618" x2="1265.4618" y1="400.25" y2="400.25"/><text fill="#000000" font-family="sans-serif" font-size="14" lengthAdjust="spacingAndGlyphs" textLength="85" x="1170.4618" y="391.9482">HELP_MODE</text><rect fill="#FEFECE" filter="url(#f1nj291c959rt)" height="50" rx="12.5" ry="12.5" style="stroke: #A80036; stroke-width: 1.5;" width="131" x="1362.4618" y="373.9531"/><line style="stroke: #A80036; stroke-width: 1.5;" x1="1362.4618" x2="1493.4618" y1="400.25" y2="400.25"/><text fill="#000000" font-family="sans-serif" font-size="14" lengthAdjust="spacingAndGlyphs" textLength="111" x="1372.4618" y="391.9482">VERSION_MODE</text><!--link *start to DEFAULT_MODE--><path d="M636.9618,49.2268 C636.9618,62.3139 636.9618,85.5086 636.9618,104.4738 " fill="none" id="*start-DEFAULT_MODE" style="stroke: #A80036; stroke-width: 1.0;"/><polygon fill="#A80036" points="636.9618,109.6989,640.9618,100.6989,636.9618,104.6989,632.9618,100.6989,636.9618,109.6989" style="stroke: #A80036; stroke-width: 1.0;"/><!--link DEFAULT_MODE to DEFAULT_MODE--><path d="M703.8285,124.8584 C723.3448,125.2073 738.4618,128.5722 738.4618,134.9531 C738.4618,140.7358 726.0464,144.0414 709.1926,144.8702 " fill="none" id="DEFAULT_MODE-DEFAULT_MODE" style="stroke: #A80036; stroke-width: 1.0;"/><polygon fill="#A80036" points="703.8285,145.0478,712.956,148.7476,708.8258,144.8823,712.6911,140.752,703.8285,145.0478" style="stroke: #A80036; stroke-width: 1.0;"/><text fill="#000000" font-family="sans-serif" font-size="13" lengthAdjust="spacingAndGlyphs" textLength="99" x="744.4618" y="132.02">-d with operand</text><text fill="#000000" font-family="sans-serif" font-size="13" lengthAdjust="spacingAndGlyphs" textLength="94" x="744.4618" y="147.1528">-i with operand</text><!--link DEFAULT_MODE to *end--><path d="M570.1892,139.0087 C495.0976,144.9097 370.1604,158.7815 266.9618,189.9531 C133.5194,230.2599 66.3067,245.1671 12.9618,373.9531 C-21.0562,456.0798 81.2806,473.9618 164.9618,503.9531 C323.0261,560.6032 529.5407,572.2711 586.7184,574.4751 " fill="none" id="DEFAULT_MODE-*end" style="stroke: #A80036; stroke-width: 1.0;"/><polygon fill="#A80036" points="591.7789,574.66,582.9311,570.3338,586.7822,574.4773,582.6387,578.3285,591.7789,574.66" style="stroke: #A80036; stroke-width: 1.0;"/><!--link DEFAULT_MODE to NO_SUGGEST_MODE--><path d="M570.4397,142.3109 C492.2915,151.7162 367.9615,169.28 325.9618,189.9531 C236.6599,233.9092 156.8842,323.4137 119.4679,369.7286 " fill="none" id="DEFAULT_MODE-NO_SUGGEST_MODE" style="stroke: #A80036; stroke-width: 1.0;"/><polygon fill="#A80036" points="116.1968,373.8017,124.9512,369.2894,119.3277,369.9034,118.7138,364.2799,116.1968,373.8017" style="stroke: #A80036; stroke-width: 1.0;"/><text fill="#000000" font-family="sans-serif" font-size="13" lengthAdjust="spacingAndGlyphs" textLength="15" x="326.9618" y="210.52">-U</text><!--link NO_SUGGEST_MODE to *end--><path d="M129.2917,424.1912 C171.3582,455.6137 248.3303,508.3801 322.9618,534.9531 C372.554,552.6107 535.8672,568.8425 586.712,573.5721 " fill="none" id="NO_SUGGEST_MODE-*end" style="stroke: #A80036; stroke-width: 1.0;"/><polygon fill="#A80036" points="591.811,574.0428,583.2169,569.2323,586.8322,573.5831,582.4814,577.1984,591.811,574.0428" style="stroke: #A80036; stroke-width: 1.0;"/><!--link DEFAULT_MODE to LIST_DICTIONARIES_MODE--><path d="M570.3505,149.9629 C484.1156,170.7826 340.8454,210.5616 306.9618,251.9531 C280.068,284.8059 279.0857,336.2263 281.8065,368.7281 " fill="none" id="DEFAULT_MODE-LIST_DICTIONARIES_MODE" style="stroke: #A80036; stroke-width: 1.0;"/><polygon fill="#A80036" points="282.2715,373.7763,285.4289,364.4473,281.8128,368.7974,277.4627,365.1813,282.2715,373.7763" style="stroke: #A80036; stroke-width: 1.0;"/><text fill="#000000" font-family="sans-serif" font-size="13" lengthAdjust="spacingAndGlyphs" textLength="15" x="426.9618" y="210.52">-D</text><!--link LIST_DICTIONARIES_MODE to *end--><path d="M286.7189,424.1115 C289.105,455.1975 298.119,507.3518 330.9618,534.9531 C370.2178,567.9441 535.6297,573.7373 586.8072,574.744 " fill="none" id="LIST_DICTIONARIES_MODE-*end" style="stroke: #A80036; stroke-width: 1.0;"/><polygon fill="#A80036" points="591.9348,574.836,583.0081,570.6749,586.9356,574.7462,582.8644,578.6736,591.9348,574.836" style="stroke: #A80036; stroke-width: 1.0;"/><!--link DEFAULT_MODE to CORRECT_WORDS_MODE--><path d="M604.3014,160.0646 C565.8633,189.6185 502.1886,238.5759 461.9609,269.5057 " fill="none" id="DEFAULT_MODE-CORRECT_WORDS_MODE" style="stroke: #A80036; stroke-width: 1.0;"/><polygon fill="#A80036" points="457.6593,272.813,467.2323,270.4983,461.6231,269.7654,462.356,264.1562,457.6593,272.813" style="stroke: #A80036; stroke-width: 1.0;"/><text fill="#000000" font-family="sans-serif" font-size="13" lengthAdjust="spacingAndGlyphs" textLength="15" x="563.9618" y="210.52">-G</text><!--link CORRECT_WORDS_MODE to CORRECT_LINES_MODE--><path d="M435.6683,323.1204 C449.6504,355.9874 474.1047,413.4709 489.0835,448.6808 " fill="none" id="CORRECT_WORDS_MODE-CORRECT_LINES_MODE" style="stroke: #A80036; stroke-width: 1.0;"/><polygon fill="#A80036" points="491.2224,453.7085,491.3797,443.8609,489.2649,449.1076,484.0183,446.9928,491.2224,453.7085" style="stroke: #A80036; stroke-width: 1.0;"/><text fill="#000000" font-family="sans-serif" font-size="13" lengthAdjust="spacingAndGlyphs" textLength="12" x="478.9618" y="403.52">-L</text><!--link CORRECT_WORDS_MODE to *end--><path d="M416.4885,323.3261 C400.9922,371.8247 371.48,475.4076 391.9618,503.9531 C415.6236,536.9306 542.8544,563.7649 586.9243,572.192 " fill="none" id="CORRECT_WORDS_MODE-*end" style="stroke: #A80036; stroke-width: 1.0;"/><polygon fill="#A80036" points="591.8738,573.1276,583.7734,567.5255,586.9608,572.1989,582.2874,575.3863,591.8738,573.1276" style="stroke: #A80036; stroke-width: 1.0;"/><!--link CORRECT_LINES_MODE to *end--><path d="M528.2356,504.176 C548.5472,523.6751 575.6591,549.7025 590.7016,564.1433 " fill="none" id="CORRECT_LINES_MODE-*end" style="stroke: #A80036; stroke-width: 1.0;"/><polygon fill="#A80036" points="594.6086,567.894,590.8862,558.7757,591.0017,564.4314,585.346,564.5468,594.6086,567.894" style="stroke: #A80036; stroke-width: 1.0;"/><!--link DEFAULT_MODE to MISSPELLED_WORDS_MODE--><path d="M670.8547,160.0646 C710.824,189.6783 777.0884,238.7742 818.8197,269.6933 " fill="none" id="DEFAULT_MODE-MISSPELLED_WORDS_MODE" style="stroke: #A80036; stroke-width: 1.0;"/><polygon fill="#A80036" points="823.0304,272.813,818.1803,264.2412,819.0129,269.8364,813.4177,270.6691,823.0304,272.813" style="stroke: #A80036; stroke-width: 1.0;"/><text fill="#000000" font-family="sans-serif" font-size="13" lengthAdjust="spacingAndGlyphs" textLength="8" x="754.9618" y="210.52">-l</text><!--link MISSPELLED_WORDS_MODE to MISSPELLED_LINES_MODE--><path d="M847.5354,323.3016 C836.8477,350.0137 817.6529,392.4932 792.9618,423.9531 C785.5222,433.4322 776.2566,442.4977 767.1064,450.4369 " fill="none" id="MISSPELLED_WORDS_MODE-MISSPELLED_LINES_MODE" style="stroke: #A80036; stroke-width: 1.0;"/><polygon fill="#A80036" points="763.1975,453.7683,772.6419,450.9748,767.0029,450.5251,767.4526,444.8861,763.1975,453.7683" style="stroke: #A80036; stroke-width: 1.0;"/><text fill="#000000" font-family="sans-serif" font-size="13" lengthAdjust="spacingAndGlyphs" textLength="12" x="824.9618" y="403.52">-L</text><!--link MISSPELLED_LINES_MODE to *end--><path d="M695.594,504.176 C668.9004,524.3539 632.9585,551.5225 614.3239,565.6085 " fill="none" id="MISSPELLED_LINES_MODE-*end" style="stroke: #A80036; stroke-width: 1.0;"/><polygon fill="#A80036" points="609.9754,568.8956,619.567,566.6594,613.964,565.8805,614.7429,560.2776,609.9754,568.8956" style="stroke: #A80036; stroke-width: 1.0;"/><!--link MISSPELLED_WORDS_MODE to *end--><path d="M907.1285,322.9721 C978.0334,361.5491 1093.0206,438.0027 1036.9618,503.9531 C1008.9476,536.9104 691.071,567.0373 617.2222,573.6232 " fill="none" id="MISSPELLED_WORDS_MODE-*end" style="stroke: #A80036; stroke-width: 1.0;"/><polygon fill="#A80036" points="611.9568,574.0897,621.2747,577.2798,616.9373,573.6484,620.5687,569.311,611.9568,574.0897" style="stroke: #A80036; stroke-width: 1.0;"/><!--link DEFAULT_MODE to LINES_MODE--><path d="M636.9618,160.0646 C636.9618,189.0202 636.9618,236.6017 636.9618,267.6055 " fill="none" id="DEFAULT_MODE-LINES_MODE" style="stroke: #A80036; stroke-width: 1.0;"/><polygon fill="#A80036" points="636.9618,272.813,640.9618,263.813,636.9618,267.813,632.9618,263.813,636.9618,272.813" style="stroke: #A80036; stroke-width: 1.0;"/><text fill="#000000" font-family="sans-serif" font-size="13" lengthAdjust="spacingAndGlyphs" textLength="12" x="637.9618" y="210.52">-L</text><!--link LINES_MODE to CORRECT_LINES_MODE--><path d="M618.1906,323.1204 C593.4756,356.2568 550.098,414.4149 523.8982,449.5421 " fill="none" id="LINES_MODE-CORRECT_LINES_MODE" style="stroke: #A80036; stroke-width: 1.0;"/><polygon fill="#A80036" points="520.7907,453.7085,529.3779,448.8857,523.7801,449.7006,522.9652,444.1027,520.7907,453.7085" style="stroke: #A80036; stroke-width: 1.0;"/><text fill="#000000" font-family="sans-serif" font-size="13" lengthAdjust="spacingAndGlyphs" textLength="15" x="578.9618" y="403.52">-G</text><!--link LINES_MODE to MISSPELLED_LINES_MODE--><path d="M639.3812,323.2279 C642.8533,349.8785 651.0647,392.307 669.9618,423.9531 C675.638,433.4588 683.4356,442.339 691.5029,450.0734 " fill="none" id="LINES_MODE-MISSPELLED_LINES_MODE" style="stroke: #A80036; stroke-width: 1.0;"/><polygon fill="#A80036" points="695.4767,453.776,691.6187,444.7142,691.8185,450.3676,686.1652,450.5673,695.4767,453.776" style="stroke: #A80036; stroke-width: 1.0;"/><text fill="#000000" font-family="sans-serif" font-size="13" lengthAdjust="spacingAndGlyphs" textLength="8" x="670.9618" y="403.52">-l</text><!--link LINES_MODE to ERROR_MODE--><path d="M651.9043,323.1885 C673.1959,358.9826 710.2271,420.5672 714.9618,423.9531 C763.5463,458.6972 787.9435,439.7586 845.9618,453.9531 C850.3231,455.0201 854.7918,456.1291 859.3006,457.2604 " fill="none" id="LINES_MODE-ERROR_MODE" style="stroke: #A80036; stroke-width: 1.0;"/><polygon fill="#A80036" points="864.2058,458.4958,856.4554,452.4187,859.3572,457.2745,854.5014,460.1764,864.2058,458.4958" style="stroke: #A80036; stroke-width: 1.0;"/><text fill="#000000" font-family="sans-serif" font-size="13" lengthAdjust="spacingAndGlyphs" textLength="68" x="715.9618" y="396.02">missing -G</text><text fill="#000000" font-family="sans-serif" font-size="13" lengthAdjust="spacingAndGlyphs" textLength="61" x="715.9618" y="411.1528">missing -l</text><!--link DEFAULT_MODE to HELP_MODE--><path d="M703.6901,141.22 C869.4033,157.4727 1289.1745,203.1271 1327.9618,251.9531 C1353.3953,283.9693 1349.7626,309.3608 1327.9618,343.9531 C1315.1268,364.3189 1292.4372,377.3075 1270.5845,385.5112 " fill="none" id="DEFAULT_MODE-HELP_MODE" style="stroke: #A80036; stroke-width: 1.0;"/><polygon fill="#A80036" points="1265.6453,387.2916,1275.4685,388.0027,1270.349,385.5961,1272.7556,380.4767,1265.6453,387.2916" style="stroke: #A80036; stroke-width: 1.0;"/><text fill="#000000" font-family="sans-serif" font-size="13" lengthAdjust="spacingAndGlyphs" textLength="13" x="1257.9618" y="203.02">-h</text><text fill="#000000" font-family="sans-serif" font-size="13" lengthAdjust="spacingAndGlyphs" textLength="37" x="1257.9618" y="218.1528">--help</text><!--link HELP_MODE to *end--><path d="M1200.1799,424.0272 C1182.3442,456.0547 1146.7288,510.2826 1098.9618,534.9531 C1055.2109,557.5494 696.5993,571.5778 617.4024,574.4177 " fill="none" id="HELP_MODE-*end" style="stroke: #A80036; stroke-width: 1.0;"/><polygon fill="#A80036" points="612.1913,574.6028,621.3278,578.2804,617.1881,574.4251,621.0434,570.2855,612.1913,574.6028" style="stroke: #A80036; stroke-width: 1.0;"/><!--link DEFAULT_MODE to VERSION_MODE--><path d="M703.4666,137.7509 C861.5705,144.7835 1250.7031,164.4734 1303.9618,189.9531 C1374.977,223.9277 1408.3458,319.4087 1421.2199,368.686 " fill="none" id="DEFAULT_MODE-VERSION_MODE" style="stroke: #A80036; stroke-width: 1.0;"/><polygon fill="#A80036" points="1422.4745,373.5952,1424.1215,363.8851,1421.2365,368.7509,1416.3706,365.8659,1422.4745,373.5952" style="stroke: #A80036; stroke-width: 1.0;"/><text fill="#000000" font-family="sans-serif" font-size="13" lengthAdjust="spacingAndGlyphs" textLength="12" x="1345.9618" y="203.02">-v</text><text fill="#000000" font-family="sans-serif" font-size="13" lengthAdjust="spacingAndGlyphs" textLength="56" x="1345.9618" y="218.1528">--version</text><!--link VERSION_MODE to *end--><path d="M1385.0347,423.9859 C1327.8329,455.9681 1222.4727,510.1466 1124.9618,534.9531 C1025.1879,560.3353 693.6637,572.0849 617.6063,574.4826 " fill="none" id="VERSION_MODE-*end" style="stroke: #A80036; stroke-width: 1.0;"/><polygon fill="#A80036" points="612.1907,574.651,621.3108,578.3691,617.1883,574.4955,621.0619,570.3729,612.1907,574.651" style="stroke: #A80036; stroke-width: 1.0;"/><!--link DEFAULT_MODE to ERROR_MODE--><path d="M703.6317,148.0153 C794.3185,167.2922 949.0758,206.0748 981.9618,251.9531 C1024.787,311.6973 985.5594,402.5788 959.9827,449.1523 " fill="none" id="DEFAULT_MODE-ERROR_MODE" style="stroke: #A80036; stroke-width: 1.0;"/><polygon fill="#A80036" points="957.3997,453.7909,965.273,447.8739,959.8322,449.4225,958.2836,443.9818,957.3997,453.7909" style="stroke: #A80036; stroke-width: 1.0;"/><text fill="#000000" font-family="sans-serif" font-size="13" lengthAdjust="spacingAndGlyphs" textLength="227" x="1002.9618" y="265.02">arguments -d or -i without operand,</text><text fill="#000000" font-family="sans-serif" font-size="13" lengthAdjust="spacingAndGlyphs" textLength="149" x="1002.9618" y="280.1528">unsupported operands,</text><text fill="#000000" font-family="sans-serif" font-size="13" lengthAdjust="spacingAndGlyphs" textLength="227" x="1002.9618" y="295.2856">invalid (combination of) arguments,</text><text fill="#000000" font-family="sans-serif" font-size="13" lengthAdjust="spacingAndGlyphs" textLength="282" x="1002.9618" y="310.4185">arguments out of scope -1 -H -m -O -P -t -X,</text><text fill="#000000" font-family="sans-serif" font-size="13" lengthAdjust="spacingAndGlyphs" textLength="283" x="1002.9618" y="325.5513">arguments to be implemented -a -m -r -s -w</text><text fill="#000000" font-family="sans-serif" font-size="13" lengthAdjust="spacingAndGlyphs" textLength="210" x="1010.9618" y="340.6841">-vv -check-apostrophe -check-url</text><!--link ERROR_MODE to *end--><path d="M864.3851,500.8571 C782.2497,524.0483 658.7593,558.9161 616.6398,570.8087 " fill="none" id="ERROR_MODE-*end" style="stroke: #A80036; stroke-width: 1.0;"/><polygon fill="#A80036" points="611.6916,572.2059,621.4399,573.6097,616.5035,570.8472,619.266,565.9108,611.6916,572.2059" style="stroke: #A80036; stroke-width: 1.0;"/><!--
@startuml
skinparam backgroundcolor White|White

title Hunspell - Command-line Arguments

[*] - -> DEFAULT_MODE

DEFAULT_MODE - -> DEFAULT_MODE : -d with operand\l-i with operand
DEFAULT_MODE - -> [*]

DEFAULT_MODE - -> NO_SUGGEST_MODE : -U
NO_SUGGEST_MODE - -> [*]

DEFAULT_MODE - -> LIST_DICTIONARIES_MODE : -D
LIST_DICTIONARIES_MODE - -> [*]

DEFAULT_MODE - -> CORRECT_WORDS_MODE : -G
CORRECT_WORDS_MODE - -> CORRECT_LINES_MODE : -L
CORRECT_WORDS_MODE - -> [*]
CORRECT_LINES_MODE - -> [*]

DEFAULT_MODE - -> MISSPELLED_WORDS_MODE : -l
MISSPELLED_WORDS_MODE - -> MISSPELLED_LINES_MODE : -L
MISSPELLED_LINES_MODE - -> [*]
MISSPELLED_WORDS_MODE - -> [*]

DEFAULT_MODE - -> LINES_MODE : -L
LINES_MODE : is intermediate mode
LINES_MODE - -> CORRECT_LINES_MODE : -G
LINES_MODE - -> MISSPELLED_LINES_MODE : -l
LINES_MODE - -> ERROR_MODE : missing -G\lmissing -l

DEFAULT_MODE - -> HELP_MODE : -h\l- -help
HELP_MODE - -> [*]

DEFAULT_MODE - -> VERSION_MODE : -v\l- -version
VERSION_MODE - -> [*]

DEFAULT_MODE - -> ERROR_MODE : arguments -d or -i without operand,\lunsupported operands,\linvalid (combination of) arguments,\larguments out of scope -1 -H -m -O -P -t -X,\larguments to be implemented -a -m -r -s -w\l  -vv -check-apostrophe -check-url
ERROR_MODE - -> [*]
ERROR_MODE : returns exit code of 1

@enduml

PlantUML version 1.2018.06(Mon May 21 12:34:53 CEST 2018)
(GPL source distribution)
Java Runtime: OpenJDK Runtime Environment
JVM: OpenJDK 64-Bit Server VM
Java Version: 10.0.1+10-Ubuntu-3ubuntu1
Operating System: Linux
OS Version: 4.15.0-20-generic
Default Encoding: UTF-8
Language: en
Country: US
--></g></svg>