<?xml version="1.0" encoding="UTF-8" standalone="yes"?><svg xmlns="http://www.w3.org/2000/svg" xmlns:xlink="http://www.w3.org/1999/xlink" height="553px" style="width:1716px;height:553px;" version="1.1" viewBox="0 0 1716 553" width="1716px"><defs><filter height="300%" id="f1" width="300%" x="-1" y="-1"><feGaussianBlur result="blurOut" stdDeviation="2.0"/><feColorMatrix in="blurOut" result="blurOut2" type="matrix" values="0 0 0 0 0 0 0 0 0 0 0 0 0 0 0 0 0 0 .4 0"/><feOffset dx="4.0" dy="4.0" in="blurOut2" result="blurOut3"/><feBlend in="SourceGraphic" in2="blurOut3" mode="normal"/></filter></defs><g><text fill="#000000" font-family="sans-serif" font-size="18" lengthAdjust="spacingAndGlyphs" textLength="331" x="697.5" y="16.708">Hunspell - Command-line Arguments</text><ellipse cx="797.327" cy="38.9531" fill="#000000" filter="url(#f1)" rx="10" ry="10" style="stroke: none; stroke-width: 1.0;"/><rect fill="#FEFECE" filter="url(#f1)" height="50" rx="12.5" ry="12.5" style="stroke: #A80036; stroke-width: 1.5;" width="135" x="729.827" y="113.4531"/><line style="stroke: #A80036; stroke-width: 1.5;" x1="729.827" x2="864.827" y1="139.75" y2="139.75"/><text fill="#000000" font-family="sans-serif" font-size="14" lengthAdjust="spacingAndGlyphs" textLength="115" x="739.827" y="131.4482">DEFAULT_MODE</text><rect fill="#FEFECE" filter="url(#f1)" height="50.2656" rx="12.5" ry="12.5" style="stroke: #A80036; stroke-width: 1.5;" width="150" x="111.327" y="415.9531"/><line style="stroke: #A80036; stroke-width: 1.5;" x1="111.327" x2="261.327" y1="442.25" y2="442.25"/><text fill="#000000" font-family="sans-serif" font-size="14" lengthAdjust="spacingAndGlyphs" textLength="100" x="136.327" y="433.9482">ERROR_MODE</text><text fill="#000000" font-family="sans-serif" font-size="12" lengthAdjust="spacingAndGlyphs" textLength="130" x="116.327" y="458.3887">returns exit code of 1</text><rect fill="#FEFECE" filter="url(#f1)" height="50" rx="12.5" ry="12.5" style="stroke: #A80036; stroke-width: 1.5;" width="99" x="1055.83" y="258.9531"/><line style="stroke: #A80036; stroke-width: 1.5;" x1="1055.83" x2="1154.83" y1="285.25" y2="285.25"/><text fill="#000000" font-family="sans-serif" font-size="14" lengthAdjust="spacingAndGlyphs" textLength="79" x="1065.83" y="276.9482">PIPE_MODE</text><rect fill="#FEFECE" filter="url(#f1)" height="50" rx="12.5" ry="12.5" style="stroke: #A80036; stroke-width: 1.5;" width="208" x="1190.33" y="258.9531"/><line style="stroke: #A80036; stroke-width: 1.5;" x1="1190.33" x2="1398.33" y1="285.25" y2="285.25"/><text fill="#000000" font-family="sans-serif" font-size="14" lengthAdjust="spacingAndGlyphs" textLength="188" x="1200.33" y="276.9482">LIST_DICTIONARIES_MODE</text><rect fill="#FEFECE" filter="url(#f1)" height="50" rx="12.5" ry="12.5" style="stroke: #A80036; stroke-width: 1.5;" width="201" x="819.827" y="258.9531"/><line style="stroke: #A80036; stroke-width: 1.5;" x1="819.827" x2="1020.827" y1="285.25" y2="285.25"/><text fill="#000000" font-family="sans-serif" font-size="14" lengthAdjust="spacingAndGlyphs" textLength="181" x="829.827" y="276.9482">CORRECT_WORDS_MODE</text><rect fill="#FEFECE" filter="url(#f1)" height="50.2656" rx="12.5" ry="12.5" style="stroke: #A80036; stroke-width: 1.5;" width="148" x="382.327" y="258.9531"/><line style="stroke: #A80036; stroke-width: 1.5;" x1="382.327" x2="530.327" y1="285.25" y2="285.25"/><text fill="#000000" font-family="sans-serif" font-size="14" lengthAdjust="spacingAndGlyphs" textLength="90" x="411.327" y="276.9482">LINES_MODE</text><text fill="#000000" font-family="sans-serif" font-size="12" lengthAdjust="spacingAndGlyphs" textLength="128" x="387.327" y="301.3887">is intermediate mode</text><rect fill="#FEFECE" filter="url(#f1)" height="50" rx="12.5" ry="12.5" style="stroke: #A80036; stroke-width: 1.5;" width="186" x="619.327" y="415.9531"/><line style="stroke: #A80036; stroke-width: 1.5;" x1="619.327" x2="805.327" y1="442.25" y2="442.25"/><text fill="#000000" font-family="sans-serif" font-size="14" lengthAdjust="spacingAndGlyphs" textLength="166" x="629.327" y="433.9482">CORRECT_LINES_MODE</text><rect fill="#FEFECE" filter="url(#f1)" height="50" rx="12.5" ry="12.5" style="stroke: #A80036; stroke-width: 1.5;" width="219" x="565.827" y="258.9531"/><line style="stroke: #A80036; stroke-width: 1.5;" x1="565.827" x2="784.827" y1="285.25" y2="285.25"/><text fill="#000000" font-family="sans-serif" font-size="14" lengthAdjust="spacingAndGlyphs" textLength="199" x="575.827" y="276.9482">MISSPELLED_WORDS_MODE</text><rect fill="#FEFECE" filter="url(#f1)" height="50" rx="12.5" ry="12.5" style="stroke: #A80036; stroke-width: 1.5;" width="204" x="373.327" y="415.9531"/><line style="stroke: #A80036; stroke-width: 1.5;" x1="373.327" x2="577.327" y1="442.25" y2="442.25"/><text fill="#000000" font-family="sans-serif" font-size="14" lengthAdjust="spacingAndGlyphs" textLength="184" x="383.327" y="433.9482">MISSPELLED_LINES_MODE</text><rect fill="#FEFECE" filter="url(#f1)" height="50" rx="12.5" ry="12.5" style="stroke: #A80036; stroke-width: 1.5;" width="106" x="1433.33" y="258.9531"/><line style="stroke: #A80036; stroke-width: 1.5;" x1="1433.33" x2="1539.33" y1="285.25" y2="285.25"/><text fill="#000000" font-family="sans-serif" font-size="14" lengthAdjust="spacingAndGlyphs" textLength="86" x="1443.33" y="276.9482">HELP_MODE</text><rect fill="#FEFECE" filter="url(#f1)" height="50" rx="12.5" ry="12.5" style="stroke: #A80036; stroke-width: 1.5;" width="133" x="1574.83" y="258.9531"/><line style="stroke: #A80036; stroke-width: 1.5;" x1="1574.83" x2="1707.83" y1="285.25" y2="285.25"/><text fill="#000000" font-family="sans-serif" font-size="14" lengthAdjust="spacingAndGlyphs" textLength="113" x="1584.83" y="276.9482">VERSION_MODE</text><ellipse cx="186.327" cy="536.9531" fill="none" filter="url(#f1)" rx="10" ry="10" style="stroke: #000000; stroke-width: 1.0;"/><ellipse cx="186.827" cy="537.4531" fill="#000000" rx="6" ry="6" style="stroke: none; stroke-width: 1.0;"/><path d="M797.327,49.3021 C797.327,62.6901 797.327,87.9211 797.327,107.9701 " fill="none" style="stroke: #A80036; stroke-width: 1.0;"/><polygon fill="#A80036" points="797.327,113.2091,801.327,104.2091,797.327,108.2091,793.327,104.2091,797.327,113.2091" style="stroke: #A80036; stroke-width: 1.0;"/><path d="M864.853,133.0321 C884.561,133.2191 899.827,135.0261 899.827,138.4531 C899.827,141.5581 887.289,143.3341 870.269,143.7791 " fill="none" style="stroke: #A80036; stroke-width: 1.0;"/><polygon fill="#A80036" points="864.853,143.8741,873.9224,147.7141,869.8522,143.7856,873.7807,139.7153,864.853,143.8741" style="stroke: #A80036; stroke-width: 1.0;"/><text fill="#000000" font-family="sans-serif" font-size="13" lengthAdjust="spacingAndGlyphs" textLength="13" x="925.827" y="128.02">-d</text><text fill="#000000" font-family="sans-serif" font-size="13" lengthAdjust="spacingAndGlyphs" textLength="28" x="918.327" y="143.1528">with</text><text fill="#000000" font-family="sans-serif" font-size="13" lengthAdjust="spacingAndGlyphs" textLength="53" x="905.827" y="158.2856">operand</text><path d="M865.203,128.5361 C913.67,125.7451 964.827,129.0511 964.827,138.4531 C964.827,147.5251 917.203,150.9211 870.323,148.6411 " fill="none" style="stroke: #A80036; stroke-width: 1.0;"/><polygon fill="#A80036" points="865.203,148.3701,873.9777,152.8428,870.1959,148.6358,874.4029,144.8541,865.203,148.3701" style="stroke: #A80036; stroke-width: 1.0;"/><text fill="#000000" font-family="sans-serif" font-size="13" lengthAdjust="spacingAndGlyphs" textLength="35" x="979.827" y="128.02">-1 for</text><text fill="#000000" font-family="sans-serif" font-size="13" lengthAdjust="spacingAndGlyphs" textLength="53" x="970.827" y="143.1528">1st field</text><text fill="#000000" font-family="sans-serif" font-size="13" lengthAdjust="spacingAndGlyphs" textLength="41" x="976.827" y="158.2856">in TSV</text><path d="M729.551,139.6071 C574.751,140.8051 199.706,148.7571 84.327,196.9531 C29.7233,219.7621 -9.3986,253.9091 12.327,308.9531 C31.6147,357.8201 81.2183,392.2311 122.55,413.4821 " fill="none" style="stroke: #A80036; stroke-width: 1.0;"/><polygon fill="#A80036" points="127.033,415.7531,120.8129,408.117,122.5729,413.4931,117.1968,415.2531,127.033,415.7531" style="stroke: #A80036; stroke-width: 1.0;"/><text fill="#000000" font-family="sans-serif" font-size="13" lengthAdjust="spacingAndGlyphs" textLength="13" x="33.327" y="273.52">-d</text><text fill="#000000" font-family="sans-serif" font-size="13" lengthAdjust="spacingAndGlyphs" textLength="49" x="15.327" y="288.6528">without</text><text fill="#000000" font-family="sans-serif" font-size="13" lengthAdjust="spacingAndGlyphs" textLength="53" x="13.327" y="303.7856">operand</text><path d="M729.359,142.5601 C600.583,149.0781 325.915,166.1851 236.327,196.9531 C187.226,213.8171 162.474,213.5331 137.327,258.9531 C109.901,308.4901 142.36,374.2651 165.992,411.3471 " fill="none" style="stroke: #A80036; stroke-width: 1.0;"/><polygon fill="#A80036" points="168.825,415.7241,167.2918,405.9953,166.1078,411.5269,160.5762,410.3429,168.825,415.7241" style="stroke: #A80036; stroke-width: 1.0;"/><text fill="#000000" font-family="sans-serif" font-size="13" lengthAdjust="spacingAndGlyphs" textLength="24" x="166.327" y="273.52">any</text><text fill="#000000" font-family="sans-serif" font-size="13" lengthAdjust="spacingAndGlyphs" textLength="80" x="138.327" y="288.6528">unregonized</text><text fill="#000000" font-family="sans-serif" font-size="13" lengthAdjust="spacingAndGlyphs" textLength="53" x="151.827" y="303.7856">operand</text><path d="M729.499,147.9201 C605.66,164.5221 349.242,204.5291 279.327,258.9531 C229.702,297.5831 204.124,370.0041 193.145,410.5471 " fill="none" style="stroke: #A80036; stroke-width: 1.0;"/><polygon fill="#A80036" points="191.754,415.8091,197.9222,408.131,193.0324,410.9753,190.1882,406.0855,191.754,415.8091" style="stroke: #A80036; stroke-width: 1.0;"/><text fill="#000000" font-family="sans-serif" font-size="13" lengthAdjust="spacingAndGlyphs" textLength="73" x="285.327" y="281.02">deprecated</text><text fill="#000000" font-family="sans-serif" font-size="13" lengthAdjust="spacingAndGlyphs" textLength="83" x="280.327" y="296.1528">-H -O -P -t -X</text><path d="M848.879,163.4721 C904.846,189.5471 993.851,231.0151 1050.91,257.6011 " fill="none" style="stroke: #A80036; stroke-width: 1.0;"/><polygon fill="#A80036" points="1055.65,259.8081,1049.1854,252.3779,1051.1189,257.694,1045.8028,259.6276,1055.65,259.8081" style="stroke: #A80036; stroke-width: 1.0;"/><text fill="#000000" font-family="sans-serif" font-size="13" lengthAdjust="spacingAndGlyphs" textLength="13" x="989.327" y="217.52">-a</text><path d="M864.95,157.0211 C907.136,168.1291 962.506,182.9801 1011.33,196.9531 C1079.38,216.4291 1156.19,239.8651 1212.6,257.3491 " fill="none" style="stroke: #A80036; stroke-width: 1.0;"/><polygon fill="#A80036" points="1217.65,258.9161,1210.2445,252.4232,1212.8757,257.4309,1207.868,260.0621,1217.65,258.9161" style="stroke: #A80036; stroke-width: 1.0;"/><text fill="#000000" font-family="sans-serif" font-size="13" lengthAdjust="spacingAndGlyphs" textLength="15" x="1114.33" y="217.52">-D</text><path d="M817.914,163.4721 C839.555,188.7191 873.565,228.3981 896.389,255.0251 " fill="none" style="stroke: #A80036; stroke-width: 1.0;"/><polygon fill="#A80036" points="899.672,258.8561,896.8507,249.42,896.4176,255.0602,890.7773,254.6271,899.672,258.8561" style="stroke: #A80036; stroke-width: 1.0;"/><text fill="#000000" font-family="sans-serif" font-size="13" lengthAdjust="spacingAndGlyphs" textLength="15" x="875.327" y="217.52">-G</text><path d="M481.26,309.0221 C505.186,331.1681 543.086,363.8351 580.327,385.9531 C598.186,396.5601 618.516,406.0141 637.778,413.9311 " fill="none" style="stroke: #A80036; stroke-width: 1.0;"/><polygon fill="#A80036" points="642.65,415.9111,635.8183,408.8169,638.0179,414.0286,632.8062,416.2282,642.65,415.9111" style="stroke: #A80036; stroke-width: 1.0;"/><text fill="#000000" font-family="sans-serif" font-size="13" lengthAdjust="spacingAndGlyphs" textLength="15" x="581.327" y="367.02">-G</text><path d="M776.907,163.4721 C755.442,188.7191 721.709,228.3981 699.07,255.0251 " fill="none" style="stroke: #A80036; stroke-width: 1.0;"/><polygon fill="#A80036" points="695.814,258.8561,704.6906,254.5894,699.0523,255.0465,698.5952,249.4081,695.814,258.8561" style="stroke: #A80036; stroke-width: 1.0;"/><text fill="#000000" font-family="sans-serif" font-size="13" lengthAdjust="spacingAndGlyphs" textLength="9" x="748.327" y="217.52">-l</text><path d="M459.296,309.1721 C462.656,336.5851 468.129,381.2361 471.73,410.6061 " fill="none" style="stroke: #A80036; stroke-width: 1.0;"/><polygon fill="#A80036" points="472.379,415.9041,475.2565,406.485,471.7718,410.9411,467.3157,407.4565,472.379,415.9041" style="stroke: #A80036; stroke-width: 1.0;"/><text fill="#000000" font-family="sans-serif" font-size="13" lengthAdjust="spacingAndGlyphs" textLength="9" x="470.327" y="367.02">-l</text><path d="M740.251,163.4721 C678.903,189.2881 581.699,230.1941 518.461,256.8061 " fill="none" style="stroke: #A80036; stroke-width: 1.0;"/><polygon fill="#A80036" points="513.589,258.8561,523.4359,259.0536,518.1978,256.9174,520.334,251.6794,513.589,258.8561" style="stroke: #A80036; stroke-width: 1.0;"/><text fill="#000000" font-family="sans-serif" font-size="13" lengthAdjust="spacingAndGlyphs" textLength="12" x="659.327" y="217.52">-L</text><path d="M663.711,309.1441 C651.812,331.6921 631.388,364.9121 605.327,385.9531 C591.422,397.1791 574.854,406.3981 558.278,413.8401 " fill="none" style="stroke: #A80036; stroke-width: 1.0;"/><polygon fill="#A80036" points="553.605,415.8931,563.4538,415.9368,558.183,413.8827,560.2371,408.612,553.605,415.8931" style="stroke: #A80036; stroke-width: 1.0;"/><text fill="#000000" font-family="sans-serif" font-size="13" lengthAdjust="spacingAndGlyphs" textLength="12" x="646.327" y="367.02">-L</text><path d="M887.827,309.1721 C850.125,337.2671 788.124,383.4701 748.804,412.7701 " fill="none" style="stroke: #A80036; stroke-width: 1.0;"/><polygon fill="#A80036" points="744.599,415.9041,754.2056,413.7332,748.6081,412.9163,749.425,407.3187,744.599,415.9041" style="stroke: #A80036; stroke-width: 1.0;"/><text fill="#000000" font-family="sans-serif" font-size="13" lengthAdjust="spacingAndGlyphs" textLength="12" x="848.327" y="367.02">-L</text><path d="M864.927,148.8061 C979.495,165.4801 1218.55,203.8391 1415.33,258.9531 C1419.47,260.1131 1423.73,261.3741 1428,262.6901 " fill="none" style="stroke: #A80036; stroke-width: 1.0;"/><polygon fill="#A80036" points="1433.02,264.2581,1425.6333,257.7438,1428.25,262.759,1423.2348,265.3757,1433.02,264.2581" style="stroke: #A80036; stroke-width: 1.0;"/><text fill="#000000" font-family="sans-serif" font-size="13" lengthAdjust="spacingAndGlyphs" textLength="13" x="1295.83" y="210.02">-h</text><text fill="#000000" font-family="sans-serif" font-size="13" lengthAdjust="spacingAndGlyphs" textLength="38" x="1283.33" y="225.1528">--help</text><path d="M865.149,143.2771 C966.909,149.8001 1164.82,165.5341 1330.33,196.9531 C1432.66,216.3791 1455.99,231.0241 1556.33,258.9531 C1560.67,260.1611 1565.13,261.4071 1569.63,262.6681 " fill="none" style="stroke: #A80036; stroke-width: 1.0;"/><polygon fill="#A80036" points="1574.52,264.0401,1566.9251,257.7697,1569.7037,262.6971,1564.7763,265.4757,1574.52,264.0401" style="stroke: #A80036; stroke-width: 1.0;"/><text fill="#000000" font-family="sans-serif" font-size="13" lengthAdjust="spacingAndGlyphs" textLength="13" x="1478.83" y="210.02">-v</text><text fill="#000000" font-family="sans-serif" font-size="13" lengthAdjust="spacingAndGlyphs" textLength="58" x="1456.33" y="225.1528">--version</text><path d="M417.642,309.0281 C383.816,329.8821 333.221,360.5991 288.327,385.9531 C271.981,395.1851 253.937,404.8921 237.628,413.4901 " fill="none" style="stroke: #A80036; stroke-width: 1.0;"/><polygon fill="#A80036" points="233.077,415.8851,242.9042,415.2331,237.5016,413.5564,239.1783,408.1537,233.077,415.8851" style="stroke: #A80036; stroke-width: 1.0;"/><text fill="#000000" font-family="sans-serif" font-size="13" lengthAdjust="spacingAndGlyphs" textLength="70" x="368.327" y="352.02">missing -G</text><text fill="#000000" font-family="sans-serif" font-size="13" lengthAdjust="spacingAndGlyphs" textLength="13" x="396.827" y="367.1528">or</text><text fill="#000000" font-family="sans-serif" font-size="13" lengthAdjust="spacingAndGlyphs" textLength="64" x="371.327" y="382.2856">missing -l</text><path d="M186.327,466.1604 C186.327,483.7954 186.327,507.0792 186.327,521.7882 " fill="none" style="stroke: #A80036; stroke-width: 1.0;"/><polygon fill="#A80036" points="186.327,526.793,190.327,517.793,186.327,521.793,182.327,517.793,186.327,526.793" style="stroke: #A80036; stroke-width: 1.0;"/></g></svg>