<?xml version="1.0" encoding="UTF-8" standalone="yes"?><svg xmlns="http://www.w3.org/2000/svg" xmlns:xlink="http://www.w3.org/1999/xlink" height="545px" style="width:1839px;height:545px;" version="1.1" viewBox="0 0 1839 545" width="1839px"><defs><filter height="300%" id="f1" width="300%" x="-1" y="-1"><feGaussianBlur result="blurOut" stdDeviation="2.0"/><feColorMatrix in="blurOut" result="blurOut2" type="matrix" values="0 0 0 0 0 0 0 0 0 0 0 0 0 0 0 0 0 0 .4 0"/><feOffset dx="4.0" dy="4.0" in="blurOut2" result="blurOut3"/><feBlend in="SourceGraphic" in2="blurOut3" mode="normal"/></filter></defs><g><text fill="#000000" font-family="Roboto Slab" font-size="20" font-weight="bold" lengthAdjust="spacingAndGlyphs" textLength="415" x="717" y="18.5645">Hunspell - Command-line Arguments</text><ellipse cx="847.546" cy="41.2813" fill="#000000" filter="url(#f1)" rx="10" ry="10" style="stroke: none; stroke-width: 1.0;"/><rect fill="#2A7AE2" filter="url(#f1)" height="50" rx="12.5" ry="12.5" style="stroke: #000000; stroke-width: 1.5;" width="148" x="773.546" y="113.7813"/><line style="stroke: #000000; stroke-width: 1.5;" x1="773.546" x2="921.546" y1="140.0781" y2="140.0781"/><text fill="#FFFFFF" font-family="Roboto Slab" font-size="14" font-weight="bold" lengthAdjust="spacingAndGlyphs" textLength="128" x="783.546" y="131.7764">DEFAULT_MODE</text><rect fill="#2A7AE2" filter="url(#f1)" height="50.2656" rx="12.5" ry="12.5" style="stroke: #000000; stroke-width: 1.5;" width="166" x="106.546" y="407.2813"/><line style="stroke: #000000; stroke-width: 1.5;" x1="106.546" x2="272.546" y1="433.5781" y2="433.5781"/><text fill="#FFFFFF" font-family="Roboto Slab" font-size="14" font-weight="bold" lengthAdjust="spacingAndGlyphs" textLength="110" x="134.546" y="425.2764">ERROR_MODE</text><text fill="#000000" font-family="Roboto Slab" font-size="12" font-weight="bold" lengthAdjust="spacingAndGlyphs" textLength="146" x="111.546" y="449.7168">returns exit code of 1</text><rect fill="#2A7AE2" filter="url(#f1)" height="50" rx="12.5" ry="12.5" style="stroke: #000000; stroke-width: 1.5;" width="110" x="1123.55" y="254.2813"/><line style="stroke: #000000; stroke-width: 1.5;" x1="1123.55" x2="1233.55" y1="280.5781" y2="280.5781"/><text fill="#FFFFFF" font-family="Roboto Slab" font-size="14" font-weight="bold" lengthAdjust="spacingAndGlyphs" textLength="90" x="1133.55" y="272.2764">PIPE_MODE</text><rect fill="#2A7AE2" filter="url(#f1)" height="50" rx="12.5" ry="12.5" style="stroke: #000000; stroke-width: 1.5;" width="229" x="1269.05" y="254.2813"/><line style="stroke: #000000; stroke-width: 1.5;" x1="1269.05" x2="1498.05" y1="280.5781" y2="280.5781"/><text fill="#FFFFFF" font-family="Roboto Slab" font-size="14" font-weight="bold" lengthAdjust="spacingAndGlyphs" textLength="209" x="1279.05" y="272.2764">LIST_DICTIONARIES_MODE</text><rect fill="#2A7AE2" filter="url(#f1)" height="50" rx="12.5" ry="12.5" style="stroke: #000000; stroke-width: 1.5;" width="216" x="872.546" y="254.2813"/><line style="stroke: #000000; stroke-width: 1.5;" x1="872.546" x2="1088.546" y1="280.5781" y2="280.5781"/><text fill="#FFFFFF" font-family="Roboto Slab" font-size="14" font-weight="bold" lengthAdjust="spacingAndGlyphs" textLength="196" x="882.546" y="272.2764">CORRECT_WORDS_MODE</text><rect fill="#2A7AE2" filter="url(#f1)" height="50.2656" rx="12.5" ry="12.5" style="stroke: #000000; stroke-width: 1.5;" width="166" x="394.546" y="254.2813"/><line style="stroke: #000000; stroke-width: 1.5;" x1="394.546" x2="560.546" y1="280.5781" y2="280.5781"/><text fill="#FFFFFF" font-family="Roboto Slab" font-size="14" font-weight="bold" lengthAdjust="spacingAndGlyphs" textLength="101" x="427.046" y="272.2764">LINES_MODE</text><text fill="#000000" font-family="Roboto Slab" font-size="12" font-weight="bold" lengthAdjust="spacingAndGlyphs" textLength="146" x="399.546" y="296.7168">is intermediate mode</text><rect fill="#2A7AE2" filter="url(#f1)" height="50" rx="12.5" ry="12.5" style="stroke: #000000; stroke-width: 1.5;" width="202" x="654.546" y="407.2813"/><line style="stroke: #000000; stroke-width: 1.5;" x1="654.546" x2="856.546" y1="433.5781" y2="433.5781"/><text fill="#FFFFFF" font-family="Roboto Slab" font-size="14" font-weight="bold" lengthAdjust="spacingAndGlyphs" textLength="182" x="664.546" y="425.2764">CORRECT_LINES_MODE</text><rect fill="#2A7AE2" filter="url(#f1)" height="50" rx="12.5" ry="12.5" style="stroke: #000000; stroke-width: 1.5;" width="241" x="596.046" y="254.2813"/><line style="stroke: #000000; stroke-width: 1.5;" x1="596.046" x2="837.046" y1="280.5781" y2="280.5781"/><text fill="#FFFFFF" font-family="Roboto Slab" font-size="14" font-weight="bold" lengthAdjust="spacingAndGlyphs" textLength="221" x="606.046" y="272.2764">MISSPELLED_WORDS_MODE</text><rect fill="#2A7AE2" filter="url(#f1)" height="50" rx="12.5" ry="12.5" style="stroke: #000000; stroke-width: 1.5;" width="227" x="384.046" y="407.2813"/><line style="stroke: #000000; stroke-width: 1.5;" x1="384.046" x2="611.046" y1="433.5781" y2="433.5781"/><text fill="#FFFFFF" font-family="Roboto Slab" font-size="14" font-weight="bold" lengthAdjust="spacingAndGlyphs" textLength="207" x="394.046" y="425.2764">MISSPELLED_LINES_MODE</text><rect fill="#2A7AE2" filter="url(#f1)" height="50" rx="12.5" ry="12.5" style="stroke: #000000; stroke-width: 1.5;" width="116" x="1533.55" y="254.2813"/><line style="stroke: #000000; stroke-width: 1.5;" x1="1533.55" x2="1649.55" y1="280.5781" y2="280.5781"/><text fill="#FFFFFF" font-family="Roboto Slab" font-size="14" font-weight="bold" lengthAdjust="spacingAndGlyphs" textLength="96" x="1543.55" y="272.2764">HELP_MODE</text><rect fill="#2A7AE2" filter="url(#f1)" height="50" rx="12.5" ry="12.5" style="stroke: #000000; stroke-width: 1.5;" width="146" x="1684.55" y="254.2813"/><line style="stroke: #000000; stroke-width: 1.5;" x1="1684.55" x2="1830.55" y1="280.5781" y2="280.5781"/><text fill="#FFFFFF" font-family="Roboto Slab" font-size="14" font-weight="bold" lengthAdjust="spacingAndGlyphs" textLength="126" x="1694.55" y="272.2764">VERSION_MODE</text><ellipse cx="189.546" cy="528.2813" fill="none" filter="url(#f1)" rx="10" ry="10" style="stroke: #000000; stroke-width: 1.0;"/><ellipse cx="190.046" cy="528.7813" fill="#000000" rx="6" ry="6" style="stroke: none; stroke-width: 1.0;"/><path d="M847.546,51.4382 C847.546,64.4113 847.546,88.7342 847.546,108.2672 " fill="none" style="stroke: #000000; stroke-width: 1.0;"/><polygon fill="#000000" points="847.546,113.6363,851.546,104.6363,847.546,108.6363,843.546,104.6363,847.546,113.6363" style="stroke: #000000; stroke-width: 1.0;"/><path d="M921.672,133.5732 C941.497,133.8603 956.546,135.5953 956.546,138.7813 C956.546,141.6683 944.186,143.3643 927.113,143.8703 " fill="none" style="stroke: #000000; stroke-width: 1.0;"/><polygon fill="#000000" points="921.672,143.9893,930.7578,147.7903,926.6708,143.8792,930.5818,139.7922,921.672,143.9893" style="stroke: #000000; stroke-width: 1.0;"/><text fill="#000000" font-family="Roboto Slab" font-size="12" font-weight="bold" lengthAdjust="spacingAndGlyphs" textLength="14" x="984.046" y="129.4199">-d</text><text fill="#000000" font-family="Roboto Slab" font-size="12" font-weight="bold" lengthAdjust="spacingAndGlyphs" textLength="30" x="976.046" y="143.3887">with</text><text fill="#000000" font-family="Roboto Slab" font-size="12" font-weight="bold" lengthAdjust="spacingAndGlyphs" textLength="57" x="962.546" y="157.3574">operand</text><path d="M921.694,129.0893 C972.519,126.6092 1025.55,129.8403 1025.55,138.7813 C1025.55,147.4262 975.982,150.7323 926.762,148.7013 " fill="none" style="stroke: #000000; stroke-width: 1.0;"/><polygon fill="#000000" points="921.694,148.4733,930.5055,152.8729,926.689,148.6975,930.8643,144.8809,921.694,148.4733" style="stroke: #000000; stroke-width: 1.0;"/><text fill="#000000" font-family="Roboto Slab" font-size="12" font-weight="bold" lengthAdjust="spacingAndGlyphs" textLength="36" x="1041.05" y="129.4199">-1 for</text><text fill="#000000" font-family="Roboto Slab" font-size="12" font-weight="bold" lengthAdjust="spacingAndGlyphs" textLength="55" x="1031.55" y="143.3887">1st field</text><text fill="#000000" font-family="Roboto Slab" font-size="12" font-weight="bold" lengthAdjust="spacingAndGlyphs" textLength="43" x="1037.55" y="157.3574">in TSV</text><path d="M773.428,139.7822 C607.737,140.6533 212.199,147.8093 88.546,195.2813 C33.4119,216.4482 -10.6024,249.9493 12.546,304.2813 C32.6728,351.5213 81.2349,384.3742 122.411,404.8143 " fill="none" style="stroke: #000000; stroke-width: 1.0;"/><polygon fill="#000000" points="127.136,407.1223,120.8063,399.5767,122.6438,404.9268,117.2936,406.7643,127.136,407.1223" style="stroke: #000000; stroke-width: 1.0;"/><text fill="#000000" font-family="Roboto Slab" font-size="12" font-weight="bold" lengthAdjust="spacingAndGlyphs" textLength="14" x="35.046" y="269.9199">-d</text><text fill="#000000" font-family="Roboto Slab" font-size="12" font-weight="bold" lengthAdjust="spacingAndGlyphs" textLength="53" x="15.546" y="283.8887">without</text><text fill="#000000" font-family="Roboto Slab" font-size="12" font-weight="bold" lengthAdjust="spacingAndGlyphs" textLength="57" x="13.546" y="297.8574">operand</text><path d="M773.539,142.7582 C635.276,148.9543 343.024,165.2242 246.546,195.2813 C195.439,211.2033 168.581,208.0802 141.546,254.2813 C113.655,301.9453 145.593,366.2743 169.091,402.8053 " fill="none" style="stroke: #000000; stroke-width: 1.0;"/><polygon fill="#000000" points="171.91,407.1192,170.3344,397.3972,169.1745,402.9339,163.6379,401.774,171.91,407.1192" style="stroke: #000000; stroke-width: 1.0;"/><text fill="#000000" font-family="Roboto Slab" font-size="12" font-weight="bold" lengthAdjust="spacingAndGlyphs" textLength="25" x="173.046" y="269.9199">any</text><text fill="#000000" font-family="Roboto Slab" font-size="12" font-weight="bold" lengthAdjust="spacingAndGlyphs" textLength="86" x="142.546" y="283.8887">unregonized</text><text fill="#000000" font-family="Roboto Slab" font-size="12" font-weight="bold" lengthAdjust="spacingAndGlyphs" textLength="57" x="157.046" y="297.8574">operand</text><path d="M773.445,147.3372 C640.001,162.1673 366.039,198.5723 289.546,254.2813 C238.897,291.1683 210.405,362.0153 197.697,401.9823 " fill="none" style="stroke: #000000; stroke-width: 1.0;"/><polygon fill="#000000" points="196.08,407.1733,202.5756,399.77,197.567,402.3995,194.9376,397.3909,196.08,407.1733" style="stroke: #000000; stroke-width: 1.0;"/><text fill="#000000" font-family="Roboto Slab" font-size="12" font-weight="bold" lengthAdjust="spacingAndGlyphs" textLength="78" x="294.046" y="276.9199">deprecated</text><text fill="#000000" font-family="Roboto Slab" font-size="12" font-weight="bold" lengthAdjust="spacingAndGlyphs" textLength="85" x="290.546" y="290.8887">-H -O -P -t -X</text><path d="M905.202,163.9063 C965.044,188.9463 1058.21,227.9273 1118.81,253.2843 " fill="none" style="stroke: #000000; stroke-width: 1.0;"/><polygon fill="#000000" points="1123.48,255.2383,1116.7202,248.0755,1118.8672,253.3091,1113.6336,255.456,1123.48,255.2383" style="stroke: #000000; stroke-width: 1.0;"/><text fill="#000000" font-family="Roboto Slab" font-size="12" font-weight="bold" lengthAdjust="spacingAndGlyphs" textLength="13" x="1044.55" y="214.4199">-a</text><path d="M921.583,158.3902 C964.033,169.0983 1018.31,182.8542 1066.55,195.2813 C1140.78,214.4043 1224.68,236.3902 1287.52,252.9283 " fill="none" style="stroke: #000000; stroke-width: 1.0;"/><polygon fill="#000000" points="1292.38,254.2093,1284.6934,248.0516,1287.5444,252.9375,1282.6586,255.7885,1292.38,254.2093" style="stroke: #000000; stroke-width: 1.0;"/><text fill="#000000" font-family="Roboto Slab" font-size="12" font-weight="bold" lengthAdjust="spacingAndGlyphs" textLength="15" x="1172.55" y="214.4199">-D</text><path d="M870.713,163.9063 C893.838,187.9873 929.346,224.9643 953.69,250.3153 " fill="none" style="stroke: #000000; stroke-width: 1.0;"/><polygon fill="#000000" points="957.198,253.9683,953.847,244.707,953.7339,250.3627,948.0782,250.2496,957.198,253.9683" style="stroke: #000000; stroke-width: 1.0;"/><text fill="#000000" font-family="Roboto Slab" font-size="12" font-weight="bold" lengthAdjust="spacingAndGlyphs" textLength="15" x="927.546" y="214.4199">-G</text><path d="M506.109,304.4523 C532.265,325.7093 572.705,356.4303 611.546,377.2813 C631.448,387.9652 653.923,397.4853 675.096,405.4433 " fill="none" style="stroke: #000000; stroke-width: 1.0;"/><polygon fill="#000000" points="679.876,407.2223,672.8351,400.3356,675.1897,405.4792,670.0461,407.8338,679.876,407.2223" style="stroke: #000000; stroke-width: 1.0;"/><text fill="#000000" font-family="Roboto Slab" font-size="12" font-weight="bold" lengthAdjust="spacingAndGlyphs" textLength="15" x="612.546" y="360.4199">-G</text><path d="M824.728,163.9063 C801.95,187.9873 766.976,224.9643 742.998,250.3153 " fill="none" style="stroke: #000000; stroke-width: 1.0;"/><polygon fill="#000000" points="739.543,253.9683,748.6332,250.1778,742.9786,250.3355,742.8209,244.6809,739.543,253.9683" style="stroke: #000000; stroke-width: 1.0;"/><text fill="#000000" font-family="Roboto Slab" font-size="12" font-weight="bold" lengthAdjust="spacingAndGlyphs" textLength="9" x="795.546" y="214.4199">-l</text><path d="M480.759,304.5422 C484.273,331.0693 489.903,373.5753 493.662,401.9533 " fill="none" style="stroke: #000000; stroke-width: 1.0;"/><polygon fill="#000000" points="494.341,407.0803,497.1236,397.6326,493.6839,402.1236,489.193,398.684,494.341,407.0803" style="stroke: #000000; stroke-width: 1.0;"/><text fill="#000000" font-family="Roboto Slab" font-size="12" font-weight="bold" lengthAdjust="spacingAndGlyphs" textLength="9" x="491.546" y="360.4199">-l</text><path d="M783.097,163.9063 C716.98,188.6553 614.477,227.0253 546.695,252.3972 " fill="none" style="stroke: #000000; stroke-width: 1.0;"/><polygon fill="#000000" points="541.876,254.2013,551.7071,254.7924,546.5587,252.4485,548.9026,247.3001,541.876,254.2013" style="stroke: #000000; stroke-width: 1.0;"/><text fill="#000000" font-family="Roboto Slab" font-size="12" font-weight="bold" lengthAdjust="spacingAndGlyphs" textLength="13" x="697.546" y="214.4199">-L</text><path d="M701.82,304.4083 C687.511,326.0823 663.968,357.4613 636.546,377.2813 C621.107,388.4403 603.06,397.6453 585.179,405.0983 " fill="none" style="stroke: #000000; stroke-width: 1.0;"/><polygon fill="#000000" points="580.142,407.1543,589.9862,407.4562,584.7712,405.2646,586.9628,400.0495,580.142,407.1543" style="stroke: #000000; stroke-width: 1.0;"/><text fill="#000000" font-family="Roboto Slab" font-size="12" font-weight="bold" lengthAdjust="spacingAndGlyphs" textLength="13" x="679.546" y="360.4199">-L</text><path d="M944.396,304.5422 C903.803,331.7843 838.098,375.8793 795.872,404.2183 " fill="none" style="stroke: #000000; stroke-width: 1.0;"/><polygon fill="#000000" points="791.606,407.0803,801.3082,405.3869,795.7579,404.2942,796.8506,398.7439,791.606,407.0803" style="stroke: #000000; stroke-width: 1.0;"/><text fill="#000000" font-family="Roboto Slab" font-size="12" font-weight="bold" lengthAdjust="spacingAndGlyphs" textLength="13" x="896.546" y="360.4199">-L</text><path d="M921.936,148.8403 C1046.09,164.7803 1302.91,201.2563 1515.55,254.2813 C1519.7,255.3163 1523.95,256.4503 1528.23,257.6463 " fill="none" style="stroke: #000000; stroke-width: 1.0;"/><polygon fill="#000000" points="1533.25,259.0753,1525.6917,252.7608,1528.4416,257.7043,1523.4982,260.4542,1533.25,259.0753" style="stroke: #000000; stroke-width: 1.0;"/><text fill="#000000" font-family="Roboto Slab" font-size="12" font-weight="bold" lengthAdjust="spacingAndGlyphs" textLength="14" x="1385.55" y="207.4199">-h</text><text fill="#000000" font-family="Roboto Slab" font-size="12" font-weight="bold" lengthAdjust="spacingAndGlyphs" textLength="40" x="1372.55" y="221.3887">--help</text><path d="M921.828,143.6343 C1031.66,150.0823 1243.58,165.3993 1421.55,195.2813 C1532,213.8273 1557.95,226.8873 1666.55,254.2813 C1670.65,255.3153 1674.85,256.3853 1679.08,257.4743 " fill="none" style="stroke: #000000; stroke-width: 1.0;"/><polygon fill="#000000" points="1684.07,258.7593,1676.3473,252.647,1679.227,257.516,1674.3581,260.3958,1684.07,258.7593" style="stroke: #000000; stroke-width: 1.0;"/><text fill="#000000" font-family="Roboto Slab" font-size="12" font-weight="bold" lengthAdjust="spacingAndGlyphs" textLength="13" x="1578.05" y="207.4199">-v</text><text fill="#000000" font-family="Roboto Slab" font-size="12" font-weight="bold" lengthAdjust="spacingAndGlyphs" textLength="60" x="1554.55" y="221.3887">--version</text><path d="M434.014,304.4493 C397.914,324.3523 345.145,353.1233 298.546,377.2813 C280.894,386.4323 261.484,396.1563 243.995,404.7943 " fill="none" style="stroke: #000000; stroke-width: 1.0;"/><polygon fill="#000000" points="239.116,407.2003,248.957,406.8071,243.6004,404.9888,245.4187,399.6321,239.116,407.2003" style="stroke: #000000; stroke-width: 1.0;"/><text fill="#000000" font-family="Roboto Slab" font-size="12" font-weight="bold" lengthAdjust="spacingAndGlyphs" textLength="72" x="378.546" y="346.4199">missing -G</text><text fill="#000000" font-family="Roboto Slab" font-size="12" font-weight="bold" lengthAdjust="spacingAndGlyphs" textLength="14" x="407.546" y="360.3887">or</text><text fill="#000000" font-family="Roboto Slab" font-size="12" font-weight="bold" lengthAdjust="spacingAndGlyphs" textLength="66" x="381.546" y="374.3574">missing -l</text><path d="M189.546,457.4886 C189.546,475.1236 189.546,498.4074 189.546,513.1164 " fill="none" style="stroke: #000000; stroke-width: 1.0;"/><polygon fill="#000000" points="189.546,518.1212,193.546,509.1212,189.546,513.1212,185.546,509.1212,189.546,518.1212" style="stroke: #000000; stroke-width: 1.0;"/></g></svg>