<?xml version="1.0" encoding="UTF-8" standalone="no"?><svg xmlns="http://www.w3.org/2000/svg" xmlns:xlink="http://www.w3.org/1999/xlink" contentScriptType="application/ecmascript" contentStyleType="text/css" height="597px" preserveAspectRatio="none" style="width:1502px;height:597px;" version="1.1" viewBox="0 0 1502 597" width="1502px" zoomAndPan="magnify"><defs><linearGradient id="g1b6itd9vmhvmb0" x1="0%" x2="100%" y1="50%" y2="50%"><stop offset="0%" stop-color="#FFFFFF"/><stop offset="100%" stop-color="#FFFFFF"/></linearGradient><filter height="300%" id="f1b6itd9vmhvmb" width="300%" x="-1" y="-1"><feGaussianBlur result="blurOut" stdDeviation="2.0"/><feColorMatrix in="blurOut" result="blurOut2" type="matrix" values="0 0 0 0 0 0 0 0 0 0 0 0 0 0 0 0 0 0 .4 0"/><feOffset dx="4.0" dy="4.0" in="blurOut2" result="blurOut3"/><feBlend in="SourceGraphic" in2="blurOut3" mode="normal"/></filter></defs><g><rect fill="url(#g1b6itd9vmhvmb0)" height="597" style="stroke: none; stroke-width: 1.0;" width="1502" x="0" y="0"/><text fill="#000000" font-family="Roboto Condensed" font-size="18" font-weight="bold" lengthAdjust="spacingAndGlyphs" textLength="271" x="619" y="16.6992">Nuspell - Command-line Arguments</text><ellipse cx="677.6393" cy="39.0938" fill="#000000" filter="url(#f1b6itd9vmhvmb)" rx="10" ry="10" style="stroke: none; stroke-width: 1.0;"/><rect fill="#FFFFFF" filter="url(#f1b6itd9vmhvmb)" height="50" rx="12.5" ry="12.5" style="stroke: #000000; stroke-width: 1.5;" width="112" x="621.6393" y="110.0938"/><line style="stroke: #000000; stroke-width: 1.5;" x1="621.6393" x2="733.6393" y1="136.5" y2="136.5"/><text fill="#000000" font-family="Roboto Condensed" font-size="14" lengthAdjust="spacingAndGlyphs" textLength="92" x="631.6393" y="128.082">DEFAULT_MODE</text><ellipse cx="576.6393" cy="576.0938" fill="none" filter="url(#f1b6itd9vmhvmb)" rx="10" ry="10" style="stroke: #000000; stroke-width: 1.0;"/><ellipse cx="577.1393" cy="576.5938" fill="#000000" rx="6" ry="6" style="stroke: none; stroke-width: 1.0;"/><rect fill="#FFFFFF" filter="url(#f1b6itd9vmhvmb)" height="50" rx="12.5" ry="12.5" style="stroke: #000000; stroke-width: 1.5;" width="140" x="35.6393" y="273.5938"/><line style="stroke: #000000; stroke-width: 1.5;" x1="35.6393" x2="175.6393" y1="300" y2="300"/><text fill="#000000" font-family="Roboto Condensed" font-size="14" lengthAdjust="spacingAndGlyphs" textLength="120" x="45.6393" y="291.582">NO_SUGGEST_MODE</text><rect fill="#FFFFFF" filter="url(#f1b6itd9vmhvmb)" height="50" rx="12.5" ry="12.5" style="stroke: #000000; stroke-width: 1.5;" width="232" x="111.6393" y="455.0938"/><line style="stroke: #000000; stroke-width: 1.5;" x1="111.6393" x2="343.6393" y1="481.5" y2="481.5"/><text fill="#000000" font-family="Roboto Condensed" font-size="14" lengthAdjust="spacingAndGlyphs" textLength="212" x="121.6393" y="473.082">CRUDE_PARSE_NO_SUGGEST_MODE</text><rect fill="#FFFFFF" filter="url(#f1b6itd9vmhvmb)" height="50" rx="12.5" ry="12.5" style="stroke: #000000; stroke-width: 1.5;" width="146" x="210.6393" y="273.5938"/><line style="stroke: #000000; stroke-width: 1.5;" x1="210.6393" x2="356.6393" y1="300" y2="300"/><text fill="#000000" font-family="Roboto Condensed" font-size="14" lengthAdjust="spacingAndGlyphs" textLength="126" x="220.6393" y="291.582">CRUDE_PARSE_MODE</text><rect fill="#FFFFFF" filter="url(#f1b6itd9vmhvmb)" height="50" rx="12.5" ry="12.5" style="stroke: #000000; stroke-width: 1.5;" width="174" x="344.6393" y="375.0938"/><line style="stroke: #000000; stroke-width: 1.5;" x1="344.6393" x2="518.6393" y1="401.5" y2="401.5"/><text fill="#000000" font-family="Roboto Condensed" font-size="14" lengthAdjust="spacingAndGlyphs" textLength="154" x="354.6393" y="393.082">LIST_DICTIONARIES_MODE</text><rect fill="#FFFFFF" filter="url(#f1b6itd9vmhvmb)" height="50" rx="12.5" ry="12.5" style="stroke: #000000; stroke-width: 1.5;" width="168" x="462.6393" y="273.5938"/><line style="stroke: #000000; stroke-width: 1.5;" x1="462.6393" x2="630.6393" y1="300" y2="300"/><text fill="#000000" font-family="Roboto Condensed" font-size="14" lengthAdjust="spacingAndGlyphs" textLength="148" x="472.6393" y="291.582">CORRECT_WORDS_MODE</text><rect fill="#FFFFFF" filter="url(#f1b6itd9vmhvmb)" height="50" rx="12.5" ry="12.5" style="stroke: #000000; stroke-width: 1.5;" width="156" x="665.6393" y="455.0938"/><line style="stroke: #000000; stroke-width: 1.5;" x1="665.6393" x2="821.6393" y1="481.5" y2="481.5"/><text fill="#000000" font-family="Roboto Condensed" font-size="14" lengthAdjust="spacingAndGlyphs" textLength="136" x="675.6393" y="473.082">CORRECT_LINES_MODE</text><rect fill="#FFFFFF" filter="url(#f1b6itd9vmhvmb)" height="50" rx="12.5" ry="12.5" style="stroke: #000000; stroke-width: 1.5;" width="183" x="666.1393" y="273.5938"/><line style="stroke: #000000; stroke-width: 1.5;" x1="666.1393" x2="849.1393" y1="300" y2="300"/><text fill="#000000" font-family="Roboto Condensed" font-size="14" lengthAdjust="spacingAndGlyphs" textLength="163" x="676.1393" y="291.582">MISSPELLED_WORDS_MODE</text><rect fill="#FFFFFF" filter="url(#f1b6itd9vmhvmb)" height="50" rx="12.5" ry="12.5" style="stroke: #000000; stroke-width: 1.5;" width="171" x="857.1393" y="455.0938"/><line style="stroke: #000000; stroke-width: 1.5;" x1="857.1393" x2="1028.1393" y1="481.5" y2="481.5"/><text fill="#000000" font-family="Roboto Condensed" font-size="14" lengthAdjust="spacingAndGlyphs" textLength="151" x="867.1393" y="473.082">MISSPELLED_LINES_MODE</text><rect fill="#FFFFFF" filter="url(#f1b6itd9vmhvmb)" height="50.4688" rx="12.5" ry="12.5" style="stroke: #000000; stroke-width: 1.5;" width="130" x="884.6393" y="273.5938"/><line style="stroke: #000000; stroke-width: 1.5;" x1="884.6393" x2="1014.6393" y1="300" y2="300"/><text fill="#000000" font-family="Roboto Condensed" font-size="14" lengthAdjust="spacingAndGlyphs" textLength="73" x="913.1393" y="291.582">LINES_MODE</text><text fill="#000000" font-family="Roboto Condensed" font-size="12" lengthAdjust="spacingAndGlyphs" textLength="110" x="889.6393" y="316.1328">is intermediate mode</text><rect fill="#FFFFFF" filter="url(#f1b6itd9vmhvmb)" height="50.4688" rx="12.5" ry="12.5" style="stroke: #000000; stroke-width: 1.5;" width="131" x="1063.1393" y="455.0938"/><line style="stroke: #000000; stroke-width: 1.5;" x1="1063.1393" x2="1194.1393" y1="481.5" y2="481.5"/><text fill="#000000" font-family="Roboto Condensed" font-size="14" lengthAdjust="spacingAndGlyphs" textLength="81" x="1088.1393" y="473.082">ERROR_MODE</text><text fill="#000000" font-family="Roboto Condensed" font-size="12" lengthAdjust="spacingAndGlyphs" textLength="111" x="1068.1393" y="497.6328">returns exit code of 1</text><rect fill="#FFFFFF" filter="url(#f1b6itd9vmhvmb)" height="50" rx="12.5" ry="12.5" style="stroke: #000000; stroke-width: 1.5;" width="90" x="1233.6393" y="375.0938"/><line style="stroke: #000000; stroke-width: 1.5;" x1="1233.6393" x2="1323.6393" y1="401.5" y2="401.5"/><text fill="#000000" font-family="Roboto Condensed" font-size="14" lengthAdjust="spacingAndGlyphs" textLength="70" x="1243.6393" y="393.082">HELP_MODE</text><rect fill="#FFFFFF" filter="url(#f1b6itd9vmhvmb)" height="50" rx="12.5" ry="12.5" style="stroke: #000000; stroke-width: 1.5;" width="112" x="1378.6393" y="375.0938"/><line style="stroke: #000000; stroke-width: 1.5;" x1="1378.6393" x2="1490.6393" y1="401.5" y2="401.5"/><text fill="#000000" font-family="Roboto Condensed" font-size="14" lengthAdjust="spacingAndGlyphs" textLength="92" x="1388.6393" y="393.082">VERSION_MODE</text><!--link *start to DEFAULT_MODE--><path d="M677.6393,49.3674 C677.6393,62.4546 677.6393,85.6493 677.6393,104.6144 " fill="none" id="*start-DEFAULT_MODE" style="stroke: #000000; stroke-width: 1.0;"/><polygon fill="#000000" points="677.6393,109.8395,681.6393,100.8395,677.6393,104.8395,673.6393,100.8395,677.6393,109.8395" style="stroke: #000000; stroke-width: 1.0;"/><!--link DEFAULT_MODE to DEFAULT_MODE--><path d="M734.0693,124.9694 C753.2347,124.9162 768.6393,128.291 768.6393,135.0938 C768.6393,141.2588 755.9877,144.6083 739.3508,145.1427 " fill="none" id="DEFAULT_MODE-DEFAULT_MODE" style="stroke: #000000; stroke-width: 1.0;"/><polygon fill="#000000" points="734.0693,145.2181,743.1256,149.0889,739.0688,145.1466,743.0111,141.0897,734.0693,145.2181" style="stroke: #000000; stroke-width: 1.0;"/><text fill="#000000" font-family="Roboto Condensed" font-size="13" lengthAdjust="spacingAndGlyphs" textLength="84" x="774.6393" y="132.1543">-d with operand</text><text fill="#000000" font-family="Roboto Condensed" font-size="13" lengthAdjust="spacingAndGlyphs" textLength="80" x="774.6393" y="147.3887">-i with operand</text><!--link DEFAULT_MODE to *end--><path d="M621.5446,138.6405 C534.8305,144.8406 363.3338,159.9633 220.6393,190.0938 C128.3381,209.5836 73.7636,176.2688 17.6393,252.0938 C-24.2516,308.6892 63.8399,504.3218 64.6393,505.0938 C101.4391,540.6308 478.9038,569.1916 560.9542,575.0088 " fill="none" id="DEFAULT_MODE-*end" style="stroke: #000000; stroke-width: 1.0;"/><polygon fill="#000000" points="566.3426,575.3881,557.6457,570.7659,561.3549,575.0369,557.0839,578.7461,566.3426,575.3881" style="stroke: #000000; stroke-width: 1.0;"/><!--link DEFAULT_MODE to NO_SUGGEST_MODE--><path d="M621.5472,136.9674 C546.5843,140.8777 410.4403,152.9364 300.6393,190.0938 C243.5116,209.4262 183.7553,245.3676 145.6917,270.5697 " fill="none" id="DEFAULT_MODE-NO_SUGGEST_MODE" style="stroke: #000000; stroke-width: 1.0;"/><polygon fill="#000000" points="141.159,273.5881,150.8672,271.9293,145.3208,270.8168,146.4332,265.2704,141.159,273.5881" style="stroke: #000000; stroke-width: 1.0;"/><text fill="#000000" font-family="Roboto Condensed" font-size="13" lengthAdjust="spacingAndGlyphs" textLength="11" x="301.6393" y="210.6543">-U</text><!--link NO_SUGGEST_MODE to *end--><path d="M94.2078,323.7486 C76.6663,366.5841 49.5082,454.0012 93.6393,505.0938 C125.1545,541.5804 482.2211,569.2973 561.2257,575.0092 " fill="none" id="NO_SUGGEST_MODE-*end" style="stroke: #000000; stroke-width: 1.0;"/><polygon fill="#000000" points="566.4252,575.3822,557.7346,570.7483,561.438,575.0243,557.162,578.7277,566.4252,575.3822" style="stroke: #000000; stroke-width: 1.0;"/><!--link NO_SUGGEST_MODE to CRUDE_PARSE_NO_SUGGEST_MODE--><path d="M122.6029,323.8306 C145.0008,357.1522 184.3594,415.7061 208.015,450.8986 " fill="none" id="NO_SUGGEST_MODE-CRUDE_PARSE_NO_SUGGEST_MODE" style="stroke: #000000; stroke-width: 1.0;"/><polygon fill="#000000" points="210.8198,455.0712,209.1187,445.3704,208.0305,450.9216,202.4793,449.8334,210.8198,455.0712" style="stroke: #000000; stroke-width: 1.0;"/><text fill="#000000" font-family="Roboto Condensed" font-size="13" lengthAdjust="spacingAndGlyphs" textLength="11" x="189.6393" y="404.6543">-C</text><!--link DEFAULT_MODE to CRUDE_PARSE_MODE--><path d="M621.6056,139.1703 C540.8618,145.9438 396.7448,161.6678 353.6393,190.0938 C325.2174,208.8367 305.8816,243.5283 294.8543,268.6484 " fill="none" id="DEFAULT_MODE-CRUDE_PARSE_MODE" style="stroke: #000000; stroke-width: 1.0;"/><polygon fill="#000000" points="292.7595,273.5372,299.9809,266.84,294.7288,268.9413,292.6275,263.6892,292.7595,273.5372" style="stroke: #000000; stroke-width: 1.0;"/><text fill="#000000" font-family="Roboto Condensed" font-size="13" lengthAdjust="spacingAndGlyphs" textLength="11" x="354.6393" y="210.6543">-C</text><!--link CRUDE_PARSE_MODE to *end--><path d="M291.5084,323.9328 C300.8201,351.0453 318.3243,394.3003 343.6393,425.0938 C407.5043,502.78 522.0267,554.1331 562.22,570.477 " fill="none" id="CRUDE_PARSE_MODE-*end" style="stroke: #000000; stroke-width: 1.0;"/><polygon fill="#000000" points="567.173,572.466,560.3119,565.4002,562.5332,570.6027,557.3306,572.8239,567.173,572.466" style="stroke: #000000; stroke-width: 1.0;"/><!--link CRUDE_PARSE_MODE to CRUDE_PARSE_NO_SUGGEST_MODE--><path d="M275.8528,323.8306 C265.6553,356.8812 247.7987,414.7557 236.9134,450.0357 " fill="none" id="CRUDE_PARSE_MODE-CRUDE_PARSE_NO_SUGGEST_MODE" style="stroke: #000000; stroke-width: 1.0;"/><polygon fill="#000000" points="235.3597,455.0712,241.8354,447.6506,236.8339,450.2935,234.191,445.292,235.3597,455.0712" style="stroke: #000000; stroke-width: 1.0;"/><text fill="#000000" font-family="Roboto Condensed" font-size="13" lengthAdjust="spacingAndGlyphs" textLength="11" x="260.6393" y="404.6543">-U</text><!--link CRUDE_PARSE_NO_SUGGEST_MODE to *end--><path d="M284.5657,505.131 C310.4527,515.7995 341.7055,527.6948 370.6393,536.0938 C440.7142,556.4355 527.2322,569.4317 561.5719,574.1251 " fill="none" id="CRUDE_PARSE_NO_SUGGEST_MODE-*end" style="stroke: #000000; stroke-width: 1.0;"/><polygon fill="#000000" points="566.6247,574.8069,558.2405,569.6391,561.6696,574.1381,557.1706,577.5672,566.6247,574.8069" style="stroke: #000000; stroke-width: 1.0;"/><!--link DEFAULT_MODE to LIST_DICTIONARIES_MODE--><path d="M621.5949,146.6998 C566.6747,161.2621 485.452,191.9908 444.6393,252.0938 C420.9135,287.0338 422.2199,337.8248 426.2431,369.8959 " fill="none" id="DEFAULT_MODE-LIST_DICTIONARIES_MODE" style="stroke: #000000; stroke-width: 1.0;"/><polygon fill="#000000" points="426.9087,374.8771,429.6813,365.4265,426.2464,369.9211,421.7518,366.4862,426.9087,374.8771" style="stroke: #000000; stroke-width: 1.0;"/><text fill="#000000" font-family="Roboto Condensed" font-size="13" lengthAdjust="spacingAndGlyphs" textLength="11" x="512.6393" y="210.6543">-D</text><!--link LIST_DICTIONARIES_MODE to *end--><path d="M442.9404,425.1527 C456.9529,454.2667 483.025,502.5833 515.6393,536.0938 C529.6419,550.4811 549.6946,562.3888 562.9344,569.3707 " fill="none" id="LIST_DICTIONARIES_MODE-*end" style="stroke: #000000; stroke-width: 1.0;"/><polygon fill="#000000" points="567.4801,571.7155,561.3152,564.0347,563.0364,569.4233,557.6478,571.1446,567.4801,571.7155" style="stroke: #000000; stroke-width: 1.0;"/><!--link DEFAULT_MODE to CORRECT_WORDS_MODE--><path d="M657.4577,160.2824 C633.8981,189.6868 594.9958,238.2405 570.1086,269.3019 " fill="none" id="DEFAULT_MODE-CORRECT_WORDS_MODE" style="stroke: #000000; stroke-width: 1.0;"/><polygon fill="#000000" points="566.8439,273.3766,575.593,268.8541,569.9703,269.4746,569.3499,263.8518,566.8439,273.3766" style="stroke: #000000; stroke-width: 1.0;"/><text fill="#000000" font-family="Roboto Condensed" font-size="13" lengthAdjust="spacingAndGlyphs" textLength="11" x="632.6393" y="210.6543">-G</text><!--link CORRECT_WORDS_MODE to CORRECT_LINES_MODE--><path d="M574.0313,323.8306 C610.3455,357.2876 674.2701,416.1826 712.4155,451.3267 " fill="none" id="CORRECT_WORDS_MODE-CORRECT_LINES_MODE" style="stroke: #000000; stroke-width: 1.0;"/><polygon fill="#000000" points="716.4799,455.0712,712.5714,446.0311,712.8028,451.6832,707.1506,451.9146,716.4799,455.0712" style="stroke: #000000; stroke-width: 1.0;"/><text fill="#000000" font-family="Roboto Condensed" font-size="13" lengthAdjust="spacingAndGlyphs" textLength="9" x="681.6393" y="404.6543">-L</text><!--link CORRECT_WORDS_MODE to *end--><path d="M549.3545,323.7095 C555.4529,380.1196 570.0861,515.4769 574.9991,560.9221 " fill="none" id="CORRECT_WORDS_MODE-*end" style="stroke: #000000; stroke-width: 1.0;"/><polygon fill="#000000" points="575.5489,566.0072,578.5583,556.6293,575.0115,561.0361,570.6047,557.4892,575.5489,566.0072" style="stroke: #000000; stroke-width: 1.0;"/><!--link CORRECT_LINES_MODE to *end--><path d="M699.762,505.3167 C663.3125,526.2697 613.7496,554.7609 590.1738,568.3135 " fill="none" id="CORRECT_LINES_MODE-*end" style="stroke: #000000; stroke-width: 1.0;"/><polygon fill="#000000" points="585.5515,570.9706,595.3477,569.9531,589.8863,568.4787,591.3607,563.0174,585.5515,570.9706" style="stroke: #000000; stroke-width: 1.0;"/><!--link DEFAULT_MODE to MISSPELLED_WORDS_MODE--><path d="M689.964,160.2824 C704.234,189.4468 727.7214,237.449 742.933,268.5378 " fill="none" id="DEFAULT_MODE-MISSPELLED_WORDS_MODE" style="stroke: #000000; stroke-width: 1.0;"/><polygon fill="#000000" points="745.3006,273.3766,744.938,263.5344,743.1031,268.8854,737.7521,267.0504,745.3006,273.3766" style="stroke: #000000; stroke-width: 1.0;"/><text fill="#000000" font-family="Roboto Condensed" font-size="13" lengthAdjust="spacingAndGlyphs" textLength="6" x="721.6393" y="210.6543">-l</text><!--link MISSPELLED_WORDS_MODE to MISSPELLED_LINES_MODE--><path d="M759.8953,323.6934 C763.6978,351.8214 773.8273,397.1352 800.6393,425.0938 C814.725,439.7818 833.1787,450.6096 852.1,458.5706 " fill="none" id="MISSPELLED_WORDS_MODE-MISSPELLED_LINES_MODE" style="stroke: #000000; stroke-width: 1.0;"/><polygon fill="#000000" points="856.9182,460.5334,850.0924,453.4334,852.2877,458.647,847.0742,460.8422,856.9182,460.5334" style="stroke: #000000; stroke-width: 1.0;"/><text fill="#000000" font-family="Roboto Condensed" font-size="13" lengthAdjust="spacingAndGlyphs" textLength="9" x="801.6393" y="404.6543">-L</text><!--link MISSPELLED_LINES_MODE to *end--><path d="M856.8286,502.6015 C767.6971,525.9803 635.2327,560.725 591.3495,572.2354 " fill="none" id="MISSPELLED_LINES_MODE-*end" style="stroke: #000000; stroke-width: 1.0;"/><polygon fill="#000000" points="586.4459,573.5216,596.1663,575.1073,591.2823,572.253,594.1366,567.369,586.4459,573.5216" style="stroke: #000000; stroke-width: 1.0;"/><!--link MISSPELLED_WORDS_MODE to *end--><path d="M739.0793,323.637 C716.6691,354.179 678.1838,407.6124 647.6393,455.0938 C623.035,493.3411 596.5513,540.1653 584.0189,562.708 " fill="none" id="MISSPELLED_WORDS_MODE-*end" style="stroke: #000000; stroke-width: 1.0;"/><polygon fill="#000000" points="581.562,567.138,589.425,561.2072,583.9869,562.7653,582.4288,557.3273,581.562,567.138" style="stroke: #000000; stroke-width: 1.0;"/><!--link DEFAULT_MODE to LINES_MODE--><path d="M719.2463,160.1039 C768.9403,189.9751 851.8127,239.7899 903.4487,270.8285 " fill="none" id="DEFAULT_MODE-LINES_MODE" style="stroke: #000000; stroke-width: 1.0;"/><polygon fill="#000000" points="908.0369,273.5865,902.384,265.5214,903.7515,271.0105,898.2625,272.378,908.0369,273.5865" style="stroke: #000000; stroke-width: 1.0;"/><text fill="#000000" font-family="Roboto Condensed" font-size="13" lengthAdjust="spacingAndGlyphs" textLength="9" x="823.6393" y="210.6543">-L</text><!--link LINES_MODE to CORRECT_LINES_MODE--><path d="M924.6799,323.6587 C898.3007,349.787 855.1299,391.5282 815.6393,425.0938 C804.9649,434.1667 793.0032,443.5836 781.942,452.0069 " fill="none" id="LINES_MODE-CORRECT_LINES_MODE" style="stroke: #000000; stroke-width: 1.0;"/><polygon fill="#000000" points="777.9115,455.0629,787.4999,452.8127,781.8958,452.042,782.6665,446.4379,777.9115,455.0629" style="stroke: #000000; stroke-width: 1.0;"/><text fill="#000000" font-family="Roboto Condensed" font-size="13" lengthAdjust="spacingAndGlyphs" textLength="11" x="869.6393" y="404.6543">-G</text><!--link LINES_MODE to MISSPELLED_LINES_MODE--><path d="M948.1744,323.739 C947.3425,338.6604 946.3323,357.9516 945.6393,375.0938 C944.6207,400.291 943.8272,428.9034 943.3128,449.8896 " fill="none" id="LINES_MODE-MISSPELLED_LINES_MODE" style="stroke: #000000; stroke-width: 1.0;"/><polygon fill="#000000" points="943.1881,455.054,947.4045,446.1533,943.309,450.0554,939.4068,445.9599,943.1881,455.054" style="stroke: #000000; stroke-width: 1.0;"/><text fill="#000000" font-family="Roboto Condensed" font-size="13" lengthAdjust="spacingAndGlyphs" textLength="6" x="946.6393" y="404.6543">-l</text><!--link LINES_MODE to ERROR_MODE--><path d="M953.6419,323.8383 C959.309,351.8861 972.2088,396.9235 999.6393,425.0938 C1008.7935,434.4948 1033.1092,445.73 1058.1957,455.5882 " fill="none" id="LINES_MODE-ERROR_MODE" style="stroke: #000000; stroke-width: 1.0;"/><polygon fill="#000000" points="1062.8854,457.4121,1055.9475,450.4217,1058.2255,455.5996,1053.0476,457.8776,1062.8854,457.4121" style="stroke: #000000; stroke-width: 1.0;"/><text fill="#000000" font-family="Roboto Condensed" font-size="13" lengthAdjust="spacingAndGlyphs" textLength="57" x="1000.6393" y="397.1543">missing -G</text><text fill="#000000" font-family="Roboto Condensed" font-size="13" lengthAdjust="spacingAndGlyphs" textLength="52" x="1000.6393" y="412.3887">missing -l</text><!--link DEFAULT_MODE to HELP_MODE--><path d="M733.7883,139.5025 C816.7816,146.6321 976.8196,162.7281 1110.6393,190.0938 C1209.3281,210.2754 1267.9307,171.712 1328.6393,252.0938 C1353.5501,285.0771 1343.544,306.5413 1328.6393,345.0938 C1324.9603,354.6101 1318.7846,363.4942 1312.0054,371.2292 " fill="none" id="DEFAULT_MODE-HELP_MODE" style="stroke: #000000; stroke-width: 1.0;"/><polygon fill="#000000" points="1308.6372,374.9317,1317.6523,370.966,1312.0018,371.2332,1311.7346,365.5826,1308.6372,374.9317" style="stroke: #000000; stroke-width: 1.0;"/><text fill="#000000" font-family="Roboto Condensed" font-size="13" lengthAdjust="spacingAndGlyphs" textLength="10" x="1298.6393" y="203.1543">-h</text><text fill="#000000" font-family="Roboto Condensed" font-size="13" lengthAdjust="spacingAndGlyphs" textLength="30" x="1298.6393" y="218.3887">--help</text><!--link HELP_MODE to *end--><path d="M1270.0157,425.1362 C1260.0716,449.9022 1241.1901,486.6865 1211.6393,505.0938 C1157.226,538.9882 683.3302,569.5615 591.8777,575.1755 " fill="none" id="HELP_MODE-*end" style="stroke: #000000; stroke-width: 1.0;"/><polygon fill="#000000" points="586.6437,575.4951,595.8708,578.9389,591.6344,575.1902,595.3831,570.9538,586.6437,575.4951" style="stroke: #000000; stroke-width: 1.0;"/><!--link DEFAULT_MODE to VERSION_MODE--><path d="M733.6521,136.5617 C884.0533,140.9473 1288.6831,155.8327 1337.6393,190.0938 C1398.2741,232.5281 1421.8771,322.6914 1430.3428,369.8773 " fill="none" id="DEFAULT_MODE-VERSION_MODE" style="stroke: #000000; stroke-width: 1.0;"/><polygon fill="#000000" points="1431.209,374.8597,1433.6081,365.3074,1430.3524,369.9336,1425.7263,366.6779,1431.209,374.8597" style="stroke: #000000; stroke-width: 1.0;"/><text fill="#000000" font-family="Roboto Condensed" font-size="13" lengthAdjust="spacingAndGlyphs" textLength="9" x="1370.6393" y="203.1543">-v</text><text fill="#000000" font-family="Roboto Condensed" font-size="13" lengthAdjust="spacingAndGlyphs" textLength="46" x="1370.6393" y="218.3887">--version</text><!--link VERSION_MODE to *end--><path d="M1401.3469,425.1556 C1367.4707,449.3905 1312.5618,485.2723 1259.6393,505.0938 C1131.1504,553.2177 681.5442,572.2016 592.1595,575.5414 " fill="none" id="VERSION_MODE-*end" style="stroke: #000000; stroke-width: 1.0;"/><polygon fill="#000000" points="587.0251,575.7307,596.1664,579.3962,592.0217,575.5464,595.8716,571.4017,587.0251,575.7307" style="stroke: #000000; stroke-width: 1.0;"/><!--link DEFAULT_MODE to ERROR_MODE--><path d="M733.8823,139.479 C810.3802,148.2813 947.3343,174.5138 1031.6393,252.0938 C1062.0584,280.0863 1101.4773,394.5628 1119.236,449.8842 " fill="none" id="DEFAULT_MODE-ERROR_MODE" style="stroke: #000000; stroke-width: 1.0;"/><polygon fill="#000000" points="1120.7839,454.7275,1121.8539,444.9369,1119.2616,449.9648,1114.2337,447.3725,1120.7839,454.7275" style="stroke: #000000; stroke-width: 1.0;"/><text fill="#000000" font-family="Roboto Condensed" font-size="13" lengthAdjust="spacingAndGlyphs" textLength="191" x="1083.6393" y="265.1543">arguments -d or -i without operand,</text><text fill="#000000" font-family="Roboto Condensed" font-size="13" lengthAdjust="spacingAndGlyphs" textLength="128" x="1083.6393" y="280.3887">unsupported operands,</text><text fill="#000000" font-family="Roboto Condensed" font-size="13" lengthAdjust="spacingAndGlyphs" textLength="197" x="1083.6393" y="295.623">invalid (combination of) arguments,</text><text fill="#000000" font-family="Roboto Condensed" font-size="13" lengthAdjust="spacingAndGlyphs" textLength="229" x="1083.6393" y="310.8574">arguments out of scope -1 -H -m -O -P -t -X,</text><text fill="#000000" font-family="Roboto Condensed" font-size="13" lengthAdjust="spacingAndGlyphs" textLength="234" x="1083.6393" y="326.0918">arguments to be implemented -a -m -r -s -w</text><text fill="#000000" font-family="Roboto Condensed" font-size="13" lengthAdjust="spacingAndGlyphs" textLength="178" x="1089.6393" y="341.3262">-vv -check-apostrophe -check-url</text><!--link ERROR_MODE to *end--><path d="M1062.72,500.8728 C1056.97,502.4041 1051.2184,503.838 1045.6393,505.0938 C869.3532,544.7747 650.7122,568.5933 591.8309,574.5898 " fill="none" id="ERROR_MODE-*end" style="stroke: #000000; stroke-width: 1.0;"/><polygon fill="#000000" points="586.6383,575.1144,595.9949,578.1892,591.613,574.6116,595.1905,570.2297,586.6383,575.1144" style="stroke: #000000; stroke-width: 1.0;"/><!--
@startuml
skinparam BackgroundColor White|White
skinparam ArrowColor Black
skinparam DefaultFontName Roboto Condensed
skinparam TitleFontStyle Bold

skinparam NoteBackgroundColor White
skinparam NoteBorderColor Black

skinparam UsecaseBackgroundColor White
skinparam ActorBackgroundColor White
skinparam UsecaseBorderColor Black
skinparam ActorBorderColor Black

skinparam usecase {
	BackgroundColor<<for now out of scope>> Gray
}

skinparam StateBackgroundColor White
skinparam StateBorderColor Black

skinparam ActivityBackgroundColor White
skinparam ActivityDiamondBackgroundColor White
skinparam ActivityBorderColor Black
skinparam ActivityDiamondBorderColor Black

skinparam ClassBackgroundColor White
skinparam ClassBorderColor Black
hide empty members

title Nuspell - Command-line Arguments

[*] - -> DEFAULT_MODE

DEFAULT_MODE - -> DEFAULT_MODE : -d with operand\l-i with operand
DEFAULT_MODE - -> [*]

DEFAULT_MODE - -> NO_SUGGEST_MODE : -U
NO_SUGGEST_MODE - -> [*]
NO_SUGGEST_MODE - -> CRUDE_PARSE_NO_SUGGEST_MODE : -C

DEFAULT_MODE - -> CRUDE_PARSE_MODE : -C
CRUDE_PARSE_MODE - -> [*]
CRUDE_PARSE_MODE - -> CRUDE_PARSE_NO_SUGGEST_MODE : -U
CRUDE_PARSE_NO_SUGGEST_MODE - -> [*]

DEFAULT_MODE - -> LIST_DICTIONARIES_MODE : -D
LIST_DICTIONARIES_MODE - -> [*]

DEFAULT_MODE - -> CORRECT_WORDS_MODE : -G
CORRECT_WORDS_MODE - -> CORRECT_LINES_MODE : -L
CORRECT_WORDS_MODE - -> [*]
CORRECT_LINES_MODE - -> [*]

DEFAULT_MODE - -> MISSPELLED_WORDS_MODE : -l
MISSPELLED_WORDS_MODE - -> MISSPELLED_LINES_MODE : -L
MISSPELLED_LINES_MODE - -> [*]
MISSPELLED_WORDS_MODE - -> [*]

DEFAULT_MODE - -> LINES_MODE : -L
LINES_MODE : is intermediate mode
LINES_MODE - -> CORRECT_LINES_MODE : -G
LINES_MODE - -> MISSPELLED_LINES_MODE : -l
LINES_MODE - -> ERROR_MODE : missing -G\lmissing -l

DEFAULT_MODE - -> HELP_MODE : -h\l- -help
HELP_MODE - -> [*]

DEFAULT_MODE - -> VERSION_MODE : -v\l- -version
VERSION_MODE - -> [*]

DEFAULT_MODE - -> ERROR_MODE : arguments -d or -i without operand,\lunsupported operands,\linvalid (combination of) arguments,\larguments out of scope -1 -H -m -O -P -t -X,\larguments to be implemented -a -m -r -s -w\l  -vv -check-apostrophe -check-url
ERROR_MODE - -> [*]
ERROR_MODE : returns exit code of 1

@enduml

PlantUML version 1.2018.12beta1(Unknown compile time)
(GPL source distribution)
Java Runtime: OpenJDK Runtime Environment
JVM: OpenJDK 64-Bit Server VM
Java Version: 10.0.2+13-Ubuntu-1ubuntu0.18.04.2
Operating System: Linux
OS Version: 4.15.0-34-generic
Default Encoding: UTF-8
Language: en
Country: US
--></g></svg>