<?xml version="1.0" encoding="UTF-8" standalone="yes"?><svg xmlns="http://www.w3.org/2000/svg" xmlns:xlink="http://www.w3.org/1999/xlink" height="184px" style="width:1142px;height:184px;" version="1.1" viewBox="0 0 1142 184" width="1142px"><defs><linearGradient id="gr0" x1="0%" x2="100%" y1="50%" y2="50%"><stop offset="0%" stop-color="#FFFFFF"/><stop offset="100%" stop-color="#FFFFFF"/></linearGradient><filter height="300%" id="f1" width="300%" x="-1" y="-1"><feGaussianBlur result="blurOut" stdDeviation="2.0"/><feColorMatrix in="blurOut" result="blurOut2" type="matrix" values="0 0 0 0 0 0 0 0 0 0 0 0 0 0 0 0 0 0 .4 0"/><feOffset dx="4.0" dy="4.0" in="blurOut2" result="blurOut3"/><feBlend in="SourceGraphic" in2="blurOut3" mode="normal"/></filter></defs><g><rect fill="url(#gr0)" height="184" style="stroke: none; stroke-width: 1.0;" width="1142" x="0" y="0"/><text fill="#000000" font-family="sans-serif" font-size="18" lengthAdjust="spacingAndGlyphs" textLength="256" x="448" y="16.708">Hunspell - Info Options (info)</text><ellipse cx="599" cy="38.9531" fill="#000000" filter="url(#f1)" rx="10" ry="10" style="stroke: none; stroke-width: 1.0;"/><rect fill="#FEFECE" filter="url(#f1)" height="50" rx="12.5" ry="12.5" style="stroke: #A80036; stroke-width: 1.5;" width="152" x="6" y="125.9531"/><line style="stroke: #A80036; stroke-width: 1.5;" x1="6" x2="158" y1="152.25" y2="152.25"/><text fill="#000000" font-family="sans-serif" font-size="14" lengthAdjust="spacingAndGlyphs" textLength="132" x="16" y="143.9482">SPELL_COMPOUND</text><rect fill="#FEFECE" filter="url(#f1)" height="50" rx="12.5" ry="12.5" style="stroke: #A80036; stroke-width: 1.5;" width="153" x="193.5" y="125.9531"/><line style="stroke: #A80036; stroke-width: 1.5;" x1="193.5" x2="346.5" y1="152.25" y2="152.25"/><text fill="#000000" font-family="sans-serif" font-size="14" lengthAdjust="spacingAndGlyphs" textLength="133" x="203.5" y="143.9482">SPELL_FORBIDDEN</text><rect fill="#FEFECE" filter="url(#f1)" height="50" rx="12.5" ry="12.5" style="stroke: #A80036; stroke-width: 1.5;" width="123" x="381.5" y="125.9531"/><line style="stroke: #A80036; stroke-width: 1.5;" x1="381.5" x2="504.5" y1="152.25" y2="152.25"/><text fill="#000000" font-family="sans-serif" font-size="14" lengthAdjust="spacingAndGlyphs" textLength="103" x="391.5" y="143.9482">SPELL_ALLCAP</text><rect fill="#FEFECE" filter="url(#f1)" height="50" rx="12.5" ry="12.5" style="stroke: #A80036; stroke-width: 1.5;" width="118" x="540" y="125.9531"/><line style="stroke: #A80036; stroke-width: 1.5;" x1="540" x2="658" y1="152.25" y2="152.25"/><text fill="#000000" font-family="sans-serif" font-size="14" lengthAdjust="spacingAndGlyphs" textLength="98" x="550" y="143.9482">SPELL_NOCAP</text><rect fill="#FEFECE" filter="url(#f1)" height="50" rx="12.5" ry="12.5" style="stroke: #A80036; stroke-width: 1.5;" width="124" x="693" y="125.9531"/><line style="stroke: #A80036; stroke-width: 1.5;" x1="693" x2="817" y1="152.25" y2="152.25"/><text fill="#000000" font-family="sans-serif" font-size="14" lengthAdjust="spacingAndGlyphs" textLength="104" x="703" y="143.9482">SPELL_INITCAP</text><rect fill="#FEFECE" filter="url(#f1)" height="50" rx="12.5" ry="12.5" style="stroke: #A80036; stroke-width: 1.5;" width="133" x="852.5" y="125.9531"/><line style="stroke: #A80036; stroke-width: 1.5;" x1="852.5" x2="985.5" y1="152.25" y2="152.25"/><text fill="#000000" font-family="sans-serif" font-size="14" lengthAdjust="spacingAndGlyphs" textLength="113" x="862.5" y="143.9482">SPELL_ORIGCAP</text><rect fill="#FEFECE" filter="url(#f1)" height="50" rx="12.5" ry="12.5" style="stroke: #A80036; stroke-width: 1.5;" width="113" x="1020.5" y="125.9531"/><line style="stroke: #A80036; stroke-width: 1.5;" x1="1020.5" x2="1133.5" y1="152.25" y2="152.25"/><text fill="#000000" font-family="sans-serif" font-size="14" lengthAdjust="spacingAndGlyphs" textLength="93" x="1030.5" y="143.9482">SPELL_WARN</text><path d="M589.124,41.7741 C542.562,50.3981 340.354,88.2885 176,125.9531 C171.811,126.9131 167.523,127.9201 163.198,128.9553 " fill="none" style="stroke: #A80036; stroke-width: 1.0;"/><polygon fill="#A80036" points="158.107,130.1823,167.7937,131.9624,162.9678,129.0109,165.9194,124.1851,158.107,130.1823" style="stroke: #A80036; stroke-width: 1.0;"/><path d="M589.857,43.0101 C555.261,54.5771 430.121,96.4172 347.008,124.2057 " fill="none" style="stroke: #A80036; stroke-width: 1.0;"/><polygon fill="#A80036" points="342.092,125.8493,351.896,126.7886,346.8339,124.2636,349.3589,119.2016,342.092,125.8493" style="stroke: #A80036; stroke-width: 1.0;"/><path d="M591.049,45.5591 C571.181,59.5691 518.319,96.8437 481.464,122.8308 " fill="none" style="stroke: #A80036; stroke-width: 1.0;"/><polygon fill="#A80036" points="477.053,125.9416,486.7134,124.0241,481.1393,123.0602,482.1031,117.4861,477.053,125.9416" style="stroke: #A80036; stroke-width: 1.0;"/><path d="M599,48.9551 C599,64.4111 599,96.6379 599,120.5532 " fill="none" style="stroke: #A80036; stroke-width: 1.0;"/><polygon fill="#A80036" points="599,125.8259,603,116.8259,599,120.8259,595,116.8259,599,125.8259" style="stroke: #A80036; stroke-width: 1.0;"/><path d="M606.951,45.5591 C626.819,59.5691 679.681,96.8437 716.536,122.8308 " fill="none" style="stroke: #A80036; stroke-width: 1.0;"/><polygon fill="#A80036" points="720.947,125.9416,715.8969,117.4861,716.8607,123.0602,711.2866,124.0241,720.947,125.9416" style="stroke: #A80036; stroke-width: 1.0;"/><text fill="#000000" font-family="sans-serif" font-size="13" lengthAdjust="spacingAndGlyphs" textLength="194" x="678" y="92.02">cap = HUHINITCAP or ALLCAP</text><path d="M608.988,40.1461 C653.738,41.1841 835.578,47.3141 881,78.9531 C895.224,88.8605 904.583,105.8251 910.454,120.6872 " fill="none" style="stroke: #A80036; stroke-width: 1.0;"/><polygon fill="#A80036" points="912.313,125.6335,912.8906,115.8016,910.5538,120.9532,905.4021,118.6164,912.313,125.6335" style="stroke: #A80036; stroke-width: 1.0;"/><path d="M609.032,40.1401 C648.643,41.0961 797.729,46.7591 915,78.9531 C954.09,89.6844 995.942,108.2274 1027.31,123.6722 " fill="none" style="stroke: #A80036; stroke-width: 1.0;"/><polygon fill="#A80036" points="1031.86,125.9272,1025.564,118.3536,1027.3776,123.7118,1022.0193,125.5254,1031.86,125.9272" style="stroke: #A80036; stroke-width: 1.0;"/></g></svg>