<?xml version="1.0" encoding="UTF-8" standalone="no"?><svg xmlns="http://www.w3.org/2000/svg" xmlns:xlink="http://www.w3.org/1999/xlink" contentScriptType="application/ecmascript" contentStyleType="text/css" height="186px" preserveAspectRatio="none" style="width:1130px;height:186px;" version="1.1" viewBox="0 0 1130 186" width="1130px" zoomAndPan="magnify"><defs><linearGradient id="g1q5ivoll20t2s0" x1="0%" x2="100%" y1="50%" y2="50%"><stop offset="0%" stop-color="#FFFFFF"/><stop offset="100%" stop-color="#FFFFFF"/></linearGradient><filter height="300%" id="f1q5ivoll20t2s" width="300%" x="-1" y="-1"><feGaussianBlur result="blurOut" stdDeviation="2.0"/><feColorMatrix in="blurOut" result="blurOut2" type="matrix" values="0 0 0 0 0 0 0 0 0 0 0 0 0 0 0 0 0 0 .4 0"/><feOffset dx="4.0" dy="4.0" in="blurOut2" result="blurOut3"/><feBlend in="SourceGraphic" in2="blurOut3" mode="normal"/></filter></defs><g><rect fill="url(#g1q5ivoll20t2s0)" height="186" style="stroke: none; stroke-width: 1.0;" width="1130" x="0" y="0"/><text fill="#000000" font-family="sans-serif" font-size="18" lengthAdjust="spacingAndGlyphs" textLength="255" x="440.5" y="16.708">Hunspell - Info Options (info)</text><ellipse cx="592" cy="38.9531" fill="#000000" filter="url(#f1q5ivoll20t2s)" rx="10" ry="10" style="stroke: none; stroke-width: 1.0;"/><rect fill="#FEFECE" filter="url(#f1q5ivoll20t2s)" height="50" rx="12.5" ry="12.5" style="stroke: #A80036; stroke-width: 1.5;" width="152" x="6" y="125.9531"/><line style="stroke: #A80036; stroke-width: 1.5;" x1="6" x2="158" y1="152.25" y2="152.25"/><text fill="#000000" font-family="sans-serif" font-size="14" lengthAdjust="spacingAndGlyphs" textLength="132" x="16" y="143.9482">SPELL_COMPOUND</text><rect fill="#FEFECE" filter="url(#f1q5ivoll20t2s)" height="50" rx="12.5" ry="12.5" style="stroke: #A80036; stroke-width: 1.5;" width="151" x="193.5" y="125.9531"/><line style="stroke: #A80036; stroke-width: 1.5;" x1="193.5" x2="344.5" y1="152.25" y2="152.25"/><text fill="#000000" font-family="sans-serif" font-size="14" lengthAdjust="spacingAndGlyphs" textLength="131" x="203.5" y="143.9482">SPELL_FORBIDDEN</text><rect fill="#FEFECE" filter="url(#f1q5ivoll20t2s)" height="50" rx="12.5" ry="12.5" style="stroke: #A80036; stroke-width: 1.5;" width="119" x="379.5" y="125.9531"/><line style="stroke: #A80036; stroke-width: 1.5;" x1="379.5" x2="498.5" y1="152.25" y2="152.25"/><text fill="#000000" font-family="sans-serif" font-size="14" lengthAdjust="spacingAndGlyphs" textLength="99" x="389.5" y="143.9482">SPELL_ALLCAP</text><rect fill="#FEFECE" filter="url(#f1q5ivoll20t2s)" height="50" rx="12.5" ry="12.5" style="stroke: #A80036; stroke-width: 1.5;" width="117" x="533.5" y="125.9531"/><line style="stroke: #A80036; stroke-width: 1.5;" x1="533.5" x2="650.5" y1="152.25" y2="152.25"/><text fill="#000000" font-family="sans-serif" font-size="14" lengthAdjust="spacingAndGlyphs" textLength="97" x="543.5" y="143.9482">SPELL_NOCAP</text><rect fill="#FEFECE" filter="url(#f1q5ivoll20t2s)" height="50" rx="12.5" ry="12.5" style="stroke: #A80036; stroke-width: 1.5;" width="121" x="685.5" y="125.9531"/><line style="stroke: #A80036; stroke-width: 1.5;" x1="685.5" x2="806.5" y1="152.25" y2="152.25"/><text fill="#000000" font-family="sans-serif" font-size="14" lengthAdjust="spacingAndGlyphs" textLength="101" x="695.5" y="143.9482">SPELL_INITCAP</text><rect fill="#FEFECE" filter="url(#f1q5ivoll20t2s)" height="50" rx="12.5" ry="12.5" style="stroke: #A80036; stroke-width: 1.5;" width="131" x="841.5" y="125.9531"/><line style="stroke: #A80036; stroke-width: 1.5;" x1="841.5" x2="972.5" y1="152.25" y2="152.25"/><text fill="#000000" font-family="sans-serif" font-size="14" lengthAdjust="spacingAndGlyphs" textLength="111" x="851.5" y="143.9482">SPELL_ORIGCAP</text><rect fill="#FEFECE" filter="url(#f1q5ivoll20t2s)" height="50" rx="12.5" ry="12.5" style="stroke: #A80036; stroke-width: 1.5;" width="110" x="1008" y="125.9531"/><line style="stroke: #A80036; stroke-width: 1.5;" x1="1008" x2="1118" y1="152.25" y2="152.25"/><text fill="#000000" font-family="sans-serif" font-size="14" lengthAdjust="spacingAndGlyphs" textLength="90" x="1018" y="143.9482">SPELL_WARN</text><!--link *start to SPELL_COMPOUND--><path d="M581.9752,40.843 C535.5861,49.6315 337.1686,87.6974 176,125.9531 C171.8077,126.9482 167.5173,127.9933 163.19,129.0685 " fill="none" id="*start-SPELL_COMPOUND" style="stroke: #A80036; stroke-width: 1.0;"/><polygon fill="#A80036" points="158.0968,130.3434,167.7987,132.0383,162.9472,129.1293,165.8561,124.2777,158.0968,130.3434" style="stroke: #A80036; stroke-width: 1.0;"/><!--link *start to SPELL_FORBIDDEN--><path d="M582.3333,42.305 C547.6502,54.3314 427.2374,96.0844 346.1904,124.1874 " fill="none" id="*start-SPELL_FORBIDDEN" style="stroke: #A80036; stroke-width: 1.0;"/><polygon fill="#A80036" points="341.3948,125.8503,351.2086,126.681,346.1188,124.2122,348.5876,119.1225,341.3948,125.8503" style="stroke: #A80036; stroke-width: 1.0;"/><!--link *start to SPELL_ALLCAP--><path d="M583.7741,44.9747 C564.1508,59.3394 513.5622,96.3716 477.7309,122.601 " fill="none" id="*start-SPELL_ALLCAP" style="stroke: #A80036; stroke-width: 1.0;"/><polygon fill="#A80036" points="473.4375,125.744,483.0624,123.6555,477.472,122.7906,478.3369,117.2003,473.4375,125.744" style="stroke: #A80036; stroke-width: 1.0;"/><!--link *start to SPELL_NOCAP--><path d="M592,49.289 C592,65.299 592,96.7165 592,120.4102 " fill="none" id="*start-SPELL_NOCAP" style="stroke: #A80036; stroke-width: 1.0;"/><polygon fill="#A80036" points="592,125.6435,596,116.6435,592,120.6435,588,116.6435,592,125.6435" style="stroke: #A80036; stroke-width: 1.0;"/><!--link *start to SPELL_INITCAP--><path d="M600.2797,44.9747 C620.0312,59.3394 670.9505,96.3716 707.0159,122.601 " fill="none" id="*start-SPELL_INITCAP" style="stroke: #A80036; stroke-width: 1.0;"/><polygon fill="#A80036" points="711.3374,125.744,706.4114,117.2156,707.2937,122.8032,701.7061,123.6855,711.3374,125.744" style="stroke: #A80036; stroke-width: 1.0;"/><text fill="#000000" font-family="sans-serif" font-size="13" lengthAdjust="spacingAndGlyphs" textLength="191" x="670" y="92.02">cap = HUHINITCAP or ALLCAP</text><!--link *start to SPELL_ORIGCAP--><path d="M602.1589,39.1937 C646.841,40.4314 825.6357,47.3144 870,78.9531 C883.981,88.9238 893.0449,105.7789 898.7004,120.6752 " fill="none" id="*start-SPELL_ORIGCAP" style="stroke: #A80036; stroke-width: 1.0;"/><polygon fill="#A80036" points="900.4899,125.6391,901.2006,115.8159,898.7942,120.9354,893.6747,118.5291,900.4899,125.6391" style="stroke: #A80036; stroke-width: 1.0;"/><!--link *start to SPELL_WARN--><path d="M602.186,39.166 C641.7419,40.2197 788.6794,46.2465 904,78.9531 C941.7726,89.666 982.0399,107.9785 1012.6006,123.4537 " fill="none" id="*start-SPELL_WARN" style="stroke: #A80036; stroke-width: 1.0;"/><polygon fill="#A80036" points="1017.4202,125.9114,1011.2196,118.2594,1012.9659,123.64,1007.5854,125.3863,1017.4202,125.9114" style="stroke: #A80036; stroke-width: 1.0;"/><!--
@startuml
skinparam backgroundcolor White|White

title Hunspell - Info Options (info)

[*] - -> SPELL_COMPOUND
[*] - -> SPELL_FORBIDDEN
[*] - -> SPELL_ALLCAP
[*] - -> SPELL_NOCAP
[*] - -> SPELL_INITCAP : cap = HUHINITCAP or ALLCAP
[*] - -> SPELL_ORIGCAP
[*] - -> SPELL_WARN

@enduml

PlantUML version 1.2018.06(Mon May 21 12:34:53 CEST 2018)
(GPL source distribution)
Java Runtime: OpenJDK Runtime Environment
JVM: OpenJDK 64-Bit Server VM
Java Version: 10.0.2+13-Ubuntu-1ubuntu0.18.04.2
Operating System: Linux
OS Version: 4.15.0-33-generic
Default Encoding: UTF-8
Language: en
Country: US
--></g></svg>