<?xml version="1.0" encoding="UTF-8" standalone="yes"?><svg xmlns="http://www.w3.org/2000/svg" xmlns:xlink="http://www.w3.org/1999/xlink" height="452px" style="width:563px;height:452px;" version="1.1" viewBox="0 0 563 452" width="563px"><defs><filter height="300%" id="f1" width="300%" x="-1" y="-1"><feGaussianBlur result="blurOut" stdDeviation="2.0"/><feColorMatrix in="blurOut" result="blurOut2" type="matrix" values="0 0 0 0 0 0 0 0 0 0 0 0 0 0 0 0 0 0 .4 0"/><feOffset dx="4.0" dy="4.0" in="blurOut2" result="blurOut3"/><feBlend in="SourceGraphic" in2="blurOut3" mode="normal"/></filter></defs><g><text fill="#000000" font-family="sans-serif" font-size="18" lengthAdjust="spacingAndGlyphs" textLength="296" x="138.5" y="16.708">Hunspell - Number State (nstate)</text><ellipse cx="303.5" cy="38.9531" fill="#000000" filter="url(#f1)" rx="10" ry="10" style="stroke: none; stroke-width: 1.0;"/><rect fill="#FEFECE" filter="url(#f1)" height="50.2656" rx="12.5" ry="12.5" style="stroke: #A80036; stroke-width: 1.5;" width="103" x="252" y="125.9531"/><line style="stroke: #A80036; stroke-width: 1.5;" x1="252" x2="355" y1="152.25" y2="152.25"/><text fill="#000000" font-family="sans-serif" font-size="14" lengthAdjust="spacingAndGlyphs" textLength="54" x="276.5" y="143.9482">NBEGIN</text><text fill="#000000" font-family="sans-serif" font-size="12" lengthAdjust="spacingAndGlyphs" textLength="83" x="257" y="168.3887">default status</text><rect fill="#FEFECE" filter="url(#f1)" height="175.9844" rx="12.5" ry="12.5" style="stroke: #A80036; stroke-width: 1.5;" width="303" x="6" y="267.9531"/><line style="stroke: #A80036; stroke-width: 1.5;" x1="6" x2="309" y1="294.25" y2="294.25"/><text fill="#000000" font-family="sans-serif" font-size="14" lengthAdjust="spacingAndGlyphs" textLength="42" x="136.5" y="285.9482">NNUM</text><text fill="#000000" font-family="sans-serif" font-size="12" lengthAdjust="spacingAndGlyphs" textLength="184" x="11" y="310.3887">word consists of only numbers</text><text fill="#000000" font-family="sans-serif" font-size="12" lengthAdjust="spacingAndGlyphs" textLength="0" x="15" y="324.3574"/><text fill="#000000" font-family="sans-serif" font-size="12" lengthAdjust="spacingAndGlyphs" textLength="158" x="11" y="338.3262">by default correct spelling</text><text fill="#000000" font-family="sans-serif" font-size="12" lengthAdjust="spacingAndGlyphs" textLength="0" x="15" y="352.2949"/><text fill="#000000" font-family="sans-serif" font-size="12" lengthAdjust="spacingAndGlyphs" textLength="283" x="11" y="366.2637">TODO discuss extend 0, 1, .., 9 to also include:</text><text fill="#000000" font-family="sans-serif" font-size="12" lengthAdjust="spacingAndGlyphs" textLength="145" x="11" y="380.2324">- superscript numerals ²</text><text fill="#000000" font-family="sans-serif" font-size="12" lengthAdjust="spacingAndGlyphs" textLength="133" x="11" y="394.2012">- subscript numerals ₂</text><text fill="#000000" font-family="sans-serif" font-size="12" lengthAdjust="spacingAndGlyphs" textLength="110" x="11" y="408.1699">- Roman numerals</text><text fill="#000000" font-family="sans-serif" font-size="12" lengthAdjust="spacingAndGlyphs" textLength="65" x="11" y="422.1387">- operators</text><text fill="#000000" font-family="sans-serif" font-size="12" lengthAdjust="spacingAndGlyphs" textLength="27" x="11" y="436.1074">- etc</text><rect fill="#FEFECE" filter="url(#f1)" height="64.2344" rx="12.5" ry="12.5" style="stroke: #A80036; stroke-width: 1.5;" width="210" x="344.5" y="323.9531"/><line style="stroke: #A80036; stroke-width: 1.5;" x1="344.5" x2="554.5" y1="350.25" y2="350.25"/><text fill="#000000" font-family="sans-serif" font-size="14" lengthAdjust="spacingAndGlyphs" textLength="36" x="431.5" y="341.9482">NSEP</text><text fill="#000000" font-family="sans-serif" font-size="12" lengthAdjust="spacingAndGlyphs" textLength="175" x="349.5" y="366.3887">word starts with seperator or</text><text fill="#000000" font-family="sans-serif" font-size="12" lengthAdjust="spacingAndGlyphs" textLength="190" x="349.5" y="380.3574">has two consecutive seperators</text><path d="M303.5,48.9551 C303.5,64.4111 303.5,96.6381 303.5,120.5531 " fill="none" style="stroke: #A80036; stroke-width: 1.0;"/><polygon fill="#A80036" points="303.5,125.8261,307.5,116.8261,303.5,120.8261,299.5,116.8261,303.5,125.8261" style="stroke: #A80036; stroke-width: 1.0;"/><text fill="#000000" font-family="sans-serif" font-size="13" lengthAdjust="spacingAndGlyphs" textLength="46" x="304.5" y="92.02">default</text><path d="M355.006,139.3541 C374.2,138.9731 390,142.8401 390,150.9531 C390,158.3061 377.024,162.1701 360.304,162.5471 " fill="none" style="stroke: #A80036; stroke-width: 1.0;"/><polygon fill="#A80036" points="355.006,162.5521,364.006,166.5521,360.006,162.5521,364.006,158.5521,355.006,162.5521" style="stroke: #A80036; stroke-width: 1.0;"/><text fill="#000000" font-family="sans-serif" font-size="13" lengthAdjust="spacingAndGlyphs" textLength="70" x="396" y="155.52">other word</text><path d="M286.179,176.0371 C270.492,197.8481 246.36,231.4011 223.215,263.5831 " fill="none" style="stroke: #A80036; stroke-width: 1.0;"/><polygon fill="#A80036" points="220.104,267.9081,228.6071,262.9385,223.0241,263.8494,222.1132,258.2664,220.104,267.9081" style="stroke: #A80036; stroke-width: 1.0;"/><text fill="#000000" font-family="sans-serif" font-size="13" lengthAdjust="spacingAndGlyphs" textLength="61" x="265.5" y="226.52">^[0-9]+$</text><path d="M320.821,176.0371 C346.454,211.6771 394.635,278.6681 424.215,319.7971 " fill="none" style="stroke: #A80036; stroke-width: 1.0;"/><polygon fill="#A80036" points="427.195,323.9401,425.1874,314.2981,424.2756,319.8809,418.6927,318.9691,427.195,323.9401" style="stroke: #A80036; stroke-width: 1.0;"/><text fill="#000000" font-family="sans-serif" font-size="13" lengthAdjust="spacingAndGlyphs" textLength="57" x="364.5" y="219.02">^[,\.-].*$</text><text fill="#000000" font-family="sans-serif" font-size="13" lengthAdjust="spacingAndGlyphs" textLength="92" x="364.5" y="234.1528">^.*[,\.-]{2}.*$</text></g></svg>