<?xml version="1.0" encoding="UTF-8" standalone="no"?><svg xmlns="http://www.w3.org/2000/svg" xmlns:xlink="http://www.w3.org/1999/xlink" contentScriptType="application/ecmascript" contentStyleType="text/css" height="602px" preserveAspectRatio="none" style="width:394px;height:602px;" version="1.1" viewBox="0 0 394 602" width="394px" zoomAndPan="magnify"><defs><linearGradient id="gvs0w48gxwbo90" x1="0%" x2="100%" y1="50%" y2="50%"><stop offset="0%" stop-color="#FFFFFF"/><stop offset="100%" stop-color="#FFFFFF"/></linearGradient><filter height="300%" id="fvs0w48gxwbo9" width="300%" x="-1" y="-1"><feGaussianBlur result="blurOut" stdDeviation="2.0"/><feColorMatrix in="blurOut" result="blurOut2" type="matrix" values="0 0 0 0 0 0 0 0 0 0 0 0 0 0 0 0 0 0 .4 0"/><feOffset dx="4.0" dy="4.0" in="blurOut2" result="blurOut3"/><feBlend in="SourceGraphic" in2="blurOut3" mode="normal"/></filter></defs><g><rect fill="url(#gvs0w48gxwbo90)" height="602" style="stroke: none; stroke-width: 1.0;" width="394" x="0" y="0"/><text fill="#000000" font-family="Roboto Condensed" font-size="18" font-weight="bold" lengthAdjust="spacingAndGlyphs" textLength="166" x="118" y="18.8613">Nuspell - Result Cache</text><!--class Cache--><rect fill="#FFFFFF" filter="url(#fvs0w48gxwbo9)" height="178.5659" id="Cache" style="stroke: #000000; stroke-width: 1.5;" width="200" x="47" y="31.7393"/><ellipse cx="127.25" cy="47.7393" fill="#ADD1B2" rx="11" ry="11" style="stroke: #000000; stroke-width: 1.0;"/><path d="M130.2188,53.3799 Q129.6406,53.6768 129,53.8174 Q128.3594,53.9736 127.6563,53.9736 Q125.1563,53.9736 123.8281,52.333 Q122.5156,50.6768 122.5156,47.5518 Q122.5156,44.4268 123.8281,42.7705 Q125.1563,41.1143 127.6563,41.1143 Q128.3594,41.1143 129,41.2705 Q129.6563,41.4268 130.2188,41.7236 L130.2188,44.4424 Q129.5938,43.8643 129,43.5986 Q128.4063,43.3174 127.7813,43.3174 Q126.4375,43.3174 125.75,44.3955 Q125.0625,45.458 125.0625,47.5518 Q125.0625,49.6455 125.75,50.7236 Q126.4375,51.7861 127.7813,51.7861 Q128.4063,51.7861 129,51.5205 Q129.5938,51.2393 130.2188,50.6611 L130.2188,53.3799 Z "/><text fill="#000000" font-family="Roboto Condensed" font-size="12" lengthAdjust="spacingAndGlyphs" textLength="31" x="147.75" y="52.4004">Cache</text><line style="stroke: #000000; stroke-width: 1.5;" x1="48" x2="246" y1="63.7393" y2="63.7393"/><rect fill="none" height="6" style="stroke: #C82930; stroke-width: 1.0;" width="6" x="55" y="73.4929"/><text fill="#000000" font-family="Roboto Condensed" font-size="11" lengthAdjust="spacingAndGlyphs" textLength="48" x="67" y="79.2656">type : Type</text><rect fill="none" height="6" style="stroke: #C82930; stroke-width: 1.0;" width="6" x="55" y="88.0002"/><text fill="#000000" font-family="Roboto Condensed" font-size="11" lengthAdjust="spacingAndGlyphs" textLength="56" x="67" y="93.7729">max : integer</text><rect fill="none" height="6" style="stroke: #C82930; stroke-width: 1.0;" width="6" x="55" y="102.5076"/><text fill="#000000" font-family="Roboto Condensed" font-size="11" lengthAdjust="spacingAndGlyphs" textLength="29" x="67" y="108.2803">entries</text><line style="stroke: #000000; stroke-width: 1.5;" x1="48" x2="246" y1="115.2612" y2="115.2612"/><ellipse cx="58" cy="128.0149" fill="#84BE84" rx="3" ry="3" style="stroke: #038048; stroke-width: 1.0;"/><text fill="#000000" font-family="Roboto Condensed" font-size="11" lengthAdjust="spacingAndGlyphs" textLength="152" x="67" y="130.7876">void init(type : Type, max : integer)</text><ellipse cx="58" cy="142.5222" fill="#84BE84" rx="3" ry="3" style="stroke: #038048; stroke-width: 1.0;"/><text fill="#000000" font-family="Roboto Condensed" font-size="11" lengthAdjust="spacingAndGlyphs" textLength="174" x="67" y="145.2949">void add(key : string, value : ValueType)</text><ellipse cx="58" cy="157.0295" fill="#84BE84" rx="3" ry="3" style="stroke: #038048; stroke-width: 1.0;"/><text fill="#000000" font-family="Roboto Condensed" font-size="11" lengthAdjust="spacingAndGlyphs" textLength="116" x="67" y="159.8022">ValueType get(key : string)</text><polygon fill="#FFFF44" points="58,166.5369,62,170.5369,58,174.5369,54,170.5369" style="stroke: #B38D22; stroke-width: 1.0;"/><text fill="#000000" font-family="Roboto Condensed" font-size="11" lengthAdjust="spacingAndGlyphs" textLength="93" x="67" y="174.3096">bool has(key : string)</text><polygon fill="#FFFF44" points="58,181.0442,62,185.0442,58,189.0442,54,185.0442" style="stroke: #B38D22; stroke-width: 1.0;"/><text fill="#000000" font-family="Roboto Condensed" font-size="11" lengthAdjust="spacingAndGlyphs" textLength="103" x="67" y="188.8169">void stamp(key : string)</text><polygon fill="#FFFF44" points="58,195.5515,62,199.5515,58,203.5515,54,199.5515" style="stroke: #B38D22; stroke-width: 1.0;"/><text fill="#000000" font-family="Roboto Condensed" font-size="11" lengthAdjust="spacingAndGlyphs" textLength="90" x="67" y="203.3242">void del(key : string)</text><!--class CacheEntry--><rect fill="#FFFFFF" filter="url(#fvs0w48gxwbo9)" height="98.0293" id="CacheEntry" style="stroke: #000000; stroke-width: 1.5;" width="128" x="83" y="289.7393"/><ellipse cx="116" cy="305.7393" fill="#ADD1B2" rx="11" ry="11" style="stroke: #000000; stroke-width: 1.0;"/><path d="M118.9688,311.3799 Q118.3906,311.6768 117.75,311.8174 Q117.1094,311.9736 116.4063,311.9736 Q113.9063,311.9736 112.5781,310.333 Q111.2656,308.6768 111.2656,305.5518 Q111.2656,302.4268 112.5781,300.7705 Q113.9063,299.1143 116.4063,299.1143 Q117.1094,299.1143 117.75,299.2705 Q118.4063,299.4268 118.9688,299.7236 L118.9688,302.4424 Q118.3438,301.8643 117.75,301.5986 Q117.1563,301.3174 116.5313,301.3174 Q115.1875,301.3174 114.5,302.3955 Q113.8125,303.458 113.8125,305.5518 Q113.8125,307.6455 114.5,308.7236 Q115.1875,309.7861 116.5313,309.7861 Q117.1563,309.7861 117.75,309.5205 Q118.3438,309.2393 118.9688,308.6611 L118.9688,311.3799 Z "/><text fill="#000000" font-family="Roboto Condensed" font-size="12" lengthAdjust="spacingAndGlyphs" textLength="56" x="134" y="310.4004">CacheEntry</text><line style="stroke: #000000; stroke-width: 1.5;" x1="84" x2="210" y1="321.7393" y2="321.7393"/><polygon fill="none" points="94,329.4929,98,333.4929,94,337.4929,90,333.4929" style="stroke: #B38D22; stroke-width: 1.0;"/><text fill="#000000" font-family="Roboto Condensed" font-size="11" lengthAdjust="spacingAndGlyphs" textLength="48" x="103" y="337.2656">key : string</text><polygon fill="none" points="94,344.0002,98,348.0002,94,352.0002,90,348.0002" style="stroke: #B38D22; stroke-width: 1.0;"/><text fill="#000000" font-family="Roboto Condensed" font-size="11" lengthAdjust="spacingAndGlyphs" textLength="23" x="103" y="351.7729">value</text><polygon fill="none" points="94,358.5076,98,362.5076,94,366.5076,90,362.5076" style="stroke: #B38D22; stroke-width: 1.0;"/><text fill="#000000" font-family="Roboto Condensed" font-size="11" lengthAdjust="spacingAndGlyphs" textLength="78" x="103" y="366.2803">count : integer = 1</text><polygon fill="none" points="94,373.0149,98,377.0149,94,381.0149,90,377.0149" style="stroke: #B38D22; stroke-width: 1.0;"/><text fill="#000000" font-family="Roboto Condensed" font-size="11" lengthAdjust="spacingAndGlyphs" textLength="102" x="103" y="380.7876">timestamp : time = now</text><!--class ValueType--><rect fill="#FFFFFF" filter="url(#fvs0w48gxwbo9)" height="32" id="ValueType" style="stroke: #000000; stroke-width: 1.5;" width="83" x="105.5" y="466.7393"/><ellipse cx="120.5" cy="482.7393" fill="#A9DCDF" rx="11" ry="11" style="stroke: #000000; stroke-width: 1.0;"/><path d="M120.6094,478.083 L119.4531,483.1611 L121.7813,483.1611 L120.6094,478.083 Z M119.125,475.8486 L122.1094,475.8486 L125.4688,488.2393 L123.0156,488.2393 L122.25,485.1768 L118.9688,485.1768 L118.2188,488.2393 L115.7813,488.2393 L119.125,475.8486 Z "/><text fill="#000000" font-family="Roboto Condensed" font-size="12" font-style="italic" lengthAdjust="spacingAndGlyphs" textLength="51" x="134.5" y="487.4004">ValueType</text><!--class Type--><rect fill="#FFFFFF" filter="url(#fvs0w48gxwbo9)" height="83.522" id="Type" style="stroke: #000000; stroke-width: 1.5;" width="101" x="282.5" y="79.2393"/><ellipse cx="318.2" cy="95.2393" fill="#EB937F" rx="11" ry="11" style="stroke: #000000; stroke-width: 1.0;"/><path d="M322.3094,101.2393 L314.5906,101.2393 L314.5906,88.8486 L322.3094,88.8486 L322.3094,91.0049 L317.0438,91.0049 L317.0438,93.6768 L321.8094,93.6768 L321.8094,95.833 L317.0438,95.833 L317.0438,99.083 L322.3094,99.083 L322.3094,101.2393 Z "/><text fill="#000000" font-family="Roboto Condensed" font-size="12" lengthAdjust="spacingAndGlyphs" textLength="23" x="336.8" y="99.9004">Type</text><line style="stroke: #000000; stroke-width: 1.5;" x1="283.5" x2="382.5" y1="111.2393" y2="111.2393"/><text fill="#000000" font-family="Roboto Condensed" font-size="11" lengthAdjust="spacingAndGlyphs" textLength="43" x="288.5" y="126.7656">BOOLEAN</text><text fill="#000000" font-family="Roboto Condensed" font-size="11" lengthAdjust="spacingAndGlyphs" textLength="39" x="288.5" y="141.2729">INTEGER</text><text fill="#000000" font-family="Roboto Condensed" font-size="11" lengthAdjust="spacingAndGlyphs" textLength="89" x="288.5" y="155.7803">VECTOROFSTRINGS</text><!--class Boolean--><rect fill="#FFFFFF" filter="url(#fvs0w48gxwbo9)" height="32" id="Boolean" style="stroke: #000000; stroke-width: 1.5;" width="72" x="6" y="559.7393"/><ellipse cx="21" cy="575.7393" fill="#ADD1B2" rx="11" ry="11" style="stroke: #000000; stroke-width: 1.0;"/><path d="M23.9688,581.3799 Q23.3906,581.6768 22.75,581.8174 Q22.1094,581.9736 21.4063,581.9736 Q18.9063,581.9736 17.5781,580.333 Q16.2656,578.6768 16.2656,575.5518 Q16.2656,572.4268 17.5781,570.7705 Q18.9063,569.1143 21.4063,569.1143 Q22.1094,569.1143 22.75,569.2705 Q23.4063,569.4268 23.9688,569.7236 L23.9688,572.4424 Q23.3438,571.8643 22.75,571.5986 Q22.1563,571.3174 21.5313,571.3174 Q20.1875,571.3174 19.5,572.3955 Q18.8125,573.458 18.8125,575.5518 Q18.8125,577.6455 19.5,578.7236 Q20.1875,579.7861 21.5313,579.7861 Q22.1563,579.7861 22.75,579.5205 Q23.3438,579.2393 23.9688,578.6611 L23.9688,581.3799 Z "/><text fill="#000000" font-family="Roboto Condensed" font-size="12" lengthAdjust="spacingAndGlyphs" textLength="40" x="35" y="580.4004">Boolean</text><!--class Integer--><rect fill="#FFFFFF" filter="url(#fvs0w48gxwbo9)" height="32" id="Integer" style="stroke: #000000; stroke-width: 1.5;" width="67" x="113.5" y="559.7393"/><ellipse cx="128.5" cy="575.7393" fill="#ADD1B2" rx="11" ry="11" style="stroke: #000000; stroke-width: 1.0;"/><path d="M131.4688,581.3799 Q130.8906,581.6768 130.25,581.8174 Q129.6094,581.9736 128.9063,581.9736 Q126.4063,581.9736 125.0781,580.333 Q123.7656,578.6768 123.7656,575.5518 Q123.7656,572.4268 125.0781,570.7705 Q126.4063,569.1143 128.9063,569.1143 Q129.6094,569.1143 130.25,569.2705 Q130.9063,569.4268 131.4688,569.7236 L131.4688,572.4424 Q130.8438,571.8643 130.25,571.5986 Q129.6563,571.3174 129.0313,571.3174 Q127.6875,571.3174 127,572.3955 Q126.3125,573.458 126.3125,575.5518 Q126.3125,577.6455 127,578.7236 Q127.6875,579.7861 129.0313,579.7861 Q129.6563,579.7861 130.25,579.5205 Q130.8438,579.2393 131.4688,578.6611 L131.4688,581.3799 Z "/><text fill="#000000" font-family="Roboto Condensed" font-size="12" lengthAdjust="spacingAndGlyphs" textLength="35" x="142.5" y="580.4004">Integer</text><!--class VectorOfStrings--><rect fill="#FFFFFF" filter="url(#fvs0w48gxwbo9)" height="32" id="VectorOfStrings" style="stroke: #000000; stroke-width: 1.5;" width="110" x="216" y="559.7393"/><ellipse cx="231" cy="575.7393" fill="#ADD1B2" rx="11" ry="11" style="stroke: #000000; stroke-width: 1.0;"/><path d="M233.9688,581.3799 Q233.3906,581.6768 232.75,581.8174 Q232.1094,581.9736 231.4063,581.9736 Q228.9063,581.9736 227.5781,580.333 Q226.2656,578.6768 226.2656,575.5518 Q226.2656,572.4268 227.5781,570.7705 Q228.9063,569.1143 231.4063,569.1143 Q232.1094,569.1143 232.75,569.2705 Q233.4063,569.4268 233.9688,569.7236 L233.9688,572.4424 Q233.3438,571.8643 232.75,571.5986 Q232.1563,571.3174 231.5313,571.3174 Q230.1875,571.3174 229.5,572.3955 Q228.8125,573.458 228.8125,575.5518 Q228.8125,577.6455 229.5,578.7236 Q230.1875,579.7861 231.5313,579.7861 Q232.1563,579.7861 232.75,579.5205 Q233.3438,579.2393 233.9688,578.6611 L233.9688,581.3799 Z "/><text fill="#000000" font-family="Roboto Condensed" font-size="12" lengthAdjust="spacingAndGlyphs" textLength="78" x="245" y="580.4004">VectorOfStrings</text><!--link ValueType to Boolean--><path d="M113.646,512.2814 C95.9009,527.9985 74.7744,546.7106 60.08,559.7256 " fill="none" id="ValueType-Boolean" style="stroke: #000000; stroke-width: 1.0;"/><polygon fill="none" points="109.0973,506.9593,128.7104,498.9387,118.3799,517.4395,109.0973,506.9593" style="stroke: #000000; stroke-width: 1.0;"/><!--link ValueType to Integer--><path d="M147,519.1753 C147,533.2285 147,548.5699 147,559.7256 " fill="none" id="ValueType-Integer" style="stroke: #000000; stroke-width: 1.0;"/><polygon fill="none" points="140.0001,518.9387,147,498.9387,154.0001,518.9386,140.0001,518.9387" style="stroke: #000000; stroke-width: 1.0;"/><!--link ValueType to VectorOfStrings--><path d="M184.7936,511.0845 C206.0677,527.0401 231.8524,546.3786 249.6484,559.7256 " fill="none" id="ValueType-VectorOfStrings" style="stroke: #000000; stroke-width: 1.0;"/><polygon fill="none" points="180.3992,516.5387,168.5992,498.9387,188.7992,505.3387,180.3992,516.5387" style="stroke: #000000; stroke-width: 1.0;"/><!--link Cache to CacheEntry--><path d="M147,223.9872 C147,241.8678 147,259.9655 147,276.3388 " fill="none" id="Cache-CacheEntry" style="stroke: #000000; stroke-width: 1.0;"/><polygon fill="#000000" points="147,289.6441,151,280.6441,147,284.6441,143,280.6441,147,289.6441" style="stroke: #000000; stroke-width: 1.0;"/><line style="stroke: #000000; stroke-width: 1.0;" x1="147" x2="147.0001" y1="284.6441" y2="276.6441"/><polygon fill="#000000" points="147,210.9606,143,216.9606,147,222.9606,151,216.9606,147,210.9606" style="stroke: #000000; stroke-width: 1.0;"/><text fill="#000000" font-family="Roboto Condensed" font-size="13" lengthAdjust="spacingAndGlyphs" textLength="35" x="148" y="255.3613">entries</text><text fill="#000000" font-family="Roboto Condensed" font-size="13" lengthAdjust="spacingAndGlyphs" textLength="34" x="110.6094" y="278.1749">0..max</text><!--link CacheEntry to ValueType--><path d="M147,401.0161 C147,419.2179 147,438.2642 147,453.3863 " fill="none" id="CacheEntry-ValueType" style="stroke: #000000; stroke-width: 1.0;"/><polygon fill="#000000" points="147,466.5267,151,457.5267,147,461.5267,143,457.5267,147,466.5267" style="stroke: #000000; stroke-width: 1.0;"/><line style="stroke: #000000; stroke-width: 1.0;" x1="147" x2="147.0001" y1="461.5267" y2="453.5267"/><polygon fill="#000000" points="147,387.8932,143,393.8932,147,399.8932,151,393.8932,147,387.8932" style="stroke: #000000; stroke-width: 1.0;"/><text fill="#000000" font-family="Roboto Condensed" font-size="13" lengthAdjust="spacingAndGlyphs" textLength="27" x="148" y="432.3613">value</text><!--
@startuml
skinparam BackgroundColor White|White
skinparam ArrowColor Black
skinparam DefaultFontName Roboto Condensed
skinparam TitleFontStyle Bold

skinparam NoteBackgroundColor White
skinparam NoteBorderColor Black

skinparam UsecaseBackgroundColor White
skinparam ActorBackgroundColor White
skinparam UsecaseBorderColor Black
skinparam ActorBorderColor Black

skinparam usecase {
	BackgroundColor<<for now out of scope>> Gray
}

skinparam StateBackgroundColor White
skinparam StateBorderColor Black

skinparam ActivityBackgroundColor White
skinparam ActivityDiamondBackgroundColor White
skinparam ActivityBorderColor Black
skinparam ActivityDiamondBorderColor Black

skinparam ClassBackgroundColor White
skinparam ClassBorderColor Black
hide empty members

title Nuspell - Result Cache

class Cache {
	-type : Type
	-max : integer
	-entries
	+void init(type : Type, max : integer)
	+void add(key : string, value : ValueType)
	+ValueType get(key : string)
	#bool has(key : string)
	#void stamp(key : string)
	#void del(key : string)
}

class CacheEntry {
	#key : string
	#value
	#count : integer = 1
	#timestamp : time = now
}

abstract class ValueType {
}

enum Type {
  BOOLEAN
  INTEGER
  VECTOROFSTRINGS
}

ValueType <|- - Boolean
ValueType <|- - Integer
ValueType <|- - VectorOfStrings

Cache *- -> "0..max" CacheEntry : entries

CacheEntry *- -> ValueType : value

@enduml

PlantUML version 1.2018.06(Mon May 21 12:34:53 CEST 2018)
(GPL source distribution)
Java Runtime: OpenJDK Runtime Environment
JVM: OpenJDK 64-Bit Server VM
Java Version: 10.0.2+13-Ubuntu-1ubuntu0.18.04.2
Operating System: Linux
OS Version: 4.15.0-34-generic
Default Encoding: UTF-8
Language: en
Country: US
--></g></svg>