<?xml version="1.0" encoding="UTF-8" standalone="no"?><svg xmlns="http://www.w3.org/2000/svg" xmlns:xlink="http://www.w3.org/1999/xlink" contentScriptType="application/ecmascript" contentStyleType="text/css" height="350px" preserveAspectRatio="none" style="width:537px;height:350px;" version="1.1" viewBox="0 0 537 350" width="537px" zoomAndPan="magnify"><defs><linearGradient id="g838yr27vhaxf0" x1="0%" x2="100%" y1="50%" y2="50%"><stop offset="0%" stop-color="#FFFFFF"/><stop offset="100%" stop-color="#FFFFFF"/></linearGradient><filter height="300%" id="f838yr27vhaxf" width="300%" x="-1" y="-1"><feGaussianBlur result="blurOut" stdDeviation="2.0"/><feColorMatrix in="blurOut" result="blurOut2" type="matrix" values="0 0 0 0 0 0 0 0 0 0 0 0 0 0 0 0 0 0 .4 0"/><feOffset dx="4.0" dy="4.0" in="blurOut2" result="blurOut3"/><feBlend in="SourceGraphic" in2="blurOut3" mode="normal"/></filter></defs><g><rect fill="url(#g838yr27vhaxf0)" height="350" style="stroke: none; stroke-width: 1.0;" width="537" x="0" y="0"/><text fill="#000000" font-family="sans-serif" font-size="18" lengthAdjust="spacingAndGlyphs" textLength="189" x="198.5" y="16.708">Hunspell - Affix Entry</text><!--class AffixEntry--><rect fill="#FEFECE" filter="url(#f838yr27vhaxf)" height="176.0469" id="AffixEntry" style="stroke: #A80036; stroke-width: 1.5;" width="220" x="40" y="28.9531"/><ellipse cx="117.25" cy="44.9531" fill="#A9DCDF" rx="11" ry="11" style="stroke: #A80036; stroke-width: 1.0;"/><path d="M117.3594,40.2969 L116.2031,45.375 L118.5313,45.375 L117.3594,40.2969 Z M115.875,38.0625 L118.8594,38.0625 L122.2188,50.4531 L119.7656,50.4531 L119,47.3906 L115.7188,47.3906 L114.9688,50.4531 L112.5313,50.4531 L115.875,38.0625 Z "/><text fill="#000000" font-family="sans-serif" font-size="12" font-style="italic" lengthAdjust="spacingAndGlyphs" textLength="57" x="137.75" y="49.1074">AffixEntry</text><line style="stroke: #A80036; stroke-width: 1.5;" x1="41" x2="259" y1="60.9531" y2="60.9531"/><rect fill="none" height="6" style="stroke: #C82930; stroke-width: 1.0;" width="6" x="48" y="69.8555"/><text fill="#000000" font-family="sans-serif" font-size="11" lengthAdjust="spacingAndGlyphs" textLength="58" x="60" y="75.1636">string flag</text><rect fill="none" height="6" style="stroke: #C82930; stroke-width: 1.0;" width="6" x="48" y="82.6602"/><text fill="#000000" font-family="sans-serif" font-size="11" lengthAdjust="spacingAndGlyphs" textLength="79" x="60" y="87.9683">string append</text><rect fill="none" height="6" style="stroke: #C82930; stroke-width: 1.0;" width="6" x="48" y="95.4648"/><text fill="#000000" font-family="sans-serif" font-size="11" lengthAdjust="spacingAndGlyphs" textLength="87" x="60" y="100.7729">string stripping</text><rect fill="none" height="6" style="stroke: #C82930; stroke-width: 1.0;" width="6" x="48" y="108.2695"/><text fill="#000000" font-family="sans-serif" font-size="11" lengthAdjust="spacingAndGlyphs" textLength="109" x="60" y="113.5776">bool cross_product</text><rect fill="none" height="6" style="stroke: #C82930; stroke-width: 1.0;" width="6" x="48" y="121.0742"/><text fill="#000000" font-family="sans-serif" font-size="11" lengthAdjust="spacingAndGlyphs" textLength="87" x="60" y="126.3823">regex condition</text><line style="stroke: #A80036; stroke-width: 1.5;" x1="41" x2="259" y1="132.9766" y2="132.9766"/><ellipse cx="51" cy="144.8789" fill="#84BE84" rx="3" ry="3" style="stroke: #038048; stroke-width: 1.0;"/><text fill="#000000" font-family="sans-serif" font-size="11" lengthAdjust="spacingAndGlyphs" textLength="137" x="60" y="147.187">string getKey() : append</text><ellipse cx="51" cy="157.6836" fill="#84BE84" rx="3" ry="3" style="stroke: #038048; stroke-width: 1.0;"/><text fill="#000000" font-family="sans-serif" font-size="11" lengthAdjust="spacingAndGlyphs" textLength="194" x="60" y="159.9917">AffixEntry getFlagNext() : flag_next</text><ellipse cx="51" cy="170.4883" fill="#84BE84" rx="3" ry="3" style="stroke: #038048; stroke-width: 1.0;"/><text fill="#000000" font-family="sans-serif" font-size="11" lengthAdjust="spacingAndGlyphs" textLength="144" x="60" y="172.7964">AffixEntry getNext() : next</text><ellipse cx="51" cy="183.293" fill="#84BE84" rx="3" ry="3" style="stroke: #038048; stroke-width: 1.0;"/><text fill="#000000" font-family="sans-serif" font-size="11" lengthAdjust="spacingAndGlyphs" textLength="180" x="60" y="185.6011">AffixEntry getNextEQ() : next_eq</text><ellipse cx="51" cy="196.0977" fill="#84BE84" rx="3" ry="3" style="stroke: #038048; stroke-width: 1.0;"/><text fill="#000000" font-family="sans-serif" font-size="11" lengthAdjust="spacingAndGlyphs" textLength="179" x="60" y="198.4058">AffixEntry getNextNE() : next_ne</text><!--class PrefixEntry--><rect fill="#FEFECE" filter="url(#f838yr27vhaxf)" height="32" id="PrefixEntry" style="stroke: #A80036; stroke-width: 1.5;" width="98" x="6" y="286.9531"/><ellipse cx="21" cy="302.9531" fill="#ADD1B2" rx="11" ry="11" style="stroke: #A80036; stroke-width: 1.0;"/><path d="M23.9688,308.5938 Q23.3906,308.8906 22.75,309.0313 Q22.1094,309.1875 21.4063,309.1875 Q18.9063,309.1875 17.5781,307.5469 Q16.2656,305.8906 16.2656,302.7656 Q16.2656,299.6406 17.5781,297.9844 Q18.9063,296.3281 21.4063,296.3281 Q22.1094,296.3281 22.75,296.4844 Q23.4063,296.6406 23.9688,296.9375 L23.9688,299.6563 Q23.3438,299.0781 22.75,298.8125 Q22.1563,298.5313 21.5313,298.5313 Q20.1875,298.5313 19.5,299.6094 Q18.8125,300.6719 18.8125,302.7656 Q18.8125,304.8594 19.5,305.9375 Q20.1875,307 21.5313,307 Q22.1563,307 22.75,306.7344 Q23.3438,306.4531 23.9688,305.875 L23.9688,308.5938 Z "/><text fill="#000000" font-family="sans-serif" font-size="12" lengthAdjust="spacingAndGlyphs" textLength="66" x="35" y="307.1074">PrefixEntry</text><!--class SuffixEntry--><rect fill="#FEFECE" filter="url(#f838yr27vhaxf)" height="73.6094" id="SuffixEntry" style="stroke: #A80036; stroke-width: 1.5;" width="213" x="139.5" y="265.9531"/><ellipse cx="209.25" cy="281.9531" fill="#ADD1B2" rx="11" ry="11" style="stroke: #A80036; stroke-width: 1.0;"/><path d="M212.2188,287.5938 Q211.6406,287.8906 211,288.0313 Q210.3594,288.1875 209.6563,288.1875 Q207.1563,288.1875 205.8281,286.5469 Q204.5156,284.8906 204.5156,281.7656 Q204.5156,278.6406 205.8281,276.9844 Q207.1563,275.3281 209.6563,275.3281 Q210.3594,275.3281 211,275.4844 Q211.6563,275.6406 212.2188,275.9375 L212.2188,278.6563 Q211.5938,278.0781 211,277.8125 Q210.4063,277.5313 209.7813,277.5313 Q208.4375,277.5313 207.75,278.6094 Q207.0625,279.6719 207.0625,281.7656 Q207.0625,283.8594 207.75,284.9375 Q208.4375,286 209.7813,286 Q210.4063,286 211,285.7344 Q211.5938,285.4531 212.2188,284.875 L212.2188,287.5938 Z "/><text fill="#000000" font-family="sans-serif" font-size="12" lengthAdjust="spacingAndGlyphs" textLength="65" x="229.75" y="286.1074">SuffixEntry</text><line style="stroke: #A80036; stroke-width: 1.5;" x1="140.5" x2="351.5" y1="297.9531" y2="297.9531"/><rect fill="none" height="6" style="stroke: #C82930; stroke-width: 1.0;" width="6" x="147.5" y="306.8555"/><text fill="#000000" font-family="sans-serif" font-size="11" lengthAdjust="spacingAndGlyphs" textLength="84" x="159.5" y="312.1636">string rappend</text><line style="stroke: #A80036; stroke-width: 1.5;" x1="140.5" x2="351.5" y1="318.7578" y2="318.7578"/><ellipse cx="150.5" cy="330.6602" fill="#84BE84" rx="3" ry="3" style="stroke: #038048; stroke-width: 1.0;"/><text fill="#000000" font-family="sans-serif" font-size="11" lengthAdjust="spacingAndGlyphs" textLength="187" x="159.5" y="332.9683">string getKey() : reverse_append</text><!--link AffixEntry to PrefixEntry--><path d="M95.8701,222.9337 C83.0919,247.9521 70.9666,271.6921 63.2916,286.719 " fill="none" id="AffixEntry-PrefixEntry" style="stroke: #A80036; stroke-width: 1.0;"/><polygon fill="none" points="89.6727,219.6781,105.0039,205.0508,102.1406,226.0461,89.6727,219.6781" style="stroke: #A80036; stroke-width: 1.0;"/><!--link AffixEntry to SuffixEntry--><path d="M204.7831,223.0954 C212.6638,238.3642 220.2956,253.1508 226.8055,265.7637 " fill="none" id="AffixEntry-SuffixEntry" style="stroke: #A80036; stroke-width: 1.0;"/><polygon fill="none" points="198.4224,226.0338,195.4698,205.0508,210.8631,219.6127,198.4224,226.0338" style="stroke: #A80036; stroke-width: 1.0;"/><!--link AffixEntry to AffixEntry--><path d="M273.3409,112.3419 C286.5258,113.2324 295,114.7695 295,116.9531 C295,119.8052 280.5434,121.5543 260.0161,122.2004 " fill="none" id="AffixEntry-AffixEntry" style="stroke: #A80036; stroke-width: 1.0;"/><polygon fill="url(#g838yr27vhaxf0)" points="260.0161,111.7058,265.8185,115.9874,272.0024,112.2781,266.2,107.9965,260.0161,111.7058" style="stroke: #A80036; stroke-width: 1.0;"/><text fill="#000000" font-family="sans-serif" font-size="13" lengthAdjust="spacingAndGlyphs" textLength="58" x="301" y="121.52">flag_next</text><text fill="#000000" font-family="sans-serif" font-size="13" lengthAdjust="spacingAndGlyphs" textLength="24" x="267.8328" y="119.1258">0..1</text><!--link AffixEntry to AffixEntry--><path d="M273.4241,105.9151 C322.5172,105.5517 365,109.231 365,116.9531 C365,125.3652 314.5853,128.9798 260.1302,127.7968 " fill="none" id="AffixEntry-AffixEntry" style="stroke: #A80036; stroke-width: 1.0;"/><polygon fill="url(#g838yr27vhaxf0)" points="260.1302,106.1094,266.1881,110.0212,272.1289,105.9339,266.0711,102.0221,260.1302,106.1094" style="stroke: #A80036; stroke-width: 1.0;"/><text fill="#000000" font-family="sans-serif" font-size="13" lengthAdjust="spacingAndGlyphs" textLength="28" x="371" y="121.52">next</text><text fill="#000000" font-family="sans-serif" font-size="13" lengthAdjust="spacingAndGlyphs" textLength="24" x="267.9542" y="141.0416">0..1</text><!--link AffixEntry to AffixEntry--><path d="M273.2238,100.9293 C340.6043,98.4992 405,103.8404 405,116.9531 C405,130.9109 332.0363,136.0632 260.1752,132.4102 " fill="none" id="AffixEntry-AffixEntry" style="stroke: #A80036; stroke-width: 1.0;"/><polygon fill="url(#g838yr27vhaxf0)" points="260.1752,101.496,266.3431,105.2319,272.1639,100.9753,265.996,97.2394,260.1752,101.496" style="stroke: #A80036; stroke-width: 1.0;"/><text fill="#000000" font-family="sans-serif" font-size="13" lengthAdjust="spacingAndGlyphs" textLength="51" x="411" y="121.52">next_eq</text><text fill="#000000" font-family="sans-serif" font-size="13" lengthAdjust="spacingAndGlyphs" textLength="24" x="268.002" y="129.9896">0..1</text><!--link AffixEntry to AffixEntry--><path d="M273.3528,97.0248 C366.537,90.9126 468,97.5554 468,116.9531 C468,137.2632 356.768,143.5902 260.2704,135.9343 " fill="none" id="AffixEntry-AffixEntry" style="stroke: #A80036; stroke-width: 1.0;"/><polygon fill="url(#g838yr27vhaxf0)" points="260.2704,97.9719,266.5436,101.5282,272.2391,97.1053,265.9659,93.5491,260.2704,97.9719" style="stroke: #A80036; stroke-width: 1.0;"/><text fill="#000000" font-family="sans-serif" font-size="13" lengthAdjust="spacingAndGlyphs" textLength="51" x="474" y="121.52">next_ne</text><text fill="#000000" font-family="sans-serif" font-size="13" lengthAdjust="spacingAndGlyphs" textLength="24" x="268.1033" y="149.7004">0..1</text><!--
@startuml
skinparam backgroundcolor White|White

title Hunspell - Affix Entry

hide empty attributes
hide empty methods

AffixEntry <|- - PrefixEntry
AffixEntry <|- - SuffixEntry

AffixEntry o- - "0..1" AffixEntry : flag_next
AffixEntry o- - "0..1" AffixEntry : next
AffixEntry o- - "0..1" AffixEntry : next_eq
AffixEntry o- - "0..1" AffixEntry : next_ne

abstract class AffixEntry {
	-string flag
	-string append
	-string stripping
	-bool cross_product
	-regex condition
	+string getKey() : append
	+AffixEntry getFlagNext() : flag_next
	+AffixEntry getNext() : next
	+AffixEntry getNextEQ() : next_eq
	+AffixEntry getNextNE() : next_ne
}

class SuffixEntry {
	-string rappend
	+string getKey() : reverse_append
}

@enduml

PlantUML version 1.2018.12beta6(Unknown compile time)
(GPL source distribution)
Java Runtime: OpenJDK Runtime Environment
JVM: OpenJDK 64-Bit Server VM
Java Version: 10.0.2+13-Ubuntu-1ubuntu0.18.04.2
Operating System: Linux
OS Version: 4.15.0-36-generic
Default Encoding: UTF-8
Language: en
Country: US
--></g></svg>