<?xml version="1.0" encoding="UTF-8" standalone="yes"?><svg xmlns="http://www.w3.org/2000/svg" xmlns:xlink="http://www.w3.org/1999/xlink" height="361px" style="width:614px;height:361px;" version="1.1" viewBox="0 0 614 361" width="614px"><defs><linearGradient id="gr0" x1="0%" x2="100%" y1="50%" y2="50%"><stop offset="0%" stop-color="#FFFFFF"/><stop offset="100%" stop-color="#FFFFFF"/></linearGradient><filter height="300%" id="f1" width="300%" x="-1" y="-1"><feGaussianBlur result="blurOut" stdDeviation="2.0"/><feColorMatrix in="blurOut" result="blurOut2" type="matrix" values="0 0 0 0 0 0 0 0 0 0 0 0 0 0 0 0 0 0 .4 0"/><feOffset dx="4.0" dy="4.0" in="blurOut2" result="blurOut3"/><feBlend in="SourceGraphic" in2="blurOut3" mode="normal"/></filter></defs><g><rect fill="url(#gr0)" height="361" style="stroke: none; stroke-width: 1.0;" width="614" x="0" y="0"/><text fill="#000000" font-family="sans-serif" font-size="18" lengthAdjust="spacingAndGlyphs" textLength="189" x="252" y="16.708">Hunspell - Affix Entry</text><rect fill="#FEFECE" filter="url(#f1)" height="188.8516" style="stroke: #A80036; stroke-width: 1.5;" width="233" x="33.5" y="28.9531"/><ellipse cx="116.25" cy="44.9531" fill="#A9DCDF" rx="11" ry="11" style="stroke: #A80036; stroke-width: 1.0;"/><path d="M116.3594,40.0469 L115.2031,45.125 L117.5313,45.125 L116.3594,40.0469 Z M114.875,37.8125 L117.8594,37.8125 L121.2188,50.2031 L118.7656,50.2031 L118,47.1406 L114.7188,47.1406 L113.9688,50.2031 L111.5313,50.2031 L114.875,37.8125 Z "/><text fill="#000000" font-family="sans-serif" font-size="12" font-style="italic" lengthAdjust="spacingAndGlyphs" textLength="59" x="136.75" y="49.1074">AffixEntry</text><line style="stroke: #A80036; stroke-width: 1.5;" x1="34.5" x2="265.5" y1="60.9531" y2="60.9531"/><rect fill="none" height="6" style="stroke: #C82930; stroke-width: 1.0;" width="6" x="41.5" y="69.8555"/><text fill="#000000" font-family="sans-serif" font-size="11" lengthAdjust="spacingAndGlyphs" textLength="57" x="53.5" y="75.1636">string flag</text><rect fill="none" height="6" style="stroke: #C82930; stroke-width: 1.0;" width="6" x="41.5" y="82.6602"/><text fill="#000000" font-family="sans-serif" font-size="11" lengthAdjust="spacingAndGlyphs" textLength="78" x="53.5" y="87.9683">string append</text><rect fill="none" height="6" style="stroke: #C82930; stroke-width: 1.0;" width="6" x="41.5" y="95.4648"/><text fill="#000000" font-family="sans-serif" font-size="11" lengthAdjust="spacingAndGlyphs" textLength="85" x="53.5" y="100.7729">string stripping</text><rect fill="none" height="6" style="stroke: #C82930; stroke-width: 1.0;" width="6" x="41.5" y="108.2695"/><text fill="#000000" font-family="sans-serif" font-size="11" lengthAdjust="spacingAndGlyphs" textLength="107" x="53.5" y="113.5776">bool cross_product</text><rect fill="none" height="6" style="stroke: #C82930; stroke-width: 1.0;" width="6" x="41.5" y="121.0742"/><text fill="#000000" font-family="sans-serif" font-size="11" lengthAdjust="spacingAndGlyphs" textLength="88" x="53.5" y="126.3823">regex condition</text><line style="stroke: #A80036; stroke-width: 1.5;" x1="34.5" x2="265.5" y1="132.9766" y2="132.9766"/><ellipse cx="44.5" cy="144.8789" fill="#84BE84" rx="3" ry="3" style="stroke: #038048; stroke-width: 1.0;"/><text fill="#000000" font-family="sans-serif" font-size="11" lengthAdjust="spacingAndGlyphs" textLength="137" x="53.5" y="147.187">string getKey() : append</text><ellipse cx="44.5" cy="157.6836" fill="#84BE84" rx="3" ry="3" style="stroke: #038048; stroke-width: 1.0;"/><text fill="#000000" font-family="sans-serif" font-size="11" lengthAdjust="spacingAndGlyphs" textLength="199" x="53.5" y="159.9917">AffixEntry getNextFlag() : next_flag</text><ellipse cx="44.5" cy="170.4883" fill="#84BE84" rx="3" ry="3" style="stroke: #038048; stroke-width: 1.0;"/><text fill="#000000" font-family="sans-serif" font-size="11" lengthAdjust="spacingAndGlyphs" textLength="207" x="53.5" y="172.7964">AffixEntry getNextChar() : next_char</text><ellipse cx="44.5" cy="183.293" fill="#84BE84" rx="3" ry="3" style="stroke: #038048; stroke-width: 1.0;"/><text fill="#000000" font-family="sans-serif" font-size="11" lengthAdjust="spacingAndGlyphs" textLength="149" x="53.5" y="185.6011">AffixEntry getNext() : next</text><ellipse cx="44.5" cy="196.0977" fill="#84BE84" rx="3" ry="3" style="stroke: #038048; stroke-width: 1.0;"/><text fill="#000000" font-family="sans-serif" font-size="11" lengthAdjust="spacingAndGlyphs" textLength="185" x="53.5" y="198.4058">AffixEntry getNextEQ() : next_eq</text><ellipse cx="44.5" cy="208.9023" fill="#84BE84" rx="3" ry="3" style="stroke: #038048; stroke-width: 1.0;"/><text fill="#000000" font-family="sans-serif" font-size="11" lengthAdjust="spacingAndGlyphs" textLength="184" x="53.5" y="211.2104">AffixEntry getNextNE() : next_ne</text><rect fill="#FEFECE" filter="url(#f1)" height="32" style="stroke: #A80036; stroke-width: 1.5;" width="98" x="6" y="299.9531"/><ellipse cx="21" cy="315.9531" fill="#ADD1B2" rx="11" ry="11" style="stroke: #A80036; stroke-width: 1.0;"/><path d="M23.9688,321.5938 Q23.3906,321.8906 22.75,322.0391 Q22.1094,322.1875 21.4063,322.1875 Q18.9063,322.1875 17.5859,320.5391 Q16.2656,318.8906 16.2656,315.7656 Q16.2656,312.6406 17.5859,310.9844 Q18.9063,309.3281 21.4063,309.3281 Q22.1094,309.3281 22.7578,309.4844 Q23.4063,309.6406 23.9688,309.9375 L23.9688,312.6563 Q23.3438,312.0781 22.75,311.8047 Q22.1563,311.5313 21.5313,311.5313 Q20.1875,311.5313 19.5,312.6016 Q18.8125,313.6719 18.8125,315.7656 Q18.8125,317.8594 19.5,318.9297 Q20.1875,320 21.5313,320 Q22.1563,320 22.75,319.7266 Q23.3438,319.4531 23.9688,318.875 L23.9688,321.5938 Z "/><text fill="#000000" font-family="sans-serif" font-size="12" lengthAdjust="spacingAndGlyphs" textLength="66" x="35" y="320.1074">PrefixEntry</text><rect fill="#FEFECE" filter="url(#f1)" height="73.6094" style="stroke: #A80036; stroke-width: 1.5;" width="213" x="139.5" y="278.9531"/><ellipse cx="208.25" cy="294.9531" fill="#ADD1B2" rx="11" ry="11" style="stroke: #A80036; stroke-width: 1.0;"/><path d="M211.2188,300.5938 Q210.6406,300.8906 210,301.0391 Q209.3594,301.1875 208.6563,301.1875 Q206.1563,301.1875 204.8359,299.5391 Q203.5156,297.8906 203.5156,294.7656 Q203.5156,291.6406 204.8359,289.9844 Q206.1563,288.3281 208.6563,288.3281 Q209.3594,288.3281 210.0078,288.4844 Q210.6563,288.6406 211.2188,288.9375 L211.2188,291.6563 Q210.5938,291.0781 210,290.8047 Q209.4063,290.5313 208.7813,290.5313 Q207.4375,290.5313 206.75,291.6016 Q206.0625,292.6719 206.0625,294.7656 Q206.0625,296.8594 206.75,297.9297 Q207.4375,299 208.7813,299 Q209.4063,299 210,298.7266 Q210.5938,298.4531 211.2188,297.875 L211.2188,300.5938 Z "/><text fill="#000000" font-family="sans-serif" font-size="12" lengthAdjust="spacingAndGlyphs" textLength="67" x="228.75" y="299.1074">SuffixEntry</text><line style="stroke: #A80036; stroke-width: 1.5;" x1="140.5" x2="351.5" y1="310.9531" y2="310.9531"/><rect fill="none" height="6" style="stroke: #C82930; stroke-width: 1.0;" width="6" x="147.5" y="319.8555"/><text fill="#000000" font-family="sans-serif" font-size="11" lengthAdjust="spacingAndGlyphs" textLength="83" x="159.5" y="325.1636">string rappend</text><line style="stroke: #A80036; stroke-width: 1.5;" x1="140.5" x2="351.5" y1="331.7578" y2="331.7578"/><ellipse cx="150.5" cy="343.6602" fill="#84BE84" rx="3" ry="3" style="stroke: #038048; stroke-width: 1.0;"/><text fill="#000000" font-family="sans-serif" font-size="11" lengthAdjust="spacingAndGlyphs" textLength="187" x="159.5" y="345.9683">string getKey() : reverse_append</text><path d="M94.3168,236.1121 C81.7361,261.3401 69.9451,284.9842 62.6187,299.6757 " fill="none" style="stroke: #A80036; stroke-width: 1.0;"/><polygon fill="none" points="88.1451,232.8031,103.3349,218.0291,100.6737,239.0511,88.1451,232.8031" style="stroke: #A80036; stroke-width: 1.0;"/><path d="M206.196,235.9671 C213.975,251.4041 221.459,266.2539 227.796,278.8292 " fill="none" style="stroke: #A80036; stroke-width: 1.0;"/><polygon fill="none" points="199.906,239.0391,197.156,218.0291,212.408,232.7391,199.906,239.0391" style="stroke: #A80036; stroke-width: 1.0;"/><path d="M279.904,119.6341 C293.087,120.3911 301.5,121.6641 301.5,123.4531 C301.5,125.7901 287.149,127.2461 266.56,127.8211 " fill="none" style="stroke: #A80036; stroke-width: 1.0;"/><polygon fill="#FFFFFF" points="266.56,119.0851,272.3901,123.329,278.5498,119.5796,272.7197,115.3358,266.56,119.0851" style="stroke: #A80036; stroke-width: 1.0;"/><text fill="#000000" font-family="sans-serif" font-size="13" lengthAdjust="spacingAndGlyphs" textLength="61" x="307.5" y="128.02">next_flag</text><text fill="#000000" font-family="sans-serif" font-size="13" lengthAdjust="spacingAndGlyphs" textLength="24" x="274.3941" y="124.7057">0..1</text><path d="M279.621,114.1681 C330.545,113.9061 374.5,117.0011 374.5,123.4531 C374.5,130.4521 322.779,133.5011 266.546,132.5981 " fill="none" style="stroke: #A80036; stroke-width: 1.0;"/><polygon fill="#FFFFFF" points="266.546,114.3081,272.5883,118.2439,278.5453,114.1802,272.503,110.2444,266.546,114.3081" style="stroke: #A80036; stroke-width: 1.0;"/><text fill="#000000" font-family="sans-serif" font-size="13" lengthAdjust="spacingAndGlyphs" textLength="64" x="380.5" y="128.02">next_char</text><text fill="#000000" font-family="sans-serif" font-size="13" lengthAdjust="spacingAndGlyphs" textLength="24" x="274.3793" y="145.6879">0..1</text><path d="M279.989,110.2921 C363.671,107.5541 450.5,111.9411 450.5,123.4531 C450.5,135.5681 354.33,139.7921 266.869,136.1251 " fill="none" style="stroke: #A80036; stroke-width: 1.0;"/><polygon fill="#FFFFFF" points="266.869,110.7811,273.0138,114.5548,278.8607,110.3341,272.7158,106.5604,266.869,110.7811" style="stroke: #A80036; stroke-width: 1.0;"/><text fill="#000000" font-family="sans-serif" font-size="13" lengthAdjust="spacingAndGlyphs" textLength="29" x="456.5" y="128.02">next</text><text fill="#000000" font-family="sans-serif" font-size="13" lengthAdjust="spacingAndGlyphs" textLength="24" x="274.3192" y="149.3663">0..1</text><path d="M279.774,106.7471 C380.133,101.5271 491.5,107.0961 491.5,123.4531 C491.5,140.5271 370.156,145.8461 266.651,139.4101 " fill="none" style="stroke: #A80036; stroke-width: 1.0;"/><polygon fill="#FFFFFF" points="266.651,107.4961,272.869,111.1481,278.6315,106.813,272.4136,103.1611,266.651,107.4961" style="stroke: #A80036; stroke-width: 1.0;"/><text fill="#000000" font-family="sans-serif" font-size="13" lengthAdjust="spacingAndGlyphs" textLength="52" x="497.5" y="128.02">next_eq</text><text fill="#000000" font-family="sans-serif" font-size="13" lengthAdjust="spacingAndGlyphs" textLength="24" x="274.4907" y="137.0009">0..1</text><path d="M279.771,103.9701 C403.873,95.2201 555.5,101.7141 555.5,123.4531 C555.5,145.9611 392.952,152.1271 266.706,141.9501 " fill="none" style="stroke: #A80036; stroke-width: 1.0;"/><polygon fill="#FFFFFF" points="266.706,104.9561,272.9901,108.4932,278.672,104.0529,272.3879,100.5159,266.706,104.9561" style="stroke: #A80036; stroke-width: 1.0;"/><text fill="#000000" font-family="sans-serif" font-size="13" lengthAdjust="spacingAndGlyphs" textLength="52" x="561.5" y="128.02">next_ne</text><text fill="#000000" font-family="sans-serif" font-size="13" lengthAdjust="spacingAndGlyphs" textLength="24" x="274.7722" y="142.4279">0..1</text></g></svg>