<?xml version="1.0" encoding="UTF-8" standalone="yes"?><svg xmlns="http://www.w3.org/2000/svg" xmlns:xlink="http://www.w3.org/1999/xlink" height="348px" style="width:534px;height:348px;" version="1.1" viewBox="0 0 534 348" width="534px"><defs><linearGradient id="gr0" x1="0%" x2="100%" y1="50%" y2="50%"><stop offset="0%" stop-color="#FFFFFF"/><stop offset="100%" stop-color="#FFFFFF"/></linearGradient><filter height="300%" id="f1" width="300%" x="-1" y="-1"><feGaussianBlur result="blurOut" stdDeviation="2.0"/><feColorMatrix in="blurOut" result="blurOut2" type="matrix" values="0 0 0 0 0 0 0 0 0 0 0 0 0 0 0 0 0 0 .4 0"/><feOffset dx="4.0" dy="4.0" in="blurOut2" result="blurOut3"/><feBlend in="SourceGraphic" in2="blurOut3" mode="normal"/></filter></defs><g><rect fill="url(#gr0)" height="348" style="stroke: none; stroke-width: 1.0;" width="534" x="0" y="0"/><text fill="#000000" font-family="sans-serif" font-size="18" lengthAdjust="spacingAndGlyphs" textLength="189" x="203" y="16.708">Hunspell - Affix Entry</text><rect fill="#FEFECE" filter="url(#f1)" height="176.0469" style="stroke: #A80036; stroke-width: 1.5;" width="225" x="37.5" y="28.9531"/><ellipse cx="116.25" cy="44.9531" fill="#A9DCDF" rx="11" ry="11" style="stroke: #A80036; stroke-width: 1.0;"/><path d="M116.3594,40.0469 L115.2031,45.125 L117.5313,45.125 L116.3594,40.0469 Z M114.875,37.8125 L117.8594,37.8125 L121.2188,50.2031 L118.7656,50.2031 L118,47.1406 L114.7188,47.1406 L113.9688,50.2031 L111.5313,50.2031 L114.875,37.8125 Z "/><text fill="#000000" font-family="sans-serif" font-size="12" font-style="italic" lengthAdjust="spacingAndGlyphs" textLength="59" x="136.75" y="49.1074">AffixEntry</text><line style="stroke: #A80036; stroke-width: 1.5;" x1="38.5" x2="261.5" y1="60.9531" y2="60.9531"/><rect fill="none" height="6" style="stroke: #C82930; stroke-width: 1.0;" width="6" x="45.5" y="69.8555"/><text fill="#000000" font-family="sans-serif" font-size="11" lengthAdjust="spacingAndGlyphs" textLength="57" x="57.5" y="75.1636">string flag</text><rect fill="none" height="6" style="stroke: #C82930; stroke-width: 1.0;" width="6" x="45.5" y="82.6602"/><text fill="#000000" font-family="sans-serif" font-size="11" lengthAdjust="spacingAndGlyphs" textLength="78" x="57.5" y="87.9683">string append</text><rect fill="none" height="6" style="stroke: #C82930; stroke-width: 1.0;" width="6" x="45.5" y="95.4648"/><text fill="#000000" font-family="sans-serif" font-size="11" lengthAdjust="spacingAndGlyphs" textLength="85" x="57.5" y="100.7729">string stripping</text><rect fill="none" height="6" style="stroke: #C82930; stroke-width: 1.0;" width="6" x="45.5" y="108.2695"/><text fill="#000000" font-family="sans-serif" font-size="11" lengthAdjust="spacingAndGlyphs" textLength="107" x="57.5" y="113.5776">bool cross_product</text><rect fill="none" height="6" style="stroke: #C82930; stroke-width: 1.0;" width="6" x="45.5" y="121.0742"/><text fill="#000000" font-family="sans-serif" font-size="11" lengthAdjust="spacingAndGlyphs" textLength="88" x="57.5" y="126.3823">regex condition</text><line style="stroke: #A80036; stroke-width: 1.5;" x1="38.5" x2="261.5" y1="132.9766" y2="132.9766"/><ellipse cx="48.5" cy="144.8789" fill="#84BE84" rx="3" ry="3" style="stroke: #038048; stroke-width: 1.0;"/><text fill="#000000" font-family="sans-serif" font-size="11" lengthAdjust="spacingAndGlyphs" textLength="137" x="57.5" y="147.187">string getKey() : append</text><ellipse cx="48.5" cy="157.6836" fill="#84BE84" rx="3" ry="3" style="stroke: #038048; stroke-width: 1.0;"/><text fill="#000000" font-family="sans-serif" font-size="11" lengthAdjust="spacingAndGlyphs" textLength="199" x="57.5" y="159.9917">AffixEntry getFlagNext() : flag_next</text><ellipse cx="48.5" cy="170.4883" fill="#84BE84" rx="3" ry="3" style="stroke: #038048; stroke-width: 1.0;"/><text fill="#000000" font-family="sans-serif" font-size="11" lengthAdjust="spacingAndGlyphs" textLength="149" x="57.5" y="172.7964">AffixEntry getNext() : next</text><ellipse cx="48.5" cy="183.293" fill="#84BE84" rx="3" ry="3" style="stroke: #038048; stroke-width: 1.0;"/><text fill="#000000" font-family="sans-serif" font-size="11" lengthAdjust="spacingAndGlyphs" textLength="185" x="57.5" y="185.6011">AffixEntry getNextEQ() : next_eq</text><ellipse cx="48.5" cy="196.0977" fill="#84BE84" rx="3" ry="3" style="stroke: #038048; stroke-width: 1.0;"/><text fill="#000000" font-family="sans-serif" font-size="11" lengthAdjust="spacingAndGlyphs" textLength="184" x="57.5" y="198.4058">AffixEntry getNextNE() : next_ne</text><rect fill="#FEFECE" filter="url(#f1)" height="32" style="stroke: #A80036; stroke-width: 1.5;" width="98" x="6" y="286.9531"/><ellipse cx="21" cy="302.9531" fill="#ADD1B2" rx="11" ry="11" style="stroke: #A80036; stroke-width: 1.0;"/><path d="M23.9688,308.5938 Q23.3906,308.8906 22.75,309.0391 Q22.1094,309.1875 21.4063,309.1875 Q18.9063,309.1875 17.5859,307.5391 Q16.2656,305.8906 16.2656,302.7656 Q16.2656,299.6406 17.5859,297.9844 Q18.9063,296.3281 21.4063,296.3281 Q22.1094,296.3281 22.7578,296.4844 Q23.4063,296.6406 23.9688,296.9375 L23.9688,299.6563 Q23.3438,299.0781 22.75,298.8047 Q22.1563,298.5313 21.5313,298.5313 Q20.1875,298.5313 19.5,299.6016 Q18.8125,300.6719 18.8125,302.7656 Q18.8125,304.8594 19.5,305.9297 Q20.1875,307 21.5313,307 Q22.1563,307 22.75,306.7266 Q23.3438,306.4531 23.9688,305.875 L23.9688,308.5938 Z "/><text fill="#000000" font-family="sans-serif" font-size="12" lengthAdjust="spacingAndGlyphs" textLength="66" x="35" y="307.1074">PrefixEntry</text><rect fill="#FEFECE" filter="url(#f1)" height="73.6094" style="stroke: #A80036; stroke-width: 1.5;" width="213" x="139.5" y="265.9531"/><ellipse cx="208.25" cy="281.9531" fill="#ADD1B2" rx="11" ry="11" style="stroke: #A80036; stroke-width: 1.0;"/><path d="M211.2188,287.5938 Q210.6406,287.8906 210,288.0391 Q209.3594,288.1875 208.6563,288.1875 Q206.1563,288.1875 204.8359,286.5391 Q203.5156,284.8906 203.5156,281.7656 Q203.5156,278.6406 204.8359,276.9844 Q206.1563,275.3281 208.6563,275.3281 Q209.3594,275.3281 210.0078,275.4844 Q210.6563,275.6406 211.2188,275.9375 L211.2188,278.6563 Q210.5938,278.0781 210,277.8047 Q209.4063,277.5313 208.7813,277.5313 Q207.4375,277.5313 206.75,278.6016 Q206.0625,279.6719 206.0625,281.7656 Q206.0625,283.8594 206.75,284.9297 Q207.4375,286 208.7813,286 Q209.4063,286 210,285.7266 Q210.5938,285.4531 211.2188,284.875 L211.2188,287.5938 Z "/><text fill="#000000" font-family="sans-serif" font-size="12" lengthAdjust="spacingAndGlyphs" textLength="67" x="228.75" y="286.1074">SuffixEntry</text><line style="stroke: #A80036; stroke-width: 1.5;" x1="140.5" x2="351.5" y1="297.9531" y2="297.9531"/><rect fill="none" height="6" style="stroke: #C82930; stroke-width: 1.0;" width="6" x="147.5" y="306.8555"/><text fill="#000000" font-family="sans-serif" font-size="11" lengthAdjust="spacingAndGlyphs" textLength="83" x="159.5" y="312.1636">string rappend</text><line style="stroke: #A80036; stroke-width: 1.5;" x1="140.5" x2="351.5" y1="318.7578" y2="318.7578"/><ellipse cx="150.5" cy="330.6602" fill="#84BE84" rx="3" ry="3" style="stroke: #038048; stroke-width: 1.0;"/><text fill="#000000" font-family="sans-serif" font-size="11" lengthAdjust="spacingAndGlyphs" textLength="187" x="159.5" y="332.9683">string getKey() : reverse_append</text><path d="M95.7061,223.1121 C82.7028,248.2972 70.393,272.1393 62.7837,286.8773 " fill="none" style="stroke: #A80036; stroke-width: 1.0;"/><polygon fill="none" points="89.6086,219.6631,105.0039,205.1031,102.0484,226.0861,89.6086,219.6631" style="stroke: #A80036; stroke-width: 1.0;"/><path d="M204.864,223.1091 C212.812,238.3431 220.504,253.0859 227.043,265.6195 " fill="none" style="stroke: #A80036; stroke-width: 1.0;"/><polygon fill="none" points="198.515,226.0731,195.47,205.1031,210.927,219.5971,198.515,226.0731" style="stroke: #A80036; stroke-width: 1.0;"/><path d="M275.872,112.3691 C289.053,113.2631 297.5,114.7911 297.5,116.9531 C297.5,119.7761 283.09,121.5191 262.544,122.1801 " fill="none" style="stroke: #A80036; stroke-width: 1.0;"/><polygon fill="#FFFFFF" points="262.544,111.7261,268.344,116.0109,274.53,112.3051,268.73,108.0202,262.544,111.7261" style="stroke: #A80036; stroke-width: 1.0;"/><text fill="#000000" font-family="sans-serif" font-size="13" lengthAdjust="spacingAndGlyphs" textLength="61" x="303.5" y="121.52">flag_next</text><text fill="#000000" font-family="sans-serif" font-size="13" lengthAdjust="spacingAndGlyphs" textLength="24" x="270.5226" y="119.1042">0..1</text><path d="M275.662,105.9201 C326.365,105.5201 370.5,109.1981 370.5,116.9531 C370.5,125.3651 318.567,128.9801 262.653,127.7971 " fill="none" style="stroke: #A80036; stroke-width: 1.0;"/><polygon fill="#FFFFFF" points="262.653,106.1091,268.7104,110.0217,274.6517,105.9351,268.5943,102.0225,262.653,106.1091" style="stroke: #A80036; stroke-width: 1.0;"/><text fill="#000000" font-family="sans-serif" font-size="13" lengthAdjust="spacingAndGlyphs" textLength="29" x="376.5" y="121.52">next</text><text fill="#000000" font-family="sans-serif" font-size="13" lengthAdjust="spacingAndGlyphs" textLength="24" x="270.6386" y="141.0419">0..1</text><path d="M275.938,100.9291 C345.114,98.4991 411.5,103.8401 411.5,116.9531 C411.5,130.9111 336.281,136.0631 262.546,132.4101 " fill="none" style="stroke: #A80036; stroke-width: 1.0;"/><polygon fill="#FFFFFF" points="262.546,101.4961,268.7094,105.2394,274.5353,100.9898,268.3719,97.2465,262.546,101.4961" style="stroke: #A80036; stroke-width: 1.0;"/><text fill="#000000" font-family="sans-serif" font-size="13" lengthAdjust="spacingAndGlyphs" textLength="52" x="417.5" y="121.52">next_eq</text><text fill="#000000" font-family="sans-serif" font-size="13" lengthAdjust="spacingAndGlyphs" textLength="24" x="270.5247" y="129.9895">0..1</text><path d="M275.873,97.0171 C371.237,90.9181 475.5,97.5631 475.5,116.9531 C475.5,137.2341 361.432,143.5721 262.79,135.9671 " fill="none" style="stroke: #A80036; stroke-width: 1.0;"/><polygon fill="#FFFFFF" points="262.79,97.9391,269.0565,101.5072,274.7603,97.0951,268.4938,93.527,262.79,97.9391" style="stroke: #A80036; stroke-width: 1.0;"/><text fill="#000000" font-family="sans-serif" font-size="13" lengthAdjust="spacingAndGlyphs" textLength="52" x="481.5" y="121.52">next_ne</text><text fill="#000000" font-family="sans-serif" font-size="13" lengthAdjust="spacingAndGlyphs" textLength="24" x="270.3944" y="149.6523">0..1</text></g></svg>