<?xml version="1.0" encoding="UTF-8" standalone="no"?><svg xmlns="http://www.w3.org/2000/svg" xmlns:xlink="http://www.w3.org/1999/xlink" contentScriptType="application/ecmascript" contentStyleType="text/css" height="327px" preserveAspectRatio="none" style="width:920px;height:327px;" version="1.1" viewBox="0 0 920 327" width="920px" zoomAndPan="magnify"><defs><linearGradient id="gsiln6ln1mqv90" x1="0%" x2="100%" y1="50%" y2="50%"><stop offset="0%" stop-color="#FFFFFF"/><stop offset="100%" stop-color="#FFFFFF"/></linearGradient><filter height="300%" id="fsiln6ln1mqv9" width="300%" x="-1" y="-1"><feGaussianBlur result="blurOut" stdDeviation="2.0"/><feColorMatrix in="blurOut" result="blurOut2" type="matrix" values="0 0 0 0 0 0 0 0 0 0 0 0 0 0 0 0 0 0 .4 0"/><feOffset dx="4.0" dy="4.0" in="blurOut2" result="blurOut3"/><feBlend in="SourceGraphic" in2="blurOut3" mode="normal"/></filter></defs><g><rect fill="url(#gsiln6ln1mqv90)" height="327" style="stroke: none; stroke-width: 1.0;" width="920" x="0" y="0"/><text fill="#000000" font-family="Roboto Condensed" font-size="18" font-weight="bold" lengthAdjust="spacingAndGlyphs" textLength="176" x="375" y="18.8613">Nuspell - User hierarchy</text><!--entity user--><ellipse cx="516" cy="69.2031" fill="#FFFFFF" filter="url(#fsiln6ln1mqv9)" rx="8" ry="8" style="stroke: #000000; stroke-width: 2.0;"/><path d="M516,77.2031 L516,104.2031 M503,85.2031 L529,85.2031 M516,104.2031 L503,119.2031 M516,104.2031 L529,119.2031 " fill="none" filter="url(#fsiln6ln1mqv9)" style="stroke: #000000; stroke-width: 2.0;"/><text fill="#000000" font-family="Roboto Condensed" font-size="14" lengthAdjust="spacingAndGlyphs" textLength="24" x="504" y="140.873">user</text><text fill="#000000" font-family="Roboto Condensed" font-size="14" font-style="italic" lengthAdjust="spacingAndGlyphs" textLength="73" x="479.5" y="55.4092">«application»</text><!--entity dynamic--><ellipse cx="312" cy="60.2031" fill="#FFFFFF" filter="url(#fsiln6ln1mqv9)" rx="8" ry="8" style="stroke: #000000; stroke-width: 2.0;"/><path d="M312,68.2031 L312,95.2031 M299,76.2031 L325,76.2031 M312,95.2031 L299,110.2031 M312,95.2031 L325,110.2031 " fill="none" filter="url(#fsiln6ln1mqv9)" style="stroke: #000000; stroke-width: 2.0;"/><text fill="#000000" font-family="Roboto Condensed" font-size="14" lengthAdjust="spacingAndGlyphs" textLength="81" x="269.5" y="131.873">software using</text><text fill="#000000" font-family="Roboto Condensed" font-size="14" lengthAdjust="spacingAndGlyphs" textLength="85" x="269.5" y="150.3369">shared libraries</text><text fill="#000000" font-family="Roboto Condensed" font-size="14" font-style="italic" lengthAdjust="spacingAndGlyphs" textLength="112" x="256" y="46.4092">«dynamically linked»</text><!--entity static--><ellipse cx="661" cy="60.2031" fill="#FFFFFF" filter="url(#fsiln6ln1mqv9)" rx="8" ry="8" style="stroke: #000000; stroke-width: 2.0;"/><path d="M661,68.2031 L661,95.2031 M648,76.2031 L674,76.2031 M661,95.2031 L648,110.2031 M661,95.2031 L674,110.2031 " fill="none" filter="url(#fsiln6ln1mqv9)" style="stroke: #000000; stroke-width: 2.0;"/><text fill="#000000" font-family="Roboto Condensed" font-size="14" lengthAdjust="spacingAndGlyphs" textLength="88" x="598.5" y="131.873">software having</text><text fill="#000000" font-family="Roboto Condensed" font-size="14" lengthAdjust="spacingAndGlyphs" textLength="125" x="598.5" y="150.3369">self-contained libraries</text><text fill="#000000" font-family="Roboto Condensed" font-size="14" font-style="italic" lengthAdjust="spacingAndGlyphs" textLength="96" x="613" y="46.4092">«statically linked»</text><!--entity browser--><ellipse cx="58" cy="242.2031" fill="#FFFFFF" filter="url(#fsiln6ln1mqv9)" rx="8" ry="8" style="stroke: #000000; stroke-width: 2.0;"/><path d="M58,250.2031 L58,277.2031 M45,258.2031 L71,258.2031 M58,277.2031 L45,292.2031 M58,277.2031 L71,292.2031 " fill="none" filter="url(#fsiln6ln1mqv9)" style="stroke: #000000; stroke-width: 2.0;"/><text fill="#000000" font-family="Roboto Condensed" font-size="14" lengthAdjust="spacingAndGlyphs" textLength="104" x="6" y="313.873">user of online form</text><text fill="#000000" font-family="Roboto Condensed" font-size="14" font-style="italic" lengthAdjust="spacingAndGlyphs" textLength="80" x="18" y="228.4092">«web browser»</text><!--entity email--><ellipse cx="185" cy="242.2031" fill="#FFFFFF" filter="url(#fsiln6ln1mqv9)" rx="8" ry="8" style="stroke: #000000; stroke-width: 2.0;"/><path d="M185,250.2031 L185,277.2031 M172,258.2031 L198,258.2031 M185,277.2031 L172,292.2031 M185,277.2031 L198,292.2031 " fill="none" filter="url(#fsiln6ln1mqv9)" style="stroke: #000000; stroke-width: 2.0;"/><text fill="#000000" font-family="Roboto Condensed" font-size="14" lengthAdjust="spacingAndGlyphs" textLength="79" x="145.5" y="313.873">writer of email</text><text fill="#000000" font-family="Roboto Condensed" font-size="14" font-style="italic" lengthAdjust="spacingAndGlyphs" textLength="73" x="148.5" y="228.4092">«email client»</text><!--entity office--><ellipse cx="312" cy="242.2031" fill="#FFFFFF" filter="url(#fsiln6ln1mqv9)" rx="8" ry="8" style="stroke: #000000; stroke-width: 2.0;"/><path d="M312,250.2031 L312,277.2031 M299,258.2031 L325,258.2031 M312,277.2031 L299,292.2031 M312,277.2031 L325,292.2031 " fill="none" filter="url(#fsiln6ln1mqv9)" style="stroke: #000000; stroke-width: 2.0;"/><text fill="#000000" font-family="Roboto Condensed" font-size="14" lengthAdjust="spacingAndGlyphs" textLength="104" x="260" y="313.873">writer of document</text><text fill="#000000" font-family="Roboto Condensed" font-size="14" font-style="italic" lengthAdjust="spacingAndGlyphs" textLength="71" x="276.5" y="228.4092">«office suite»</text><!--entity command--><ellipse cx="455" cy="242.2031" fill="#FFFFFF" filter="url(#fsiln6ln1mqv9)" rx="8" ry="8" style="stroke: #000000; stroke-width: 2.0;"/><path d="M455,250.2031 L455,277.2031 M442,258.2031 L468,258.2031 M455,277.2031 L442,292.2031 M455,277.2031 L468,292.2031 " fill="none" filter="url(#fsiln6ln1mqv9)" style="stroke: #000000; stroke-width: 2.0;"/><text fill="#000000" font-family="Roboto Condensed" font-size="14" lengthAdjust="spacingAndGlyphs" textLength="108" x="401" y="313.873">power user or script</text><text fill="#000000" font-family="Roboto Condensed" font-size="14" font-style="italic" lengthAdjust="spacingAndGlyphs" textLength="112" x="399" y="228.4092">«command-line tool»</text><!--entity graphics--><ellipse cx="597" cy="242.2031" fill="#FFFFFF" filter="url(#fsiln6ln1mqv9)" rx="8" ry="8" style="stroke: #000000; stroke-width: 2.0;"/><path d="M597,250.2031 L597,277.2031 M584,258.2031 L610,258.2031 M597,277.2031 L584,292.2031 M597,277.2031 L610,292.2031 " fill="none" filter="url(#fsiln6ln1mqv9)" style="stroke: #000000; stroke-width: 2.0;"/><text fill="#000000" font-family="Roboto Condensed" font-size="14" lengthAdjust="spacingAndGlyphs" textLength="102" x="546" y="313.873">graphical designer</text><text fill="#000000" font-family="Roboto Condensed" font-size="14" font-style="italic" lengthAdjust="spacingAndGlyphs" textLength="93" x="550.5" y="228.4092">«graphics editor»</text><!--entity dtp--><ellipse cx="726" cy="242.2031" fill="#FFFFFF" filter="url(#fsiln6ln1mqv9)" rx="8" ry="8" style="stroke: #000000; stroke-width: 2.0;"/><path d="M726,250.2031 L726,277.2031 M713,258.2031 L739,258.2031 M726,277.2031 L713,292.2031 M726,277.2031 L739,292.2031 " fill="none" filter="url(#fsiln6ln1mqv9)" style="stroke: #000000; stroke-width: 2.0;"/><text fill="#000000" font-family="Roboto Condensed" font-size="14" lengthAdjust="spacingAndGlyphs" textLength="56" x="698" y="313.873">typesetter</text><text fill="#000000" font-family="Roboto Condensed" font-size="14" font-style="italic" lengthAdjust="spacingAndGlyphs" textLength="85" x="683.5" y="228.4092">«DTP software»</text><!--entity brwsr--><ellipse cx="856" cy="242.2031" fill="#FFFFFF" filter="url(#fsiln6ln1mqv9)" rx="8" ry="8" style="stroke: #000000; stroke-width: 2.0;"/><path d="M856,250.2031 L856,277.2031 M843,258.2031 L869,258.2031 M856,277.2031 L843,292.2031 M856,277.2031 L869,292.2031 " fill="none" filter="url(#fsiln6ln1mqv9)" style="stroke: #000000; stroke-width: 2.0;"/><text fill="#000000" font-family="Roboto Condensed" font-size="14" lengthAdjust="spacingAndGlyphs" textLength="104" x="804" y="313.873">user of online form</text><text fill="#000000" font-family="Roboto Condensed" font-size="14" font-style="italic" lengthAdjust="spacingAndGlyphs" textLength="80" x="816" y="228.4092">«web browser»</text><!--link dynamic to user--><path d="M368.1797,92.7393 C398.4286,92.7393 428.6775,92.7393 458.9265,92.7393 " fill="none" id="dynamic-user" style="stroke: #000000; stroke-width: 1.0;"/><polygon fill="none" points="459.3337,85.7392,479.3336,92.7393,459.3336,99.7392,459.3337,85.7392" style="stroke: #000000; stroke-width: 1.0;"/><!--link user to static--><path d="M572.553,92.7393 C581.1328,92.7393 589.7127,92.7393 598.2926,92.7393 " fill="none" id="user-static" style="stroke: #000000; stroke-width: 1.0;"/><polygon fill="none" points="572.5332,99.7392,552.5332,92.7393,572.5332,85.7392,572.5332,99.7392" style="stroke: #000000; stroke-width: 1.0;"/><!--link dynamic to browser--><path d="M238.7882,139.514 C204.7925,161.5821 164.0179,188.5491 128,213.7393 C122.1692,217.8173 116.1199,222.1506 110.1289,226.5081 " fill="none" id="dynamic-browser" style="stroke: #000000; stroke-width: 1.0;"/><polygon fill="none" points="235.2915,133.4391,255.8868,128.4557,242.8944,145.1948,235.2915,133.4391" style="stroke: #000000; stroke-width: 1.0;"/><!--link dynamic to email--><path d="M254.9328,170.4765 C244.211,185.0817 233.2421,200.0237 223.2656,213.6137 " fill="none" id="dynamic-email" style="stroke: #000000; stroke-width: 1.0;"/><polygon fill="none" points="249.3888,166.1995,266.867,154.2197,260.6743,174.4843,249.3888,166.1995" style="stroke: #000000; stroke-width: 1.0;"/><!--link dynamic to office--><path d="M312,174.252 C312,187.6424 312,201.1927 312,213.6137 " fill="none" id="dynamic-office" style="stroke: #000000; stroke-width: 1.0;"/><polygon fill="none" points="305.0001,174.2198,312,154.2197,319.0001,174.2197,305.0001,174.2198" style="stroke: #000000; stroke-width: 1.0;"/><!--link dynamic to command--><path d="M375.8674,170.0055 C388.0636,184.7602 400.5593,199.8775 411.9135,213.6137 " fill="none" id="dynamic-command" style="stroke: #000000; stroke-width: 1.0;"/><polygon fill="none" points="370.166,174.095,362.8191,154.2197,380.9568,165.1754,370.166,174.095" style="stroke: #000000; stroke-width: 1.0;"/><!--link static to graphics--><path d="M631.1946,173.3071 C626.1275,187.0041 620.9866,200.9004 616.2835,213.6137 " fill="none" id="static-graphics" style="stroke: #000000; stroke-width: 1.0;"/><polygon fill="none" points="624.7513,170.5486,638.2558,154.2197,637.8817,175.4061,624.7513,170.5486" style="stroke: #000000; stroke-width: 1.0;"/><!--link static to dtp--><path d="M691.2711,173.3071 C696.4174,187.0041 701.6386,200.9004 706.4152,213.6137 " fill="none" id="static-dtp" style="stroke: #000000; stroke-width: 1.0;"/><polygon fill="none" points="684.5812,175.4039,684.0996,154.2197,697.6867,170.4798,684.5812,175.4039" style="stroke: #000000; stroke-width: 1.0;"/><!--link static to brwsr--><path d="M738.7656,161.7314 C760.6725,181.1667 783.9666,201.8327 803.9702,219.5796 " fill="none" id="static-brwsr" style="stroke: #000000; stroke-width: 1.0;"/><polygon fill="none" points="733.8192,166.7008,723.5038,148.1914,743.1103,156.2281,733.8192,166.7008" style="stroke: #000000; stroke-width: 1.0;"/><!--
@startuml
skinparam BackgroundColor White|White
skinparam ArrowColor Black
skinparam DefaultFontName Roboto Condensed
skinparam TitleFontStyle Bold

skinparam NoteBackgroundColor White
skinparam NoteBorderColor Black

skinparam UsecaseBackgroundColor White
skinparam ActorBackgroundColor White
skinparam UsecaseBorderColor Black
skinparam ActorBorderColor Black

skinparam usecase {
	BackgroundColor<<for now out of scope>> Gray
}

skinparam StateBackgroundColor White
skinparam StateBorderColor Black

skinparam ActivityBackgroundColor White
skinparam ActivityDiamondBackgroundColor White
skinparam ActivityBorderColor Black
skinparam ActivityDiamondBorderColor Black

title Nuspell - User hierarchy

actor user as "user" <<application>>

actor dynamic as " software using\nshared libraries" <<dynamically linked>>
actor static as " software having\nself-contained libraries" <<statically linked>>

actor browser as "user of online form" <<web browser>>
actor email as "writer of email" <<email client>>
actor office as "writer of document" <<office suite>>
actor command as "power user or script" <<command-line tool>>

actor graphics as "graphical designer" <<graphics editor>>
actor dtp as "typesetter" <<DTP software>>
actor brwsr as "user of online form" <<web browser>>

user <|-left- dynamic
user <|-right- static
dynamic <|- - browser
dynamic <|- - email
dynamic <|- - office
dynamic <|- - command
static <|- - graphics
static <|- - dtp
static <|- - brwsr

@enduml

PlantUML version 1.2018.06(Mon May 21 12:34:53 CEST 2018)
(GPL source distribution)
Java Runtime: OpenJDK Runtime Environment
JVM: OpenJDK 64-Bit Server VM
Java Version: 10.0.2+13-Ubuntu-1ubuntu0.18.04.2
Operating System: Linux
OS Version: 4.15.0-33-generic
Default Encoding: UTF-8
Language: en
Country: US
--></g></svg>