<?xml version="1.0" encoding="UTF-8" standalone="no"?><svg xmlns="http://www.w3.org/2000/svg" xmlns:xlink="http://www.w3.org/1999/xlink" contentScriptType="application/ecmascript" contentStyleType="text/css" height="327px" preserveAspectRatio="none" style="width:942px;height:327px;" version="1.1" viewBox="0 0 942 327" width="942px" zoomAndPan="magnify"><defs><linearGradient id="g1nfq3snayf9ta0" x1="0%" x2="100%" y1="50%" y2="50%"><stop offset="0%" stop-color="#FFFFFF"/><stop offset="100%" stop-color="#FFFFFF"/></linearGradient><filter height="300%" id="f1nfq3snayf9ta" width="300%" x="-1" y="-1"><feGaussianBlur result="blurOut" stdDeviation="2.0"/><feColorMatrix in="blurOut" result="blurOut2" type="matrix" values="0 0 0 0 0 0 0 0 0 0 0 0 0 0 0 0 0 0 .4 0"/><feOffset dx="4.0" dy="4.0" in="blurOut2" result="blurOut3"/><feBlend in="SourceGraphic" in2="blurOut3" mode="normal"/></filter></defs><g><rect fill="url(#g1nfq3snayf9ta0)" height="327" style="stroke: none; stroke-width: 1.0;" width="942" x="0" y="0"/><text fill="#000000" font-family="Roboto Condensed" font-size="18" font-weight="bold" lengthAdjust="spacingAndGlyphs" textLength="176" x="386" y="18.8613">Nuspell - User hierarchy</text><!--entity user--><ellipse cx="522" cy="69.2031" fill="#FFFFFF" filter="url(#f1nfq3snayf9ta)" rx="8" ry="8" style="stroke: #000000; stroke-width: 2.0;"/><path d="M522,77.2031 L522,104.2031 M509,85.2031 L535,85.2031 M522,104.2031 L509,119.2031 M522,104.2031 L535,119.2031 " fill="none" filter="url(#f1nfq3snayf9ta)" style="stroke: #000000; stroke-width: 2.0;"/><text fill="#000000" font-family="Roboto Condensed" font-size="14" lengthAdjust="spacingAndGlyphs" textLength="24" x="510" y="140.873">user</text><text fill="#000000" font-family="Roboto Condensed" font-size="14" font-style="italic" lengthAdjust="spacingAndGlyphs" textLength="73" x="485.5" y="55.4092">«application»</text><!--entity dynamic--><ellipse cx="312" cy="60.2031" fill="#FFFFFF" filter="url(#f1nfq3snayf9ta)" rx="8" ry="8" style="stroke: #000000; stroke-width: 2.0;"/><path d="M312,68.2031 L312,95.2031 M299,76.2031 L325,76.2031 M312,95.2031 L299,110.2031 M312,95.2031 L325,110.2031 " fill="none" filter="url(#f1nfq3snayf9ta)" style="stroke: #000000; stroke-width: 2.0;"/><text fill="#000000" font-family="Roboto Condensed" font-size="14" lengthAdjust="spacingAndGlyphs" textLength="81" x="269.5" y="131.873">software using</text><text fill="#000000" font-family="Roboto Condensed" font-size="14" lengthAdjust="spacingAndGlyphs" textLength="85" x="269.5" y="150.3369">shared libraries</text><text fill="#000000" font-family="Roboto Condensed" font-size="14" font-style="italic" lengthAdjust="spacingAndGlyphs" textLength="112" x="256" y="46.4092">«dynamically linked»</text><!--entity static--><ellipse cx="667" cy="60.2031" fill="#FFFFFF" filter="url(#f1nfq3snayf9ta)" rx="8" ry="8" style="stroke: #000000; stroke-width: 2.0;"/><path d="M667,68.2031 L667,95.2031 M654,76.2031 L680,76.2031 M667,95.2031 L654,110.2031 M667,95.2031 L680,110.2031 " fill="none" filter="url(#f1nfq3snayf9ta)" style="stroke: #000000; stroke-width: 2.0;"/><text fill="#000000" font-family="Roboto Condensed" font-size="14" lengthAdjust="spacingAndGlyphs" textLength="88" x="604.5" y="131.873">software having</text><text fill="#000000" font-family="Roboto Condensed" font-size="14" lengthAdjust="spacingAndGlyphs" textLength="125" x="604.5" y="150.3369">self-contained libraries</text><text fill="#000000" font-family="Roboto Condensed" font-size="14" font-style="italic" lengthAdjust="spacingAndGlyphs" textLength="96" x="619" y="46.4092">«statically linked»</text><!--entity browser--><ellipse cx="58" cy="242.2031" fill="#FFFFFF" filter="url(#f1nfq3snayf9ta)" rx="8" ry="8" style="stroke: #000000; stroke-width: 2.0;"/><path d="M58,250.2031 L58,277.2031 M45,258.2031 L71,258.2031 M58,277.2031 L45,292.2031 M58,277.2031 L71,292.2031 " fill="none" filter="url(#f1nfq3snayf9ta)" style="stroke: #000000; stroke-width: 2.0;"/><text fill="#000000" font-family="Roboto Condensed" font-size="14" lengthAdjust="spacingAndGlyphs" textLength="104" x="6" y="313.873">user of online form</text><text fill="#000000" font-family="Roboto Condensed" font-size="14" font-style="italic" lengthAdjust="spacingAndGlyphs" textLength="80" x="18" y="228.4092">«web browser»</text><!--entity email--><ellipse cx="185" cy="242.2031" fill="#FFFFFF" filter="url(#f1nfq3snayf9ta)" rx="8" ry="8" style="stroke: #000000; stroke-width: 2.0;"/><path d="M185,250.2031 L185,277.2031 M172,258.2031 L198,258.2031 M185,277.2031 L172,292.2031 M185,277.2031 L198,292.2031 " fill="none" filter="url(#f1nfq3snayf9ta)" style="stroke: #000000; stroke-width: 2.0;"/><text fill="#000000" font-family="Roboto Condensed" font-size="14" lengthAdjust="spacingAndGlyphs" textLength="79" x="145.5" y="313.873">writer of email</text><text fill="#000000" font-family="Roboto Condensed" font-size="14" font-style="italic" lengthAdjust="spacingAndGlyphs" textLength="73" x="148.5" y="228.4092">«email client»</text><!--entity office--><ellipse cx="312" cy="242.2031" fill="#FFFFFF" filter="url(#f1nfq3snayf9ta)" rx="8" ry="8" style="stroke: #000000; stroke-width: 2.0;"/><path d="M312,250.2031 L312,277.2031 M299,258.2031 L325,258.2031 M312,277.2031 L299,292.2031 M312,277.2031 L325,292.2031 " fill="none" filter="url(#f1nfq3snayf9ta)" style="stroke: #000000; stroke-width: 2.0;"/><text fill="#000000" font-family="Roboto Condensed" font-size="14" lengthAdjust="spacingAndGlyphs" textLength="104" x="260" y="313.873">writer of document</text><text fill="#000000" font-family="Roboto Condensed" font-size="14" font-style="italic" lengthAdjust="spacingAndGlyphs" textLength="71" x="276.5" y="228.4092">«office suite»</text><!--entity command--><ellipse cx="455" cy="242.2031" fill="#FFFFFF" filter="url(#f1nfq3snayf9ta)" rx="8" ry="8" style="stroke: #000000; stroke-width: 2.0;"/><path d="M455,250.2031 L455,277.2031 M442,258.2031 L468,258.2031 M455,277.2031 L442,292.2031 M455,277.2031 L468,292.2031 " fill="none" filter="url(#f1nfq3snayf9ta)" style="stroke: #000000; stroke-width: 2.0;"/><text fill="#000000" font-family="Roboto Condensed" font-size="14" lengthAdjust="spacingAndGlyphs" textLength="108" x="401" y="313.873">power user or script</text><text fill="#000000" font-family="Roboto Condensed" font-size="14" font-style="italic" lengthAdjust="spacingAndGlyphs" textLength="112" x="399" y="228.4092">«command-line tool»</text><!--entity graphics--><ellipse cx="597" cy="242.2031" fill="#FFFFFF" filter="url(#f1nfq3snayf9ta)" rx="8" ry="8" style="stroke: #000000; stroke-width: 2.0;"/><path d="M597,250.2031 L597,277.2031 M584,258.2031 L610,258.2031 M597,277.2031 L584,292.2031 M597,277.2031 L610,292.2031 " fill="none" filter="url(#f1nfq3snayf9ta)" style="stroke: #000000; stroke-width: 2.0;"/><text fill="#000000" font-family="Roboto Condensed" font-size="14" lengthAdjust="spacingAndGlyphs" textLength="102" x="546" y="313.873">graphical designer</text><text fill="#000000" font-family="Roboto Condensed" font-size="14" font-style="italic" lengthAdjust="spacingAndGlyphs" textLength="93" x="550.5" y="228.4092">«graphics editor»</text><!--entity dtp--><ellipse cx="737" cy="242.2031" fill="#FFFFFF" filter="url(#f1nfq3snayf9ta)" rx="8" ry="8" style="stroke: #000000; stroke-width: 2.0;"/><path d="M737,250.2031 L737,277.2031 M724,258.2031 L750,258.2031 M737,277.2031 L724,292.2031 M737,277.2031 L750,292.2031 " fill="none" filter="url(#f1nfq3snayf9ta)" style="stroke: #000000; stroke-width: 2.0;"/><text fill="#000000" font-family="Roboto Condensed" font-size="14" lengthAdjust="spacingAndGlyphs" textLength="56" x="709" y="313.873">typesetter</text><text fill="#000000" font-family="Roboto Condensed" font-size="14" font-style="italic" lengthAdjust="spacingAndGlyphs" textLength="108" x="683" y="228.4092">«desktop publisher»</text><!--entity brwsr--><ellipse cx="878" cy="242.2031" fill="#FFFFFF" filter="url(#f1nfq3snayf9ta)" rx="8" ry="8" style="stroke: #000000; stroke-width: 2.0;"/><path d="M878,250.2031 L878,277.2031 M865,258.2031 L891,258.2031 M878,277.2031 L865,292.2031 M878,277.2031 L891,292.2031 " fill="none" filter="url(#f1nfq3snayf9ta)" style="stroke: #000000; stroke-width: 2.0;"/><text fill="#000000" font-family="Roboto Condensed" font-size="14" lengthAdjust="spacingAndGlyphs" textLength="104" x="826" y="313.873">user of online form</text><text fill="#000000" font-family="Roboto Condensed" font-size="14" font-style="italic" lengthAdjust="spacingAndGlyphs" textLength="80" x="838" y="228.4092">«web browser»</text><!--link dynamic to user--><path d="M368.1914,92.7393 C400.5321,92.7393 432.8729,92.7393 465.2136,92.7393 " fill="none" id="dynamic-user" style="stroke: #000000; stroke-width: 1.0;"/><polygon fill="none" points="465.3503,85.7392,485.3503,92.7393,465.3503,99.7392,465.3503,85.7392" style="stroke: #000000; stroke-width: 1.0;"/><!--link user to static--><path d="M578.553,92.7393 C587.1328,92.7393 595.7127,92.7393 604.2926,92.7393 " fill="none" id="user-static" style="stroke: #000000; stroke-width: 1.0;"/><polygon fill="none" points="578.5332,99.7392,558.5332,92.7393,578.5332,85.7392,578.5332,99.7392" style="stroke: #000000; stroke-width: 1.0;"/><!--link dynamic to browser--><path d="M238.7882,139.514 C204.7925,161.5821 164.0179,188.5491 128,213.7393 C122.1692,217.8173 116.1199,222.1506 110.1289,226.5081 " fill="none" id="dynamic-browser" style="stroke: #000000; stroke-width: 1.0;"/><polygon fill="none" points="235.2915,133.4391,255.8868,128.4557,242.8944,145.1948,235.2915,133.4391" style="stroke: #000000; stroke-width: 1.0;"/><!--link dynamic to email--><path d="M254.9328,170.4765 C244.211,185.0817 233.2421,200.0237 223.2656,213.6137 " fill="none" id="dynamic-email" style="stroke: #000000; stroke-width: 1.0;"/><polygon fill="none" points="249.3888,166.1995,266.867,154.2197,260.6743,174.4843,249.3888,166.1995" style="stroke: #000000; stroke-width: 1.0;"/><!--link dynamic to office--><path d="M312,174.252 C312,187.6424 312,201.1927 312,213.6137 " fill="none" id="dynamic-office" style="stroke: #000000; stroke-width: 1.0;"/><polygon fill="none" points="305.0001,174.2198,312,154.2197,319.0001,174.2197,305.0001,174.2198" style="stroke: #000000; stroke-width: 1.0;"/><!--link dynamic to command--><path d="M375.8674,170.0055 C388.0636,184.7602 400.5593,199.8775 411.9135,213.6137 " fill="none" id="dynamic-command" style="stroke: #000000; stroke-width: 1.0;"/><polygon fill="none" points="370.166,174.095,362.8191,154.2197,380.9568,165.1754,370.166,174.095" style="stroke: #000000; stroke-width: 1.0;"/><!--link static to graphics--><path d="M634.5914,172.8348 C628.9875,186.6845 623.2945,200.7543 618.0913,213.6137 " fill="none" id="static-graphics" style="stroke: #000000; stroke-width: 1.0;"/><polygon fill="none" points="628.1329,170.134,642.1235,154.2197,641.1107,175.3852,628.1329,170.134" style="stroke: #000000; stroke-width: 1.0;"/><!--link static to dtp--><path d="M699.4086,172.8348 C705.0125,186.6845 710.7055,200.7543 715.9087,213.6137 " fill="none" id="static-dtp" style="stroke: #000000; stroke-width: 1.0;"/><polygon fill="none" points="692.8893,175.3852,691.8765,154.2197,705.8671,170.134,692.8893,175.3852" style="stroke: #000000; stroke-width: 1.0;"/><!--link static to brwsr--><path d="M745.2119,156.8656 C772.0933,178.9058 801.5127,203.0269 825.8131,222.951 " fill="none" id="static-brwsr" style="stroke: #000000; stroke-width: 1.0;"/><polygon fill="none" points="740.7635,162.2705,729.7357,144.1766,749.64,151.4442,740.7635,162.2705" style="stroke: #000000; stroke-width: 1.0;"/><!--
@startuml
skinparam BackgroundColor White|White
skinparam ArrowColor Black
skinparam DefaultFontName Roboto Condensed
skinparam TitleFontStyle Bold

skinparam NoteBackgroundColor White
skinparam NoteBorderColor Black

skinparam UsecaseBackgroundColor White
skinparam ActorBackgroundColor White
skinparam UsecaseBorderColor Black
skinparam ActorBorderColor Black

skinparam usecase {
	BackgroundColor<<for now out of scope>> Gray
}

skinparam StateBackgroundColor White
skinparam StateBorderColor Black

skinparam ActivityBackgroundColor White
skinparam ActivityDiamondBackgroundColor White
skinparam ActivityBorderColor Black
skinparam ActivityDiamondBorderColor Black

title Nuspell - User hierarchy

actor user as "user" <<application>>

actor dynamic as " software using\nshared libraries" <<dynamically linked>>
actor static as " software having\nself-contained libraries" <<statically linked>>

actor browser as "user of online form" <<web browser>>
actor email as "writer of email" <<email client>>
actor office as "writer of document" <<office suite>>
actor command as "power user or script" <<command-line tool>>

actor graphics as "graphical designer" <<graphics editor>>
actor dtp as "typesetter" <<desktop publisher>>
actor brwsr as "user of online form" <<web browser>>

user <|-left- dynamic
user <|-right- static
dynamic <|- - browser
dynamic <|- - email
dynamic <|- - office
dynamic <|- - command
static <|- - graphics
static <|- - dtp
static <|- - brwsr

@enduml

PlantUML version 1.2018.06(Mon May 21 12:34:53 CEST 2018)
(GPL source distribution)
Java Runtime: OpenJDK Runtime Environment
JVM: OpenJDK 64-Bit Server VM
Java Version: 10.0.2+13-Ubuntu-1ubuntu0.18.04.2
Operating System: Linux
OS Version: 4.15.0-33-generic
Default Encoding: UTF-8
Language: en
Country: US
--></g></svg>