<?xml version="1.0" encoding="UTF-8" standalone="no"?><svg xmlns="http://www.w3.org/2000/svg" xmlns:xlink="http://www.w3.org/1999/xlink" contentScriptType="application/ecmascript" contentStyleType="text/css" height="314px" preserveAspectRatio="none" style="width:951px;height:314px;" version="1.1" viewBox="0 0 951 314" width="951px" zoomAndPan="magnify"><defs><linearGradient id="g1xdmloqbnf9970" x1="0%" x2="100%" y1="50%" y2="50%"><stop offset="0%" stop-color="#FFFFFF"/><stop offset="100%" stop-color="#FFFFFF"/></linearGradient><filter height="300%" id="f1xdmloqbnf997" width="300%" x="-1" y="-1"><feGaussianBlur result="blurOut" stdDeviation="2.0"/><feColorMatrix in="blurOut" result="blurOut2" type="matrix" values="0 0 0 0 0 0 0 0 0 0 0 0 0 0 0 0 0 0 .4 0"/><feOffset dx="4.0" dy="4.0" in="blurOut2" result="blurOut3"/><feBlend in="SourceGraphic" in2="blurOut3" mode="normal"/></filter></defs><g><rect fill="url(#g1xdmloqbnf9970)" height="314" style="stroke: none; stroke-width: 1.0;" width="951" x="0" y="0"/><text fill="#000000" font-family="Roboto Condensed" font-size="18" font-weight="bold" lengthAdjust="spacingAndGlyphs" textLength="184" x="386.5" y="16.6992">Nuspell - User hierarchy</text><!--entity user--><ellipse cx="533" cy="63.5" fill="#FFFFFF" filter="url(#f1xdmloqbnf997)" rx="8" ry="8" style="stroke: #000000; stroke-width: 2.0;"/><path d="M533,71.5 L533,98.5 M520,79.5 L546,79.5 M533,98.5 L520,113.5 M533,98.5 L546,113.5 " fill="none" filter="url(#f1xdmloqbnf997)" style="stroke: #000000; stroke-width: 2.0;"/><text fill="#000000" font-family="Roboto Condensed" font-size="14" lengthAdjust="spacingAndGlyphs" textLength="25" x="520.5" y="133.4883">user</text><text fill="#000000" font-family="Roboto Condensed" font-size="14" font-style="italic" lengthAdjust="spacingAndGlyphs" textLength="73" x="496.5" y="50.082">«application»</text><!--entity dynamic--><ellipse cx="327" cy="55.5" fill="#FFFFFF" filter="url(#f1xdmloqbnf997)" rx="8" ry="8" style="stroke: #000000; stroke-width: 2.0;"/><path d="M327,63.5 L327,90.5 M314,71.5 L340,71.5 M327,90.5 L314,105.5 M327,90.5 L340,105.5 " fill="none" filter="url(#f1xdmloqbnf997)" style="stroke: #000000; stroke-width: 2.0;"/><text fill="#000000" font-family="Roboto Condensed" font-size="14" lengthAdjust="spacingAndGlyphs" textLength="87" x="283.5" y="125.4883">software using</text><text fill="#000000" font-family="Roboto Condensed" font-size="14" lengthAdjust="spacingAndGlyphs" textLength="87" x="283.5" y="141.8945">shared libraries</text><text fill="#000000" font-family="Roboto Condensed" font-size="14" font-style="italic" lengthAdjust="spacingAndGlyphs" textLength="112" x="271" y="42.082">«dynamically linked»</text><!--entity static--><ellipse cx="684" cy="55.5" fill="#FFFFFF" filter="url(#f1xdmloqbnf997)" rx="8" ry="8" style="stroke: #000000; stroke-width: 2.0;"/><path d="M684,63.5 L684,90.5 M671,71.5 L697,71.5 M684,90.5 L671,105.5 M684,90.5 L697,105.5 " fill="none" filter="url(#f1xdmloqbnf997)" style="stroke: #000000; stroke-width: 2.0;"/><text fill="#000000" font-family="Roboto Condensed" font-size="14" lengthAdjust="spacingAndGlyphs" textLength="93" x="617" y="125.4883">software having</text><text fill="#000000" font-family="Roboto Condensed" font-size="14" lengthAdjust="spacingAndGlyphs" textLength="134" x="617" y="141.8945">self-contained libraries</text><text fill="#000000" font-family="Roboto Condensed" font-size="14" font-style="italic" lengthAdjust="spacingAndGlyphs" textLength="96" x="636" y="42.082">«statically linked»</text><!--entity browser--><ellipse cx="62" cy="231.5" fill="#FFFFFF" filter="url(#f1xdmloqbnf997)" rx="8" ry="8" style="stroke: #000000; stroke-width: 2.0;"/><path d="M62,239.5 L62,266.5 M49,247.5 L75,247.5 M62,266.5 L49,281.5 M62,266.5 L75,281.5 " fill="none" filter="url(#f1xdmloqbnf997)" style="stroke: #000000; stroke-width: 2.0;"/><text fill="#000000" font-family="Roboto Condensed" font-size="14" lengthAdjust="spacingAndGlyphs" textLength="112" x="6" y="301.4883">user of online form</text><text fill="#000000" font-family="Roboto Condensed" font-size="14" font-style="italic" lengthAdjust="spacingAndGlyphs" textLength="80" x="22" y="218.082">«web browser»</text><!--entity email--><ellipse cx="195" cy="231.5" fill="#FFFFFF" filter="url(#f1xdmloqbnf997)" rx="8" ry="8" style="stroke: #000000; stroke-width: 2.0;"/><path d="M195,239.5 L195,266.5 M182,247.5 L208,247.5 M195,266.5 L182,281.5 M195,266.5 L208,281.5 " fill="none" filter="url(#f1xdmloqbnf997)" style="stroke: #000000; stroke-width: 2.0;"/><text fill="#000000" font-family="Roboto Condensed" font-size="14" lengthAdjust="spacingAndGlyphs" textLength="83" x="153.5" y="301.4883">writer of email</text><text fill="#000000" font-family="Roboto Condensed" font-size="14" font-style="italic" lengthAdjust="spacingAndGlyphs" textLength="73" x="158.5" y="218.082">«email client»</text><!--entity office--><ellipse cx="327" cy="231.5" fill="#FFFFFF" filter="url(#f1xdmloqbnf997)" rx="8" ry="8" style="stroke: #000000; stroke-width: 2.0;"/><path d="M327,239.5 L327,266.5 M314,247.5 L340,247.5 M327,266.5 L314,281.5 M327,266.5 L340,281.5 " fill="none" filter="url(#f1xdmloqbnf997)" style="stroke: #000000; stroke-width: 2.0;"/><text fill="#000000" font-family="Roboto Condensed" font-size="14" lengthAdjust="spacingAndGlyphs" textLength="111" x="271.5" y="301.4883">writer of document</text><text fill="#000000" font-family="Roboto Condensed" font-size="14" font-style="italic" lengthAdjust="spacingAndGlyphs" textLength="71" x="291.5" y="218.082">«office suite»</text><!--entity command--><ellipse cx="475" cy="231.5" fill="#FFFFFF" filter="url(#f1xdmloqbnf997)" rx="8" ry="8" style="stroke: #000000; stroke-width: 2.0;"/><path d="M475,239.5 L475,266.5 M462,247.5 L488,247.5 M475,266.5 L462,281.5 M475,266.5 L488,281.5 " fill="none" filter="url(#f1xdmloqbnf997)" style="stroke: #000000; stroke-width: 2.0;"/><text fill="#000000" font-family="Roboto Condensed" font-size="14" lengthAdjust="spacingAndGlyphs" textLength="114" x="418" y="301.4883">power user or script</text><text fill="#000000" font-family="Roboto Condensed" font-size="14" font-style="italic" lengthAdjust="spacingAndGlyphs" textLength="112" x="419" y="218.082">«command-line tool»</text><!--entity graphics--><ellipse cx="619" cy="231.5" fill="#FFFFFF" filter="url(#f1xdmloqbnf997)" rx="8" ry="8" style="stroke: #000000; stroke-width: 2.0;"/><path d="M619,239.5 L619,266.5 M606,247.5 L632,247.5 M619,266.5 L606,281.5 M619,266.5 L632,281.5 " fill="none" filter="url(#f1xdmloqbnf997)" style="stroke: #000000; stroke-width: 2.0;"/><text fill="#000000" font-family="Roboto Condensed" font-size="14" lengthAdjust="spacingAndGlyphs" textLength="104" x="567" y="301.4883">graphical designer</text><text fill="#000000" font-family="Roboto Condensed" font-size="14" font-style="italic" lengthAdjust="spacingAndGlyphs" textLength="93" x="572.5" y="218.082">«graphics editor»</text><!--entity dtp--><ellipse cx="749" cy="231.5" fill="#FFFFFF" filter="url(#f1xdmloqbnf997)" rx="8" ry="8" style="stroke: #000000; stroke-width: 2.0;"/><path d="M749,239.5 L749,266.5 M736,247.5 L762,247.5 M749,266.5 L736,281.5 M749,266.5 L762,281.5 " fill="none" filter="url(#f1xdmloqbnf997)" style="stroke: #000000; stroke-width: 2.0;"/><text fill="#000000" font-family="Roboto Condensed" font-size="14" lengthAdjust="spacingAndGlyphs" textLength="60" x="719" y="301.4883">typesetter</text><text fill="#000000" font-family="Roboto Condensed" font-size="14" font-style="italic" lengthAdjust="spacingAndGlyphs" textLength="85" x="706.5" y="218.082">«DTP software»</text><!--entity brwsr--><ellipse cx="883" cy="231.5" fill="#FFFFFF" filter="url(#f1xdmloqbnf997)" rx="8" ry="8" style="stroke: #000000; stroke-width: 2.0;"/><path d="M883,239.5 L883,266.5 M870,247.5 L896,247.5 M883,266.5 L870,281.5 M883,266.5 L896,281.5 " fill="none" filter="url(#f1xdmloqbnf997)" style="stroke: #000000; stroke-width: 2.0;"/><text fill="#000000" font-family="Roboto Condensed" font-size="14" lengthAdjust="spacingAndGlyphs" textLength="112" x="827" y="301.4883">user of online form</text><text fill="#000000" font-family="Roboto Condensed" font-size="14" font-style="italic" lengthAdjust="spacingAndGlyphs" textLength="80" x="843" y="218.082">«web browser»</text><!--link dynamic to user--><path d="M383.3281,87.0938 C414.2624,87.0938 445.1966,87.0938 476.1308,87.0938 " fill="none" id="dynamic-user" style="stroke: #000000; stroke-width: 1.0;"/><polygon fill="none" points="476.459,80.0937,496.459,87.0938,476.459,94.0937,476.459,80.0937" style="stroke: #000000; stroke-width: 1.0;"/><!--link user to static--><path d="M589.9294,87.0938 C598.9367,87.0938 607.944,87.0938 616.9514,87.0938 " fill="none" id="user-static" style="stroke: #000000; stroke-width: 1.0;"/><polygon fill="none" points="589.5703,94.0937,569.5703,87.0938,589.5703,80.0937,589.5703,94.0937" style="stroke: #000000; stroke-width: 1.0;"/><!--link dynamic to browser--><path d="M253.2756,131.6746 C217.6339,153.4723 174.365,180.2963 136,205.0938 C130.1403,208.8813 124.054,212.8822 118.0021,216.9044 " fill="none" id="dynamic-browser" style="stroke: #000000; stroke-width: 1.0;"/><polygon fill="none" points="249.9075,125.5296,270.6271,121.0908,257.1979,137.4817,249.9075,125.5296" style="stroke: #000000; stroke-width: 1.0;"/><!--link dynamic to email--><path d="M268.7712,161.2032 C257.1316,176.0173 245.165,191.2475 234.3467,205.0161 " fill="none" id="dynamic-email" style="stroke: #000000; stroke-width: 1.0;"/><polygon fill="none" points="263.3426,156.7822,281.2033,145.3806,274.351,165.4317,263.3426,156.7822" style="stroke: #000000; stroke-width: 1.0;"/><!--link dynamic to office--><path d="M327,165.4681 C327,178.9203 327,192.5657 327,205.0161 " fill="none" id="dynamic-office" style="stroke: #000000; stroke-width: 1.0;"/><polygon fill="none" points="320.0001,165.3806,327,145.3806,334.0001,165.3805,320.0001,165.3806" style="stroke: #000000; stroke-width: 1.0;"/><!--link dynamic to command--><path d="M391.8705,160.7306 C405.0517,175.6931 418.6254,191.101 430.884,205.0161 " fill="none" id="dynamic-command" style="stroke: #000000; stroke-width: 1.0;"/><polygon fill="none" points="386.316,165.015,378.3479,145.3806,396.821,155.7605,386.316,165.015" style="stroke: #000000; stroke-width: 1.0;"/><!--link static to graphics--><path d="M654.2274,164.0445 C648.8451,177.9556 643.3624,192.1263 638.3753,205.0161 " fill="none" id="static-graphics" style="stroke: #000000; stroke-width: 1.0;"/><polygon fill="none" points="647.7033,161.5072,661.4486,145.3806,660.7601,166.559,647.7033,161.5072" style="stroke: #000000; stroke-width: 1.0;"/><!--link static to dtp--><path d="M713.7726,164.0445 C719.1549,177.9556 724.6376,192.1263 729.6247,205.0161 " fill="none" id="static-dtp" style="stroke: #000000; stroke-width: 1.0;"/><polygon fill="none" points="707.2399,166.559,706.5514,145.3806,720.2967,161.5072,707.2399,166.559" style="stroke: #000000; stroke-width: 1.0;"/><!--link static to brwsr--><path d="M766.393,156.6517 C786.7252,173.8166 808.04,191.811 826.8026,207.6508 " fill="none" id="static-brwsr" style="stroke: #000000; stroke-width: 1.0;"/><polygon fill="none" points="761.8616,161.9872,751.0949,143.7367,770.8928,151.2896,761.8616,161.9872" style="stroke: #000000; stroke-width: 1.0;"/><!--
@startuml
skinparam BackgroundColor White|White
skinparam ArrowColor Black
skinparam DefaultFontName Roboto Condensed
skinparam TitleFontStyle Bold

skinparam NoteBackgroundColor White
skinparam NoteBorderColor Black

skinparam UsecaseBackgroundColor White
skinparam ActorBackgroundColor White
skinparam UsecaseBorderColor Black
skinparam ActorBorderColor Black

skinparam usecase {
	BackgroundColor<<for now out of scope>> Gray
}

skinparam StateBackgroundColor White
skinparam StateBorderColor Black

skinparam ActivityBackgroundColor White
skinparam ActivityDiamondBackgroundColor White
skinparam ActivityBorderColor Black
skinparam ActivityDiamondBorderColor Black

skinparam ClassBackgroundColor White
skinparam ClassBorderColor Black
hide empty members

title Nuspell - User hierarchy

actor user as "user" <<application>>

actor dynamic as " software using\nshared libraries" <<dynamically linked>>
actor static as " software having\nself-contained libraries" <<statically linked>>

actor browser as "user of online form" <<web browser>>
actor email as "writer of email" <<email client>>
actor office as "writer of document" <<office suite>>
actor command as "power user or script" <<command-line tool>>

actor graphics as "graphical designer" <<graphics editor>>
actor dtp as "typesetter" <<DTP software>>
actor brwsr as "user of online form" <<web browser>>

user <|-left- dynamic
user <|-right- static
dynamic <|- - browser
dynamic <|- - email
dynamic <|- - office
dynamic <|- - command
static <|- - graphics
static <|- - dtp
static <|- - brwsr

@enduml

PlantUML version 1.2018.12beta1(Unknown compile time)
(GPL source distribution)
Java Runtime: OpenJDK Runtime Environment
JVM: OpenJDK 64-Bit Server VM
Java Version: 10.0.2+13-Ubuntu-1ubuntu0.18.04.2
Operating System: Linux
OS Version: 4.15.0-34-generic
Default Encoding: UTF-8
Language: en
Country: US
--></g></svg>