<?xml version="1.0" encoding="UTF-8" standalone="yes"?><svg xmlns="http://www.w3.org/2000/svg" xmlns:xlink="http://www.w3.org/1999/xlink" height="231px" style="width:829px;height:231px;" version="1.1" viewBox="0 0 829 231" width="829px"><defs><filter height="300%" id="f1" width="300%" x="-1" y="-1"><feGaussianBlur result="blurOut" stdDeviation="2.0"/><feColorMatrix in="blurOut" result="blurOut2" type="matrix" values="0 0 0 0 0 0 0 0 0 0 0 0 0 0 0 0 0 0 .4 0"/><feOffset dx="4.0" dy="4.0" in="blurOut2" result="blurOut3"/><feBlend in="SourceGraphic" in2="blurOut3" mode="normal"/></filter></defs><g><text fill="#000000" font-family="Roboto Slab" font-size="20" font-weight="bold" lengthAdjust="spacingAndGlyphs" textLength="226" x="307.5" y="18.5645">Hunspell - Top-level</text><ellipse cx="395" cy="41.2813" fill="#2A7AE2" filter="url(#f1)" rx="8" ry="8" style="stroke: #000000; stroke-width: 2.0;"/><path d="M395,49.2813 L395,76.2813 M382,57.2813 L408,57.2813 M395,76.2813 L382,91.2813 M395,76.2813 L408,91.2813 " fill="#2A7AE2" filter="url(#f1)" style="stroke: #000000; stroke-width: 2.0;"/><text fill="#000000" font-family="Roboto Slab" font-size="14" font-weight="bold" lengthAdjust="spacingAndGlyphs" textLength="36" x="377" y="111.2764">User</text><ellipse cx="95.8879" cy="199.4063" fill="#2A7AE2" filter="url(#f1)" rx="89.8879" ry="25.125" style="stroke: #000000; stroke-width: 1.5;"/><text fill="#FFFFFF" font-family="Roboto Slab" font-size="14" font-weight="bold" lengthAdjust="spacingAndGlyphs" textLength="105" x="43.3879" y="194.5737">load affix file</text><text fill="#FFFFFF" font-family="Roboto Slab" font-size="14" font-weight="bold" lengthAdjust="spacingAndGlyphs" textLength="128" x="31.8879" y="210.8705">and dictionaries</text><ellipse cx="297.1688" cy="199.3861" fill="#2A7AE2" filter="url(#f1)" rx="76.1688" ry="24.1048" style="stroke: #000000; stroke-width: 1.5;"/><text fill="#FFFFFF" font-family="Roboto Slab" font-size="14" font-weight="bold" lengthAdjust="spacingAndGlyphs" textLength="113" x="240.6688" y="198.773">check spelling</text><text fill="#FFFFFF" font-family="Roboto Slab" font-size="14" font-weight="bold" lengthAdjust="spacingAndGlyphs" textLength="61" x="266.6688" y="215.0699">of word</text><ellipse cx="493.7882" cy="199.3623" fill="#2A7AE2" filter="url(#f1)" rx="85.7882" ry="24.0811" style="stroke: #000000; stroke-width: 1.5;"/><text fill="#FFFFFF" font-family="Roboto Slab" font-size="14" font-weight="bold" lengthAdjust="spacingAndGlyphs" textLength="128" x="429.7882" y="198.7867">get suggestions</text><text fill="#FFFFFF" font-family="Roboto Slab" font-size="14" font-weight="bold" lengthAdjust="spacingAndGlyphs" textLength="68" x="459.7882" y="215.0836">for word</text><ellipse cx="718.9159" cy="199.1399" fill="#2A7AE2" filter="url(#f1)" rx="103.9159" ry="24.3586" style="stroke: #000000; stroke-width: 1.5;"/><text fill="#FFFFFF" font-family="Roboto Slab" font-size="14" font-weight="bold" lengthAdjust="spacingAndGlyphs" textLength="96" x="670.9159" y="193.1489">add word to</text><text fill="#FFFFFF" font-family="Roboto Slab" font-size="14" font-weight="bold" lengthAdjust="spacingAndGlyphs" textLength="154" x="641.9159" y="209.4458">personal dictionary</text><path d="M376.746,81.3823 C332.357,99.8653 217.407,147.7289 149.148,176.1513 " fill="none" style="stroke: #000000; stroke-width: 1.0;"/><polygon fill="#000000" points="144.315,178.1634,154.1611,178.3949,148.9305,176.2406,151.0848,171.01,144.315,178.1634" style="stroke: #000000; stroke-width: 1.0;"/><path d="M376.797,96.9073 C360.121,118.0913 335.444,149.4415 317.954,171.6611 " fill="none" style="stroke: #000000; stroke-width: 1.0;"/><polygon fill="#000000" points="314.775,175.6992,323.485,171.1018,317.8678,171.7705,317.1991,166.1533,314.775,175.6992" style="stroke: #000000; stroke-width: 1.0;"/><path d="M413.158,96.6163 C429.974,117.7643 454.989,149.2214 472.732,171.5353 " fill="none" style="stroke: #000000; stroke-width: 1.0;"/><polygon fill="#000000" points="475.957,175.5908,473.4871,166.0566,472.8454,171.6769,467.2251,171.0352,475.957,175.5908" style="stroke: #000000; stroke-width: 1.0;"/><path d="M413.348,80.8313 C460.374,98.9023 586.754,147.4645 661.46,176.171 " fill="none" style="stroke: #000000; stroke-width: 1.0;"/><polygon fill="#000000" points="666.305,178.0326,659.3379,171.0713,661.6375,176.2396,656.4692,178.5393,666.305,178.0326" style="stroke: #000000; stroke-width: 1.0;"/></g></svg>