<?xml version="1.0" encoding="UTF-8" standalone="yes"?><svg xmlns="http://www.w3.org/2000/svg" xmlns:xlink="http://www.w3.org/1999/xlink" height="229px" style="width:750px;height:229px;" version="1.1" viewBox="0 0 750 229" width="750px"><defs><filter height="300%" id="f1" width="300%" x="-1" y="-1"><feGaussianBlur result="blurOut" stdDeviation="2.0"/><feColorMatrix in="blurOut" result="blurOut2" type="matrix" values="0 0 0 0 0 0 0 0 0 0 0 0 0 0 0 0 0 0 .4 0"/><feOffset dx="4.0" dy="4.0" in="blurOut2" result="blurOut3"/><feBlend in="SourceGraphic" in2="blurOut3" mode="normal"/></filter></defs><g><text fill="#000000" font-family="sans-serif" font-size="18" lengthAdjust="spacingAndGlyphs" textLength="179" x="291.5" y="16.708">Hunspell - Top-level</text><ellipse cx="359" cy="38.9531" fill="#FEFECE" filter="url(#f1)" rx="8" ry="8" style="stroke: #A80036; stroke-width: 2.0;"/><path d="M359,46.9531 L359,73.9531 M346,54.9531 L372,54.9531 M359,73.9531 L346,88.9531 M359,73.9531 L372,88.9531 " fill="#FEFECE" filter="url(#f1)" style="stroke: #A80036; stroke-width: 2.0;"/><text fill="#000000" font-family="sans-serif" font-size="14" lengthAdjust="spacingAndGlyphs" textLength="32" x="343" y="108.9482">User</text><ellipse cx="86.1764" cy="197.0186" fill="#FEFECE" filter="url(#f1)" rx="80.1764" ry="25.0655" style="stroke: #A80036; stroke-width: 1.5;"/><text fill="#000000" font-family="sans-serif" font-size="14" lengthAdjust="spacingAndGlyphs" textLength="92" x="40.1764" y="192.0979">load affix file</text><text fill="#000000" font-family="sans-serif" font-size="14" lengthAdjust="spacingAndGlyphs" textLength="114" x="29.1764" y="208.3947">and dictionaries</text><ellipse cx="269.7702" cy="197.0165" fill="#FEFECE" filter="url(#f1)" rx="68.2702" ry="24.0634" style="stroke: #A80036; stroke-width: 1.5;"/><text fill="#000000" font-family="sans-serif" font-size="14" lengthAdjust="spacingAndGlyphs" textLength="101" x="219.2702" y="196.4688">check spelling</text><text fill="#000000" font-family="sans-serif" font-size="14" lengthAdjust="spacingAndGlyphs" textLength="53" x="243.2702" y="212.7657">of word</text><ellipse cx="448.7956" cy="197.035" fill="#FEFECE" filter="url(#f1)" rx="74.7956" ry="24.0819" style="stroke: #A80036; stroke-width: 1.5;"/><text fill="#000000" font-family="sans-serif" font-size="14" lengthAdjust="spacingAndGlyphs" textLength="111" x="393.2956" y="196.4581">get suggestions</text><text fill="#000000" font-family="sans-serif" font-size="14" lengthAdjust="spacingAndGlyphs" textLength="59" x="419.2956" y="212.755">for word</text><ellipse cx="651.1359" cy="196.7784" fill="#FEFECE" filter="url(#f1)" rx="92.6359" ry="24.3253" style="stroke: #A80036; stroke-width: 1.5;"/><text fill="#000000" font-family="sans-serif" font-size="14" lengthAdjust="spacingAndGlyphs" textLength="84" x="609.1359" y="190.7359">add word to</text><text fill="#000000" font-family="sans-serif" font-size="14" lengthAdjust="spacingAndGlyphs" textLength="137" x="582.6359" y="207.0328">personal dictionary</text><path d="M342.74,78.8681 C302.521,97.2101 197.118,145.2786 134.578,173.7994 " fill="none" style="stroke: #A80036; stroke-width: 1.0;"/><polygon fill="#A80036" points="129.779,175.9878,139.6274,175.891,134.3279,173.9123,136.3065,168.6128,129.779,175.9878" style="stroke: #A80036; stroke-width: 1.0;"/><path d="M342.883,93.9991 C327.698,115.2401 304.946,147.0678 288.91,169.5002 " fill="none" style="stroke: #A80036; stroke-width: 1.0;"/><polygon fill="#A80036" points="285.997,173.5748,294.4845,168.5786,288.9043,169.507,287.9759,163.9268,285.997,173.5748" style="stroke: #A80036; stroke-width: 1.0;"/><path d="M375.09,93.7111 C390.417,114.9131 413.503,146.8485 429.787,169.3758 " fill="none" style="stroke: #A80036; stroke-width: 1.0;"/><polygon fill="#A80036" points="432.746,173.4679,430.7161,163.8305,429.8172,169.4155,424.2322,168.5166,432.746,173.4679" style="stroke: #A80036; stroke-width: 1.0;"/><path d="M375.115,78.3241 C417.148,96.2451 531.532,145.0156 599.091,173.8205 " fill="none" style="stroke: #A80036; stroke-width: 1.0;"/><polygon fill="#A80036" points="603.872,175.8593,597.1625,168.6494,599.2728,173.8979,594.0243,176.0082,603.872,175.8593" style="stroke: #A80036; stroke-width: 1.0;"/></g></svg>