<?xml version="1.0" encoding="UTF-8" standalone="no"?><svg xmlns="http://www.w3.org/2000/svg" xmlns:xlink="http://www.w3.org/1999/xlink" contentScriptType="application/ecmascript" contentStyleType="text/css" height="309px" preserveAspectRatio="none" style="width:599px;height:309px;" version="1.1" viewBox="0 0 599 309" width="599px" zoomAndPan="magnify"><defs><linearGradient id="g1l2cggtcvlu4h0" x1="0%" x2="100%" y1="50%" y2="50%"><stop offset="0%" stop-color="#FFFFFF"/><stop offset="100%" stop-color="#FFFFFF"/></linearGradient><filter height="300%" id="f1l2cggtcvlu4h" width="300%" x="-1" y="-1"><feGaussianBlur result="blurOut" stdDeviation="2.0"/><feColorMatrix in="blurOut" result="blurOut2" type="matrix" values="0 0 0 0 0 0 0 0 0 0 0 0 0 0 0 0 0 0 .4 0"/><feOffset dx="4.0" dy="4.0" in="blurOut2" result="blurOut3"/><feBlend in="SourceGraphic" in2="blurOut3" mode="normal"/></filter></defs><g><rect fill="url(#g1l2cggtcvlu4h0)" height="309" style="stroke: none; stroke-width: 1.0;" width="599" x="0" y="0"/><text fill="#000000" font-family="Roboto Condensed" font-size="18" font-weight="bold" lengthAdjust="spacingAndGlyphs" textLength="222" x="191.5" y="18.8613">Nuspell - User hierarchy TODO</text><!--entity user--><ellipse cx="374" cy="60.2031" fill="#FFFFFF" filter="url(#f1l2cggtcvlu4h)" rx="8" ry="8" style="stroke: #000000; stroke-width: 2.0;"/><path d="M374,68.2031 L374,95.2031 M361,76.2031 L387,76.2031 M374,95.2031 L361,110.2031 M374,95.2031 L387,110.2031 " fill="none" filter="url(#f1l2cggtcvlu4h)" style="stroke: #000000; stroke-width: 2.0;"/><text fill="#000000" font-family="Roboto Condensed" font-size="14" lengthAdjust="spacingAndGlyphs" textLength="24" x="362" y="131.873">user</text><text fill="#000000" font-family="Roboto Condensed" font-size="14" font-style="italic" lengthAdjust="spacingAndGlyphs" textLength="73" x="337.5" y="46.4092">«application»</text><!--entity dynamic--><ellipse cx="216" cy="60.2031" fill="#FFFFFF" filter="url(#f1l2cggtcvlu4h)" rx="8" ry="8" style="stroke: #000000; stroke-width: 2.0;"/><path d="M216,68.2031 L216,95.2031 M203,76.2031 L229,76.2031 M216,95.2031 L203,110.2031 M216,95.2031 L229,110.2031 " fill="none" filter="url(#f1l2cggtcvlu4h)" style="stroke: #000000; stroke-width: 2.0;"/><text fill="#000000" font-family="Roboto Condensed" font-size="14" lengthAdjust="spacingAndGlyphs" textLength="153" x="139.5" y="131.873">dynamically linked software</text><text fill="#000000" font-family="Roboto Condensed" font-size="14" font-style="italic" lengthAdjust="spacingAndGlyphs" textLength="73" x="179.5" y="46.4092">«application»</text><!--entity static--><ellipse cx="519" cy="60.2031" fill="#FFFFFF" filter="url(#f1l2cggtcvlu4h)" rx="8" ry="8" style="stroke: #000000; stroke-width: 2.0;"/><path d="M519,68.2031 L519,95.2031 M506,76.2031 L532,76.2031 M519,95.2031 L506,110.2031 M519,95.2031 L532,110.2031 " fill="none" filter="url(#f1l2cggtcvlu4h)" style="stroke: #000000; stroke-width: 2.0;"/><text fill="#000000" font-family="Roboto Condensed" font-size="14" lengthAdjust="spacingAndGlyphs" textLength="136" x="451" y="131.873">statically linked software</text><text fill="#000000" font-family="Roboto Condensed" font-size="14" font-style="italic" lengthAdjust="spacingAndGlyphs" textLength="73" x="482.5" y="46.4092">«application»</text><!--entity browser--><ellipse cx="58" cy="224.2031" fill="#FFFFFF" filter="url(#f1l2cggtcvlu4h)" rx="8" ry="8" style="stroke: #000000; stroke-width: 2.0;"/><path d="M58,232.2031 L58,259.2031 M45,240.2031 L71,240.2031 M58,259.2031 L45,274.2031 M58,259.2031 L71,274.2031 " fill="none" filter="url(#f1l2cggtcvlu4h)" style="stroke: #000000; stroke-width: 2.0;"/><text fill="#000000" font-family="Roboto Condensed" font-size="14" lengthAdjust="spacingAndGlyphs" textLength="104" x="6" y="295.873">user of online form</text><text fill="#000000" font-family="Roboto Condensed" font-size="14" font-style="italic" lengthAdjust="spacingAndGlyphs" textLength="80" x="18" y="210.4092">«web browser»</text><!--entity office--><ellipse cx="197" cy="224.2031" fill="#FFFFFF" filter="url(#f1l2cggtcvlu4h)" rx="8" ry="8" style="stroke: #000000; stroke-width: 2.0;"/><path d="M197,232.2031 L197,259.2031 M184,240.2031 L210,240.2031 M197,259.2031 L184,274.2031 M197,259.2031 L210,274.2031 " fill="none" filter="url(#f1l2cggtcvlu4h)" style="stroke: #000000; stroke-width: 2.0;"/><text fill="#000000" font-family="Roboto Condensed" font-size="14" lengthAdjust="spacingAndGlyphs" textLength="104" x="145" y="295.873">writer of document</text><text fill="#000000" font-family="Roboto Condensed" font-size="14" font-style="italic" lengthAdjust="spacingAndGlyphs" textLength="71" x="161.5" y="210.4092">«office suite»</text><!--entity command--><ellipse cx="356" cy="224.2031" fill="#FFFFFF" filter="url(#f1l2cggtcvlu4h)" rx="8" ry="8" style="stroke: #000000; stroke-width: 2.0;"/><path d="M356,232.2031 L356,259.2031 M343,240.2031 L369,240.2031 M356,259.2031 L343,274.2031 M356,259.2031 L369,274.2031 " fill="none" filter="url(#f1l2cggtcvlu4h)" style="stroke: #000000; stroke-width: 2.0;"/><text fill="#000000" font-family="Roboto Condensed" font-size="14" lengthAdjust="spacingAndGlyphs" textLength="144" x="284" y="295.873">user of command-line tool</text><text fill="#000000" font-family="Roboto Condensed" font-size="14" font-style="italic" lengthAdjust="spacingAndGlyphs" textLength="71" x="320.5" y="210.4092">«office suite»</text><!--entity vector--><ellipse cx="524" cy="224.2031" fill="#FFFFFF" filter="url(#f1l2cggtcvlu4h)" rx="8" ry="8" style="stroke: #000000; stroke-width: 2.0;"/><path d="M524,232.2031 L524,259.2031 M511,240.2031 L537,240.2031 M524,259.2031 L511,274.2031 M524,259.2031 L537,274.2031 " fill="none" filter="url(#f1l2cggtcvlu4h)" style="stroke: #000000; stroke-width: 2.0;"/><text fill="#000000" font-family="Roboto Condensed" font-size="14" lengthAdjust="spacingAndGlyphs" textLength="122" x="463" y="295.873">user of vector drawing</text><text fill="#000000" font-family="Roboto Condensed" font-size="14" font-style="italic" lengthAdjust="spacingAndGlyphs" textLength="71" x="488.5" y="210.4092">«office suite»</text><!--link dynamic to user--><path d="M292.5313,83.7393 C300.7109,83.7393 308.8906,83.7393 317.0703,83.7393 " fill="none" id="dynamic-user" style="stroke: #000000; stroke-width: 1.0;"/><polygon fill="none" points="317.4027,76.7392,337.4027,83.7393,317.4027,90.7392,317.4027,76.7392" style="stroke: #000000; stroke-width: 1.0;"/><!--link user to static--><path d="M430.6589,83.7393 C437.3674,83.7393 444.076,83.7393 450.7846,83.7393 " fill="none" id="user-static" style="stroke: #000000; stroke-width: 1.0;"/><polygon fill="none" points="430.5332,90.7392,410.5332,83.7393,430.5332,76.7392,430.5332,90.7392" style="stroke: #000000; stroke-width: 1.0;"/><!--link dynamic to browser--><path d="M151.4529,150.7375 C137.0364,165.7015 121.9551,181.3555 108.2186,195.6137 " fill="none" id="dynamic-browser" style="stroke: #000000; stroke-width: 1.0;"/><polygon fill="none" points="146.6561,145.6273,165.5734,136.0808,156.7383,155.3407,146.6561,145.6273" style="stroke: #000000; stroke-width: 1.0;"/><!--link dynamic to office--><path d="M207.5846,156.3773 C206.0535,169.5932 204.4843,183.1378 203.0389,195.6137 " fill="none" id="dynamic-office" style="stroke: #000000; stroke-width: 1.0;"/><polygon fill="none" points="200.6808,155.1423,209.936,136.0808,214.5878,156.7536,200.6808,155.1423" style="stroke: #000000; stroke-width: 1.0;"/><!--link dynamic to command--><path d="M273.9927,151.6737 C286.524,166.3531 299.5845,181.6526 311.5025,195.6137 " fill="none" id="dynamic-command" style="stroke: #000000; stroke-width: 1.0;"/><polygon fill="none" points="268.3431,155.837,260.6818,136.0808,278.991,146.7473,268.3431,155.837" style="stroke: #000000; stroke-width: 1.0;"/><!--link static to vector--><path d="M521.2146,156.3773 C521.6175,169.5932 522.0304,183.1378 522.4108,195.6137 " fill="none" id="static-vector" style="stroke: #000000; stroke-width: 1.0;"/><polygon fill="none" points="514.2086,156.2849,520.5958,136.0808,528.2021,155.8582,514.2086,156.2849" style="stroke: #000000; stroke-width: 1.0;"/><!--
@startuml
skinparam BackgroundColor White|White
skinparam ArrowColor Black
skinparam DefaultFontName Roboto Condensed
skinparam TitleFontStyle Bold

skinparam NoteBackgroundColor White
skinparam NoteBorderColor Black

skinparam UsecaseBackgroundColor White
skinparam ActorBackgroundColor White
skinparam UsecaseBorderColor Black
skinparam ActorBorderColor Black

skinparam StateBackgroundColor White
skinparam StateBorderColor Black

skinparam ActivityBackgroundColor White
skinparam ActivityDiamondBackgroundColor White
skinparam ActivityBorderColor Black
skinparam ActivityDiamondBorderColor Black

title Nuspell - User hierarchy TODO

actor user as "user" <<application>>

actor dynamic as "dynamically linked software" <<application>>
actor static as "statically linked software" <<application>>

actor browser as "user of online form" <<application>>
actor office as "writer of document" <<application>>

actor browser as "user of online form" <<web browser>>
actor office as "writer of document" <<office suite>>

actor command as "user of command-line tool" <<office suite>>
actor vector as "user of vector drawing" <<office suite>>

user <|-left- dynamic
user <|-right- static
dynamic <|- - browser
dynamic <|- - office
dynamic <|- - command
static <|- - vector

@enduml

PlantUML version 1.2018.06(Mon May 21 12:34:53 CEST 2018)
(GPL source distribution)
Java Runtime: OpenJDK Runtime Environment
JVM: OpenJDK 64-Bit Server VM
Java Version: 10.0.2+13-Ubuntu-1ubuntu0.18.04.1
Operating System: Linux
OS Version: 4.15.0-33-generic
Default Encoding: UTF-8
Language: en
Country: US
--></g></svg>