<?xml version="1.0" encoding="UTF-8" standalone="no"?><svg xmlns="http://www.w3.org/2000/svg" xmlns:xlink="http://www.w3.org/1999/xlink" contentScriptType="application/ecmascript" contentStyleType="text/css" height="684px" preserveAspectRatio="none" style="width:1163px;height:684px;" version="1.1" viewBox="0 0 1163 684" width="1163px" zoomAndPan="magnify"><defs><linearGradient id="gc4hb66rn2ioc0" x1="0%" x2="100%" y1="50%" y2="50%"><stop offset="0%" stop-color="#FFFFFF"/><stop offset="100%" stop-color="#FFFFFF"/></linearGradient><filter height="300%" id="fc4hb66rn2ioc" width="300%" x="-1" y="-1"><feGaussianBlur result="blurOut" stdDeviation="2.0"/><feColorMatrix in="blurOut" result="blurOut2" type="matrix" values="0 0 0 0 0 0 0 0 0 0 0 0 0 0 0 0 0 0 .4 0"/><feOffset dx="4.0" dy="4.0" in="blurOut2" result="blurOut3"/><feBlend in="SourceGraphic" in2="blurOut3" mode="normal"/></filter></defs><g><rect fill="url(#gc4hb66rn2ioc0)" height="684" style="stroke: none; stroke-width: 1.0;" width="1163" x="0" y="0"/><text fill="#000000" font-family="sans-serif" font-size="18" lengthAdjust="spacingAndGlyphs" textLength="237" x="466.5" y="16.708">Hunspell - Check call paths</text><!--entity am_lo--><rect fill="#FEFECE" filter="url(#fc4hb66rn2ioc)" height="68.8906" style="stroke: #A80036; stroke-width: 1.5;" width="145" x="150.5" y="604.9531"/><rect fill="#FEFECE" height="5" style="stroke: #A80036; stroke-width: 1.5;" width="10" x="145.5" y="609.9531"/><rect fill="#FEFECE" height="5" style="stroke: #A80036; stroke-width: 1.5;" width="10" x="145.5" y="663.8438"/><text fill="#000000" font-family="sans-serif" font-size="14" font-style="italic" lengthAdjust="spacingAndGlyphs" textLength="71" x="187.5" y="627.9482">«AffixMgr»</text><text fill="#000000" font-family="sans-serif" font-size="14" lengthAdjust="spacingAndGlyphs" textLength="91" x="160.5" y="644.2451">lookup(word)</text><text fill="#000000" font-family="sans-serif" font-size="14" lengthAdjust="spacingAndGlyphs" textLength="125" x="160.5" y="660.542">→ HashEntry/NULL</text><!--entity am_ac--><rect fill="#FEFECE" filter="url(#fc4hb66rn2ioc)" height="85.1875" style="stroke: #A80036; stroke-width: 1.5;" width="183" x="469.5" y="28.9531"/><rect fill="#FEFECE" height="5" style="stroke: #A80036; stroke-width: 1.5;" width="10" x="464.5" y="33.9531"/><rect fill="#FEFECE" height="5" style="stroke: #A80036; stroke-width: 1.5;" width="10" x="464.5" y="104.1406"/><text fill="#000000" font-family="sans-serif" font-size="14" font-style="italic" lengthAdjust="spacingAndGlyphs" textLength="71" x="525.5" y="51.9482">«AffixMgr»</text><text fill="#000000" font-family="sans-serif" font-size="14" lengthAdjust="spacingAndGlyphs" textLength="118" x="479.5" y="68.2451">affix_check(word,</text><text fill="#000000" font-family="sans-serif" font-size="14" lengthAdjust="spacingAndGlyphs" textLength="163" x="479.5" y="84.542">needflag,in_compound)</text><text fill="#000000" font-family="sans-serif" font-size="14" lengthAdjust="spacingAndGlyphs" textLength="125" x="479.5" y="100.8389">→ HashEntry/NULL</text><!--entity am_pc--><rect fill="#FEFECE" filter="url(#fc4hb66rn2ioc)" height="85.1875" style="stroke: #A80036; stroke-width: 1.5;" width="183" x="29.5" y="190.9531"/><rect fill="#FEFECE" height="5" style="stroke: #A80036; stroke-width: 1.5;" width="10" x="24.5" y="195.9531"/><rect fill="#FEFECE" height="5" style="stroke: #A80036; stroke-width: 1.5;" width="10" x="24.5" y="266.1406"/><text fill="#000000" font-family="sans-serif" font-size="14" font-style="italic" lengthAdjust="spacingAndGlyphs" textLength="71" x="85.5" y="213.9482">«AffixMgr»</text><text fill="#000000" font-family="sans-serif" font-size="14" lengthAdjust="spacingAndGlyphs" textLength="129" x="39.5" y="230.2451">prefix_check(word,</text><text fill="#000000" font-family="sans-serif" font-size="14" lengthAdjust="spacingAndGlyphs" textLength="163" x="39.5" y="246.542">in_compound,needflag)</text><text fill="#000000" font-family="sans-serif" font-size="14" lengthAdjust="spacingAndGlyphs" textLength="125" x="39.5" y="262.8389">→ HashEntry/NULL</text><!--entity am_pcts--><rect fill="#FEFECE" filter="url(#fc4hb66rn2ioc)" height="85.1875" style="stroke: #A80036; stroke-width: 1.5;" width="200" x="952" y="190.9531"/><rect fill="#FEFECE" height="5" style="stroke: #A80036; stroke-width: 1.5;" width="10" x="947" y="195.9531"/><rect fill="#FEFECE" height="5" style="stroke: #A80036; stroke-width: 1.5;" width="10" x="947" y="266.1406"/><text fill="#000000" font-family="sans-serif" font-size="14" font-style="italic" lengthAdjust="spacingAndGlyphs" textLength="71" x="1016.5" y="213.9482">«AffixMgr»</text><text fill="#000000" font-family="sans-serif" font-size="14" lengthAdjust="spacingAndGlyphs" textLength="180" x="962" y="230.2451">prefix_check_twosfx(word,</text><text fill="#000000" font-family="sans-serif" font-size="14" lengthAdjust="spacingAndGlyphs" textLength="163" x="962" y="246.542">in_compound,needflag)</text><text fill="#000000" font-family="sans-serif" font-size="14" lengthAdjust="spacingAndGlyphs" textLength="125" x="962" y="262.8389">→ HashEntry/NULL</text><!--entity am_sc--><rect fill="#FEFECE" filter="url(#fc4hb66rn2ioc)" height="85.1875" style="stroke: #A80036; stroke-width: 1.5;" width="317" x="301.5" y="190.9531"/><rect fill="#FEFECE" height="5" style="stroke: #A80036; stroke-width: 1.5;" width="10" x="296.5" y="195.9531"/><rect fill="#FEFECE" height="5" style="stroke: #A80036; stroke-width: 1.5;" width="10" x="296.5" y="266.1406"/><text fill="#000000" font-family="sans-serif" font-size="14" font-style="italic" lengthAdjust="spacingAndGlyphs" textLength="71" x="424.5" y="213.9482">«AffixMgr»</text><text fill="#000000" font-family="sans-serif" font-size="14" lengthAdjust="spacingAndGlyphs" textLength="127" x="311.5" y="230.2451">suffix_check(word,</text><text fill="#000000" font-family="sans-serif" font-size="14" lengthAdjust="spacingAndGlyphs" textLength="297" x="311.5" y="246.542">sfxopts,ppfx,cclass,needflag,in_compound)</text><text fill="#000000" font-family="sans-serif" font-size="14" lengthAdjust="spacingAndGlyphs" textLength="125" x="311.5" y="262.8389">→ HashEntry/NULL</text><!--entity am_scts--><rect fill="#FEFECE" filter="url(#fc4hb66rn2ioc)" height="85.1875" style="stroke: #A80036; stroke-width: 1.5;" width="198" x="681" y="190.9531"/><rect fill="#FEFECE" height="5" style="stroke: #A80036; stroke-width: 1.5;" width="10" x="676" y="195.9531"/><rect fill="#FEFECE" height="5" style="stroke: #A80036; stroke-width: 1.5;" width="10" x="676" y="266.1406"/><text fill="#000000" font-family="sans-serif" font-size="14" font-style="italic" lengthAdjust="spacingAndGlyphs" textLength="71" x="744.5" y="213.9482">«AffixMgr»</text><text fill="#000000" font-family="sans-serif" font-size="14" lengthAdjust="spacingAndGlyphs" textLength="178" x="691" y="230.2451">suffix_check_twosfx(word,</text><text fill="#000000" font-family="sans-serif" font-size="14" lengthAdjust="spacingAndGlyphs" textLength="152" x="691" y="246.542">sfxopts,ppfx,needflag)</text><text fill="#000000" font-family="sans-serif" font-size="14" lengthAdjust="spacingAndGlyphs" textLength="125" x="691" y="262.8389">→ HashEntry/NULL</text><!--entity pe_cw--><rect fill="#008000" filter="url(#fc4hb66rn2ioc)" height="85.1875" style="stroke: #A80036; stroke-width: 1.5;" width="174" x="6" y="397.9531"/><rect fill="#008000" height="5" style="stroke: #A80036; stroke-width: 1.5;" width="10" x="1" y="402.9531"/><rect fill="#008000" height="5" style="stroke: #A80036; stroke-width: 1.5;" width="10" x="1" y="473.1406"/><text fill="#000000" font-family="sans-serif" font-size="14" font-style="italic" lengthAdjust="spacingAndGlyphs" textLength="73" x="56.5" y="420.9482">«PfxEntry»</text><text fill="#000000" font-family="sans-serif" font-size="14" lengthAdjust="spacingAndGlyphs" textLength="119" x="16" y="437.2451">checkword(word,</text><text fill="#000000" font-family="sans-serif" font-size="14" lengthAdjust="spacingAndGlyphs" textLength="154" x="16" y="453.542">in_compund,needflag)</text><text fill="#000000" font-family="sans-serif" font-size="14" lengthAdjust="spacingAndGlyphs" textLength="125" x="16" y="469.8389">→ HashEntry/NULL</text><!--entity pe_cts--><rect fill="#008000" filter="url(#fc4hb66rn2ioc)" height="85.1875" style="stroke: #A80036; stroke-width: 1.5;" width="174" x="902" y="397.9531"/><rect fill="#008000" height="5" style="stroke: #A80036; stroke-width: 1.5;" width="10" x="897" y="402.9531"/><rect fill="#008000" height="5" style="stroke: #A80036; stroke-width: 1.5;" width="10" x="897" y="473.1406"/><text fill="#000000" font-family="sans-serif" font-size="14" font-style="italic" lengthAdjust="spacingAndGlyphs" textLength="73" x="952.5" y="420.9482">«PfxEntry»</text><text fill="#000000" font-family="sans-serif" font-size="14" lengthAdjust="spacingAndGlyphs" textLength="136" x="912" y="437.2451">check_twosfx(word,</text><text fill="#000000" font-family="sans-serif" font-size="14" lengthAdjust="spacingAndGlyphs" textLength="154" x="912" y="453.542">in_compund,needflag)</text><text fill="#000000" font-family="sans-serif" font-size="14" lengthAdjust="spacingAndGlyphs" textLength="125" x="912" y="469.8389">→ HashEntry/NULL</text><!--entity se_cw--><rect fill="#FF0000" filter="url(#fc4hb66rn2ioc)" height="85.1875" style="stroke: #A80036; stroke-width: 1.5;" width="278" x="215" y="397.9531"/><rect fill="#FF0000" height="5" style="stroke: #A80036; stroke-width: 1.5;" width="10" x="210" y="402.9531"/><rect fill="#FF0000" height="5" style="stroke: #A80036; stroke-width: 1.5;" width="10" x="210" y="473.1406"/><text fill="#000000" font-family="sans-serif" font-size="14" font-style="italic" lengthAdjust="spacingAndGlyphs" textLength="73" x="317.5" y="420.9482">«SfxEntry»</text><text fill="#000000" font-family="sans-serif" font-size="14" lengthAdjust="spacingAndGlyphs" textLength="119" x="225" y="437.2451">checkword(word,</text><text fill="#000000" font-family="sans-serif" font-size="14" lengthAdjust="spacingAndGlyphs" textLength="258" x="225" y="453.542">optflags,ppfx,cclass,needflag,badflag)</text><text fill="#000000" font-family="sans-serif" font-size="14" lengthAdjust="spacingAndGlyphs" textLength="125" x="225" y="469.8389">→ HashEntry/NULL</text><!--entity se_cts--><rect fill="#FF0000" filter="url(#fc4hb66rn2ioc)" height="85.1875" style="stroke: #A80036; stroke-width: 1.5;" width="177" x="636.5" y="397.9531"/><rect fill="#FF0000" height="5" style="stroke: #A80036; stroke-width: 1.5;" width="10" x="631.5" y="402.9531"/><rect fill="#FF0000" height="5" style="stroke: #A80036; stroke-width: 1.5;" width="10" x="631.5" y="473.1406"/><text fill="#000000" font-family="sans-serif" font-size="14" font-style="italic" lengthAdjust="spacingAndGlyphs" textLength="73" x="688.5" y="420.9482">«SfxEntry»</text><text fill="#000000" font-family="sans-serif" font-size="14" lengthAdjust="spacingAndGlyphs" textLength="136" x="646.5" y="437.2451">check_twosfx(word,</text><text fill="#000000" font-family="sans-serif" font-size="14" lengthAdjust="spacingAndGlyphs" textLength="157" x="646.5" y="453.542">optflags,ppfx,needflag)</text><text fill="#000000" font-family="sans-serif" font-size="14" lengthAdjust="spacingAndGlyphs" textLength="125" x="646.5" y="469.8389">→ HashEntry/NULL</text><!--link am_ac to am_pc--><path d="M469.2972,105.2164 C395.6095,132.3469 292.4043,170.3452 217.4785,197.9315 " fill="none" id="am_ac-am_pc" style="stroke: #A80036; stroke-width: 1.0;"/><polygon fill="#A80036" points="212.5848,199.7333,222.4126,200.3774,217.2769,198.0058,219.6485,192.8701,212.5848,199.7333" style="stroke: #A80036; stroke-width: 1.0;"/><text fill="#000000" font-family="sans-serif" font-size="13" lengthAdjust="spacingAndGlyphs" textLength="42" x="356" y="157.02">1 word</text><!--link am_ac to am_sc--><path d="M534.4634,114.0167 C520.6007,136.252 503.6016,163.5179 489.3471,186.3816 " fill="none" id="am_ac-am_sc" style="stroke: #A80036; stroke-width: 1.0;"/><polygon fill="#A80036" points="486.5345,190.8928,494.6903,185.3717,489.1798,186.6499,487.9016,181.1393,486.5345,190.8928" style="stroke: #A80036; stroke-width: 1.0;"/><text fill="#000000" font-family="sans-serif" font-size="13" lengthAdjust="spacingAndGlyphs" textLength="42" x="515" y="157.02">2 word</text><!--link am_ac to am_scts--><path d="M618.5397,114.0167 C649.2247,136.7152 686.9967,164.6561 718.2902,187.8047 " fill="none" id="am_ac-am_scts" style="stroke: #A80036; stroke-width: 1.0;"/><polygon fill="#A80036" points="722.4648,190.8928,717.6082,182.3247,718.4451,187.9193,712.8505,188.7562,722.4648,190.8928" style="stroke: #A80036; stroke-width: 1.0;"/><text fill="#000000" font-family="sans-serif" font-size="13" lengthAdjust="spacingAndGlyphs" textLength="42" x="678" y="157.02">3 word</text><!--link am_ac to am_pcts--><path d="M652.7774,101.734 C736.2725,129.2823 859.4627,169.9276 946.8829,198.7709 " fill="none" id="am_ac-am_pcts" style="stroke: #A80036; stroke-width: 1.0;"/><polygon fill="#A80036" points="951.8022,200.3939,944.5088,193.7753,947.054,198.8272,942.0021,201.3724,951.8022,200.3939" style="stroke: #A80036; stroke-width: 1.0;"/><text fill="#000000" font-family="sans-serif" font-size="13" lengthAdjust="spacingAndGlyphs" textLength="42" x="822" y="157.02">4 word</text><!--link am_pc to pe_cw--><path d="M99.3554,276.234 C95.4805,285.7846 92.0327,296.0292 90,305.9531 C84.1783,334.3762 84.7126,366.8835 86.8055,392.8194 " fill="none" id="am_pc-pe_cw" style="stroke: #A80036; stroke-width: 1.0;"/><polygon fill="#A80036" points="87.2434,397.9158,90.458,388.6064,86.8153,392.9342,82.4874,389.2914,87.2434,397.9158" style="stroke: #A80036; stroke-width: 1.0;"/><text fill="#000000" font-family="sans-serif" font-size="13" lengthAdjust="spacingAndGlyphs" textLength="42" x="91" y="341.52">1 word</text><!--link am_pcts to pe_cts--><path d="M1058.9948,276.0062 C1061.7094,303.1631 1061.9486,338.6403 1051,367.9531 C1047.6752,376.8547 1042.7264,385.4079 1037.0486,393.3218 " fill="none" id="am_pcts-pe_cts" style="stroke: #A80036; stroke-width: 1.0;"/><polygon fill="#A80036" points="1033.825,397.6508,1042.4085,392.8214,1036.8113,393.6406,1035.9921,388.0433,1033.825,397.6508" style="stroke: #A80036; stroke-width: 1.0;"/><text fill="#000000" font-family="sans-serif" font-size="13" lengthAdjust="spacingAndGlyphs" textLength="42" x="1061" y="341.52">4 word</text><!--link am_sc to se_cw--><path d="M356.0957,276.0119 C345.3448,284.4039 335.8642,294.309 329,305.9531 C313.5579,332.1486 319.8147,365.7836 329.9286,392.8647 " fill="none" id="am_sc-se_cw" style="stroke: #A80036; stroke-width: 1.0;"/><polygon fill="#A80036" points="331.8577,397.8418,332.3347,388.0045,330.0507,393.1798,324.8754,390.8958,331.8577,397.8418" style="stroke: #A80036; stroke-width: 1.0;"/><text fill="#000000" font-family="sans-serif" font-size="13" lengthAdjust="spacingAndGlyphs" textLength="42" x="400" y="319.02">2 word</text><text fill="#000000" font-family="sans-serif" font-size="13" lengthAdjust="spacingAndGlyphs" textLength="113" x="364.5" y="334.1528">1 unprefixed word</text><text fill="#000000" font-family="sans-serif" font-size="13" lengthAdjust="spacingAndGlyphs" textLength="111" x="365.5" y="349.2856">3 unsuffixed word</text><text fill="#000000" font-family="sans-serif" font-size="13" lengthAdjust="spacingAndGlyphs" textLength="182" x="330" y="364.4185">4 unsuffixed unprefixed word</text><!--link am_scts to se_cts--><path d="M768.6707,276.0926 C759.649,310.0469 747.0262,357.5546 737.6705,392.766 " fill="none" id="am_scts-se_cts" style="stroke: #A80036; stroke-width: 1.0;"/><polygon fill="#A80036" points="736.3146,397.8689,742.4919,390.1981,737.5987,393.0366,734.7602,388.1435,736.3146,397.8689" style="stroke: #A80036; stroke-width: 1.0;"/><text fill="#000000" font-family="sans-serif" font-size="13" lengthAdjust="spacingAndGlyphs" textLength="42" x="796.5" y="334.02">3 word</text><text fill="#000000" font-family="sans-serif" font-size="13" lengthAdjust="spacingAndGlyphs" textLength="113" x="761" y="349.1528">4 unprefixed word</text><!--link pe_cw to am_lo--><path d="M114.5494,483.1505 C128.8233,510.2048 148.6153,545.5167 169,574.9531 C175.002,583.6202 181.9128,592.5281 188.7427,600.8517 " fill="none" id="pe_cw-am_lo" style="stroke: #A80036; stroke-width: 1.0; stroke-dasharray: 7.0,7.0;"/><polygon fill="#A80036" points="192.0847,604.8873,189.4249,595.4044,188.8955,601.0364,183.2635,600.5071,192.0847,604.8873" style="stroke: #A80036; stroke-width: 1.0;"/><text fill="#000000" font-family="sans-serif" font-size="13" lengthAdjust="spacingAndGlyphs" textLength="113" x="170" y="548.52">1 unprefixed word</text><!--link am_sc to pe_cw--><path d="M296.1452,261.1334 C261.5655,271.6372 226.618,286.0884 197,305.9531 C178.4306,318.4075 145.4166,363.226 121.558,397.7409 " fill="none" id="am_sc-pe_cw" style="stroke: #A80036; stroke-width: 1.0; stroke-dasharray: 7.0,7.0;"/><polygon fill="#A80036" points="301.2437,259.6122,291.4757,258.3525,296.4524,261.0418,293.7631,266.0185,301.2437,259.6122" style="stroke: #A80036; stroke-width: 1.0;"/><text fill="#000000" font-family="sans-serif" font-size="13" lengthAdjust="spacingAndGlyphs" textLength="113" x="198" y="341.52">1 unprefixed word</text><!--link am_scts to pe_cts--><path d="M851.4612,279.082 C862.5177,287.4379 873.429,296.52 883,305.9531 C907.25,329.8538 907.0261,341.1314 928,367.9531 C935.7009,377.8011 944.2056,388.1917 952.3582,397.9347 " fill="none" id="am_scts-pe_cts" style="stroke: #A80036; stroke-width: 1.0; stroke-dasharray: 7.0,7.0;"/><polygon fill="#A80036" points="847.3833,276.037,852.2014,284.6269,851.3896,279.0286,856.9879,278.2168,847.3833,276.037" style="stroke: #A80036; stroke-width: 1.0;"/><text fill="#000000" font-family="sans-serif" font-size="13" lengthAdjust="spacingAndGlyphs" textLength="113" x="929" y="341.52">4 unprefixed word</text><!--link se_cw to am_lo--><path d="M337.4305,483.0755 C325.7143,510.5866 308.4803,546.43 288,574.9531 C281.5456,583.9422 273.7954,592.8117 265.9313,600.962 " fill="none" id="se_cw-am_lo" style="stroke: #A80036; stroke-width: 1.0; stroke-dasharray: 7.0,7.0;"/><polygon fill="#A80036" points="262.0668,604.9027,271.2242,601.2775,265.5676,601.3328,265.5123,595.6762,262.0668,604.9027" style="stroke: #A80036; stroke-width: 1.0;"/><text fill="#000000" font-family="sans-serif" font-size="13" lengthAdjust="spacingAndGlyphs" textLength="111" x="394" y="526.02">2 unsuffixed word</text><text fill="#000000" font-family="sans-serif" font-size="13" lengthAdjust="spacingAndGlyphs" textLength="182" x="358.5" y="541.1528">1 unsuffixed unprefixed word</text><text fill="#000000" font-family="sans-serif" font-size="13" lengthAdjust="spacingAndGlyphs" textLength="180" x="359.5" y="556.2856">3 unsuffixed unsuffixed word</text><text fill="#000000" font-family="sans-serif" font-size="13" lengthAdjust="spacingAndGlyphs" textLength="251" x="324" y="571.4185">4 unsuffixed unsuffixed unprefixed word</text><!--link am_sc to se_cts--><path d="M498.3356,280.0791 C504.7938,288.5261 511.2577,297.3786 517,305.9531 C534.6075,332.2449 528.3542,346.9255 552,367.9531 C575.97,389.2691 607.1061,404.915 636.3451,416.0984 " fill="none" id="am_sc-se_cts" style="stroke: #A80036; stroke-width: 1.0; stroke-dasharray: 7.0,7.0;"/><polygon fill="#A80036" points="495.1688,275.9679,497.4922,285.5388,498.22,279.929,503.8299,280.6569,495.1688,275.9679" style="stroke: #A80036; stroke-width: 1.0;"/><text fill="#000000" font-family="sans-serif" font-size="13" lengthAdjust="spacingAndGlyphs" textLength="111" x="588.5" y="334.02">3 unsuffixed word</text><text fill="#000000" font-family="sans-serif" font-size="13" lengthAdjust="spacingAndGlyphs" textLength="182" x="553" y="349.1528">4 unsuffixed unprefixed word</text><!--
@startuml
skinparam backgroundcolor White|White

title Hunspell - Check call paths

[lookup(word)\n→ HashEntry/NULL] <<AffixMgr>> as am_lo

[affix_check(word,\nneedflag,in_compound)\n→ HashEntry/NULL] <<AffixMgr>> as am_ac

[prefix_check(word,\nin_compound,needflag)\n→ HashEntry/NULL] <<AffixMgr>> as am_pc
[prefix_check_twosfx(word,\nin_compound,needflag)\n→ HashEntry/NULL] <<AffixMgr>> as am_pcts

[suffix_check(word,\nsfxopts,ppfx,cclass,needflag,in_compound)\n→ HashEntry/NULL] <<AffixMgr>> as am_sc
[suffix_check_twosfx(word,\nsfxopts,ppfx,needflag)\n→ HashEntry/NULL] <<AffixMgr>> as am_scts

[checkword(word,\nin_compund,needflag)\n→ HashEntry/NULL] <<PfxEntry>> as pe_cw
[check_twosfx(word,\nin_compund,needflag)\n→ HashEntry/NULL] <<PfxEntry>> as pe_cts

[checkword(word,\noptflags,ppfx,cclass,needflag,badflag)\n→ HashEntry/NULL] <<SfxEntry>> as se_cw
[check_twosfx(word,\noptflags,ppfx,needflag)\n→ HashEntry/NULL] <<SfxEntry>> as se_cts

am_ac -down-> am_pc : 1 word
am_ac -down-> am_sc : 2 word
am_ac -down-> am_scts : 3 word
am_ac -down-> am_pcts : 4 word

am_pc -down-> pe_cw : 1 word
am_pcts -down-> pe_cts : 4 word
am_sc -down-> se_cw : 2 word\n1 unprefixed word\n3 unsuffixed word\n4 unsuffixed unprefixed word
am_scts -down-> se_cts : 3 word\n4 unprefixed word

pe_cw .down.> am_lo : 1 unprefixed word
pe_cw .up.> am_sc : 1 unprefixed word
pe_cts .up.> am_scts : 4 unprefixed word

se_cw .down.> am_lo : 2 unsuffixed word\n1 unsuffixed unprefixed word\n3 unsuffixed unsuffixed word\n4 unsuffixed unsuffixed unprefixed word
se_cts .up.> am_sc : 3 unsuffixed word\n4 unsuffixed unprefixed word

skinparam component {
    backgroundColor<<PfxEntry>> Green
    backgroundColor<<SfxEntry>> Red
}

@enduml

PlantUML version 1.2018.12beta1(Unknown compile time)
(GPL source distribution)
Java Runtime: OpenJDK Runtime Environment
JVM: OpenJDK 64-Bit Server VM
Java Version: 10.0.2+13-Ubuntu-1ubuntu0.18.04.2
Operating System: Linux
OS Version: 4.15.0-34-generic
Default Encoding: UTF-8
Language: en
Country: US
--></g></svg>