<?xml version="1.0" encoding="UTF-8" standalone="yes"?><svg xmlns="http://www.w3.org/2000/svg" xmlns:xlink="http://www.w3.org/1999/xlink" height="682px" style="width:1199px;height:682px;" version="1.1" viewBox="0 0 1199 682" width="1199px"><defs><linearGradient id="gr0" x1="0%" x2="100%" y1="50%" y2="50%"><stop offset="0%" stop-color="#FFFFFF"/><stop offset="100%" stop-color="#FFFFFF"/></linearGradient><filter height="300%" id="f1" width="300%" x="-1" y="-1"><feGaussianBlur result="blurOut" stdDeviation="2.0"/><feColorMatrix in="blurOut" result="blurOut2" type="matrix" values="0 0 0 0 0 0 0 0 0 0 0 0 0 0 0 0 0 0 .4 0"/><feOffset dx="4.0" dy="4.0" in="blurOut2" result="blurOut3"/><feBlend in="SourceGraphic" in2="blurOut3" mode="normal"/></filter></defs><g><rect fill="url(#gr0)" height="682" style="stroke: none; stroke-width: 1.0;" width="1199" x="0" y="0"/><text fill="#000000" font-family="sans-serif" font-size="18" lengthAdjust="spacingAndGlyphs" textLength="243" x="483" y="16.708">Hunspell - Check call paths</text><rect fill="#FEFECE" filter="url(#f1)" height="68.8906" style="stroke: #A80036; stroke-width: 1.5;" width="150" x="167.5" y="604.9531"/><rect fill="#FEFECE" height="5" style="stroke: #A80036; stroke-width: 1.5;" width="10" x="162.5" y="609.9531"/><rect fill="#FEFECE" height="5" style="stroke: #A80036; stroke-width: 1.5;" width="10" x="162.5" y="663.8438"/><text fill="#000000" font-family="sans-serif" font-size="14" font-style="italic" lengthAdjust="spacingAndGlyphs" textLength="77" x="204" y="627.9482">«AffixMgr»</text><text fill="#000000" font-family="sans-serif" font-size="14" lengthAdjust="spacingAndGlyphs" textLength="93" x="196" y="644.2451">lookup(word)</text><text fill="#000000" font-family="sans-serif" font-size="14" lengthAdjust="spacingAndGlyphs" textLength="130" x="177.5" y="660.542">→ HashEntry/NULL</text><rect fill="#FEFECE" filter="url(#f1)" height="85.1875" style="stroke: #A80036; stroke-width: 1.5;" width="188" x="548.5" y="28.9531"/><rect fill="#FEFECE" height="5" style="stroke: #A80036; stroke-width: 1.5;" width="10" x="543.5" y="33.9531"/><rect fill="#FEFECE" height="5" style="stroke: #A80036; stroke-width: 1.5;" width="10" x="543.5" y="104.1406"/><text fill="#000000" font-family="sans-serif" font-size="14" font-style="italic" lengthAdjust="spacingAndGlyphs" textLength="77" x="604" y="51.9482">«AffixMgr»</text><text fill="#000000" font-family="sans-serif" font-size="14" lengthAdjust="spacingAndGlyphs" textLength="124" x="580.5" y="68.2451">affix_check(word,</text><text fill="#000000" font-family="sans-serif" font-size="14" lengthAdjust="spacingAndGlyphs" textLength="168" x="558.5" y="84.542">needflag,in_compound)</text><text fill="#000000" font-family="sans-serif" font-size="14" lengthAdjust="spacingAndGlyphs" textLength="130" x="577.5" y="100.8389">→ HashEntry/NULL</text><rect fill="#FEFECE" filter="url(#f1)" height="85.1875" style="stroke: #A80036; stroke-width: 1.5;" width="188" x="32.5" y="190.9531"/><rect fill="#FEFECE" height="5" style="stroke: #A80036; stroke-width: 1.5;" width="10" x="27.5" y="195.9531"/><rect fill="#FEFECE" height="5" style="stroke: #A80036; stroke-width: 1.5;" width="10" x="27.5" y="266.1406"/><text fill="#000000" font-family="sans-serif" font-size="14" font-style="italic" lengthAdjust="spacingAndGlyphs" textLength="77" x="88" y="213.9482">«AffixMgr»</text><text fill="#000000" font-family="sans-serif" font-size="14" lengthAdjust="spacingAndGlyphs" textLength="134" x="59.5" y="230.2451">prefix_check(word,</text><text fill="#000000" font-family="sans-serif" font-size="14" lengthAdjust="spacingAndGlyphs" textLength="168" x="42.5" y="246.542">in_compound,needflag)</text><text fill="#000000" font-family="sans-serif" font-size="14" lengthAdjust="spacingAndGlyphs" textLength="130" x="61.5" y="262.8389">→ HashEntry/NULL</text><rect fill="#FEFECE" filter="url(#f1)" height="85.1875" style="stroke: #A80036; stroke-width: 1.5;" width="206" x="984.5" y="190.9531"/><rect fill="#FEFECE" height="5" style="stroke: #A80036; stroke-width: 1.5;" width="10" x="979.5" y="195.9531"/><rect fill="#FEFECE" height="5" style="stroke: #A80036; stroke-width: 1.5;" width="10" x="979.5" y="266.1406"/><text fill="#000000" font-family="sans-serif" font-size="14" font-style="italic" lengthAdjust="spacingAndGlyphs" textLength="77" x="1049" y="213.9482">«AffixMgr»</text><text fill="#000000" font-family="sans-serif" font-size="14" lengthAdjust="spacingAndGlyphs" textLength="186" x="994.5" y="230.2451">prefix_check_twosfx(word,</text><text fill="#000000" font-family="sans-serif" font-size="14" lengthAdjust="spacingAndGlyphs" textLength="168" x="1003.5" y="246.542">in_compound,needflag)</text><text fill="#000000" font-family="sans-serif" font-size="14" lengthAdjust="spacingAndGlyphs" textLength="130" x="1022.5" y="262.8389">→ HashEntry/NULL</text><rect fill="#FEFECE" filter="url(#f1)" height="85.1875" style="stroke: #A80036; stroke-width: 1.5;" width="324" x="316.5" y="190.9531"/><rect fill="#FEFECE" height="5" style="stroke: #A80036; stroke-width: 1.5;" width="10" x="311.5" y="195.9531"/><rect fill="#FEFECE" height="5" style="stroke: #A80036; stroke-width: 1.5;" width="10" x="311.5" y="266.1406"/><text fill="#000000" font-family="sans-serif" font-size="14" font-style="italic" lengthAdjust="spacingAndGlyphs" textLength="77" x="440" y="213.9482">«AffixMgr»</text><text fill="#000000" font-family="sans-serif" font-size="14" lengthAdjust="spacingAndGlyphs" textLength="131" x="413" y="230.2451">suffix_check(word,</text><text fill="#000000" font-family="sans-serif" font-size="14" lengthAdjust="spacingAndGlyphs" textLength="304" x="326.5" y="246.542">sfxopts,ppfx,cclass,needflag,in_compound)</text><text fill="#000000" font-family="sans-serif" font-size="14" lengthAdjust="spacingAndGlyphs" textLength="130" x="413.5" y="262.8389">→ HashEntry/NULL</text><rect fill="#FEFECE" filter="url(#f1)" height="85.1875" style="stroke: #A80036; stroke-width: 1.5;" width="203" x="706" y="190.9531"/><rect fill="#FEFECE" height="5" style="stroke: #A80036; stroke-width: 1.5;" width="10" x="701" y="195.9531"/><rect fill="#FEFECE" height="5" style="stroke: #A80036; stroke-width: 1.5;" width="10" x="701" y="266.1406"/><text fill="#000000" font-family="sans-serif" font-size="14" font-style="italic" lengthAdjust="spacingAndGlyphs" textLength="77" x="769" y="213.9482">«AffixMgr»</text><text fill="#000000" font-family="sans-serif" font-size="14" lengthAdjust="spacingAndGlyphs" textLength="183" x="716" y="230.2451">suffix_check_twosfx(word,</text><text fill="#000000" font-family="sans-serif" font-size="14" lengthAdjust="spacingAndGlyphs" textLength="157" x="729" y="246.542">sfxopts,ppfx,needflag)</text><text fill="#000000" font-family="sans-serif" font-size="14" lengthAdjust="spacingAndGlyphs" textLength="130" x="742.5" y="262.8389">→ HashEntry/NULL</text><rect fill="#008000" filter="url(#f1)" height="85.1875" style="stroke: #A80036; stroke-width: 1.5;" width="179" x="6" y="397.9531"/><rect fill="#008000" height="5" style="stroke: #A80036; stroke-width: 1.5;" width="10" x="1" y="402.9531"/><rect fill="#008000" height="5" style="stroke: #A80036; stroke-width: 1.5;" width="10" x="1" y="473.1406"/><text fill="#000000" font-family="sans-serif" font-size="14" font-style="italic" lengthAdjust="spacingAndGlyphs" textLength="76" x="57.5" y="420.9482">«PfxEntry»</text><text fill="#000000" font-family="sans-serif" font-size="14" lengthAdjust="spacingAndGlyphs" textLength="121" x="35" y="437.2451">checkword(word,</text><text fill="#000000" font-family="sans-serif" font-size="14" lengthAdjust="spacingAndGlyphs" textLength="159" x="16" y="453.542">in_compund,needflag)</text><text fill="#000000" font-family="sans-serif" font-size="14" lengthAdjust="spacingAndGlyphs" textLength="130" x="30.5" y="469.8389">→ HashEntry/NULL</text><rect fill="#008000" filter="url(#f1)" height="85.1875" style="stroke: #A80036; stroke-width: 1.5;" width="179" x="935" y="397.9531"/><rect fill="#008000" height="5" style="stroke: #A80036; stroke-width: 1.5;" width="10" x="930" y="402.9531"/><rect fill="#008000" height="5" style="stroke: #A80036; stroke-width: 1.5;" width="10" x="930" y="473.1406"/><text fill="#000000" font-family="sans-serif" font-size="14" font-style="italic" lengthAdjust="spacingAndGlyphs" textLength="76" x="986.5" y="420.9482">«PfxEntry»</text><text fill="#000000" font-family="sans-serif" font-size="14" lengthAdjust="spacingAndGlyphs" textLength="138" x="955.5" y="437.2451">check_twosfx(word,</text><text fill="#000000" font-family="sans-serif" font-size="14" lengthAdjust="spacingAndGlyphs" textLength="159" x="945" y="453.542">in_compund,needflag)</text><text fill="#000000" font-family="sans-serif" font-size="14" lengthAdjust="spacingAndGlyphs" textLength="130" x="959.5" y="469.8389">→ HashEntry/NULL</text><rect fill="#FF0000" filter="url(#f1)" height="85.1875" style="stroke: #A80036; stroke-width: 1.5;" width="289" x="220" y="397.9531"/><rect fill="#FF0000" height="5" style="stroke: #A80036; stroke-width: 1.5;" width="10" x="215" y="402.9531"/><rect fill="#FF0000" height="5" style="stroke: #A80036; stroke-width: 1.5;" width="10" x="215" y="473.1406"/><text fill="#000000" font-family="sans-serif" font-size="14" font-style="italic" lengthAdjust="spacingAndGlyphs" textLength="77" x="326" y="420.9482">«SfxEntry»</text><text fill="#000000" font-family="sans-serif" font-size="14" lengthAdjust="spacingAndGlyphs" textLength="121" x="304" y="437.2451">checkword(word,</text><text fill="#000000" font-family="sans-serif" font-size="14" lengthAdjust="spacingAndGlyphs" textLength="269" x="230" y="453.542">optflags,ppfx,cclass,needflag,badflag)</text><text fill="#000000" font-family="sans-serif" font-size="14" lengthAdjust="spacingAndGlyphs" textLength="130" x="299.5" y="469.8389">→ HashEntry/NULL</text><rect fill="#FF0000" filter="url(#f1)" height="85.1875" style="stroke: #A80036; stroke-width: 1.5;" width="184" x="658.5" y="397.9531"/><rect fill="#FF0000" height="5" style="stroke: #A80036; stroke-width: 1.5;" width="10" x="653.5" y="402.9531"/><rect fill="#FF0000" height="5" style="stroke: #A80036; stroke-width: 1.5;" width="10" x="653.5" y="473.1406"/><text fill="#000000" font-family="sans-serif" font-size="14" font-style="italic" lengthAdjust="spacingAndGlyphs" textLength="77" x="712" y="420.9482">«SfxEntry»</text><text fill="#000000" font-family="sans-serif" font-size="14" lengthAdjust="spacingAndGlyphs" textLength="138" x="681.5" y="437.2451">check_twosfx(word,</text><text fill="#000000" font-family="sans-serif" font-size="14" lengthAdjust="spacingAndGlyphs" textLength="164" x="668.5" y="453.542">optflags,ppfx,needflag)</text><text fill="#000000" font-family="sans-serif" font-size="14" lengthAdjust="spacingAndGlyphs" textLength="130" x="685.5" y="469.8389">→ HashEntry/NULL</text><path d="M548.458,101.6131 C457.073,129.9501 318.828,172.8171 225.721,201.6871 " fill="none" style="stroke: #A80036; stroke-width: 1.0;"/><polygon fill="#A80036" points="220.767,203.2231,230.5477,204.3797,225.5429,201.7431,228.1796,196.7383,220.767,203.2231" style="stroke: #A80036; stroke-width: 1.0;"/><text fill="#000000" font-family="sans-serif" font-size="13" lengthAdjust="spacingAndGlyphs" textLength="44" x="401.5" y="157.02">1 word</text><path d="M599.839,114.0731 C576.867,136.4851 548.496,164.1641 524.965,187.1211 " fill="none" style="stroke: #A80036; stroke-width: 1.0;"/><polygon fill="#A80036" points="521.232,190.7631,530.4673,187.3412,524.8108,187.2714,524.8806,181.615,521.232,190.7631" style="stroke: #A80036; stroke-width: 1.0;"/><text fill="#000000" font-family="sans-serif" font-size="13" lengthAdjust="spacingAndGlyphs" textLength="44" x="566.5" y="157.02">2 word</text><path d="M685.421,114.0731 C708.533,136.4851 737.077,164.1641 760.751,187.1211 " fill="none" style="stroke: #A80036; stroke-width: 1.0;"/><polygon fill="#A80036" points="764.508,190.7631,760.8299,181.6269,760.9179,187.283,755.2617,187.371,764.508,190.7631" style="stroke: #A80036; stroke-width: 1.0;"/><text fill="#000000" font-family="sans-serif" font-size="13" lengthAdjust="spacingAndGlyphs" textLength="44" x="731.5" y="157.02">3 word</text><path d="M736.601,106.2871 C807.607,131.8171 905.137,166.8841 979.354,193.5691 " fill="none" style="stroke: #A80036; stroke-width: 1.0;"/><polygon fill="#A80036" points="984.209,195.3151,977.0925,188.5066,979.5037,193.6239,974.3865,196.0351,984.209,195.3151" style="stroke: #A80036; stroke-width: 1.0;"/><text fill="#000000" font-family="sans-serif" font-size="13" lengthAdjust="spacingAndGlyphs" textLength="44" x="879.5" y="157.02">4 word</text><path d="M102.9479,276.0571 C98.627,285.5961 94.7692,295.8971 92.5,305.9531 C86.1132,334.2561 86.6884,366.7941 88.9447,392.6601 " fill="none" style="stroke: #A80036; stroke-width: 1.0;"/><polygon fill="#A80036" points="89.4169,397.7411,92.5666,388.4095,88.954,392.7626,84.6009,389.1501,89.4169,397.7411" style="stroke: #A80036; stroke-width: 1.0;"/><text fill="#000000" font-family="sans-serif" font-size="13" lengthAdjust="spacingAndGlyphs" textLength="44" x="93.5" y="341.52">1 word</text><path d="M1095.45,276.1441 C1098.78,303.1981 1099.67,338.7251 1088.5,367.9531 C1085.04,377.0131 1079.84,385.6501 1073.88,393.5881 " fill="none" style="stroke: #A80036; stroke-width: 1.0;"/><polygon fill="#A80036" points="1070.49,397.9241,1079.1816,393.292,1073.5671,393.9831,1072.876,388.3687,1070.49,397.9241" style="stroke: #A80036; stroke-width: 1.0;"/><text fill="#000000" font-family="sans-serif" font-size="13" lengthAdjust="spacingAndGlyphs" textLength="44" x="1098.5" y="341.52">4 word</text><path d="M366.605,275.9801 C355.5,284.2991 345.696,294.1981 338.5,305.9531 C322.476,332.1301 329.427,366.1401 340.153,393.2821 " fill="none" style="stroke: #A80036; stroke-width: 1.0;"/><polygon fill="#A80036" points="342.048,397.9201,342.3463,388.0758,340.1566,393.2917,334.9407,391.102,342.048,397.9201" style="stroke: #A80036; stroke-width: 1.0;"/><text fill="#000000" font-family="sans-serif" font-size="13" lengthAdjust="spacingAndGlyphs" textLength="44" x="413" y="319.02">2 word</text><text fill="#000000" font-family="sans-serif" font-size="13" lengthAdjust="spacingAndGlyphs" textLength="118" x="376" y="334.1528">1 unprefixed word</text><text fill="#000000" font-family="sans-serif" font-size="13" lengthAdjust="spacingAndGlyphs" textLength="117" x="376.5" y="349.2856">3 unsuffixed word</text><text fill="#000000" font-family="sans-serif" font-size="13" lengthAdjust="spacingAndGlyphs" textLength="191" x="339.5" y="364.4185">4 unsuffixed unprefixed word</text><path d="M795.828,276.4321 C786.421,310.2621 773.205,357.7951 763.469,392.8081 " fill="none" style="stroke: #A80036; stroke-width: 1.0;"/><polygon fill="#A80036" points="762.059,397.8801,768.3247,390.2813,763.399,393.063,760.6173,388.1374,762.059,397.8801" style="stroke: #A80036; stroke-width: 1.0;"/><text fill="#000000" font-family="sans-serif" font-size="13" lengthAdjust="spacingAndGlyphs" textLength="44" x="825.5" y="334.02">3 word</text><text fill="#000000" font-family="sans-serif" font-size="13" lengthAdjust="spacingAndGlyphs" textLength="118" x="788.5" y="349.1528">4 unprefixed word</text><path d="M107.519,483.0791 C117.062,511.1121 132.487,547.7831 154.5,574.9531 C162.457,584.7746 172.288,593.8096 182.464,601.7959 " fill="none" style="stroke: #A80036; stroke-width: 1.0; stroke-dasharray: 7.0,7.0;"/><polygon fill="#A80036" points="186.531,604.9202,181.8303,596.2655,182.5658,601.8744,176.957,602.6098,186.531,604.9202" style="stroke: #A80036; stroke-width: 1.0;"/><text fill="#000000" font-family="sans-serif" font-size="13" lengthAdjust="spacingAndGlyphs" textLength="118" x="155.5" y="548.52">1 unprefixed word</text><path d="M311.13,259.1851 C273.096,269.6921 234.284,284.6531 201.5,305.9531 C182.577,318.2471 148.584,363.2681 124.19,397.6621 " fill="none" style="stroke: #A80036; stroke-width: 1.0; stroke-dasharray: 7.0,7.0;"/><polygon fill="#A80036" points="316.247,257.7971,306.5134,256.2947,311.4216,259.107,308.6093,264.0152,316.247,257.7971" style="stroke: #A80036; stroke-width: 1.0;"/><text fill="#000000" font-family="sans-serif" font-size="13" lengthAdjust="spacingAndGlyphs" textLength="118" x="202.5" y="341.52">1 unprefixed word</text><path d="M882.528,279.0091 C894.109,287.3041 905.521,296.3941 915.5,305.9531 C940.089,329.5051 939.118,341.4561 960.5,367.9531 C968.451,377.8061 977.322,388.1111 985.866,397.7301 " fill="none" style="stroke: #A80036; stroke-width: 1.0; stroke-dasharray: 7.0,7.0;"/><polygon fill="#A80036" points="878.255,275.9901,883.2939,284.4524,882.3374,278.877,887.9128,277.9205,878.255,275.9901" style="stroke: #A80036; stroke-width: 1.0;"/><text fill="#000000" font-family="sans-serif" font-size="13" lengthAdjust="spacingAndGlyphs" textLength="118" x="961.5" y="341.52">4 unprefixed word</text><path d="M338.627,483.2321 C317.139,517.9291 286.83,566.8711 266.021,600.4718 " fill="none" style="stroke: #A80036; stroke-width: 1.0; stroke-dasharray: 7.0,7.0;"/><polygon fill="#A80036" points="263.278,604.9022,271.4169,599.3563,265.9103,600.6512,264.6153,595.1446,263.278,604.9022" style="stroke: #A80036; stroke-width: 1.0;"/><text fill="#000000" font-family="sans-serif" font-size="13" lengthAdjust="spacingAndGlyphs" textLength="117" x="393" y="526.02">2 unsuffixed word</text><text fill="#000000" font-family="sans-serif" font-size="13" lengthAdjust="spacingAndGlyphs" textLength="191" x="356" y="541.1528">1 unsuffixed unprefixed word</text><text fill="#000000" font-family="sans-serif" font-size="13" lengthAdjust="spacingAndGlyphs" textLength="190" x="356.5" y="556.2856">3 unsuffixed unsuffixed word</text><text fill="#000000" font-family="sans-serif" font-size="13" lengthAdjust="spacingAndGlyphs" textLength="264" x="319.5" y="571.4185">4 unsuffixed unsuffixed unprefixed word</text><path d="M516.611,280.0591 C523.152,288.4941 529.702,297.3581 535.5,305.9531 C553.196,332.1851 546.658,347.1481 570.5,367.9531 C595.455,389.7301 627.854,405.3341 658.275,416.2911 " fill="none" style="stroke: #A80036; stroke-width: 1.0; stroke-dasharray: 7.0,7.0;"/><polygon fill="#A80036" points="513.404,275.9551,515.7934,285.5098,516.4825,279.895,522.0972,280.5842,513.404,275.9551" style="stroke: #A80036; stroke-width: 1.0;"/><text fill="#000000" font-family="sans-serif" font-size="13" lengthAdjust="spacingAndGlyphs" textLength="117" x="608.5" y="334.02">3 unsuffixed word</text><text fill="#000000" font-family="sans-serif" font-size="13" lengthAdjust="spacingAndGlyphs" textLength="191" x="571.5" y="349.1528">4 unsuffixed unprefixed word</text></g></svg>